<svg width="72" height="29" viewBox="0 0 72 29" fill="none" xmlns="http://www.w3.org/2000/svg">
<path d="M39.8493 6.3C39.8493 2.269 36.9893 0 31.8043 0C28.7873 0 25.8643 0.121 25.8643 0.121V20.574H29.9503V13.508C29.9503 13.508 30.6413 13.569 31.4273 13.569C36.8953 13.573 39.8493 10.421 39.8493 6.3ZM35.6063 6.694C35.6063 8.937 34.2863 10.3 31.6783 10.3C31.0987 10.2985 30.5202 10.2477 29.9493 10.148V3.268C29.9493 3.268 30.7353 3.238 31.5203 3.238C34.3813 3.239 35.6043 4.481 35.6043 6.694H35.6063ZM54.3693 20.574C54.2753 19.331 54.2433 17.907 54.2433 16.695V10.482C54.2433 7.118 52.7973 5.182 47.9573 5.182C45.9433 5.18254 43.9446 5.531 42.0493 6.212L42.7093 9.182C44.2075 8.56326 45.8035 8.21455 47.4233 8.152C49.4973 8.152 50.2233 8.97 50.2233 10.789V11.335C44.7553 11.335 41.2033 13.002 41.2033 16.578C41.1772 17.1637 41.2761 17.7482 41.4934 18.2927C41.7107 18.8372 42.0415 19.3292 42.4636 19.7359C42.8858 20.1427 43.3898 20.4549 43.942 20.6518C44.4942 20.8488 45.082 20.9258 45.6663 20.878C46.6883 20.9297 47.7035 20.6856 48.5903 20.175C49.4772 19.6644 50.1979 18.9089 50.6663 17.999L50.6973 18.029C50.5795 18.8724 50.527 19.7236 50.5403 20.575L54.3693 20.574ZM50.2213 14.274C50.2607 15.1871 49.9404 16.0793 49.3292 16.7589C48.7179 17.4384 47.8645 17.851 46.9523 17.908C46.7107 17.9264 46.4679 17.8945 46.2393 17.8144C46.0107 17.7342 45.8012 17.6075 45.6239 17.4424C45.4467 17.2772 45.3057 17.077 45.2097 16.8546C45.1137 16.6322 45.0649 16.3923 45.0663 16.15C45.0663 14.85 46.1663 13.877 50.2203 13.877L50.2213 14.274ZM71.6863 5.508H67.3803L65.5263 10.634C65.0263 12.028 64.3633 14.059 64.0173 15.422H63.9863C63.6403 14.058 63.2003 12.573 62.7603 11.27L60.6543 5.508H56.1603L61.9433 20.574L61.4433 21.907C60.5943 24.271 59.2123 24.877 57.8923 24.877C57.2214 24.871 56.5548 24.77 55.9123 24.577L55.4373 27.908C56.1632 28.0416 56.8992 28.1125 57.6373 28.12C61.2513 28.12 63.4513 26.635 65.4943 21.42L71.6863 5.508Z" fill="white"/>
<path d="M0.313477 0.121094V20.5901H20.8405V0.121094H0.313477ZM7.97546 3.63908L13.0065 2.05409V16.9381L7.97546 18.6271V3.63908Z" fill="white"/>
</svg>
