<svg width="120" height="120" viewBox="0 0 120 120" fill="none" xmlns="http://www.w3.org/2000/svg">
<g clip-path="url(#clip0_1385_19877)">
<mask id="mask0_1385_19877" style="mask-type:luminance" maskUnits="userSpaceOnUse" x="3" y="2" width="117" height="88">
<path d="M119.672 2.66699H3.65625V89.8861H119.672V2.66699Z" fill="white"/>
</mask>
<g mask="url(#mask0_1385_19877)">
<mask id="mask1_1385_19877" style="mask-type:luminance" maskUnits="userSpaceOnUse" x="3" y="2" width="117" height="88">
<path d="M3.65625 2.66602H119.672V89.8851H3.65625V2.66602Z" fill="white"/>
</mask>
<g mask="url(#mask1_1385_19877)">
<path d="M50.9456 13.3286C50.5508 14.6107 49.8331 16.9415 49.3682 18.4516" stroke="#FEDD98" stroke-width="0.363413" stroke-linecap="round" stroke-linejoin="round"/>
<path d="M54.1027 15.397C53.0908 16.2753 51.2514 17.8724 50.0596 18.907" stroke="#FEDD98" stroke-width="0.363413" stroke-linecap="round" stroke-linejoin="round"/>
<path d="M55.692 18.8188C54.3696 19.0274 51.9657 19.4067 50.4082 19.6523" stroke="#FEDD98" stroke-width="0.363413" stroke-linecap="round" stroke-linejoin="round"/>
<path d="M55.2308 22.5785C53.9987 22.0541 51.7589 21.1007 50.3076 20.4829" stroke="#FEDD98" stroke-width="0.363413" stroke-linecap="round" stroke-linejoin="round"/>
<path d="M52.8569 25.5105C52.0885 24.4119 50.6914 22.4147 49.7861 21.1206" stroke="#FEDD98" stroke-width="0.363413" stroke-linecap="round" stroke-linejoin="round"/>
<path d="M49.2956 26.7442C49.2232 25.4043 49.0921 22.9687 49.0068 21.3906" stroke="#FEDD98" stroke-width="0.363413" stroke-linecap="round" stroke-linejoin="round"/>
<path d="M45.6201 25.902C46.2664 24.7269 47.4412 22.5908 48.2024 21.2065" stroke="#FEDD98" stroke-width="0.363413" stroke-linecap="round" stroke-linejoin="round"/>
<path d="M42.9463 23.24C44.115 22.5859 46.2397 21.3966 47.6163 20.626" stroke="#FEDD98" stroke-width="0.363413" stroke-linecap="round" stroke-linejoin="round"/>
<path d="M42.085 19.5591C43.4219 19.624 45.8524 19.7419 47.4273 19.8184" stroke="#FEDD98" stroke-width="0.363413" stroke-linecap="round" stroke-linejoin="round"/>
<path d="M43.2959 15.9775C44.3961 16.742 46.396 18.1313 47.692 19.0317" stroke="#FEDD98" stroke-width="0.363413" stroke-linecap="round" stroke-linejoin="round"/>
<path d="M46.2148 13.5903C46.7447 14.8225 47.7082 17.0624 48.3325 18.5137" stroke="#FEDD98" stroke-width="0.363413" stroke-linecap="round" stroke-linejoin="round"/>
<path d="M48.8906 7.87061C48.8906 7.87061 48.8906 10.5353 48.8906 13.3627" stroke="#FFCA02" stroke-width="0.363413" stroke-linecap="round" stroke-linejoin="round"/>
<path d="M55.2727 9.70605C55.2727 9.70605 53.8658 11.967 52.373 14.3661" stroke="#FFCA02" stroke-width="0.363413" stroke-linecap="round" stroke-linejoin="round"/>
<path d="M59.7203 14.6489C59.7203 14.6489 57.3329 15.8211 54.7998 17.0649" stroke="#FFCA02" stroke-width="0.363413" stroke-linecap="round" stroke-linejoin="round"/>
<path d="M60.8871 21.1981C60.8871 21.1981 58.2425 20.9262 55.4365 20.6377" stroke="#FFCA02" stroke-width="0.363413" stroke-linecap="round" stroke-linejoin="round"/>
<path d="M58.4187 27.3815C58.4187 27.3815 56.3182 25.7479 54.0898 24.0146" stroke="#FFCA02" stroke-width="0.363413" stroke-linecap="round" stroke-linejoin="round"/>
<path d="M53.0614 31.3058C53.0614 31.3058 52.1418 28.8056 51.166 26.1528" stroke="#FFCA02" stroke-width="0.363413" stroke-linecap="round" stroke-linejoin="round"/>
<path d="M46.4424 31.8006C46.4424 31.8006 46.982 29.1913 47.5547 26.4229" stroke="#FFCA02" stroke-width="0.363413" stroke-linecap="round" stroke-linejoin="round"/>
<path d="M40.5625 28.7074C40.5625 28.7074 42.3981 26.7797 44.3455 24.7344" stroke="#FFCA02" stroke-width="0.363413" stroke-linecap="round" stroke-linejoin="round"/>
<path d="M37.208 22.9671C37.208 22.9671 39.7832 22.3051 42.5154 21.603" stroke="#FFCA02" stroke-width="0.363413" stroke-linecap="round" stroke-linejoin="round"/>
<path d="M37.3916 16.3125C37.3916 16.3125 39.926 17.1169 42.615 17.9706" stroke="#FFCA02" stroke-width="0.363413" stroke-linecap="round" stroke-linejoin="round"/>
<path d="M41.0605 10.7651C41.0605 10.7651 42.7863 12.7923 44.6173 14.9429" stroke="#FFCA02" stroke-width="0.363413" stroke-linecap="round" stroke-linejoin="round"/>
<path d="M48.9482 46.9727C48.9482 49.6568 48.9482 51.4139 48.9482 51.4139" stroke="#FFCA02" stroke-width="0.181707" stroke-linecap="round" stroke-linejoin="round"/>
</g>
<mask id="mask2_1385_19877" style="mask-type:luminance" maskUnits="userSpaceOnUse" x="3" y="2" width="117" height="88">
<path d="M3.65625 2.66602H119.672V89.8851H3.65625V2.66602Z" fill="white"/>
</mask>
<g mask="url(#mask2_1385_19877)">
<path d="M78.6758 79.8477C78.6758 82.6399 78.6758 84.4814 78.6758 84.4814" stroke="#FF5E38" stroke-width="0.181707" stroke-linecap="round" stroke-linejoin="round"/>
</g>
<mask id="mask3_1385_19877" style="mask-type:luminance" maskUnits="userSpaceOnUse" x="3" y="2" width="117" height="88">
<path d="M3.65625 2.66602H119.672V89.8851H3.65625V2.66602Z" fill="white"/>
</mask>
<g mask="url(#mask3_1385_19877)">
<path d="M27.9199 51.5522C27.9199 57.8318 27.9199 67.6489 27.9199 73.1404" stroke="#C9122E" stroke-width="0.181707" stroke-linecap="round" stroke-linejoin="round"/>
<path d="M27.8604 44.2026C27.8604 45.1519 27.8604 45.7644 27.8604 45.7644" stroke="#C9122E" stroke-width="0.363413" stroke-linecap="round" stroke-linejoin="round"/>
<path d="M28.6848 44.4395C28.1837 45.245 27.8604 45.7646 27.8604 45.7646" stroke="#C9122E" stroke-width="0.363413" stroke-linecap="round" stroke-linejoin="round"/>
<path d="M29.2596 45.0815C28.4091 45.4991 27.8604 45.7686 27.8604 45.7686" stroke="#C9122E" stroke-width="0.363413" stroke-linecap="round" stroke-linejoin="round"/>
<path d="M29.4093 45.9318C28.4672 45.835 27.8594 45.7725 27.8594 45.7725" stroke="#C9122E" stroke-width="0.363413" stroke-linecap="round" stroke-linejoin="round"/>
<path d="M29.0902 46.7299C28.3421 46.1479 27.8594 45.7725 27.8594 45.7725" stroke="#C9122E" stroke-width="0.363413" stroke-linecap="round" stroke-linejoin="round"/>
<path d="M28.3983 47.2377C28.0707 46.3472 27.8594 45.7725 27.8594 45.7725" stroke="#C9122E" stroke-width="0.363413" stroke-linecap="round" stroke-linejoin="round"/>
<path d="M27.5439 47.3017C27.7363 46.3721 27.8603 45.7725 27.8603 45.7725" stroke="#C9122E" stroke-width="0.363413" stroke-linecap="round" stroke-linejoin="round"/>
<path d="M26.7852 46.9021C27.439 46.2155 27.8608 45.7725 27.8608 45.7725" stroke="#C9122E" stroke-width="0.363413" stroke-linecap="round" stroke-linejoin="round"/>
<path d="M26.3516 46.1604C27.2688 45.9246 27.8607 45.7725 27.8607 45.7725" stroke="#C9122E" stroke-width="0.363413" stroke-linecap="round" stroke-linejoin="round"/>
<path d="M26.375 45.2939C27.2779 45.5805 27.8604 45.7655 27.8604 45.7655" stroke="#C9122E" stroke-width="0.363413" stroke-linecap="round" stroke-linejoin="round"/>
<path d="M26.8486 44.5786C27.4633 45.3007 27.86 45.7666 27.86 45.7666" stroke="#C9122E" stroke-width="0.363413" stroke-linecap="round" stroke-linejoin="round"/>
</g>
<mask id="mask4_1385_19877" style="mask-type:luminance" maskUnits="userSpaceOnUse" x="3" y="11" width="117" height="88">
<path d="M3.65527 11.1045H119.671V98.3236H3.65527V11.1045Z" fill="white"/>
</mask>
<g mask="url(#mask4_1385_19877)">
<path d="M99.1624 20.2373C98.7676 21.5194 98.0499 23.8502 97.585 25.3603" stroke="#FF9AA2" stroke-width="0.363413" stroke-linecap="round" stroke-linejoin="round"/>
<path d="M102.32 22.3018C101.308 23.1801 99.4682 24.7771 98.2764 25.8118" stroke="#FF9AA2" stroke-width="0.363413" stroke-linecap="round" stroke-linejoin="round"/>
<path d="M103.908 25.7314C102.585 25.94 100.182 26.3193 98.624 26.5649" stroke="#FF9AA2" stroke-width="0.363413" stroke-linecap="round" stroke-linejoin="round"/>
<path d="M103.447 29.4789C102.215 28.9545 99.9747 28.0011 98.5234 27.3833" stroke="#FF9AA2" stroke-width="0.363413" stroke-linecap="round" stroke-linejoin="round"/>
<path d="M101.074 32.4191C100.305 31.3205 98.9082 29.3234 98.0029 28.0293" stroke="#FF9AA2" stroke-width="0.363413" stroke-linecap="round" stroke-linejoin="round"/>
<path d="M97.5114 33.6524C97.4391 32.3125 97.3079 29.877 97.2227 28.2988" stroke="#FF9AA2" stroke-width="0.363413" stroke-linecap="round" stroke-linejoin="round"/>
<path d="M93.8359 32.8024C94.4822 31.6273 95.657 29.4912 96.4182 28.1069" stroke="#FF9AA2" stroke-width="0.363413" stroke-linecap="round" stroke-linejoin="round"/>
<path d="M91.1621 30.1404C92.3308 29.4863 94.4555 28.297 95.8321 27.5264" stroke="#FF9AA2" stroke-width="0.363413" stroke-linecap="round" stroke-linejoin="round"/>
<path d="M90.3018 26.4673C91.6387 26.5322 94.0692 26.6501 95.6441 26.7266" stroke="#FF9AA2" stroke-width="0.363413" stroke-linecap="round" stroke-linejoin="round"/>
<path d="M91.5127 22.8862C92.6128 23.6507 94.6128 25.04 95.9088 25.9404" stroke="#FF9AA2" stroke-width="0.363413" stroke-linecap="round" stroke-linejoin="round"/>
<path d="M94.4307 20.4907C94.9605 21.7229 95.924 23.9628 96.5483 25.4141" stroke="#FF9AA2" stroke-width="0.363413" stroke-linecap="round" stroke-linejoin="round"/>
<path d="M97.1074 14.7832C97.1074 14.7832 97.1074 17.4479 97.1074 20.2753" stroke="#FE7582" stroke-width="0.363413" stroke-linecap="round" stroke-linejoin="round"/>
<path d="M103.49 16.6187C103.49 16.6187 102.084 18.8796 100.591 21.2787" stroke="#FE7582" stroke-width="0.363413" stroke-linecap="round" stroke-linejoin="round"/>
<path d="M107.938 21.5571C107.938 21.5571 105.551 22.7293 103.018 23.9731" stroke="#FE7582" stroke-width="0.363413" stroke-linecap="round" stroke-linejoin="round"/>
<path d="M109.106 28.1029C109.106 28.1029 106.461 27.831 103.655 27.5425" stroke="#FE7582" stroke-width="0.363413" stroke-linecap="round" stroke-linejoin="round"/>
<path d="M106.636 34.2902C106.636 34.2902 104.536 32.6566 102.308 30.9233" stroke="#FE7582" stroke-width="0.363413" stroke-linecap="round" stroke-linejoin="round"/>
<path d="M101.279 38.2184C101.279 38.2184 100.36 35.7182 99.3838 33.0654" stroke="#FE7582" stroke-width="0.363413" stroke-linecap="round" stroke-linejoin="round"/>
<path d="M94.6582 38.7132C94.6582 38.7132 95.1979 36.1039 95.7705 33.3354" stroke="#FE7582" stroke-width="0.363413" stroke-linecap="round" stroke-linejoin="round"/>
<path d="M88.7803 35.6161C88.7803 35.6161 90.6159 33.6884 92.5633 31.6431" stroke="#FE7582" stroke-width="0.363413" stroke-linecap="round" stroke-linejoin="round"/>
<path d="M85.4248 29.8797C85.4248 29.8797 88 29.2177 90.7321 28.5156" stroke="#FE7582" stroke-width="0.363413" stroke-linecap="round" stroke-linejoin="round"/>
<path d="M85.6104 23.2212C85.6104 23.2212 88.1447 24.0256 90.8338 24.8793" stroke="#FE7582" stroke-width="0.363413" stroke-linecap="round" stroke-linejoin="round"/>
<path d="M89.2793 17.6816C89.2793 17.6816 91.005 19.7088 92.8361 21.8594" stroke="#FE7582" stroke-width="0.363413" stroke-linecap="round" stroke-linejoin="round"/>
<path d="M97.168 53.8735C97.168 56.5577 97.168 58.3148 97.168 58.3148" stroke="#FE7582" stroke-width="0.181707" stroke-linecap="round" stroke-linejoin="round"/>
</g>
</g>
</g>
<path d="M68.213 64.5693C68.213 64.5693 83.0784 62.6188 85.3038 62.1508C87.5292 61.6827 90.3776 61.4486 91.891 61.6827C93.4041 61.9167 95.8076 62.2289 97.3209 62.6969C98.8341 63.1651 99.3683 63.6331 99.9911 64.1793C99.9911 64.1793 100.614 64.4912 100.881 65.0374C101.148 65.5835 101.678 66.626 101.678 66.626C101.678 66.626 101.676 66.61 101.823 68.245C101.876 68.8336 101.62 69.9776 101.62 69.9776C101.62 69.9776 100.957 70.936 100.52 71.3868C100.083 71.8378 94.9383 75.1742 94.1408 75.5574C93.3436 75.9407 89.4337 77.7665 88.5849 78.0369C87.7361 78.3075 84.9067 79.4574 84.9067 79.4574L77.6792 77.8794L67.1846 70.5302L68.213 64.5693Z" fill="#FB7865"/>
<path d="M72.6603 46.0518C72.7889 47.311 73.8564 47.8124 75.0904 47.2213C75.2577 47.1411 75.6216 47.1725 75.757 47.2826C76.2297 47.6672 76.6658 48.0931 77.0598 48.5412C77.1509 48.6447 77.0888 48.942 76.9791 49.0753C76.557 49.5879 76.4048 50.1436 76.5764 50.7446C76.8829 51.8172 78.0849 52.1222 78.9896 51.3665C79.1309 51.2485 79.214 51.0772 79.3326 50.9194C80.2628 51.8302 81.1317 52.5962 81.8698 53.4493C82.1303 53.7503 82.1117 54.2617 82.1482 54.6819C82.2089 55.381 82.7089 55.8808 83.514 55.825C84.1884 55.7785 84.5765 56.0171 84.965 56.4549C86.2167 57.8642 87.0393 59.4685 87.7533 61.1168C87.9277 61.5201 88.13 61.6195 88.5712 61.5943C90.7377 61.4709 92.8958 61.4794 95.0402 61.8617C96.6786 62.1539 98.2593 62.6076 99.6166 63.448C100.588 64.0492 101.208 64.971 101.557 65.9925C101.586 66.0775 101.491 66.1949 101.406 66.4322C101.253 66.1698 101.142 66.0305 101.086 65.8761C100.479 64.2203 98.9705 63.3658 97.2843 62.7915C94.7929 61.9426 92.1591 61.7931 89.5037 61.8907C88.7715 61.9176 88.0367 61.8948 87.5046 61.8948C87.099 61.3953 86.8569 60.9402 86.4617 60.6406C85.3868 59.8252 84.2702 60.224 84.036 61.4604C83.8476 62.4562 83.8507 62.4722 82.7117 62.6515C79.9488 63.0863 77.1854 63.5196 74.4158 63.9183C73.8325 64.0022 73.8059 64.2223 74.0288 64.5837C74.6115 65.5298 75.1556 66.4995 75.8153 67.4033C77.9296 70.2991 80.4283 72.9065 83.6947 74.8539C85.2045 75.754 86.8277 76.513 88.437 77.2749C88.773 77.434 89.3615 77.4667 89.6855 77.3148C91.989 76.2339 94.2828 75.1316 96.5216 73.9518C98.1314 73.1033 99.5715 72.0418 100.743 70.7325C100.96 70.489 101.126 70.2096 101.322 69.9502C101.34 69.9266 101.401 69.9282 101.57 69.8863C101.376 70.665 100.914 71.2291 100.335 71.7275C98.1579 73.6004 95.617 75.0206 92.9173 76.2239C90.4901 77.3059 88.029 78.3294 85.5818 79.3768C85.5062 79.4091 85.4185 79.4196 85.3366 79.4402L85.208 79.3172C85.3461 79.2059 85.4636 79.0534 85.6263 78.9899C86.4964 78.6493 87.3779 78.3308 88.3634 77.9645C88.1444 77.8235 88.0405 77.732 87.915 77.6797C82.3998 75.3809 78.1687 71.8518 75.0277 67.2898C74.418 66.4042 73.8747 65.4817 73.3459 64.5563C73.1596 64.2305 72.946 64.1346 72.5588 64.1896C71.5679 64.3306 70.5752 64.4667 69.5781 64.5661C69.4006 64.5837 69.0882 64.4561 69.0252 64.3261C68.4796 63.1961 67.6726 62.2676 66.5096 61.5721C66.3661 61.4863 66.2469 61.2403 66.2719 61.0884C66.3961 60.3364 66.5725 59.5911 66.725 58.8698C66.846 58.8464 66.8965 58.8208 66.9241 58.8336C68.3437 59.4841 69.5658 58.92 69.7677 57.5187C69.851 56.9405 69.1708 56.1348 68.2746 55.9856C67.4718 55.8521 67.5114 55.5016 67.6764 54.9922C68.2861 53.111 68.8173 51.2076 69.5127 49.3515C69.9886 48.0813 70.5757 46.8098 71.9898 46.0518H72.6603ZM73.4967 55.7074C73.4871 56.5364 74.3637 57.3015 75.3453 57.3211C76.1421 57.3369 77.1174 56.38 77.1058 55.594C77.0952 54.8885 75.9871 54.0002 75.0848 53.9741C74.2497 53.95 73.5074 54.7601 73.4967 55.7074ZM72.9753 50.304C72.9877 49.3942 72.2089 48.7866 71.0254 48.7823C70.1871 48.7793 69.4101 49.5048 69.4131 50.2881C69.4164 51.2307 70.2859 51.9541 71.417 51.9559C72.3384 51.9575 72.9616 51.2969 72.9753 50.304ZM74.8516 61.4445C74.8632 60.4851 74.2724 59.9243 73.2594 59.933C72.4087 59.9403 71.6432 60.715 71.6269 61.5856C71.6112 62.3986 72.3075 62.9358 73.4154 62.9658C74.2743 62.9891 74.8399 62.3898 74.8516 61.4445ZM82.6664 58.751C82.706 57.9239 81.9627 57.2586 80.9627 57.226C80.1822 57.2005 79.4629 57.863 79.4375 58.6305C79.4122 59.3978 80.2671 60.175 81.1633 60.1996C81.937 60.2209 82.6282 59.5547 82.6664 58.751Z" fill="#183EAC"/>
<path d="M83.6247 71.3226C83.6269 70.0156 84.7901 69.0322 86.3393 69.0274C87.873 69.0226 88.9345 69.9926 88.9392 71.4035C88.9441 72.8382 88.004 73.6939 86.3707 73.6802C85.227 73.6706 83.5091 72.8636 83.6247 71.3226Z" fill="#183EAC"/>
<path d="M98.725 67.2382C97.8959 67.2097 97.3203 66.8677 96.9759 66.3219C96.8425 66.1108 96.9117 65.6695 97.09 65.4764C97.263 65.2893 97.7055 65.1971 98.0091 65.2266C98.3123 65.2561 98.5776 65.515 98.8825 65.6242C99.2112 65.7418 99.5637 65.8624 99.9105 65.8735C100.41 65.8895 100.523 66.0697 100.325 66.4209C99.9865 67.0196 99.3171 67.1294 98.725 67.2382Z" fill="#183EAC"/>
<path d="M81.7097 67.01C80.5686 66.9997 79.3314 66.1398 79.0674 65.1436C79.0325 65.012 79.1613 64.8473 79.2143 64.6978C79.3512 64.7775 79.5303 64.8316 79.6165 64.9417C79.8166 65.1974 79.9284 65.5121 80.1526 65.7464C81.1691 66.8079 82.7829 66.6473 83.5276 65.4274C83.5696 65.3585 83.5809 65.2628 83.6428 65.2181C83.7791 65.1198 83.9386 65.0461 84.0885 64.9624C84.1272 65.1151 84.2365 65.2861 84.1932 65.4181C83.8974 66.316 82.7779 67.0198 81.7097 67.01Z" fill="#183EAC"/>
<path d="M98.7067 72.1098C98.1418 72.0132 97.5663 71.9501 97.0141 71.8135C95.8888 71.5351 94.943 70.9996 94.2802 70.1384C94.0975 69.9011 93.9578 69.6183 93.8904 69.3392C93.8477 69.1629 93.9756 68.955 94.027 68.7612C94.1674 68.8996 94.3805 69.0187 94.4355 69.1797C94.6736 69.8772 95.1785 70.3985 95.8619 70.7469C96.7696 71.2096 97.7314 71.5903 98.6697 72.0062C98.6821 72.0407 98.6946 72.0752 98.7067 72.1098Z" fill="#183EAC"/>
<path d="M73.4971 55.708C73.5079 54.7607 74.2502 53.9506 75.0853 53.9746C75.9876 54.0008 77.0957 54.8892 77.1062 55.5945C77.1179 56.3806 76.1425 57.3375 75.3458 57.3217C74.3642 57.302 73.4876 56.5371 73.4971 55.708Z" fill="#FECBA7"/>
<path d="M72.9763 50.2998C72.9626 51.2926 72.3394 51.9535 71.418 51.952C70.2868 51.9501 69.4174 51.2266 69.4141 50.2842C69.4111 49.5008 70.1881 48.7753 71.0263 48.7783C72.2099 48.7824 72.9886 49.3901 72.9763 50.2998Z" fill="#FECBA7"/>
<path d="M74.8519 61.4422C74.8404 62.3875 74.2747 62.9867 73.416 62.9634C72.3079 62.9334 71.6116 62.3964 71.6272 61.5832C71.6437 60.7127 72.409 59.9381 73.2598 59.9308C74.2728 59.9221 74.8635 60.4827 74.8519 61.4422Z" fill="#FECBA7"/>
<path d="M82.6671 58.7503C82.6289 59.554 81.9375 60.2202 81.1638 60.1989C80.2676 60.1743 79.4127 59.3971 79.438 58.6298C79.4634 57.8623 80.1827 57.1998 80.9632 57.2253C81.9632 57.2579 82.7066 57.9232 82.6671 58.7503Z" fill="#FECBA7"/>
<path d="M72.6611 46.0502C72.6611 46.0502 73.0844 45.675 73.9516 46.1816C74.8192 46.6885 75.5814 47.1721 75.5814 47.1721C75.5814 47.1721 74.5827 47.656 74.1097 47.5407C73.6365 47.4255 73.216 47.4026 72.9794 46.9879C72.743 46.5733 72.6611 46.0502 72.6611 46.0502Z" fill="#FECBA7"/>
<path d="M67.574 55.4297C67.574 55.4297 67.2614 56.4889 67.0322 57.329C66.8031 58.1691 66.032 59.4108 67.9905 59.0821C69.9493 58.7535 69.7319 57.7585 69.7676 57.5164C69.8034 57.2742 69.1574 56.142 68.7199 55.9593C68.2824 55.7768 67.574 55.4297 67.574 55.4297Z" fill="#FECBA7"/>
<path d="M76.9723 48.4883C76.9723 48.4883 77.9515 49.0179 78.535 49.7667C79.1183 50.5154 79.3892 51.045 79.3892 51.045C79.3892 51.045 78.4727 52.1041 77.6391 51.7571C76.8057 51.4102 76.0765 50.5517 76.3682 50.004C76.6598 49.4561 76.9723 48.4883 76.9723 48.4883Z" fill="#FECBA7"/>
<path d="M66.2726 61.0879C66.2726 61.0879 68.5046 62.2919 68.6775 63.1576C68.8503 64.0232 69.7887 64.586 69.3441 64.586C68.8998 64.586 66.9243 65.0838 66.455 64.8674C65.9859 64.6509 65.8625 63.7851 66.0354 62.7896C66.2081 61.7941 66.2726 61.0879 66.2726 61.0879Z" fill="#FECBA7"/>
<path d="M84.7284 60.3459C84.3334 60.5839 84.0614 60.9735 83.9873 61.3198C83.9134 61.6661 83.5429 62.3803 83.6416 62.4236C83.7405 62.4668 87.5909 62.1045 87.5053 61.8961C87.4197 61.6877 86.7282 60.5839 86.3085 60.4324C85.8887 60.2809 85.1975 60.0645 84.9998 60.1728C84.8025 60.2809 84.7284 60.3459 84.7284 60.3459Z" fill="#FECBA7"/>
<path d="M81.8711 53.4468C81.8711 53.4468 83.1729 54.5206 83.6913 55.0401C84.21 55.5595 84.753 56.2303 84.753 56.2303C84.753 56.2303 83.4443 56.1871 83.0245 55.8841C82.6049 55.5811 82.311 55.2714 82.1493 54.6794C81.9875 54.0876 81.8711 53.4468 81.8711 53.4468Z" fill="#FECBA7"/>
<path d="M97.0434 70.6367C97.4608 70.1686 101.506 66.1981 101.506 66.1981C101.506 66.1981 106.566 61.9541 107.106 61.2102C107.646 60.4663 108.084 59.3615 107.672 59.1135C107.261 58.8655 106.129 58.6403 105.692 58.9109C105.255 59.1813 104.637 59.6323 104.766 60.2634C104.895 60.8946 104.894 61.12 105.229 61.12C105.563 61.12 105.923 61.1427 106.078 60.8721C106.232 60.6016 106.566 60.2859 106.464 60.1958C106.361 60.1056 106.026 60.083 105.975 60.2408C105.923 60.3987 105.898 60.7369 105.743 60.7142C105.589 60.6917 105.229 60.6917 105.306 60.331C105.383 59.9704 105.486 59.5421 105.975 59.4969C106.464 59.4517 106.798 59.3392 106.901 59.5421C107.004 59.7448 107.312 59.8125 107.106 60.3536C106.901 60.8946 106.258 61.7512 105.949 61.7739C105.64 61.7964 104.766 62.0218 104.406 61.8189C104.046 61.616 103.248 61.2552 103.3 60.3761C103.351 59.4969 103.531 58.4374 104.74 57.964C105.949 57.4905 107.672 57.1299 108.701 57.6934C109.73 58.257 110.605 58.9109 110.605 59.8575C110.605 60.8045 110.887 61.5258 110.013 62.3825C109.138 63.2391 101.731 69.6638 101.731 69.6638C101.731 69.6638 100.763 70.772 100.261 71.1681C99.6167 71.677 98.5775 72.013 97.7004 71.8022C97.1003 71.658 96.3192 71.4487 97.0434 70.6367Z" fill="#FB7865"/>
<path d="M98.8056 69.0166C98.8056 69.0166 97.1941 70.4812 97.1344 70.8475C97.0747 71.2136 96.9254 71.3444 97.4926 71.5012C98.0595 71.6582 98.3579 71.8415 98.8653 71.7106C99.3726 71.58 100.178 70.8735 100.178 70.8735L98.8056 69.0166Z" fill="#FECBA7"/>
<path d="M99.7577 68.1543C99.698 68.2589 99.5487 68.2328 99.668 68.5989C99.7874 68.9652 100.325 70.3776 100.444 70.4822C100.563 70.5869 100.772 70.7437 100.802 70.5084C100.832 70.2731 100.235 68.7037 100.175 68.5207C100.116 68.3376 99.7577 68.1543 99.7577 68.1543Z" fill="#FECBA7"/>
<path d="M100.863 66.895C100.803 67.1303 100.654 67.1043 100.923 67.7844C101.191 68.4644 101.4 69.1706 101.4 69.4844C101.4 69.7984 101.43 69.9813 101.549 69.7982C101.669 69.6151 101.908 69.0137 101.698 68.3859C101.49 67.7582 101.191 67.1043 101.102 67.026C101.012 66.9475 100.863 66.895 100.863 66.895Z" fill="#FECBA7"/>
<path d="M101.818 66.1154C101.818 66.2985 101.788 66.5861 101.967 66.9262C102.147 67.2662 102.445 68.1554 102.445 68.3908C102.445 68.6261 102.296 68.9401 102.535 68.8093C102.773 68.6786 102.803 68.4693 102.803 68.0769C102.803 67.6846 102.505 67.0309 102.355 66.6384C102.206 66.2462 102.117 65.9584 101.967 66.0369L101.818 66.1154Z" fill="#FECBA7"/>
<path d="M102.982 64.9365C102.892 65.198 103.161 65.4334 103.28 65.878C103.4 66.3226 103.668 66.9765 103.668 67.2643C103.668 67.5519 103.728 67.8399 103.847 67.6829C103.967 67.5259 104.056 67.2645 103.937 66.7152C103.817 66.166 103.698 65.5644 103.429 65.2505C103.161 64.9367 102.982 64.9365 102.982 64.9365Z" fill="#FECBA7"/>
<path d="M104.085 63.8382C103.996 64.0735 103.936 64.2566 104.115 64.5704C104.294 64.8844 104.742 65.5383 104.742 65.7476C104.742 65.9567 104.682 66.5844 104.95 66.5321C105.219 66.4798 105.249 66.166 105.159 65.8782C105.07 65.5906 104.354 64.1782 104.264 63.9952C104.175 63.812 104.085 63.8382 104.085 63.8382Z" fill="#FECBA7"/>
<path d="M105.548 64.2067C105.638 64.5205 105.817 65.3052 105.966 65.4098C106.115 65.5145 106.175 65.6191 106.265 65.4621C106.354 65.3052 106.384 65.0435 106.235 64.6513C106.085 64.259 105.429 63.082 105.25 63.0035C105.071 62.925 105.459 63.8929 105.548 64.2067Z" fill="#FECBA7"/>
<path d="M106.115 62.0625C105.995 62.2456 106.025 62.4286 106.234 62.821C106.443 63.2133 107.189 64.1548 107.249 64.338C107.308 64.5211 107.458 64.7564 107.517 64.4688C107.577 64.181 107.637 63.6841 107.278 63.3703C106.92 63.0563 106.473 62.4025 106.353 62.2456C106.234 62.0887 106.115 62.0625 106.115 62.0625Z" fill="#FECBA7"/>
<path d="M16.041 119.874H94.7957C94.7957 119.874 95.3062 118.267 94.6681 116.142C94.0301 114.017 97.8583 105.965 97.3479 102.61C96.8373 99.2551 94.0302 95.0055 91.861 93.1042C89.6918 91.203 89.0538 90.4203 87.7777 86.2825C86.5018 82.1447 86.0473 78.7312 84.7492 78.0484C83.4507 77.3656 81.049 76.9105 80.0752 76.9674C79.1016 77.0243 79.1016 76.7966 79.1016 76.7966C79.1016 76.7966 79.2963 71.3919 76.3103 70.766C73.3242 70.1402 71.5065 70.1971 71.5065 70.1971C71.5065 70.1971 72.3502 68.6607 71.6363 67.8643C70.9223 67.0678 69.5589 66.6128 69.5589 66.6128C69.5589 66.6128 69.5589 63.6541 68.5853 62.63C67.6115 61.6059 65.2747 60.8665 64.0413 61.0372C62.8079 61.2078 62.4832 61.2647 62.4832 61.2647C62.4832 61.2647 59.4971 58.3062 56.9005 58.3062C54.3041 58.3062 50.3442 58.9889 47.8774 60.8665C45.4106 62.7439 42.944 64.6782 42.4895 65.9868C42.0351 67.2953 41.2561 69.7419 41.2561 69.7419C41.2561 69.7419 35.5436 69.4004 32.0381 72.7572C28.5328 76.1139 27.1047 78.4467 26.9749 80.6656C26.845 82.8844 26.6501 85.217 26.6501 85.217C26.6501 85.217 20.7429 87.1513 18.6657 94.0924C16.5884 101.033 17.2376 105.756 17.9516 106.495C18.6657 107.235 20.1588 108.828 19.3148 110.535C18.4709 112.241 16.9129 115.143 16.7831 116.509C16.6533 117.874 16.041 119.874 16.041 119.874Z" fill="#FECBA7"/>
<path d="M50.9385 89.3282L52.6297 113.279L59.7507 113.981L61.5311 89.5623C61.5311 89.5623 61.264 90.0303 60.2847 88.9382C59.3057 87.846 59.1277 87.2217 59.1277 87.2217C59.1277 87.2217 58.7715 88.0799 57.9704 87.924C57.1694 87.7678 55.9231 86.5977 55.9231 86.5977C55.9231 86.5977 56.2792 89.7182 55.0332 89.7962C53.7869 89.8743 50.9385 89.3282 50.9385 89.3282Z" fill="#FB7865"/>
<path d="M58.6171 119.955C57.2385 118.992 55.882 118.004 54.4763 117.073C52.1851 115.556 52.0713 115.397 52.0489 112.831C52.0437 112.218 52.4055 111.96 53.1072 112.052C54.8951 112.288 56.6845 112.515 58.4733 112.744C59.5284 112.879 59.6825 113.009 59.7117 113.935C59.7579 115.405 59.8026 116.874 59.7955 118.344C59.7927 118.881 59.64 119.418 59.5557 119.955H58.6171Z" fill="#183EAC"/>
<path d="M81.4131 64.2251C80.3718 64.2251 79.2871 64.9856 79.2871 64.9856C79.2871 64.9856 80.1982 66.8489 81.8469 66.8109C83.4089 66.7748 84.32 65.3659 84.0597 65.0236C83.6931 64.5418 82.4544 64.2251 81.4131 64.2251Z" fill="#FA7764"/>
<path d="M81.4131 64.2251C80.3718 64.2251 79.2871 64.9856 79.2871 64.9856C79.2871 64.9856 80.1982 66.8489 81.8469 66.8109C83.4089 66.7748 84.32 65.3659 84.0597 65.0236C83.6931 64.5418 82.4544 64.2251 81.4131 64.2251Z" stroke="#173DAB" stroke-width="0.421599"/>
<path d="M82.0222 64.3836C82.0222 64.3836 81.5449 64.4887 81.5449 65.2202C81.5449 65.9807 81.7619 66.2849 82.1957 66.475C82.6296 66.6652 83.0201 66.5891 83.4973 66.2849C83.9746 65.9807 84.1481 65.2582 84.1481 65.2582C84.1481 65.2582 83.8444 64.6498 83.1502 64.4977C82.456 64.3456 82.0222 64.3836 82.0222 64.3836Z" fill="#173DAB"/>
<path d="M82.0222 64.3836C82.0222 64.3836 81.5449 64.4887 81.5449 65.2202C81.5449 65.9807 81.7619 66.2849 82.1957 66.475C82.6296 66.6652 83.0201 66.5891 83.4973 66.2849C83.9746 65.9807 84.1481 65.2582 84.1481 65.2582C84.1481 65.2582 83.8444 64.6498 83.1502 64.4977C82.456 64.3456 82.0222 64.3836 82.0222 64.3836Z" stroke="#173DAB" stroke-width="0.421599"/>
<defs>
<clipPath id="clip0_1385_19877">
<rect width="119.344" height="89.7213" fill="white" transform="translate(0.328125 0.165039)"/>
</clipPath>
</defs>
</svg>
