<svg width="109" height="96" viewBox="0 0 109 96" fill="none" xmlns="http://www.w3.org/2000/svg">
<path d="M83.8441 88.9177C83.8441 92.4789 70.8072 95.3655 54.7249 95.3655C38.6426 95.3655 25.6055 92.4789 25.6055 88.9177C25.6055 85.3566 38.6426 82.4697 54.7249 82.4697C70.8072 82.4697 83.8441 85.3566 83.8441 88.9177Z" fill="#C5C4C3"/>
<path d="M108.945 73.1803L108.933 75.756C108.674 84.5218 84.4992 91.6045 54.7222 91.6045C25.1033 91.6045 1.031 84.6008 0.511404 75.9026L0.5 73.1803C0.5 73.1803 0.703335 73.2932 0.985664 73.4626C4.54412 65.6342 27.2495 59.6021 54.7222 59.6021C82.5112 59.6021 105.42 65.7699 108.572 73.7338L108.945 73.1803Z" fill="#FFE6BE"/>
<path d="M108.947 73.1769C108.947 82.0158 84.6705 89.1813 54.7245 89.1813C24.7784 89.1813 0.501953 82.0158 0.501953 73.1769C0.501953 64.3381 24.7784 57.1729 54.7245 57.1729C84.6705 57.1729 108.947 64.3381 108.947 73.1769Z" fill="#F3F0EC"/>
<path d="M94.5932 73.1771C94.5932 79.1454 76.7442 83.9839 54.7264 83.9839C32.7087 83.9839 14.8594 79.1454 14.8594 73.1771C14.8594 67.2088 32.7087 62.3706 54.7264 62.3706C76.7442 62.3706 94.5932 67.2088 94.5932 73.1771Z" fill="#C5C4C3"/>
<path d="M88.7564 32.7632L88.7114 35.3386L88.6549 39.5408L88.5305 49.3575L88.4516 55.0055L88.3837 59.592L88.3612 61.0829C88.3612 61.0943 88.3612 61.0943 88.3612 61.0943L88.2822 67.3637C88.2596 69.2727 87.0508 70.9786 85.2433 71.6226L46.3728 84.8392L45.8418 85.02L45.9208 83.5063V83.4837L46.5197 73.0233L46.3839 65.7145L46.3275 62.4047L46.3049 60.7555L46.2824 59.4676L46.1355 50.6904L46.0902 48.1149C46.0563 46.172 47.3441 44.4436 49.2081 43.9126L49.7955 43.7657L85.458 33.7006L88.7564 32.7632Z" fill="#FFB43D"/>
<path d="M88.5446 39.5767L88.4202 49.3934C87.7084 50.1163 86.9516 50.8056 86.2061 51.4946L78.3779 53.2453C77.9487 52.7822 77.734 52.1382 77.813 51.5057C77.892 50.8843 78.265 50.3085 78.8071 49.9808C79.3832 49.6306 80.0836 49.5739 80.7501 49.4384C81.4165 49.303 82.1283 49.0432 82.456 48.4446C82.7272 47.9589 82.6819 47.3489 82.7158 46.784C82.7497 46.219 82.9642 45.5754 83.4952 45.3832C83.8001 45.2703 84.1503 45.3378 84.4779 45.2928C85.1897 45.2138 85.7658 44.6263 86.0707 43.9824C86.3869 43.3271 86.4887 42.6044 86.6581 41.904C86.8389 41.2036 87.0987 40.4918 87.6409 40.0173C87.9007 39.7914 88.2169 39.6445 88.5446 39.5767Z" fill="#FCA211"/>
<path d="M69.6014 57.0601C69.0443 56.0252 68.9819 54.7376 69.4363 53.6536C69.8908 52.5696 70.8526 51.7115 71.9811 51.3833C73.0385 51.0757 74.2843 51.1778 75.1031 50.4416C75.9096 49.7165 75.9511 48.497 76.0649 47.4185C76.1786 46.3399 76.5962 45.0819 77.6459 44.8104C78.5977 44.5642 79.5929 45.2828 80.5526 45.0694C81.3315 44.8962 81.8581 44.1467 82.0924 43.3838C82.3267 42.621 82.3457 41.8085 82.5365 41.0337C83.1509 38.5405 85.7437 36.6991 88.3001 36.9402" stroke="#FCA211" stroke-width="0.847264" stroke-linecap="round" stroke-linejoin="round"/>
<path d="M86.0143 33.6991C84.1602 33.9885 83.08 34.782 81.3442 35.4791C79.7924 36.1103 78.4199 36.9212 77.2232 38.0915C76.066 39.2225 75.1191 40.6032 73.7907 41.5501C72.9095 42.1945 71.7919 42.6286 70.7266 42.3919C69.5036 42.1158 68.4647 40.9846 67.2154 41.1819C65.5583 41.458 65.0455 43.8386 63.4675 44.4041C62.0604 44.9169 60.4557 43.7726 59.0487 44.2987C58.1151 44.6408 57.589 45.6401 57.2602 46.587C56.9182 47.5208 56.6554 48.5465 55.9452 49.2566C54.8406 50.3876 52.9732 50.3743 51.7765 51.4132C50.4745 52.5178 50.3559 54.4379 50.1325 56.1213C49.8957 57.8178 49.1595 59.7773 47.5024 60.1323L46.2795 59.4615L46.1348 50.69C47.0947 48.2307 48.2783 45.8768 49.7907 43.7596L85.4556 33.6991C85.9158 33.8044 85.5542 33.5677 86.0143 33.6991Z" fill="#FCA211"/>
<path d="M88.3632 61.0923L88.2844 67.3652C88.2581 69.272 87.0484 70.9815 85.2467 71.626L46.3729 84.8426L45.9258 83.5012V83.4879C47.8983 84.2508 50.1208 83.3169 51.8173 82.0676C53.5137 80.8183 54.9867 79.2142 56.9066 78.3593C58.9844 77.4257 61.4304 77.4387 63.4162 76.3078C65.31 75.2162 66.6513 73.1383 68.7686 72.5729C70.4386 72.1257 72.3588 72.7175 73.8842 71.889C75.1465 71.2182 75.7913 69.7455 77.0143 69.009C78.3029 68.2461 79.96 68.4698 81.3803 67.9833C82.5243 67.6019 83.4579 66.7994 84.3655 66.0106C85.2993 65.2084 86.2329 64.3931 86.9955 63.4199C87.561 62.7097 88.0081 61.9339 88.3632 61.0923Z" fill="#FCA211"/>
<path d="M88.5336 49.3618L88.4943 51.7817L88.3889 59.5933C86.4951 60.2245 84.5886 60.8294 82.6685 61.3948C81.5245 61.7499 80.3539 62.0917 79.1439 62.1444C77.7106 62.2234 76.1982 61.8946 74.8568 62.4074C73.0947 63.0913 72.0952 65.0247 70.3724 65.7873C68.8074 66.4711 66.9928 66.0503 65.3094 66.3527C62.6661 66.8129 60.6146 68.983 58.1686 70.0086C57.5901 70.2584 56.985 70.4425 56.3538 70.5215C54.9598 70.6925 53.5001 70.3374 52.1455 70.7452C50.9618 71.0872 50.0413 71.9681 48.963 72.5599C48.2265 72.9544 47.3059 73.1911 46.517 73.0201L46.3066 60.7504C48.0164 60.0402 50.0283 60.0272 51.7117 60.7767C52.5402 61.1451 53.3421 61.6973 54.2496 61.6709C55.1702 61.6316 55.9591 60.974 56.5509 60.2769C57.1558 59.5667 57.6558 58.7648 58.4053 58.2124C60.7199 56.529 64.3365 57.9363 66.6114 56.2135C67.3349 55.6611 67.8474 54.8458 68.6366 54.3724C69.6886 53.7412 70.3594 54.3327 71.372 54.6748C72.3189 54.9905 73.0817 54.4907 73.8969 54.0436C74.8568 53.5175 75.7378 52.9784 76.7637 52.5706C77.5265 52.2812 77.934 51.479 78.6705 51.1109C79.2623 50.8215 79.7488 51.0979 80.3933 51.2162C81.1558 51.3609 81.932 51.4264 82.6948 51.2686C83.5497 51.0976 84.3125 50.6638 85.1014 50.322C86.193 49.8486 87.35 49.5195 88.5336 49.3618Z" fill="#953FBA"/>
<path d="M88.4956 51.7817L88.3902 59.5934C86.4964 60.2245 84.5899 60.8294 82.6698 61.3948C81.5258 61.7499 80.3552 62.0917 79.1452 62.1444C77.7119 62.2234 76.1995 61.8946 74.8581 62.4074C73.096 63.0913 72.0965 65.0247 70.3737 65.7873C68.8087 66.4711 66.9941 66.0503 65.3107 66.3527C62.6674 66.8129 60.6159 68.983 58.1699 70.0087C58.2226 69.956 58.288 69.9036 58.3407 69.8509C59.1559 69.062 59.6823 68.0095 60.2871 67.0496C60.892 66.0764 61.6681 65.1428 62.7464 64.7614C64.1798 64.2486 65.8499 64.8404 67.2439 64.2092C69.2954 63.2753 69.6375 60.1982 71.689 59.2513C73.7142 58.3174 76.4756 59.9351 78.1853 58.5148C79.303 57.5679 79.4873 55.6217 80.868 55.1483C82.1306 54.7142 83.643 55.8584 84.787 55.1746C85.6418 54.6618 85.7339 53.4388 86.4177 52.7153C86.9569 52.1499 87.7327 51.9788 88.4956 51.7817Z" fill="#7D2EA1"/>
<path d="M76.836 74.487L46.3738 84.8437L45.8477 85.0144L45.9267 83.5023V83.489L46.5185 73.0211L46.3868 65.7092L46.3344 62.4084L46.3081 60.7513L46.2817 59.4626L46.137 50.6911L46.0977 48.1135C46.0583 46.1673 47.3467 44.4445 49.2142 43.9184L49.793 43.7607L85.4579 33.7002L88.7587 32.7666L88.7191 35.3442L88.5351 49.3628L88.4563 55.0045L88.3904 59.5943L88.364 61.0804" stroke="black" stroke-width="0.847264" stroke-linecap="round" stroke-linejoin="round"/>
<path d="M88.7556 32.7625C83.3786 34.5249 77.6853 36.6823 72.3082 38.4445C67.846 39.9017 63.3841 41.325 58.8882 42.6919C56.742 43.3472 54.46 43.844 52.4606 44.8946C52.2233 45.019 51.9975 45.1433 51.783 45.2902C50.4275 46.1374 49.5124 47.2331 48.8685 48.4756C47.7163 50.7348 47.4563 53.48 47.3659 56.2137C47.3094 57.7725 47.2869 59.3427 47.2869 60.9243C47.2643 67.0243 47.4902 73.3276 47.0949 80.3652C47.0271 81.4834 46.9595 82.6244 46.8577 83.7879C46.7898 84.6238 45.9765 85.2224 45.1631 85.0305C37.1202 83.065 29.642 79.1452 23.3161 73.8132C22.1301 72.808 21.4071 71.3507 21.3393 69.803L20.5373 46.736C20.5373 46.7246 20.5373 46.7246 20.5373 46.7246L20.4581 44.375C20.3451 40.8505 20.3226 37.0097 22.5028 34.2535C22.5253 34.2309 22.5593 34.1859 22.5932 34.1633C25.1687 30.9665 29.8 30.4243 33.912 30.2321C52.2233 29.3509 70.6025 30.1982 88.7556 32.7625Z" fill="#7D2EA1"/>
<path d="M51.7853 45.2903C50.4299 46.1376 49.5147 47.2332 48.8708 48.4758C47.7187 50.7349 47.4586 53.4801 47.3682 56.2138C47.3117 57.7726 47.2892 59.3428 47.2892 60.9244C46.5323 61.0148 45.7643 60.9244 45.0865 60.6081C43.9908 60.0997 43.1775 58.9701 43.2 57.7615C43.2114 57.174 43.4145 56.5979 43.4823 55.9991C43.5613 55.4116 43.4709 54.734 43.0192 54.3499C42.4882 53.8979 41.6749 53.9883 41.0649 53.6495C40.1161 53.1185 40.0143 51.8195 40.1161 50.7463C40.2176 49.6732 40.3648 48.4532 39.653 47.6399C39.1559 47.0638 38.3654 46.8719 37.71 46.4878C36.7612 45.9342 36.0948 44.929 35.9365 43.8444C35.7896 42.7599 36.1512 41.6078 36.8967 40.817L37.744 37.846C39.1787 36.7954 41.1328 36.6485 42.8498 37.1231C44.5555 37.5976 46.0581 38.6482 47.391 39.8228C49.1531 41.3816 50.6897 43.223 51.7853 45.2903Z" fill="#683B7B"/>
<path d="M32.0168 39.7319C31.0791 41.1892 30.1303 42.7143 29.8252 44.42C29.5201 46.1371 30.0285 48.1139 31.4858 49.0627C32.1637 49.5033 32.9995 49.6952 33.632 50.2148C34.5922 51.0168 34.8406 52.4064 34.7956 53.6715C34.7616 54.9254 34.5132 56.2019 34.773 57.4333C35.0328 58.6647 36.0158 59.8733 37.2809 59.8393C38.0152 59.8279 38.7154 59.3876 39.4383 59.4891C40.2177 59.5907 40.8052 60.3139 41.0199 61.0707C41.2346 61.839 41.1442 62.6409 41.0878 63.4317C41.0199 64.2225 40.986 65.047 41.3022 65.7813C41.9462 67.329 43.9684 67.9165 45.5836 67.4759C46.205 67.3065 46.7808 67.0239 47.3118 66.6737" stroke="#683B7B" stroke-width="0.847264" stroke-linecap="round" stroke-linejoin="round"/>
<path d="M47.0986 80.3645C47.0307 81.4827 46.9631 82.6237 46.8613 83.7873C46.7935 84.6231 45.9801 85.2217 45.1668 85.0298C37.1239 83.0643 29.6457 79.1445 23.3198 73.8125C22.1337 72.8073 21.4108 71.35 21.3429 69.8024L20.541 46.7354C20.8798 47.8649 21.4331 48.8816 22.3482 49.6385C23.2633 50.3953 24.4608 50.802 25.2402 51.7057C27.1945 53.9989 25.3757 57.9979 27.33 60.2911C28.3806 61.5336 30.2331 61.8612 31.2273 63.1377C32.1196 64.3126 32.0517 65.9168 32.0856 67.3852C32.1196 68.8536 32.4358 70.5367 33.7123 71.2596C34.9209 71.96 36.6043 71.5083 37.7225 72.3556C38.6262 73.0446 38.8184 74.3096 39.0218 75.4392C39.2365 76.5574 39.6882 77.8341 40.7728 78.1843C41.6426 78.4667 42.6704 78.0375 43.4723 78.4895C43.9919 78.7943 44.2634 79.3932 44.6926 79.8224C45.314 80.4438 46.2853 80.6469 47.0986 80.3645Z" fill="#683B7B"/>
<path d="M88.7581 32.7625C88.7242 32.7739 88.6791 32.785 88.6452 32.7964C83.3021 34.5585 77.6538 36.6934 72.3107 38.4444C70.0287 39.1899 67.7359 39.9242 65.4427 40.6585C63.2625 41.3475 61.0823 42.0254 58.8907 42.6918C56.7445 43.3472 54.4625 43.844 52.4631 44.8946C50.7346 45.7869 49.6164 47.0297 48.871 48.4756C39.0092 44.7026 30.2094 39.9695 22.5957 34.1633C25.1712 30.9664 29.8025 30.4243 33.9145 30.2321C47.8204 29.5656 61.7599 29.8933 75.6094 31.2148C79.9698 31.6215 84.3073 32.1411 88.6452 32.7511C88.6791 32.7511 88.7242 32.7625 88.7581 32.7625Z" fill="#953FBA"/>
<path d="M88.6438 32.7516C88.6552 32.7627 88.6552 32.7744 88.6438 32.7969C83.3007 34.5591 77.6524 36.6939 72.3093 38.4449C70.0273 39.1904 67.7345 39.9247 65.4413 40.659C65.3849 39.9472 65.7462 39.1792 66.2883 38.6822C67.0791 37.9592 68.1411 37.6541 69.1464 37.2814C70.1405 36.8972 71.1686 36.3662 71.6543 35.4175C71.948 34.8525 72.0607 34.1299 72.6256 33.8247C73.4275 33.373 74.5123 34.1749 75.3257 33.7457C76.0147 33.373 76.0144 32.3789 75.766 31.6334C75.7206 31.4979 75.6645 31.3508 75.608 31.2153C79.9684 31.622 84.306 32.1416 88.6438 32.7516Z" fill="#7D2EA1"/>
<path d="M70.4242 30.7739C70.6726 31.4065 70.7518 32.1071 70.5485 32.7397C70.3001 33.4965 69.5883 34.1291 68.7975 34.1291C68.052 34.1177 67.3742 33.5981 66.6287 33.6885C65.8718 33.7789 65.3523 34.4793 65.0471 35.1797C64.7309 35.8801 64.5275 36.648 64.0079 37.2016C63.4544 37.789 62.6183 38.0263 61.8163 38.1392C61.0255 38.2522 60.2011 38.2747 59.4328 38.5345C58.4501 38.8622 57.6028 39.5962 57.1511 40.5339C56.733 41.3812 56.6315 42.3753 56.8799 43.279" stroke="#7D2EA1" stroke-width="0.847264" stroke-linecap="round" stroke-linejoin="round"/>
<path d="M59.8455 42.4033C59.5279 42.5005 59.21 42.5977 58.8918 42.6943C56.7483 43.3518 54.46 43.8383 52.4612 44.8905C50.7384 45.7848 49.6205 47.0341 48.871 48.4808C39.0078 44.7065 30.21 39.972 22.5957 34.1595C25.1733 30.964 29.8025 30.4249 33.9185 30.2275C52.2245 29.3463 70.6094 30.2012 88.7573 32.7655C85.1158 33.9586 81.6062 35.2337 77.8713 36.5436" stroke="black" stroke-width="0.847264" stroke-linecap="round" stroke-linejoin="round"/>
<path d="M20.856 55.9091L20.5373 46.736C20.5373 46.7246 20.5373 46.7246 20.5373 46.7246L20.4581 44.375C20.3451 40.8505 20.3226 37.0097 22.5028 34.2535C22.5253 34.2309 22.5593 34.1859 22.5932 34.1633C25.1687 30.9665 29.8 30.4243 33.912 30.2321C52.2233 29.3509 70.6025 30.1982 88.7556 32.7625C85.204 33.9266 81.5147 35.2628 77.8693 36.5439" stroke="black" stroke-width="0.847264" stroke-linecap="round" stroke-linejoin="round"/>
<path d="M59.6802 42.4512C59.4174 42.5315 59.1546 42.6116 58.8915 42.6914C56.7453 43.3468 54.4633 43.8436 52.4639 44.8942C50.7354 45.7865 49.6172 47.0293 48.8718 48.4751C47.7196 50.7343 47.4596 53.4795 47.3692 56.2132C47.1094 63.8158 47.5953 71.5085 47.0982 80.3647C47.0304 81.4829 46.9628 82.6239 46.861 83.7875C46.7931 84.6233 45.9798 85.2219 45.1664 85.03C39.5141 83.6487 34.1406 81.3021 29.25 78.1786" stroke="black" stroke-width="0.847264" stroke-linecap="round" stroke-linejoin="round"/>
<path d="M29.2504 59.5973C28.5457 59.5973 27.9026 59.9363 27.4457 60.4863C26.9809 61.0363 26.6945 61.7878 26.6945 62.6217C26.6945 60.9538 25.556 59.5973 24.1465 59.5973C24.8512 59.5973 25.4862 59.2582 25.951 58.7174C26.4078 58.1674 26.6945 57.416 26.6945 56.582C26.6945 57.416 26.9809 58.1674 27.4457 58.7174C27.9026 59.2582 28.5457 59.5973 29.2504 59.5973Z" fill="white"/>
<path d="M83.7198 50.6505C82.3525 50.6505 81.1054 51.3083 80.219 52.3754C79.3173 53.4424 78.7617 54.9002 78.7617 56.5181C78.7617 53.2823 76.5528 50.6505 73.8184 50.6505C75.1856 50.6505 76.4175 49.9927 77.3191 48.9436C78.2055 47.8765 78.7617 46.4187 78.7617 44.8008C78.7617 46.4187 79.3173 47.8765 80.219 48.9436C81.1054 49.9927 82.3525 50.6505 83.7198 50.6505Z" fill="white"/>
<path d="M31.0147 64.0904C30.5928 64.0904 30.2079 64.2935 29.9342 64.6228C29.656 64.9521 29.4844 65.4022 29.4844 65.9014C29.4844 64.9027 28.803 64.0904 27.959 64.0904C28.3809 64.0904 28.7612 63.8874 29.0394 63.5638C29.3131 63.2345 29.4844 62.7844 29.4844 62.2852C29.4844 62.7844 29.656 63.2345 29.9342 63.5638C30.2079 63.8874 30.5928 64.0904 31.0147 64.0904Z" fill="white"/>
<path d="M38.276 33.638C38.2665 34.0455 37.7779 34.3971 37.03 34.6837C36.2793 34.9691 35.2681 35.1968 34.145 35.3581C33.0214 35.5164 31.9876 35.5791 31.1876 35.5142C30.3889 35.4452 29.824 35.2511 29.6991 34.858C29.5778 34.4774 29.9345 33.9649 30.6607 33.5023C31.3828 33.037 32.4752 32.6227 33.7316 32.446C34.9874 32.2657 36.1509 32.3591 36.9738 32.6048C37.7998 32.8491 38.2858 33.2338 38.276 33.638Z" fill="white"/>
<path d="M42.1158 33.9936C42.0533 34.3481 41.4265 34.5232 40.7074 34.4448C39.9888 34.3614 39.4187 34.0403 39.438 33.6885C39.4575 33.3331 40.0928 33.0831 40.8537 33.171C41.6152 33.2547 42.1766 33.6507 42.1158 33.9936Z" fill="white"/>
<path d="M51.2027 73.0743C50.3905 73.065 49.7683 71.332 49.8128 69.2034C49.8573 67.0747 50.5515 65.3769 51.3629 65.4112C52.1743 65.4454 52.7968 67.1784 52.7528 69.2821C52.7089 71.3857 52.015 73.0835 51.2027 73.0743Z" fill="white"/>
<path d="M51.1304 76.4732C50.7764 76.4727 50.5003 75.9395 50.5142 75.282C50.528 74.6245 50.8261 74.0949 51.1801 74.0987C51.5341 74.1025 51.8099 74.6356 51.7963 75.2896C51.7828 75.9436 51.4844 76.4738 51.1304 76.4732Z" fill="white"/>
<path d="M61.0014 12.0449V35.6315H53.7832V12.0449H61.0014Z" fill="#9EE9FF"/>
<path d="M61.0014 26.6733V35.6314H53.7832V32.6379C53.885 32.7057 53.9863 32.7847 54.0881 32.8526C54.3479 33.0445 54.6188 33.2367 54.9239 33.3157C55.2402 33.3947 55.6132 33.3157 55.7826 33.0445C55.9859 32.7283 55.8502 32.2763 56.0649 31.9714C56.3247 31.6098 56.8669 31.6888 57.2849 31.8131C57.703 31.9486 58.2112 32.0957 58.5389 31.802C58.8326 31.5308 58.7875 31.0565 58.7536 30.661C58.7083 30.2543 58.7647 29.7575 59.1374 29.5993C59.4426 29.4638 59.8378 29.6557 60.1316 29.4749C60.4028 29.3055 60.4253 28.91 60.3463 28.5937C60.2559 28.2886 60.1093 27.9726 60.1544 27.6563C60.2223 27.2157 60.6172 26.9331 61.0014 26.6733Z" fill="#B370D1"/>
<path d="M61.0014 12.0449V18.7886C61.0014 18.7774 61.0016 18.7774 60.9902 18.766C60.8548 18.6306 60.6514 18.8453 60.5836 18.9808C60.4932 19.1388 60.4818 19.331 60.4932 19.5229C60.5046 20.0539 60.6514 20.5621 60.7304 21.0931C60.8094 21.6127 60.8094 22.1776 60.5608 22.6408C60.3235 23.1153 59.7814 23.4655 59.2618 23.3411C58.8326 23.2393 58.516 22.8327 58.4145 22.4035C58.3016 21.9629 58.3695 21.5112 58.4373 21.082C58.6181 20.1782 58.8891 19.297 59.2507 18.4612C59.454 17.9641 59.7024 17.467 59.6573 16.936C59.6123 16.405 59.1374 15.8743 58.6179 15.9872C58.2562 16.0776 58.0193 16.4504 57.9063 16.8006C57.8045 17.1733 57.7823 17.5463 57.624 17.8851C57.4657 18.2353 57.1269 18.5402 56.7428 18.4723C56.3701 18.3933 56.1553 17.9752 56.1214 17.6025C56.0989 17.2072 56.2007 16.8231 56.1893 16.439C56.1779 16.0548 55.9859 15.6256 55.6243 15.5241C55.1726 15.4112 54.7434 15.8292 54.6755 16.2584C54.5851 16.699 54.732 17.1508 54.8449 17.5914C54.9804 17.9869 55.0597 18.4386 54.9918 18.8453C54.9014 19.3198 54.5398 19.7941 54.0316 19.8506C53.9412 19.862 53.8622 19.8506 53.7832 19.828V12.0449H61.0014Z" fill="#8B2CB3"/>
<path d="M61.4351 11.4946C61.4351 12.1728 61.5312 12.8278 61.5312 13.5052C61.5312 14.6095 61.7001 15.6715 62.0095 16.7205C62.3079 17.7312 62.5595 18.8056 62.3101 19.8294C62.2696 19.9958 62.2145 20.1622 62.1132 20.3004C62.012 20.4385 61.8583 20.5466 61.6876 20.5591C61.4177 20.5789 61.1802 20.3574 61.0776 20.1068C60.975 19.8562 60.9722 19.578 60.9432 19.309C60.9236 19.1287 60.9082 18.6536 60.7732 18.5217C60.6351 18.3868 60.4293 18.6004 60.3598 18.7294C60.2713 18.8939 60.2585 19.0836 60.2713 19.2734C60.2841 19.8047 60.4355 20.3104 60.5115 20.8417C60.5876 21.3602 60.5876 21.9295 60.3473 22.3975C60.1071 22.8655 59.563 23.2195 59.0445 23.093C58.6145 22.9917 58.2982 22.5873 58.197 22.1572C58.0832 21.7145 58.1462 21.2589 58.2222 20.8289C58.3992 19.9309 58.665 19.0456 59.0318 18.2108C59.2343 17.7176 59.4873 17.2243 59.4365 16.693C59.3985 16.1618 58.9177 15.6308 58.3992 15.7445C58.0325 15.833 57.8047 16.1998 57.691 16.5541C57.5897 16.9208 57.5647 17.3001 57.4002 17.6416C57.2485 17.9831 56.9069 18.2869 56.5274 18.2236C56.1479 18.1476 55.9329 17.7303 55.9077 17.3508C55.8824 16.9588 55.9837 16.579 55.9709 16.187C55.9581 15.8075 55.7684 15.3778 55.4016 15.2765C54.9589 15.1628 54.5291 15.58 54.4531 16.01C54.3646 16.4528 54.5164 16.9081 54.6301 17.3381C54.7566 17.7428 54.8454 18.1853 54.7694 18.6029C54.6849 19.0668 54.3187 19.5451 53.8179 19.6C53.305 19.6559 52.8683 19.0304 52.7534 18.6077C52.6131 18.0914 52.704 17.5433 52.8096 17.0188C52.9174 16.4843 53.0781 15.9625 53.1826 15.4277C53.3023 14.8153 53.3528 14.1966 53.3528 13.573C53.3528 12.8802 53.3528 12.1874 53.3528 11.4946H61.4351Z" fill="#FCA211"/>
<path d="M55.6833 15.4459C55.6043 15.3669 55.5139 15.3101 55.401 15.2762C54.9604 15.1633 54.5312 15.5813 54.4522 16.0105C54.3618 16.4511 54.5201 16.9028 54.633 17.3434C54.7573 17.7387 54.8475 18.1907 54.7685 18.6088C54.6895 19.0719 54.3167 19.5464 53.8197 19.6029C53.3677 19.648 52.961 19.1509 52.8027 18.7442C53.0061 19.004 53.2773 19.1962 53.571 19.1623C54.0795 19.1058 54.4408 18.6313 54.5312 18.1682C54.5991 17.7501 54.5198 17.3095 54.3843 16.9028C54.2714 16.4736 54.1245 16.0219 54.2149 15.5699C54.2828 15.1407 54.7117 14.7227 55.1637 14.8356C55.4349 14.9146 55.6043 15.1635 55.6833 15.4459Z" fill="#E6930E"/>
<path d="M58.4045 15.7393C58.0318 15.8297 57.8057 16.2022 57.6927 16.5524C57.5909 16.9251 57.5684 17.2981 57.399 17.6369C57.2521 17.9871 56.9019 18.2923 56.5292 18.2244C56.2355 18.1679 56.0321 17.8967 55.9531 17.603C56.0435 17.6934 56.1565 17.7613 56.2808 17.7838C56.6649 17.8517 57.0037 17.5465 57.1617 17.2077C57.32 16.8689 57.3428 16.4848 57.4443 16.1121C57.5573 15.7619 57.7942 15.4003 58.1558 15.3099C58.5964 15.2195 59.0031 15.5811 59.1386 16.0103C58.9466 15.8069 58.6757 15.6829 58.4045 15.7393Z" fill="#E6930E"/>
<path d="M60.3581 18.7329C60.2677 18.8911 60.2566 19.0831 60.2677 19.2753C60.2791 19.8063 60.4371 20.3145 60.5161 20.8455C60.584 21.3651 60.584 21.9297 60.3467 22.3929C60.1094 22.8674 59.5673 23.2176 59.0477 23.0933C58.6636 23.0029 58.3698 22.6641 58.2344 22.2913C58.3812 22.4721 58.5732 22.5965 58.799 22.6529C59.3186 22.7884 59.861 22.4268 60.0983 21.9637C60.3467 21.4891 60.3467 20.9245 60.2677 20.4049C60.1887 19.8739 60.0418 19.3657 60.0304 18.8347C60.019 18.6425 60.0304 18.4619 60.1208 18.2925C60.1887 18.1682 60.392 17.9537 60.5275 18.0892C60.5954 18.1571 60.629 18.3037 60.6516 18.4731C60.5386 18.4956 60.4146 18.6425 60.3581 18.7329Z" fill="#E6930E"/>
<path d="M62.3136 19.8283C62.2685 19.9977 62.212 20.1671 62.1102 20.3026C62.0087 20.4381 61.8618 20.551 61.6924 20.5624C61.4212 20.5738 61.184 20.3591 61.0824 20.1107C61.0599 20.0653 61.0485 20.0089 61.0371 19.9638C61.15 20.0653 61.2969 20.1332 61.4438 20.1221C61.6132 20.1107 61.7714 19.9977 61.8732 19.8623C61.9748 19.7268 62.0312 19.5571 62.0652 19.3877C62.3136 18.3711 62.0652 17.2979 61.7714 16.2813C61.4552 15.2307 61.2858 14.1687 61.2858 13.073C61.2858 12.542 61.229 12.0227 61.2065 11.4917H61.4326C61.4326 12.1696 61.5342 12.8244 61.5342 13.5022C61.5342 14.6093 61.7036 15.6713 62.0087 16.7219C62.3024 17.7271 62.5622 18.8003 62.3136 19.8283Z" fill="#E6930E"/>
<path d="M61.437 11.4948C61.437 12.2266 59.6284 12.8201 57.3972 12.8201C55.166 12.8201 53.3574 12.2266 53.3574 11.4948C53.3574 10.7629 55.166 10.1694 57.3972 10.1694C59.6284 10.1694 61.437 10.7629 61.437 11.4948Z" fill="#FFB43D"/>
<path d="M57.4121 11.2204V7.84082" stroke="black" stroke-width="0.847264" stroke-linecap="round" stroke-linejoin="round"/>
<path d="M54.7818 7.19604C54.1655 6.1544 54.197 4.78455 55.1906 3.90118C55.6418 3.50022 56.2214 3.25969 56.6514 2.8362C57.3507 2.14747 57.5318 0.98937 57.0754 0.120117C57.7031 0.78468 58.3606 1.42345 58.9339 2.13553C59.5073 2.8476 59.9984 3.64328 60.2405 4.52475C60.4781 5.38939 60.5343 6.33113 60.0918 7.145C59.2866 8.62643 57.206 9.08901 55.7881 8.22193C55.3654 7.96349 55.0236 7.60515 54.7818 7.19604Z" fill="#C342FF"/>
<path d="M55.7971 6.89249C55.4713 6.2301 55.5549 5.39885 56.2007 4.90857C56.4939 4.68596 56.8574 4.56706 57.1389 4.32979C57.5966 3.94376 57.7612 3.24825 57.5247 2.69824C57.8752 3.13178 58.2449 3.55121 58.5598 4.01109C58.8747 4.47096 59.1362 4.97807 59.2418 5.52535C59.3455 6.06233 59.3354 6.63758 59.0281 7.11157C58.4689 7.97431 57.1818 8.15782 56.3606 7.56384C56.1158 7.38684 55.9249 7.15256 55.7971 6.89249Z" fill="#FFB43D"/>
<path d="M51.4016 35.9574C51.2567 35.4869 51.39 34.9418 51.735 34.591C52.08 34.2403 52.6227 34.0983 53.0953 34.2354C53.6611 34.3994 54.1666 34.9274 54.7372 34.7816C55.4056 34.6109 55.695 33.5939 56.3837 33.6314C56.7681 33.6523 57.0336 34.0076 57.2668 34.3141C57.5 34.6206 57.8404 34.9404 58.2148 34.8503C58.4824 34.786 58.6535 34.5343 58.84 34.3318C59.0265 34.1293 59.3226 33.9533 59.5643 34.0858C59.7795 34.2039 59.8235 34.5006 60.0073 34.6635C60.2283 34.8592 60.5763 34.8014 60.841 34.6708C61.1057 34.5403 61.3473 34.3475 61.6378 34.2946C62.1549 34.2004 62.674 34.6217 62.7959 35.1329C62.9177 35.6441 62.7063 36.1916 62.3569 36.5845C62.0075 36.9773 61.5362 37.2387 61.0606 37.4627C58.4216 38.7049 55.4485 38.9881 52.5437 39.2536" fill="#953FBA"/>
<path d="M2.04163 55.2558C2.03213 55.1217 2.13339 55.0053 2.2675 54.9958L13.5225 54.1987L13.6457 55.94L5.76136 56.4986L13.7614 57.5661L13.8475 58.7817L6.07789 60.966L13.9623 60.4076L14.0834 62.116L2.82836 62.913C2.69426 62.9225 2.57779 62.8213 2.56829 62.6871L2.42495 60.6647C2.41681 60.5493 2.49092 60.444 2.60223 60.4127L9.64641 58.4353L2.39998 57.5349C2.2846 57.5205 2.19529 57.4265 2.18714 57.3104L2.04163 55.2558Z" fill="#C752FE"/>
<path d="M10.964 49.0645L10.9613 50.9417L13.3055 51.2924C13.4249 51.3104 13.5129 51.4127 13.5129 51.5335L13.5112 53.0684L2.19162 51.1792C2.07407 51.1597 1.98801 51.0579 1.98828 50.9387L1.99073 49.0134C1.991 48.8942 2.07733 48.7927 2.19487 48.7734L13.5183 46.9111L13.5164 48.4789C13.5164 48.5997 13.4279 48.702 13.3084 48.7197L10.964 49.0645ZM9.28412 49.2936L4.45896 49.9953L9.28276 50.709L9.28412 49.2936Z" fill="#C752FE"/>
<path d="M8.99369 42.9542L10.192 43.7325L13.6492 44.0675L13.4811 45.8047L2.00977 44.6919L2.17862 42.955L6.83221 43.406L2.53018 40.7404C2.45145 40.6915 2.40693 40.6022 2.41589 40.5099L2.58257 38.792L7.21255 41.7063L14.0705 39.7253L13.9055 41.4269C13.8957 41.5271 13.8251 41.6112 13.7282 41.6381L8.99369 42.9542Z" fill="#C752FE"/>
<path d="M3.49232 35.5541C3.36445 35.5123 3.29468 35.375 3.33621 35.2471L4.79538 30.7681L6.36043 31.2782L5.44176 34.0985C5.40023 34.2264 5.46999 34.3637 5.59786 34.4055L8.18609 35.2493C8.31395 35.2911 8.45132 35.221 8.49312 35.0932L9.20818 32.8991L10.7732 33.4092L10.0582 35.6027C10.0164 35.7306 10.0864 35.868 10.2143 35.9098L12.9594 36.8045C13.0873 36.8464 13.2246 36.7763 13.2664 36.6484L14.1859 33.8287L15.751 34.3382L14.2913 38.8172C14.2494 38.9451 14.1118 39.0152 13.9839 38.9733L3.49232 35.5541Z" fill="#C752FE"/>
<path d="M18.1598 27.2267L16.8242 28.5447L18.2225 30.4567C18.2939 30.5541 18.2831 30.689 18.197 30.7737L17.1046 31.8512L10.4918 22.48C10.4231 22.3825 10.435 22.2498 10.5197 22.1661L11.8888 20.8147C11.9735 20.7311 12.1068 20.7211 12.2031 20.7911L21.4854 27.5283L20.3701 28.6291C20.2841 28.7138 20.1489 28.723 20.0525 28.6506L18.1598 27.2267ZM16.8168 26.194L12.9263 23.2588L15.8097 27.1881L16.8168 26.194Z" fill="#C752FE"/>
<path d="M29.7774 12.5088L30.7566 23.9023C30.767 24.0225 30.6874 24.1325 30.5699 24.1602L29.1104 24.5047C28.9904 24.5329 28.8685 24.4672 28.8259 24.3515L26.26 17.3809L27.0825 24.7628C27.0961 24.8853 27.0163 24.9987 26.8963 25.027L25.4371 25.3715C25.3196 25.3992 25.1993 25.3367 25.1548 25.2243L20.9355 14.5964L22.4398 14.2413C22.5595 14.2131 22.6814 14.2785 22.724 14.3939L25.3671 21.5494L24.5309 13.9674C24.5174 13.845 24.5975 13.7318 24.7172 13.7035L26.0278 13.3943C26.1476 13.3661 26.2697 13.4315 26.3124 13.5469L28.9551 20.7024L28.1193 13.1201C28.1057 12.9977 28.1855 12.8848 28.3052 12.8565L29.7774 12.5088Z" fill="#C752FE"/>
<path d="M32.6035 12.6057L34.3442 12.4849L35.1453 23.9829L33.4038 24.1037L32.6035 12.6057Z" fill="#C752FE"/>
<path d="M36.4759 21.2249L36.4602 20.8133L38.1308 20.5695L38.1471 20.9971C38.1789 21.8362 38.6255 22.3295 39.3161 22.3034C40.0067 22.2774 40.4183 21.8338 40.3927 21.1597C40.3653 20.4362 40.0496 19.921 38.7042 18.7363C36.9157 17.1731 36.3888 16.3044 36.341 15.0377C36.2764 13.3274 37.2211 12.1717 38.8817 12.109C40.5429 12.0463 41.572 13.1273 41.6372 14.8544L41.6483 15.1498L39.9777 15.3944L39.9652 15.0657C39.9318 14.1777 39.5694 13.73 38.9605 13.7531C38.3515 13.7762 38.0209 14.1671 38.0483 14.8906C38.0757 15.614 38.4571 16.1268 39.7369 17.314C41.4781 18.9282 42.0523 19.7459 42.1 21.0126C42.1622 22.6571 41.0554 23.8845 39.3943 23.9472C37.7337 24.0099 36.5381 22.8694 36.4759 21.2249Z" fill="#C752FE"/>
<path d="M43.5968 23.6425L43.4473 12.1174L45.1923 12.0948L45.2526 16.708C45.2542 16.8424 45.365 16.9501 45.4993 16.9485L47.0866 16.9281C47.2213 16.9265 47.3288 16.816 47.3272 16.6814L47.2669 12.0677L49.0128 12.0454L49.1615 23.5706L47.4165 23.5928L47.3546 18.8149C47.353 18.6802 47.2425 18.5725 47.1078 18.5744L45.5202 18.5953C45.3859 18.5972 45.2784 18.7077 45.28 18.842L45.3419 23.6202L43.5968 23.6425Z" fill="#C752FE"/>
</svg>
