<svg width="87" height="110" viewBox="0 0 87 110" fill="none" xmlns="http://www.w3.org/2000/svg">
<path d="M19.4629 53.1396H78.2965V101.488H19.4629V53.1396Z" fill="#56296A"/>
<path d="M19.4629 53.1396H78.2965V101.488H19.4629V53.1396Z" stroke="black" stroke-width="1.22463" stroke-linecap="round" stroke-linejoin="round"/>
<path d="M8.39648 61.0032L19.1728 53.1396V101.488L8.39648 109.351V61.0032Z" fill="#7D2EA1"/>
<path d="M8.39648 61.0032L19.1728 53.1396V101.488L8.39648 109.351V61.0032Z" stroke="black" stroke-width="1.22463" stroke-linecap="round" stroke-linejoin="round"/>
<path d="M41.7807 12.5636C41.7807 12.5636 39.0146 11.3847 38.7294 10.1117C38.0202 6.8564 42.2046 1.11865 42.2046 1.11865C42.2046 1.11865 46.7037 7.16839 45.6493 10.2481C45.1867 11.6253 41.9714 12.591 41.9714 12.591L41.7807 12.5636Z" fill="#FFB033"/>
<path d="M41.7807 12.5636C41.7807 12.5636 39.0146 11.3847 38.7294 10.1117C38.0202 6.8564 42.2046 1.11865 42.2046 1.11865C42.2046 1.11865 46.7037 7.16839 45.6493 10.2481C45.1867 11.6253 41.9714 12.591 41.9714 12.591L41.7807 12.5636Z" stroke="black" stroke-width="0.916497" stroke-linecap="round" stroke-linejoin="round"/>
<path d="M41.1296 36.1909C60.3454 36.1909 75.9233 40.8887 75.9233 46.6834C75.9233 52.4779 60.3454 57.1754 41.1296 57.1754C21.9135 57.1754 6.33594 52.4779 6.33594 46.6834C6.33594 40.8887 21.9135 36.1909 41.1296 36.1909Z" fill="white"/>
<path d="M41.1296 36.1909C60.3454 36.1909 75.9233 40.8887 75.9233 46.6834C75.9233 52.4779 60.3454 57.1754 41.1296 57.1754C21.9135 57.1754 6.33594 52.4779 6.33594 46.6834C6.33594 40.8887 21.9135 36.1909 41.1296 36.1909Z" stroke="black" stroke-width="1.07347" stroke-linecap="round" stroke-linejoin="round"/>
<path d="M42.0541 39.1758C56.9958 39.1758 69.1082 42.0028 69.1082 45.4902C69.1082 48.9776 56.9958 51.8047 42.0541 51.8047C27.1123 51.8047 15 48.9776 15 45.4902C15 42.0028 27.1123 39.1758 42.0541 39.1758Z" fill="#D3D3D3"/>
<path d="M42.0541 39.1758C56.9958 39.1758 69.1082 42.0028 69.1082 45.4902C69.1082 48.9776 56.9958 51.8047 42.0541 51.8047C27.1123 51.8047 15 48.9776 15 45.4902C15 42.0028 27.1123 39.1758 42.0541 39.1758Z" stroke="black" stroke-width="0.734464" stroke-linecap="round" stroke-linejoin="round"/>
<path d="M17.6191 30.6357H66.7882V45.7458C54.5806 50.3782 33.4273 51.2018 17.6191 45.7458V30.6357Z" fill="#56296A"/>
<path d="M17.6191 30.6357H66.7882V45.7458C54.5806 50.3782 33.4273 51.2018 17.6191 45.7458V30.6357Z" stroke="black" stroke-width="0.909638" stroke-linecap="round" stroke-linejoin="round"/>
<path d="M42.1252 24.4858C55.8286 24.4858 66.9376 26.694 66.9376 29.4176C66.9376 32.1413 55.8286 34.3494 42.1252 34.3494C28.4218 34.3494 17.3125 32.1413 17.3125 29.4176C17.3125 26.694 28.4218 24.4858 42.1252 24.4858Z" fill="#3B1D48"/>
<path d="M42.1252 24.4858C55.8286 24.4858 66.9376 26.694 66.9376 29.4176C66.9376 32.1413 55.8286 34.3494 42.1252 34.3494C28.4218 34.3494 17.3125 32.1413 17.3125 29.4176C17.3125 26.694 28.4218 24.4858 42.1252 24.4858Z" stroke="black" stroke-width="0.916497" stroke-linecap="round" stroke-linejoin="round"/>
<path d="M42.1268 25.8657C51.9297 25.8657 59.8763 27.1463 59.8763 28.7258C59.8763 30.3055 51.9297 31.5863 42.1268 31.5863C32.3239 31.5863 24.377 30.3055 24.377 28.7258C24.377 27.1463 32.3239 25.8657 42.1268 25.8657Z" fill="#C4C4C4"/>
<path d="M42.1268 25.8657C51.9297 25.8657 59.8763 27.1463 59.8763 28.7258C59.8763 30.3055 51.9297 31.5863 42.1268 31.5863C32.3239 31.5863 24.377 30.3055 24.377 28.7258C24.377 27.1463 32.3239 25.8657 42.1268 25.8657Z" stroke="black" stroke-width="0.590157" stroke-linecap="round" stroke-linejoin="round"/>
<path d="M31.5879 34.3447C31.5879 34.3447 31.6512 38.5062 32.2677 38.7373C32.8843 38.9686 33.5779 38.6602 33.1924 39.8163C32.8072 40.9721 32.0364 42.2049 32.884 42.2819C33.7317 42.3589 35.5813 41.0491 34.8877 40.0474C34.1944 39.0457 33.7319 37.8899 34.5796 37.8899C35.4272 37.8899 36.7373 38.1207 36.6603 36.8879C36.5833 35.6551 36.6735 34.6394 36.6735 34.6394" fill="#3B1D48"/>
<path d="M59.9207 33.2971C59.9207 33.2971 59.8273 35.4541 59.4622 36.6341C58.9612 38.2524 61.1572 38.9652 61.9278 36.4223C62.1737 35.611 62.8335 37.2121 62.1402 38.2138C61.4466 39.2155 62.198 41.6044 63.0456 41.5274C63.8932 41.4503 64.2206 39.601 63.8355 38.4452C63.45 37.2892 64.2206 38.3101 64.8372 38.079C65.4537 37.8479 64.6019 31.9814 64.6019 31.9814C63.0963 32.5568 61.5292 32.9784 59.9207 33.2971Z" fill="#3B1D48"/>
<path d="M42.1309 26.7632C50.2952 26.7632 56.9138 27.5451 56.9138 28.5096C56.9138 29.4739 50.2952 30.2556 42.1309 30.2556C33.9663 30.2556 27.3477 29.4739 27.3477 28.5096C27.3477 27.5451 33.9663 26.7632 42.1309 26.7632Z" fill="#3B1D48"/>
<path d="M42.1309 26.7632C50.2952 26.7632 56.9138 27.5451 56.9138 28.5096C56.9138 29.4739 50.2952 30.2556 42.1309 30.2556C33.9663 30.2556 27.3477 29.4739 27.3477 28.5096C27.3477 27.5451 33.9663 26.7632 42.1309 26.7632Z" stroke="black" stroke-width="0.420787" stroke-linecap="round" stroke-linejoin="round"/>
<path d="M40.2656 13.7979H44.3775V28.0442C43.6137 28.441 41.6937 28.9625 40.2656 28.0442V13.7979Z" fill="#FFE6BE"/>
<path d="M40.2656 13.7979H44.3775V28.0442C43.6137 28.441 41.6937 28.9625 40.2656 28.0442V13.7979Z" stroke="black" stroke-width="1.16369" stroke-linecap="round" stroke-linejoin="round"/>
<path d="M43.8028 14.4106L40.8745 16.3663L40.8555 18.2734L43.7836 16.3758L43.8028 14.4106Z" fill="white"/>
<path d="M43.8028 18.8877L40.8745 20.8434L40.8555 22.7505L43.7836 20.8529L43.8028 18.8877Z" fill="white"/>
<path d="M43.8028 23.5283L40.8745 25.484L40.8555 27.3911L43.7836 25.4935L43.8028 23.5283Z" fill="white"/>
<path d="M41.9618 11.338C41.9618 11.338 40.2009 10.5798 40.0067 9.76669C39.573 7.95295 42.2391 3.93945 42.2391 3.93945C42.2391 3.93945 45.0055 8.07299 44.4409 9.85401C44.1597 10.742 42.0842 11.3554 42.0842 11.3554L41.9618 11.338Z" fill="#FCAA25"/>
<path d="M42.1895 13.6875V10.2275" stroke="black" stroke-width="0.916497" stroke-linecap="round" stroke-linejoin="round"/>
<path d="M8.67969 61.0059H67.5133V109.354H8.67969V61.0059Z" fill="#B370D1"/>
<path d="M8.67969 61.0059H67.5133V109.354H8.67969V61.0059Z" stroke="black" stroke-width="1.22463" stroke-linecap="round" stroke-linejoin="round"/>
<path d="M67.5156 61.0032L78.292 53.1396V101.488L67.5156 109.351V61.0032Z" fill="#9149B0"/>
<path d="M67.5156 61.0032L78.292 53.1396V101.488L67.5156 109.351V61.0032Z" stroke="black" stroke-width="1.22463" stroke-linecap="round" stroke-linejoin="round"/>
<path d="M30.288 78.3096V83.6197H29.0592V81.4424H26.6468V83.6197H25.418V78.3096H26.6468V80.4032H29.0592V78.3096H30.288Z" fill="white"/>
<path d="M35.0504 82.4813H32.585L32.1149 83.6197H30.8555L33.2224 78.3096H34.436L36.8103 83.6197H35.5208L35.0504 82.4813ZM34.6637 81.5484L33.8218 79.5155L32.9795 81.5484H34.6637Z" fill="white"/>
<path d="M39.6583 78.3096C40.1284 78.3096 40.5352 78.3882 40.8792 78.5449C41.228 78.7016 41.4965 78.9243 41.6836 79.2126C41.8706 79.5004 41.964 79.8418 41.964 80.2365C41.964 80.6259 41.8706 80.9673 41.6836 81.2604C41.4965 81.5487 41.228 81.7714 40.8792 81.9281C40.5352 82.0798 40.1284 82.1555 39.6583 82.1555H38.5885V83.6197H37.3594V78.3096H39.6583ZM39.5899 81.1543C39.9588 81.1543 40.2397 81.0759 40.4318 80.919C40.6241 80.7573 40.7201 80.5298 40.7201 80.2365C40.7201 79.9381 40.6241 79.7104 40.4318 79.5537C40.2397 79.3917 39.9588 79.311 39.5899 79.311H38.5885V81.1543H39.5899Z" fill="white"/>
<path d="M45.1368 78.3096C45.6069 78.3096 46.0137 78.3882 46.3577 78.5449C46.7065 78.7016 46.9748 78.9243 47.1621 79.2126C47.3491 79.5004 47.4425 79.8418 47.4425 80.2365C47.4425 80.6259 47.3491 80.9673 47.1621 81.2604C46.9748 81.5487 46.7065 81.7714 46.3577 81.9281C46.0137 82.0798 45.6069 82.1555 45.1368 82.1555H44.067V83.6197H42.8379V78.3096H45.1368ZM45.0685 81.1543C45.4375 81.1543 45.7182 81.0759 45.9103 80.919C46.1026 80.7573 46.1986 80.5298 46.1986 80.2365C46.1986 79.9381 46.1026 79.7104 45.9103 79.5537C45.7182 79.3917 45.4375 79.311 45.0685 79.311H44.067V81.1543H45.0685Z" fill="white"/>
<path d="M50.8568 81.7381V83.6197H49.6279V81.7228L47.5723 78.3096H48.8768L50.2954 80.6689L51.7139 78.3096H52.9198L50.8568 81.7381Z" fill="white"/>
<path d="M22.6311 90.3293C22.9342 90.4253 23.1724 90.5873 23.3442 90.815C23.5162 91.0373 23.6022 91.313 23.6022 91.6418C23.6022 92.1069 23.4202 92.4659 23.0558 92.7189C22.6971 92.9666 22.171 93.0904 21.4782 93.0904H18.7324V87.7803H21.3265C21.9739 87.7803 22.4696 87.9043 22.8131 88.152C23.1624 88.3997 23.3368 88.7363 23.3368 89.1611C23.3368 89.4191 23.2732 89.6489 23.1471 89.851C23.0258 90.0533 22.8535 90.2132 22.6311 90.3293ZM19.9531 88.7057V89.9578H21.1748C21.4782 89.9578 21.7083 89.9045 21.8652 89.7982C22.0217 89.6921 22.1 89.5354 22.1 89.3281C22.1 89.1207 22.0217 88.9661 21.8652 88.8651C21.7083 88.759 21.4782 88.7057 21.1748 88.7057H19.9531ZM21.3872 92.1649C21.7109 92.1649 21.9534 92.1119 22.1153 92.0056C22.2823 91.8995 22.3657 91.7349 22.3657 91.5122C22.3657 91.0724 22.0396 90.8527 21.3872 90.8527H19.9531V92.1652L21.3872 92.1649Z" fill="white"/>
<path d="M24.5293 87.7803H25.7582V93.0904H24.5293V87.7803Z" fill="white"/>
<path d="M30.401 93.0901L29.3769 91.6111H29.3162H28.2467V93.0901H27.0176V87.7803H29.3162C29.7866 87.7803 30.1934 87.8586 30.5371 88.0153C30.8862 88.1723 31.154 88.3947 31.341 88.6831C31.5283 88.9714 31.622 89.3128 31.622 89.7072C31.622 90.1016 31.5262 90.4427 31.3339 90.7311C31.1468 91.0141 30.8783 91.2318 30.5295 91.3835L31.7209 93.0901H30.401ZM30.3781 89.7072C30.3781 89.4088 30.282 89.1811 30.09 89.0242C29.8979 88.8624 29.6167 88.7817 29.2476 88.7817H28.2467V90.6327H29.2476C29.6167 90.6327 29.8979 90.5514 30.09 90.3897C30.282 90.228 30.3781 90.0003 30.3781 89.7072Z" fill="white"/>
<path d="M33.6169 88.7817H31.918V87.7803H36.545V88.7817H34.8455V93.0904H33.6169V88.7817Z" fill="white"/>
<path d="M42.0788 87.7803V93.0904H40.8502V90.9131H38.4378V93.0904H37.209V87.7803H38.4378V89.8744H40.8502V87.7803H42.0788Z" fill="white"/>
<path d="M43.3301 87.7803H45.7421C46.3186 87.7803 46.827 87.8919 47.267 88.1145C47.7118 88.3319 48.0558 88.6403 48.2985 89.04C48.5463 89.4394 48.67 89.9043 48.6702 90.4353C48.67 90.9661 48.5463 91.4318 48.2985 91.8314C48.0558 92.2309 47.7118 92.5419 47.267 92.7643C46.827 92.9817 46.3186 93.0904 45.7421 93.0904H43.3301V87.7803ZM45.6815 92.0818C46.2125 92.0818 46.6346 91.9349 46.9483 91.6418C47.267 91.3434 47.4261 90.9411 47.4261 90.4353C47.4261 89.9298 47.267 89.5304 46.9483 89.2371C46.6346 88.9387 46.2125 88.7896 45.6815 88.7896H44.5589V92.0818H45.6815Z" fill="white"/>
<path d="M53.0192 91.9523H50.5538L50.0837 93.0904H48.8242L51.1912 87.7803H52.4047L54.7791 93.0904H53.4895L53.0192 91.9523ZM52.6324 91.0194L51.7906 88.9864L50.9482 91.0194H52.6324Z" fill="white"/>
<path d="M57.5599 91.2094V93.0904H56.3308V91.1938L54.2754 87.7803H55.58L56.9982 90.1396L58.4168 87.7808H59.6229L57.5599 91.2094Z" fill="white"/>
<path d="M30.2978 78.2998V83.6099H29.0689V81.4326H26.6566V83.6099H25.4277V78.2998H26.6566V80.3934H29.0689V78.2998H30.2978Z" fill="#FFB033"/>
<path d="M35.0563 82.4715H32.5909L32.1208 83.6099H30.8613L33.2283 78.2998H34.4418L36.8162 83.6099H35.5267L35.0563 82.4715ZM34.6695 81.5387L33.8277 79.5057L32.9853 81.5387H34.6695Z" fill="#FFB033"/>
<path d="M39.668 78.2998C40.1382 78.2998 40.545 78.3784 40.889 78.5351C41.2377 78.6918 41.5063 78.9145 41.6934 79.2028C41.8804 79.4907 41.9738 79.832 41.9738 80.2267C41.9738 80.6161 41.8804 80.9575 41.6934 81.2506C41.5063 81.5389 41.2377 81.7616 40.889 81.9183C40.545 82.07 40.1382 82.1457 39.668 82.1457H38.5983V83.6099H37.3691V78.2998H39.668ZM39.5997 81.1445C39.9685 81.1445 40.2495 81.0662 40.4415 80.9092C40.6339 80.7475 40.7299 80.5201 40.7299 80.2267C40.7299 79.9283 40.6339 79.7007 40.4415 79.544C40.2495 79.382 39.9685 79.3013 39.5997 79.3013H38.5983V81.1445H39.5997Z" fill="#FFB033"/>
<path d="M45.1368 78.2998C45.6069 78.2998 46.0137 78.3784 46.3577 78.5351C46.7065 78.6918 46.9748 78.9145 47.1621 79.2028C47.3491 79.4907 47.4425 79.832 47.4425 80.2267C47.4425 80.6161 47.3491 80.9575 47.1621 81.2506C46.9748 81.5389 46.7065 81.7616 46.3577 81.9183C46.0137 82.07 45.6069 82.1457 45.1368 82.1457H44.067V83.6099H42.8379V78.2998H45.1368ZM45.0685 81.1445C45.4375 81.1445 45.7182 81.0662 45.9103 80.9092C46.1026 80.7475 46.1986 80.5201 46.1986 80.2267C46.1986 79.9283 46.1026 79.7007 45.9103 79.544C45.7182 79.382 45.4375 79.3013 45.0685 79.3013H44.067V81.1445H45.0685Z" fill="#FFB033"/>
<path d="M50.8626 81.7284V83.6099H49.6338V81.7131L47.5781 78.2998H48.8827L50.3012 80.6591L51.7198 78.2998H52.9257L50.8626 81.7284Z" fill="#FFB033"/>
<path d="M22.637 90.3195C22.9401 90.4155 23.1783 90.5775 23.3501 90.8052C23.5221 91.0276 23.6081 91.3033 23.6081 91.632C23.6081 92.0971 23.426 92.4561 23.0617 92.7091C22.7029 92.9569 22.1769 93.0806 21.4841 93.0806H18.7383V87.7705H21.3324C21.9798 87.7705 22.4755 87.8945 22.819 88.1422C23.1683 88.3899 23.3427 88.7266 23.3427 89.1513C23.3427 89.4093 23.2791 89.6391 23.153 89.8412C23.0316 90.0435 22.8594 90.2034 22.637 90.3195ZM19.959 88.696V89.948H21.1807C21.4841 89.948 21.7141 89.8948 21.8711 89.7884C22.0275 89.6824 22.1059 89.5257 22.1059 89.3183C22.1059 89.111 22.0275 88.9564 21.8711 88.8553C21.7141 88.7493 21.4841 88.696 21.1807 88.696H19.959ZM21.3931 92.1551C21.7168 92.1551 21.9592 92.1021 22.1212 91.9958C22.2882 91.8897 22.3716 91.7251 22.3716 91.5025C22.3716 91.0627 22.0455 90.8429 21.3931 90.8429H19.959V92.1554L21.3931 92.1551Z" fill="#FFB033"/>
<path d="M24.543 87.7705H25.7718V93.0806H24.543V87.7705Z" fill="#FFB033"/>
<path d="M30.403 93.0803L29.3788 91.6014H29.3182H28.2487V93.0803H27.0195V87.7705H29.3182C29.7885 87.7705 30.1953 87.8489 30.5391 88.0056C30.8881 88.1625 31.1559 88.3849 31.343 88.6733C31.5303 88.9616 31.6239 89.303 31.6239 89.6974C31.6239 90.0918 31.5281 90.4329 31.3358 90.7213C31.1488 91.0044 30.8802 91.222 30.5315 91.3737L31.7228 93.0803H30.403ZM30.38 89.6974C30.38 89.399 30.284 89.1714 30.0919 89.0144C29.8999 88.8527 29.6186 88.772 29.2496 88.772H28.2487V90.6229H29.2496C29.6186 90.6229 29.8999 90.5416 30.0919 90.3799C30.284 90.2182 30.38 89.9905 30.38 89.6974Z" fill="#FFB033"/>
<path d="M33.6267 88.772H31.9277V87.7705H36.5548V88.772H34.8553V93.0806H33.6267V88.772Z" fill="#FFB033"/>
<path d="M42.0846 87.7705V93.0806H40.856V90.9033H38.4437V93.0806H37.2148V87.7705H38.4437V89.8647H40.856V87.7705H42.0846Z" fill="#FFB033"/>
<path d="M43.334 87.7705H45.7461C46.3225 87.7705 46.8309 87.8821 47.2709 88.1048C47.7157 88.3221 48.0597 88.6305 48.3024 89.0302C48.5502 89.4296 48.6739 89.8945 48.6742 90.4256C48.6739 90.9564 48.5502 91.422 48.3024 91.8217C48.0597 92.2211 47.7157 92.5321 47.2709 92.7545C46.8309 92.9719 46.3225 93.0806 45.7461 93.0806H43.334V87.7705ZM45.6854 92.072C46.2164 92.072 46.6385 91.9251 46.9522 91.632C47.2709 91.3336 47.43 90.9313 47.43 90.4256C47.43 89.9201 47.2709 89.5207 46.9522 89.2273C46.6385 88.9289 46.2164 88.7799 45.6854 88.7799H44.5628V92.072H45.6854Z" fill="#FFB033"/>
<path d="M53.0289 91.9425H50.5636L50.0934 93.0806H48.834L51.2009 87.7705H52.4145L54.7888 93.0806H53.4993L53.0289 91.9425ZM52.6422 91.0096L51.8003 88.9767L50.958 91.0096H52.6422Z" fill="#FFB033"/>
<path d="M57.5697 91.1996V93.0806H56.3405V91.184L54.2852 87.7705H55.5897L57.008 90.1298L58.4265 87.771H59.6327L57.5697 91.1996Z" fill="#FFB033"/>
<path d="M66.856 61.061L7.95483 61.2671L1.5 71.6979H62.4608L66.856 61.061Z" fill="#9C4CC1"/>
<path d="M66.856 61.061L7.95483 61.2671L1.5 71.6979H62.4608L66.856 61.061Z" stroke="black" stroke-width="1.22463" stroke-linecap="round" stroke-linejoin="round"/>
<path d="M78.8061 53.0386L66.8613 61.8944L74.6162 68.4876L86.3552 59.6318L78.8061 53.0386Z" fill="#8748A1"/>
<path d="M78.8061 53.0386L66.8613 61.8944L74.6162 68.4876L86.3552 59.6318L78.8061 53.0386Z" stroke="black" stroke-width="1.22463" stroke-linecap="round" stroke-linejoin="round"/>
</svg>
