<svg width="120" height="120" viewBox="0 0 120 120" fill="none" xmlns="http://www.w3.org/2000/svg">
<mask id="mask0_2131_23262" style="mask-type:luminance" maskUnits="userSpaceOnUse" x="0" y="0" width="120" height="120">
<path d="M119.5 0.120117H0.5V119.12H119.5V0.120117Z" fill="white"/>
</mask>
<g mask="url(#mask0_2131_23262)">
<path d="M16.9348 78.0591C16.6543 78.0475 16.383 77.9642 16.1421 77.8114C15.3016 77.2007 15.1173 76.2223 14.9828 75.5073C14.9093 75.0632 14.8766 74.6771 14.8804 74.3139C14.8816 74.1516 14.8834 73.8432 14.7858 73.7529C14.4624 73.4531 13.9329 73.4061 13.3723 73.3564L13.1018 73.3312C12.4096 73.2768 11.6357 73.2905 10.9064 73.1647C10.1802 73.0525 9.39875 72.8971 8.66817 72.5326C8.2452 72.3191 7.89426 72.0581 7.62417 71.7542C7.34117 71.4043 6.93947 70.9044 7.08115 70.2659C7.64587 69.1089 8.78813 69.1182 9.54457 69.1241L9.71725 69.1257C10.5288 69.1403 11.3284 69.222 12.0997 69.362C12.4267 69.4217 12.6439 69.7352 12.5849 70.0624C12.5252 70.3894 12.2127 70.6058 11.8846 70.5476C11.1765 70.4188 10.4448 70.3457 9.70376 70.33L9.53428 70.3292C8.86039 70.3235 8.37067 70.344 8.20657 70.6677C8.23836 70.6031 8.43574 70.842 8.51997 70.9475C8.69254 71.1428 8.92328 71.3126 9.20787 71.4554C9.78842 71.7453 10.4617 71.8773 11.1012 71.9767C11.8113 72.0984 12.5072 72.0785 13.2083 72.1309L13.479 72.1562C14.1468 72.2158 14.9788 72.2892 15.607 72.8707C16.0907 73.3238 16.0873 73.9744 16.0846 74.3244C16.0813 74.6531 16.116 74.9779 16.1688 75.2978C16.2925 75.9543 16.4286 76.5311 16.8188 76.8157C16.8265 76.8199 16.9473 76.8957 17.1627 76.8308C17.3884 76.764 17.6058 76.5727 17.7033 76.357C17.8802 76.0245 17.9586 75.6712 18.0406 75.2971C18.1131 74.9673 18.1877 74.6385 18.3098 74.3242C18.744 73.1932 19.5475 72.3581 20.3247 71.5504C20.5755 71.2899 20.8257 71.0308 21.0604 70.7627C21.9768 69.7591 22.8454 68.7306 23.7142 67.703L23.8824 67.5044C25.5585 65.5108 27.5216 63.1969 29.5846 60.9745C29.8114 60.7295 30.1939 60.718 30.4358 60.943C30.6792 61.1697 30.6934 61.5507 30.4676 61.7942C28.4228 63.9962 26.4711 66.2971 24.8032 68.2807L24.6341 68.4802C23.7555 69.5201 22.8762 70.5597 21.9582 71.5649C21.7194 71.8377 21.457 72.1118 21.1929 72.3858C20.4665 73.1399 19.7808 73.8526 19.4337 74.7574C19.3336 75.0153 19.2762 75.286 19.2172 75.556C19.1208 75.9947 19.0205 76.4482 18.7816 76.8912C18.5603 77.3843 18.0647 77.8184 17.5084 77.9853C17.3161 78.0426 17.1237 78.0669 16.9348 78.0591Z" fill="#222222"/>
<path d="M8.28695 70.081C8.229 70.0786 8.17008 70.066 8.11211 70.0417C7.7296 69.8791 7.44839 69.5419 7.34039 69.1152C7.22513 68.6567 7.32821 68.1524 7.6103 67.7998C7.93118 67.3641 8.45613 67.0382 9.20036 66.8239C9.77595 66.6443 10.33 66.7966 10.7748 66.9178L11.0116 66.9808C11.4638 67.0905 11.9345 67.157 12.4067 67.1788C12.7389 67.1941 12.9958 67.4755 12.9805 67.8083C12.9652 68.1388 12.6855 68.3958 12.3539 68.3822C12.3532 68.3821 12.3526 68.3821 12.3509 68.3821C11.8018 68.3571 11.2546 68.2789 10.7248 68.1502L10.4578 68.0796C10.1038 67.9834 9.79734 67.9 9.54627 67.9768C9.05454 68.1189 8.73791 68.2999 8.56501 68.5338C8.50206 68.6135 8.48403 68.7259 8.50835 68.8203C8.81452 68.9499 8.99422 69.3599 8.8646 69.6661C8.75936 69.9136 8.53213 70.0911 8.28695 70.081Z" fill="#222222"/>
<path d="M9.28346 67.8707C9.19873 67.8672 9.11425 67.8467 9.0343 67.8057C8.6984 67.6341 8.43744 67.322 8.31767 66.9506C8.20297 66.5911 8.23085 66.2172 8.39618 65.8974C8.66069 65.286 9.4253 64.9361 10.1623 65.1265L12.6389 65.6544C12.9642 65.7235 13.1714 66.0436 13.1023 66.3689C13.0331 66.6949 12.7113 66.9076 12.3878 66.8323L9.88816 66.2986C9.72425 66.258 9.53339 66.299 9.48305 66.4153L9.46437 66.5824C9.48593 66.6485 9.53164 66.7068 9.58238 66.7325C9.87841 66.8837 9.996 67.2463 9.8448 67.543C9.73392 67.7591 9.51063 67.8801 9.28346 67.8707Z" fill="#222222"/>
<path d="M11.2787 66.6118C11.2394 66.6102 11.2005 66.6046 11.1616 66.5952C10.6487 66.4721 10.1769 66.2635 9.76023 65.9765C9.07076 65.4897 8.76875 64.8603 8.92585 64.2461C9.16728 63.5662 9.73664 63.0998 10.3928 63.0028C10.6775 62.951 10.9836 62.9488 11.2897 62.9496C11.4458 62.9504 11.6018 62.9516 11.757 62.9406C13.5278 62.8604 15.0939 61.8944 16.2623 61.0611C19.1116 59.0885 21.472 56.5621 23.8391 53.929C24.0627 53.6815 24.4435 53.6618 24.6901 53.8831C24.9367 54.106 24.9571 54.4866 24.7351 54.7342C22.3179 57.4223 19.9041 60.0048 16.9548 62.047C15.7597 62.8988 13.9206 64.0481 11.8259 64.1425C11.6559 64.1542 11.4709 64.1545 11.2857 64.154C11.0526 64.153 10.8188 64.1489 10.5878 64.1912C10.3566 64.2256 10.1486 64.3961 10.0759 64.5987C10.0688 64.6384 10.2181 64.8251 10.4491 64.9884C10.7383 65.1872 11.0752 65.3359 11.4436 65.4248C11.7669 65.5024 11.9663 65.8277 11.8878 66.151C11.8197 66.4354 11.5598 66.6234 11.2787 66.6118Z" fill="#222222"/>
<path d="M55.3471 110.229L48.8145 109.921C47.9752 109.855 47.1541 109.84 46.3315 109.824C45.0322 109.799 43.6898 109.77 42.3633 109.561L42.3634 109.56C42.1668 109.532 41.9529 109.425 41.8553 109.28C41.6238 108.936 41.8187 108.584 41.8831 108.469C41.9968 108.263 42.1072 108.116 42.2399 107.98C42.46 107.747 42.7149 107.561 42.9345 107.41L43.2926 107.172C43.5957 106.977 43.8822 106.792 44.1034 106.564C44.2034 106.445 44.2382 106.166 44.2746 105.871C44.2957 105.701 44.3174 105.534 44.3531 105.374L44.5324 103.879C44.7616 101.817 44.9555 99.746 45.1412 97.673C45.509 93.5232 45.8463 89.3696 46.153 85.2149C46.1778 84.8839 46.4571 84.6324 46.7983 84.6583C47.13 84.683 47.3788 84.9717 47.3549 85.3035C47.0463 89.4645 46.7086 93.6244 46.3405 97.7797C46.1545 99.8613 45.9604 101.942 45.729 104.018L45.5392 105.577C45.502 105.757 45.4866 105.889 45.4701 106.021C45.4186 106.435 45.3534 106.951 44.9937 107.374C44.6496 107.729 44.2922 107.961 43.9472 108.184L43.6173 108.401C43.5768 108.43 43.5347 108.459 43.4928 108.489C44.4449 108.582 45.414 108.602 46.3566 108.62C47.2011 108.637 48.0473 108.653 48.8892 108.719L55.2659 109.022C56.3006 109.054 57.2464 109.083 57.7397 108.465C57.9824 108.175 58.1134 107.797 58.1382 107.33L58.2648 105.719L58.6034 99.3432L59.62 73.7676C59.633 73.4354 59.9135 73.1771 60.2458 73.19L60.2464 73.1901C60.5787 73.2037 60.8366 73.4835 60.8236 73.8158L59.8066 99.399L59.3395 107.409C59.3021 108.127 59.0774 108.744 58.6722 109.228C57.8124 110.306 56.3871 110.261 55.3471 110.229Z" fill="#222222"/>
<path d="M82.8959 106.881C82.2707 106.855 81.6371 106.574 81.1429 106.091C80.7748 105.729 80.5523 105.287 80.3556 104.898C80.2924 104.774 80.2307 104.649 80.1635 104.53L79.3974 103.006L76.4778 96.9434C72.8531 89.2889 69.1417 81.3169 65.1296 72.569C64.9905 72.2666 65.123 71.9088 65.4254 71.7704C65.7294 71.6315 66.0857 71.7638 66.224 72.0662C70.2346 80.8101 73.944 88.7781 77.565 96.4246L81.2274 103.966C81.2903 104.078 81.3607 104.216 81.4304 104.355C81.6002 104.691 81.7612 105.009 81.9868 105.231C82.2938 105.531 82.692 105.695 83.0491 105.677C83.5 105.668 83.9368 105.504 84.462 105.29L90.5659 102.537C91.3596 102.148 92.1934 101.796 93.0273 101.444C93.9378 101.061 94.8723 100.667 95.763 100.211C95.6301 100.179 95.4955 100.152 95.3615 100.125C94.9553 100.045 94.678 99.9896 94.4065 99.9093C94.1367 99.83 93.5737 99.6641 93.2934 99.1149C92.7826 98.3099 92.3079 97.4134 91.8492 96.547L91.5016 95.894L88.1188 89.3042L81.5303 76.0484C81.3826 75.7504 81.5036 75.3886 81.8015 75.2409C82.0996 75.0908 82.4594 75.2138 82.6088 75.5118L89.1936 88.7606L92.9137 95.9835C93.3615 96.8299 93.8257 97.706 94.3391 98.5199C94.4112 98.6547 94.6553 98.7267 94.7476 98.7541C94.9834 98.8235 95.2238 98.8701 95.4644 98.9177C95.9324 99.0108 96.2668 99.0833 96.5867 99.2056C96.8006 99.2889 96.9772 99.3826 97.1312 99.4942C97.2295 99.5664 97.3224 99.6369 97.41 99.7378C97.5308 99.8716 97.6158 100.06 97.6075 100.222C97.5968 100.443 97.369 100.718 97.1696 100.814C96.0148 101.493 94.7336 102.033 93.4947 102.554C92.6826 102.897 91.8695 103.239 91.0781 103.627L84.9359 106.398C84.41 106.612 83.7818 106.866 83.0874 106.881C83.0237 106.883 82.9601 106.884 82.8959 106.881Z" fill="#222222"/>
<path d="M86.5004 41.5945C86.3508 41.5883 86.2028 41.5265 86.0906 41.4097C85.8605 41.1694 85.8681 40.7882 86.1083 40.558C88.1103 38.6368 90.3344 36.6172 93.1077 34.2018L93.29 34.0421C94.4063 33.0648 95.5216 32.0874 96.6079 31.0757L97.0316 30.6748C97.9776 29.7885 98.9559 28.8718 99.3266 27.6801C99.3772 27.5189 99.4223 27.3561 99.4667 27.1924C99.6365 26.5722 99.829 25.869 100.337 25.2981C100.688 24.8401 101.32 24.5428 101.957 24.5549C102.55 24.5934 103.018 24.8222 103.325 25.2571C103.878 26.0003 104.007 26.9107 104.092 27.7775C104.129 28.1354 104.119 28.499 104.105 28.8626L104.1 29.0319C104.088 29.216 104.132 29.4451 104.289 29.5545C104.993 29.9727 105.88 30.0469 106.818 30.1248C107.428 30.1758 108.057 30.2283 108.674 30.3855C109.397 30.5385 110.265 30.7611 111.046 31.2123C111.48 31.464 111.839 31.7692 112.112 32.1179C112.404 32.5246 112.785 33.0577 112.602 33.7203C112.343 34.3296 111.804 34.6819 111.058 34.7915C110.606 34.8529 110.178 34.8254 109.767 34.8013C108.753 34.7304 107.867 34.5975 107.011 34.3967C106.687 34.3214 106.486 33.9968 106.562 33.6734C106.638 33.3492 106.961 33.1451 107.286 33.2244C108.079 33.4102 108.901 33.5335 109.729 33.5919C110.213 33.622 110.562 33.6433 110.889 33.5987C111.189 33.5546 111.413 33.447 111.469 33.3182C111.471 33.2908 111.291 33.0394 111.172 32.8736C110.985 32.6334 110.742 32.4287 110.442 32.254C109.808 31.8882 109.055 31.6969 108.4 31.5578C107.858 31.4201 107.304 31.3737 106.719 31.3253C105.685 31.2389 104.615 31.1502 103.636 30.566C103.118 30.208 102.854 29.621 102.897 28.9745L102.902 28.82C102.913 28.5129 102.925 28.2056 102.893 27.8991C102.822 27.1663 102.728 26.4716 102.35 25.9649C102.253 25.8282 102.112 25.7481 101.934 25.7595C101.679 25.7546 101.409 25.8776 101.264 26.0663C100.916 26.4592 100.776 26.9699 100.628 27.5101C100.579 27.6887 100.531 27.867 100.476 28.0405C100.012 29.5329 98.9153 30.5601 97.8557 31.5539L97.4344 31.951C96.3342 32.9769 95.209 33.9625 94.0838 34.9483L93.8999 35.1088C91.1403 37.5129 88.9301 39.5197 86.9421 41.4274C86.8188 41.5456 86.6588 41.601 86.5004 41.5945Z" fill="#222222"/>
<path d="M109.508 37.4684C109.097 37.4515 108.713 37.3258 108.384 37.2189L108.12 37.1352C107.62 36.9867 107.094 36.8857 106.558 36.8338C106.226 36.8021 105.984 36.5073 106.016 36.1765C106.048 35.845 106.358 35.5895 106.673 35.6346C107.286 35.6936 107.888 35.81 108.464 35.9806L108.757 36.0736C109.143 36.2002 109.505 36.3194 109.81 36.2402C110.389 36.103 110.755 35.9157 110.973 35.6477C111.061 35.5484 111.093 35.4005 111.067 35.2716C111.057 35.2201 111.028 35.128 110.952 35.0911C110.653 34.946 110.528 34.5861 110.673 34.2869C110.818 33.9892 111.179 33.8621 111.477 34.0078C111.875 34.1999 112.156 34.5741 112.249 35.0346C112.348 35.5315 112.212 36.0652 111.892 36.4271C111.517 36.8874 110.925 37.2146 110.098 37.4097C109.897 37.4611 109.7 37.4763 109.508 37.4684Z" fill="#222222"/>
<path d="M109.417 39.3123C109.269 39.3063 109.118 39.2813 108.97 39.2359L106.23 38.5077C105.908 38.4224 105.717 38.0919 105.803 37.7705C105.888 37.4491 106.214 37.2578 106.54 37.3434L109.303 38.0778C109.513 38.1438 109.763 38.0952 109.843 37.9329C109.904 37.8255 109.89 37.741 109.879 37.6966C109.854 37.6037 109.794 37.5204 109.723 37.479C109.434 37.3141 109.335 36.946 109.5 36.6577C109.666 36.3701 110.035 36.2708 110.322 36.4348C110.672 36.6352 110.935 36.982 111.042 37.3858C111.146 37.7747 111.097 38.1723 110.904 38.504C110.648 39.0233 110.049 39.3384 109.417 39.3123Z" fill="#222222"/>
<path d="M84.2137 59.9621C84.0703 59.9562 83.9288 59.8992 83.8188 59.7918C83.5804 59.5607 83.575 59.1791 83.8068 58.9407C86.3835 56.289 89.0823 53.6773 91.6921 51.1525C93.0187 49.8691 94.3463 48.5847 95.6638 47.2907C96.846 46.1614 97.9837 44.9996 99.1217 43.8386C99.9188 43.0246 100.716 42.2112 101.525 41.4111C102.973 40.1159 104.312 39.5097 105.641 39.5378C106.056 39.5437 106.437 39.6332 106.806 39.7254C107.113 39.8016 107.407 39.8672 107.676 39.8766C107.91 39.8744 108.114 39.813 108.236 39.7049C108.31 39.6453 108.325 39.5375 108.291 39.4639C108.151 39.1624 108.283 38.8043 108.585 38.6652C108.886 38.5255 109.244 38.657 109.384 38.9594C109.652 39.5387 109.494 40.2401 109.01 40.6267C108.69 40.9109 108.221 41.0754 107.677 41.0813C107.256 41.0774 106.875 40.9846 106.513 40.8937C106.203 40.8166 105.915 40.7451 105.628 40.7419C104.606 40.7211 103.538 41.2266 102.35 42.2889C101.567 43.0635 100.775 43.8729 99.9817 44.6816C98.8348 45.8524 97.687 47.0232 96.5017 48.1554C95.1882 49.4457 93.8592 50.7325 92.5292 52.0181C89.9259 54.5369 87.2344 57.1418 84.67 59.7799C84.5464 59.9082 84.379 59.9689 84.2137 59.9621Z" fill="#222222"/>
<path d="M55.5016 22.4313L61.2385 28.0578C63.2778 30.0577 66.1712 30.9294 68.976 30.3887L76.8662 28.8676C83.9294 27.506 89.5014 34.8206 86.2953 41.2455L82.7137 48.423C81.4406 50.9743 81.5075 53.989 82.8929 56.4848L86.7904 63.5062C90.2792 69.7914 85.0375 77.3315 77.9205 76.2657L69.97 75.0752C67.1439 74.652 64.2917 75.6435 62.3431 77.7267L56.8616 83.5871C51.9548 88.8331 43.1433 86.1786 41.9509 79.0951L40.6187 71.1821C40.1452 68.3693 38.3154 65.967 35.7258 64.7587L28.4407 61.3595C21.9194 58.3167 21.7152 49.1359 28.0953 45.8237L35.2225 42.1238C37.756 40.8086 39.4772 38.3323 39.8252 35.5024L40.8043 27.541C41.6807 20.4143 50.3661 17.3947 55.5016 22.4313Z" fill="#FBE000"/>
<path d="M29.7742 59.2541C29.6708 59.2498 29.5668 59.2259 29.4674 59.1795C27.252 58.145 25.898 56.0722 25.8461 53.6347C25.7947 51.2051 27.0537 49.0856 29.2133 47.965L36.3401 44.2636C36.7347 44.0602 37.2189 44.214 37.4234 44.6063C37.6278 45 37.4741 45.4851 37.0804 45.6895L29.9533 49.3909C28.3486 50.2235 27.4136 51.7969 27.4515 53.6004C27.49 55.4125 28.498 56.9547 30.1473 57.7242C30.5485 57.9118 30.7226 58.3898 30.5349 58.7917C30.3937 59.0934 30.0875 59.267 29.7742 59.2541Z" fill="white"/>
<path d="M54.8436 48.0187C53.4607 47.9618 52.0944 47.5179 50.9677 46.6945C50.6987 46.4982 50.6404 46.1217 50.8367 45.8534C51.0329 45.586 51.4089 45.5261 51.6779 45.7224C53.5743 47.108 56.2836 47.1992 58.2675 45.9435C58.5518 45.766 58.922 45.8509 59.0988 46.1306C59.2764 46.4117 59.1928 46.7843 58.9117 46.9619C57.6992 47.7274 56.2625 48.0771 54.8436 48.0187Z" fill="#222222"/>
<path d="M48.75 40.4122C48.4178 40.3985 48.1595 40.118 48.1731 39.7858L48.2096 38.8997C48.2233 38.5675 48.5038 38.3089 48.836 38.3226C49.1682 38.3363 49.4268 38.617 49.4131 38.9493L49.3766 39.8353C49.363 40.1675 49.0822 40.4259 48.75 40.4122Z" fill="#222222"/>
<path d="M61.6506 40.9157C61.3184 40.902 61.0599 40.6215 61.0735 40.2893L61.108 39.4508C61.1217 39.1185 61.4025 38.8602 61.7347 38.8739C62.0669 38.8876 62.3252 39.1681 62.3116 39.5003L62.277 40.3388C62.2634 40.671 61.9829 40.9294 61.6506 40.9157Z" fill="#222222"/>
<path d="M36.8303 21.4836L29.5509 19.5094L47.8182 8.04766L67.2077 17.2129L61.8968 20.2363L61.5284 28.6313C60.0971 26.5355 57.5502 26.3132 54.9959 26.298C50.0748 26.2686 44.9437 27.2773 41.2275 30.2803C40.8151 30.6135 40.4473 30.9975 39.924 30.6323L36.8303 21.4836Z" fill="#FF7871"/>
<path d="M26.9051 31.5765C26.783 31.5715 26.6608 31.5288 26.5573 31.4475C26.2966 31.2414 26.2519 30.8621 26.458 30.6014C29.0155 27.3657 30.8046 23.52 31.6316 19.48C31.6975 19.1538 32.0125 18.9392 32.3424 19.0108C32.6685 19.0777 32.8783 19.3955 32.8115 19.7216C31.9471 23.9444 30.0763 27.9651 27.4037 31.3482C27.2788 31.5054 27.0917 31.5842 26.9051 31.5765Z" fill="#222222"/>
<path d="M20.9599 33.8186C20.6489 33.8058 20.3259 33.7823 19.989 33.7465C19.6584 33.7125 19.4185 33.4161 19.4534 33.0848C19.4874 32.7541 19.78 32.4932 20.1151 32.5493C21.6936 32.7133 22.9079 32.6139 23.9479 32.2314C25.0063 31.855 25.9788 31.096 26.9254 29.9084C27.1331 29.6494 27.5101 29.6036 27.7723 29.8131C28.0322 30.0208 28.0744 30.4 27.8676 30.6599C26.7911 32.0094 25.6103 32.9191 24.3566 33.3643C23.3756 33.7242 22.2777 33.8728 20.9599 33.8186Z" fill="#222222"/>
<path d="M26.6018 35.703C26.337 35.6921 26.1013 35.5066 26.0394 35.2356C25.6689 33.617 25.7202 32.2031 26.1929 31.0337C26.3171 30.725 26.6693 30.5723 26.9765 30.701C27.2852 30.8252 27.434 31.1768 27.3091 31.4848C26.9309 32.4213 26.8991 33.593 27.2137 34.9669C27.2882 35.2909 27.0851 35.614 26.761 35.6885C26.7071 35.7004 26.6535 35.7051 26.6018 35.703Z" fill="#222222"/>
<path d="M22.6531 31.3947C21.5477 31.3492 20.4467 31.2066 19.3726 30.9686C19.0475 30.8962 18.8426 30.5746 18.9149 30.2504C18.9872 29.9261 19.318 29.7284 19.6331 29.7925C22.0082 30.3181 24.5242 30.3432 26.907 29.8613C27.23 29.7953 27.5509 30.0053 27.6168 30.3322C27.6827 30.6582 27.4717 30.9761 27.1457 31.042C25.6767 31.3395 24.1597 31.4568 22.6531 31.3947Z" fill="#222222"/>
<path d="M27.357 30.7298C27.3154 30.7281 27.274 30.7225 27.2329 30.7113C24.9726 30.1372 22.9736 28.7724 21.7489 26.9672C21.5616 26.6919 21.6336 26.3175 21.9089 26.1311C22.1858 25.9424 22.5602 26.0175 22.745 26.2911C23.8068 27.8558 25.5505 29.042 27.5288 29.5448C27.851 29.6262 28.0466 29.9539 27.9642 30.2761C27.893 30.5574 27.6352 30.7413 27.357 30.7298Z" fill="#222222"/>
<path d="M48.9561 43.297C48.3191 43.2708 47.6942 43.1212 47.1371 42.8503C46.2202 42.4005 45.4291 41.6184 44.7188 40.459C44.0091 39.2055 43.7712 38.0632 44.0013 37.0462C44.2149 36.2442 44.6404 35.6708 45.206 35.4085C45.8336 35.1864 46.4284 35.13 46.9401 35.092C47.9278 35.0229 48.9712 35.036 50.138 35.1342C50.7721 35.1901 51.2849 35.263 51.7515 35.3639L51.9242 35.4054C52.4349 35.5261 53.0698 35.6764 53.4836 36.242C54.1616 37.349 53.8661 38.5627 53.6289 39.5379L53.577 39.7531C53.5278 39.9606 53.3759 40.1176 53.1879 40.183C53.3145 40.3491 53.3507 40.5773 53.2629 40.7832C52.8337 41.7937 51.9853 42.579 50.8757 42.994C50.2611 43.2238 49.6025 43.3237 48.9561 43.297ZM49.0263 36.2704C48.3189 36.2413 47.6584 36.2488 47.0264 36.2933C46.5926 36.3249 46.0916 36.3718 45.6576 36.5235C45.4806 36.6087 45.2831 36.9121 45.1707 37.3336C45.0143 38.0282 45.2092 38.8814 45.7564 39.8473C46.333 40.7884 46.9612 41.4225 47.6659 41.7678C48.4952 42.1724 49.5376 42.2089 50.4535 41.8652C51.2513 41.5676 51.8556 41.0157 52.1554 40.3123C52.2241 40.1489 52.3568 40.0324 52.5121 39.9785C52.4063 39.84 52.3613 39.6571 52.4049 39.4743L52.4587 39.2527C52.6627 38.4158 52.8736 37.5494 52.4838 36.9111C52.3604 36.746 52.0144 36.6642 51.6475 36.5776L51.4796 36.5369C51.0152 36.4369 50.5255 36.3777 50.0345 36.3339C49.6872 36.3048 49.3514 36.2838 49.0263 36.2704Z" fill="#222222"/>
<path d="M61.1841 43.808C60.5386 43.7814 59.8902 43.6277 59.2974 43.3483C58.225 42.8441 57.4438 41.992 57.0982 40.9496C57.0269 40.7362 57.0824 40.5116 57.2223 40.3557C57.0411 40.2752 56.9027 40.1071 56.8707 39.8963L56.8367 39.6775C56.6805 38.6861 56.4857 37.4522 57.2217 36.4435C57.7097 35.875 58.3563 35.7774 58.8753 35.6991L59.0333 35.6744C59.5232 35.6097 60.0395 35.5792 60.6745 35.5755C61.8454 35.5735 62.8905 35.6463 63.866 35.7963C64.3752 35.8763 64.9633 35.9812 65.5181 36.2276C66.1133 36.562 66.4902 37.1696 66.6326 37.9633C66.7823 39.0187 66.4513 40.1378 65.6519 41.3111C64.8368 42.4251 63.9851 43.1393 63.035 43.5114C62.4576 43.7364 61.8217 43.8342 61.1841 43.808ZM57.9135 40.2093C58.063 40.2751 58.1856 40.4025 58.2407 40.5697C58.4816 41.296 59.0392 41.896 59.8099 42.2589C60.6961 42.6744 61.7373 42.7235 62.597 42.3893C63.3261 42.1039 64.0037 41.5233 64.6683 40.6159C65.2814 39.715 65.5465 38.8809 65.4437 38.1537C65.3703 37.7465 65.1989 37.4279 64.9765 37.3017C64.6087 37.1414 64.1133 37.0537 63.6819 36.9864C62.7687 36.8453 61.785 36.7772 60.679 36.7796C60.1891 36.783 59.6955 36.8018 59.2079 36.8666L59.0554 36.8901C58.682 36.9462 58.3306 36.9993 58.1633 37.1924C57.7531 37.7579 57.8919 38.6387 58.0264 39.4894L58.0618 39.7148C58.0902 39.9005 58.0304 40.0791 57.9135 40.2093Z" fill="#222222"/>
<path d="M55.2841 41.226C54.4089 41.19 53.5428 41.0107 52.7303 40.6917C52.4206 40.5698 52.2678 40.2196 52.3897 39.9108C52.5116 39.6011 52.8606 39.4482 53.1703 39.5701C54.5102 40.0984 56.022 40.172 57.4239 39.7838C57.7423 39.694 58.0761 39.8828 58.1649 40.2035C58.2537 40.5242 58.0657 40.8555 57.745 40.9443C56.9417 41.1663 56.1092 41.26 55.2841 41.226Z" fill="#222222"/>
<path d="M37.3312 22.3061C37.1244 22.2976 36.9281 22.1829 36.824 21.9878C36.6673 21.6942 36.7783 21.3289 37.0719 21.1731C40.4148 19.3911 44.0442 18.2942 47.5675 18.0005C51.0474 17.6933 54.7087 18.1076 58.4519 19.224C58.7706 19.3187 58.9522 19.6543 58.8568 19.973C58.762 20.2917 58.4224 20.4739 58.1077 20.3776C54.5112 19.305 50.9983 18.907 47.6695 19.2008C44.3061 19.4814 40.838 20.531 37.6387 22.2357C37.5408 22.2881 37.4346 22.3104 37.3312 22.3061Z" fill="#222222"/>
<path d="M29.3141 35.0235C29.1802 35.018 29.0465 34.9677 28.939 34.8714C27.8155 33.8731 26.9968 32.583 26.5719 31.1402C26.4775 30.8216 26.6598 30.4871 26.9792 30.3927C27.2985 30.2976 27.6332 30.4809 27.7269 30.8002C28.0837 32.0086 28.798 33.1351 29.739 33.9719C29.9882 34.1926 30.01 34.5732 29.7886 34.8215C29.6644 34.9623 29.488 35.0307 29.3141 35.0235Z" fill="#222222"/>
<path d="M38.4882 25.3672C38.3183 25.3602 38.1513 25.2811 38.038 25.1361C37.8337 24.8733 37.8807 24.4953 38.1426 24.2903C38.7808 23.7923 39.4601 23.3957 40.161 23.1107C40.469 22.9876 40.8201 23.1339 40.9455 23.442C41.0708 23.7501 40.9223 24.1011 40.6141 24.2265C40.0163 24.4694 39.434 24.8106 38.8835 25.2407C38.766 25.3316 38.626 25.3728 38.4882 25.3672Z" fill="#222222"/>
<path d="M39.6456 28.3115C39.4898 28.3051 39.3371 28.2385 39.2245 28.1145C39.0008 27.8683 39.0195 27.4868 39.2657 27.2638C40.3998 26.2361 41.6054 25.5614 42.8493 25.2594C43.1704 25.1776 43.4981 25.3787 43.5766 25.7022C43.6551 26.0257 43.4574 26.351 43.1339 26.4295C42.0874 26.6839 41.0582 27.2647 40.075 28.1558C39.9527 28.2668 39.7984 28.3178 39.6456 28.3115Z" fill="#222222"/>
<path d="M62.5256 20.4835C62.3203 20.4751 62.124 20.3618 62.0198 20.1676C61.8617 19.8755 61.9706 19.5095 62.2636 19.3521C62.8481 19.0364 63.438 18.7332 64.0282 18.4294C64.7986 18.0332 65.5693 17.6374 66.326 17.2141L63.207 15.6542C60.7117 14.4001 58.1322 13.1043 55.5555 11.9245C54.0235 11.2218 52.6146 10.6169 51.2477 10.0741L48.7547 9.13174C48.5206 9.0444 48.287 8.95385 48.0408 8.91226C47.801 8.86701 47.5205 8.99144 47.3329 9.10536L39.4319 14.2353C39.1536 14.4176 38.7802 14.3373 38.5995 14.0583C38.4179 13.7794 38.4978 13.4064 38.7767 13.2257L46.6929 8.0853C47.2427 7.75156 47.7624 7.63096 48.2536 7.72657C48.5639 7.77935 48.8701 7.88931 49.1746 8.00314L51.6839 8.95075C53.0784 9.50489 54.5069 10.1178 56.0574 10.8291C58.654 12.0183 61.2437 13.3193 63.748 14.5778L67.7209 16.5597C67.7877 16.5923 67.9795 16.7031 68.0298 16.7577C68.1604 16.8995 68.2162 17.0893 68.1825 17.2787C68.1496 17.4642 67.9799 17.6612 67.8123 17.7477L67.0221 18.2043C66.2171 18.6584 65.3984 19.0799 64.5791 19.5006C63.9962 19.8008 63.4125 20.1001 62.8354 20.4114C62.7368 20.4647 62.6297 20.4878 62.5256 20.4835Z" fill="#222222"/>
</g>
</svg>
