<svg width="109" height="110" viewBox="0 0 109 110" fill="none" xmlns="http://www.w3.org/2000/svg">
<path d="M69.2075 103.039C69.2075 106.343 61.2329 109.021 51.3958 109.021C41.5586 109.021 33.584 106.343 33.584 103.039C33.584 99.735 41.5586 97.0566 51.3958 97.0566C61.2329 97.0566 69.2075 99.735 69.2075 103.039Z" fill="#6B7BF2"/>
<path d="M57.9043 89.9632C57.5782 93.1592 58.5444 96.4561 60.4869 99.0088C61.1145 99.8335 61.2507 101.283 60.8441 102.228C60.3859 103.294 59.1041 103.531 58.0516 103.858C55.3958 104.684 52.5649 104.934 49.804 104.612C47.8862 104.388 40.2898 103.08 42.9492 99.6757C45.0905 96.9337 46.5013 92.5874 45.7801 89.5771" fill="#3F54E8"/>
<path d="M45.9648 91.2427C50.0907 91.7792 53.2646 91.7545 57.4137 91.4452" stroke="black" stroke-width="0.828442" stroke-linecap="round" stroke-linejoin="round"/>
<path d="M93.5852 78.262C93.5852 85.214 75.3847 90.849 52.9311 90.849C30.4774 90.849 12.2559 85.214 12.2559 78.262C12.2559 76.5782 13.3352 74.9587 15.2998 73.4691C21.3882 68.8919 35.9398 65.6533 52.9311 65.6533C67.7852 65.6533 80.8041 68.1365 87.8855 71.8285C91.5128 73.7068 93.5852 75.9086 93.5852 78.262Z" fill="#5762EF"/>
<path d="M12.6758 79.5581C13.1734 81.0456 14.2596 82.2801 15.5156 83.2196C23.7448 89.3732 35.0195 90.2348 45.0981 90.6498C54.7659 91.0479 64.1728 91.131 73.7049 89.4668C81.032 88.1876 89.1523 86.1704 93.0673 79.8464" stroke="black" stroke-width="0.828442" stroke-linecap="round" stroke-linejoin="round"/>
<path d="M33.9087 102.938C33.7846 104.545 34.8003 106.077 36.1358 106.981C37.4713 107.886 39.0856 108.268 40.6725 108.554C49.6165 110.167 59.0076 109.219 67.4493 105.852" stroke="black" stroke-width="0.828442" stroke-linecap="round" stroke-linejoin="round"/>
<path d="M80.4447 44.7981C80.4447 46.7411 80.4232 48.6847 80.3585 50.6061C80.2722 54.9887 80.0555 59.3503 79.8183 63.7113C79.7536 64.9421 79.6889 66.1724 79.6026 67.4033C79.4732 69.9507 79.3217 72.477 79.1708 75.046C79.1061 75.9744 79.0193 76.9674 78.4365 77.7012C77.8968 78.3703 77.0121 78.6727 76.17 78.8889C70.6213 80.4216 64.3814 81.1985 58.617 81.4794C51.4061 81.8466 44.1732 81.2853 37.1133 79.8173C33.9178 79.1692 31.219 78.6301 28.2397 77.2483C27.6785 76.9674 26.8364 75.6503 26.707 75.046C26.5776 74.3548 26.4477 73.6642 26.3398 72.973C25.908 70.706 25.5629 68.4179 25.2605 66.1293C25.088 64.7044 24.9149 63.2795 24.7855 61.8545C24.289 56.5651 24.0949 51.211 24.2027 45.878C24.2243 45.7054 24.2458 45.5103 24.3105 45.3378C31.241 48.5979 38.8838 50.2174 46.548 50.5414C54.8603 50.887 63.1726 49.7425 71.2688 47.8641C74.421 47.1083 77.6596 46.202 80.3585 44.4746C80.38 44.5824 80.4447 44.6903 80.4447 44.7981Z" fill="#FF85AB"/>
<path d="M64.2578 64.7457C69.4699 64.6005 74.6699 64.2713 79.8173 63.7116C80.0545 59.3506 80.2712 54.989 80.3575 50.6064C74.6751 54.8318 69.9191 60.4247 64.2578 64.7457Z" fill="#F86089"/>
<path d="M57.5546 68.864C52.8928 71.0774 47.7938 72.3703 42.66 72.9731C39.3352 73.3402 35.9888 73.4481 32.6425 73.3834C30.5269 73.3402 28.4324 73.2755 26.3379 72.9731C26.4457 73.6642 26.5756 74.3549 26.705 75.046C26.8344 75.6504 27.6765 76.9675 28.2378 77.2484C31.217 78.6302 34.0069 78.8216 37.1113 79.8173C44.4153 82.1601 51.552 82.3768 58.6151 81.4795C64.3405 80.752 70.6193 80.4217 76.168 78.889C77.0102 78.6728 77.8949 78.3703 78.4346 77.7013C79.0174 76.9675 79.1041 75.9744 79.1688 75.046C79.3198 72.4771 79.4713 69.9507 79.6007 67.4033C72.4561 68.4579 64.9791 68.8177 57.5546 68.864Z" fill="#F86089"/>
<path d="M64.2585 64.7454C50.976 65.1157 37.6084 64.1647 24.7852 61.8545C24.9146 63.2794 25.0876 64.7043 25.2601 66.1293C33.4862 68.31 42.6401 68.7419 51.5783 68.8497C53.5608 68.8771 55.558 68.8765 57.5562 68.8639C58.7366 68.3037 59.8964 67.6994 61.0131 67.0145C62.1376 66.3186 63.2086 65.5465 64.2585 64.7454Z" fill="#FFCCE1"/>
<path d="M61.0115 67.0142C59.8948 67.699 58.735 68.3034 57.5547 68.8636C64.9791 68.8173 72.4561 68.4575 79.6007 67.4029C79.687 66.1721 79.7517 64.9418 79.8164 63.7109C74.669 64.2706 69.469 64.5999 64.2569 64.745C63.207 65.5461 62.1361 66.3183 61.0115 67.0142Z" fill="#FCB6D5"/>
<path d="M23.6558 50.5126C24.3495 50.7851 25.0649 50.1249 25.3794 49.449C25.694 48.7731 25.8628 47.9742 26.4519 47.5171C27.3109 46.8501 28.6606 47.3224 29.2781 48.2172C29.8956 49.1119 29.9677 50.2643 29.9719 51.3516C29.9787 53.2993 29.8657 55.3765 30.8666 57.0476C31.8676 58.7187 34.526 59.5208 35.7531 58.008C36.6163 56.9439 36.338 55.3802 35.9209 54.0752C35.6164 53.1231 34.6354 51.4084 36.0482 50.8582C36.6173 50.6367 37.3322 50.9029 37.6172 51.4431C37.855 51.8923 37.8003 52.4314 37.795 52.9395C37.7892 53.4766 37.8461 54.0147 37.9633 54.5391C38.1211 55.2434 38.5346 56.0377 39.2547 56.0834C39.778 56.1166 40.2446 55.7084 40.4671 55.2334C40.6896 54.7584 40.7264 54.2219 40.7995 53.7022C40.8726 53.1831 40.9983 52.6424 41.3523 52.2552C43.4963 49.9093 43.1412 56.1734 42.9708 56.9124C42.6394 58.3515 42.1676 59.8022 42.3207 61.2713C42.4738 62.7404 43.4831 64.2574 44.9533 64.401C46.515 64.5535 47.8431 63.0702 48.1303 61.5275C48.4175 59.9847 47.9557 58.4152 47.5622 56.8961C47.1688 55.377 46.8469 53.7391 47.3934 52.2668C47.6779 51.5015 48.6216 51.0502 49.1339 51.876C49.5642 52.5698 49.0892 53.9879 49.1066 54.7316C49.1165 55.1577 49.2617 55.6137 49.6162 55.8504C50.2801 56.2933 51.1285 55.3381 51.2742 54.7374C51.3815 54.294 51.3178 53.4603 51.6445 53.1079C52.2573 52.4467 52.8422 53.1794 53.5139 53.6039C53.2451 54.2572 52.981 55.0209 53.3224 55.6395C54.0225 56.9077 55.7877 56.0229 55.6594 54.7663C55.5595 53.7896 54.3949 52.1968 55.8972 51.5146C57.9043 50.6031 57.8176 54.678 57.9117 55.6232C58.16 58.1101 58.0679 60.6317 57.6335 63.0934C57.3415 64.7492 56.8992 66.475 57.4073 68.0777C57.8007 69.3196 58.8027 70.3784 60.0562 70.7324C61.3096 71.0864 62.7745 70.6687 63.5714 69.6383C65.1373 67.6127 64.0117 64.8028 63.4867 62.6447C62.8093 59.858 62.4153 57.0023 62.3164 54.1362C62.2712 52.8312 62.1596 51.6004 63.2322 50.6657C63.6961 50.2617 64.3878 50.0555 64.939 50.328C65.5476 50.6288 65.779 51.3826 65.8064 52.0606C65.8448 53.0095 65.6086 53.9652 65.7501 54.9047C65.8916 55.8441 66.6101 56.8203 67.5579 56.7625C68.4043 56.7109 69.0028 55.842 69.0933 54.9993C69.1838 54.1567 68.9082 53.3246 68.7162 52.4988C68.5242 51.6729 68.4248 50.7598 68.8329 50.0166C69.2411 49.2734 70.3362 48.8741 70.9685 49.4385C71.4771 49.8925 71.4519 50.6741 71.5566 51.3479C71.8274 53.091 73.5685 52.7754 73.8552 51.2127C73.9714 50.5794 73.9109 47.0347 75.603 48.3145C76.1085 48.6969 76.2311 49.3991 76.2605 50.0324C76.29 50.6657 76.2774 51.3432 76.6271 51.8723C76.9769 52.4015 77.8632 52.614 78.2241 52.0927C78.4292 51.7966 78.384 51.4026 78.445 51.0475C78.506 50.6925 78.81 50.3017 79.1524 50.4137C79.5569 50.5463 79.4759 51.127 79.406 51.5488C79.2287 52.6318 80.0335 55.2402 81.4937 54.0657C82.1859 53.5087 82.4951 51.7292 82.7019 50.9113C83.0064 49.7073 83.1568 48.4591 83.0238 47.2193C82.7629 44.7887 81.1865 42.3628 78.8153 41.7685C76.8728 41.2814 74.8703 42.063 72.9447 42.6132C69.2038 43.6826 65.061 43.8824 61.1987 43.9566C53.7427 44.0997 46.283 44.0534 38.8291 43.8188C37.1186 43.7651 35.2571 43.8872 33.5886 43.5169C31.8844 43.1387 30.1571 42.9541 28.3939 43.1566C26.6997 43.3512 24.9997 43.9713 23.8093 45.1927C22.3024 46.7391 22.6127 48.8058 23.6558 50.5126Z" fill="#FEADD6"/>
<path d="M79.8352 42.5631C70.634 36.6136 58.6586 37.9633 48.1308 38.5445C40.1973 38.9827 32.2763 40.4597 25.27 44.1537C24.7987 44.402 24.4569 44.8365 24.3027 45.3367C31.2354 48.5873 38.8881 50.2132 46.5476 50.533C54.8557 50.8796 63.1748 49.7498 71.2715 47.8557C74.4253 47.1182 77.6691 46.1935 80.3638 44.4741C80.2691 43.946 80.2912 42.8582 79.8352 42.5631Z" fill="#FEADD6"/>
<path d="M70.7886 47.8675C65.7759 48.9774 60.658 49.577 55.5243 49.6664C50.5852 49.7453 45.5724 49.3245 40.6123 49.193C37.9665 49.1194 35.2945 49.0405 32.7329 48.3725C31.886 48.1516 31.0602 47.8623 30.2712 47.4993C29.6926 47.2363 28.7143 46.9102 28.2619 46.4736C27.9832 46.2054 27.8832 45.7109 28.1515 45.4322C28.3882 45.1902 28.7721 45.206 29.1088 45.2428C31.3548 45.4848 33.4272 46.1475 35.6627 46.4789C37.6457 46.7735 39.6287 46.9418 41.6275 47.0154C41.9062 47.0259 42.1429 47.0785 42.3639 47.1469C42.7426 47.2679 43.0792 47.452 43.5316 47.594C44.3784 47.8623 45.2989 47.8675 46.1721 47.7781C47.5923 47.6308 49.0072 47.2574 50.4221 47.4204C51.7476 47.573 53.0047 48.1936 54.3355 48.2147C55.6032 48.2357 56.8077 47.7097 58.0385 47.4152C59.3482 47.0996 60.7106 47.0417 62.0571 46.9839C64.9764 46.8576 67.8746 46.7209 70.7939 46.7524C71.1042 46.7524 71.483 46.805 71.5829 47.0996C71.7197 47.4941 71.1989 47.7781 70.7886 47.8675Z" fill="#FFC5E5"/>
<path d="M22.8867 46.1487C25.7203 43.2389 29.5085 41.2748 33.5192 40.6362" stroke="black" stroke-width="0.828442" stroke-linecap="round" stroke-linejoin="round"/>
<path d="M62.4863 81.3868C66.4381 81.4688 69.8739 80.1281 73.7184 79.4222C75.582 79.0798 77.545 78.3144 78.4787 76.6654C79.1719 75.4409 79.1683 73.9581 79.1462 72.5511C79.0652 67.3869 80.1955 59.7868 80.1145 54.6226" stroke="black" stroke-width="0.828442" stroke-linecap="round" stroke-linejoin="round"/>
<path d="M56.4688 45.1563C57.4139 38.0959 59.6778 31.2145 63.109 24.972" stroke="#F86089" stroke-width="0.828442" stroke-linecap="round" stroke-linejoin="round"/>
<path d="M68.1195 26.7931L65.1341 25.4859C64.9681 25.413 64.777 25.427 64.6232 25.5224L61.8537 27.2404C61.4661 27.4812 60.9703 27.1726 61.0155 26.7185L61.3365 23.4749C61.3542 23.2948 61.2822 23.1174 61.1438 23.0003L58.654 20.8972C58.3053 20.6026 58.4459 20.0362 58.8918 19.9389L62.0754 19.242C62.2523 19.2031 62.3987 19.0801 62.4671 18.9123L63.6979 15.8939C63.8699 15.4716 64.4522 15.4301 64.6828 15.8238L66.3296 18.6362C66.4214 18.7926 66.5833 18.8941 66.7643 18.9072L70.0147 19.145C70.4699 19.1781 70.6892 19.7194 70.3858 20.0602L68.2198 22.4954C68.0994 22.6311 68.0535 22.8168 68.0969 22.9929L68.8751 26.1574C68.9842 26.6005 68.5373 26.9761 68.1195 26.7931Z" fill="#FFD55F"/>
<path d="M48.7037 44.238C49.2706 39.1298 49.8374 34.0222 50.4043 28.9141" stroke="#F86089" stroke-width="0.828347" stroke-linecap="round" stroke-linejoin="round"/>
<path d="M54.6455 30.3648L51.7625 28.8458C51.6022 28.7611 51.4106 28.7613 51.2504 28.8454L48.3644 30.359C47.9606 30.5711 47.4884 30.2276 47.5662 29.778L48.1203 26.5664C48.1509 26.388 48.0919 26.2059 47.9624 26.0791L45.6311 23.8022C45.3046 23.4832 45.4856 22.9285 45.9373 22.8636L49.1625 22.3983C49.3417 22.3722 49.4971 22.2603 49.5775 22.0978L51.0226 19.1765C51.2247 18.7676 51.8079 18.7682 52.0094 19.1775L53.4489 22.101C53.5291 22.2636 53.6838 22.3767 53.8633 22.4027L57.0878 22.8743C57.5394 22.9402 57.7189 23.4959 57.3918 23.8138L55.056 26.0862C54.9262 26.2128 54.8665 26.3946 54.8971 26.5733L55.4449 29.7853C55.5217 30.2351 55.049 30.5774 54.6455 30.3648Z" fill="#FFD55F"/>
<path d="M64.5156 44.2347C66.233 40.4155 68.7651 36.965 71.8928 34.1801" stroke="#F86089" stroke-width="0.828269" stroke-linecap="round" stroke-linejoin="round"/>
<path d="M74.4679 36.9343L72.5114 35.8604C72.4028 35.8008 72.2716 35.7984 72.1604 35.8543L70.1671 36.8571C69.888 36.9976 69.5687 36.757 69.6271 36.4503L70.0436 34.2577C70.0669 34.136 70.0287 34.01 69.9414 33.922L68.371 32.3362C68.1513 32.114 68.2818 31.7364 68.5918 31.697L70.8052 31.4157C70.9283 31.4001 71.0365 31.3249 71.0932 31.2144L72.1161 29.2309C72.2593 28.9532 72.6584 28.9604 72.7919 29.2431L73.7437 31.2618C73.7965 31.3742 73.9015 31.4529 74.0241 31.4732L76.2266 31.833C76.535 31.8836 76.6517 32.2658 76.4241 32.4797L74.7983 34.0087C74.7081 34.0937 74.6651 34.2177 74.684 34.3406L75.0219 36.5465C75.0693 36.8553 74.742 37.0846 74.4679 36.9343Z" fill="#FFD55F"/>
<path d="M41.2114 44.7985C40.4055 40.5936 37.0689 28.7819 35.2227 24.9189" stroke="#F86089" stroke-width="0.828442" stroke-linecap="round" stroke-linejoin="round"/>
<path d="M38.6191 27.2124L35.2175 25.6539C35.0287 25.5671 34.8087 25.5792 34.6303 25.6858L31.4184 27.6038C30.9687 27.8721 30.4063 27.509 30.4669 26.9887L30.8977 23.2725C30.9215 23.066 30.8427 22.8608 30.6862 22.724L27.869 20.2616C27.4744 19.9169 27.6468 19.2695 28.1601 19.1663L31.828 18.4284C32.0317 18.3873 32.202 18.2486 32.2839 18.0572L33.7551 14.6171C33.9609 14.1354 34.6299 14.0992 34.8867 14.5558L36.7224 17.8159C36.8246 17.9972 37.0092 18.1164 37.2162 18.135L40.9424 18.4707C41.4638 18.5176 41.7054 19.1427 41.3506 19.5283L38.8172 22.2812C38.6763 22.4342 38.6201 22.6473 38.6662 22.8498L39.4983 26.497C39.6148 27.0076 39.0952 27.4305 38.6191 27.2124Z" fill="#FFD55F"/>
<path d="M73.2413 44.7904C75.0576 37.5653 79.8697 31.5245 84.5553 25.7319" stroke="#F86089" stroke-width="0.829153" stroke-linecap="round" stroke-linejoin="round"/>
<path d="M87.8264 28.4454L85.7286 27.6779C85.6121 27.6354 85.4819 27.6528 85.3804 27.7249L83.559 29.0187C83.304 29.1998 82.9517 29.0094 82.9632 28.697L83.0445 26.4643C83.0492 26.3404 82.9918 26.222 82.8922 26.148L81.0993 24.8152C80.8484 24.6285 80.92 24.235 81.2208 24.1492L83.3693 23.5368C83.4888 23.5028 83.584 23.412 83.6234 23.2941L84.3369 21.1774C84.4366 20.881 84.8328 20.8274 85.0075 21.087L86.2541 22.941C86.3233 23.0444 86.4386 23.1064 86.563 23.1079L88.7969 23.1321C89.1097 23.1357 89.2829 23.4963 89.0899 23.7423L87.7122 25.5009C87.6358 25.5986 87.6115 25.7272 87.6488 25.846L88.3161 27.978C88.4096 28.2765 88.1203 28.5528 87.8264 28.4454Z" fill="#FFD55F"/>
<path d="M104.433 22.3959C104.169 21.4423 104.174 20.4498 104.423 19.5229C104.669 18.597 105.159 17.7355 105.864 17.0417C106.001 16.9078 105.874 16.6883 105.69 16.7391C103.784 17.2663 101.726 16.7145 100.339 15.3052C100.205 15.1688 99.9851 15.2957 100.036 15.48C100.299 16.4325 100.293 17.4227 100.044 18.3496C99.7959 19.2766 99.3045 20.1389 98.5992 20.8328C98.4628 20.9667 98.5897 21.1865 98.7739 21.1354C99.7275 20.8716 100.72 20.8772 101.647 21.1255C102.574 21.3739 103.436 21.8653 104.13 22.5706C104.264 22.7068 104.484 22.5802 104.433 22.3959Z" fill="#3F54E8"/>
<path d="M20.0324 2.32487C20.2962 3.27852 20.2906 4.271 20.0423 5.19792C19.7965 6.12376 19.3061 6.98508 18.6011 7.67886C18.4647 7.81278 18.5914 8.03229 18.7758 7.98147C20.6814 7.4543 22.7398 8.0061 24.1265 9.41546C24.2604 9.5518 24.48 9.42506 24.4291 9.24075C24.166 8.28829 24.1728 7.2979 24.4211 6.37098C24.6695 5.44406 25.1609 4.58175 25.8662 3.8878C26.0026 3.75388 25.8757 3.53407 25.6915 3.58519C24.7379 3.84905 23.7454 3.84345 22.8185 3.59508C21.8915 3.34671 21.0292 2.85533 20.3353 2.14999C20.2011 2.01382 19.9816 2.14056 20.0324 2.32487Z" fill="#2ABFFF"/>
<path d="M90.8683 96.7414C91.1322 97.695 91.1264 98.6872 90.878 99.6141C90.6322 100.54 90.1419 101.401 89.4368 102.095C89.3005 102.229 89.4274 102.449 89.6117 102.398C91.5173 101.871 93.5754 102.423 94.9622 103.832C95.0961 103.968 95.3159 103.842 95.2651 103.657C95.0019 102.705 95.0087 101.714 95.2571 100.787C95.5054 99.8606 95.9965 98.9984 96.7019 98.3045C96.8382 98.1706 96.7111 97.9504 96.527 98.0016C95.5733 98.2654 94.5812 98.2597 93.6542 98.0113C92.7273 97.7629 91.8652 97.2718 91.1712 96.5665C91.037 96.4303 90.8175 96.5571 90.8683 96.7414Z" fill="#FC5D75"/>
<path d="M7.98154 102.417C7.71767 101.463 7.72328 100.471 7.97165 99.5439C8.21746 98.618 8.70812 97.7565 9.41316 97.0627C9.5495 96.9288 9.42259 96.709 9.23828 96.7598C7.33264 97.287 5.27443 96.7355 3.88769 95.3261C3.75377 95.1898 3.53396 95.3167 3.58478 95.501C3.84796 96.4535 3.84098 97.4436 3.59261 98.3705C3.34424 99.2974 2.85316 100.16 2.14782 100.854C2.01148 100.987 2.13856 101.208 2.3227 101.156C3.27635 100.893 4.26853 100.898 5.19545 101.147C6.12237 101.395 6.98468 101.886 7.67863 102.592C7.81284 102.728 8.03235 102.601 7.98154 102.417Z" fill="#FFEA58"/>
</svg>
