<svg width="120" height="120" viewBox="0 0 120 120" fill="none" xmlns="http://www.w3.org/2000/svg">
<mask id="mask0_2131_23154" style="mask-type:luminance" maskUnits="userSpaceOnUse" x="0" y="0" width="120" height="120">
<path d="M119.5 0.120117H0.5V119.12H119.5V0.120117Z" fill="white"/>
</mask>
<g mask="url(#mask0_2131_23154)">
<path d="M63.7498 64.1168C60.9042 55.0727 56.9182 46.0217 50.6867 37.4982C50.4098 37.1194 49.9843 36.8674 49.5188 36.8095C37.3563 35.2978 24.2744 36.0132 10.582 38.2069L26.2332 67.1309L63.7498 64.1168Z" fill="#308CEF"/>
<path d="M42.1356 36.1649C32.1148 35.6419 21.5441 36.4508 10.582 38.207L26.2332 67.1309L63.7498 64.1168C61.9536 58.408 59.703 52.6962 56.7199 47.1162" stroke="black" stroke-width="0.831264" stroke-linecap="round" stroke-linejoin="round"/>
<path d="M59.8724 64.7015L25.781 67.306L14.8088 45.8603L13.2461 42.8123C19.7075 41.2827 26.1801 40.4296 32.6858 40.1303C32.9629 40.1191 33.2399 40.1082 33.517 40.0969C34.8913 40.0414 36.2658 40.0195 37.64 40.0195C40.8097 40.0195 44.0015 40.1413 47.1934 40.374C47.7919 40.4183 48.3239 40.7841 48.5788 41.3161L49.7203 43.6657L51.6711 47.7222L52.0256 48.4648L56.9908 58.7387L59.8724 64.7015Z" fill="#1C7DC6"/>
<path d="M59.8761 64.6994L25.7847 67.3039L14.8125 45.8582L15.1005 44.7832C15.7212 46.1574 16.353 47.5426 17.2951 48.7174C18.2259 49.9032 19.5227 50.8677 21.019 51.1004C22.3822 51.322 23.8451 50.912 25.1419 51.3997C27.7131 52.3639 28.4667 56.3536 31.1933 56.7084C32.7116 56.8969 34.1745 55.7888 35.6929 55.966C37.1005 56.1323 38.1311 57.3178 39.0953 58.3376C40.0708 59.3682 41.3785 60.3882 42.7527 60.0778C44.0274 59.8007 44.9363 58.4705 46.2441 58.4262C47.1749 58.3931 47.9728 59.0471 48.7376 59.5901C49.4912 60.1442 50.4776 60.6317 51.331 60.255C52.3395 59.8007 52.6388 58.3709 53.6806 57.994C54.667 57.6392 55.6646 58.4596 56.6843 58.6923C56.7841 58.7145 56.8837 58.7254 56.9945 58.7366L59.8761 64.6994Z" fill="#1373A3"/>
<path d="M21.9699 67.7192C18.3315 59.3072 13.8356 50.9097 8.73802 42.3979C8.38966 41.8165 8.42543 41.08 8.83386 40.5392L10.5789 38.2285C16.1027 47.1012 21.3677 57.1108 26.0235 67.1831L21.9699 67.7192Z" fill="#509DFF"/>
<path d="M8.51515 41.7629C8.45749 41.3371 8.56454 40.8956 8.83362 40.5392L10.5786 38.2285C16.1025 47.1012 21.3674 57.1108 26.0232 67.1831L21.9697 67.7192C19.7177 62.513 17.1375 57.3118 14.2894 52.0861" stroke="black" stroke-width="0.831264" stroke-linecap="round" stroke-linejoin="round"/>
<path d="M52.0293 48.4719C51.985 48.505 51.9294 48.5272 51.8851 48.5493C51.3974 48.7821 50.8545 48.8929 50.3115 48.8929C49.5024 48.8929 48.6821 48.6382 48.0283 48.1614C47.6848 47.9177 47.4077 47.6294 47.1306 47.3523C46.8866 47.1086 46.665 46.8758 46.4101 46.6764C45.9558 46.3329 45.3018 46.1113 44.8474 46.3772C44.6034 46.5213 44.4152 46.7982 44.2158 47.0974C43.95 47.5074 43.6395 47.973 43.0853 48.1614C42.0547 48.5162 41.1236 47.6628 40.5915 46.7538L40.5141 46.6209C40.1375 45.9669 39.7493 45.291 39.1508 45.2024C38.7739 45.1468 38.386 45.3353 37.9426 45.5569C37.6434 45.701 37.3332 45.8561 36.9897 45.9447C35.4601 46.3326 33.9751 45.2245 33.3544 43.972C32.7447 42.7529 32.7007 41.3787 32.6895 40.1374C32.9665 40.1262 33.2436 40.1152 33.5207 40.104C33.5319 41.2567 33.565 42.5423 34.097 43.6063C34.5735 44.5705 35.715 45.413 36.779 45.1359C37.034 45.0694 37.2998 44.9362 37.5769 44.8033C38.0756 44.5593 38.641 44.2713 39.2838 44.3821C40.2701 44.5371 40.8022 45.457 41.2343 46.1997L41.312 46.3329C41.5891 46.8206 42.221 47.5851 42.8082 47.3745C43.0965 47.2747 43.2959 46.9757 43.5287 46.6321C43.7503 46.2886 44.0164 45.9004 44.4265 45.6567C45.2577 45.1581 46.2884 45.5459 46.909 46.0224C47.2083 46.244 47.4742 46.5101 47.7291 46.7651C47.984 47.0309 48.2389 47.2859 48.516 47.4853C49.3695 48.1059 50.5886 48.2279 51.5528 47.7957C51.5971 47.7736 51.6417 47.7514 51.6748 47.7293L52.0293 48.4719Z" fill="#1373A3"/>
<path d="M49.7219 43.6657C49.4782 43.8651 49.2123 44.0314 48.9131 44.1313C48.0708 44.4193 47.1173 44.2976 46.3194 43.9097C45.8872 43.6991 45.4882 43.4111 45.0338 43.2226C44.5904 43.0341 44.0475 42.9674 43.6262 43.2002C43.3491 43.3443 43.1166 43.6214 42.8062 43.6326C42.1743 43.6548 41.9971 42.7237 41.4541 42.3913C40.7891 41.9923 39.9691 42.6684 39.1821 42.6351C38.495 42.6019 37.9406 42.0032 37.7412 41.3382C37.6082 40.917 37.6082 40.4629 37.6416 40.0195C40.8113 40.0195 44.0031 40.1413 47.195 40.374C47.7935 40.4183 48.3255 40.7841 48.5804 41.3161L49.7219 43.6657Z" fill="#1373A3"/>
<path d="M50.8326 58.8084C49.6018 58.8084 48.4788 59.401 47.6805 60.3614C46.8688 61.3218 46.3684 62.6343 46.3684 64.0909C46.3684 61.1773 44.3801 58.8084 41.918 58.8084C43.1488 58.8084 44.2584 58.2162 45.0701 57.272C45.868 56.3116 46.3684 54.9985 46.3684 53.542C46.3684 54.9985 46.8688 56.3116 47.6805 57.272C48.4788 58.2162 49.6018 58.8084 50.8326 58.8084Z" fill="white"/>
<path d="M21.6895 44.2723C25.1216 43.6108 28.5689 43.0291 32.0282 42.5283" stroke="white" stroke-width="0.554176" stroke-linecap="round" stroke-linejoin="round"/>
<path d="M72.0032 35.082C70.8546 35.4658 69.805 36.1435 69.0161 37.0634C67.3957 38.9529 66.953 41.7751 67.9172 44.07C68.4073 45.237 69.3178 46.3151 70.5478 46.6136C71.7778 46.9121 73.2771 46.1478 73.4397 44.8927C73.6389 43.3572 71.9287 42.2467 70.3953 42.0313C67.847 41.6733 65.1458 42.7127 63.4951 44.6869C61.8444 46.661 61.2991 49.5034 62.1025 51.948C62.5288 53.2453 63.374 54.4761 64.6278 55.0168C65.8817 55.5576 67.5583 55.2041 68.2312 54.016C69.0081 52.6442 68.1152 50.7808 66.7051 50.0757C65.2951 49.3707 63.5956 49.5722 62.0966 50.0605C59.6956 50.8424 57.4248 51.9931 55.7897 53.9511C54.9665 54.937 54.3324 56.1227 54.2076 57.401C54.0827 58.6792 54.5294 60.0507 55.5356 60.8489C56.5418 61.6472 58.1218 61.7255 59.0825 60.873C60.0431 60.0206 60.0689 58.2646 59.0238 57.5181C58.3206 57.0156 57.3334 57.0459 56.5563 57.4237C55.7792 57.8016 55.1848 58.4763 54.7087 59.1974C52.6115 62.3726 52.6129 66.8008 54.7119 69.9746" stroke="black" stroke-width="0.834458" stroke-linecap="round" stroke-linejoin="round"/>
<path d="M61.5434 7.96194C61.0962 11.3105 60.6492 14.6593 60.2019 18.0079C60.1272 18.5585 59.5141 18.9302 58.8096 18.8469C58.1281 18.7659 57.6187 18.2606 57.6742 17.7075C57.8143 16.3612 57.9547 15.0149 58.0949 13.6686C56.1159 13.4623 54.1263 13.3197 52.1293 13.2423C52.0766 14.5947 52.0246 15.9474 51.9718 17.2999C51.9493 17.8551 51.3488 18.2825 50.6579 18.2659C49.9674 18.249 49.4078 17.7937 49.4121 17.238C49.4451 13.8597 49.4781 10.4814 49.511 7.10336C49.515 6.54813 50.1614 6.10142 50.9516 6.12072C51.7427 6.13948 52.3885 6.6178 52.3654 7.1725C52.3126 8.52521 52.2604 9.87819 52.2076 11.2309C54.2482 11.3102 56.2813 11.4555 58.3036 11.6664C58.4441 10.3198 58.5839 8.97325 58.7244 7.62671C58.7804 7.07442 59.4615 6.69016 60.2416 6.78287C61.0485 6.8788 61.6184 7.41207 61.5434 7.96194Z" fill="#F83B4D"/>
<path d="M74.2559 20.669C74.2835 20.8046 74.2634 20.9429 74.2278 21.0592C74.0745 21.5571 73.4633 21.8768 72.7457 21.6688C72.2727 21.5316 71.8858 21.1718 71.8035 20.7355C71.6663 20.0439 71.5221 19.3517 71.3707 18.6598C69.4478 18.1528 67.5066 17.7096 65.5501 17.3309C65.1131 17.8886 64.6822 18.4489 64.2575 19.0125C63.9935 19.3699 63.4876 19.5259 63.0001 19.4442C62.2831 19.323 61.8489 18.7493 61.9245 18.2509C61.9454 18.1139 61.9848 17.9971 62.0687 17.887C64.2591 14.8134 66.6311 11.8172 69.1798 8.91401C69.4719 8.58655 70.0526 8.4448 70.6242 8.57583C71.173 8.70124 71.6347 9.07988 71.755 9.50194C72.7902 13.2235 73.6227 16.9512 74.2559 20.669ZM70.8594 16.4496C70.5333 15.0374 70.1783 13.6249 69.7934 12.2135C68.8269 13.3162 67.8863 14.4326 66.9715 15.5618C68.2746 15.8298 69.5708 16.1256 70.8594 16.4496Z" fill="#F83B4D"/>
<path d="M75.892 21.5846C76.9414 18.3733 77.9907 15.1619 79.0401 11.9509C79.2113 11.423 79.9541 11.189 80.6921 11.4423C81.9135 11.8608 83.1266 12.3032 84.3306 12.769C84.4665 12.821 85.6699 13.3057 86.718 14.2551C88.2031 15.6151 88.6122 17.1881 87.9332 18.6683C87.8911 18.7645 87.4771 19.6035 86.5296 20.2057C85.1656 21.0613 83.3627 21.0846 81.4063 20.3279C80.7109 20.0588 80.0123 19.7986 79.3107 19.5467C78.9688 20.4996 78.6269 21.452 78.285 22.4049C78.096 22.9272 77.4213 23.1632 76.7543 22.9349C76.1082 22.7136 75.721 22.1133 75.892 21.5846ZM79.9967 17.6353C80.7141 17.8928 81.4282 18.1589 82.1389 18.4338C83.2041 18.8468 83.9895 18.8538 84.6348 18.444C85.1774 18.1059 85.4146 17.6042 85.428 17.5721C85.7653 16.773 85.5906 16.0939 84.8749 15.4484C84.3121 14.9387 83.598 14.6627 83.598 14.6627C82.8565 14.3757 82.1113 14.0978 81.3629 13.8293C80.9076 15.0979 80.452 16.3667 79.9967 17.6353Z" fill="#F83B4D"/>
<path d="M86.5674 25.8618C88.0268 22.8149 89.4862 19.7679 90.9455 16.721C91.1846 16.2199 91.951 16.0846 92.6512 16.4324C93.8091 17.0075 94.9562 17.6056 96.0922 18.226C96.2186 18.2943 97.3514 18.9334 98.2721 20.0149C99.5723 21.5603 99.7754 23.1751 98.9096 24.5546C98.8557 24.6446 98.3335 25.4215 97.3146 25.8939C95.847 26.5617 94.0508 26.3462 92.2058 25.3384C91.5495 24.9799 90.8887 24.6296 90.2244 24.2877C89.7611 25.1878 89.2978 26.0874 88.8345 26.9875C88.5786 27.4806 87.8786 27.6266 87.2476 27.3134C86.6352 27.0092 86.3287 26.3634 86.5674 25.8618ZM91.154 22.4821C91.8333 22.8318 92.5086 23.1898 93.1796 23.5564C94.1848 24.106 94.9635 24.2164 95.6583 23.8954C96.2387 23.6304 96.5432 23.1652 96.56 23.1349C96.9982 22.387 96.9132 21.69 96.2854 20.9552C95.7915 20.3751 95.1178 20.0074 95.1184 20.008C94.4182 19.6256 93.7137 19.2515 93.0049 18.8868C92.388 20.0851 91.7712 21.2838 91.154 22.4821Z" fill="#F83B4D"/>
<path d="M111.453 29.8906C111.32 30.0508 111.111 30.1476 110.869 30.1728C108.647 30.4022 106.461 30.7117 104.318 31.0973C103.365 32.364 102.412 33.6307 101.459 34.8973C101.124 35.3403 100.406 35.3633 99.8317 34.945C99.2757 34.5393 99.0777 33.8469 99.3971 33.3927C100.313 32.0989 101.229 30.8052 102.144 29.5114C101.861 27.3545 101.496 25.1837 101.049 23.004C100.99 22.7816 101.002 22.5833 101.113 22.4078C101.391 21.9681 102.135 21.7987 102.874 22.2827C103.265 22.5386 103.546 22.9137 103.614 23.2937C103.948 25.0725 104.228 26.8449 104.455 28.6078C106.209 28.2905 107.992 28.0234 109.799 27.8082C110.183 27.7578 110.628 27.9124 110.991 28.2072C111.202 28.3779 111.388 28.6204 111.502 28.871C111.683 29.2692 111.652 29.6508 111.453 29.8906Z" fill="#F83B4D"/>
<path d="M47.2629 28.6207C47.2795 30.9606 45.2904 32.4551 43.5931 32.5802C42.3532 32.6652 41.1119 32.782 39.8702 32.9313C39.2871 33.0012 38.7525 32.6186 38.6769 32.0684C38.2248 28.7204 37.7725 25.3727 37.3202 22.0246C37.2446 21.4745 37.7363 20.9509 38.4207 20.8692C39.5639 20.7317 40.707 20.6178 41.8494 20.5272C41.9555 20.5181 42.8779 20.4806 43.8091 20.7944C45.1977 21.2741 45.9327 22.2661 45.9732 23.6C45.996 24.3289 45.7936 24.9945 45.4163 25.5302C46.601 26.1441 47.2415 27.2506 47.2629 28.6207ZM40.1537 25.2671C40.7387 25.2054 41.3234 25.1505 41.9081 25.102C42.2098 25.0723 43.6735 24.9192 43.6041 23.7099C43.5363 22.5474 42.5721 22.5059 42.1758 22.5386C42.0731 22.5469 42.0099 22.5517 42.0099 22.5517C41.303 22.6077 40.5961 22.6729 39.8889 22.7474C39.9774 23.5874 40.0655 24.4273 40.1537 25.2671ZM45.0222 28.6915C44.9951 28.0524 44.4937 26.9355 43.0756 27.0314C42.1723 27.0949 41.2682 27.1739 40.364 27.2691C40.4873 28.4428 40.6108 29.6168 40.7341 30.7905C41.5972 30.6996 42.4606 30.6238 43.3232 30.5632C43.3428 30.5614 43.8463 30.5096 44.2844 30.2585C44.9962 29.8373 45.0449 29.1604 45.0222 28.6915Z" fill="#F83B4D"/>
<path d="M48.7832 31.4052C48.7939 28.0269 48.8041 24.6486 48.8148 21.2703C48.8148 20.715 49.3668 20.2643 50.0453 20.2761C50.723 20.2876 51.2598 20.7576 51.2402 21.3126C51.132 24.6893 51.0237 28.066 50.9157 31.4427C50.8961 31.9976 50.4106 32.4331 49.8318 32.4229C49.2527 32.4125 48.7832 31.9609 48.7832 31.4052Z" fill="#F83B4D"/>
<path d="M60.5182 31.8339C60.5988 32.0231 60.6254 32.2032 60.5943 32.3913C60.5404 32.7169 60.307 33.0122 59.9578 33.1502C59.7807 33.2271 59.5779 33.2488 59.3997 33.222C59.0449 33.1684 58.73 32.9481 58.5738 32.6295C57.9658 31.3424 57.3181 30.0626 56.6299 28.7916C56.012 28.7263 55.3924 28.6684 54.7718 28.618C54.6898 29.6269 54.6084 30.6361 54.5264 31.645C54.4803 32.1986 53.9593 32.6083 53.3837 32.5703C52.8084 32.532 52.3628 32.0579 52.3898 31.503C52.5651 28.1292 52.7406 24.7552 52.9159 21.3815C52.9432 20.8273 53.5137 20.4028 54.1887 20.4481C55.3035 20.5221 56.4153 20.618 57.5236 20.7357C57.6466 20.7483 58.7584 20.8841 59.8359 21.5037C61.3631 22.3949 62.0207 23.7817 61.7516 25.3882C61.7364 25.4921 61.5566 26.4105 60.8904 27.253C60.3743 27.8923 59.7236 28.3366 58.9779 28.5856C59.5192 29.6633 60.0323 30.7465 60.5182 31.8339ZM54.9361 26.594C55.5859 26.6468 56.2352 26.7074 56.8826 26.7762C57.8521 26.8794 58.506 26.6685 58.9583 26.0964C59.3383 25.6213 59.4361 25.0749 59.4401 25.0403C59.5572 24.1815 59.2726 23.5791 58.5406 23.1578C57.9641 22.8248 57.3084 22.7548 57.3092 22.7551C56.6286 22.6827 55.9463 22.619 55.263 22.5635C55.1539 23.9071 55.0452 25.2504 54.9361 26.594Z" fill="#F83B4D"/>
<path d="M71.3941 23.3819C72.0396 23.5617 72.4507 24.155 72.2928 24.6875C72.1304 25.2366 71.475 25.5123 70.8482 25.3378C70.0888 25.1259 69.3259 24.9246 68.5597 24.7341C67.8271 27.6815 67.0945 30.6289 66.3619 33.5763C66.2268 34.1152 65.6491 34.4357 65.0922 34.306C64.5362 34.1763 64.175 33.6363 64.2918 33.0932C64.9392 30.1259 65.5866 27.1584 66.234 24.1912C65.4561 24.0213 64.675 23.8627 63.8914 23.7153C63.2497 23.5942 62.803 23.0596 62.9 22.4955C62.9932 21.948 63.6077 21.5956 64.2671 21.7197C66.6684 22.1718 69.0464 22.7265 71.3941 23.3819Z" fill="#F83B4D"/>
<path d="M83.4275 28.8468C82.0244 31.9201 80.6214 34.9932 79.2185 38.0666C78.9865 38.5711 78.3758 38.7874 77.8358 38.5505C77.3133 38.3209 77.0587 37.7246 77.2744 37.2125C77.801 35.9657 78.3273 34.7185 78.8538 33.4717C77.3138 32.8216 75.7531 32.2211 74.1748 31.6715C73.7297 32.9497 73.2846 34.2279 72.8395 35.5061C72.6554 36.03 72.0517 36.2969 71.5098 36.1173C70.9669 35.937 70.6601 35.3676 70.8265 34.8375C71.8456 31.6165 72.8647 28.3955 73.8838 25.1745C74.0497 24.6447 74.7035 24.3768 75.3389 24.5879C75.9742 24.7986 76.3571 25.4114 76.1728 25.935C75.7274 27.2135 75.2823 28.492 74.837 29.7705C76.4563 30.3346 78.0574 30.9503 79.6371 31.6173C80.1637 30.3702 80.6902 29.1228 81.2168 27.8757C81.4314 27.3636 82.1072 27.1578 82.7204 27.4271C83.3536 27.705 83.6599 28.3425 83.4275 28.8468Z" fill="#F83B4D"/>
<path d="M81.0318 40.0635C80.5203 39.8081 80.296 39.2014 80.5355 38.6998C81.9989 35.6548 83.462 32.6099 84.9257 29.5649C85.1644 29.0638 85.8505 28.891 86.4502 29.19C87.5105 29.7182 88.5604 30.2689 89.5991 30.8418C89.7001 30.8201 95.0394 34.014 91.6204 39.1355C88.2603 44.1508 83.8241 41.4665 83.7308 41.4791C82.8406 40.9882 81.9405 40.5163 81.0318 40.0635ZM82.9073 38.7378C83.513 39.0505 84.1143 39.3718 84.7116 39.7012C84.762 39.7285 85.4916 40.1117 86.4657 40.0967C87.7179 40.0846 88.8118 39.356 89.6923 37.9192C90.5906 36.456 90.7079 35.1167 89.9568 33.9361C89.4193 33.0812 88.6344 32.6286 88.618 32.6198C87.9562 32.2548 87.2897 31.899 86.6187 31.5525C85.3815 33.9476 84.1446 36.3427 82.9073 38.7378Z" fill="#F83B4D"/>
<path d="M97.802 49.7126C97.7637 49.8407 97.6852 49.9562 97.604 50.047C97.2567 50.4353 96.6224 50.5194 96.1422 50.1046C95.8268 49.8318 95.6797 49.3897 95.8091 48.9773C96.0093 48.3218 96.2036 47.6634 96.3912 47.0015C95.0816 45.9254 93.7393 44.8964 92.3668 43.9156C91.7775 44.2696 91.1934 44.6287 90.6137 44.9928C90.2504 45.2257 89.7862 45.1994 89.4446 44.9676C88.9379 44.6241 88.854 43.9684 89.13 43.5466C89.2056 43.4308 89.2873 43.3389 89.4006 43.2679C92.4464 41.2362 95.6339 39.347 98.9522 37.614C99.3313 37.4211 99.8598 37.4902 100.262 37.7992C100.647 38.0939 100.852 38.5865 100.764 39.0032C99.9536 42.6596 98.9637 46.2343 97.802 49.7126ZM96.9657 44.8752C97.3331 43.5158 97.6747 42.1435 97.9909 40.76C96.7307 41.4195 95.49 42.102 94.2686 42.8067C95.1813 43.4753 96.0806 44.1648 96.9657 44.8752Z" fill="#F83B4D"/>
<path d="M111.061 49.1745C110.905 49.3136 110.694 49.3894 110.466 49.3961C108.372 49.4583 106.309 49.6032 104.281 49.8278C103.157 50.9455 102.032 52.0632 100.908 53.1809C100.513 53.5713 99.858 53.5507 99.4277 53.1305C99.0099 52.7227 98.9767 52.0699 99.3572 51.6658C100.448 50.5157 101.538 49.3653 102.629 48.2151C102.808 46.1847 102.913 44.1254 102.94 42.0425C102.932 41.8289 102.981 41.6427 103.117 41.4851C103.454 41.0888 104.159 40.981 104.733 41.4867C105.035 41.7528 105.216 42.1247 105.203 42.4865C105.154 44.1809 105.055 45.8586 104.907 47.5176C106.566 47.3346 108.249 47.2038 109.953 47.1272C110.317 47.1066 110.696 47.2821 110.972 47.5814C111.132 47.7545 111.254 47.9917 111.309 48.2318C111.398 48.615 111.294 48.9663 111.061 49.1745Z" fill="#F83B4D"/>
<path d="M62.2883 112.744L29.5268 107.479C28.4961 107.324 27.6979 106.515 27.5538 105.484L27.155 102.78L21.957 67.7242L62.1329 62.4155L62.1663 73.8642L62.2883 112.744Z" fill="#509DFF"/>
<path d="M62.2974 112.756L29.5359 107.492C28.5052 107.337 27.707 106.528 27.5629 105.497L27.1641 102.793C28.7158 105.32 32.5614 106.04 34.9332 104.267L55.8469 107.625C57.0994 107.824 58.2297 106.86 58.2187 105.597L58.1301 77.6897C58.6952 77.1911 59.3711 76.7698 59.9587 76.3264C60.8452 75.6503 61.5991 74.819 62.1754 73.877L62.2974 112.756Z" fill="#308CEF"/>
<path d="M26.4013 97.6505L27.5609 105.478C27.713 106.505 28.5125 107.314 29.5368 107.479L62.2978 112.744L62.1438 62.4072L21.9668 67.7181L22.8765 73.8599" stroke="black" stroke-width="0.831264" stroke-linecap="round" stroke-linejoin="round"/>
<path d="M58.2128 105.573C58.2238 106.836 57.0935 107.8 55.841 107.601L34.9273 104.243L32.8659 103.91C31.9791 103.766 31.292 103.068 31.1591 102.181L28.5211 84.4263L28.3439 83.2181L27.9782 80.7577L26.8698 73.2435C26.7035 72.1129 27.4905 71.0601 28.6322 70.916L35.9801 69.9518L40.646 69.3311L41.5438 69.2091L55.7855 67.325C57.0156 67.1587 58.102 68.112 58.102 69.3533L58.1242 77.6657L58.2128 105.573Z" fill="#FFCD3B"/>
<path d="M35.6144 73.3054C34.8717 74.5024 33.5643 75.2784 32.201 75.6108C31.3145 75.8214 30.2283 75.9768 29.8735 76.819C29.4744 77.7832 30.3834 78.9134 30.0176 79.8888C29.7518 80.5759 28.9202 80.8864 28.1888 80.7978C28.1223 80.7866 28.0447 80.7753 27.9782 80.7644L26.8698 73.2502C26.7035 72.1197 27.4905 71.0668 28.6322 70.9227L35.9801 69.9585C36.4013 71.0335 36.235 72.3191 35.6144 73.3054Z" fill="#FCB910"/>
<path d="M41.9766 71.9193C41.6664 72.9168 40.7355 73.6149 39.7823 73.5706C39.5829 73.5484 39.3832 73.515 39.1838 73.4707C38.8845 73.3931 38.6184 73.3378 38.4412 73.4376C38.1974 73.5706 38.1638 74.0249 38.2415 74.3797C38.2636 74.5017 38.297 74.6343 38.3304 74.7563C38.4412 75.1554 38.5631 75.61 38.4633 76.0865C38.2861 76.9955 37.3771 77.638 36.0029 77.8374L35.7146 77.8817C34.961 77.9925 34.1743 78.0923 33.7531 78.6022C33.4648 78.9458 33.3431 79.4668 33.3762 80.1983C33.3874 80.3755 33.3983 80.5528 33.4205 80.7191C33.4648 81.2289 33.5094 81.7497 33.4095 82.2818C33.2101 83.4675 32.29 84.4873 31.1263 84.8087C30.8493 84.8973 30.561 84.9306 30.2839 84.9306C29.6632 84.9306 29.0535 84.7534 28.5327 84.432L28.3555 83.2238C28.3998 83.235 28.4444 83.2681 28.4775 83.3124C29.065 83.9662 30.0623 84.2545 30.9045 84.0108C31.7467 83.778 32.4451 83.0022 32.5892 82.1379C32.6669 81.7166 32.6335 81.2623 32.5892 80.7967C32.578 80.6083 32.5561 80.431 32.5449 80.2426C32.5006 79.2893 32.689 78.5688 33.1103 78.0702C33.7421 77.3166 34.7282 77.1837 35.6038 77.0617L35.8809 77.0174C36.2466 76.9618 37.4879 76.7181 37.6542 75.9202C37.7097 75.6322 37.6208 75.3105 37.5322 74.967C37.4991 74.834 37.4548 74.6899 37.4326 74.5569C37.2997 73.9251 37.3771 73.0717 38.0533 72.7059C38.4967 72.462 38.962 72.5621 39.361 72.6507C39.5161 72.695 39.6715 72.7284 39.8266 72.7393C40.3696 72.7615 40.9793 72.3071 41.1787 71.6753C41.3559 71.0989 41.2451 70.3675 40.8794 69.6804C40.813 69.5584 40.7462 69.4476 40.6576 69.3368L41.5553 69.2148C41.5665 69.237 41.5887 69.2704 41.5999 69.2925C42.0876 70.179 42.2205 71.1101 41.9766 71.9193Z" fill="#FCB910"/>
<path d="M86.6344 96.1634C86.6344 96.9835 86.2128 97.7483 85.5148 98.1916L68.4469 108.887L62.296 112.744L62.1406 62.4155L84.4841 65.8957C85.6368 66.0729 86.4899 67.0702 86.5011 68.2341L86.5345 74.8065L86.6344 96.1634Z" fill="#308CEF"/>
<path d="M86.6364 96.1547C86.6364 96.9748 86.2149 97.7396 85.5168 98.183L68.4489 108.878L68.2274 108.634C67.3408 107.57 67.7728 105.875 68.726 104.877C69.6681 103.88 70.9982 103.359 72.2283 102.716C73.4141 102.084 74.6223 101.242 75.0545 99.9672L81.8372 95.7113C82.3028 95.423 82.5799 94.9134 82.5799 94.3593L82.5022 79.7187C84.1314 78.3445 85.4947 76.6598 86.5365 74.7979L86.6364 96.1547Z" fill="#1C7DC6"/>
<path d="M82.604 100.011L62.2947 112.744L62.1406 62.4072L84.4865 65.8933C85.6405 66.0732 86.4931 67.0643 86.4987 68.2322L86.5839 85.7854" stroke="black" stroke-width="0.831264" stroke-linecap="round" stroke-linejoin="round"/>
<path d="M82.5768 94.3598C82.5768 94.914 82.2998 95.4236 81.8342 95.7119L75.0514 99.9678L68.7342 103.924C67.6814 104.578 66.3181 103.825 66.3069 102.584L66.2516 82.6119L66.2404 81.3372L66.2295 77.7353L66.207 68.9908C66.207 68.0156 67.0717 67.2727 68.0359 67.4169L73.6772 68.2924L76.9134 68.8023L77.944 68.9686L81.1249 69.4673C81.8897 69.578 82.4549 70.2433 82.4549 71.019L82.4992 79.7192L82.5768 94.3598Z" fill="#FCB910"/>
<path d="M73.6772 68.2924C73.7106 68.9131 73.655 69.5449 73.4887 70.1434C73.1564 71.307 72.347 72.3711 71.2277 72.8254C70.7734 73.0139 70.2859 73.0916 69.8425 73.28C69.3882 73.4573 68.9445 73.7675 68.7894 74.233C68.468 75.1863 69.4768 76.2167 69.1885 77.1921C68.9891 77.8683 68.18 78.2228 67.4707 78.1563C67.0274 78.112 66.6173 77.9459 66.2295 77.7353L66.207 68.9908C66.207 68.0156 67.0717 67.2727 68.0359 67.4169L73.6772 68.2924Z" fill="#EFA707"/>
<path d="M82.5788 94.371C82.5788 94.9252 82.3018 95.4348 81.8362 95.7231L75.0534 99.979C75.0644 99.9568 75.0756 99.9235 75.0868 99.8904C75.6188 98.2057 74.6543 96.3216 75.1976 94.6481C75.9845 92.2654 79.4201 91.4341 79.93 88.9846C80.3178 87.167 78.8659 85.3494 79.2095 83.5208C79.4975 81.9469 80.9828 80.9496 82.2353 79.952C82.3239 79.8746 82.4125 79.8079 82.5012 79.7305L82.5788 94.371Z" fill="#EFA707"/>
<path d="M46.5736 86.9547C46.5736 90.7536 43.9674 93.8331 40.7526 93.8331C37.5378 93.8331 34.9316 90.7536 34.9316 86.9547C34.9316 83.1559 37.5378 80.0767 40.7526 80.0767C43.9674 80.0767 46.5736 83.1559 46.5736 86.9547Z" fill="#FCB910"/>
<path d="M43.1403 86.9559C43.1403 88.5159 42.0702 89.7807 40.7499 89.7807C39.4296 89.7807 38.3594 88.5159 38.3594 86.9559C38.3594 85.3959 39.4296 84.1313 40.7499 84.1313C42.0702 84.1313 43.1403 85.3959 43.1403 86.9559Z" fill="#EFA707"/>
<path d="M40.3359 85.6228H40.2363L34.1959 86.1326L33.7637 79.8928C33.6751 78.7514 32.7221 77.9092 31.5804 77.8979L24.875 77.9866C24.1324 77.9975 23.5339 78.6072 23.5451 79.3608C23.5563 80.1034 24.1326 80.6574 24.9084 80.6907L31.1039 80.6021L31.4584 85.8C31.4584 85.8112 31.4584 85.8112 31.4584 85.8222L31.5027 86.4097L31.5361 86.875C31.5582 87.1409 31.6247 87.3849 31.7245 87.6177C31.8575 87.9057 32.0459 88.1606 32.2896 88.3712C32.6775 88.7036 33.1652 88.8811 33.6751 88.8811C33.7415 88.8811 33.808 88.8811 33.8745 88.8699L40.4691 88.3048C41.2117 88.2492 41.7656 87.5955 41.6992 86.8529C41.6327 86.1436 41.0451 85.6116 40.3359 85.6228Z" fill="#F4EDED"/>
<path d="M41.6897 86.865C41.7562 87.6077 41.2023 88.2614 40.4596 88.3169L33.865 88.882C33.7986 88.8933 33.7321 88.8933 33.6656 88.8933C33.1558 88.8933 32.6681 88.7157 32.2802 88.3834C32.0365 88.1728 31.848 87.9178 31.7151 87.6298L31.6152 86.7654C31.6817 86.9318 31.7813 87.0756 31.9033 87.1976C32.2802 87.5967 32.8787 87.7852 33.4329 87.6632C33.8762 87.5746 34.3084 87.2975 34.7518 87.3861C35.2617 87.4969 35.6162 88.062 36.1261 88.0398C36.6581 88.0177 36.9683 87.4083 37.4781 87.2863C37.8882 87.1864 38.3094 87.4192 38.7306 87.4857C39.185 87.5521 39.6396 87.4083 40.0718 87.2753C40.4263 87.1533 40.8363 86.9649 40.8584 86.5991C40.8697 86.3885 40.7367 86.2001 40.6147 86.0228C40.5149 85.8899 40.4263 85.7679 40.3264 85.6349C41.0357 85.6237 41.6232 86.1557 41.6897 86.865Z" fill="#D8D6D6"/>
<path d="M25.8388 81.8169C25.7389 82.4818 25.2846 82.9474 24.7747 82.9808L15.2544 83.5793L11.597 83.812L11.1758 77.3285L23.1234 76.5637L24.2427 76.4972C24.7857 76.4641 25.2955 76.9404 25.484 77.6387C25.8831 79.1792 26.0382 80.5978 25.8388 81.8169Z" fill="#FA778D"/>
<path d="M25.8363 81.8169C25.7365 82.4818 25.2821 82.9474 24.7723 82.9808L15.252 83.5793C15.13 83.0251 15.662 82.4821 16.2162 82.338C16.8037 82.1829 17.4132 82.3046 18.0117 82.3268C18.6102 82.3489 19.2861 82.2269 19.6296 81.7283C20.0287 81.1631 19.8736 80.2766 20.4166 79.8554C20.9598 79.4232 21.7686 79.7889 22.4448 79.6226C23.0876 79.4785 23.531 78.8466 23.5975 78.1929C23.6418 77.6165 23.4424 77.0402 23.121 76.5637L24.2403 76.4972C24.7832 76.4641 25.2931 76.9404 25.4816 77.6387C25.8806 79.1792 26.0357 80.5978 25.8363 81.8169Z" fill="#EF6280"/>
<path d="M12.4159 80.5099C12.5301 82.3008 12.1628 83.7821 11.5953 83.8184C11.0278 83.8547 10.4749 82.4321 10.3607 80.6412C10.2464 78.8503 10.6137 77.369 11.1813 77.3327C11.7488 77.2964 12.3016 78.719 12.4159 80.5099Z" fill="#EF6280"/>
<path d="M58.225 105.577C58.2359 106.84 57.1057 107.804 55.8532 107.605L34.9395 104.247C34.9507 104.236 34.9726 104.225 34.9838 104.214C35.8703 103.538 36.5686 102.562 37.5993 102.119C38.9957 101.532 40.5805 102.086 42.0215 102.529C43.4734 102.961 45.2024 103.25 46.366 102.285C48.0173 100.922 47.6076 97.7855 49.5581 96.8878C50.6996 96.3779 52.1627 96.9323 53.2155 96.2562C54.357 95.5135 54.2796 93.8179 53.8583 92.5211C53.4371 91.2243 52.8052 89.8391 53.2929 88.5644C54.0687 86.5031 57.2942 86.0485 57.7263 83.8873C58.0256 82.4023 56.7619 80.9507 57.0168 79.4654C57.1388 78.734 57.5822 78.1686 58.1364 77.6699L58.225 105.577Z" fill="#FCB910"/>
<path d="M31.4875 85.6431L31.6204 86.7626C31.5649 86.6519 31.5206 86.5411 31.4984 86.4191C31.4429 86.2306 31.4319 86.0312 31.4541 85.8315C31.4541 85.8206 31.4541 85.8206 31.4541 85.8094C31.4653 85.7538 31.4762 85.6986 31.4875 85.6431Z" fill="#D8D6D6"/>
<path d="M77.2887 72.661C76.9451 72.8716 76.5685 72.9824 76.1915 73.0822C75.7038 73.2152 75.2829 73.3259 75.1165 73.6473C74.9393 73.9909 75.1163 74.4786 75.2826 74.9442C75.7148 76.1855 75.4155 76.7952 75.0832 77.1053C74.5845 77.5818 73.9527 77.4932 73.3876 77.4267C73.0662 77.3824 72.7557 77.3381 72.5008 77.4046C72.0131 77.5266 71.7253 78.1139 71.6698 78.5904C71.6033 79.0781 71.6917 79.577 71.7915 80.0978L71.858 80.5078C71.9687 81.1728 72.0464 82.0259 71.6473 82.7686C71.1818 83.6663 70.1957 84.0654 69.2315 84.0654C68.8103 84.0654 68.4 83.9877 68.0343 83.8548C67.3471 83.5777 66.7711 83.1345 66.2612 82.6025L66.25 81.3279C66.8373 82.0705 67.5025 82.7576 68.3447 83.079C69.2203 83.4226 70.4725 83.2229 70.9159 82.3807C71.193 81.8599 71.1265 81.1728 71.0379 80.6407L70.9714 80.2417C70.8716 79.6875 70.772 79.1002 70.8385 78.5017C70.9271 77.7148 71.4148 76.8283 72.3014 76.5955C72.7004 76.4956 73.1217 76.5512 73.4983 76.5955C73.997 76.6619 74.3187 76.6841 74.5181 76.5069C74.7951 76.2298 74.6401 75.631 74.5181 75.2987C74.2965 74.6559 74.0304 73.9356 74.3739 73.2707C74.7063 72.6279 75.3824 72.4392 75.9697 72.2841C76.3023 72.1954 76.6125 72.1068 76.8565 71.9627C77.4659 71.5748 77.5991 70.7214 77.4662 70.0786C77.3664 69.6242 77.1667 69.203 76.923 68.793L77.9536 68.9593C78.0978 69.2585 78.2198 69.5799 78.2862 69.9123C78.4747 70.8543 78.2529 72.0625 77.2887 72.661Z" fill="#EFA707"/>
<path d="M51.9627 98.6775C51.2713 98.6775 50.6405 99.0104 50.192 99.5499C49.7361 100.089 49.455 100.827 49.455 101.645C49.455 100.008 48.3381 98.6775 46.9551 98.6775C47.6465 98.6775 48.2695 98.3446 48.7255 97.8142C49.1737 97.2747 49.455 96.5374 49.455 95.7192C49.455 96.5374 49.7361 97.2747 50.192 97.8142C50.6405 98.3446 51.2713 98.6775 51.9627 98.6775Z" fill="white"/>
<path d="M85.0835 71.7512C84.3921 71.7512 83.7616 72.0841 83.3131 72.6236C82.8572 73.1631 82.5761 73.9004 82.5761 74.7186C82.5761 73.082 81.4592 71.7512 80.0762 71.7512C80.7676 71.7512 81.3906 71.4186 81.8465 70.8882C82.2947 70.3487 82.5761 69.6112 82.5761 68.793C82.5761 69.6112 82.8572 70.3487 83.3131 70.8882C83.7616 71.4186 84.3921 71.7512 85.0835 71.7512Z" fill="white"/>
<path d="M47.4432 95.7279C47.1114 95.7279 46.809 95.8873 46.5938 96.1462C46.3752 96.4052 46.2404 96.7586 46.2404 97.1513C46.2404 96.3662 45.7044 95.7279 45.041 95.7279C45.3728 95.7279 45.6718 95.568 45.8904 95.3136C46.1056 95.0547 46.2404 94.7013 46.2404 94.3086C46.2404 94.7013 46.3752 95.0547 46.5938 95.3136C46.809 95.568 47.1114 95.7279 47.4432 95.7279Z" fill="white"/>
<path d="M33.5064 99.9625C33.0107 97.1588 32.6402 94.3329 32.3965 91.4961" stroke="white" stroke-width="0.554176" stroke-linecap="round" stroke-linejoin="round"/>
</g>
</svg>
