<svg width="109" height="116" viewBox="0 0 109 116" fill="none" xmlns="http://www.w3.org/2000/svg">
<path d="M104.904 24.6493L81.8359 12.8649L58.7677 1.08005C57.5069 0.435729 56.172 0.136492 54.8678 0.121757C54.8154 0.120526 54.763 0.120117 54.7102 0.120117C54.6578 0.120117 54.6054 0.120526 54.553 0.121757C53.2484 0.136492 51.9139 0.435729 50.6527 1.08005L27.5853 12.8649L4.51708 24.6493C-0.836424 27.3842 -0.836424 34.222 4.51708 36.9569L27.5853 48.7413L50.6527 60.5257C51.9139 61.17 53.2488 61.4689 54.553 61.484C54.6054 61.4852 54.6578 61.4856 54.7102 61.4861C54.763 61.4856 54.8154 61.4852 54.8674 61.484C56.172 61.4689 57.5069 61.17 58.7681 60.5257L81.8359 48.7413L104.904 36.9569C110.257 34.222 110.257 27.3842 104.904 24.6493Z" fill="#2004A6"/>
<path d="M88.9517 62.526C88.9517 56.73 73.6223 52.0298 54.7102 52.0298C35.7978 52.0298 20.4688 56.73 20.4688 62.526C20.4688 62.625 20.4794 62.7229 20.4884 62.8211C20.4794 62.9194 20.4688 63.0176 20.4688 63.1167C20.4688 68.9127 35.7978 73.6133 54.7102 73.6133C73.6223 73.6133 88.9517 68.9127 88.9517 63.1167C88.9517 63.0176 88.9406 62.9194 88.9316 62.8211C88.9406 62.7229 88.9517 62.625 88.9517 62.526Z" fill="#2004A6"/>
<path d="M88.9513 27.6852C88.9513 31.1855 73.6206 34.0232 54.7094 34.0232C35.7986 34.0232 20.4688 31.1855 20.4688 27.6852C20.4688 24.1848 35.7986 21.3472 54.7094 21.3472C73.6206 21.3472 88.9513 24.1848 88.9513 27.6852Z" fill="#1C3DE7"/>
<path d="M88.9517 27.6772V62.2519H88.8363C87.4113 56.855 72.6754 52.6129 54.7102 52.6129C36.7446 52.6129 22.0087 56.855 20.5838 62.2519H20.4688V27.6772H88.9517Z" fill="#1C3DE7"/>
<path d="M99.0957 22.6694V60.6123" stroke="#1C3DE7" stroke-width="3.95843" stroke-linecap="round" stroke-linejoin="round"/>
<path d="M99.0951 70.8924C96.2403 70.8924 93.9258 68.5779 93.9258 65.7231V52.7139H104.264V65.7231C104.264 68.5779 101.95 70.8924 99.0951 70.8924Z" fill="#ED9D04"/>
<path d="M20.306 81.2139L20.3109 81.3604C20.0231 81.3142 19.7313 81.2888 19.4353 81.2888C14.9394 81.2888 11.2949 86.7896 11.2949 93.5759C11.2949 100.362 14.9394 105.863 19.4353 105.863C20.1774 105.863 20.8954 105.709 21.5787 105.429C56.5365 95.5084 88.222 105.863 88.222 105.863V81.2139C52.5793 92.3855 20.306 81.2139 20.306 81.2139Z" fill="#1C3DE7"/>
<path d="M95.9365 93.6824C95.9365 100.406 92.6019 105.857 88.4888 105.857C84.3756 105.857 81.041 100.406 81.041 93.6824C81.041 86.9588 84.3756 81.5083 88.4888 81.5083C92.6019 81.5083 95.9365 86.9588 95.9365 93.6824Z" fill="#2004A6"/>
<path d="M53.9037 101.132H46.7127L46.6517 100.91C45.3434 96.1275 45.3295 91.083 46.612 86.2936L46.7127 85.917H53.9037L53.7658 86.4426C52.5078 91.2427 52.5492 96.2912 53.8865 101.07L53.9037 101.132Z" fill="#ED9D04"/>
<path d="M43.4805 115.064C46.368 110.606 47.6297 105.498 47.7803 100.285C47.8302 99.1141 47.775 97.9482 47.7529 96.7767L52.4715 96.5417C52.853 100.903 54.0831 105.249 56.5638 108.917C57.4128 110.194 58.4754 111.354 59.69 112.538C58.8639 112.387 58.0227 112.17 57.2388 111.816C51.4198 109.276 48.229 102.81 47.7492 96.7104C47.6653 93.5854 52.1673 93.305 52.4662 96.423C52.7814 101.887 51.4571 107.694 47.7566 111.856C46.5707 113.18 45.1383 114.399 43.4805 115.064Z" fill="#ED9D04"/>
</svg>
