<svg width="84" height="105" viewBox="0 0 84 105" fill="none" xmlns="http://www.w3.org/2000/svg">
<path d="M1.92921 40.9566C1.75785 40.0463 1.82047 38.7424 2.33593 37.9773C9.19033 27.8093 20.0775 16.2411 27.1487 6.06192C28.1583 4.60856 30.1073 4.18553 31.6275 5.07067C43.5662 12.0234 54.3165 18.5321 66.4411 25.519C67.2146 25.9651 67.9221 28.3699 68.1747 29.2355" stroke="black" stroke-width="2.75617" stroke-linecap="round" stroke-linejoin="round"/>
<path d="M1.84375 39.5005C8.69815 29.3325 20.0781 16.2411 27.1493 6.06192C28.1589 4.60856 30.1078 4.18553 31.628 5.07067C43.5668 12.0234 54.3171 18.5321 66.4417 25.519" fill="white"/>
<path d="M1.84375 39.5005C8.69815 29.3325 20.0781 16.2411 27.1493 6.06192C28.1589 4.60856 30.1078 4.18553 31.628 5.07067C43.5668 12.0234 54.3171 18.5321 66.4417 25.519" stroke="black" stroke-width="2.75617" stroke-linecap="round" stroke-linejoin="round"/>
<path d="M50.688 51.7183C54.3695 38.4424 58.1061 24.7861 63.4824 12.1014C64.229 10.339 63.3579 8.29454 61.5763 7.65169C53.5142 4.74454 45.4755 2.11798 37.1574 0.0909986C35.4818 -0.317328 33.7663 0.685695 33.2536 2.3546C28.3383 18.3687 24.1607 34.616 20.7393 51.0258C20.3409 52.9377 21.6552 54.8118 23.571 55.0191C30.3724 55.7555 37.3163 57.1284 43.9692 58.7575C45.7872 59.2029 47.6052 58.0407 47.9617 56.1784C48.3236 54.2862 50.2944 53.138 50.688 51.7183Z" fill="#2ABFFF"/>
<path d="M35.2739 27.666C32.966 28.7249 32.6611 32.6665 35.1404 33.7442C36.4052 34.2942 38.0423 33.6974 38.6719 32.4557C38.9582 31.8917 39.0504 31.237 39.3786 30.6974C39.9842 29.7028 41.346 29.3279 42.427 29.7342C43.5081 30.1404 44.2719 31.2104 44.4852 32.3593C44.6985 33.5082 44.4116 34.7137 43.8577 35.739" stroke="black" stroke-width="2.75617" stroke-linecap="round" stroke-linejoin="round"/>
<path d="M31.6797 30.4128C31.9928 30.4903 32.3066 30.5671 32.6197 30.6446" stroke="black" stroke-width="2.75617" stroke-linecap="round" stroke-linejoin="round"/>
<path d="M45.2168 33.0623C45.5044 33.123 45.7928 33.183 46.0804 33.2437" stroke="black" stroke-width="2.75617" stroke-linecap="round" stroke-linejoin="round"/>
<path d="M33.4531 14.5979C34.2369 12.3001 34.8796 11.0583 35.6634 8.76051C36.5428 9.50388 38.0058 9.45642 38.6313 9.12905C39.649 8.59718 40.3839 6.19468 39.5541 5.39478C45.0522 7.39802 50.9784 10.1125 56.6238 11.7724C55.7065 12.2233 55.134 13.5732 55.1567 14.6069C55.1794 15.6407 55.8386 16.6325 56.7752 17.0408C54.1327 25.7888 51.4896 34.5361 48.8472 43.2841" stroke="black" stroke-width="2.75617" stroke-linecap="round" stroke-linejoin="round"/>
<path d="M35.631 3.9457C35.5842 4.2612 36.0494 4.48665 36.2772 4.26608C36.5049 4.04551 36.3432 3.58484 36.0322 3.53668C35.7211 3.48852 35.4321 3.8403 35.5113 4.14882C35.5904 4.45733 35.9764 4.62974 36.2655 4.5041" stroke="black" stroke-width="2.75617" stroke-linecap="round" stroke-linejoin="round"/>
<path d="M60.153 11.8787C59.7622 12.16 59.7711 12.8497 60.1696 13.1205C60.4689 13.02 60.6705 12.6821 60.6189 12.3666C60.5673 12.0512 60.268 11.7971 59.9528 11.8006C59.8475 12.1545 60.0292 12.5719 60.3574 12.7317" stroke="black" stroke-width="2.75617" stroke-linecap="round" stroke-linejoin="round"/>
<path d="M42.2307 62.5318C35.8063 64.9713 29.2848 67.7712 23.2475 71.0295C21.5367 71.9461 19.4223 71.1273 18.6957 69.3263C15.4188 61.1562 12.3519 52.9204 9.49505 44.6029C9.04325 43.3259 8.60729 42.0321 8.17133 40.755C6.05695 34.4837 4.07067 28.1803 2.1822 21.844C1.69803 20.1736 2.56995 18.3559 4.18431 17.7502C12.1907 14.705 20.3101 12.3144 28.6071 10.1369C29.4949 9.90773 30.2373 10.0062 30.8668 10.3171C33.5142 11.7087 34.0632 17.2262 34.6603 19.5351C35.9193 24.5944 37.1948 29.6543 38.4538 34.7136C39.1804 37.6114 39.8904 40.5098 40.6005 43.4076C41.2624 46.0434 41.9235 48.6967 42.5696 51.3325C42.699 51.8404 42.812 52.3469 42.9408 52.8548C43.1343 53.6407 43.3285 54.4266 43.5221 55.2125C43.7962 56.2604 44.1681 57.5703 44.2487 58.7985C44.3616 60.4031 43.9739 61.8765 42.2307 62.5318Z" fill="#2ABFFF"/>
<path d="M18.8328 41.0534C17.2122 43.0311 18.6393 46.7134 21.3356 46.5828C22.7117 46.5164 23.9266 45.2527 23.9576 43.8555C23.9713 43.2211 23.773 42.5903 23.8357 41.9588C23.9514 40.7942 25.0155 39.8532 26.1636 39.7386C27.3117 39.6241 28.4611 40.2479 29.1492 41.1875C29.8372 42.1271 30.0982 43.3392 30.0424 44.508" stroke="black" stroke-width="2.75829" stroke-linecap="round" stroke-linejoin="round"/>
<path d="M16.7812 45.1227C17.0967 45.0528 17.4121 44.9837 17.7276 44.9138" stroke="black" stroke-width="2.75829" stroke-linecap="round" stroke-linejoin="round"/>
<path d="M30.1094 41.496C30.3943 41.4228 30.6785 41.3502 30.9634 41.2769" stroke="black" stroke-width="2.75829" stroke-linecap="round" stroke-linejoin="round"/>
<path d="M15.7574 50.7285C12.9426 42.6702 10.5217 34.4707 8.50586 26.17C9.5107 26.0254 10.3909 25.2171 10.6313 24.2167C10.8716 23.2163 10.4584 22.0874 9.63192 21.4901C14.9296 19.8372 20.4944 18.8871 25.5621 16.5852C25.602 17.7372 25.8128 18.9716 26.6165 19.7862C27.4202 20.6008 28.9795 20.7006 29.5842 19.7247C31.5271 30.6438 34.6794 41.4085 38.1361 51.9399" stroke="black" stroke-width="2.75829" stroke-linecap="round" stroke-linejoin="round"/>
<path d="M43.7202 56.5847C41.5611 47.8257 39.4026 39.0667 37.2435 30.3077C36.145 25.8513 35.2338 21.2915 33.9376 16.8911C33.0333 13.8214 31.9148 10.8831 28.3672 10.3375C25.8809 9.95538 23.3898 10.8154 21.0179 11.6628C16.9303 13.1228 12.8434 14.5815 8.75586 16.0416" stroke="black" stroke-width="2.75829" stroke-linecap="round" stroke-linejoin="round"/>
<path d="M5.45071 21.3516C5.09808 21.5199 5.00166 22.0676 5.27508 22.3492C5.54851 22.6307 6.09053 22.5406 6.26133 22.185C6.43214 21.8294 6.16767 21.3411 5.78061 21.2964C5.5003 21.5269 5.57881 22.0607 5.91353 22.1976" stroke="black" stroke-width="2.75829" stroke-linecap="round" stroke-linejoin="round"/>
<path d="M29.344 14.6032C29.322 14.9204 29.4756 15.2438 29.7345 15.4234C30.1753 15.0301 29.8488 14.1317 29.2621 14.1233C28.8757 14.4614 29.2559 15.2515 29.7559 15.1509" stroke="black" stroke-width="2.75829" stroke-linecap="round" stroke-linejoin="round"/>
<path d="M57.7571 34.1292C56.6443 35.7982 55.4826 37.4505 54.257 39.0379C50.805 43.5697 46.9181 47.742 42.5632 51.3413C41.7732 51.9793 40.9666 52.6173 40.1442 53.2225C38.1278 54.7115 35.8698 56.1181 33.4501 56.4943C32.9182 56.576 32.3855 56.6088 31.8535 56.5928C30.4827 56.5439 29.16 56.1181 27.8854 55.5785C27.3211 55.3495 26.7884 55.0877 26.24 54.842C24.3853 53.9911 22.5141 53.1241 20.6917 52.2082C18.4985 51.0955 16.3692 49.9012 14.337 48.5267C12.6275 47.3651 10.982 46.073 9.51411 44.6168C9.06266 43.3408 8.62703 42.048 8.19141 40.7719C8.32079 40.8536 8.46531 40.9353 8.64286 41.0169C10.4817 41.8679 12.3846 42.5883 14.3205 43.1935C16.853 43.9627 19.4337 44.5184 22.0626 44.8458C23.4658 45.0419 24.8849 45.1564 26.3046 45.2053C28.6273 45.287 30.9658 45.1892 33.2726 44.9275C35.7563 44.6329 38.2083 44.1261 40.5957 43.4224C45.7729 41.9174 50.6928 39.4958 55.0477 36.289C55.9671 35.6021 56.8859 34.8817 57.7571 34.1292Z" fill="black"/>
<path d="M79.7519 61.2107C79.7038 60.9908 79.6515 60.773 79.5985 60.5601C78.1746 54.8102 77.1396 49.2048 75.1156 43.5847C73.0249 37.7803 70.5639 32.1127 68.116 26.4563C67.9515 26.0717 67.7795 25.6759 67.4808 25.3862C66.4602 24.3977 65.2724 26.124 64.5339 26.7712C63.4961 27.6807 62.4515 28.5833 61.402 29.4789C53.6116 36.1245 43.99 43.6594 35.6484 49.5747C35.4901 49.6871 35.2926 49.7276 35.1034 49.6871C23.7241 47.2474 12.5747 43.7061 1.8554 39.1282C0.0495865 38.3569 1.64482 43.5588 1.76732 44.236C1.8967 44.9508 2.02332 45.6663 2.14789 46.3825C2.53672 48.6219 2.90421 50.8654 3.26758 53.109C4.6997 61.9465 6.96868 70.4977 9.04977 79.2165C9.27413 80.1568 9.55147 81.1802 10.3298 81.7393C11.1563 82.3334 12.2719 82.2105 13.2739 82.0625C20.173 81.044 26.8554 79.5048 33.6857 78.4144C38.8809 77.5851 44.0334 76.4829 49.1164 75.1119C53.4059 73.9552 57.6341 73.7416 61.8906 72.5151C67.0658 71.0241 72.5569 69.117 77.3901 66.6228C78.1698 66.2207 78.9702 65.7712 79.4588 65.0347C80.1855 63.9394 80.041 62.5314 79.7519 61.2107Z" fill="#FC5D75"/>
<path d="M12.7227 81.0043C18.2179 71.683 23.272 63.2463 28.7672 53.925" stroke="black" stroke-width="2.75617" stroke-linecap="round" stroke-linejoin="round"/>
<path d="M44.6387 49.8538C54.5067 55.9325 64.919 61.1037 75.7044 65.2823" stroke="black" stroke-width="2.75617" stroke-linecap="round" stroke-linejoin="round"/>
<path d="M69.6278 22.0826C70.4096 21.6218 70.9285 20.7918 71.1996 19.9172C71.4708 19.0425 71.5217 18.1148 71.5616 17.1982C71.6236 15.7651 71.5843 14.1323 70.53 13.1767C69.7269 12.4486 68.4014 12.3697 67.5584 13.0496C66.7154 13.7296 66.5089 15.1145 67.1654 15.9808C67.7139 16.704 68.6726 16.9644 69.57 17.0314C73.2725 17.3071 77.0018 14.7676 78.1511 11.1865" stroke="black" stroke-width="2.75617" stroke-linecap="round" stroke-linejoin="round"/>
<path d="M74.3926 24.1204C75.5804 23.2031 76.7689 22.2852 77.9567 21.3679" stroke="black" stroke-width="2.75617" stroke-linecap="round" stroke-linejoin="round"/>
<path d="M76.5234 27.2261C77.7347 26.87 78.9954 26.6879 80.2569 26.6851" stroke="black" stroke-width="2.75617" stroke-linecap="round" stroke-linejoin="round"/>
<path d="M25.4556 104.703C25.1254 104.761 24.8146 104.699 24.5224 104.517C24.2391 104.322 24.0654 104.063 24.0027 103.739C23.7312 102.403 23.3983 100.853 23.0013 99.0918L22.4858 96.7715L21.9537 94.4533C21.3327 91.7045 20.831 89.3457 20.4471 87.3785C20.2886 86.562 20.148 85.8132 20.026 85.1323C19.9722 84.8059 20.0377 84.5101 20.2211 84.2431C20.423 83.9634 20.6883 83.795 21.0192 83.7369C21.6815 83.6307 22.6774 83.5055 24.0062 83.3636L25.5121 83.2056C26.0648 83.1392 26.559 83.0721 26.9946 83.0057C27.3764 82.9386 27.7003 83.0078 27.9643 83.2161C28.2048 83.4077 28.3551 83.6614 28.4164 83.976C28.4798 84.3004 28.435 84.5891 28.2806 84.8394C28.1097 85.1135 27.8333 85.2847 27.4515 85.3518C26.9029 85.4385 26.2358 85.5245 25.4521 85.6119L24.45 85.7273L23.4452 85.8279C23.2074 85.8699 23.0399 85.9957 22.942 86.2061C22.9041 86.2844 22.8766 86.3655 22.8607 86.4494L22.8469 86.5438L22.8407 86.5906L23.0564 87.6973C23.1957 88.4153 23.3438 89.1472 23.4996 89.8924L23.5299 89.9644L23.5775 90.0469C23.6223 90.1098 23.676 90.1672 23.7388 90.2175C23.9269 90.3566 24.1799 90.3993 24.5003 90.3426L27.721 89.7757C28.1028 89.7086 28.4267 89.7785 28.6907 89.9868C28.9285 90.1686 29.0794 90.4167 29.1408 90.7313C29.2035 91.0564 29.1573 91.3444 29.0043 91.5947C28.8348 91.8792 28.5598 92.0547 28.1779 92.1218L24.9573 92.6888C24.7099 92.7321 24.5121 92.8685 24.3646 93.0978C24.3074 93.1893 24.2839 93.29 24.295 93.4005L24.3115 93.5647L24.3584 93.7248L24.4604 94.1646L24.6451 95.0328L25.368 98.1711L26.0455 101.318L26.06 101.392C26.0738 101.461 26.0952 101.518 26.1255 101.564C26.1634 101.648 26.2041 101.718 26.2468 101.771C26.3826 101.92 26.568 101.974 26.8057 101.932C28.1056 101.592 29.3344 101.156 30.4916 100.627C30.6095 100.575 30.7253 100.54 30.839 100.52C31.0561 100.482 31.2739 100.505 31.4923 100.589C31.7728 100.712 31.9893 100.918 32.1423 101.207C32.1953 101.32 32.2339 101.435 32.2574 101.553C32.2918 101.73 32.2884 101.903 32.247 102.073C32.1574 102.384 31.9362 102.621 31.5847 102.785C29.6501 103.655 27.6073 104.294 25.4556 104.703Z" fill="black"/>
<path d="M37.049 101.394C36.6431 99.7072 36.1193 97.4086 35.477 94.5011L33.9552 88.426C33.5761 86.7132 33.2281 85.1822 32.9083 83.8357L32.8986 83.791C32.8249 83.4589 32.8897 83.1653 33.0902 82.9101C33.2749 82.6787 33.532 82.5305 33.8608 82.4648C34.2005 82.3963 34.5079 82.4327 34.785 82.5711C35.0896 82.7354 35.2812 82.9933 35.3591 83.3457C35.6782 84.6921 36.0325 86.2224 36.4212 87.9338L37.4212 91.7201L37.9271 94.011C38.5701 96.9185 39.0946 99.2171 39.4992 100.905L39.5088 100.949C39.5826 101.282 39.5185 101.575 39.3179 101.83C39.1332 102.062 38.8754 102.21 38.5467 102.275C38.2083 102.343 37.905 102.307 37.6376 102.165C37.3233 102.004 37.1269 101.747 37.049 101.394Z" fill="black"/>
<path d="M48.2437 82.7843C50.2596 84.3342 51.5285 86.1497 52.0481 88.233C52.1405 88.6028 52.208 88.9789 52.2487 89.3599C52.5761 92.0521 52.219 94.4255 51.1783 96.4809C49.9998 98.8032 48.1389 100.252 45.5951 100.826L45.4883 100.851C45.2022 100.915 44.9369 100.894 44.6936 100.784C44.3442 100.637 44.1257 100.388 44.0382 100.037C44.0161 99.9497 44.0037 99.8547 43.9996 99.7526C43.9899 99.6729 43.9941 99.559 44.012 99.4107L44.0209 99.2542L44.0264 99.0836C44.0306 98.9696 44.0127 98.8347 43.9741 98.6788L43.9231 98.474L43.8872 98.267L43.6791 97.1723C43.5399 96.4837 43.3882 95.7678 43.2235 95.0233C43.0712 94.3689 42.8899 93.6237 42.6811 92.7862C42.3165 91.3265 41.8637 89.5983 41.322 87.6017L40.304 83.9147L40.0745 82.9947L39.8326 82.0929L39.6962 81.7377L39.5742 81.3798L39.5452 81.2631C39.4894 81.0394 39.4928 80.838 39.5563 80.6591C39.6831 80.2599 39.9257 80.0208 40.2827 79.9397C40.415 79.9096 40.5652 79.9019 40.73 79.9159C43.5219 80.118 46.0258 81.075 48.2437 82.7843ZM49.7269 89.4361L49.6828 89.2614C49.3382 87.8793 48.6434 86.6321 47.6 85.5205C46.571 84.4258 45.3125 83.5959 43.8218 83.0276L43.8025 83.0164L43.4985 82.8996C43.3813 82.8647 43.2725 82.8584 43.1705 82.8815L43.1243 82.8912C42.9809 82.9234 42.8831 83.0283 42.83 83.2051C42.7852 83.3282 42.7914 83.5016 42.8472 83.7253L43.5709 86.3692L44.2959 89.0125L44.9906 91.6627C45.2284 92.617 45.44 93.509 45.6268 94.3416C45.8246 95.2225 46.0024 96.0614 46.1589 96.8591L46.2271 97.1366L46.2877 97.2464C46.3346 97.3491 46.3932 97.4337 46.4642 97.4994C46.5979 97.6036 46.7467 97.6365 46.9101 97.5994C47.0328 97.5714 47.1623 97.512 47.3016 97.419C48.4119 96.5508 49.1852 95.3476 49.6214 93.8096C50.0253 92.3611 50.0605 90.9035 49.7269 89.4361Z" fill="black"/>
<path d="M58.971 96.5049C58.4741 94.8397 57.8262 92.5718 57.0254 89.6993L55.1307 82.8957C54.6593 81.2032 54.2272 79.6925 53.835 78.3628L53.8226 78.3195C53.7309 77.9909 53.7785 77.6938 53.9653 77.4296C54.1376 77.1898 54.3864 77.029 54.711 76.9472C55.046 76.8626 55.3554 76.8822 55.64 77.0073C55.9529 77.1562 56.1583 77.4051 56.2548 77.7532C56.647 79.0822 57.0839 80.5915 57.5657 82.2812L58.8152 86.826L59.4465 89.0883C60.2467 91.9608 60.8939 94.2301 61.3908 95.8953L61.4032 95.938C61.4949 96.2672 61.4473 96.5643 61.2605 96.8286C61.0882 97.0684 60.8394 97.2292 60.5148 97.311C60.1799 97.3949 59.8759 97.3739 59.6009 97.2467C59.2777 97.1005 59.0675 96.8531 58.971 96.5049Z" fill="black"/>
<path d="M72.8895 94.0001C68.1162 93.2944 63.7476 90.1845 61.4697 85.8719C60.4663 83.9725 59.8696 81.62 60.8131 79.6892C61.6864 77.9021 63.749 76.9172 65.7144 76.9772C67.6799 77.0372 69.5312 77.9985 71.0466 79.269C70.3425 77.0617 71.3225 74.1389 73.2378 72.8705C75.153 71.6021 77.7881 71.6587 79.7453 72.8593C81.7025 74.06 82.9564 76.2945 83.1574 78.6058C83.3659 81.0029 82.5325 83.3652 81.5429 85.5529C80.598 87.6408 79.4982 89.6568 78.2554 91.5772C77.6862 92.4567 77.0469 93.353 76.113 93.8117C74.8674 94.4239 74.259 94.2026 72.8895 94.0001Z" fill="#FFEA58"/>
<path d="M70.6179 78.8591C68.7928 77.7799 66.6519 77.1014 64.5653 77.4351C62.4787 77.7687 60.5022 79.2807 60.0253 81.368C59.4761 83.7728 60.9447 86.1769 62.6445 87.9437C65.2122 90.6124 68.4763 92.5851 72.0122 93.605C73.3218 93.9826 74.7822 94.2193 76.003 93.6078C76.8764 93.1708 77.5026 92.3575 78.0442 91.5366C79.466 89.3803 80.5162 86.9727 81.1342 84.4555" stroke="black" stroke-width="2.75617" stroke-linecap="round" stroke-linejoin="round"/>
</svg>
