<svg width="108" height="100" viewBox="0 0 108 100" fill="none" xmlns="http://www.w3.org/2000/svg">
<path d="M90.9395 7.61792V12.1687" stroke="black" stroke-width="0.839646" stroke-linecap="round" stroke-linejoin="round"/>
<path d="M18.831 76.9456C18.2541 76.9456 17.7105 77.2008 17.3553 77.678L10.3977 86.9549L8.03405 83.8032L3.45105 77.678C3.39571 77.6003 3.3288 77.5227 3.25115 77.4561C2.90724 77.1232 2.45235 76.9456 1.97516 76.9456C0.876497 76.9456 0.0664062 77.811 0.0664062 78.8097V97.6076C0.0664062 98.6286 0.909816 99.472 1.94184 99.472C2.99617 99.472 3.83931 98.6286 3.83931 97.6076V84.4357L8.88847 91.1937C9.24367 91.6819 9.82055 91.9705 10.3977 91.9705C10.9858 91.9705 11.5627 91.6819 11.9179 91.1937L13.6157 88.919L16.9668 84.4357V97.6076C16.9668 98.6286 17.8099 99.472 18.831 99.472C19.8963 99.472 20.7397 98.6286 20.7397 97.6076V78.8097C20.7397 77.811 19.9296 76.9456 18.831 76.9456Z" fill="#509DFF"/>
<path d="M8.03623 83.8059C7.41475 84.2055 6.6713 84.4384 5.87222 84.4384C3.67517 84.4384 1.88867 82.6522 1.88867 80.4549C1.88867 79.2565 2.42121 78.1799 3.25333 77.4587C3.33099 77.5254 3.39789 77.603 3.45323 77.6807L8.03623 83.8059Z" fill="#1C7DC6"/>
<path d="M20.4869 86.1586C20.4869 88.2004 18.9446 89.8872 16.9693 90.1091V84.4275L13.6182 88.9108C12.9414 88.2006 12.5195 87.224 12.5195 86.1586C12.5195 83.9616 14.3063 82.1748 16.5033 82.1748C18.7004 82.1748 20.4869 83.9616 20.4869 86.1586Z" fill="#1C7DC6"/>
<path d="M10.4043 86.9393L17.3576 77.6693C17.7115 77.187 18.2577 76.9302 18.837 76.9302C19.9325 76.9302 20.7372 77.7978 20.7372 78.7962V97.5933C20.7372 98.6231 19.8997 99.462 18.837 99.462C17.8072 99.462 16.971 98.6231 16.971 97.5933V95.6644" stroke="black" stroke-width="0.839646" stroke-linecap="round" stroke-linejoin="round"/>
<path d="M33.4647 84.4373C32.4326 84.4373 31.5892 85.2807 31.5892 86.346V93.6476C31.5892 93.7142 31.5562 94.2913 31.2343 94.8352C31.0124 95.2567 30.5575 95.7116 29.3368 95.7116C28.0829 95.7116 27.661 95.2567 27.4058 94.8352C27.1172 94.2913 27.0842 93.7142 27.0842 93.6476V86.346C27.0842 85.5249 26.5624 84.8258 25.8522 84.5595C25.6413 84.4819 25.4194 84.4373 25.1864 84.4373C24.1544 84.4373 23.3223 85.2807 23.3223 86.346V93.6476C23.3223 93.9028 23.3556 95.1568 24.0547 96.4774C25.0534 98.4082 26.9288 99.4735 29.3368 99.4735C29.6254 99.4735 29.9137 99.4625 30.1912 99.4292C32.1664 99.1962 33.7086 98.1752 34.6187 96.4774C34.6853 96.3441 34.7409 96.2221 34.7963 96.0889C35.3068 94.9125 35.3288 93.8805 35.3288 93.6476V86.346C35.3288 85.2807 34.4857 84.4373 33.4647 84.4373Z" fill="#509DFF"/>
<path d="M34.7992 96.0947C34.7438 96.2279 34.6882 96.3499 34.6216 96.4832C33.7115 98.181 32.1693 99.202 30.1942 99.435C30.0389 99.0911 29.9609 98.7136 29.9609 98.314C29.9609 96.6938 31.2705 95.3845 32.8907 95.3845C33.6119 95.3845 34.2887 95.6618 34.7992 96.0947Z" fill="#1C7DC6"/>
<path d="M27.0874 86.3402V90.1464H27.0428C25.4226 90.1464 24.1133 88.8368 24.1133 87.228C24.1133 86.0296 24.8234 84.9976 25.8554 84.5537C26.5656 84.82 27.0874 85.5191 27.0874 86.3402Z" fill="#1C7DC6"/>
<path d="M31.5907 86.3374C31.5907 85.2758 32.4282 84.4373 33.4581 84.4373C34.488 84.4373 35.3241 85.2758 35.3241 86.3374V93.6446C35.3241 93.9015 35.2927 95.1568 34.6164 96.4777C33.5865 98.4066 31.7192 99.4708 29.3381 99.4708C29.1873 99.4708 29.039 99.4668 28.8926 99.4585" stroke="black" stroke-width="0.839646" stroke-linecap="round" stroke-linejoin="round"/>
<path d="M44.9559 84.4182C43.8569 84.4182 42.8144 84.6977 41.9036 85.1732C41.8257 85.2082 41.7477 85.2512 41.6725 85.2968V78.7946C41.6725 77.7602 40.8288 76.9299 39.7729 76.9299C38.7411 76.9299 37.9082 77.7602 37.9082 78.7946V97.5919C37.9082 98.613 38.7411 99.4566 39.7729 99.4566C40.5064 99.4566 41.1271 99.0348 41.4495 98.4571C42.4705 99.0993 43.6688 99.4566 44.9559 99.4566C46.1112 99.4566 47.1967 99.1557 48.1505 98.6237C49.8486 97.6806 51.1598 96.0148 51.6811 94.0184C51.8692 93.3628 51.9686 92.6642 51.9686 91.9549C51.9686 87.8037 48.8169 84.4182 44.9559 84.4182ZM44.9559 95.695C43.1127 95.695 41.6725 94.0184 41.6725 91.9549C41.6725 91.6217 41.7047 91.2993 41.7827 91.0011C42.1051 89.5125 43.2148 88.3814 44.5904 88.2148C44.7114 88.204 44.8349 88.1933 44.9559 88.1933C46.7534 88.1933 48.2392 89.8672 48.2392 91.9549C48.2392 94.0184 46.7534 95.695 44.9559 95.695Z" fill="#509DFF"/>
<path d="M51.6866 94.0231C51.1651 96.0205 49.8555 97.685 48.1577 98.6281C47.6139 98.0956 47.2812 97.3521 47.2812 96.542C47.2812 94.9219 48.5903 93.6125 50.1995 93.6125C50.7433 93.6125 51.2538 93.7568 51.6866 94.0231Z" fill="#1C7DC6"/>
<path d="M44.5921 88.0842V88.2175C43.2162 88.3841 42.1065 89.5158 41.7846 91.0027H41.6736C40.0535 91.0027 38.7441 89.7044 38.7441 88.0842C38.7441 86.464 40.0535 85.166 41.6736 85.166C41.7513 85.166 41.8289 85.166 41.9066 85.177C43.4045 85.288 44.5921 86.5417 44.5921 88.0842Z" fill="#1C7DC6"/>
<path d="M49.4189 86.1506C50.9759 87.5336 51.9711 89.6229 51.9711 91.9548C51.9711 96.0748 48.817 99.4557 44.9552 99.4557C43.7595 99.4557 42.6471 99.1508 41.6699 98.5914M44.9552 88.1884C43.1206 88.1884 41.671 89.8633 41.671 91.9548C41.671 92.2122 41.6936 92.4637 41.7368 92.7066" stroke="black" stroke-width="0.839646" stroke-linecap="round" stroke-linejoin="round"/>
<path d="M67.0111 95.5284V90.4771C67.0111 90.1224 66.9224 86.7396 64.3484 85.2968C63.3489 84.7406 62.129 84.4531 60.8313 84.4531C60.5411 84.4531 60.2885 84.4531 59.9984 84.4854C58.2573 84.652 56.6801 85.329 55.3931 86.3823C54.9497 86.7396 54.716 87.2824 54.716 87.8359C54.716 88.0159 54.7402 88.1932 54.7939 88.3598C54.8611 88.5909 54.9712 88.8139 55.1378 89.0235C55.5274 89.4803 56.0379 89.7006 56.5914 89.7006C57.0025 89.7006 57.4243 89.5689 57.779 89.2787C58.1901 88.959 58.7893 88.6258 59.4664 88.4243H59.4771C59.9312 88.2819 60.4094 88.1932 60.8985 88.1932C61.4519 88.1932 62.0296 88.3142 62.5079 88.5802C62.8276 88.7682 63.0614 89.3137 63.15 89.8349C62.7067 89.7677 62.2849 89.7677 61.9302 89.7677C61.4519 89.7677 60.9979 89.8 60.5196 89.8C60.353 89.8 60.1757 89.8134 60.0198 89.8242C56.981 90.0337 55.5489 91.0655 54.8288 91.9656C54.7939 91.9978 54.7724 92.0193 54.7509 92.0543C54.2055 92.7636 53.918 93.6288 53.918 94.5289C53.918 94.8835 53.9502 95.2382 54.0496 95.5929C54.6273 98.0352 56.5242 99.4217 59.2541 99.4217C60.2536 99.4217 61.0301 99.2336 61.2854 99.2013C62.0968 99.0348 62.8276 98.7795 63.5047 98.4221C63.7949 99.0348 64.4371 99.4566 65.1813 99.4566C65.2807 99.4566 65.3801 99.4432 65.4796 99.4217H65.4903C66.3797 99.2658 67.046 98.4893 67.046 97.5919L67.0111 95.5284ZM62.8626 93.9861C62.5401 94.5611 61.8066 95.2731 60.6083 95.4935C60.576 95.4935 60.5411 95.4935 60.4874 95.5284C60.3208 95.5606 59.8425 95.66 59.2541 95.66C57.9133 95.66 57.779 95.1066 57.6796 94.717C57.6796 94.6605 57.6473 94.5961 57.6473 94.5611C57.6473 94.4402 57.7118 94.373 57.7468 94.3059C57.9671 94.0184 58.8108 93.6288 60.2885 93.5643C61.065 93.5294 61.5084 93.5294 61.9302 93.5294C62.4515 93.5294 62.7954 93.5643 63.0291 93.5965L62.8626 93.9861Z" fill="#509DFF"/>
<path d="M67.0445 97.5963C67.0445 98.4951 66.3787 99.2721 65.4909 99.4274H65.4796C64.0927 99.1945 63.0273 97.9959 63.0273 96.5423C63.0273 94.9221 64.3367 93.6128 65.9458 93.6128C66.3231 93.6128 66.6783 93.6792 67.0112 93.8124V95.5326L67.0445 97.5963Z" fill="#1C7DC6"/>
<path d="M55.1388 89.0278C54.9723 88.8171 54.8616 88.5949 54.7949 88.362C55.3275 87.6629 56.1709 87.219 57.114 87.219C58.0793 87.219 58.9451 87.6962 59.4666 88.4286C58.7898 88.6283 58.1903 88.9612 57.7798 89.283C57.4246 89.5716 57.003 89.7046 56.5924 89.7046C56.0376 89.7046 55.5271 89.4827 55.1388 89.0278Z" fill="#1C7DC6"/>
<path d="M60.0326 90.1375C60.0326 91.7577 58.7233 93.067 57.1141 93.067C56.1931 93.067 55.3609 92.6341 54.8281 91.9683C55.5495 91.0696 56.9811 90.0378 60.0216 89.8269C60.0216 89.9269 60.0326 90.0376 60.0326 90.1375Z" fill="#1C7DC6"/>
<path d="M54.7544 88.2024C54.7329 88.0848 54.7227 87.966 54.7227 87.847C54.7227 87.2991 54.9481 86.754 55.3976 86.4001C56.6857 85.3361 58.2621 84.6598 60.001 84.4999C60.2907 84.4685 60.5475 84.4685 60.8372 84.4685C62.1252 84.4685 63.348 84.7568 64.3465 85.3047C66.9216 86.754 67.0172 90.1322 67.0172 90.486V95.5392L67.05 97.5992M58.3464 93.9365C58.0399 94.0601 57.8408 94.1971 57.7473 94.3178C57.7158 94.3806 57.6516 94.4462 57.6516 94.5746C57.6516 94.6061 57.683 94.6716 57.683 94.7345C57.78 95.1225 57.9085 95.6703 59.2608 95.6703C59.8401 95.6703 60.3221 95.5733 60.4833 95.5392C60.5475 95.5078 60.5803 95.5078 60.6117 95.5078C61.8028 95.2823 62.5433 94.5749 62.8657 93.9956" stroke="black" stroke-width="0.839646" stroke-linecap="round" stroke-linejoin="round"/>
<path d="M75.2718 84.4373C74.617 84.4373 74.0179 84.5149 73.4963 84.6482C73.2188 84.7148 72.9635 84.7925 72.7306 84.8924C72.4087 84.6038 71.9871 84.4373 71.4989 84.4373C70.4779 84.4373 69.6348 85.2807 69.6348 86.346V97.6091C69.6348 98.6301 70.4779 99.4735 71.4989 99.4735C72.5643 99.4735 73.4077 98.6301 73.4077 97.6091V89.1425C73.4077 89.1425 73.4297 88.9539 73.5296 88.7873C73.8515 88.2991 74.6614 88.2102 75.2718 88.2102C76.3038 88.2102 77.136 87.367 77.136 86.346C77.136 85.2807 76.3038 84.4373 75.2718 84.4373Z" fill="#509DFF"/>
<path d="M73.9292 86.1684C73.9292 87.7886 72.6196 89.0982 70.9994 89.0982C70.5112 89.0982 70.0453 88.9759 69.6348 88.754V86.346C69.6348 85.2807 70.4779 84.4373 71.4989 84.4373C71.9871 84.4373 72.4087 84.6038 72.7306 84.8924C72.9635 84.7925 73.2188 84.7148 73.4963 84.6482C73.7739 85.092 73.9292 85.6136 73.9292 86.1684Z" fill="#1C7DC6"/>
<path d="M72.7246 84.8881C73.4337 84.5998 74.2706 84.4373 75.268 84.4373C76.2979 84.4373 77.1354 85.2758 77.1354 86.3374C77.1354 87.3673 76.2979 88.2034 75.268 88.2034C74.6559 88.2034 73.8515 88.3004 73.5304 88.7827C73.4334 88.9453 73.4006 89.1366 73.4006 89.1366V97.6021" stroke="black" stroke-width="0.839646" stroke-linecap="round" stroke-linejoin="round"/>
<path d="M91.7806 95.5281V90.4768C91.7806 90.1222 91.6919 86.7394 89.1179 85.2966C88.1211 84.7404 86.8878 84.4529 85.6008 84.4529C85.5014 84.4529 85.4127 84.4529 85.3241 84.4636C85.1467 84.4529 84.956 84.4636 84.7679 84.4851C83.0268 84.6517 81.4496 85.3288 80.1626 86.3821C80.1196 86.417 80.0739 86.46 80.0309 86.5164C79.6628 86.8496 79.4855 87.3386 79.4855 87.8356C79.4855 88.2575 79.6198 88.6686 79.9073 89.0232C80.2969 89.48 80.8074 89.7003 81.3502 89.7003C81.772 89.7003 82.1939 89.5687 82.5485 89.2785C83.2256 88.7357 84.4455 88.193 85.668 88.193C86.2107 88.193 86.7992 88.3139 87.2774 88.5799C87.5972 88.768 87.8202 89.3134 87.9196 89.8347C87.4762 89.7675 87.0544 89.7675 86.6997 89.7675C86.2107 89.7675 85.7674 89.7997 85.2784 89.7997C81.807 89.9233 80.2647 91.0894 79.5204 92.054C78.975 92.7634 78.6875 93.6285 78.6875 94.5286C78.6875 94.8833 78.7197 95.238 78.8084 95.5926C79.3968 98.035 81.2964 99.4214 84.0263 99.4214C85.0231 99.4214 85.7996 99.2333 86.0549 99.2011C86.5439 99.099 87.0114 98.9566 87.4548 98.7793H87.4655C87.7422 98.6772 88.019 98.5562 88.2742 98.4219C88.5644 99.0345 89.2066 99.4564 89.9508 99.4564C90.9826 99.4564 91.8155 98.5885 91.8155 97.5917L91.7806 95.5281ZM87.6321 93.9859C87.3097 94.5609 86.5654 95.2729 85.3778 95.4932C85.3456 95.4932 85.3133 95.4932 85.2461 95.5281C85.0903 95.5604 84.6013 95.6598 84.0263 95.6598C82.6721 95.6598 82.5485 95.1063 82.4491 94.7167C82.4491 94.6603 82.4169 94.5958 82.4169 94.5609C82.4169 94.44 82.4814 94.3728 82.5163 94.3056C82.7366 94.0181 83.5803 93.6285 85.0581 93.564C85.8346 93.5291 86.2779 93.5291 86.6997 93.5291C87.2102 93.5291 87.5649 93.564 87.7987 93.5963L87.6321 93.9859Z" fill="#509DFF"/>
<path d="M91.8155 97.597C91.8155 98.5957 90.9834 99.4614 89.9514 99.4614C89.2079 99.4614 88.5641 99.0396 88.2756 98.4294C88.0203 98.5626 87.7433 98.6846 87.4658 98.7846H87.4545C87.2879 98.4294 87.1992 98.0185 87.1992 97.597C87.1992 95.9768 88.5085 94.6675 90.1177 94.6675C90.7392 94.6675 91.305 94.8561 91.7822 95.189V95.5332L91.8155 97.597Z" fill="#1C7DC6"/>
<path d="M85.3425 84.8457C85.3425 86.4548 84.0332 87.7639 82.413 87.7639C81.4366 87.7639 80.5599 87.2757 80.0273 86.5322C80.0717 86.4766 80.116 86.4325 80.1603 86.3992C81.4476 85.3449 83.0235 84.6681 84.7656 84.5015C84.9543 84.4792 85.1429 84.4684 85.3205 84.4795C85.3315 84.6014 85.3425 84.7237 85.3425 84.8457Z" fill="#1C7DC6"/>
<path d="M88.0214 84.8303C88.4073 84.9555 88.7729 85.1122 89.1131 85.2986C91.6882 86.7479 91.7839 90.1261 91.7839 90.48V95.5332L91.8166 97.5932C91.8166 98.5917 90.9791 99.4619 89.9493 99.4619C89.2088 99.4619 88.5653 99.0425 88.2756 98.4318C87.5993 98.7856 86.8594 99.0425 86.0546 99.2024C85.7978 99.2365 85.0245 99.4278 84.0271 99.4278M87.7936 93.6043C87.5682 93.5702 87.2143 93.5387 86.6992 93.5387C86.2798 93.5387 85.8292 93.5387 85.0573 93.5702C83.5765 93.6357 82.739 94.0208 82.5136 94.3117C82.4822 94.3746 82.418 94.4402 82.418 94.5686C82.418 94.6 82.4494 94.6656 82.4494 94.7285C82.462 94.7795 82.4755 94.8333 82.4921 94.8881" stroke="black" stroke-width="0.839646" stroke-linecap="round" stroke-linejoin="round"/>
<path d="M101.739 91.97L106.056 87.6646C106.411 87.2984 106.6 86.8212 106.6 86.344C106.6 85.8558 106.411 85.3783 106.056 84.9901C105.667 84.6349 105.224 84.4686 104.735 84.4686C104.258 84.4686 103.77 84.6349 103.415 84.9901L98.1662 90.2279V78.8092C98.1662 78.5763 98.1216 78.3546 98.0329 78.1437C97.7666 77.4446 97.0673 76.9451 96.2684 76.9451C95.2364 76.9451 94.4043 77.7772 94.4043 78.8092V97.6071C94.4043 98.6281 95.2364 99.4715 96.2684 99.4715C97.3005 99.4715 98.1662 98.6281 98.1662 97.6071V93.6789L103.415 98.9277C103.77 99.2829 104.258 99.4715 104.735 99.4715C105.224 99.4715 105.701 99.2829 106.056 98.9277C106.411 98.5725 106.6 98.0843 106.6 97.6071C106.6 97.1189 106.477 96.675 106.056 96.2534L101.739 91.97Z" fill="#509DFF"/>
<path d="M98.1706 78.8086V83.9021C96.7724 83.6802 95.707 82.4705 95.707 81.0169C95.707 79.5967 96.7057 78.4206 98.0374 78.1431C98.126 78.354 98.1706 78.5757 98.1706 78.8086Z" fill="#1C7DC6"/>
<path d="M101.924 94.2168C101.924 95.1046 101.536 95.8926 100.914 96.4252L98.1625 93.673V97.0243C96.9529 96.6691 96.0762 95.5484 96.0762 94.2168C96.0762 92.6077 97.3855 91.2983 98.9946 91.2983C100.615 91.2983 101.924 92.6077 101.924 94.2168Z" fill="#1C7DC6"/>
<path d="M94.9004 77.528C95.2416 77.1602 95.7293 76.9299 96.2699 76.9299C97.2998 76.9299 98.1687 77.7661 98.1687 78.796V90.2229L103.416 84.976C103.769 84.6222 104.253 84.4623 104.735 84.4623C105.219 84.4623 105.668 84.6222 106.055 84.976C106.409 85.364 106.603 85.846 106.603 86.3283C106.603 86.8106 106.409 87.2929 106.055 87.6495L101.742 91.9608L106.055 96.2431C106.473 96.6599 106.603 97.1107 106.603 97.593C106.603 98.078 106.409 98.56 106.055 98.9139C105.701 99.2677 105.219 99.4617 104.735 99.4617C104.253 99.4617 103.769 99.2677 103.416 98.9139L102.956 98.4542" stroke="black" stroke-width="0.839646" stroke-linecap="round" stroke-linejoin="round"/>
<path d="M28.0525 65.4661H8.65521V52.5162H23.7581C26.1217 52.5162 28.0525 50.5964 28.0525 48.2218C28.0525 45.8581 26.1217 43.9384 23.7581 43.9384H8.65521V30.9885H28.0525C30.4828 30.9885 32.4136 29.0577 32.4136 26.6164C32.4136 24.2528 30.4828 22.333 28.0525 22.333H4.37207C1.93078 22.333 0 24.2528 0 26.6164V69.8272C0 72.2018 1.93078 74.1216 4.37207 74.1216H28.0525C30.4828 74.1216 32.4136 72.2018 32.4136 69.8272C32.4136 67.3859 30.4828 65.4661 28.0525 65.4661Z" fill="#FF7A43"/>
<path d="M23.4044 22.9101C23.4044 26.4278 20.5636 29.2796 17.046 29.2796C13.5283 29.2796 10.6875 26.4278 10.6875 22.9101C10.6875 22.7105 10.6988 22.5216 10.7208 22.333H23.3711C23.3934 22.5216 23.4044 22.7105 23.4044 22.9101Z" fill="#EA552D"/>
<path d="M14.3217 47.3109C14.3217 49.4636 13.2451 51.3723 11.6029 52.5153H8.65108V53.625C8.41812 53.6583 8.18517 53.6693 7.95222 53.6693C4.44559 53.6693 1.59375 50.8175 1.59375 47.3109C1.59375 43.7932 4.44559 40.9524 7.95222 40.9524C8.18517 40.9524 8.41812 40.9637 8.65108 40.997V43.9375H13.345C13.9665 44.9139 14.3217 46.0679 14.3217 47.3109Z" fill="#EA552D"/>
<path d="M32.4122 69.8357C32.4122 72.2103 30.4814 74.1301 28.0511 74.1301H23.6124C22.4251 72.9871 21.6816 71.3669 21.6816 69.5804C21.6816 68.0046 22.2475 66.5733 23.1909 65.4746H28.0511C30.4814 65.4746 32.4122 67.3944 32.4122 69.8357Z" fill="#EA552D"/>
<path d="M8.66016 52.5247V65.4716H28.0473M8.66016 30.9927V43.9396H23.7547" stroke="black" stroke-width="0.839646" stroke-linecap="round" stroke-linejoin="round"/>
<path d="M44.6841 42.6584C44.1293 40.8829 42.4427 39.5623 40.5119 39.5623C38.1483 39.5623 36.2285 41.5597 36.2285 43.9344V69.8231C36.2285 72.1978 38.1483 74.1176 40.5119 74.1176C42.8866 74.1176 44.884 72.1978 44.884 69.8231V43.9344C44.884 43.4905 44.8174 43.0689 44.6841 42.6584ZM40.5119 24.5483C38.1483 24.5483 36.2285 26.4681 36.2285 28.8428C36.2285 30.3076 36.9274 31.5949 37.9927 32.3827C38.7029 32.9042 39.5686 33.2038 40.5119 33.2038C42.6313 33.2038 44.4511 31.6726 44.8174 29.6085C44.8617 29.3646 44.884 29.109 44.884 28.8428C44.884 26.4681 42.8866 24.5483 40.5119 24.5483Z" fill="#FF7A43"/>
<path d="M44.883 43.9356V52.4358C44.6055 52.4911 44.3172 52.5134 44.0286 52.5134C41.2877 52.5134 39.0684 50.3051 39.0684 47.5642C39.0684 44.8233 41.2877 42.615 44.0286 42.615C44.2505 42.615 44.4722 42.6263 44.6831 42.6596C44.8164 43.0701 44.883 43.4917 44.883 43.9356Z" fill="#EA552D"/>
<path d="M41.3884 63.0561C41.3884 65.2644 39.6019 67.0399 37.3935 67.0399C36.994 67.0399 36.5947 66.9843 36.2285 66.8733V59.2389C36.5947 59.1279 36.994 59.0723 37.3935 59.0723C39.6019 59.0723 41.3884 60.859 41.3884 63.0561Z" fill="#EA552D"/>
<path d="M44.8188 29.6182C44.4526 31.6823 42.6327 33.2135 40.5133 33.2135C39.57 33.2135 38.7043 32.9139 37.9941 32.3924C38.0052 30.2064 39.7919 28.4309 41.978 28.4309C43.0876 28.4309 44.0863 28.8858 44.8188 29.6182Z" fill="#EA552D"/>
<path d="M41.3864 33.1159C41.1051 33.1731 40.8152 33.2032 40.5191 33.2032C38.1514 33.2032 36.2266 31.2813 36.2266 28.8413C36.2266 28.7008 36.2333 28.5616 36.2464 28.4243M39.0738 39.8242C39.5255 39.6568 40.0121 39.5651 40.5191 39.5651C42.8868 39.5651 44.8839 41.5653 44.8839 43.9329V69.8268C44.8839 70.0015 44.8732 70.174 44.8519 70.3432" stroke="black" stroke-width="0.839646" stroke-linecap="round" stroke-linejoin="round"/>
<path d="M105.133 38.2273V73.2614C105.133 73.8162 104.69 74.2601 104.146 74.2601H76.5371V38.2273H105.133Z" fill="#FF7A43"/>
<path d="M87.1457 40.5243C87.1457 41.1568 86.9124 41.8116 86.4242 42.2221C85.936 42.6217 85.1595 42.6993 84.66 42.2998C84.3715 42.0668 84.1939 41.7116 83.9499 41.4341C83.7057 41.1455 83.2951 40.9238 82.9512 41.0902C82.6183 41.2455 82.5406 41.6896 82.5517 42.0668C82.5627 42.433 82.607 42.8436 82.4074 43.1542C82.1078 43.6091 81.4197 43.5981 80.9315 43.3428C80.4543 43.0876 80.0883 42.666 79.6222 42.3774C78.6678 41.8003 77.3472 41.9448 76.5371 42.6993V38.2273H86.4355C86.5132 38.3826 86.5908 38.5379 86.6685 38.6932C86.9348 39.2701 87.1457 39.8808 87.1457 40.5243Z" fill="#EA552D"/>
<path d="M87.5672 37.6108C87.7892 37.7995 88.0001 38.0104 88.1777 38.2323C89.4094 39.6083 90.0639 41.5057 89.8976 43.3478C89.8422 44.0359 89.6536 44.7574 89.2097 45.2899C88.7659 45.8337 88.0111 46.1553 87.3453 45.9334C86.7018 45.7338 86.1693 45.068 85.5145 45.2123C84.7044 45.3786 84.5934 46.5882 83.861 47.0098C83.3618 47.2873 82.7182 47.1097 82.2521 46.7658C81.7859 46.4329 81.4307 45.9557 80.9868 45.5895C79.7662 44.5575 77.8797 44.4798 76.5371 45.3119" stroke="#EA552D" stroke-width="0.839646" stroke-linecap="round" stroke-linejoin="round"/>
<path d="M95.212 63.2122C95.212 63.4232 95.201 63.6228 95.201 63.8337C95.1344 67.2847 95.0121 70.7357 94.8568 74.198H87.3443C87.2887 73.1217 87.2444 72.0453 87.2001 70.969V70.9577C87.1001 68.3721 87.0337 65.7978 86.9894 63.2122C86.9451 61.3591 86.9338 59.4727 87.3666 57.6639C88.0101 55.0116 89.564 52.6926 91.1062 50.4399C92.6265 52.6926 94.2023 55.0116 94.8348 57.6639C95.2676 59.4727 95.2453 61.3591 95.212 63.2122Z" fill="#1D2856"/>
<path d="M95.2021 63.8374C95.1355 67.2884 95.0132 70.7394 94.8579 74.2017H87.3455C87.2898 73.1254 87.2455 72.049 87.2012 70.9726C87.4674 71.7715 88.6107 72.149 89.4428 72.0047C90.2862 71.8604 90.9408 71.039 90.9074 70.1846C90.8741 69.6187 90.6081 68.9639 90.9854 68.5424C91.4848 67.9765 92.5386 68.498 93.1268 68.0209C93.5373 67.688 93.5043 67.0665 93.371 66.556C93.2378 66.0455 93.0491 65.5019 93.2711 65.0247C93.593 64.3366 94.514 64.2592 95.1688 63.8597C95.1798 63.8487 95.1911 63.8484 95.2021 63.8374Z" fill="#0B183D"/>
<path d="M95.2247 62.3228C95.2147 61.1462 95.1341 59.9595 94.8324 58.813C94.1988 56.3593 92.63 54.2071 91.1014 52.1154C89.5629 54.2071 88.0042 56.3593 87.3707 58.813C87.0789 59.899 86.9883 61.0154 86.9784 62.1315C86.9582 60.6129 87.0088 59.0843 87.3707 57.5961C88.0042 54.9412 89.5629 52.6184 91.1014 50.3657C92.63 52.6184 94.1988 54.9412 94.8324 57.5961C95.2045 59.1448 95.2448 60.744 95.2247 62.3228Z" fill="#EA552D"/>
<path d="M104.653 65.6483C104.653 65.8923 104.653 66.1478 104.642 66.3917C104.631 68.9773 104.608 71.5516 104.575 74.1262H99.5593C99.5372 73.4381 99.5152 72.7392 99.4929 72.0511C99.4153 69.5545 99.3263 67.0686 99.2487 64.5606C99.16 62.086 99.0821 59.6004 99.4373 57.1481C99.6925 55.306 100.225 53.4752 101.113 51.844C101.412 51.3112 101.735 50.8119 102.123 50.3237C103.421 52.5984 104.043 55.2173 104.375 57.8139C104.697 60.3995 104.675 63.0404 104.653 65.6483Z" fill="#1D2856"/>
<path d="M104.643 66.3901C104.632 68.9757 104.61 71.55 104.576 74.1245H99.5605C99.5385 73.4364 99.5164 72.7376 99.4941 72.0495C99.6607 72.1938 99.8824 72.2711 100.093 72.2491C100.449 72.2048 100.759 71.9052 100.803 71.55C100.848 71.2724 100.737 70.9951 100.681 70.7289C100.615 70.4513 100.615 70.1294 100.814 69.9298C101.003 69.7522 101.303 69.7302 101.492 69.5526C101.702 69.3306 101.669 68.9867 101.58 68.6871C101.503 68.3986 101.38 68.099 101.48 67.8104C101.636 67.3442 102.213 67.2222 102.635 66.9893C103.101 66.7117 103.422 66.2348 103.611 65.7243C103.8 65.2138 103.866 64.67 103.922 64.1375C104.166 64.8919 104.41 65.6356 104.643 66.3901Z" fill="#0B183D"/>
<path d="M104.657 65.6499C104.627 68.4756 104.607 71.3017 104.577 74.1275H103.118C103.128 70.5373 103.159 66.9573 103.189 63.3671C103.199 61.3458 103.219 59.3046 102.937 57.2932C102.666 55.3925 102.133 53.4819 101.117 51.8426C101.409 51.3095 101.741 50.8065 102.123 50.324C103.42 52.5968 104.043 55.2117 104.375 57.8061C104.697 60.4005 104.677 63.0353 104.657 65.6499Z" fill="#EA552D"/>
<path d="M83.0951 64.5609C83.0618 65.6039 83.0287 66.636 82.9954 67.668C82.9288 69.8207 82.8511 71.9737 82.7845 74.1264H77.7689C77.7689 73.7159 77.7576 73.3163 77.7576 72.9058C77.7353 70.4978 77.7243 68.0675 77.691 65.6485C77.6687 63.0407 77.6467 60.3997 77.9686 57.8142C78.3015 55.2176 78.9229 52.5987 80.2212 50.324C80.6097 50.8122 80.9424 51.3114 81.2309 51.8442C82.1297 53.4754 82.6512 55.3062 82.9065 57.1484C83.2614 59.6007 83.1838 62.0863 83.0951 64.5609Z" fill="#1D2856"/>
<path d="M82.9975 67.6711C82.9309 69.8239 82.8533 71.9768 82.7866 74.1296H77.7711C77.7711 73.719 77.7598 73.3195 77.7598 72.9089L78.3036 72.1765C78.6142 72.3874 78.9471 72.5981 79.3243 72.6314C79.7016 72.6647 80.1237 72.4317 80.179 72.0655C80.2123 71.7549 80.0012 71.4107 80.1677 71.1445C80.301 70.9335 80.5896 70.9115 80.8335 70.9225C81.0888 70.9335 81.3663 70.9448 81.5327 70.7562C81.7546 70.5233 81.6326 70.1457 81.4883 69.8572C81.344 69.5796 81.1885 69.2247 81.3551 68.9584C81.5327 68.6809 81.9099 68.6699 82.2095 68.5589C82.5867 68.4036 82.8533 68.0484 82.9975 67.6711Z" fill="#0B183D"/>
<path d="M77.6856 65.6499C77.7157 68.4756 77.7358 71.3017 77.7659 74.1275H79.2241C79.2141 70.5373 79.1838 66.9573 79.1537 63.3671C79.1437 61.3458 79.1236 59.3046 79.4052 57.2932C79.6768 55.3925 80.2099 53.4819 81.2255 51.8426C80.934 51.3095 80.6019 50.8065 80.2198 50.324C78.9226 52.5968 78.299 55.2117 77.9671 57.8061C77.6453 60.4005 77.6654 63.0353 77.6856 65.6499Z" fill="#EA552D"/>
<path d="M104.998 34.7172H76.8898C76.6901 33.1081 76.5902 31.4882 76.6235 29.868C76.6345 28.503 76.7675 27.1601 77.0228 25.8285C77.267 24.5192 77.6442 23.2209 78.1547 21.9893C78.7762 20.469 79.6083 19.0485 80.6627 17.7945C82.4492 15.6528 84.7798 14.0995 87.2431 12.7679C88.3194 12.1798 89.4178 11.636 90.5165 11.1144C90.794 10.9925 91.1046 10.9925 91.3709 11.1144C94.9885 12.8566 98.6727 14.7208 101.236 17.7945C101.38 17.9611 101.513 18.1274 101.624 18.305C103.311 20.4801 104.365 23.121 104.865 25.8285C105.419 28.747 105.375 31.7654 104.998 34.7172Z" fill="#D3DC5E"/>
<path d="M88.0285 15.9871C87.8509 16.5419 87.418 17.0301 86.8522 17.1967C86.1974 17.3963 85.3429 17.1747 84.8991 17.7072C84.4552 18.2287 84.7438 19.1831 84.1999 19.5937C83.5785 20.0819 82.5577 19.3161 81.9142 19.7823C81.559 20.0375 81.5147 20.5478 81.57 20.9806C81.6367 21.4022 81.7699 21.8463 81.659 22.2679C81.437 23.089 80.3604 23.3889 79.5726 23.1003C79.0068 22.8894 78.5629 22.4568 78.1523 21.9906C78.7738 20.4704 79.6059 19.0498 80.6603 17.7959C82.4468 15.6542 84.7774 14.1009 87.2407 12.7693C87.5846 13.2132 87.8509 13.7124 88.0062 14.2562C88.1728 14.8221 88.2171 15.4322 88.0285 15.9871Z" fill="#C6C945"/>
<path d="M89.1708 11.769H89.1821C90.2475 12.6012 91.1129 13.6998 91.6788 14.9315C91.8784 15.3754 92.034 15.8305 92.045 16.3187C92.045 16.7959 91.8674 17.2951 91.4791 17.5837C90.8356 18.0609 89.8146 17.8279 89.2154 18.3605C88.6606 18.8487 88.727 19.7031 88.8379 20.4243C88.9379 21.1454 89.0155 22.0004 88.483 22.4996C87.5399 23.3873 85.7641 22.2554 84.7654 23.0765C84.3106 23.4427 84.1996 24.0752 84.1886 24.6523C84.1886 25.2294 84.2772 25.8173 84.1109 26.3722C83.8667 27.2043 83.0789 27.7924 82.2355 27.9701C81.3921 28.1364 80.5043 27.9257 79.7276 27.5485C78.9618 27.1712 78.274 26.6274 77.5971 26.0949C77.4085 25.9506 77.2419 25.7507 77.0977 25.5177" stroke="#C6C945" stroke-width="0.839646" stroke-linecap="round" stroke-linejoin="round"/>
<path d="M105.001 34.7125H76.8938C76.6926 33.1036 76.5924 31.4845 76.6224 29.8654C77.2963 30.841 78.1411 31.8061 79.1164 32.4697C80.1119 33.1436 81.4897 33.405 82.5255 32.7916C83.4809 32.2285 83.9936 31.0317 85.0294 30.6093C85.9848 30.2171 87.0609 30.6196 88.0465 30.9111C89.032 31.2029 90.2489 31.3437 90.9628 30.5994C92.0085 29.5134 91.3349 27.19 92.7227 26.6169C93.3563 26.3453 94.0702 26.6572 94.7239 26.8585C95.3875 27.0697 96.2422 27.1097 96.6144 26.5264C97.0969 25.762 96.2825 24.7264 96.5942 23.8817C96.7852 23.379 97.3283 23.0974 97.8613 22.9867C98.3944 22.876 98.9474 22.8862 99.4603 22.7253C100.727 22.3432 101.512 21.0057 101.653 19.6982C101.703 19.2356 101.683 18.7632 101.632 18.3005C103.312 20.4828 104.368 23.1173 104.871 25.8326C105.424 28.749 105.374 31.766 105.001 34.7125Z" fill="#C6C945"/>
<path d="M105.278 30.0706C104.612 29.5047 103.946 28.9276 103.28 28.3617C102.958 28.0842 102.615 27.7956 102.215 27.6403C101.815 27.485 101.327 27.485 100.983 27.7513C100.318 28.2505 100.561 29.3161 100.218 30.0706C99.8847 30.7697 99.0749 31.1136 98.3091 31.2136C97.5433 31.3135 96.7553 31.2359 96.0008 31.3912C94.425 31.7018 93.138 33.1333 92.9493 34.7202C92.927 34.8865 92.916 35.0531 92.916 35.2194" stroke="#D3DC5E" stroke-width="0.839646" stroke-linecap="round" stroke-linejoin="round"/>
<path d="M91.4751 74.1308H76.584V38.1045H105.184V51.8911" stroke="black" stroke-width="0.839646" stroke-linecap="round" stroke-linejoin="round"/>
<path d="M107.538 35.4487V38.7574C107.538 39.4412 106.969 39.9842 106.251 39.9842H75.0875C74.3704 39.9842 73.8008 39.4412 73.8008 38.7574V35.4487C73.8008 34.7749 74.3704 34.2219 75.0875 34.2219H106.251C106.505 34.2219 106.747 34.2923 106.947 34.4232C106.969 34.4331 106.99 34.4535 107.011 34.4635C107.327 34.6846 107.538 35.0465 107.538 35.4487Z" fill="#509DFF"/>
<path d="M73.4005 54.1319C73.0587 55.5299 72.2739 56.7465 71.2582 57.4504H54.414C53.3984 56.7465 52.6141 55.5299 52.272 54.1319C52.2016 53.81 52.1412 53.4782 52.1111 53.1464C52.0106 52.0302 52.1715 50.8738 52.5837 49.8681C53.2976 48.1184 54.6655 46.9717 56.0532 46.0968C57.4512 45.2319 58.9293 44.5481 60.1663 43.3616C61.1819 42.3962 62.0065 41.1089 62.5496 39.6508C62.65 39.3791 63.0324 39.3791 63.1329 39.6508C63.6759 41.1089 64.4905 42.3962 65.5062 43.3616C66.7432 44.5481 68.2315 45.2319 69.6192 46.0968C69.7399 46.1772 69.8605 46.2476 69.9812 46.3381C71.2381 47.1729 72.445 48.2692 73.0987 49.8681C73.6318 51.1653 73.7425 52.7342 73.4005 54.1319Z" fill="#D3DC5E"/>
<path d="M61.0837 42.3357C61.9605 42.9459 62.6263 43.8446 62.9369 44.8656C63.1032 45.3982 63.1255 46.0753 62.6926 46.4192C62.3154 46.7078 61.7719 46.6188 61.3057 46.5302C60.8285 46.4525 60.2624 46.4302 59.9518 46.7964C59.7075 47.107 59.7521 47.5622 59.7631 47.9617C59.7855 48.3613 59.7078 48.8382 59.3526 49.0158C58.7978 49.2933 58.1096 48.5829 57.5438 48.8605C57.2442 49.0048 57.1332 49.382 57.0999 49.7149C57.0666 50.0478 57.0666 50.4027 56.878 50.6803C56.6784 50.9689 56.3011 51.1019 55.9459 51.0909C55.5907 51.0798 55.2578 50.9356 54.9359 50.7913C54.1702 50.425 53.449 49.9812 52.7832 49.4486" stroke="#C6C945" stroke-width="0.839646" stroke-linecap="round" stroke-linejoin="round"/>
<path d="M73.4027 54.1346C73.0609 55.5326 72.2761 56.7492 71.2604 57.4532H54.4162C53.4006 56.7492 52.6163 55.5326 52.2742 54.1346C52.2038 53.8127 52.1434 53.4809 52.1133 53.1491C52.3648 53.9033 52.9481 54.5471 53.6821 54.8587C54.5973 55.2408 55.7134 55.0901 56.4977 54.4767C57.0308 54.0543 57.4228 53.4304 58.0464 53.159C58.871 52.7869 59.8063 53.1389 60.6712 53.3702C61.5361 53.6115 62.6224 53.6719 63.1754 52.958C63.7184 52.264 63.4365 51.1479 64.0199 50.4842C64.5226 49.9111 65.4178 49.931 66.1519 50.1323C66.876 50.3335 67.6101 50.6753 68.3643 50.5748C69.7622 50.3937 70.5567 48.7042 70.2953 47.3164C70.2349 46.9744 70.1242 46.6525 69.9834 46.3408C71.2403 47.1756 72.4472 48.2719 73.1009 49.8708C73.634 51.168 73.7447 52.7369 73.4027 54.1346Z" fill="#C6C945"/>
<path d="M76.5796 58.7379V74.1302H50.1588C49.6104 74.1302 49.166 73.6858 49.166 73.1374V58.7379C49.166 57.3083 50.3249 56.1494 51.7545 56.1494H73.9911C75.4207 56.1494 76.5796 57.3083 76.5796 58.7379Z" fill="#FF7A43"/>
<path d="M67.7945 66.2824V74.1168H57.7852V66.2824C57.7852 64.274 58.5729 62.2986 60.1155 61.0113C60.8699 60.3789 61.7803 59.935 62.79 59.7354C63.7997 59.935 64.6985 60.3789 65.4642 61.0113C66.008 61.4662 66.4516 61.9993 66.8069 62.5985C67.4616 63.6971 67.7945 64.9841 67.7945 66.2824Z" fill="#1D2856"/>
<path d="M67.7945 66.2819V74.1162H57.7852V71.9522L57.8518 71.9189C58.4289 72.3628 59.0394 72.8067 59.7605 72.9176C60.4707 73.0396 61.3138 72.696 61.5247 71.9968C61.6247 71.6196 61.547 71.1644 61.8023 70.8649C62.3571 70.2214 63.6221 71.0758 64.188 70.4543C64.6762 69.8995 63.9996 68.9228 64.4212 68.3236C64.7984 67.8131 65.6085 68.0353 66.1744 67.7578C66.8955 67.4138 66.9622 66.4372 66.9288 65.6384C66.8845 64.6286 66.8512 63.6189 66.8069 62.5979C67.4616 63.6966 67.7945 64.9836 67.7945 66.2819Z" fill="#0B183D"/>
<path d="M67.7913 66.2978V74.1316H67.5299V66.8808C67.5299 65.0205 66.7856 63.1902 65.3175 62.0036C64.5934 61.4203 63.7487 61.0082 62.7833 60.8271C61.8278 61.0082 60.9731 61.4203 60.249 62.0036C58.7909 63.1902 58.0466 65.0205 58.0466 66.8808V74.1316H57.7852V66.2978C57.7852 64.2864 58.5695 62.3054 60.1082 61.0283C60.8724 60.3948 61.7776 59.942 62.7833 59.751C63.7989 59.942 64.6942 60.3948 65.4583 61.0283C67.007 62.3054 67.7913 64.2864 67.7913 66.2978Z" fill="#EA552D"/>
<path d="M74.7926 66.699C74.715 67.9196 74.6373 69.1403 74.5597 70.3609H70.6202C70.5979 70.039 70.5759 69.7064 70.5538 69.3845C70.4982 68.4858 70.4426 67.5977 70.3872 66.699C70.3429 65.9776 70.3096 65.2341 70.5425 64.5573C70.8865 63.5696 71.7634 62.8818 72.5956 62.2493C73.1727 62.6931 73.7606 63.1593 74.1935 63.7362C74.3821 63.9804 74.5374 64.2577 74.6373 64.5573C74.8703 65.2341 74.837 65.9776 74.7926 66.699Z" fill="#1D2856"/>
<path d="M74.7935 66.6967C74.7158 67.9173 74.6382 69.138 74.5605 70.3586H70.6211C70.5988 70.0367 70.5767 69.7041 70.5547 69.3822C70.8543 69.6042 71.4091 69.7038 71.753 69.5485C72.1082 69.4043 72.3635 69.038 72.3855 68.6608C72.4188 68.2502 72.2412 67.7397 72.5631 67.4845C72.8071 67.2959 73.2287 67.3735 73.3952 67.1072C73.5949 66.8187 73.251 66.4527 73.251 66.0975C73.251 65.7756 73.5285 65.5537 73.7394 65.3097C74.1057 64.8769 74.272 64.2887 74.1943 63.7339C74.3829 63.9781 74.5382 64.2554 74.6382 64.555C74.8711 65.2318 74.8378 65.9753 74.7935 66.6967Z" fill="#0B183D"/>
<path d="M51.3386 56.1827C51.474 56.161 51.6129 56.1494 51.7545 56.1494H73.9911C75.4207 56.1494 76.5796 57.3083 76.5796 58.7379V74.1302H50.1588C49.6104 74.1302 49.166 73.6858 49.166 73.1374V66.3087" stroke="black" stroke-width="0.839646" stroke-linecap="round" stroke-linejoin="round"/>
<path d="M55.3334 66.699C55.2558 67.9196 55.1781 69.1403 55.1005 70.3609H51.172C51.1497 70.017 51.128 69.6841 51.1057 69.3399C51.0503 68.4632 50.9944 67.5757 50.9391 66.699C50.8947 65.9776 50.8504 65.2341 51.0944 64.5573C51.4383 63.5696 52.3043 62.8818 53.1364 62.2493C53.9685 62.8818 54.8342 63.5696 55.1781 64.5573C55.2668 64.8236 55.3222 65.1011 55.3445 65.3787C55.3888 65.8115 55.3557 66.2661 55.3334 66.699Z" fill="#1D2856"/>
<path d="M55.3333 66.6973C55.2556 67.9179 55.178 69.1386 55.1003 70.3592H51.1718C51.1495 70.0153 51.1278 69.6824 51.1055 69.3382C51.2941 69.5601 51.5047 69.7821 51.76 69.893C52.0375 70.004 52.4148 69.9597 52.5814 69.7044C52.67 69.5601 52.6921 69.3715 52.8253 69.2495C52.9919 69.1163 53.2359 69.1832 53.4468 69.2385C53.6577 69.2939 53.924 69.3162 54.046 69.1386C54.2236 68.8723 53.8794 68.5281 53.946 68.2175C53.9904 68.0179 54.1903 67.8956 54.3456 67.7736C54.8338 67.3964 55.1223 66.8082 55.2556 66.2091C55.311 65.9315 55.3333 65.6545 55.3443 65.377C55.3886 65.8098 55.3556 66.2644 55.3333 66.6973Z" fill="#0B183D"/>
<path d="M74.7915 66.6942C74.7112 67.921 74.6405 69.1379 74.5602 70.3647H73.7958C73.8662 69.1379 73.9468 67.921 74.0271 66.6942C74.0674 65.9803 74.1077 65.2357 73.8764 64.5519C73.5746 63.7174 72.911 63.1037 72.207 62.5507C72.3379 62.44 72.4583 62.3498 72.5891 62.2493C73.4239 62.8828 74.2885 63.5664 74.6405 64.5519C74.8719 65.2357 74.8318 65.9803 74.7915 66.6942Z" fill="#EA552D"/>
<path d="M51.8719 64.5519C51.6306 65.2357 51.6706 65.9803 51.7209 66.6942C51.7913 67.921 51.8719 69.1379 51.9522 70.3647H51.1679C51.0876 69.1379 51.007 67.921 50.9366 66.6942C50.8863 65.9803 50.846 65.2357 51.0873 64.5519C51.4294 63.5664 52.3042 62.8828 53.1288 62.2493C53.2596 62.3498 53.3902 62.4502 53.5211 62.5507C52.8271 63.1037 52.1634 63.7174 51.8719 64.5519Z" fill="#EA552D"/>
<path d="M107.548 35.4543V38.7629C107.548 39.4467 106.978 39.9897 106.261 39.9897H76.5C78.6092 39.6579 79.9067 39.9897 81.3936 39.3059C82.1634 38.9539 82.7749 38.7427 83.6186 38.5818C85.2638 38.2599 86.9197 39.4467 88.5861 39.1853C89.8621 38.9942 90.9588 37.9687 92.2456 38.049C93.3002 38.1194 94.2704 38.9139 95.2933 38.6826C96.2213 38.4612 96.7805 37.4756 97.7085 37.2644C98.995 36.9729 100.313 38.3104 101.558 37.8679C102.106 37.6769 102.486 37.1742 103.045 37.0132C103.583 36.8625 104.163 37.0632 104.679 37.2846C105.618 37.6769 106.071 37.7975 106.62 36.8622C107.01 36.2187 107.2 35.1327 106.957 34.4287C106.978 34.4387 107 34.4591 107.021 34.469C107.337 34.6901 107.548 35.0521 107.548 35.4543Z" fill="#1C7DC6"/>
<path d="M101.729 55.6364C101.112 55.6364 100.55 55.9327 100.151 56.4137C99.7443 56.8946 99.4936 57.5518 99.4936 58.2811C99.4936 56.8226 98.4981 55.6364 97.2656 55.6364C97.882 55.6364 98.4371 55.3397 98.8434 54.8669C99.2429 54.3859 99.4936 53.729 99.4936 52.9998C99.4936 53.729 99.7443 54.3859 100.151 54.8669C100.55 55.3397 101.112 55.6364 101.729 55.6364Z" fill="white"/>
<path d="M95.8984 26.5021C95.2821 26.5021 94.72 26.7985 94.3204 27.2794C93.9142 27.7604 93.6635 28.4176 93.6635 29.1468C93.6635 27.6884 92.668 26.5021 91.4355 26.5021C92.0519 26.5021 92.6073 26.2055 93.0135 25.7326C93.4131 25.2516 93.6635 24.5947 93.6635 23.8655C93.6635 24.5947 93.9142 25.2516 94.3204 25.7326C94.72 26.2055 95.2821 26.5021 95.8984 26.5021Z" fill="white"/>
<path d="M60.3072 63.3736C59.8571 63.3736 59.4469 63.5899 59.1551 63.9411C58.8584 64.2922 58.6755 64.7718 58.6755 65.3044C58.6755 64.2396 57.9487 63.3736 57.0488 63.3736C57.4989 63.3736 57.9043 63.1573 58.201 62.812C58.4928 62.4609 58.6755 61.9813 58.6755 61.4487C58.6755 61.9813 58.8584 62.4609 59.1551 62.812C59.4469 63.1573 59.8571 63.3736 60.3072 63.3736Z" fill="white"/>
<path d="M98.214 53.0033C97.8931 53.0033 97.6005 53.1575 97.3926 53.408C97.1811 53.6584 97.0505 54.0004 97.0505 54.3801C97.0505 53.6208 96.5322 53.0033 95.8906 53.0033C96.2114 53.0033 96.5005 52.8488 96.712 52.6027C96.92 52.3523 97.0505 52.0105 97.0505 51.6309C97.0505 52.0105 97.1811 52.3523 97.3926 52.6027C97.6005 52.8488 97.8931 53.0033 98.214 53.0033Z" fill="white"/>
<path d="M91.6777 14.447C92.8667 14.6147 93.9884 15.1179 95.0006 15.7641C96.0127 16.4103 96.9249 17.1984 97.829 17.9886" stroke="white" stroke-width="0.559675" stroke-linecap="round" stroke-linejoin="round"/>
<path d="M69.3223 58.9714C71.324 58.5638 73.5189 59.2997 74.8701 60.8318" stroke="white" stroke-width="0.559675" stroke-linecap="round" stroke-linejoin="round"/>
<path d="M87.6588 34.2219H75.0875C74.3704 34.2219 73.8008 34.7749 73.8008 35.4487V38.7574C73.8008 39.4412 74.3704 39.9842 75.0875 39.9842H106.251C106.969 39.9842 107.538 39.4412 107.538 38.7574V35.4487C107.538 35.0465 107.327 34.6846 107.011 34.4635C106.99 34.4535 106.969 34.4331 106.947 34.4232C106.747 34.2923 106.505 34.2219 106.251 34.2219H103.068" stroke="black" stroke-width="0.839646" stroke-linecap="round" stroke-linejoin="round"/>
<path d="M62.8418 36.1343V40.685" stroke="black" stroke-width="0.839646" stroke-linecap="round" stroke-linejoin="round"/>
<path d="M73.4168 50.8904C73.6567 51.9445 73.6548 53.0891 73.3985 54.1375C73.0568 55.5355 72.2719 56.7521 71.2563 57.4561H54.412C53.3964 56.7521 52.6121 55.5355 52.2701 54.1375C52.1997 53.8156 52.1392 53.4838 52.1091 53.152C52.0086 52.0358 52.1696 50.8794 52.5817 49.8737C53.2956 48.124 54.6635 46.9773 56.0513 46.1024C57.4493 45.2375 58.9273 44.5537 60.1644 43.3672C61.18 42.4018 62.0046 41.1145 62.5476 39.6564C62.6481 39.3847 63.0304 39.3847 63.1309 39.6564C63.6739 41.1145 64.4886 42.4018 65.5042 43.3672C65.9873 43.8307 66.5086 44.2173 67.0473 44.568" stroke="black" stroke-width="0.839646" stroke-linecap="round" stroke-linejoin="round"/>
<path d="M67.8513 32.7181C67.5627 33.7391 66.9305 34.6155 66.0871 35.2147C65.3213 35.7695 64.3782 36.0914 63.3572 36.0914C60.7829 36.0914 58.6855 34.0053 58.6855 31.4198C58.6855 30.4877 58.9515 29.622 59.4177 28.9008C60.2498 27.6025 61.7037 26.7368 63.3572 26.7368C64.1673 26.7368 64.9441 26.9477 65.6099 27.314C65.4433 27.2806 65.266 27.2696 65.0994 27.2696C63.2019 27.2696 61.6704 28.8119 61.6704 30.6983C61.6704 32.5958 63.2019 34.1383 65.0994 34.1383C66.2313 34.1383 67.2408 33.5838 67.8513 32.7181Z" fill="#FFCD3B"/>
<path d="M66.0871 35.2201C65.3213 35.775 64.3782 36.0968 63.3572 36.0968C60.7829 36.0968 58.6855 34.0108 58.6855 31.4252C58.6855 30.4931 58.9515 29.6274 59.4177 28.9062L59.44 28.9396C59.2734 29.3724 59.0958 29.8163 59.0405 30.2712C58.9961 30.7374 59.0851 31.2366 59.3847 31.5805C59.7176 31.9577 60.2501 32.1353 60.472 32.5792C60.6163 32.8898 60.572 33.234 60.6273 33.5669C60.6717 33.8998 60.8826 34.266 61.2155 34.277C61.4708 34.277 61.7147 34.0661 61.959 34.1327C62.4582 34.2547 62.3582 35.2311 62.8577 35.2534C63.0686 35.2645 63.2239 35.0981 63.4015 34.9982C63.8677 34.754 64.4225 35.0202 64.9441 35.1535C65.3213 35.2534 65.7098 35.2757 66.0871 35.2201Z" fill="#FCB910"/>
<path d="M105.137 27.637C105.39 29.9829 105.297 32.3705 105.001 34.7134H76.8938C76.6926 33.1045 76.5924 31.4854 76.6224 29.8663C76.6426 28.5086 76.7732 27.1609 77.0247 25.8336C77.5779 22.9073 78.7545 20.0713 80.6651 17.7985C83.2295 14.7212 86.9099 12.8608 90.5203 11.1211C90.7916 10.9902 91.1033 10.9902 91.375 11.1211C93.7152 12.2458 96.0805 13.4205 98.1534 14.9421" stroke="black" stroke-width="0.839646" stroke-linecap="round" stroke-linejoin="round"/>
<path d="M93.4495 5.68723C93.4162 5.72054 93.3941 5.76461 93.4052 5.82023L93.9157 8.80534C93.938 8.92732 93.8157 9.01626 93.7047 8.96064L91.0195 7.55138C90.9752 7.52907 90.9195 7.52907 90.8862 7.55138L88.2007 8.96064C88.0897 9.01626 87.9567 8.92732 87.9788 8.80534L88.2453 7.22949L88.4893 5.82023C88.5003 5.76461 88.4893 5.72054 88.4559 5.68723L86.2809 3.56755C86.1923 3.47889 86.2369 3.33434 86.3588 3.3123L89.366 2.87972C89.4103 2.8687 89.4547 2.84613 89.477 2.8018L90.8196 0.0832277C90.8752 -0.0277426 91.0302 -0.0277426 91.0859 0.0832277L92.4288 2.8018C92.4511 2.84613 92.4954 2.8687 92.5397 2.87972L94.0266 3.09037L95.5356 3.3123C95.6576 3.33434 95.7132 3.47889 95.6245 3.56755L93.4495 5.68723Z" fill="#FFCD3B"/>
<path d="M93.4497 5.69817C93.4164 5.73149 93.3944 5.77556 93.4054 5.83117L93.9159 8.81628C93.9382 8.93827 93.8159 9.0272 93.705 8.97159L91.0197 7.56233C90.9754 7.54002 90.9198 7.54002 90.8864 7.56233L88.2009 8.97159C88.0899 9.0272 87.9569 8.93827 87.979 8.81628L88.2455 7.24044C88.4008 7.31809 88.5784 7.35168 88.7447 7.32937C89.1996 7.29606 89.5992 6.9739 89.7545 6.55233C89.8987 6.13076 89.8767 5.55389 90.2983 5.4096C90.6978 5.27633 91.197 5.73149 91.5189 5.45394C91.8075 5.20997 91.5743 4.67716 91.8295 4.3886C92.0848 4.10003 92.562 4.33298 92.9615 4.33298C93.483 4.33298 93.9046 3.84504 94.0045 3.33454C94.0156 3.25689 94.0269 3.17897 94.0269 3.10132L95.5358 3.32325C95.6578 3.34528 95.7134 3.48984 95.6247 3.5785L93.4497 5.69817Z" fill="#FCB910"/>
</svg>
