<svg width="99" height="95" viewBox="0 0 99 95" fill="none" xmlns="http://www.w3.org/2000/svg">
<path d="M26.713 61.4208H8.93513V49.5587H22.776C24.9374 49.5587 26.713 47.7831 26.713 45.6217C26.713 44.13 25.8911 42.8415 24.6734 42.1718H24.6634C24.1052 41.8571 23.456 41.6844 22.776 41.6844H8.93513V29.8123H26.713C28.6613 29.8123 30.2443 28.4729 30.6096 26.6566C30.6807 26.3826 30.7109 26.0984 30.7109 25.8042C30.7109 23.6428 28.9455 21.8672 26.713 21.8672H4.99813C3.14117 21.8672 1.59861 23.0949 1.15221 24.7692C1.05066 25.0938 1 25.4491 1 25.8042V65.4187C1 67.5903 2.76564 69.356 4.99813 69.356H26.713C28.9455 69.356 30.7109 67.5903 30.7109 65.4187C30.7109 64.617 30.4776 63.8764 30.0819 63.2573C29.3817 62.1514 28.1438 61.4208 26.713 61.4208Z" fill="#FA778D"/>
<path d="M10.0919 68.4388C10.0919 68.7534 10.0715 69.0578 10.0208 69.352H4.99813C2.76564 69.352 1 67.5864 1 65.4148V61.6707C1.63928 61.4778 2.31924 61.3762 3.0194 61.3762C6.92596 61.3762 10.0919 64.5422 10.0919 68.4388Z" fill="#E25278"/>
<path d="M24.6633 42.1616C23.9022 45.226 21.1218 47.499 17.8241 47.499C14.3437 47.499 11.4514 44.9823 10.873 41.6743H22.7759C23.4558 41.6743 24.1051 41.847 24.6633 42.1616Z" fill="#E25278"/>
<path d="M13.9072 27.8947C13.9072 28.5644 13.8158 29.2035 13.6434 29.8123H8.93513V34.6424C8.27564 34.8452 7.57547 34.957 6.84486 34.957C4.4095 34.957 2.25835 33.7293 1 31.8621V25.8042C1 25.4491 1.05066 25.0938 1.15221 24.7692C1.59861 23.0949 3.14117 21.8672 4.99813 21.8672H10.5079C12.5475 23.0951 13.9072 25.3376 13.9072 27.8947Z" fill="#E25278"/>
<path d="M26.7082 61.4153H8.93494V53.0204M23.7229 41.7902C23.4185 41.7145 23.1 41.6746 22.7727 41.6746H8.93494V32.6498M1.21875 42.9568V25.6635C1.21875 23.4792 2.9895 21.7085 5.17378 21.7085H24.8756" stroke="black" stroke-width="0.76105" stroke-linecap="round" stroke-linejoin="round"/>
<path d="M11.0268 65.3384C10.521 65.3384 10.0595 65.5817 9.73143 65.9764C9.39778 66.3712 9.19224 66.9106 9.19224 67.5093C9.19224 66.312 8.37517 65.3384 7.36328 65.3384C7.8691 65.3384 8.32476 65.0948 8.6584 64.7066C8.98645 64.3119 9.19224 63.7724 9.19224 63.1738C9.19224 63.7724 9.39778 64.3119 9.73143 64.7066C10.0595 65.0948 10.521 65.3384 11.0268 65.3384Z" fill="white"/>
<path d="M3.30273 47.7764C3.30273 50.4604 3.30273 53.1441 3.30273 55.8282" stroke="white" stroke-width="0.507285" stroke-linecap="round" stroke-linejoin="round"/>
<path d="M60.8034 23.6228L60.4281 25.6724L59.0073 33.364L58.2159 37.7374L57.9217 39.3611L56.7851 45.5306L56.0849 49.3865L54.6442 57.1998L53.9946 60.7309L53.0509 65.8756C53.0509 67.9556 40.012 67.9556 40.012 65.8756L39.9105 65.3276L39.4336 62.7503L38.7335 58.9146L38.1042 55.5051L37.6376 52.9075L36.2981 45.6014L35.821 42.9937L34.4614 35.6269L33.9845 32.9987L33.7003 31.4157L32.2695 23.6228H60.8034Z" fill="#FF7A43"/>
<path d="M40.3873 28.7877C39.9509 29.701 38.9161 30.3502 37.9115 30.1778C37.3738 30.0763 36.7547 29.7821 36.3285 30.1371C36.0443 30.3705 36.0139 30.7867 35.821 31.1013C35.5166 31.5884 34.8573 31.7506 34.2992 31.639C34.0861 31.5984 33.8932 31.5173 33.7003 31.4157L32.2695 23.6228H38.6015C39.3016 24.2621 39.9307 24.9825 40.3162 25.8348C40.7322 26.7683 40.8237 27.8745 40.3873 28.7877Z" fill="#F26636"/>
<path d="M57.9282 39.3596L56.7916 45.5291C55.2086 46.899 53.4432 48.1164 51.5254 49.1313C51.5558 49.0502 51.5963 48.9688 51.6472 48.8877C52.3067 47.8325 53.8692 47.6092 54.4376 46.5132C54.9855 45.4782 54.3867 44.2201 54.5187 43.0633C54.6607 41.8963 55.5537 40.9426 56.5279 40.2627C56.9743 39.938 57.4616 39.6538 57.9282 39.3596Z" fill="#F26636"/>
<path d="M56.0858 49.3884L54.6451 57.2018C52.4837 58.7543 50.0381 60.0227 47.4405 60.9359C44.9341 61.829 42.2554 62.4376 39.4345 62.7522L38.7344 58.9165C39.323 59.8705 40.4187 60.4893 41.545 60.4893C42.7727 60.4893 43.9804 59.7385 44.5181 58.6323C44.9847 57.6886 45.0356 56.4712 45.8373 55.7912C47.2681 54.5736 49.9063 55.9941 51.1747 54.604C51.8037 53.924 51.7124 53.0008 51.5602 52.0369C53.1534 51.2758 54.6755 50.3828 56.0858 49.3884Z" fill="#F26636"/>
<path d="M53.9865 60.7305L53.0428 65.8752C53.0428 67.9552 40.0039 67.9552 40.0039 65.8752L39.9023 65.3272C42.8552 64.9821 45.6559 64.3431 48.2941 63.3994C50.293 62.689 52.2107 61.7857 53.9865 60.7305Z" fill="#F26636"/>
<path d="M60.8009 23.6113L60.4241 25.6629C57.2002 29.0125 53.0135 31.7128 48.3033 33.3771C44.0955 34.8634 39.469 35.6172 34.4763 35.6172H34.4658L33.9844 32.9899C38.8619 33.0423 43.3732 32.3513 47.4344 30.9069C51.8828 29.3264 55.7976 26.7829 58.7703 23.6113H60.8009Z" fill="#1B38AB"/>
<path d="M59.0017 33.3672L58.2061 37.7321C55.3696 40.1394 51.9889 42.076 48.294 43.3948C44.599 44.7031 40.5902 45.4356 36.2881 45.6032L35.8066 42.9971C39.983 42.8714 43.8767 42.1808 47.425 40.9246C51.9886 39.3022 56.0082 36.6539 59.0017 33.3672Z" fill="#1B38AB"/>
<path d="M56.7882 45.5217L56.088 49.3776C54.6777 50.372 53.1556 51.265 51.5624 52.0261C50.5071 52.5334 49.4214 52.99 48.3053 53.3857C45.1393 54.5121 41.7298 55.212 38.1072 55.4962L37.6406 52.8987C41.1312 52.6654 44.3985 51.9956 47.4427 50.9199C48.8632 50.4226 50.2232 49.824 51.5219 49.1239C53.4398 48.1091 55.2052 46.8916 56.7882 45.5217Z" fill="#1B38AB"/>
<path d="M54.6402 57.1826L53.9907 60.7136C52.2148 61.7689 50.2972 62.6722 48.2983 63.3826C45.6601 64.3263 42.8594 64.9653 39.9065 65.3104L39.4297 62.733C42.2506 62.4184 44.9292 61.8098 47.4357 60.9168C50.0332 60.0035 52.4788 58.7352 54.6402 57.1826Z" fill="#1B38AB"/>
<path d="M44.3183 24.9744C45.0287 25.8876 45.759 26.8313 46.0026 27.9577C46.2563 29.084 45.8808 30.4337 44.856 30.9512C43.8716 31.4485 42.4613 31.1336 41.8118 32.0267C41.3958 32.5949 41.5276 33.3764 41.6189 34.0765C41.7102 34.7767 41.68 35.6188 41.0914 36.0044C40.4521 36.4408 39.4171 36.0959 38.9198 36.6945C38.5443 37.1512 38.7374 37.8209 38.6358 38.3993C38.4734 39.3532 37.4788 39.972 36.5149 40.0329C36.0785 40.0531 35.6523 39.9923 35.2363 39.8807" stroke="#F26636" stroke-width="0.76105" stroke-linecap="round" stroke-linejoin="round"/>
<path d="M56.779 45.5217L56.0788 49.3776C54.6685 50.372 53.1464 51.265 51.5532 52.0261C51.3808 51.0215 51.1272 49.9762 51.5128 49.1239C53.4306 48.1091 55.196 46.8916 56.779 45.5217Z" fill="#142F84"/>
<path d="M54.6422 57.1968L53.9927 60.7278C52.2168 61.783 50.2992 62.6863 48.3002 63.3967C45.662 64.3404 42.8614 64.9795 39.9085 65.3245L39.4316 62.7472C42.2525 62.4326 44.9312 61.824 47.4376 60.9309C50.0352 60.0177 52.4808 58.7493 54.6422 57.1968Z" fill="#142F84"/>
<path d="M51.317 66.9763C47.7689 67.847 40.012 67.48 40.012 65.8756L39.9105 65.3276L39.4336 62.7503L38.7335 58.9146L38.1042 55.5051L37.6376 52.9075L36.2981 45.6014L35.821 42.9937L34.4614 35.6269L33.9845 32.9987L32.2695 23.6228H60.8034L60.4281 25.6724L59.0073 33.364L58.2159 37.7374L57.9217 39.3611L56.7851 45.5306" stroke="black" stroke-width="0.76105" stroke-linecap="round" stroke-linejoin="round"/>
<path d="M60.8027 23.6147C60.8027 24.3056 60.1016 24.9546 58.8663 25.4989C56.3962 26.6294 51.8011 27.3829 46.5361 27.3829C41.2711 27.3829 36.6761 26.6294 34.2059 25.4989C32.9707 24.9546 32.2695 24.3056 32.2695 23.6147C32.2695 21.5317 38.6543 19.8467 46.5361 19.8467C54.4179 19.8467 60.8027 21.5317 60.8027 23.6147Z" fill="#F26636"/>
<path d="M58.8767 25.458C58.8767 25.4685 58.8767 25.4894 58.8662 25.4999C56.3961 26.6304 51.801 27.3839 46.536 27.3839C41.271 27.3839 36.676 26.6304 34.2058 25.4999C34.1953 25.4894 34.1953 25.4685 34.1953 25.458C34.1953 23.6578 39.7219 22.2026 46.536 22.2026C53.3501 22.2026 58.8767 23.6578 58.8767 25.458Z" fill="#EA552D"/>
<path d="M60.8027 23.6147C60.8027 24.3056 60.1016 24.9546 58.8663 25.4989C56.3962 26.6294 51.8011 27.3829 46.5361 27.3829C41.2711 27.3829 36.6761 26.6294 34.2059 25.4989C32.9707 24.9546 32.2695 24.3056 32.2695 23.6147C32.2695 21.5317 38.6543 19.8467 46.5361 19.8467C54.4179 19.8467 60.8027 21.5317 60.8027 23.6147Z" stroke="black" stroke-width="0.76105" stroke-linecap="round" stroke-linejoin="round"/>
<path d="M54.8601 49.0634C53.9371 49.0634 53.0952 49.5076 52.4968 50.2278C51.8882 50.9479 51.513 51.9323 51.513 53.0246C51.513 50.84 50.0218 49.0634 48.1758 49.0634C49.0988 49.0634 49.9305 48.6195 50.5391 47.9113C51.1374 47.1911 51.513 46.2068 51.513 45.1145C51.513 46.2068 51.8882 47.1911 52.4968 47.9113C53.0952 48.6195 53.9371 49.0634 54.8601 49.0634Z" fill="white"/>
<path d="M49.4895 45.1126C48.9868 45.1126 48.5285 45.3544 48.2027 45.7465C47.8712 46.1386 47.6669 46.6746 47.6669 47.2693C47.6669 46.0797 46.8549 45.1126 45.8496 45.1126C46.3523 45.1126 46.8052 44.8705 47.1367 44.485C47.4625 44.0929 47.6669 43.5569 47.6669 42.9622C47.6669 43.5569 47.8712 44.0929 48.2027 44.485C48.5285 44.8705 48.9868 45.1126 49.4895 45.1126Z" fill="white"/>
<path d="M40.1959 52.5343C40.0101 50.217 39.8245 47.8995 39.6387 45.5823" stroke="white" stroke-width="0.507285" stroke-linecap="round" stroke-linejoin="round"/>
<path d="M41.9402 25.2029C41.5129 25.2029 41.1336 24.8985 41.0545 24.4629C40.757 22.8286 40.3244 21.2389 39.1812 20.6872C38.9339 20.5676 38.6278 20.4857 38.304 20.3985C37.6315 20.2171 36.8695 20.0122 36.2804 19.3846C35.5165 18.5705 35.4605 17.5136 35.4113 16.5797C35.3731 15.852 35.3398 15.2228 35.0041 14.9234C34.7758 14.7201 34.356 14.6354 33.9111 14.5466C33.7517 14.514 33.5935 14.4825 33.4385 14.4455C31.574 13.9984 29.9663 12.6986 29.1386 10.9682C28.3109 9.23791 28.3079 7.17125 29.1298 5.43931C29.3433 4.98868 29.8812 4.79853 30.3304 5.01159C30.7801 5.22463 30.9717 5.76247 30.7581 6.21216C30.1754 7.43981 30.178 8.96402 30.7646 10.1901C31.3513 11.417 32.537 12.3754 33.8586 12.6923C33.9918 12.7249 34.1288 12.7522 34.2662 12.7795C34.8963 12.9063 35.6102 13.0495 36.2033 13.5776C37.1002 14.3775 37.1617 15.5464 37.2114 16.4847C37.2475 17.1703 37.2813 17.818 37.5943 18.1507C37.8328 18.4042 38.2684 18.522 38.7727 18.6575C39.1442 18.7579 39.5659 18.8715 39.9649 19.0642C41.8338 19.9664 42.445 22.0372 42.8278 24.1406C42.9166 24.6299 42.5919 25.0992 42.1026 25.1881C42.048 25.1987 41.9934 25.2029 41.9402 25.2029Z" fill="#FFCD3B"/>
<path d="M45.0475 19.4343C44.8097 19.4343 44.5761 19.3195 44.4338 19.1069C44.2069 18.769 44.2971 18.3105 44.6355 18.0836C45.8518 17.2677 46.8276 15.8911 47.3127 14.3069C47.8035 12.7027 47.7973 10.8657 47.296 9.26564C47.2516 9.12499 47.2046 8.98874 47.1544 8.85758C46.9983 9.10764 46.823 9.34128 46.6284 9.55456C45.6712 10.6046 44.3913 10.9175 43.4449 10.3337C42.9087 10.0022 42.5443 9.41323 42.4185 8.6746C42.2707 7.8069 42.4851 6.88853 42.9785 6.27806C43.8331 5.22229 45.3834 4.99883 46.5988 5.75203C46.6504 4.75594 46.4325 3.74042 45.9277 2.95992C45.4308 2.19307 44.6494 1.66773 43.7843 1.51992C42.9954 1.38297 42.2279 1.57104 41.6167 2.04318C41.2945 2.29185 40.8316 2.23356 40.5815 1.91063C40.3326 1.5877 40.3921 1.12435 40.7146 0.875674C41.6565 0.14769 42.8351 -0.141234 44.0329 0.064875C45.3043 0.282552 46.4464 1.045 47.1667 2.15861C48.0545 3.53014 48.2782 5.39902 47.8898 7.0537C48.2773 7.64474 48.5357 8.28551 48.7043 8.8245C49.2928 10.7012 49.2995 12.857 48.7238 14.7395C48.1415 16.6422 46.9509 18.3075 45.4579 19.3087C45.3318 19.3938 45.1889 19.4343 45.0475 19.4343ZM45.0385 6.77981C44.7031 6.77981 44.37 6.90588 44.1264 7.20637C43.899 7.48813 43.7974 7.97831 43.8738 8.42662C43.9256 8.7322 44.0554 8.97602 44.2208 9.07827C44.5754 9.29872 45.1519 8.98365 45.5375 8.55986C45.8431 8.22537 46.0846 7.81615 46.2604 7.36576C46.1264 7.22742 45.9858 7.1113 45.8398 7.01831C45.6055 6.8691 45.3214 6.77981 45.0385 6.77981Z" fill="#FA778D"/>
<path d="M51.7527 24.9136C51.1952 24.9136 50.6382 24.7605 50.1497 24.4059C49.7465 24.1137 49.6569 23.5504 49.9491 23.1472C50.2413 22.745 50.8057 22.6545 51.2075 22.9467C51.685 23.2916 52.4872 23.0478 52.9101 22.6122C53.3898 22.1176 53.679 21.3246 53.7683 20.2561C53.8044 19.8275 53.8104 19.3963 53.8171 18.9651C53.8273 18.3403 53.8372 17.6942 53.9288 17.0386C54.0736 15.9983 54.4979 14.5724 55.6966 13.6872C56.0464 13.4283 56.4304 13.2435 56.7693 13.0806C57.2058 12.8703 57.5829 12.6892 57.7783 12.4216C58.0471 12.0538 57.9835 11.4544 57.8343 11.016C57.6957 10.6084 57.4723 10.208 57.2359 9.78376C57.1008 9.54087 56.9661 9.29798 56.8428 9.05069C56.3147 7.98497 56.1565 7.05388 56.3584 6.20191C56.6268 5.07281 57.7427 3.99807 59.0765 4.2516C59.5662 4.34228 59.8894 4.81233 59.7992 5.30159C59.709 5.79015 59.2408 6.11724 58.7492 6.02402C58.5213 5.98608 58.1908 6.28727 58.1119 6.61899C58.011 7.04324 58.1244 7.57645 58.4575 8.24891C58.5676 8.47076 58.6893 8.68889 58.8103 8.90634C59.0751 9.38149 59.3493 9.87375 59.5403 10.4352C59.9285 11.5749 59.8168 12.6864 59.2341 13.4847C58.7721 14.1177 58.123 14.4299 57.5505 14.7055C57.2578 14.8454 56.9816 14.9791 56.7677 15.1366C56.0362 15.677 55.7933 16.7157 55.7137 17.2868C55.6381 17.8334 55.6288 18.3965 55.6196 18.9933C55.6122 19.465 55.6036 19.9376 55.5645 20.4067C55.4392 21.9011 54.9814 23.0656 54.2039 23.8674C53.5966 24.4931 52.675 24.9136 51.7527 24.9136Z" fill="#C6C945"/>
<path d="M16.0479 78.7035V94.311C16.0479 94.5523 15.8523 94.7479 15.611 94.7479H13.1763C12.935 94.7479 12.7394 94.5523 12.7394 94.311V83.4466L9.73735 94.4262C9.68548 94.6161 9.51281 94.7479 9.31579 94.7479H7.67436C7.47734 94.7479 7.30467 94.6161 7.2528 94.4262L4.25098 83.4466V94.311C4.25098 94.5523 4.05541 94.7479 3.81407 94.7479H1.44276C1.20142 94.7479 1.00586 94.5523 1.00586 94.311V78.7035C1.00586 78.4622 1.20142 78.2666 1.44276 78.2666H5.35297C5.55 78.2666 5.72266 78.3986 5.77454 78.5886L8.55791 88.7915L11.2183 78.5932C11.2685 78.4008 11.4423 78.2666 11.6411 78.2666H15.611C15.8523 78.2666 16.0479 78.4622 16.0479 78.7035Z" fill="#1B38AB"/>
<path d="M19.5449 91.1226V78.7035C19.5449 78.4622 19.7405 78.2666 19.9818 78.2666H22.4165C22.6578 78.2666 22.8534 78.4622 22.8534 78.7035V91.1226C22.8534 92.087 23.6336 92.6296 24.6945 92.6296C25.7553 92.6296 26.5354 92.087 26.5354 91.1226V78.7035C26.5354 78.4622 26.7309 78.2666 26.9723 78.2666H29.3448C29.5862 78.2666 29.7817 78.4622 29.7817 78.7035V91.1226C29.7817 93.4309 27.7221 94.9836 24.6945 94.9836C21.6681 94.9836 19.5449 93.4309 19.5449 91.1226Z" fill="#1B38AB"/>
<path d="M43.9854 89.4739V90.816C43.9854 93.1932 41.9562 94.7479 38.8042 94.7479H33.7182C33.4768 94.7479 33.2812 94.5523 33.2812 94.311V78.7035C33.2812 78.4622 33.4768 78.2666 33.7182 78.2666H38.5234C41.6754 78.2666 43.7034 79.8194 43.7034 82.1985V83.0708C43.7034 84.2702 43.1924 85.1933 42.237 85.826C41.9589 86.0101 41.9694 86.408 42.2604 86.5709C43.369 87.192 43.9854 88.1724 43.9854 89.4739ZM36.5885 81.0578V84.6584C36.5885 84.8998 36.784 85.0953 37.0254 85.0953H38.056C39.6468 85.0953 40.3962 84.5299 40.3962 83.3278V82.1505C40.3962 81.1861 39.6468 80.6209 38.3673 80.6209H37.0254C36.784 80.6209 36.5885 80.8164 36.5885 81.0578ZM40.677 89.2152C40.677 88.0132 39.9276 87.4496 38.3368 87.4496H37.0254C36.784 87.4496 36.5885 87.6452 36.5885 87.8865V91.9567C36.5885 92.1981 36.784 92.3936 37.0254 92.3936H38.6481C39.9276 92.3936 40.677 91.8281 40.677 90.862V89.2152Z" fill="#1B38AB"/>
<path d="M53.0674 91.0997H50.2285C50.0198 91.0997 49.8403 91.2473 49.7999 91.4521L49.2208 94.3955C49.1803 94.6003 49.0009 94.7479 48.7921 94.7479H46.3863C46.1072 94.7479 45.8997 94.4898 45.9596 94.2172L49.3886 78.6097C49.4326 78.4093 49.6102 78.2666 49.8152 78.2666H53.5443C53.7496 78.2666 53.9269 78.4093 53.9709 78.6097L57.3987 94.2172C57.4586 94.4898 57.2511 94.7479 56.972 94.7479H54.5038C54.2951 94.7479 54.1156 94.6003 54.0752 94.3955L53.496 91.4521C53.4556 91.2473 53.2761 91.0997 53.0674 91.0997ZM52.9897 88.6955L51.6478 81.7979L50.3062 88.6955H52.9897Z" fill="#1B38AB"/>
<path d="M67.4054 94.4564L65.2087 88.2353C65.1471 88.0606 64.982 87.944 64.7966 87.944H63.8262C63.5848 87.944 63.3892 88.1395 63.3892 88.3809V94.3108C63.3892 94.5521 63.1937 94.7477 62.9523 94.7477H60.5189C60.2776 94.7477 60.082 94.5521 60.082 94.3108V78.7033C60.082 78.4619 60.2776 78.2664 60.5189 78.2664H65.262C68.4141 78.2664 70.4421 79.8191 70.4421 82.1982V84.0099C70.4421 85.4139 69.7343 86.5198 68.5108 87.2024C68.3179 87.3101 68.2222 87.5336 68.3002 87.7402L70.7185 94.1566C70.8261 94.4423 70.615 94.7477 70.3096 94.7477H67.8175C67.6321 94.7477 67.467 94.631 67.4054 94.4564ZM63.3892 85.1528C63.3892 85.3942 63.5848 85.5897 63.8262 85.5897H65.1057C66.3852 85.5897 67.1348 85.0242 67.1348 84.0598V82.1503C67.1348 81.1859 66.3852 80.6206 65.1057 80.6206H63.8262C63.5848 80.6206 63.3892 80.8162 63.3892 81.0575V85.1528Z" fill="#1B38AB"/>
<path d="M79.8333 91.0997H76.9944C76.7857 91.0997 76.6062 91.2473 76.5658 91.4521L75.9866 94.3955C75.9462 94.6003 75.7665 94.7479 75.5578 94.7479H73.1521C72.873 94.7479 72.6653 94.4898 72.7252 94.2172L76.1544 78.6097C76.1985 78.4093 76.376 78.2666 76.5811 78.2666H80.3099C80.5152 78.2666 80.6927 78.4093 80.7368 78.6097L84.1646 94.2172C84.2245 94.4898 84.017 94.7479 83.7379 94.7479H81.2697C81.0609 94.7479 80.8815 94.6003 80.841 94.3955L80.2619 91.4521C80.2215 91.2473 80.042 91.0997 79.8333 91.0997ZM79.7553 88.6955L78.4137 81.7979L77.0721 88.6955H79.7553Z" fill="#1B38AB"/>
<path d="M90.9899 88.5607L90.2334 89.6593C90.1832 89.7321 90.1564 89.8188 90.1564 89.9073V94.3037C90.1564 94.5451 89.9607 94.7408 89.7193 94.7408H87.2848C87.0433 94.7408 86.8477 94.5451 86.8477 94.3037V78.6891C86.8477 78.4476 87.0433 78.252 87.2848 78.252H89.7193C89.9607 78.252 90.1564 78.4476 90.1564 78.6891V83.4738C90.1564 83.9085 90.7214 84.0766 90.9592 83.7128L94.3983 78.45C94.4789 78.3265 94.6166 78.252 94.7642 78.252H97.2711C97.62 78.252 97.8283 78.6406 97.6351 78.931L93.5782 85.0326C93.4897 85.1659 93.4807 85.3367 93.5553 85.4783L98.0927 94.1002C98.2459 94.3914 98.0349 94.7408 97.706 94.7408H95.1385C94.9743 94.7408 94.8239 94.6487 94.7491 94.5025L91.7394 88.6099C91.5888 88.3151 91.1777 88.288 90.9899 88.5607Z" fill="#1B38AB"/>
<path d="M96.4735 34.3428C94.384 29.1068 90.8917 26.0724 87.5236 24.3286C85.2611 23.1402 83.0596 22.5314 81.3645 22.2172C79.5478 21.8835 78.3301 21.8835 78.2692 21.8835H66.7329C64.5606 21.8835 62.7949 23.6589 62.7949 25.8191V65.4351C62.7949 67.605 64.5606 69.3706 66.7329 69.3706H78.2692C78.5322 69.3706 98.4121 69.4534 98.4121 45.638C98.4121 41.0401 97.6717 37.3359 96.4735 34.3428ZM84.5816 59.3978C81.5155 61.3656 78.4616 61.4362 78.2692 61.4362H70.7293V29.8277H78.2692C78.3301 29.8277 81.3134 29.8886 84.3065 31.7248C88.4368 34.2308 90.4655 38.9189 90.4655 45.638C90.4655 52.2135 88.4977 56.9016 84.5816 59.3978Z" fill="#509DFF"/>
<path d="M96.4735 34.3301C95.4893 34.8579 94.373 35.162 93.1755 35.162C89.3603 35.162 86.2754 32.0774 86.2754 28.2722C86.2754 26.7907 86.7425 25.4308 87.5238 24.3147C90.8926 26.0601 94.3832 29.0941 96.4735 34.3301Z" fill="#1C7DC6"/>
<path d="M77.6096 61.4347C77.5385 65.179 74.4841 68.1826 70.7297 68.1826C66.9245 68.1826 63.8398 65.0977 63.8398 61.2825C63.8398 57.4772 66.9245 54.3926 70.7297 54.3926V61.4347H77.6096Z" fill="#1C7DC6"/>
<path d="M77.0137 21.8835H78.263C78.3263 21.8835 79.5513 21.8835 81.3608 22.2172C87.0035 23.2547 98.4132 27.5993 98.4132 45.6332C98.4132 49.0792 97.9967 52.026 97.2832 54.5466" stroke="black" stroke-width="0.76105" stroke-linecap="round" stroke-linejoin="round"/>
<path d="M84.1785 59.6386C81.261 61.3653 78.4554 61.4334 78.2655 61.4334H70.7305V30.2048" stroke="black" stroke-width="0.76105" stroke-linecap="round" stroke-linejoin="round"/>
<path d="M95.2523 34.9645C94.4857 34.9645 93.7867 35.3332 93.2897 35.9314C92.7843 36.5295 92.4726 37.3468 92.4726 38.254C92.4726 36.4396 91.2342 34.9645 89.7012 34.9645C90.4678 34.9645 91.1585 34.5956 91.6638 34.0074C92.1609 33.4093 92.4726 32.592 92.4726 31.6848C92.4726 32.592 92.7843 33.4093 93.2897 34.0074C93.7867 34.5956 94.4857 34.9645 95.2523 34.9645Z" fill="white"/>
<path d="M95.2597 49.4084C94.5396 53.1708 93.5299 57.0275 91.1016 59.9901" stroke="white" stroke-width="0.507285" stroke-linecap="round" stroke-linejoin="round"/>
</svg>
