<svg width="120" height="120" viewBox="0 0 120 120" fill="none" xmlns="http://www.w3.org/2000/svg">
<mask id="mask0_2131_22814" style="mask-type:luminance" maskUnits="userSpaceOnUse" x="0" y="0" width="120" height="120">
<path d="M119.5 0.120117H0.5V119.12H119.5V0.120117Z" fill="white"/>
</mask>
<g mask="url(#mask0_2131_22814)">
<path d="M79.1105 41.4598C79.1105 41.4598 78.5637 47.8131 77.0241 51.5594C75.5206 55.2174 72.5027 59.4574 70.7694 64.1109C69.036 68.7645 70.1421 73.086 68.4995 75.5897" stroke="#002D59" stroke-width="0.181523" stroke-linecap="round" stroke-linejoin="round"/>
<path d="M91.1249 27.7764C90.4792 33.4878 84.7185 42.0724 79.1069 41.438C73.4953 40.8036 69.7965 31.1496 70.4422 25.4382C71.0879 19.7269 76.2413 15.6201 81.9527 16.2658C87.664 16.9115 91.7706 22.0651 91.1249 27.7764Z" fill="#FFDB69"/>
<g style="mix-blend-mode:soft-light">
<path d="M72.7095 22.9303C74.1089 20.4666 76.4728 18.6617 79.2324 17.9695C79.8248 17.8209 77.7514 18.7213 75.875 20.1553C74.0258 21.5686 72.3749 23.5193 72.7095 22.9303Z" fill="#CCCCCC"/>
</g>
<path d="M79.1369 41.1751C78.1393 41.0623 76.8316 43.058 77.0202 43.2903C77.1183 43.4112 78.0865 43.2092 78.9912 43.3094C79.8252 43.4019 80.5989 43.806 80.7281 43.7095C80.9975 43.5085 80.1346 41.2878 79.1369 41.1751Z" fill="#FFDB69"/>
<g style="mix-blend-mode:soft-light">
<path d="M89.6979 23.5554C89.7866 22.7704 89.7827 21.9969 89.7 21.2433C88.088 18.5681 85.2963 16.6438 81.9527 16.2658C76.2413 15.6201 71.0879 19.7269 70.4422 25.4382C70.2638 27.0167 70.4175 28.8963 70.8515 30.8036C72.3944 34.1566 74.782 36.8896 77.6798 37.2172C83.2914 37.8516 89.0522 29.2668 89.6979 23.5554Z" fill="#CCCCCC"/>
</g>
<path d="M67.5725 37.8252C67.5725 37.8252 69.1206 44.4677 68.7956 48.7876C68.4782 53.0058 66.8133 58.3174 66.5918 63.6242C66.3703 68.931 68.9265 72.9596 68.0852 76.05" stroke="#002D59" stroke-width="0.194153" stroke-linecap="round" stroke-linejoin="round"/>
<path d="M75.2541 19.9279C76.4891 25.9502 73.4737 36.5888 67.5566 37.8022C61.6394 39.0157 54.6802 30.4225 53.4452 24.4002C52.2102 18.3779 56.0911 12.4944 62.1134 11.2594C68.1357 10.0244 74.0191 13.9055 75.2541 19.9279Z" fill="#FCA7CA"/>
<g style="mix-blend-mode:soft-light">
<path d="M54.9084 21.0811C55.5156 18.1119 57.3219 15.4934 59.8991 13.8754C60.4524 13.5281 58.6419 15.1305 57.2086 17.2104C55.7961 19.2602 54.7632 21.7908 54.9084 21.0811Z" fill="#CCCCCC"/>
</g>
<path d="M67.4991 37.5371C66.4471 37.7528 65.7783 40.2156 66.047 40.3894C66.1868 40.4798 67.1046 39.9537 68.0578 39.756C68.9367 39.5738 69.8573 39.7285 69.9568 39.5876C70.1642 39.294 68.5511 37.3214 67.4991 37.5371Z" fill="#FCA7CA"/>
<g style="mix-blend-mode:soft-light">
<path d="M72.4047 16.1077C72.235 15.28 71.9748 14.4946 71.6411 13.7556C69.1156 11.5688 65.639 10.5364 62.1134 11.2594C56.0911 12.4944 52.2102 18.3779 53.4452 24.4002C53.7865 26.0646 54.5655 27.9253 55.6385 29.7212C58.3182 32.6203 61.6516 34.6089 64.7072 33.9823C70.6244 32.7689 73.6397 22.1301 72.4047 16.1077Z" fill="#CCCCCC"/>
</g>
<path d="M59.1024 45.4756C59.1024 45.4756 61.7284 50.3996 62.3834 53.883C63.023 57.2844 62.8282 61.8346 63.7733 66.0762C64.7185 70.3179 67.5896 72.9628 67.5769 75.5833" stroke="#002D59" stroke-width="0.158852" stroke-linecap="round" stroke-linejoin="round"/>
<path d="M61.4001 29.7147C63.6477 34.2146 63.5099 43.2607 59.0887 45.469C54.6674 47.6773 47.3523 42.3537 45.1048 37.8539C42.8572 33.354 44.683 27.884 49.1828 25.6365C53.6826 23.389 59.1526 25.2149 61.4001 29.7147Z" fill="#002D59"/>
<g style="mix-blend-mode:soft-light">
<path d="M45.5699 34.928C45.4231 32.4527 46.2981 30.0016 47.9938 28.1785C48.3579 27.7872 47.265 29.436 46.571 31.3827C45.8872 33.3012 45.6049 35.5197 45.5699 34.928Z" fill="#CCCCCC"/>
</g>
<path d="M58.9898 45.2759C58.2038 45.6685 58.195 47.7564 58.4441 47.8371C58.5737 47.8791 59.1881 47.2694 59.8999 46.912C60.5562 46.5824 61.3165 46.5103 61.3655 46.3779C61.4674 46.1021 59.7759 44.8833 58.9898 45.2759Z" fill="#002D59"/>
<g style="mix-blend-mode:soft-light">
<path d="M58.3413 27.2965C58.0324 26.678 57.661 26.1121 57.2412 25.5984C54.7832 24.4029 51.8171 24.3207 49.1828 25.6365C44.683 27.884 42.8572 33.354 45.1048 37.8539C45.7259 39.0975 46.7345 40.4038 47.9618 41.597C50.692 43.3229 53.7468 44.1913 56.0299 43.0509C60.4512 40.8426 60.5889 31.7963 58.3413 27.2965Z" fill="#CCCCCC"/>
</g>
<path d="M33.0686 63.1611C32.5213 63.1611 31.9231 62.8784 31.849 62.8419C31.7955 62.8158 31.7491 62.7755 31.7139 62.7246C31.6786 62.6738 31.6558 62.6141 31.6474 62.5511C31.5235 61.6149 31.732 59.8704 32.0679 59.0287C32.4733 58.0163 33.4143 57.084 34.5094 57.0947C34.8065 56.0874 35.1603 54.9856 35.8077 54.0853C36.4552 53.1851 37.6134 52.3087 38.928 52.5436C39.1176 52.5811 39.3051 52.6311 39.4891 52.6934C39.6837 52.7624 39.8838 52.8112 40.0868 52.8394C40.7412 52.9024 41.3556 52.4982 42.0059 52.0689C42.186 51.9499 42.3725 51.8271 42.5595 51.7151C43.6344 51.0716 45.0469 50.9778 45.6676 52.0437C46.0389 52.6815 45.985 53.5628 45.5153 54.5254C44.953 55.6762 43.9205 56.8548 42.8839 57.5253C42.8305 57.5594 42.7697 57.5774 42.7078 57.5774C42.6459 57.5774 42.5852 57.5594 42.5318 57.5253C42.5133 57.5133 40.6034 56.3404 39.3432 57.4882C39.1695 57.6449 38.9581 57.9288 38.7328 58.2335C38.0993 59.0847 37.3111 60.1449 36.2774 60.0045C36.1274 59.9869 35.7858 60.5856 35.5825 60.9444C35.0717 61.8422 34.4358 62.959 33.2823 63.1435C33.2116 63.1552 33.1401 63.1611 33.0686 63.1611ZM32.3128 62.2312C32.5537 62.3257 32.9244 62.439 33.178 62.3981C34.0113 62.2646 34.5303 61.353 34.9883 60.549C35.4076 59.8131 35.7696 59.1779 36.3608 59.2572C37.0111 59.3441 37.6649 58.4665 38.1902 57.7601C38.4375 57.4284 38.6709 57.1148 38.8944 56.9108C40.2767 55.6517 42.0998 56.4513 42.6893 56.7654C43.5579 56.1522 44.4266 55.133 44.8992 54.171C45.1007 53.7586 45.3914 52.9862 45.0781 52.4473C44.6675 51.7421 43.5527 51.982 42.892 52.3767C42.7182 52.4813 42.5445 52.5945 42.3638 52.7148C41.6463 53.1889 40.9039 53.6787 40.0219 53.5918C39.7747 53.5599 39.531 53.5021 39.294 53.4193C39.1361 53.3657 38.9753 53.3221 38.8128 53.289C37.9765 53.1398 37.0111 53.6352 36.3527 54.5481C35.7209 55.4295 35.3983 56.5343 35.0862 57.6059C35.0611 57.6919 35.0086 57.7654 34.9381 57.8129C34.8676 57.8605 34.7837 57.8791 34.7017 57.8653C33.8405 57.7204 33.0292 58.5099 32.7032 59.3265C32.4437 59.9856 32.2619 61.3876 32.3128 62.2312Z" fill="#041D36"/>
<path d="M46.1367 65.5966L44.2477 76.4119L28.0566 73.0127L30.2152 67.4511C30.0279 67.2365 29.7657 66.9359 29.4059 66.5235C27.2492 64.0514 27.8516 62.2285 31.2949 62.8154C33.3515 63.6787 34.4422 63.226 36.422 60.0343H36.9617C38.0135 58.5315 38.7322 57.7465 40.4698 56.6353L40.525 56.6593C41.8893 57.2549 42.6779 57.5992 43.708 58.1804C47.242 57.9317 47.2697 60.1729 46.1367 65.5966Z" fill="#FF9D8E"/>
<path d="M44.4771 76.2713C44.4618 76.2718 44.4465 76.2707 44.4313 76.2681C44.3401 76.2551 44.2572 76.2035 44.2011 76.1242C44.145 76.045 44.1201 75.9443 44.1319 75.8453C44.3908 73.6903 45.0087 70.7238 45.7233 67.2896C46.1015 65.4745 46.4924 63.5978 46.8572 61.7028C47.0987 60.4519 46.896 59.4805 46.2717 58.8931C45.6677 58.3265 44.7921 58.251 44.2396 58.4713C44.1959 58.4888 44.1493 58.4965 44.1028 58.494C44.0562 58.4915 44.0106 58.4789 43.9686 58.4568L42.2313 57.5427C42.149 57.4986 42.0861 57.4209 42.0563 57.3267C42.0265 57.2323 42.0322 57.129 42.0722 57.0393C42.1122 56.9495 42.1832 56.8806 42.2697 56.8476C42.3563 56.8145 42.4514 56.82 42.5342 56.8628L44.1453 57.7108C44.8697 57.4848 45.9359 57.5792 46.7258 58.3215C47.3049 58.8635 47.9114 59.9174 47.5364 61.8577C47.1699 63.7583 46.7785 65.6351 46.4003 67.4564C45.7187 70.7301 45.0747 73.8234 44.8199 75.9428C44.809 76.0335 44.7682 76.1169 44.7052 76.1769C44.6422 76.2374 44.5611 76.2713 44.4771 76.2713ZM38.8644 59.6336C38.8007 59.6334 38.7384 59.6143 38.6841 59.5783C38.6298 59.5422 38.5856 59.4907 38.5564 59.4293C38.5272 59.3678 38.514 59.2988 38.5184 59.2299C38.5228 59.1608 38.5445 59.0945 38.5812 59.038C38.8981 58.5521 39.3543 58.1941 39.8784 58.02C39.9666 57.991 40.0618 58.0012 40.1431 58.0485C40.2244 58.0958 40.2851 58.1762 40.3119 58.2721C40.3386 58.3681 40.3291 58.4716 40.2857 58.5599C40.2422 58.6483 40.1682 58.7143 40.0799 58.7434C39.7039 58.8681 39.3766 59.125 39.1493 59.4737C39.1171 59.5232 39.0744 59.5636 39.0248 59.5914C38.9752 59.6193 38.9202 59.6337 38.8644 59.6336Z" fill="#041D36"/>
<path d="M41.7193 57.9161C41.6411 57.9161 41.5651 57.8874 41.5037 57.8348C41.4424 57.7821 41.3991 57.7084 41.381 57.6256C41.363 57.5429 41.3711 57.456 41.4041 57.3789C41.4371 57.3018 41.4931 57.2391 41.5629 57.2009L42.1658 56.8666C42.2065 56.8442 42.2509 56.8308 42.2965 56.8272C42.342 56.8235 42.3877 56.8296 42.4311 56.8452C42.4744 56.8608 42.5145 56.8854 42.5491 56.9178C42.5836 56.9502 42.612 56.9897 42.6326 57.034C42.6531 57.0783 42.6654 57.1266 42.6688 57.1761C42.6721 57.2256 42.6665 57.2753 42.6522 57.3224C42.6379 57.3695 42.6152 57.4131 42.5854 57.4507C42.5556 57.4883 42.5193 57.5191 42.4785 57.5414L41.8762 57.8733C41.8277 57.9007 41.774 57.9154 41.7193 57.9161ZM42.0367 64.4434C41.3481 64.4495 40.683 64.1716 40.1754 63.6658C40.1401 63.6325 40.1114 63.5917 40.091 63.546C40.0705 63.5003 40.0588 63.4506 40.0565 63.3999C40.0541 63.3491 40.0612 63.2984 40.0773 63.2506C40.0934 63.203 40.1182 63.1593 40.1502 63.1223C40.1822 63.0852 40.2208 63.0556 40.2636 63.0351C40.3063 63.0147 40.3525 63.0038 40.3992 63.0032C40.446 63.0026 40.4923 63.0122 40.5356 63.0315C40.5788 63.0508 40.618 63.0794 40.6508 63.1156C41.3319 63.8081 42.4924 63.8786 43.2377 63.2667C43.3113 63.2063 43.4039 63.1802 43.4952 63.1941C43.5865 63.2079 43.6689 63.2607 43.7245 63.3407C43.78 63.4207 43.804 63.5214 43.7912 63.6206C43.7785 63.7198 43.73 63.8095 43.6564 63.8698C43.188 64.247 42.6195 64.4483 42.0367 64.4434ZM28.1126 72.9878C28.0544 72.9877 27.9971 72.9718 27.946 72.9414C27.895 72.911 27.8517 72.8672 27.8203 72.8139C27.7889 72.7606 27.7703 72.6996 27.7662 72.6366C27.7622 72.5734 27.7727 72.5102 27.797 72.4527C28.5029 70.7742 29.1411 69.0379 29.6947 67.2934C29.7758 67.0385 29.8401 66.7822 29.7642 66.6355C29.7063 66.5197 29.5395 66.4366 29.3657 66.3491L29.2783 66.3043C28.7386 66.0242 28.3164 65.6295 28.0622 65.1642C27.7952 64.6813 27.6175 63.9397 27.9203 63.307C28.3089 62.4949 29.0519 62.0007 30.0682 61.8766C30.879 61.7785 31.6926 61.9453 32.1397 62.1543C32.184 62.172 32.2246 62.1994 32.2588 62.2347C32.2931 62.2701 32.3204 62.3127 32.339 62.3599C32.3577 62.4071 32.3672 62.4579 32.3672 62.5092C32.3671 62.5606 32.3574 62.6114 32.3387 62.6586C32.32 62.7057 32.2926 62.7482 32.2583 62.7835C32.2239 62.8187 32.1833 62.846 32.1389 62.8636C32.0946 62.8812 32.0473 62.8889 32.0002 62.8859C31.953 62.8831 31.9069 62.8697 31.8646 62.8468C31.1807 62.527 29.1862 62.2972 28.5365 63.6546C28.3963 63.9479 28.4438 64.3867 28.6575 64.7739C28.8938 65.2007 29.2899 65.4702 29.5806 65.6213L29.6617 65.6622C29.9026 65.7844 30.2026 65.9361 30.3722 66.2634C30.612 66.7261 30.4447 67.2544 30.3543 67.5383C29.7937 69.3061 29.1469 71.0639 28.4317 72.7637C28.4042 72.8307 28.3595 72.8875 28.3028 72.9273C28.2461 72.9671 28.18 72.9881 28.1126 72.9878Z" fill="#041D36"/>
<path d="M42.6422 59.1835C42.5524 59.1839 42.4638 59.161 42.3839 59.1166C42.304 59.0722 42.235 59.0076 42.1828 58.9282C42.1306 58.8488 42.0967 58.757 42.0839 58.6604C42.0711 58.5638 42.0798 58.4653 42.1093 58.3731C42.1388 58.2809 42.1881 58.1978 42.2533 58.1307C42.3184 58.0635 42.3975 58.0144 42.4837 57.9873C42.5699 57.9602 42.6609 57.9561 42.7489 57.9751C42.837 57.9942 42.9195 58.036 42.9896 58.0968C43.0476 58.1465 43.0957 58.2084 43.1313 58.2787C43.1669 58.3489 43.1892 58.4263 43.197 58.506C43.2055 58.5913 43.1976 58.6776 43.1735 58.7592C43.1494 58.8409 43.1098 58.9162 43.0572 58.98C43.0045 59.0439 42.9401 59.0951 42.8681 59.1301C42.7961 59.1652 42.7181 59.1834 42.6393 59.1835H42.6422ZM42.6422 58.428H42.6277C42.6056 58.43 42.5843 58.4379 42.5657 58.4511C42.5471 58.4643 42.5319 58.4823 42.5213 58.5034C42.5107 58.5246 42.5051 58.5483 42.505 58.5724C42.5049 58.5965 42.5104 58.6202 42.5208 58.6415C42.5313 58.6628 42.5464 58.6809 42.5649 58.6941C42.5834 58.7074 42.6046 58.7156 42.6267 58.7178C42.6488 58.7199 42.671 58.7161 42.6914 58.7066C42.7118 58.6971 42.7297 58.6823 42.7435 58.6634C42.7655 58.6332 42.7759 58.5948 42.7725 58.5564C42.7687 58.5215 42.7534 58.4892 42.7294 58.4657C42.7055 58.4421 42.6745 58.4287 42.6422 58.428ZM40.2371 60.0131C40.3551 60.0131 40.4508 59.9091 40.4508 59.7808C40.4508 59.6525 40.3551 59.5485 40.2371 59.5485C40.1191 59.5485 40.0234 59.6525 40.0234 59.7808C40.0234 59.9091 40.1191 60.0131 40.2371 60.0131Z" fill="#041D36"/>
<path d="M40.4089 60.2514C40.2746 60.2514 40.1451 60.196 40.0451 60.0958C39.9451 59.9956 39.8818 59.8578 39.8672 59.7087C39.8553 59.5888 39.8754 59.4676 39.9252 59.3605C39.9749 59.2534 40.052 59.1651 40.1466 59.1069C40.2412 59.0488 40.3492 59.0232 40.4568 59.0335C40.5644 59.0438 40.6669 59.0896 40.7513 59.165C40.8356 59.2403 40.8981 59.3419 40.9307 59.457C40.9634 59.572 40.9648 59.6952 40.9346 59.8111C40.9046 59.927 40.8444 60.0303 40.7618 60.1081C40.6791 60.1857 40.5777 60.2343 40.4704 60.2476C40.4499 60.2501 40.4294 60.2514 40.4089 60.2514ZM40.2804 59.6577C40.2845 59.6958 40.3016 59.7306 40.3283 59.7547C40.3554 59.7785 40.3897 59.7899 40.4241 59.7862C40.458 59.7813 40.4888 59.7617 40.5099 59.7317C40.531 59.7016 40.5407 59.6636 40.5368 59.6256L40.2804 59.6577ZM40.4094 59.496H40.3954C40.3614 59.5008 40.3306 59.5204 40.3096 59.5504C40.2885 59.5805 40.2788 59.6185 40.2826 59.6565L40.5414 59.6244C40.5379 59.5887 40.5227 59.5557 40.4988 59.5318C40.4748 59.5078 40.4438 59.4946 40.4117 59.4947L40.4094 59.496ZM25.8899 101.837C25.8072 101.837 25.7274 101.803 25.6656 101.742C25.6038 101.68 25.5643 101.596 25.5545 101.504C25.5298 101.273 25.3499 101.112 25.1893 101.038C25.0286 100.965 24.7998 100.938 24.6369 101.084C24.5798 101.134 24.5097 101.163 24.4368 101.166C24.3639 101.168 24.2923 101.144 24.2325 101.098C24.1727 101.051 24.1281 100.984 24.1051 100.907C24.0823 100.829 24.0823 100.746 24.1054 100.669C25.0394 97.5361 24.4537 93.8421 22.6128 91.2587C22.5851 91.2196 22.5645 91.1753 22.5522 91.1278C22.54 91.0798 22.5362 91.0298 22.5412 90.9808C22.5462 90.9312 22.5598 90.8838 22.5814 90.84C22.6029 90.7967 22.6318 90.7587 22.6666 90.7274C22.7013 90.6966 22.7412 90.6737 22.7839 90.6601C22.8266 90.646 22.8713 90.6419 22.9155 90.6476C22.9596 90.6534 23.0023 90.6685 23.0412 90.6925C23.0801 90.7164 23.1144 90.7488 23.142 90.7879C24.0616 92.1059 24.7003 93.6409 25.0096 95.2759C25.3189 96.911 25.2907 98.6029 24.9272 100.224C25.1053 100.224 25.2817 100.263 25.4463 100.34C25.8775 100.537 26.1791 100.95 26.2264 101.415C26.2317 101.464 26.2282 101.514 26.2162 101.562C26.2042 101.61 26.1839 101.654 26.1564 101.693C26.1289 101.732 26.0948 101.765 26.056 101.789C26.0173 101.813 25.9746 101.829 25.9305 101.834C25.917 101.836 25.9034 101.837 25.8899 101.837Z" fill="#041D36"/>
<path d="M31.3166 64.533C31.2312 64.5332 31.1488 64.4995 31.0849 64.4379C30.9182 64.2841 30.7149 64.1848 30.4985 64.1514C30.282 64.118 30.0613 64.1518 29.8619 64.249C29.7787 64.2925 29.6832 64.2984 29.5961 64.2653C29.5091 64.2322 29.4377 64.1628 29.3977 64.0724C29.3577 63.9821 29.3523 63.8782 29.3828 63.7836C29.4132 63.6889 29.477 63.6113 29.5601 63.5679C29.8831 63.4058 30.242 63.3481 30.5943 63.4018C30.9465 63.4555 31.277 63.6183 31.5465 63.8707C31.5991 63.9216 31.6362 63.9888 31.6529 64.0632C31.6696 64.1376 31.6651 64.2158 31.64 64.2874C31.6149 64.359 31.5703 64.4206 31.5122 64.464C31.4541 64.5074 31.3853 64.5305 31.3148 64.5304L31.3166 64.533ZM36.3276 59.6318C37.5148 59.7917 38.4465 57.8206 39.1276 57.2005C40.5945 55.8639 42.7134 57.2005 42.7134 57.2005C43.6927 56.5665 44.6824 55.4427 45.2157 54.3479C45.5342 53.6963 45.7445 52.8691 45.3813 52.2458C44.8602 51.3481 43.5902 51.5338 42.7342 52.0463C41.8783 52.5587 41.0357 53.3117 40.0628 53.2153C39.6575 53.1757 39.2793 52.988 38.8785 52.9163C37.8176 52.7274 36.7509 53.3966 36.089 54.3177C35.427 55.2387 35.0895 56.3801 34.7646 57.4945C33.7604 57.3251 32.7985 58.1656 32.3937 59.1785C32.0775 59.9718 31.8847 61.6338 31.9981 62.4976C31.9981 62.4976 32.7279 62.8532 33.2381 62.7714C34.9881 62.4919 35.4705 59.516 36.3276 59.6318Z" fill="#041D36"/>
<g opacity="0.2">
<path d="M37.9573 62.6102C38.5193 62.3335 38.8597 61.8328 38.7177 61.4921C38.5758 61.1513 38.005 61.0994 37.443 61.3761C36.8811 61.6529 36.5406 62.1535 36.6826 62.4943C36.8246 62.835 37.3953 62.887 37.9573 62.6102Z" fill="#007FFE"/>
<path d="M37.2613 63.1648C36.8444 63.1648 36.5085 62.986 36.3667 62.6479C36.1379 62.0995 36.5404 61.4039 37.2996 61.0293C38.0588 60.6547 38.8053 60.7857 39.034 61.334C39.2628 61.8823 38.8603 62.5774 38.1011 62.952C37.8381 63.0864 37.5519 63.1589 37.2613 63.1648ZM38.1376 61.5745C37.9465 61.5795 37.7585 61.6286 37.5862 61.7187C37.1108 61.9529 36.977 62.2853 36.9996 62.3375C37.0222 62.3897 37.3384 62.4993 37.8144 62.2651C38.2904 62.0309 38.4237 61.6985 38.4011 61.6469C38.3895 61.6167 38.2945 61.5745 38.1376 61.5745Z" fill="#007FFE"/>
</g>
<path d="M32.9944 63.3916C32.4471 63.3916 31.8489 63.1089 31.7747 63.0724C31.7213 63.0463 31.6748 63.0059 31.6396 62.9551C31.6044 62.9043 31.5816 62.8446 31.5732 62.7815C31.4493 61.8454 31.6578 60.1009 31.9936 59.2592C32.399 58.2468 33.3401 57.3144 34.4352 57.3251C34.7323 56.3178 35.0861 55.2161 35.7335 54.3158C36.381 53.4155 37.5392 52.5392 38.8537 52.774C39.0434 52.8116 39.2309 52.8616 39.4149 52.9239C39.6095 52.9928 39.8096 53.0417 40.0126 53.0699C40.667 53.1329 41.2814 52.7287 41.9317 52.2994C42.1118 52.1804 42.2983 52.0576 42.4853 51.9455C43.5602 51.3021 44.9726 51.2083 45.5934 52.2742C45.9646 52.9119 45.9108 53.7933 45.4411 54.7559C44.8788 55.9067 43.8462 57.0852 42.8096 57.7557C42.7563 57.7898 42.6955 57.8078 42.6336 57.8078C42.5717 57.8078 42.5109 57.7898 42.4576 57.7557C42.439 57.7438 40.5291 56.5709 39.269 57.7186C39.0953 57.8754 38.8839 58.1593 38.6586 58.464C38.025 59.3152 37.2369 60.3753 36.2032 60.235C36.0532 60.2174 35.7115 60.8161 35.5082 61.1749C34.9975 62.0727 34.3616 63.1895 33.208 63.374C33.1373 63.3857 33.0659 63.3915 32.9944 63.3916ZM32.2386 62.4617C32.4795 62.5561 32.8502 62.6695 33.1038 62.6286C33.9371 62.4951 34.456 61.5835 34.9141 60.7795C35.3334 60.0436 35.6953 59.4083 36.2866 59.4877C36.9369 59.5745 37.5907 58.697 38.116 57.9906C38.3633 57.6588 38.5966 57.3453 38.8202 57.1413C40.2025 55.8822 42.0255 56.6817 42.6151 56.9959C43.4837 56.3827 44.3524 55.3634 44.825 54.4015C45.0265 53.9891 45.3172 53.2166 45.0039 52.6777C44.5933 51.9726 43.4785 52.2125 42.8177 52.6072C42.644 52.7117 42.4703 52.825 42.2896 52.9453C41.5721 53.4193 40.8297 53.9091 39.9477 53.8223C39.7005 53.7904 39.4567 53.7326 39.2198 53.6497C39.0618 53.5961 38.9011 53.5526 38.7385 53.5194C37.9023 53.3702 36.9369 53.8657 36.2785 54.7785C35.6467 55.6599 35.3241 56.7648 35.012 57.8364C34.9869 57.9224 34.9344 57.9958 34.8639 58.0434C34.7934 58.091 34.7095 58.1096 34.6275 58.0957C33.7663 57.9509 32.955 58.7404 32.629 59.5569C32.3695 60.2161 32.1877 61.6181 32.2386 62.4617Z" fill="#041D36"/>
<path d="M36.8501 57.4852C36.824 57.4852 36.798 57.4821 36.7725 57.4758C36.7279 57.4648 36.6858 57.4444 36.6486 57.4156C36.6113 57.387 36.5796 57.3505 36.5553 57.3085C36.531 57.2664 36.5145 57.2196 36.5068 57.1706C36.4992 57.1217 36.5005 57.0716 36.5107 57.0231C36.6324 56.4433 36.8611 55.6079 37.4373 55.0577C37.995 54.5257 38.976 54.3387 39.5875 54.9638C39.6528 55.033 39.6905 55.1272 39.6924 55.2262C39.6945 55.3252 39.6606 55.4211 39.5982 55.4932C39.5358 55.5654 39.4498 55.608 39.3588 55.6119C39.2678 55.6158 39.1789 55.5807 39.1115 55.5141C38.7988 55.1949 38.2197 55.3164 37.8954 55.6255C37.5711 55.9347 37.3487 56.4213 37.1871 57.1912C37.1697 57.2744 37.127 57.3488 37.0658 57.4021C37.0046 57.4555 36.9286 57.4848 36.8501 57.4852ZM43.3286 55.3659C43.2681 55.3658 43.2087 55.3485 43.1562 55.3157C43.1037 55.283 43.0601 55.2359 43.0295 55.1792C42.9989 55.1225 42.9825 55.0581 42.9818 54.9923C42.9811 54.9266 42.9963 54.8617 43.0257 54.8043C43.1131 54.6331 43.2041 54.4555 43.2179 54.295C43.2278 54.1861 43.1855 54.0929 43.1519 54.0765C43.0749 54.0387 42.8734 54.2232 42.7072 54.5481C42.6624 54.6357 42.5875 54.7003 42.4989 54.7278C42.4102 54.7553 42.3152 54.7434 42.2346 54.6947C42.1541 54.6461 42.0946 54.5646 42.0693 54.4683C42.044 54.372 42.0549 54.2686 42.0997 54.181C42.4645 53.4665 42.9776 53.1624 43.438 53.3884C43.7577 53.5452 43.9477 53.938 43.91 54.3661C43.8822 54.6853 43.7438 54.9554 43.6326 55.172C43.6024 55.2308 43.5584 55.2798 43.5049 55.3139C43.4514 55.348 43.3905 55.366 43.3286 55.3659Z" fill="white"/>
<path d="M29.1341 62.7853C29.0653 62.7859 28.9979 62.764 28.9407 62.7224C27.6265 61.7577 26.4902 60.5339 25.5905 59.1143C25.3334 58.707 25.0155 58.0932 25.2234 57.4775C25.4093 56.9247 25.9004 56.6742 26.3463 56.4828L29.9171 54.9473C31.8715 54.1018 34.6993 53.1096 37.0737 53.1512C37.1658 53.1519 37.2539 53.1924 37.3186 53.2638C37.3833 53.3352 37.4192 53.4315 37.4185 53.5317C37.4178 53.6319 37.3806 53.7277 37.3149 53.798C37.2492 53.8683 37.1606 53.9074 37.0684 53.9066H37.0633C34.8047 53.8689 32.0685 54.8327 30.1719 55.6473L26.6017 57.1829C26.2959 57.3138 25.9646 57.4756 25.8749 57.735C25.8008 57.9547 25.8923 58.2569 26.1644 58.6856C27.0138 60.0278 28.0871 61.185 29.3287 62.0972C29.3911 62.1422 29.4384 62.2079 29.4637 62.2845C29.489 62.3611 29.4908 62.4445 29.4689 62.5224C29.4471 62.6002 29.4026 62.6683 29.3423 62.7164C29.282 62.7646 29.209 62.7903 29.1341 62.7897V62.7853Z" fill="#041D36"/>
<path d="M34.0357 92.7624C33.3714 92.7624 32.7072 92.5304 32.1101 92.277C30.2867 91.5033 28.5739 90.4516 27.0233 89.1534C26.9046 89.0538 26.725 88.9015 26.6254 88.6695C26.3903 88.1158 26.7603 87.5444 26.882 87.3567C27.8346 85.8932 29.0311 84.6366 30.4093 83.6522C30.8367 83.3483 31.4789 82.9724 32.1131 83.2117C32.6736 83.426 32.9597 83.9943 33.1855 84.5772C33.3998 85.1319 33.6002 85.6992 33.7803 86.2633C34.1075 87.2853 34.3809 88.327 34.5992 89.3828C34.6571 89.6675 34.6987 89.9626 34.7382 90.2483C34.8273 90.9005 34.9119 91.5168 35.1951 92.0059C35.222 92.0528 35.2393 92.1055 35.2456 92.1602C35.2519 92.2149 35.2471 92.2702 35.2316 92.3229C35.216 92.3755 35.19 92.4235 35.1555 92.4642C35.121 92.5043 35.0788 92.5361 35.0317 92.557C34.7152 92.6951 34.3768 92.765 34.0357 92.7624ZM31.6822 83.891C31.4505 83.891 31.1645 84.0167 30.7898 84.2847C29.4846 85.2164 28.3518 86.4057 27.4501 87.7915C27.2346 88.1247 27.2259 88.2801 27.2566 88.352C27.2873 88.424 27.3788 88.497 27.4472 88.5548C28.9456 89.8103 30.6006 90.8281 32.3626 91.5768C33.0095 91.8505 33.7392 92.0992 34.3988 91.9767C34.2013 91.4631 34.1248 90.9063 34.0513 90.3645C34.0119 90.0804 33.9754 89.8108 33.9222 89.5533C33.7094 88.5256 33.4431 87.5115 33.1247 86.5162C32.951 85.9672 32.7541 85.415 32.5456 84.8749C32.3817 84.4531 32.1889 84.0459 31.8837 83.9307C31.8191 83.9051 31.751 83.8916 31.6822 83.891Z" fill="#007FFE"/>
<path d="M34.6524 92.5411C34.5799 92.5411 34.5092 92.5166 34.4501 92.4707C34.3911 92.4249 34.3468 92.3602 34.3234 92.2857C34.2999 92.2111 34.2986 92.1303 34.3195 92.0547C34.3403 91.9791 34.3825 91.9129 34.4399 91.8644C36.253 90.3435 37.9301 88.6407 39.4492 86.7778C39.5001 86.7147 39.6368 86.5468 39.6304 86.4628C39.627 86.4201 39.5807 86.3372 39.3797 86.1928C38.537 85.5791 37.5974 85.1401 36.6081 84.8971C36.3834 84.8419 36.1541 84.8022 35.9977 84.8851C35.8043 84.9878 35.6943 85.2897 35.6045 85.6015C35.2402 86.8659 34.8076 88.6964 34.6878 90.0437C34.6834 90.0932 34.6701 90.1412 34.6487 90.185C34.6272 90.2288 34.5981 90.2674 34.5629 90.2992C34.5276 90.331 34.4871 90.3544 34.4434 90.369C34.3997 90.3836 34.3539 90.3883 34.3085 90.3836C34.263 90.379 34.2189 90.3644 34.1786 90.3414C34.1382 90.318 34.1026 90.2861 34.0735 90.2481C34.0445 90.2095 34.0227 90.1657 34.0093 90.1183C33.996 90.0708 33.9913 90.0208 33.9958 89.9712C34.1533 88.2027 34.7596 86.0051 34.9414 85.3758C35.0266 85.0796 35.2038 84.4654 35.6943 84.2058C36.0452 84.017 36.4315 84.0801 36.7633 84.1599C37.8356 84.4232 38.8542 84.8992 39.7677 85.564C39.9235 85.6771 40.2889 85.9414 40.3242 86.3971C40.3566 86.8033 40.1059 87.112 39.971 87.2788C38.4225 89.1777 36.7127 90.9134 34.8644 92.4629C34.8038 92.514 34.7292 92.5417 34.6524 92.5411Z" fill="#007FFE"/>
<path d="M46.6608 84.3776C46.6006 84.3776 46.5414 84.3604 46.4892 84.3281C46.4368 84.2958 46.3932 84.2489 46.3625 84.1925C46.3317 84.1362 46.3151 84.0721 46.314 84.0069C46.3129 83.9412 46.3274 83.8766 46.3562 83.8192C46.8351 82.8635 46.8044 81.7415 46.7714 80.5507C46.7477 79.6748 46.7228 78.7691 46.9087 77.8968C47.0114 77.4599 47.1412 77.0308 47.2973 76.6127C47.4227 76.2727 47.5321 75.9255 47.6251 75.5735C47.6601 75.4573 47.6745 75.3353 47.6678 75.2138C47.6472 75.0683 47.534 74.9109 47.3326 74.7466C46.8921 74.39 46.3578 74.196 45.8084 74.194C45.7162 74.194 45.6278 74.1543 45.5627 74.0834C45.4975 74.0125 45.4609 73.9164 45.4609 73.8162C45.4609 73.716 45.4975 73.6199 45.5627 73.5491C45.6278 73.4783 45.7162 73.4385 45.8084 73.4385C46.5064 73.4417 47.1851 73.6879 47.745 74.1408C48.0971 74.4281 48.3009 74.7498 48.3508 75.0975C48.3748 75.3228 48.3551 75.5506 48.2927 75.767C48.1944 76.1445 48.0784 76.5162 47.9455 76.8807C47.8002 77.267 47.6798 77.6633 47.5839 78.0668C47.4184 78.8437 47.4419 79.6993 47.4645 80.5272C47.499 81.765 47.5335 83.0455 46.9649 84.179C46.9353 84.2384 46.8914 84.2885 46.838 84.3234C46.7844 84.3589 46.7232 84.3771 46.6608 84.3776Z" fill="#041D36"/>
<path d="M57.202 94.3002C57.1147 94.3007 57.0303 94.2653 56.966 94.2006C56.9013 94.1365 56.862 94.0484 56.8548 93.9535C56.7162 92.1427 56.0538 90.4258 54.9623 89.0499C54.5565 88.5462 54.0832 88.0697 53.6232 87.6114C52.7547 86.7438 51.8545 85.8486 51.3293 84.6442C51.1768 84.2771 51.0449 83.9002 50.9336 83.5154C50.8291 83.1504 50.7039 82.7933 50.5586 82.445C49.9341 81.0362 48.5495 80.0409 47.1129 79.9679C47.0673 79.9653 47.0225 79.9533 46.9811 79.9324C46.9398 79.9111 46.9027 79.8813 46.8719 79.8448C46.8412 79.8078 46.8174 79.7651 46.8019 79.7181C46.7864 79.6717 46.7795 79.6222 46.7816 79.5727C46.7838 79.5226 46.7949 79.4741 46.8143 79.4293C46.8337 79.3845 46.8611 79.3438 46.8949 79.3104C46.9287 79.2771 46.9681 79.251 47.0111 79.2343C47.0541 79.2176 47.0997 79.2098 47.1453 79.2124C48.8291 79.2979 50.4526 80.4653 51.1845 82.1165C51.3418 82.4924 51.4775 82.8788 51.5902 83.2729C51.6928 83.6291 51.8147 83.9784 51.9547 84.3188C52.4213 85.3887 53.2323 86.1958 54.0913 87.0525C54.5647 87.5248 55.0548 88.0134 55.4846 88.553C56.673 90.0499 57.3953 91.9175 57.5468 93.8878C57.554 93.9879 57.5248 94.087 57.4648 94.1631C57.4053 94.2392 57.32 94.2867 57.2284 94.2945C57.2197 94.2971 57.2111 94.2992 57.202 94.3002Z" fill="#041D36"/>
<path d="M56.041 96.3834C56.0189 96.3834 55.9968 96.3813 55.9748 96.3772C55.8846 96.3584 55.805 96.301 55.7537 96.2186C55.7019 96.1357 55.6822 96.0346 55.6995 95.9366C55.7882 95.4439 55.9738 94.9778 56.2433 94.57C56.5129 94.1628 56.8601 93.8229 57.2611 93.5742C57.3009 93.5481 57.345 93.5314 57.391 93.5241C57.4371 93.5168 57.4841 93.52 57.5287 93.533C57.5738 93.546 57.6155 93.5685 57.6524 93.5992C57.6893 93.63 57.72 93.6686 57.7426 93.7129C57.7656 93.7567 57.78 93.8052 57.7853 93.8552C57.7905 93.9053 57.7862 93.9564 57.7733 94.0049C57.7603 94.0528 57.7383 94.0982 57.709 94.1373C57.6797 94.1764 57.6433 94.2087 57.602 94.2322C57.2893 94.4267 57.0184 94.692 56.8083 95.0101C56.5978 95.3286 56.4529 95.6921 56.3834 96.0768C56.368 96.1634 56.3254 96.2411 56.263 96.2969C56.2007 96.3532 56.122 96.3834 56.041 96.3834ZM69.4223 83.9056C66.4689 83.9056 62.4431 83.4937 59.9324 82.3358C59.8869 82.3196 59.8447 82.2935 59.8087 82.2586C59.7727 82.2237 59.7439 82.1809 59.7238 82.1329C59.7041 82.0855 59.6931 82.0339 59.6926 81.9812C59.6921 81.9291 59.7017 81.8769 59.7204 81.829C59.7391 81.7805 59.767 81.7372 59.8025 81.7012C59.8375 81.6658 59.8792 81.6381 59.9243 81.6204C59.9698 81.6032 60.0183 81.5964 60.0662 81.6001C60.1142 81.6043 60.1612 81.6188 60.2034 81.6434C62.6177 82.7565 66.5404 83.1543 69.4218 83.1543C69.4352 83.1559 69.4487 83.1559 69.4626 83.1543C69.5547 83.1543 69.6429 83.194 69.7081 83.2649C69.7734 83.3358 69.8098 83.4317 69.8098 83.5323C69.8098 83.6324 69.7734 83.7284 69.7081 83.7993C69.6429 83.8702 69.5547 83.9098 69.4626 83.9098L69.4223 83.9056Z" fill="#041D36"/>
<path d="M64.6614 112.392C64.4144 112.392 64.2053 112.266 64.047 112.166L64.0029 112.139C63.0667 111.572 61.8941 111.618 60.7598 111.665C60.603 111.672 60.4462 111.678 60.2908 111.682C57.2118 111.774 54.1505 111.144 51.3146 109.835C51.2695 109.819 51.2273 109.791 51.1918 109.756C51.1563 109.722 51.128 109.679 51.1084 109.631C51.0887 109.584 51.0786 109.532 51.0781 109.48C51.0777 109.428 51.0873 109.376 51.106 109.328C51.1247 109.28 51.1525 109.237 51.1875 109.202C51.2225 109.166 51.2637 109.139 51.3088 109.121C51.3544 109.104 51.4024 109.096 51.4498 109.1C51.4978 109.104 51.5443 109.118 51.587 109.142C54.3313 110.409 57.2938 111.018 60.2735 110.93C60.4265 110.925 60.5809 110.919 60.7368 110.912C61.967 110.862 63.2394 110.81 64.3453 111.479L64.3933 111.508C64.4916 111.57 64.6153 111.645 64.6753 111.633C64.7559 111.621 64.8786 111.423 64.9252 111.348C67.2627 107.577 69.6799 103.678 70.8228 99.2329C71.865 95.177 71.8822 90.4674 70.8751 84.8359C70.8175 84.4991 70.7235 83.9897 70.9686 83.5575C71.0914 83.3416 71.2645 83.2045 71.4166 83.084C71.4473 83.0595 71.4779 83.0355 71.5077 83.0105C72.2607 82.3875 72.5647 81.1961 72.2184 80.2404C72.1844 80.1471 72.1863 80.0433 72.2228 79.9516C72.2597 79.8593 72.3283 79.7873 72.4141 79.7503C72.5 79.7138 72.5959 79.7154 72.6803 79.7555C72.7647 79.7957 72.8314 79.8702 72.865 79.9636C73.3211 81.2227 72.9191 82.7915 71.9292 83.6148C71.8952 83.6435 71.8602 83.6711 71.8257 83.6988C71.7154 83.7863 71.6108 83.8687 71.5604 83.9579C71.4655 84.1247 71.5024 84.4021 71.5604 84.6951C72.5882 90.4449 72.5666 95.2683 71.4947 99.4404C70.3221 104.002 67.8733 107.953 65.5045 111.774C65.3856 111.967 65.163 112.325 64.7774 112.385C64.7391 112.391 64.7002 112.393 64.6614 112.392Z" fill="#041D36"/>
<path d="M61.936 75.9043C61.936 75.9043 58.9534 76.0691 60.3663 76.9674C60.9758 77.3553 61.9374 77.4711 61.9374 77.4711L61.936 75.9043Z" fill="#041D36"/>
<path d="M39.4197 105.039C39.3282 105.039 39.2404 104.999 39.1754 104.929C39.1104 104.859 39.0733 104.764 39.0722 104.665C39.0722 104.591 39.0821 103.921 39.6768 103.018C39.8818 102.703 40.1227 102.736 40.2171 102.766C40.3509 102.805 40.7065 102.908 40.8454 104.415C40.8542 104.51 40.8298 104.604 40.7769 104.681C40.7241 104.756 40.6468 104.808 40.5605 104.824L39.4811 105.034C39.4608 105.038 39.4402 105.039 39.4197 105.039ZM40.048 103.787C39.9808 103.916 39.9227 104.05 39.8743 104.188L40.1123 104.142C40.0926 104.015 40.0706 103.894 40.048 103.787ZM40.2912 115.382C40.2912 115.382 39.3791 116.848 39.3183 116.588C39.1602 115.91 39.0195 115.192 39.0195 115.192L40.2912 115.382Z" fill="#041D36"/>
<path d="M39.3508 116.998C39.326 116.998 39.3012 116.996 39.2767 116.991C39.2041 116.977 39.1368 116.94 39.0831 116.885C39.0295 116.83 38.9919 116.759 38.975 116.681C38.8163 116.003 38.6739 115.278 38.6727 115.271C38.661 115.211 38.6627 115.15 38.6775 115.092C38.6923 115.033 38.7199 114.979 38.758 114.935C38.7959 114.89 38.8433 114.856 38.8959 114.836C38.9485 114.815 39.0048 114.809 39.0602 114.817L40.3342 115.007C40.3926 115.015 40.4481 115.04 40.4952 115.078C40.5424 115.117 40.5798 115.168 40.6038 115.227C40.6279 115.285 40.6378 115.35 40.6327 115.413C40.6275 115.477 40.6075 115.539 40.5745 115.592C40.5664 115.605 40.3701 115.921 40.15 116.237C39.7527 116.809 39.5611 116.998 39.3508 116.998ZM39.4597 115.641C39.4765 115.72 39.4951 115.806 39.5141 115.897C39.5645 115.827 39.6167 115.751 39.6705 115.672L39.4597 115.641ZM22.998 59.3557C22.6175 59.3557 22.2456 59.233 21.9292 59.0032C21.6129 58.7734 21.3662 58.4467 21.2206 58.0646C21.075 57.6824 21.037 57.2619 21.1112 56.8562C21.1854 56.4506 21.3686 56.0779 21.6377 55.7854C21.9068 55.4929 22.2495 55.2937 22.6227 55.2131C22.9959 55.1323 23.3827 55.1737 23.7342 55.332C24.0857 55.4903 24.3862 55.7584 24.5976 56.1023C24.809 56.4463 24.9218 56.8506 24.9218 57.2642C24.9212 57.8187 24.7183 58.3503 24.3577 58.7424C23.997 59.1344 23.508 59.355 22.998 59.3557ZM22.998 55.9283C22.755 55.9283 22.5174 56.0067 22.3153 56.1535C22.1132 56.3002 21.9557 56.5089 21.8627 56.753C21.7697 56.9971 21.7453 57.2657 21.7928 57.5249C21.8402 57.784 21.9572 58.0221 22.1291 58.2089C22.3009 58.3957 22.5199 58.523 22.7583 58.5745C22.9967 58.626 23.2437 58.5996 23.4683 58.4985C23.6928 58.3974 23.8848 58.2261 24.0198 58.0065C24.1548 57.7868 24.2269 57.5285 24.2269 57.2642C24.226 56.9105 24.0961 56.5715 23.8658 56.3216C23.6355 56.0717 23.3235 55.9312 22.998 55.9308V55.9283Z" fill="#041D36"/>
<path d="M35.3315 92.3906L36.404 103.04L35.6674 103.827L34.8329 103.04L33.7285 92.5596L35.3315 92.3906Z" fill="#007FFE"/>
<path d="M42.5809 59.0403C42.6989 59.0403 42.7946 58.9363 42.7946 58.808C42.7946 58.6797 42.6989 58.5757 42.5809 58.5757C42.4629 58.5757 42.3672 58.6797 42.3672 58.808C42.3672 58.9363 42.4629 59.0403 42.5809 59.0403Z" fill="#041D36"/>
<path d="M40.0326 117.141L35.6225 115.643C29.0826 117.674 23.0072 118.218 14.3988 116.242L14.1232 114.744C10.6984 102.054 9.78684 90.9907 16.6039 82.0828C19.4173 78.4351 21.2405 76.9417 25.1481 75.7903C26.1552 74.6885 27.0447 71.8522 28.1801 71.5952C37.9543 74.5045 43.1509 75.9174 46.6474 73.9924C48.4155 74.2178 48.9087 74.7345 48.8525 76.3896L48.3012 79.9853C53.1233 82.9778 57.526 91.9155 58.4996 93.769C59.9547 89.5577 60.4545 87.009 60.7047 82.0828C60.0048 80.0748 59.6403 78.9424 61.256 76.3896C64.6428 79.0559 67.4432 79.0785 72.8325 78.4871C74.3136 80.851 73.8095 82.0658 72.2813 84.1803C74.6659 96.4156 72.212 102.4 65.9417 112.647C59.689 112.042 56.6692 111.387 52.1601 109.65L50.7819 118.939L40.0326 117.141Z" fill="#509DFF"/>
<path d="M60.7047 82.0828C60.4545 87.009 59.9547 89.5577 58.4996 93.769C57.526 91.9155 53.1233 82.9778 48.3012 79.9853L48.8525 76.3896C48.9087 74.7345 48.4155 74.2178 46.6474 73.9924C43.1509 75.9174 37.9543 74.5045 28.1801 71.5952C27.0447 71.8522 26.1552 74.6885 25.1481 75.7903C21.2405 76.9417 19.4173 78.4351 16.6039 82.0828C9.78684 90.9907 10.6984 102.054 14.1232 114.744L14.3988 116.242C23.0072 118.218 29.0826 117.674 35.6225 115.643L40.0326 117.141L50.7819 118.939L52.1601 109.65C56.6692 111.387 59.689 112.042 65.9417 112.647C72.212 102.4 74.6659 96.4156 72.2813 84.1803M60.7047 82.0828C60.0048 80.0748 59.6403 78.9424 61.256 76.3896C64.6428 79.0559 67.4432 79.0785 72.8325 78.4871C74.3136 80.851 73.8095 82.0658 72.2813 84.1803M60.7047 82.0828C65.3898 83.7343 67.8828 84.1455 72.2813 84.1803" stroke="black" stroke-width="0.551265"/>
<path d="M30.3367 58.0267C30.2546 58.0265 30.1753 57.9948 30.1127 57.937C30.05 57.8793 30.0083 57.7993 29.9947 57.7112C29.9812 57.6232 29.9968 57.5328 30.0387 57.4561C30.0807 57.3793 30.1462 57.3212 30.2238 57.292C31.2333 56.9148 32.2854 56.6889 33.351 56.6203C33.4432 56.6143 33.5337 56.6484 33.6027 56.7151C33.6717 56.7818 33.7136 56.8755 33.719 56.9757C33.7245 57.0758 33.6931 57.1743 33.6318 57.2493C33.5705 57.3244 33.4843 57.3698 33.3921 57.3758C32.3897 57.4392 31.4 57.6511 30.4503 58.0053C30.4138 58.0193 30.3754 58.0265 30.3367 58.0267ZM31.9536 59.257C31.937 59.257 31.9203 59.2557 31.9038 59.2532C30.7971 59.0788 29.6735 59.0731 28.5653 59.2362C28.5201 59.2431 28.4741 59.2401 28.4299 59.2276C28.3857 59.2151 28.3442 59.1933 28.3078 59.1633C28.2714 59.1334 28.2408 59.096 28.2177 59.0532C28.1946 59.0104 28.1795 58.963 28.1732 58.9139C28.1669 58.8647 28.1696 58.8147 28.1811 58.7667C28.1926 58.7187 28.2127 58.6736 28.2403 58.634C28.2678 58.5945 28.3022 58.5611 28.3416 58.536C28.381 58.5109 28.4245 58.4945 28.4697 58.4877C29.6423 58.3152 30.8312 58.3211 32.0022 58.5053C32.0893 58.5188 32.1684 58.5676 32.2236 58.642C32.2788 58.7164 32.3061 58.8107 32.2998 58.9061C32.2936 59.0014 32.2543 59.0907 32.19 59.1557C32.1256 59.2209 32.0409 59.257 31.953 59.257H31.9536ZM31.0456 60.3391H30.2348C30.1427 60.3391 30.0543 60.2992 29.9891 60.2284C29.924 60.1576 29.8874 60.0615 29.8874 59.9613C29.8874 59.8611 29.924 59.765 29.9891 59.6942C30.0543 59.6234 30.1427 59.5836 30.2348 59.5836H31.0456C31.1377 59.5836 31.2261 59.6234 31.2913 59.6942C31.3565 59.765 31.3931 59.8611 31.3931 59.9613C31.3931 60.0615 31.3565 60.1576 31.2913 60.2284C31.2261 60.2992 31.1377 60.3391 31.0456 60.3391ZM44.3987 77.2921C38.7831 77.289 33.2137 76.1899 27.9555 74.0466C27.9128 74.0291 27.8737 74.0026 27.8404 73.9687C27.8071 73.9348 27.7802 73.8941 27.7614 73.8489C27.7234 73.7576 27.7203 73.6537 27.7528 73.5599C27.7853 73.4662 27.8507 73.3903 27.9346 73.349C28.0186 73.3076 28.1142 73.3043 28.2005 73.3396C34.075 75.7342 40.337 76.802 46.6039 76.4772C46.6961 76.4725 46.7862 76.5074 46.8546 76.5747C46.923 76.6419 46.9639 76.7363 46.9684 76.8364C46.973 76.9365 46.9407 77.0345 46.8787 77.1091C46.8168 77.1831 46.7302 77.228 46.6381 77.2327C45.8933 77.2723 45.1468 77.2921 44.3987 77.2921ZM44.8497 86.6024H44.8376C44.7919 86.6009 44.7471 86.5894 44.7055 86.5686C44.6639 86.5482 44.6265 86.519 44.5954 86.4825C44.5643 86.4465 44.54 86.4038 44.524 86.3574C44.5081 86.3105 44.5007 86.2609 44.5023 86.2114C44.5877 83.6493 44.8422 81.0977 45.2638 78.5752C45.2828 78.4788 45.3353 78.3948 45.4103 78.3401C45.4854 78.2858 45.577 78.265 45.6659 78.2827C45.7547 78.2999 45.8337 78.3547 45.8862 78.4344C45.9388 78.5142 45.9606 78.6133 45.9472 78.7103C45.5316 81.1973 45.2809 83.714 45.1972 86.2401C45.1936 86.3376 45.1554 86.4299 45.0907 86.4971C45.0259 86.5649 44.9396 86.6024 44.8497 86.6024Z" fill="#041D36"/>
<path d="M16.7039 116.085C16.5333 116.087 16.3644 116.046 16.2101 115.964C16.0558 115.883 15.92 115.763 15.8131 115.615C15.7062 115.466 15.6308 115.292 15.5928 115.106C15.5548 114.921 15.555 114.728 15.5935 114.542C15.6024 114.493 15.62 114.446 15.6454 114.404C15.6707 114.362 15.7033 114.327 15.7412 114.299C15.779 114.272 15.8214 114.253 15.8658 114.244C15.9102 114.236 15.9558 114.237 15.9998 114.248C16.0438 114.259 16.0853 114.28 16.122 114.309C16.1587 114.338 16.1897 114.376 16.2133 114.419C16.2369 114.462 16.2526 114.509 16.2594 114.559C16.2662 114.609 16.264 114.66 16.253 114.709C16.2334 114.804 16.2387 114.904 16.2683 114.996C16.2979 115.088 16.3506 115.169 16.42 115.228C16.4895 115.288 16.5728 115.324 16.6601 115.333C16.7474 115.341 16.835 115.321 16.9125 115.275C16.9919 115.229 17.0847 115.219 17.1703 115.249C17.2559 115.279 17.3274 115.346 17.369 115.435C17.4107 115.523 17.419 115.627 17.3923 115.723C17.3655 115.818 17.3059 115.898 17.2264 115.945C17.065 116.038 16.8857 116.086 16.7039 116.085ZM26.399 84.1194C26.3229 84.1194 26.2491 84.0907 26.1895 84.038C26.1298 83.9854 26.0879 83.9113 26.0704 83.8289C25.7032 82.1219 24.7784 80.6303 23.4775 79.6459C23.4028 79.5901 23.3509 79.5035 23.3334 79.405C23.3158 79.3065 23.334 79.2043 23.3839 79.1208C23.4339 79.0374 23.5115 78.9796 23.5996 78.9597C23.6878 78.9405 23.7793 78.9608 23.8541 79.0166C25.2968 80.1068 26.3222 81.7606 26.7287 83.6522C26.739 83.7007 26.7406 83.7507 26.7335 83.7997C26.7264 83.8488 26.7107 83.8957 26.6873 83.9379C26.664 83.9801 26.6335 84.0166 26.5974 84.0458C26.5614 84.0745 26.5206 84.0954 26.4774 84.1068C26.4518 84.1147 26.4255 84.1188 26.399 84.1194ZM26.709 87.9614C26.6228 87.962 26.5398 87.9255 26.4769 87.8592C26.4141 87.7936 26.3761 87.7034 26.3708 87.6074L26.2728 85.8488C26.2672 85.7487 26.2976 85.6501 26.3571 85.5751C26.4165 85.4995 26.5004 85.4541 26.5901 85.4478C26.6798 85.4416 26.768 85.4755 26.8353 85.5422C26.9027 85.6084 26.9436 85.7023 26.9491 85.8024L27.0472 87.56C27.0501 87.6095 27.0441 87.659 27.0298 87.706C27.0154 87.7529 26.9929 87.7967 26.9635 87.8337C26.9341 87.8707 26.8985 87.9015 26.8586 87.9234C26.8187 87.9453 26.7753 87.9578 26.731 87.9609L26.709 87.9614ZM20.0352 105.558C19.972 105.558 19.9101 105.538 19.8565 105.501C19.8029 105.463 19.7597 105.41 19.7319 105.346C19.7041 105.283 19.6927 105.212 19.6991 105.142C19.7055 105.072 19.7293 105.005 19.768 104.949C20.5966 103.755 21.7686 102.917 23.0863 102.576C23.1738 102.553 23.2657 102.57 23.3418 102.623C23.4179 102.676 23.472 102.761 23.4922 102.859C23.5124 102.956 23.4969 103.059 23.4494 103.144C23.4018 103.229 23.326 103.29 23.2385 103.312C22.0751 103.62 21.0399 104.36 20.303 105.411C20.2713 105.457 20.2307 105.494 20.1843 105.519C20.1379 105.545 20.0869 105.558 20.0352 105.558ZM35.77 110.048C35.6833 110.049 35.5998 110.011 35.5368 109.945C35.4739 109.878 35.4363 109.787 35.4318 109.69C35.3538 107.976 35.6174 106.264 36.2034 104.677C36.2194 104.63 36.2437 104.586 36.275 104.549C36.3062 104.513 36.3438 104.484 36.3854 104.463C36.427 104.443 36.4719 104.432 36.5173 104.432C36.5626 104.431 36.6076 104.441 36.6496 104.461C36.6915 104.48 36.7295 104.509 36.7613 104.545C36.7931 104.581 36.8181 104.624 36.8347 104.671C36.8514 104.718 36.8594 104.769 36.8582 104.819C36.8571 104.87 36.8468 104.92 36.828 104.966C36.2809 106.449 36.0347 108.049 36.1071 109.65C36.1094 109.7 36.103 109.75 36.0882 109.796C36.0734 109.843 36.0504 109.887 36.0207 109.923C35.991 109.96 35.955 109.99 35.9149 110.012C35.8748 110.033 35.8313 110.045 35.7869 110.048L35.77 110.048ZM40.0634 117.776C39.9996 117.777 39.9371 117.756 39.883 117.719C39.8289 117.681 39.7856 117.627 39.7579 117.563C39.0702 115.964 38.7591 113.202 38.9265 110.172C39.0928 107.158 39.6807 104.682 40.4997 103.549C40.5567 103.474 40.6379 103.426 40.7259 103.416C40.814 103.407 40.9019 103.436 40.9708 103.498C41.0396 103.56 41.084 103.65 41.0944 103.748C41.1047 103.846 41.0802 103.945 41.0262 104.023C39.5505 106.065 38.9349 113.907 40.3678 117.235C40.3926 117.292 40.4039 117.356 40.4007 117.42C40.3975 117.484 40.3798 117.545 40.3494 117.6C40.319 117.654 40.2769 117.698 40.2269 117.729C40.1768 117.76 40.1206 117.776 40.0634 117.776Z" fill="#041D36"/>
<path d="M33.7809 85.5382C33.6027 85.0653 33.3699 84.5523 32.9354 84.3828C32.476 84.203 31.9811 84.4829 31.5735 84.7806C30.2665 85.7369 29.1329 86.9605 28.2321 88.3865C28.0574 88.6634 27.8855 89.0158 28.0128 89.3229C28.072 89.4668 28.187 89.5701 28.2992 89.666C29.7834 90.9424 31.4224 91.9763 33.167 92.7375C33.9967 93.0993 34.9353 93.3965 35.7599 93.0211C35.3135 92.2286 35.3197 91.1879 35.1365 90.2797C34.9257 89.2374 34.6623 88.2098 34.3474 87.2014C34.176 86.6409 33.9872 86.0862 33.7809 85.5382Z" fill="#FFC754"/>
<path d="M34.3554 91.73C34.2958 91.7305 34.2374 91.7128 34.1858 91.6799C34.1342 91.6466 34.0914 91.5991 34.0617 91.5412C33.188 89.8452 32.4931 88.0417 31.9908 86.1668C31.965 86.0709 31.9745 85.9671 32.0171 85.879C32.0598 85.7909 32.132 85.7252 32.2179 85.6965C32.3039 85.6678 32.3965 85.6783 32.4755 85.7262C32.5544 85.7737 32.6133 85.854 32.639 85.9504C33.1262 87.769 33.8003 89.5188 34.6479 91.1643C34.6776 91.2216 34.6932 91.2868 34.6932 91.353C34.6932 91.4192 34.6776 91.4844 34.648 91.5418C34.6183 91.5991 34.5757 91.6471 34.5243 91.6799C34.473 91.7133 34.4147 91.731 34.3554 91.731V91.73Z" fill="white"/>
<path d="M35.2227 90.8039C35.3416 89.429 35.7587 87.6041 36.1285 86.2856C36.2327 85.9154 36.3737 85.5123 36.6859 85.3413C36.9356 85.2047 37.2321 85.2558 37.5033 85.3241C38.5062 85.5791 39.4588 86.0363 40.3143 86.674C40.4952 86.8095 40.6885 86.9832 40.7088 87.2256C40.7263 87.4529 40.5837 87.6526 40.4484 87.8231C38.9559 89.7037 37.3079 91.4233 35.5265 92.9582L35.2227 90.8039Z" fill="#FFC754"/>
<path d="M49.0464 110.603C49.0179 110.603 48.9899 110.599 48.9623 110.592L47.4827 110.17C47.4397 110.157 47.3993 110.135 47.3637 110.105C47.3282 110.076 47.2983 110.038 47.2757 109.995C47.2532 109.953 47.2384 109.905 47.2321 109.856C47.2259 109.807 47.2284 109.757 47.2395 109.709C47.2506 109.661 47.2701 109.615 47.2968 109.576C47.3235 109.536 47.357 109.503 47.3953 109.478C47.4336 109.452 47.476 109.436 47.52 109.429C47.564 109.422 47.6088 109.425 47.6519 109.437L49.1313 109.859C49.2112 109.882 49.2807 109.937 49.3269 110.013C49.3731 110.089 49.3927 110.181 49.3825 110.272C49.3722 110.364 49.333 110.448 49.2714 110.509C49.2098 110.569 49.1304 110.603 49.0482 110.603H49.0464ZM48.3401 114.22C48.3125 114.22 48.2855 114.216 48.2589 114.209L46.9935 113.859C46.9497 113.848 46.9084 113.827 46.8719 113.798C46.8354 113.769 46.8045 113.732 46.7809 113.689C46.7574 113.646 46.7417 113.599 46.7348 113.549C46.7278 113.5 46.7298 113.449 46.7405 113.401C46.7512 113.352 46.7705 113.306 46.7973 113.266C46.8241 113.225 46.8577 113.192 46.8963 113.166C46.9349 113.14 46.9777 113.124 47.0222 113.117C47.0666 113.11 47.1118 113.113 47.1553 113.126L48.4241 113.475C48.5044 113.497 48.5749 113.551 48.622 113.627C48.6692 113.703 48.6897 113.796 48.6799 113.888C48.6697 113.98 48.63 114.064 48.5679 114.125C48.5058 114.186 48.426 114.22 48.3429 114.22H48.3401ZM68.6096 80.0962C66.5995 80.0946 64.5987 79.7854 62.6633 79.178C61.7208 78.8834 60.7368 78.4961 59.9269 77.6629C59.8942 77.6295 59.8676 77.5888 59.8489 77.544C59.8302 77.4992 59.82 77.4502 59.8181 77.4006C59.8162 77.3511 59.8232 77.3016 59.8382 77.2552C59.8536 77.2088 59.8769 77.166 59.9073 77.1295C59.9371 77.093 59.9735 77.0633 60.0137 77.0424C60.0538 77.0216 60.0977 77.0096 60.1421 77.0075C60.1864 77.0054 60.2308 77.0132 60.2723 77.0304C60.3143 77.0477 60.3526 77.0737 60.3853 77.1071C61.085 77.8355 61.9813 78.1811 62.8431 78.4502C65.6547 79.3355 68.5998 79.5639 71.494 79.1212C71.5379 79.1144 71.5827 79.1175 71.6257 79.1301C71.6686 79.1426 71.7088 79.1645 71.7443 79.1947C71.7797 79.2244 71.8096 79.262 71.832 79.3047C71.8544 79.3475 71.8689 79.3949 71.875 79.4439C71.881 79.4935 71.8782 79.5435 71.867 79.5915C71.8558 79.6395 71.8362 79.6843 71.8091 79.7239C71.7825 79.7635 71.7489 79.7964 71.7106 79.8214C71.6724 79.8464 71.6299 79.8631 71.5855 79.8699C70.5996 80.0206 69.6049 80.0962 68.6096 80.0962ZM67.0887 68.2537C66.1868 68.2537 65.9394 67.762 65.572 67.0254L65.5646 67.0109C65.5417 66.9675 65.5272 66.9195 65.5212 66.8697C65.5156 66.8198 65.5184 66.7692 65.5305 66.7206C65.5422 66.6722 65.5627 66.6268 65.5902 66.5872C65.6183 66.5476 65.6528 66.5146 65.692 66.4901C65.7312 66.4657 65.7746 66.4503 65.8195 66.4447C65.8638 66.4391 65.9091 66.4436 65.9525 66.4579C65.9954 66.4722 66.0356 66.4959 66.0706 66.5277C66.1056 66.5595 66.1341 66.5988 66.1556 66.6433L66.1626 66.6577C66.515 67.3641 66.5883 67.5121 67.1382 67.4976C67.2283 67.4954 67.3151 67.5331 67.3796 67.6024C67.4444 67.6717 67.4818 67.767 67.4841 67.8671C67.486 67.9673 67.4519 68.0643 67.3903 68.1366C67.3282 68.209 67.2428 68.2509 67.1531 68.253L67.0887 68.2537ZM67.3417 73.5635C67.2684 73.5635 67.197 73.5367 67.1382 73.4872C67.0794 73.4377 67.0369 73.3682 67.0168 73.2892C66.9963 73.2102 67 73.126 67.0266 73.0494C67.0532 72.9728 67.1013 72.908 67.1639 72.8647L68.4401 71.9833C68.4775 71.9565 68.52 71.9384 68.5639 71.9299C68.6082 71.9215 68.653 71.9229 68.6969 71.934C68.7403 71.9452 68.7814 71.9659 68.8178 71.9949C68.8542 72.024 68.885 72.0608 68.9088 72.1033C68.9322 72.1457 68.948 72.193 68.955 72.2423C68.962 72.2916 68.9606 72.3421 68.9499 72.3906C68.9396 72.4392 68.9205 72.4849 68.8944 72.5253C68.8677 72.5656 68.8346 72.5996 68.7963 72.6255L67.5201 73.5069C67.4664 73.5439 67.4048 73.5635 67.3417 73.5635ZM69.1086 76.2327C69.0321 76.2332 68.9578 76.2046 68.8981 76.1519C68.8379 76.0993 68.7959 76.0252 68.7781 75.9423C68.7604 75.8594 68.7683 75.7723 68.801 75.6952C68.8332 75.618 68.8878 75.5549 68.9564 75.5169L69.9003 74.9887C69.9806 74.946 70.0726 74.9397 70.1566 74.9715C70.2407 75.0038 70.3102 75.0711 70.3499 75.1602C70.3896 75.2489 70.3966 75.3516 70.369 75.446C70.3415 75.5403 70.2817 75.6185 70.2028 75.6644L69.2585 76.1926C69.2118 76.2186 69.1604 76.2327 69.1086 76.2327ZM40.7847 80.3365H40.7633C36.241 80.0206 31.7754 79.044 27.4804 77.4314C27.4371 77.4168 27.3969 77.3923 27.3621 77.36C27.3273 77.3276 27.2986 77.288 27.2779 77.2432C27.2571 77.1983 27.2447 77.1488 27.2412 77.0987C27.2378 77.0482 27.2434 76.9976 27.2578 76.9496C27.2723 76.9017 27.2951 76.8573 27.3252 76.8193C27.3551 76.7817 27.3916 76.751 27.4325 76.7291C27.4733 76.7072 27.5177 76.6947 27.5629 76.6926C27.6081 76.69 27.6533 76.6978 27.6958 76.7155C31.9348 78.3068 36.3422 79.2708 40.8055 79.5826C40.8952 79.5857 40.9802 79.6285 41.0416 79.7015C41.1031 79.7745 41.1361 79.872 41.1333 79.9721C41.1306 80.0722 41.0923 80.1671 41.0269 80.2354C40.9615 80.3042 40.8744 80.3412 40.7847 80.3381V80.3365Z" fill="#041D36"/>
<path d="M45.2336 104.425C45.1493 104.425 45.0678 104.39 45.0052 104.327C44.9427 104.264 44.9035 104.177 44.8954 104.083L43.901 92.6087L24.8998 94.6619C24.8554 94.6671 24.8106 94.6619 24.7679 94.6473C24.7252 94.6327 24.6855 94.6092 24.6511 94.5774C24.6166 94.5456 24.5881 94.5065 24.5672 94.4627C24.5462 94.4189 24.5332 94.3704 24.5289 94.3209C24.5246 94.2714 24.5291 94.2213 24.5421 94.1733C24.5552 94.1259 24.5765 94.0816 24.6048 94.043C24.6332 94.0044 24.6681 93.9726 24.7075 93.9491C24.7469 93.9262 24.79 93.9116 24.8344 93.9064L44.1755 91.8203C44.2197 91.8151 44.2644 91.8203 44.3068 91.8349C44.3494 91.849 44.3888 91.873 44.423 91.9048C44.4916 91.9674 44.5353 92.0581 44.5447 92.1566L45.5706 104.012C45.5793 104.111 45.5521 104.211 45.4952 104.288C45.4382 104.365 45.3561 104.414 45.2668 104.424C45.2557 104.425 45.2446 104.425 45.2336 104.425Z" fill="#FFC754"/>
<path d="M36.5185 105.035C36.4371 105.035 36.3585 105.002 36.297 104.942L35.4847 104.155C35.4214 104.093 35.3812 104.006 35.372 103.913L34.2971 93.4317C34.292 93.3822 34.2959 93.3316 34.3084 93.2836C34.321 93.2357 34.342 93.1903 34.3702 93.1517C34.3984 93.1126 34.4333 93.0803 34.4728 93.0568C34.5123 93.0328 34.5557 93.0182 34.6003 93.013L36.1606 92.8446C36.2491 92.8347 36.3374 92.865 36.4064 92.9275C36.4754 92.9901 36.5196 93.0808 36.5292 93.1794L37.5731 103.829C37.5789 103.886 37.5731 103.943 37.5558 103.997C37.5387 104.051 37.5106 104.1 37.4739 104.139L36.7552 104.925C36.6923 104.995 36.6072 105.034 36.5185 105.035ZM36.0275 103.681L36.5044 104.142L36.8815 103.729L35.8917 93.6319L35.0067 93.7278L36.0275 103.681Z" fill="#FFC754"/>
<path d="M25.4461 99.8669C25.4018 99.8696 25.3574 99.8617 25.3155 99.845C25.2737 99.8284 25.2352 99.8023 25.2024 99.7689C25.1695 99.7356 25.1429 99.6949 25.124 99.6501C25.105 99.6052 25.0942 99.5567 25.0922 99.5067C25.0901 99.4571 25.0968 99.4076 25.1119 99.3612C25.1269 99.3143 25.1501 99.2715 25.1801 99.2345C25.21 99.198 25.2461 99.1683 25.2864 99.1469C25.3266 99.1261 25.3701 99.1141 25.4146 99.1115L44.6018 97.0901C44.6912 97.0807 44.7802 97.1109 44.8493 97.175C44.9184 97.2387 44.962 97.3309 44.9705 97.4305C44.9789 97.5306 44.9515 97.6297 44.8944 97.7069C44.8372 97.784 44.7549 97.833 44.6655 97.8424L25.4783 99.8638L25.4461 99.8669Z" fill="#FFC754"/>
<path d="M44.3652 94.2666L48.5641 94.5283L47.568 104.533C47.568 104.533 46.6887 103.638 45.2356 104.049L44.3652 94.2666Z" fill="#007FFE"/>
<path d="M47.5641 104.924C47.4807 104.923 47.4004 104.889 47.3386 104.826C47.3093 104.797 46.563 104.077 45.3167 104.429C45.2696 104.442 45.2204 104.444 45.1725 104.434C45.1246 104.424 45.0793 104.403 45.0394 104.371C44.9996 104.34 44.9663 104.3 44.9418 104.252C44.9173 104.206 44.9022 104.153 44.8974 104.099L44.0271 94.318C44.0222 94.2638 44.0279 94.2085 44.0438 94.1569C44.0597 94.1053 44.0855 94.0583 44.1193 94.0187C44.1531 93.9796 44.1942 93.9488 44.2397 93.9285C44.2851 93.9087 44.334 93.8998 44.3827 93.903L48.5817 94.1642C48.6274 94.1673 48.6722 94.1803 48.7138 94.2033C48.7549 94.2262 48.7913 94.2585 48.8212 94.2976C48.8506 94.3368 48.873 94.3826 48.8865 94.4316C48.8996 94.4807 48.9038 94.5323 48.8986 94.5834L47.9029 104.589C47.8936 104.681 47.8538 104.767 47.7914 104.829C47.729 104.891 47.6482 104.924 47.5647 104.924H47.5641ZM45.9858 103.576C46.4369 103.574 46.8823 103.687 47.2885 103.906L48.1849 94.8983L44.7367 94.6819L45.531 103.612C45.6815 103.588 45.8333 103.576 45.9853 103.576H45.9858Z" fill="#FFC754"/>
<path d="M33.0405 91.705C32.9685 91.7055 32.8983 91.6795 32.8404 91.6315L31.0496 90.1565C31.0139 90.1273 30.9837 90.0903 30.9608 90.0475C30.9378 90.0053 30.9226 89.9578 30.9159 89.9088C30.9093 89.8598 30.9113 89.8098 30.922 89.7618C30.9327 89.7133 30.9517 89.6685 30.9781 89.6283C31.0044 89.5882 31.0376 89.5548 31.0756 89.5287C31.1136 89.5032 31.1558 89.4865 31.1997 89.4787C31.2436 89.4714 31.2884 89.474 31.3315 89.4855C31.3746 89.4975 31.4153 89.5188 31.451 89.5486L33.2418 91.0236C33.2991 91.0705 33.3417 91.1367 33.3633 91.2128C33.385 91.2884 33.3847 91.3703 33.3623 91.4459C33.34 91.5215 33.2969 91.5872 33.2391 91.6336C33.1813 91.6805 33.1118 91.7055 33.0405 91.705Z" fill="white"/>
<path d="M48.4944 106.435C47.9893 102.952 45.349 103.605 40.0136 105.481C38.5672 111.122 39.085 112.858 39.9993 115.925L40.0136 115.973L47.0322 116.609C48.4341 116.021 48.7752 115.495 48.4944 114.065C49.9152 112.536 49.9633 111.699 49.0792 110.25C50.0607 108.787 50.0973 107.96 48.4944 106.435Z" fill="#FF9D8E" stroke="#000080" stroke-width="0.175464"/>
<path d="M51.7816 103.227C51.7592 103.227 51.7368 103.225 51.7148 103.22C51.671 103.21 51.6294 103.191 51.5925 103.163C51.5556 103.136 51.5244 103.1 51.4996 103.059C51.4749 103.017 51.4581 102.971 51.4492 102.922C51.4408 102.874 51.4408 102.823 51.4497 102.775C51.5225 102.389 51.684 102.031 51.9188 101.736C52.1532 101.442 52.4529 101.22 52.7871 101.094C52.8296 101.078 52.8749 101.071 52.9197 101.074C52.9645 101.077 53.0084 101.09 53.0485 101.113C53.0891 101.134 53.1251 101.166 53.1545 101.204C53.1839 101.241 53.2063 101.286 53.2203 101.334C53.2343 101.381 53.2394 101.432 53.2357 101.482C53.2324 101.532 53.2198 101.58 53.1993 101.625C53.1783 101.669 53.1498 101.709 53.1153 101.741C53.0812 101.773 53.041 101.798 52.9981 101.812C52.7773 101.897 52.5803 102.044 52.4253 102.239C52.2703 102.434 52.1625 102.67 52.1126 102.925C52.0971 103.01 52.0556 103.086 51.9954 103.142C51.9352 103.197 51.8595 103.227 51.7816 103.227ZM45.7099 117.199C45.1992 117.19 44.6896 117.143 44.1846 117.057L40.0225 116.418C39.9361 116.402 39.859 116.348 39.8073 116.269C39.7556 116.19 39.7334 116.091 39.7454 115.994C39.7573 115.897 39.8026 115.809 39.8715 115.749C39.9404 115.688 40.0277 115.66 40.1149 115.67L44.277 116.308C45.4748 116.492 46.822 116.617 47.6478 115.769C47.9985 115.408 48.3963 114.648 48.0536 114.03C48.0083 113.948 47.9929 113.85 48.0102 113.756C48.0275 113.661 48.0765 113.578 48.147 113.523C48.6684 113.114 48.9046 112.748 49.0489 112.128C49.2006 111.483 49.0185 110.796 48.6059 110.457C48.5559 110.416 48.5167 110.36 48.4933 110.296C48.4695 110.232 48.4625 110.161 48.4723 110.092C48.4821 110.024 48.5088 109.96 48.5489 109.907C48.5895 109.854 48.6423 109.815 48.7011 109.793C48.9718 109.695 49.1025 109.425 49.1567 109.273C49.2178 109.099 49.2449 108.912 49.2365 108.725C49.2281 108.538 49.1842 108.355 49.1081 108.188C48.8379 107.638 48.2329 107.24 47.4499 107.096C47.0469 107.022 46.6388 107.01 46.2065 106.997C45.8683 106.986 45.5216 106.976 45.175 106.934C45.0858 106.923 45.0042 106.873 44.948 106.795C44.8919 106.716 44.8658 106.617 44.8756 106.517C44.8854 106.418 44.9303 106.326 45.0002 106.264C45.0702 106.201 45.1596 106.172 45.2488 106.183C45.5678 106.222 45.8874 106.232 46.2251 106.242C46.6608 106.256 47.1112 106.27 47.5593 106.351C48.1409 106.458 49.194 106.792 49.701 107.825C49.8252 108.089 49.8971 108.38 49.9115 108.678C49.926 108.976 49.8831 109.274 49.785 109.552C49.6949 109.816 49.5474 110.051 49.356 110.235C49.7351 110.79 49.877 111.58 49.7029 112.321C49.5395 113.018 49.2683 113.495 48.7655 113.948C49.054 114.815 48.653 115.76 48.1036 116.325C47.446 117.003 46.5909 117.199 45.7099 117.199Z" fill="#041D36"/>
<path d="M23.7319 105.814C23.6653 105.814 23.6002 105.792 23.5448 105.75C23.4895 105.709 23.4463 105.65 23.4206 105.581C23.395 105.513 23.388 105.438 23.4007 105.365C23.4133 105.292 23.445 105.224 23.4918 105.171C24.9573 103.514 26.5761 102.034 28.4605 102.427C28.6476 102.466 28.8269 102.523 28.9999 102.578C29.22 102.657 29.4466 102.713 29.6764 102.743C30.0427 102.776 30.4181 102.669 30.8161 102.554C30.9598 102.513 31.1092 102.471 31.2591 102.435C33.1412 101.988 35.1743 102.652 36.5576 104.135C37.0181 103.533 37.7633 103.152 38.6015 103.111C39.4717 103.068 40.0867 103.154 40.8697 103.426C40.9134 103.44 40.9542 103.463 40.9897 103.494C41.0252 103.526 41.0547 103.565 41.0764 103.609C41.0982 103.654 41.1117 103.702 41.1161 103.753C41.1206 103.804 41.1159 103.854 41.1024 103.903C41.0889 103.951 41.0668 103.996 41.0375 104.034C41.0082 104.073 40.9723 104.105 40.9317 104.127C40.8913 104.15 40.8471 104.164 40.8019 104.167C40.7566 104.171 40.7112 104.163 40.6684 104.147C39.9678 103.903 39.4154 103.827 38.6308 103.866C38.0198 103.895 37.2441 104.184 36.8997 104.906C36.8741 104.96 36.8372 105.006 36.7923 105.04C36.7474 105.075 36.6956 105.096 36.6416 105.103C36.5875 105.111 36.5327 105.103 36.4818 105.081C36.4308 105.06 36.3853 105.025 36.349 104.98C35.1315 103.457 33.1891 102.748 31.4011 103.174C31.2642 103.207 31.1278 103.245 30.9835 103.286C30.55 103.411 30.1019 103.538 29.6239 103.493C29.3499 103.461 29.0794 103.397 28.8167 103.305C28.6516 103.252 28.4949 103.202 28.3387 103.17C26.7644 102.842 25.3107 104.193 23.9748 105.702C23.9431 105.738 23.9052 105.766 23.8635 105.785C23.8218 105.805 23.777 105.814 23.7319 105.814ZM48.4923 107.275C48.4564 107.275 48.4209 107.269 48.3868 107.257C48.3014 107.225 48.2309 107.158 48.1903 107.068C48.1501 106.979 48.1431 106.876 48.1707 106.78C48.4204 105.928 47.7673 104.973 47.0249 104.65C46.1619 104.273 45.1608 104.448 44.29 104.64C43.8154 104.745 43.2754 104.949 42.7016 105.165C41.8363 105.491 40.9418 105.828 40.1752 105.852H40.1656C40.0759 105.854 39.9894 105.815 39.9251 105.745C39.8608 105.675 39.8239 105.58 39.8226 105.48C39.8214 105.38 39.8558 105.283 39.9183 105.211C39.9808 105.139 40.0664 105.098 40.156 105.097C40.8217 105.076 41.6673 104.758 42.4851 104.449C43.0798 104.225 43.6412 104.013 44.1586 103.899C45.1231 103.687 46.238 103.497 47.2707 103.946C48.3163 104.402 49.1869 105.743 48.8135 107.015C48.7915 107.091 48.7481 107.157 48.6907 107.203C48.6328 107.25 48.5633 107.275 48.4923 107.275Z" fill="#041D36"/>
<path d="M16.3408 119.316L14.2656 116.559L17.0326 117.06L20.9524 117.562L24.6416 117.812L29.9449 117.311L35.7093 116.058L43.0878 118.063L47.2382 118.815L50.9274 119.316H32.9424H16.3408Z" fill="#509DFF" stroke="#509DFF" stroke-width="0.138346"/>
<path d="M69.559 67.0156C75.8364 68.5729 75.7156 74.5401 72.191 78.1427C67.8675 79.0515 65.7323 78.6441 62.248 76.871C62.6612 70.7528 62.4849 66.8802 67.2195 65.426C68.5671 65.3032 69.044 65.7117 69.559 67.0156Z" fill="#FF9D8E"/>
<path d="M69.559 67.0156C75.8364 68.5729 75.7156 74.5401 72.191 78.1427C67.8675 79.0515 65.7323 78.6441 62.248 76.871C62.6612 70.7528 62.4849 66.8802 67.2195 65.426C68.5671 65.3032 69.044 65.7117 69.559 67.0156ZM69.559 67.0156L66.3422 69.559" stroke="#000080" stroke-width="0.175464"/>
<path d="M61.9367 77.848C61.8446 77.848 61.7559 77.8084 61.6912 77.7375C61.6259 77.6666 61.589 77.5706 61.589 77.4705C61.5578 73.4021 62.1765 70.2386 63.4273 68.0685C64.517 66.1798 66.0982 65.0522 67.6593 65.0522H67.6713C68.2497 65.0636 68.8008 65.3218 69.2051 65.7712C69.3772 65.9659 69.5101 66.1972 69.5959 66.4505C69.6818 66.7038 69.7187 66.9737 69.7043 67.2431C69.7024 67.2927 69.6914 67.3414 69.6717 67.3864C69.6525 67.4314 69.6252 67.4718 69.5916 67.5054C69.5581 67.5389 69.5182 67.5649 69.4756 67.5818C69.4324 67.5987 69.3868 67.6064 69.3413 67.6042C69.2957 67.602 69.2511 67.59 69.2094 67.569C69.1681 67.548 69.1312 67.5184 69.1 67.4817C69.0693 67.4451 69.0454 67.4022 69.03 67.3556C69.0142 67.3089 69.0075 67.2594 69.0094 67.2097C69.0199 67.042 68.9979 66.8737 68.9446 66.7158C68.8919 66.5578 68.8089 66.4136 68.702 66.2925C68.4267 65.994 68.0574 65.8207 67.6684 65.8077H67.6588C66.3385 65.8077 64.9769 66.8018 64.0158 68.4695C62.836 70.5156 62.2533 73.5419 62.2835 77.4643C62.284 77.5138 62.2753 77.5633 62.2581 77.6097C62.2408 77.6556 62.2149 77.6979 62.1828 77.7333C62.1506 77.7688 62.1123 77.7969 62.0696 77.8157C62.0274 77.835 61.9818 77.8449 61.9362 77.8449L61.9367 77.848Z" fill="#041D36"/>
<path d="M71.0827 77.5463C70.8928 77.5463 70.7034 77.5265 70.5168 77.4874C69.8511 77.3482 69.3221 76.9999 69.0267 76.5056C68.8305 76.173 68.7365 75.7814 68.759 75.3873C68.1859 75.2705 67.6099 74.8596 67.2397 74.2772C66.8829 73.7171 66.7764 73.0737 66.9351 72.4756C65.9419 71.377 66.0114 70.3458 66.257 69.6596C66.8637 67.963 69.1777 66.6862 70.3825 66.6862C71.2103 66.6862 72.0434 67.0413 72.7277 67.6866C73.473 68.3898 73.9651 69.3234 74.3109 70.0562C75.2826 72.118 75.4245 73.8966 74.7229 75.2022C74.4912 75.6292 74.1579 76.0291 73.6989 76.4248C73.181 76.8711 72.2112 77.5463 71.0827 77.5463ZM69.1533 74.6646C69.206 74.6646 69.2574 74.6771 69.3048 74.7022C69.3518 74.7267 69.3931 74.7626 69.4257 74.8075C69.4583 74.8518 69.4813 74.9039 69.4928 74.9592C69.5044 75.015 69.5044 75.0723 69.4924 75.1281C69.4113 75.5056 69.4511 75.8289 69.6079 76.0943C69.7993 76.4144 70.1681 76.6459 70.6463 76.746C71.7388 76.9738 72.756 76.272 73.2649 75.833C73.6553 75.4962 73.9359 75.1651 74.121 74.8205C74.849 73.4672 74.2888 71.6729 73.6908 70.4006C73.3733 69.7276 72.9258 68.8758 72.2702 68.2601C71.7206 67.7413 71.0314 67.4417 70.3806 67.4417C69.5178 67.4417 67.4085 68.5189 66.9025 69.9335C66.6373 70.6751 66.8555 71.3815 67.5706 72.0941C67.6243 72.1474 67.6608 72.2175 67.6761 72.2946C67.691 72.3717 67.6833 72.4519 67.6541 72.5241C67.4224 73.1002 67.6541 73.6006 67.8094 73.8462C68.1274 74.3455 68.6842 74.6886 69.1336 74.6646H69.1533Z" fill="#041D36"/>
</g>
</svg>
