<svg width="120" height="120" viewBox="0 0 120 120" fill="none" xmlns="http://www.w3.org/2000/svg">
<g clip-path="url(#clip0_2139_23551)">
<mask id="mask0_2139_23551" style="mask-type:luminance" maskUnits="userSpaceOnUse" x="0" y="0" width="120" height="120">
<path d="M119.5 0.120117H0.5V119.12H119.5V0.120117Z" fill="white"/>
</mask>
<g mask="url(#mask0_2139_23551)">
<mask id="mask1_2139_23551" style="mask-type:luminance" maskUnits="userSpaceOnUse" x="0" y="0" width="120" height="120">
<path d="M0.5 0.120117H119.5V119.12H0.5V0.120117Z" fill="white"/>
</mask>
<g mask="url(#mask1_2139_23551)">
<path d="M40.3767 11.7631C35.95 13.2873 33.597 18.1116 35.1212 22.5383C36.6455 26.965 41.4698 29.3179 45.8965 27.7937C50.3232 26.2695 52.6761 21.4452 51.1519 17.0185C49.6276 12.5918 44.8034 10.2388 40.3767 11.7631Z" stroke="#FEA70F" stroke-width="0.00318113"/>
<path d="M43.2246 73.4779C40.365 74.4625 38.8451 77.5789 39.8297 80.4385C40.8143 83.298 43.9307 84.818 46.7902 83.8333C49.6498 82.8487 51.1698 79.7323 50.1851 76.8728C49.2005 74.0133 46.0841 72.4933 43.2246 73.4779Z" stroke="#FEA70F" stroke-width="0.758614"/>
<path d="M62.9424 24.7344C58.556 26.2448 56.2244 31.0252 57.7348 35.4117C59.2452 39.7981 64.0256 42.1297 68.412 40.6193C72.7985 39.1089 75.1301 34.3285 73.6197 29.9421C72.1093 25.5556 67.3289 23.2241 62.9424 24.7344Z" stroke="#FEA70F" stroke-width="0.0329615"/>
<path d="M120.413 53.1703L108.173 60.8805L100.463 48.6398L112.703 40.9297L120.413 53.1703Z" stroke="#FEA70F" stroke-width="0.00194282"/>
<path d="M34.3901 37.9054L27.4875 49.3932L15.9998 42.4906L22.9023 31.0029L34.3901 37.9054Z" stroke="#FEA70F" stroke-width="0.227493"/>
<path d="M38.752 118.932L50.6116 122.682L48.3326 110.513L38.752 118.932Z" stroke="#FEA70F" stroke-width="0"/>
<path d="M82.4727 73.8584L78.1078 82.2256L87.5008 82.126L82.4727 73.8584Z" stroke="#FEA70F" stroke-width="0.891861"/>
<path d="M79.2812 25.8853L90.8194 30.5122L89.4604 18.2134L79.2812 25.8853Z" stroke="#FEA70F" stroke-width="0.00318232"/>
<path d="M98.5293 35.6963C98.7716 35.493 98.9985 35.3026 99.2087 35.1262" stroke="#FEA70F" stroke-width="2.13246" stroke-linecap="round" stroke-linejoin="round"/>
<path d="M58.6562 72.2061C58.6562 72.2061 58.6562 71.7793 58.6562 71.0031" stroke="#FEA70F" stroke-width="3.23118" stroke-linecap="round" stroke-linejoin="round"/>
<path d="M28.5547 27.4561C28.0122 26.9502 27.4922 26.4653 26.9984 26.0048" stroke="#FEA70F" stroke-width="2.20432" stroke-linecap="round" stroke-linejoin="round"/>
<path d="M12.1582 75.0034C11.7492 75.0106 11.3627 75.0173 11.0006 75.0236" stroke="#FEA70F" stroke-width="2.14703" stroke-linecap="round" stroke-linejoin="round"/>
<path d="M37.1328 92.0967C35.7244 93.4567 34.3356 94.798 32.999 96.0887" stroke="#FEA70F" stroke-width="2.37875" stroke-linecap="round" stroke-linejoin="round"/>
</g>
<path d="M51.5664 98.0029L48.784 111.191L61.6643 107.438L51.5664 98.0029Z" stroke="#FEA70F" stroke-width="0.196817"/>
</g>
<path d="M17.5387 58.1457C17.6367 58.1819 17.6975 58.2452 17.7224 58.3361C17.7468 58.4265 17.7283 58.5202 17.6671 58.6164C17.4471 59.0514 17.2082 59.4921 16.9515 59.9391C16.6944 60.3857 16.431 60.8235 16.1621 61.2522C15.8928 61.6809 15.6235 62.0916 15.3546 62.4841C15.0852 62.8765 14.8222 63.2356 14.5656 63.5614C13.6229 64.7811 12.6566 65.7897 11.665 66.5866C10.735 67.3232 9.81728 67.8547 8.91178 68.1805C8.5939 68.3134 8.26041 68.4101 7.91172 68.4705C7.56303 68.5309 7.2232 68.5609 6.89308 68.5609C6.50133 68.5609 6.11549 68.5125 5.73641 68.4159C5.35732 68.3192 5.00821 68.1684 4.69033 67.9631C4.12719 67.6373 3.68098 67.2144 3.35044 66.6954C3.0199 66.1759 2.78772 65.6114 2.65306 65.0019C2.5184 64.3916 2.4728 63.7551 2.51544 63.0906C2.5585 62.4266 2.6653 61.7867 2.83627 61.1705C3.14233 60.1082 3.47878 59.1209 3.84604 58.209C4.21331 57.2975 4.63798 56.446 5.12176 55.6549C5.6047 54.8646 6.15222 54.1156 6.76475 53.409C7.37602 52.7025 8.07382 52.0235 8.8569 51.3711C9.11399 51.154 9.45339 50.9366 9.87554 50.7191C10.2977 50.5017 10.7566 50.3388 11.2521 50.23C11.7477 50.1213 12.2526 50.1034 12.7664 50.1759C13.2806 50.248 13.7576 50.4717 14.1983 50.8462C14.5407 51.1357 14.8159 51.5556 15.024 52.1051C15.2321 52.6546 15.3364 53.2462 15.3364 53.8798C15.3364 54.5138 15.2169 55.1541 14.9784 55.7999C14.7395 56.446 14.3511 57.0046 13.8129 57.4754C13.6415 57.6204 13.4148 57.672 13.1336 57.6295C12.8521 57.5875 12.592 57.4966 12.3535 57.3579C12.115 57.2192 11.9407 57.0559 11.8305 56.8688C11.7203 56.6818 11.757 56.5156 11.9407 56.3706C12.283 56.1052 12.5857 55.7607 12.8491 55.3383C13.1121 54.9154 13.3173 54.4747 13.4642 54.0156C13.6107 53.5569 13.69 53.1133 13.7027 52.6846C13.7145 52.2559 13.6474 51.9027 13.5009 51.6248C13.3658 51.3957 13.1455 51.3078 12.8398 51.3623C12.5342 51.4165 12.1699 51.5919 11.7477 51.8877C11.3256 52.1834 10.8697 52.5846 10.3804 53.092C9.89073 53.599 9.40147 54.191 8.91178 54.8671C8.54493 55.3745 8.20215 55.9211 7.88386 56.5064C7.56556 57.0921 7.28146 57.672 7.0307 58.2453C6.77953 58.8189 6.55959 59.3713 6.36962 59.9029C6.18008 60.4344 6.03022 60.9052 5.92004 61.3155C5.7001 62.1125 5.58992 62.8552 5.58992 63.5435C5.58992 64.2317 5.67815 64.8386 5.85587 65.364C6.03317 65.8893 6.29321 66.3179 6.636 66.65C6.97836 66.982 7.38235 67.1874 7.84713 67.2661C8.31233 67.3444 8.82946 67.2869 9.39851 67.0936C9.96714 66.9003 10.5759 66.5442 11.2247 66.0251C11.714 65.6268 12.2125 65.1557 12.7204 64.612C13.2282 64.0688 13.7301 63.468 14.2257 62.8098C14.7213 62.152 15.2047 61.4455 15.6758 60.6906C16.1465 59.9362 16.5965 59.148 17.025 58.3269C17.147 58.1094 17.3188 58.0495 17.5387 58.1457Z" fill="white"/>
<path d="M22.9579 55.994C22.9579 56.1873 22.9211 56.3264 22.8477 56.4105C22.7497 56.5918 22.5969 56.6822 22.3888 56.6822C22.2419 56.6822 22.1102 56.6347 21.9941 56.538C21.8776 56.4414 21.8198 56.3147 21.8198 56.1577C21.8198 56.061 21.8476 55.9698 21.9025 55.8852C21.9574 55.8011 22.0279 55.729 22.1136 55.6686C22.0156 55.4995 21.9029 55.4145 21.7742 55.4145C21.6458 55.4145 21.5078 55.4657 21.3609 55.5686C21.214 55.6711 21.0641 55.8102 20.9113 55.9852C20.7581 56.1602 20.609 56.3385 20.4621 56.5197C20.2051 56.8459 19.9573 57.2229 19.7187 57.6516C19.4802 58.0802 19.2692 58.521 19.0855 58.9738C18.9019 59.4267 18.7546 59.8741 18.6444 60.3144C18.5342 60.7556 18.4764 61.1568 18.4705 61.5192C18.4641 61.8812 18.5161 62.1799 18.6262 62.4153C18.7364 62.6507 18.92 62.7927 19.1767 62.841C19.3603 62.8773 19.5651 62.796 19.7918 62.5969C20.018 62.3978 20.2443 62.1407 20.4706 61.8266C20.6973 61.5129 20.9172 61.1718 21.1317 60.8031C21.3457 60.4348 21.5323 60.094 21.6914 59.7795C21.4343 59.6712 21.257 59.4933 21.1591 59.2459C21.0612 58.9984 21.0308 58.7472 21.0671 58.4935C21.1038 58.2402 21.2017 58.0173 21.3609 57.824C21.52 57.6307 21.7218 57.5337 21.9667 57.5337C22.0519 57.5337 22.1621 57.5403 22.2972 57.5524C22.4314 57.5645 22.5475 57.6274 22.6459 57.742C22.7438 57.8569 22.7987 58.0411 22.811 58.2944C22.8232 58.5481 22.7557 58.9168 22.6092 59.3992C23.0984 59.3875 23.4902 59.3208 23.784 59.2C24.0774 59.0796 24.3075 58.9467 24.4725 58.8022C24.638 58.6572 24.7473 58.5152 24.8026 58.3764C24.8575 58.2377 24.8972 58.1494 24.9217 58.1132C24.9584 58.029 25.0162 57.9778 25.096 57.9598C25.1754 57.9415 25.2522 57.9507 25.3257 57.9869C25.3991 58.0232 25.454 58.0802 25.4907 58.1586C25.5275 58.2373 25.5275 58.3252 25.4907 58.4218C25.3928 58.651 25.24 58.8626 25.0319 59.0555C24.8237 59.2488 24.5823 59.4117 24.307 59.5441C24.0314 59.6774 23.7262 59.7799 23.3897 59.8528C23.0528 59.9253 22.713 59.9549 22.3702 59.9428C22.1988 60.3173 21.9819 60.7339 21.7189 61.1926C21.4554 61.6517 21.1528 62.0774 20.8104 62.4694C20.4676 62.8623 20.0911 63.1851 19.6816 63.4388C19.2713 63.6921 18.8343 63.8009 18.3696 63.7646C17.7575 63.7046 17.2771 63.4513 16.9284 63.0043C16.5797 62.5578 16.3935 62.0141 16.369 61.3738C16.3568 60.891 16.4058 60.3869 16.5155 59.8616C16.6261 59.3363 16.7907 58.8197 17.0111 58.3127C17.231 57.8053 17.5004 57.3254 17.8191 56.8725C18.137 56.4197 18.4949 56.0248 18.8926 55.6865C19.2903 55.3487 19.7242 55.0887 20.1953 54.9079C20.6665 54.7267 21.1591 54.6484 21.6733 54.6721C21.9055 54.6842 22.0984 54.7354 22.2516 54.8258C22.4044 54.9162 22.5294 55.025 22.6273 55.152C22.7253 55.2787 22.7987 55.4174 22.8477 55.5686C22.8962 55.7194 22.933 55.8615 22.9579 55.994Z" fill="white"/>
<path d="M31.9868 56.9797C31.9619 57.3905 31.8703 57.8221 31.7116 58.2749C31.5524 58.7278 31.3713 59.1718 31.1696 59.6068C30.9678 60.0413 30.766 60.4549 30.5642 60.8474C30.3624 61.2402 30.2067 61.581 30.096 61.8709C29.9863 62.1609 29.9399 62.3929 29.958 62.5679C29.9766 62.7429 30.1083 62.8303 30.3531 62.8303C30.4633 62.8303 30.6161 62.7429 30.812 62.5679C31.0079 62.3929 31.2219 62.1638 31.4545 61.8797C31.6871 61.5964 31.9282 61.276 32.1793 60.9194C32.4297 60.5637 32.6661 60.21 32.886 59.86C33.1064 59.5097 33.3022 59.1748 33.4736 58.8544C33.645 58.5345 33.7674 58.272 33.8409 58.0666C33.8776 57.97 33.9384 57.9096 34.0241 57.8854C34.1098 57.8612 34.1896 57.8612 34.263 57.8854C34.3361 57.9096 34.3943 57.9579 34.4374 58.0304C34.48 58.1029 34.4766 58.1816 34.4281 58.2658C34.3302 58.4716 34.1896 58.7519 34.006 59.1081C33.8223 59.4643 33.6049 59.8451 33.3542 60.2496C33.1034 60.6545 32.8311 61.0619 32.5377 61.4723C32.2439 61.883 31.9408 62.2571 31.6289 62.595C31.3169 62.9332 31.002 63.2107 30.6837 63.4281C30.3654 63.6456 30.0597 63.7548 29.7659 63.7548C29.5211 63.7668 29.3125 63.7093 29.1416 63.5827C28.9698 63.4556 28.8292 63.2832 28.7194 63.0657C28.6093 62.8487 28.5324 62.6041 28.4898 62.3329C28.4467 62.0609 28.4438 61.7864 28.4805 61.5085C28.5417 61.0136 28.6578 60.5245 28.8292 60.0413C29.0006 59.5584 29.1872 59.0964 29.3894 58.6553C29.5912 58.2145 29.79 57.81 29.9859 57.4417C30.1813 57.0735 30.3282 56.7539 30.4262 56.4819C30.5241 56.2103 30.5579 56.002 30.5275 55.857C30.4971 55.7125 30.3531 55.6458 30.096 55.6579C29.9614 55.67 29.7718 55.775 29.5274 55.9745C29.2826 56.1736 29.0158 56.4278 28.7283 56.7356C28.4408 57.0435 28.1504 57.3818 27.8566 57.75C27.5628 58.1183 27.3002 58.472 27.068 58.8098C26.835 59.2806 26.5935 59.7488 26.3428 60.2133C26.092 60.6782 25.8678 61.1161 25.6724 61.5264C25.4765 61.9368 25.333 62.2992 25.241 62.6129C25.1494 62.927 25.146 63.169 25.2321 63.3382C25.2806 63.4348 25.241 63.534 25.1126 63.6364C24.9843 63.7393 24.8188 63.7931 24.617 63.7997C24.4148 63.8056 24.2071 63.7423 23.9927 63.6094C23.7791 63.4765 23.6165 63.229 23.5064 62.8666C23.4089 62.5771 23.4148 62.1967 23.5249 61.726C23.6351 61.2548 23.7943 60.7507 24.002 60.2133C24.2105 59.6763 24.4431 59.1264 24.6998 58.5653C24.9569 58.0037 25.189 57.4867 25.3976 57.016C25.6053 56.5452 25.7581 56.1407 25.856 55.8025C25.9535 55.4646 25.9535 55.2471 25.856 55.1501C25.7699 55.078 25.81 54.9934 25.9751 54.8968C26.1406 54.8001 26.3482 54.746 26.5994 54.7335C26.8502 54.7218 27.1043 54.776 27.361 54.8968C27.6181 55.0176 27.8013 55.2592 27.9119 55.6217C27.9604 55.7787 27.9786 55.9508 27.9668 56.1378C27.9545 56.3253 27.9237 56.5215 27.8751 56.7265C28.1073 56.4611 28.3429 56.2074 28.5818 55.9653C28.8203 55.7237 29.0622 55.5129 29.3071 55.3317C29.5515 55.1505 29.7904 55.0055 30.023 54.8968C30.2552 54.7881 30.4815 54.7335 30.7018 54.7335C31.1789 54.7218 31.5339 54.9268 31.7669 55.3496C31.9991 55.7725 32.0725 56.3157 31.9868 56.9797Z" fill="white"/>
<path d="M38.4827 56.1675C38.4827 56.0708 38.5102 55.9804 38.565 55.8959C38.6203 55.8113 38.6904 55.7388 38.7761 55.6784C38.7149 55.5334 38.617 55.461 38.4827 55.461C38.3109 55.4493 38.1214 55.5247 37.9132 55.6876C37.7051 55.8505 37.4818 56.0858 37.2433 56.3941C37.0048 56.702 36.757 57.0823 36.5003 57.5352C36.2432 57.988 35.9866 58.4925 35.7295 59.0474C35.5703 59.3981 35.4386 59.7752 35.3348 60.1797C35.2305 60.5846 35.1723 60.9708 35.16 61.339C35.1482 61.7077 35.1845 62.0302 35.2702 62.308C35.3555 62.5859 35.5091 62.7671 35.7295 62.8517C35.9984 62.96 36.2859 62.8604 36.5919 62.5526C36.8976 62.2447 37.2036 61.8373 37.5097 61.3299C37.8157 60.8229 38.1125 60.2763 38.4 59.6906C38.687 59.1049 38.9534 58.5887 39.1982 58.1417C39.1982 58.1059 39.2046 58.0817 39.2168 58.0696C39.5474 57.2969 39.8011 56.6387 39.9784 56.095C40.1557 55.5518 40.1949 55.2139 40.0974 55.0806C40.0358 55.0081 40.0915 54.924 40.2629 54.8269C40.4343 54.7307 40.6483 54.6765 40.9054 54.664C41.1625 54.6523 41.4158 54.7128 41.667 54.8452C41.9173 54.9781 42.098 55.2318 42.2081 55.6059C42.2694 55.8113 42.239 56.1404 42.1165 56.5932C41.9941 57.0461 41.8227 57.5564 41.6024 58.1238C41.382 58.6916 41.1317 59.2861 40.8501 59.9081C40.5685 60.53 40.2996 61.1158 40.0425 61.6648C39.7859 62.2147 39.5588 62.6946 39.3633 63.105C39.1674 63.5157 39.0454 63.7994 38.9965 63.9561C39.4368 63.6665 39.8961 63.2591 40.3731 62.7338C40.8501 62.2085 41.2967 61.659 41.713 61.0853C42.1288 60.5117 42.496 59.9535 42.8143 59.4098C43.1322 58.8666 43.3522 58.4317 43.4746 58.1059C43.5113 57.9972 43.5729 57.9276 43.6586 57.8976C43.7439 57.8672 43.8233 57.8643 43.8967 57.8884C43.9702 57.9126 44.0284 57.9609 44.0715 58.0334C44.1141 58.1059 44.1175 58.1846 44.0808 58.2688C43.7992 58.8845 43.4476 59.534 43.0254 60.2159C42.6033 60.8983 42.141 61.5536 41.6395 62.1814C41.1376 62.8092 40.6116 63.3741 40.0611 63.8748C39.5106 64.3756 38.972 64.7593 38.446 65.025C38.3725 65.2063 38.2742 65.4387 38.1522 65.7224C38.0298 66.0061 37.904 66.2931 37.7756 66.5827C37.6469 66.8726 37.5308 67.1442 37.4274 67.3979C37.3231 67.6516 37.2463 67.8387 37.1977 67.9595C37.0753 68.2974 36.8824 68.5844 36.6194 68.8198C36.3555 69.0551 36.0596 69.2364 35.7295 69.363C35.3989 69.4901 35.0562 69.5625 34.7016 69.5805C34.3465 69.5988 34.016 69.5625 33.7104 69.4721C33.4043 69.3813 33.1384 69.2301 32.9117 69.0189C32.6854 68.8077 32.5419 68.539 32.4807 68.2132C32.4684 68.1045 32.4836 67.9745 32.5263 67.8237C32.5693 67.6725 32.6765 67.5125 32.8475 67.3434C33.0434 67.1501 33.2789 66.9751 33.5542 66.8185C33.8294 66.6614 34.1165 66.5102 34.4166 66.3656C34.7163 66.2207 35.0106 66.0728 35.2981 65.9215C35.5851 65.7703 35.8333 65.6049 36.0414 65.4233C36.1634 65.0854 36.307 64.7109 36.472 64.3006C36.6375 63.8898 36.8182 63.4612 37.0141 63.0146C36.659 63.3528 36.2707 63.5791 35.8485 63.6936C35.4264 63.8086 34.9515 63.7636 34.4259 63.5578C33.9362 63.3649 33.585 63.0808 33.3705 62.7063C33.1565 62.3326 33.0311 61.9248 32.9944 61.4836C32.9577 61.0433 32.9944 60.5846 33.1046 60.1072C33.2148 59.6302 33.349 59.1924 33.5077 58.7941C33.8015 58.0576 34.1291 57.4264 34.4905 56.9011C34.8514 56.3758 35.2339 55.9471 35.6375 55.6151C36.0415 55.2831 36.4573 55.0444 36.8857 54.8994C37.3138 54.7548 37.7482 54.6886 38.1889 54.7003C38.3358 54.7128 38.4916 54.7394 38.6571 54.7819C38.8221 54.8244 38.9749 54.8936 39.1159 54.9902C39.2565 55.0869 39.3755 55.2164 39.4735 55.3797C39.5714 55.5426 39.6204 55.7451 39.6204 55.9863C39.6204 56.2283 39.5655 56.4029 39.4553 56.5116C39.3574 56.6324 39.2227 56.6928 39.0513 56.6928C38.9049 56.6928 38.7731 56.6449 38.6571 56.5478C38.5405 56.4512 38.4827 56.3245 38.4827 56.1675ZM35.7844 66.2386C35.6007 66.3835 35.3926 66.5102 35.16 66.6189C34.9278 66.7276 34.6952 66.8364 34.4631 66.9451C34.23 67.0538 34.0067 67.1742 33.7927 67.3071C33.5787 67.44 33.4043 67.5971 33.2696 67.7783C33.1844 67.8987 33.1502 68.032 33.1683 68.177C33.1869 68.3215 33.2422 68.4515 33.3338 68.5661C33.4258 68.681 33.5419 68.7685 33.6825 68.8289C33.8235 68.8893 33.9789 68.8952 34.1502 68.8468C34.3216 68.7985 34.4998 68.681 34.683 68.494C34.8666 68.3065 35.0372 68.0195 35.1963 67.6333C35.2702 67.4642 35.3593 67.265 35.4631 67.0359C35.567 66.806 35.6742 66.5406 35.7844 66.2386Z" fill="white"/>
<path d="M44.0066 58.4438C43.9699 58.5163 43.9116 58.5647 43.8322 58.5888C43.7525 58.613 43.6786 58.613 43.6115 58.5888C43.5443 58.5647 43.4895 58.5192 43.4468 58.4526C43.4042 58.3868 43.4008 58.3051 43.4375 58.2085C43.4743 58.0997 43.5414 57.9339 43.6393 57.7102C43.7373 57.4869 43.8352 57.2516 43.9331 57.0037C44.0311 56.7562 44.1286 56.5146 44.2265 56.2792C44.324 56.0439 44.392 55.8476 44.4287 55.6906C44.1472 55.5577 43.9057 55.3465 43.7039 55.0565C43.5021 54.7666 43.4004 54.4771 43.4004 54.1871C43.4004 53.813 43.4983 53.4931 43.6942 53.2273C43.8897 52.9615 44.1839 52.8286 44.5756 52.8286C44.8205 52.8286 45.0316 52.9282 45.2089 53.1273C45.3862 53.3269 45.4807 53.5656 45.493 53.843C45.493 54.0001 45.4837 54.2171 45.4655 54.495C45.4474 54.7728 45.4132 55.0024 45.3646 55.1832C45.4254 55.2319 45.5086 55.2619 45.6129 55.274C45.7167 55.2861 45.8298 55.2923 45.9523 55.2923C46.2212 55.2923 46.4322 55.2619 46.5855 55.2015C46.7383 55.1411 46.87 55.0778 46.9802 55.0111C47.0904 54.9453 47.2005 54.8816 47.3107 54.8212C47.4205 54.7608 47.5674 54.7303 47.751 54.7303C47.9959 54.7303 48.2403 54.7912 48.4851 54.9116C48.73 55.0328 48.9073 55.2678 49.0174 55.6181C49.1276 55.9685 49.1091 56.3942 48.9626 56.895C48.8157 57.3961 48.6105 57.9185 48.3475 58.4618C48.0845 59.0054 47.8029 59.5428 47.5032 60.074C47.2031 60.6055 46.9527 61.0792 46.7505 61.4958C46.5487 61.9128 46.4322 62.2448 46.4018 62.4923C46.3714 62.7401 46.496 62.8518 46.7775 62.8272C46.8882 62.8155 47.041 62.7185 47.2373 62.5377C47.4327 62.3565 47.6472 62.124 47.8793 61.8399C48.1119 61.5566 48.3505 61.2396 48.5953 60.8892C48.8401 60.5389 49.0719 60.1889 49.2923 59.8386C49.5126 59.4882 49.7081 59.1562 49.8799 58.8425C50.0509 58.5284 50.1737 58.2689 50.2472 58.0635C50.2839 57.9668 50.3447 57.9064 50.4304 57.8823C50.5156 57.8581 50.5958 57.8581 50.6693 57.8823C50.7432 57.9064 50.801 57.9548 50.8436 58.0272C50.8867 58.0997 50.8829 58.1785 50.8344 58.2626C50.736 58.4684 50.5954 58.7488 50.4122 59.105C50.2286 59.4612 50.0116 59.8415 49.7608 60.246C49.5101 60.6509 49.2378 61.0584 48.944 61.4687C48.6502 61.8795 48.3475 62.254 48.0355 62.5918C47.7236 62.9301 47.4082 63.2076 47.0904 63.425C46.7721 63.6425 46.4664 63.7512 46.1726 63.7512C45.9278 63.7633 45.7167 63.715 45.5394 63.6062C45.3617 63.4975 45.2181 63.3434 45.108 63.1442C44.9978 62.9451 44.9243 62.7035 44.8876 62.4198C44.8509 62.1361 44.8509 61.8311 44.8876 61.5049C44.9366 61.0342 45.0527 60.533 45.2363 60.0015C45.4195 59.4703 45.6221 58.9479 45.8421 58.4347C46.0624 57.9219 46.2765 57.4415 46.4846 56.9945C46.6923 56.5479 46.8451 56.1676 46.943 55.8535C46.6859 55.9505 46.3955 56.0076 46.0717 56.0255C45.7475 56.0439 45.4258 56.0105 45.108 55.926C45.0712 56.0105 45.0071 56.1647 44.915 56.388C44.8234 56.6117 44.7225 56.8529 44.6124 57.1124C44.5022 57.3724 44.392 57.6261 44.2818 57.8731C44.1721 58.121 44.08 58.3109 44.0066 58.4438Z" fill="white"/>
<path d="M54.8728 56.16C54.8728 56.0634 54.9003 55.9734 54.9556 55.8888C55.0104 55.8043 55.0809 55.7318 55.1666 55.6714C55.105 55.5264 55.0071 55.4535 54.8728 55.4535C54.7014 55.4418 54.5115 55.5176 54.3033 55.6805C54.0952 55.8434 53.8719 56.0788 53.6334 56.3867C53.3949 56.6949 53.1471 57.0753 52.89 57.5281C52.6329 57.9809 52.3767 58.4854 52.1196 59.0403C51.9604 59.3907 51.8287 59.7677 51.7249 60.1722C51.6206 60.5771 51.5624 60.9633 51.5501 61.3316C51.5379 61.6998 51.5746 62.0231 51.6603 62.301C51.7456 62.5789 51.8992 62.7597 52.1196 62.8438C52.2906 62.9163 52.4708 62.8984 52.6608 62.7896C52.8499 62.6809 53.0399 62.5118 53.2294 62.2822C53.4194 62.0531 53.6153 61.7753 53.8175 61.4491C54.0192 61.1233 54.2143 60.7825 54.4042 60.4263C54.5938 60.0701 54.7778 59.7135 54.9556 59.3569C55.1324 59.0008 55.3005 58.6721 55.4596 58.3705C55.631 57.9718 55.7994 57.5939 55.9645 57.2377C56.13 56.8816 56.2672 56.562 56.3773 56.2783C56.4875 55.9946 56.561 55.7526 56.5977 55.5535C56.6344 55.3543 56.6159 55.2181 56.5428 55.1456C56.4567 55.0731 56.4972 54.989 56.6623 54.8923C56.8274 54.7961 57.0325 54.7411 57.2774 54.729C57.5218 54.7174 57.7755 54.7719 58.0389 54.8923C58.3019 55.0136 58.4881 55.2544 58.5982 55.6164C58.7084 55.9671 58.6907 56.3929 58.5438 56.8936C58.3969 57.3948 58.1917 57.9168 57.9287 58.4604C57.6657 59.0037 57.3842 59.5419 57.0844 60.0731C56.7847 60.6042 56.5335 61.0783 56.3318 61.4949C56.13 61.9115 56.0135 62.2435 55.9826 62.4905C55.9522 62.7384 56.0772 62.8501 56.3592 62.8255C56.4694 62.8138 56.6222 62.7176 56.8181 62.5364C57.0135 62.3551 57.2284 62.1227 57.461 61.8386C57.6932 61.5549 57.9342 61.2383 58.1854 60.8879C58.4361 60.538 58.6692 60.1876 58.8832 59.8377C59.0972 59.4873 59.2897 59.1553 59.4611 58.8412C59.6321 58.5275 59.7545 58.2676 59.8284 58.0618C59.8651 57.9651 59.9259 57.9051 60.0116 57.8805C60.0973 57.8568 60.1766 57.8568 60.2505 57.8805C60.324 57.9051 60.3822 57.9534 60.4253 58.0259C60.4679 58.098 60.465 58.1772 60.416 58.2613C60.3176 58.4671 60.1771 58.7475 59.9939 59.1032C59.8102 59.4598 59.5924 59.8406 59.3416 60.2451C59.0909 60.6496 58.8186 61.057 58.5248 61.4678C58.2314 61.8786 57.9287 62.2527 57.6168 62.5905C57.3048 62.9288 56.9895 63.2062 56.6712 63.4237C56.3529 63.6412 56.0472 63.7495 55.7534 63.7495C55.2882 63.7741 54.9395 63.587 54.7069 63.1883C54.4747 62.7901 54.389 62.2822 54.4507 61.6665C54.2181 62.041 53.9732 62.3826 53.7161 62.6905C53.4591 62.9984 53.1809 63.2425 52.8811 63.4237C52.5814 63.6049 52.2627 63.7132 51.9263 63.7495C51.5898 63.7857 51.22 63.7199 50.816 63.5508C50.3263 63.3575 49.9747 63.0733 49.7606 62.6988C49.5466 62.3247 49.4212 61.9173 49.3849 61.4761C49.3482 61.0358 49.3845 60.5771 49.4943 60.0997C49.6045 59.6227 49.7391 59.1853 49.8983 58.787C50.1921 58.0505 50.5192 57.419 50.8806 56.8936C51.2415 56.3683 51.6236 55.9397 52.0276 55.6076C52.4311 55.2756 52.8469 55.0373 53.2754 54.8923C53.7035 54.7474 54.1383 54.6815 54.5786 54.6932C54.7255 54.7053 54.8813 54.732 55.0467 54.7744C55.2118 54.8165 55.3655 54.8861 55.506 54.9827C55.6466 55.0794 55.7657 55.2089 55.8636 55.3718C55.9615 55.5351 56.0109 55.7376 56.0109 55.9788C56.0109 56.2446 55.9489 56.4262 55.8269 56.5229C55.7285 56.6312 55.6002 56.6853 55.4414 56.6853C55.2945 56.6853 55.1628 56.6379 55.0467 56.5408C54.9302 56.4441 54.8728 56.3171 54.8728 56.16Z" fill="white"/>
<path d="M57.2601 53.958C57.2483 54.1271 57.2002 54.2387 57.1166 54.2929C57.033 54.3475 56.9405 54.3412 56.8388 54.275C56.7375 54.2087 56.6535 54.0817 56.5876 53.8946C56.5218 53.7076 56.5011 53.4568 56.5256 53.1427C56.5737 52.6357 56.7725 52.2491 57.1216 51.9837C57.4712 51.7184 57.9241 51.5397 58.481 51.4493C59.0378 51.3589 59.6676 51.3255 60.3709 51.3497C61.0746 51.3738 61.8053 51.4222 62.5644 51.4942C62.7725 50.951 62.9253 50.5044 63.0237 50.1541C63.1216 49.8041 63.1393 49.5988 63.0781 49.5384C62.9924 49.4659 63.0325 49.3813 63.1976 49.2846C63.3631 49.188 63.5674 49.1338 63.8122 49.1218C64.0571 49.1097 64.3108 49.1643 64.5742 49.2846C64.8372 49.4055 65.0242 49.6471 65.1344 50.0091C65.1952 50.1787 65.2011 50.4078 65.1525 50.6973C65.1036 50.9873 65.0242 51.3134 64.914 51.6755C65.4527 51.7 65.9901 51.7 66.5291 51.6755C67.0674 51.6517 67.5507 51.6063 67.9792 51.5397C68.4077 51.4738 68.753 51.3859 69.0164 51.2772C69.2794 51.1685 69.4111 51.0356 69.4111 50.8785C69.4111 50.6973 69.466 50.604 69.5758 50.5982C69.6859 50.5919 69.7961 50.6373 69.9063 50.7335C70.0161 50.8306 70.0925 50.9573 70.1355 51.1139C70.1782 51.2714 70.1267 51.4159 69.9798 51.5488C69.8206 51.7059 69.5665 51.8542 69.2182 51.9925C68.8691 52.1316 68.4529 52.2524 67.9699 52.3549C67.4861 52.4574 66.9513 52.5449 66.3637 52.6174C65.776 52.6903 65.1643 52.7324 64.5282 52.7444C64.2711 53.3964 63.9617 54.1029 63.6011 54.8636C63.2402 55.6243 62.8793 56.3821 62.5183 57.137C62.1574 57.8918 61.8087 58.6163 61.4723 59.3107C61.1354 60.0052 60.8665 60.6147 60.6647 61.14C60.4625 61.6653 60.3405 62.0848 60.2979 62.3989C60.2548 62.713 60.3435 62.858 60.5638 62.8334C60.6858 62.8218 60.842 62.7247 61.032 62.5439C61.2211 62.3627 61.4322 62.1302 61.6652 61.8465C61.8974 61.5628 62.1363 61.2458 62.3811 60.8954C62.6256 60.5455 62.8582 60.1952 63.0781 59.8448C63.2985 59.4949 63.4943 59.1628 63.6657 58.8487C63.8367 58.5346 63.9595 58.2751 64.0326 58.0697C64.0693 57.9731 64.1305 57.9131 64.2162 57.8885C64.3015 57.8643 64.3817 57.8643 64.4547 57.8885C64.5282 57.9131 64.586 57.961 64.6295 58.0335C64.6717 58.106 64.6692 58.1847 64.6202 58.2688C64.5223 58.4746 64.3821 58.7554 64.1981 59.1112C64.0144 59.4678 63.7974 59.8481 63.5467 60.2522C63.2959 60.6572 63.0232 61.0646 62.7294 61.4749C62.436 61.8857 62.1329 62.2602 61.821 62.5981C61.509 62.9363 61.1937 63.2138 60.8758 63.4312C60.5575 63.6487 60.2519 63.7574 59.9585 63.7574C59.7136 63.7695 59.5025 63.7212 59.3252 63.6124C59.1479 63.5037 59.0036 63.3496 58.8934 63.1504C58.7832 62.9513 58.7098 62.7097 58.673 62.426C58.6363 62.1423 58.6363 61.8374 58.673 61.5112C58.722 61.1371 58.8659 60.6088 59.1045 59.9265C59.343 59.2441 59.6279 58.4955 59.9585 57.6802C60.2886 56.8653 60.6402 56.0259 61.0138 55.1627C61.387 54.2991 61.7323 53.493 62.051 52.7444C61.4144 52.7444 60.8082 52.7532 60.2333 52.7715C59.6583 52.7894 59.1534 52.8411 58.719 52.9252C58.2847 53.0102 57.936 53.1335 57.673 53.2968C57.4095 53.4597 57.2724 53.6801 57.2601 53.958Z" fill="white"/>
<path d="M73.0829 58.2653C72.9849 58.4711 72.8444 58.7515 72.6607 59.1077C72.4771 59.4639 72.2597 59.845 72.0089 60.2491C71.7578 60.6541 71.4859 61.0615 71.1921 61.4718C70.8987 61.8826 70.5956 62.2571 70.2836 62.595C69.9717 62.9332 69.6568 63.2107 69.3385 63.4281C69.0202 63.6456 68.7141 63.7543 68.4207 63.7543C68.1759 63.7664 67.9648 63.7181 67.7875 63.6094C67.6098 63.5006 67.4662 63.3465 67.3561 63.1474C67.2459 62.9482 67.1724 62.7062 67.1357 62.4225C67.099 62.1388 67.099 61.8343 67.1357 61.5081C67.1357 61.4481 67.142 61.3902 67.1543 61.336C67.1661 61.2819 67.1788 61.2244 67.191 61.1636C66.9584 61.5018 66.7165 61.8251 66.4658 62.133C66.2146 62.4408 65.9613 62.7158 65.7042 62.9574C65.4471 63.199 65.1905 63.3919 64.933 63.5369C64.6763 63.6818 64.4315 63.7543 64.1988 63.7543C63.9544 63.7664 63.7434 63.7181 63.5661 63.6094C63.3888 63.5006 63.2448 63.3465 63.1346 63.1474C63.0244 62.9482 62.951 62.7062 62.9143 62.4225C62.8775 62.1388 62.8775 61.8343 62.9143 61.5081C62.9632 61.1098 63.0582 60.687 63.1988 60.2404C63.3394 59.7934 63.5019 59.3464 63.6851 58.8994C63.8687 58.4528 64.0549 58.0212 64.2449 57.6046C64.4348 57.188 64.5995 56.8106 64.7405 56.4727C64.881 56.1345 64.9794 55.8504 65.0343 55.6208C65.0892 55.3917 65.0735 55.235 64.9883 55.1501C64.9026 55.078 64.9427 54.9934 65.1073 54.8968C65.2728 54.8001 65.4775 54.746 65.7224 54.7335C65.9672 54.7218 66.2209 54.7764 66.4843 54.8968C66.7473 55.0176 66.9339 55.2584 67.0441 55.6208C67.1543 55.9712 67.1357 56.3969 66.9888 56.8977C66.8423 57.3988 66.6367 57.9212 66.3737 58.4649C66.1107 59.0081 65.8292 59.5459 65.5294 60.0771C65.2297 60.6087 64.9794 61.0823 64.7772 61.4989C64.5754 61.9159 64.4589 62.2479 64.4285 62.4954C64.3981 62.7433 64.5235 62.8545 64.805 62.8299C64.9515 62.8183 65.1656 62.6674 65.4471 62.3775C65.7283 62.0876 66.0255 61.7289 66.3374 61.2998C66.6494 60.8711 66.955 60.4179 67.2552 59.9409C67.5549 59.4639 67.8027 59.0381 67.9986 58.664C68.1822 58.2412 68.3625 57.8375 68.5398 57.4505C68.7171 57.0643 68.8703 56.711 68.9986 56.3907C69.1274 56.0707 69.216 55.802 69.265 55.5846C69.3136 55.3671 69.2954 55.2226 69.2097 55.1501C69.124 55.078 69.1641 54.9934 69.3292 54.8968C69.4942 54.8001 69.699 54.746 69.9438 54.7335C70.1891 54.7218 70.4424 54.7764 70.7058 54.8968C70.9688 55.0176 71.1558 55.2584 71.2656 55.6208C71.3757 55.9712 71.3576 56.3969 71.2103 56.8977C71.0638 57.3988 70.8586 57.9212 70.5956 58.4649C70.3322 59.0081 70.051 59.5459 69.7513 60.0771C69.4512 60.6087 69.2008 61.0823 68.9986 61.4989C68.7973 61.9159 68.6803 62.2479 68.6499 62.4954C68.6195 62.7433 68.7449 62.8545 69.0265 62.8299C69.1363 62.8183 69.2895 62.7216 69.4854 62.5408C69.6808 62.3596 69.8948 62.1267 70.1279 61.8426C70.3601 61.5593 70.5986 61.2427 70.8434 60.8924C71.0878 60.542 71.3209 60.1921 71.5412 59.8417C71.7611 59.4914 71.957 59.1598 72.1284 58.8456C72.2998 58.5315 72.4222 58.2716 72.4953 58.0662C72.532 57.9696 72.5932 57.9096 72.6789 57.885C72.7646 57.8608 72.8444 57.8608 72.9174 57.885C72.9909 57.9096 73.0491 57.9579 73.0917 58.0304C73.1348 58.1029 73.1314 58.1812 73.0829 58.2653Z" fill="white"/>
<path d="M77.2829 58.2692C77.185 58.475 77.0448 58.7553 76.8607 59.1115C76.6771 59.4677 76.4601 59.8485 76.2094 60.2525C75.9582 60.6575 75.6863 61.0649 75.3921 61.4752C75.0987 61.886 74.7956 62.2605 74.4841 62.5984C74.1721 62.9366 73.8568 63.2141 73.5389 63.4315C73.2202 63.649 72.9145 63.7577 72.6207 63.7577C72.3763 63.7698 72.1652 63.7215 71.9875 63.6128C71.8102 63.504 71.6663 63.3499 71.5565 63.1508C71.4463 62.9516 71.3729 62.71 71.3361 62.4263C71.2994 62.1426 71.2994 61.8377 71.3361 61.5115C71.3851 61.1132 71.5383 60.5517 71.795 59.8272C72.0517 59.1023 72.3577 58.3087 72.7128 57.4451C73.0678 56.582 73.4405 55.7 73.8323 54.8006C74.224 53.9012 74.5757 53.0739 74.8876 52.319C75.1996 51.5645 75.4415 50.9334 75.6129 50.426C75.7839 49.919 75.8269 49.6232 75.7412 49.5382C75.6555 49.4662 75.6952 49.3816 75.8607 49.285C76.0257 49.1883 76.2305 49.1342 76.4753 49.1217C76.7202 49.11 76.9739 49.1646 77.2373 49.285C77.5003 49.4058 77.6869 49.6474 77.7971 50.0094C77.8823 50.2752 77.8579 50.6647 77.7236 51.1779C77.5889 51.6912 77.3901 52.2736 77.1271 52.9255C76.8637 53.5779 76.5547 54.2815 76.2005 55.036C75.8451 55.7909 75.4871 56.5366 75.1266 57.2731C74.7652 58.0096 74.4229 58.7195 74.0987 59.4015C73.774 60.0834 73.511 60.6816 73.3092 61.1945C73.107 61.7081 72.9909 62.1155 72.9606 62.4171C72.9297 62.7192 73.0184 62.8583 73.2269 62.8337C73.3489 62.8221 73.5051 62.725 73.6947 62.5442C73.8842 62.363 74.0953 62.1305 74.3279 61.8464C74.5605 61.5631 74.7986 61.2461 75.0438 60.8958C75.2883 60.5454 75.5209 60.1955 75.7412 59.8451C75.9616 59.4948 76.157 59.1632 76.3284 58.8491C76.5002 58.5349 76.6227 58.2754 76.6957 58.07C76.7324 57.9734 76.7936 57.9134 76.8793 57.8888C76.9646 57.8646 77.0448 57.8646 77.1178 57.8888C77.1913 57.9134 77.2491 57.9613 77.2922 58.0338C77.3348 58.1063 77.3319 58.185 77.2829 58.2692Z" fill="white"/>
<path d="M81.3396 56.16C81.3396 56.0634 81.367 55.9734 81.4224 55.8888C81.4772 55.8043 81.5477 55.7318 81.6334 55.6714C81.5722 55.5264 81.4739 55.4535 81.3396 55.4535C81.1682 55.4418 80.9783 55.5176 80.7701 55.6805C80.562 55.8434 80.3391 56.0788 80.1002 56.3867C79.8617 56.6949 79.6139 57.0753 79.3572 57.5281C79.0997 57.9809 78.843 58.4854 78.5864 59.0403C78.4272 59.3907 78.2955 59.7677 78.1917 60.1722C78.0878 60.5771 78.0292 60.9633 78.0169 61.3316C78.0051 61.6998 78.0418 62.0231 78.1279 62.301C78.2132 62.5789 78.3656 62.7597 78.5864 62.8438C78.7574 62.9163 78.938 62.8984 79.1276 62.7896C79.3171 62.6809 79.5067 62.5118 79.6962 62.2822C79.8862 62.0531 80.082 61.7753 80.2842 61.4491C80.4865 61.1233 80.6815 60.7825 80.8719 60.4263C81.0614 60.0701 81.2446 59.7135 81.4224 59.3569C81.5992 59.0008 81.7677 58.6721 81.9268 58.3705C82.0978 57.9718 82.2662 57.5939 82.4313 57.2377C82.5968 56.8816 82.7344 56.562 82.8441 56.2783C82.9543 55.9946 83.0278 55.7526 83.0645 55.5535C83.1012 55.3543 83.0831 55.2181 83.0096 55.1456C82.9239 55.0731 82.9644 54.989 83.1291 54.8923C83.2946 54.7961 83.4993 54.7411 83.7441 54.729C83.9886 54.7174 84.2423 54.7719 84.5057 54.8923C84.7683 55.0136 84.9549 55.2544 85.065 55.6164C85.1756 55.9671 85.1575 56.3929 85.0106 56.8936C84.8641 57.3948 84.6585 57.9168 84.3955 58.4604C84.1325 59.0037 83.8509 59.5419 83.5512 60.0731C83.2515 60.6042 83.0007 61.0783 82.7985 61.4949C82.5968 61.9115 82.4807 62.2435 82.4503 62.4905C82.4195 62.7384 82.544 62.8501 82.826 62.8255C82.9362 62.8138 83.0894 62.7176 83.2849 62.5364C83.4803 62.3551 83.6952 62.1227 83.9278 61.8386C84.1604 61.5549 84.4014 61.2383 84.6526 60.8879C84.9029 60.538 85.1355 60.1876 85.35 59.8377C85.564 59.4873 85.7565 59.1553 85.9279 58.8412C86.0989 58.5275 86.2213 58.2676 86.2952 58.0618C86.3319 57.9651 86.3931 57.9051 86.4788 57.8805C86.5641 57.8568 86.6434 57.8568 86.7173 57.8805C86.7908 57.9051 86.849 57.9534 86.8921 58.0259C86.9347 58.098 86.9318 58.1772 86.8828 58.2613C86.7844 58.4671 86.6439 58.7475 86.4606 59.1032C86.277 59.4598 86.06 59.8406 85.8093 60.2451C85.5581 60.6496 85.2858 61.057 84.9916 61.4678C84.6982 61.8786 84.3951 62.2527 84.0831 62.5905C83.7716 62.9288 83.4562 63.2062 83.1384 63.4237C82.8196 63.6412 82.514 63.7495 82.2202 63.7495C81.755 63.7741 81.4063 63.587 81.1737 63.1883C80.9415 62.7901 80.8558 62.2822 80.9175 61.6665C80.6849 62.041 80.44 62.3826 80.1829 62.6905C79.9258 62.9984 79.6477 63.2425 79.3479 63.4237C79.0482 63.6049 78.7295 63.7132 78.393 63.7495C78.0566 63.7857 77.6872 63.7199 77.2836 63.5508C76.7935 63.3575 76.4415 63.0733 76.2274 62.6988C76.0134 62.3247 75.8885 61.9173 75.8517 61.4761C75.815 61.0358 75.8513 60.5771 75.9615 60.0997C76.0712 59.6227 76.2063 59.1853 76.3651 58.787C76.6589 58.0505 76.986 57.419 77.3474 56.8936C77.7083 56.3683 78.0908 55.9397 78.4944 55.6076C78.8983 55.2756 79.3137 55.0373 79.7426 54.8923C80.1703 54.7474 80.6051 54.6815 81.0458 54.6932C81.1923 54.7053 81.3481 54.732 81.5135 54.7744C81.679 54.8165 81.8318 54.8861 81.9724 54.9827C82.113 55.0794 82.2324 55.2089 82.3304 55.3718C82.4283 55.5351 82.4777 55.7376 82.4777 55.9788C82.4777 56.2446 82.4161 56.4262 82.2937 56.5229C82.1953 56.6312 82.0674 56.6853 81.9082 56.6853C81.7613 56.6853 81.6296 56.6379 81.5135 56.5408C81.3974 56.4441 81.3396 56.3171 81.3396 56.16Z" fill="white"/>
<path d="M83.7284 53.958C83.7166 54.1271 83.6689 54.2387 83.5849 54.2929C83.5017 54.3475 83.4093 54.3412 83.3076 54.275C83.2062 54.2087 83.1222 54.0817 83.0564 53.8946C82.9905 53.7076 82.9698 53.4568 82.9943 53.1427C83.042 52.6357 83.2409 52.2491 83.59 51.9837C83.9391 51.7184 84.3921 51.5397 84.9493 51.4493C85.5061 51.3589 86.1359 51.3255 86.8396 51.3497C87.5429 51.3738 88.2741 51.4222 89.0327 51.4942C89.2412 50.951 89.3936 50.5044 89.4916 50.1541C89.5899 49.8041 89.6081 49.5988 89.5469 49.5384C89.4612 49.4659 89.5013 49.3813 89.6659 49.2846C89.8314 49.188 90.0361 49.1338 90.281 49.1218C90.5258 49.1097 90.7795 49.1643 91.0429 49.2846C91.3059 49.4055 91.4925 49.6471 91.6027 50.0091C91.6639 50.1787 91.6698 50.4078 91.6209 50.6973C91.5719 50.9873 91.4925 51.3134 91.3823 51.6755C91.9206 51.7 92.4592 51.7 92.9975 51.6755C93.5357 51.6517 94.0191 51.6063 94.448 51.5397C94.8756 51.4738 95.2218 51.3859 95.4847 51.2772C95.7477 51.1685 95.8795 51.0356 95.8795 50.8785C95.8795 50.6973 95.9343 50.604 96.0445 50.5982C96.1547 50.5919 96.2649 50.6373 96.375 50.7335C96.4852 50.8306 96.5612 50.9573 96.6043 51.1139C96.6473 51.2714 96.595 51.4159 96.4485 51.5488C96.2894 51.7059 96.0352 51.8542 95.6865 51.9925C95.3378 52.1316 94.922 52.2524 94.4382 52.3549C93.9553 52.4574 93.4196 52.5449 92.8324 52.6174C92.2452 52.6903 91.6331 52.7324 90.9969 52.7444C90.7398 53.3964 90.4308 54.1029 90.0699 54.8636C89.709 55.6243 89.348 56.3821 88.9871 57.137C88.6262 57.8918 88.277 58.6163 87.941 59.3107C87.6041 60.0052 87.3352 60.6147 87.133 61.14C86.9313 61.6653 86.8088 62.0848 86.7662 62.3989C86.7231 62.713 86.8122 62.858 87.0321 62.8334C87.1546 62.8218 87.3103 62.7247 87.5007 62.5439C87.6898 62.3627 87.9009 62.1302 88.1339 61.8465C88.3657 61.5628 88.6046 61.2458 88.8495 60.8954C89.0939 60.5455 89.3269 60.1952 89.5469 59.8448C89.7672 59.4949 89.9631 59.1628 90.1345 58.8487C90.3055 58.5346 90.4279 58.2751 90.5013 58.0697C90.5381 57.9731 90.5988 57.9131 90.685 57.8885C90.7707 57.8643 90.85 57.8643 90.9235 57.8885C90.9969 57.9131 91.0548 57.961 91.0978 58.0335C91.1409 58.106 91.1375 58.1847 91.089 58.2688C90.9906 58.4746 90.85 58.7554 90.6668 59.1112C90.4832 59.4678 90.2653 59.8481 90.015 60.2522C89.7643 60.6572 89.4916 61.0646 89.1982 61.4749C88.9048 61.8857 88.6017 62.2602 88.2897 62.5981C87.9773 62.9363 87.6624 63.2138 87.3441 63.4312C87.0262 63.6487 86.7202 63.7574 86.4268 63.7574C86.1819 63.7695 85.9709 63.7212 85.7936 63.6124C85.6163 63.5037 85.4723 63.3496 85.3621 63.1504C85.2515 62.9513 85.1785 62.7097 85.1418 62.426C85.1051 62.1423 85.1051 61.8374 85.1418 61.5112C85.1907 61.1371 85.3347 60.6088 85.5732 59.9265C85.8117 59.2441 86.0958 58.4955 86.4268 57.6802C86.7569 56.8653 87.1086 56.0259 87.4821 55.1627C87.8549 54.2991 88.2006 53.493 88.5194 52.7444C87.8828 52.7444 87.277 52.7532 86.702 52.7715C86.1271 52.7894 85.6222 52.8411 85.1878 52.9252C84.7534 53.0102 84.4047 53.1335 84.1417 53.2968C83.8783 53.4597 83.7407 53.6801 83.7284 53.958Z" fill="white"/>
<path d="M94.9037 59.1074C94.7201 59.4636 94.5027 59.8444 94.2523 60.2484C94.0012 60.6534 93.7289 61.0608 93.4351 61.4711C93.1417 61.8819 92.8386 62.2564 92.527 62.5943C92.2147 62.9325 91.8993 63.21 91.5814 63.4275C91.2631 63.6449 90.9575 63.7541 90.6637 63.7541C90.4193 63.7661 90.2082 63.7178 90.0305 63.6091C89.8532 63.5004 89.7092 63.3458 89.599 63.1467C89.4889 62.9475 89.4158 62.7059 89.3791 62.4222C89.3424 62.1385 89.3424 61.834 89.3791 61.5078C89.4281 61.1095 89.5231 60.6867 89.6636 60.2401C89.8042 59.7931 89.9659 59.3461 90.1495 58.8991C90.3327 58.4525 90.5197 58.0209 90.7097 57.6043C90.8993 57.1878 91.0639 56.8099 91.2049 56.4721C91.3455 56.1338 91.4438 55.8501 91.4987 55.6205C91.554 55.3914 91.5384 55.2348 91.4531 55.1498C91.3674 55.0777 91.4071 54.9932 91.5721 54.8965C91.7376 54.7999 91.9424 54.7457 92.1872 54.7332C92.4316 54.7215 92.6858 54.7761 92.9492 54.8965C93.2122 55.0173 93.3979 55.2581 93.5085 55.6205C93.6187 55.9709 93.6006 56.3966 93.4536 56.8974C93.3067 57.3986 93.1016 57.921 92.8386 58.4642C92.5756 59.0078 92.294 59.5457 91.9943 60.0768C91.6946 60.6084 91.4438 61.0816 91.242 61.4982C91.0398 61.9152 90.9237 62.2472 90.8933 62.4947C90.8625 62.7426 90.9879 62.8542 91.2695 62.8296C91.3915 62.818 91.5477 62.7213 91.7376 62.5405C91.9272 62.3593 92.1382 62.1264 92.3708 61.8423C92.603 61.559 92.8411 61.2424 93.0864 60.8921C93.3308 60.5417 93.5634 60.1918 93.7833 59.8414C94.0041 59.4911 94.1996 59.1586 94.371 58.845C94.5424 58.5308 94.6652 58.2713 94.7387 58.0659C94.7754 57.9693 94.8362 57.9089 94.9223 57.8847C95.0076 57.8605 95.0873 57.8605 95.1608 57.8847C95.2343 57.9089 95.2921 57.9572 95.3351 58.0297C95.3778 58.1022 95.3748 58.1809 95.3259 58.2651C95.2275 58.4709 95.0873 58.7512 94.9037 59.1074ZM94.1054 53.4651C94.1721 53.3201 94.2456 53.1752 94.3254 53.0306C94.4052 52.8852 94.4786 52.7469 94.5457 52.614C94.6129 52.4815 94.6466 52.3782 94.6466 52.3057C94.6466 52.0041 94.5542 51.7567 94.371 51.5638C94.1873 51.3705 93.983 51.2255 93.7567 51.1289C93.5301 51.0322 93.3249 50.9839 93.1417 50.9839C92.9581 50.9839 92.866 51.026 92.866 51.1101C92.866 51.1826 92.8297 51.2859 92.7563 51.4184C92.6828 51.5517 92.6005 51.6963 92.5085 51.8529C92.4164 52.0099 92.3337 52.1578 92.2602 52.2966C92.1868 52.4357 92.1505 52.5474 92.1505 52.6319C92.1505 52.9339 92.2484 53.1843 92.4439 53.3834C92.6398 53.5826 92.8508 53.728 93.0771 53.8188C93.3038 53.9092 93.5149 53.9542 93.7103 53.9542C93.9062 53.9542 94.0045 53.9059 94.0045 53.8092C94.0045 53.7251 94.0379 53.6101 94.1054 53.4651Z" fill="white"/>
<path d="M100.575 55.994C100.575 56.1873 100.539 56.3264 100.465 56.4105C100.367 56.5918 100.215 56.6822 100.006 56.6822C99.8599 56.6822 99.7278 56.6347 99.6121 56.538C99.4952 56.4414 99.4378 56.3147 99.4378 56.1577C99.4378 56.061 99.4652 55.9698 99.5201 55.8852C99.5754 55.8011 99.6455 55.729 99.7312 55.6686C99.6332 55.4995 99.5201 55.4145 99.3914 55.4145C99.2634 55.4145 99.1254 55.4657 98.9789 55.5686C98.8316 55.6711 98.6821 55.8102 98.5289 55.9852C98.3757 56.1602 98.2262 56.3385 98.0793 56.5197C97.8227 56.8459 97.5749 57.2229 97.3359 57.6516C97.0974 58.0802 96.8863 58.521 96.7027 58.9738C96.5195 59.4267 96.3722 59.8741 96.262 60.3144C96.1518 60.7556 96.094 61.1568 96.0876 61.5192C96.0813 61.8812 96.1341 62.1799 96.2438 62.4153C96.354 62.6507 96.5377 62.7927 96.7943 62.841C96.9784 62.8773 97.1827 62.796 97.4094 62.5969C97.6357 62.3978 97.8619 62.1407 98.0882 61.8266C98.3149 61.5129 98.5348 61.1718 98.7493 60.8031C98.9633 60.4348 99.1499 60.094 99.309 59.7795C99.0524 59.6712 98.8746 59.4933 98.7767 59.2459C98.6788 58.9984 98.6484 58.7472 98.6847 58.4935C98.7214 58.2402 98.8198 58.0173 98.9789 57.824C99.1376 57.6307 99.3394 57.5337 99.5843 57.5337C99.6695 57.5337 99.7797 57.5403 99.9148 57.5524C100.049 57.5645 100.165 57.6274 100.264 57.742C100.361 57.8569 100.416 58.0411 100.429 58.2944C100.441 58.5481 100.373 58.9168 100.227 59.3992C100.716 59.3875 101.108 59.3208 101.402 59.2C101.695 59.0796 101.925 58.9467 102.09 58.8022C102.255 58.6572 102.365 58.5152 102.42 58.3764C102.475 58.2377 102.515 58.1494 102.539 58.1132C102.576 58.029 102.634 57.9778 102.714 57.9598C102.793 57.9415 102.87 57.9507 102.943 57.9869C103.017 58.0232 103.072 58.0802 103.108 58.1586C103.145 58.2373 103.145 58.3252 103.108 58.4218C103.011 58.651 102.858 58.8626 102.649 59.0555C102.441 59.2488 102.2 59.4117 101.925 59.5441C101.649 59.6774 101.343 59.7799 101.007 59.8528C100.67 59.9253 100.331 59.9549 99.9878 59.9428C99.8165 60.3173 99.5995 60.7339 99.3365 61.1926C99.0731 61.6517 98.7708 62.0774 98.428 62.4694C98.0857 62.8623 97.7091 63.1851 97.2992 63.4388C96.8893 63.6921 96.4515 63.8009 95.9868 63.7646C95.3751 63.7046 94.8947 63.4513 94.546 63.0043C94.1973 62.5578 94.0107 62.0141 93.9862 61.3738C93.974 60.891 94.0229 60.3869 94.1327 59.8616C94.2433 59.3363 94.4084 58.8197 94.6287 58.3127C94.8491 57.8053 95.1176 57.3254 95.4363 56.8725C95.7542 56.4197 96.1121 56.0248 96.5098 55.6865C96.9075 55.3487 97.3418 55.0887 97.813 54.9079C98.2841 54.7267 98.7767 54.6484 99.2909 54.6721C99.5231 54.6842 99.716 54.7354 99.8688 54.8258C100.022 54.9162 100.147 55.025 100.245 55.152C100.343 55.2787 100.416 55.4174 100.465 55.5686C100.514 55.7194 100.551 55.8615 100.575 55.994Z" fill="white"/>
<path d="M109.604 56.9797C109.579 57.3905 109.487 57.8221 109.329 58.2749C109.169 58.7278 108.989 59.1718 108.787 59.6068C108.585 60.0413 108.383 60.4549 108.181 60.8474C107.979 61.2402 107.823 61.581 107.713 61.8709C107.603 62.1609 107.557 62.3929 107.575 62.5679C107.594 62.7429 107.725 62.8303 107.97 62.8303C108.08 62.8303 108.233 62.7429 108.429 62.5679C108.625 62.3929 108.839 62.1638 109.071 61.8797C109.304 61.5964 109.546 61.276 109.796 60.9194C110.047 60.5637 110.283 60.21 110.503 59.86C110.723 59.5097 110.919 59.1748 111.09 58.8544C111.262 58.5345 111.384 58.272 111.458 58.0666C111.495 57.97 111.555 57.9096 111.641 57.8854C111.726 57.8612 111.807 57.8612 111.88 57.8854C111.953 57.9096 112.011 57.9579 112.054 58.0304C112.097 58.1029 112.094 58.1816 112.045 58.2658C111.947 58.4716 111.807 58.7519 111.622 59.1081C111.439 59.4643 111.222 59.8451 110.971 60.2496C110.72 60.6545 110.448 61.0619 110.155 61.4723C109.86 61.883 109.558 62.2571 109.246 62.595C108.934 62.9332 108.619 63.2107 108.301 63.4281C107.982 63.6456 107.677 63.7548 107.382 63.7548C107.138 63.7668 106.93 63.7093 106.759 63.5827C106.587 63.4556 106.447 63.2832 106.337 63.0657C106.226 62.8487 106.15 62.6041 106.107 62.3329C106.064 62.0609 106.061 61.7864 106.098 61.5085C106.159 61.0136 106.275 60.5245 106.447 60.0413C106.618 59.5584 106.805 59.0964 107.007 58.6553C107.208 58.2145 107.407 57.81 107.603 57.4417C107.799 57.0735 107.945 56.7539 108.044 56.4819C108.141 56.2103 108.175 56.002 108.144 55.857C108.114 55.7125 107.97 55.6458 107.713 55.6579C107.578 55.67 107.389 55.775 107.144 55.9745C106.9 56.1736 106.633 56.4278 106.346 56.7356C106.058 57.0435 105.767 57.3818 105.474 57.75C105.18 58.1183 104.917 58.472 104.685 58.8098C104.452 59.2806 104.21 59.7488 103.96 60.2133C103.709 60.6782 103.485 61.1161 103.29 61.5264C103.094 61.9368 102.95 62.2992 102.858 62.6129C102.767 62.927 102.763 63.169 102.849 63.3382C102.898 63.4348 102.858 63.534 102.73 63.6364C102.601 63.7393 102.436 63.7931 102.234 63.7997C102.032 63.8056 101.824 63.7423 101.61 63.6094C101.396 63.4765 101.234 63.229 101.124 62.8666C101.026 62.5771 101.032 62.1967 101.142 61.726C101.253 61.2548 101.412 60.7507 101.619 60.2133C101.827 59.6763 102.06 59.1264 102.317 58.5653C102.574 58.0037 102.806 57.4867 103.015 57.016C103.222 56.5452 103.375 56.1407 103.473 55.8025C103.571 55.4646 103.571 55.2471 103.473 55.1501C103.387 55.078 103.427 54.9934 103.592 54.8968C103.758 54.8001 103.966 54.746 104.216 54.7335C104.467 54.7218 104.722 54.776 104.978 54.8968C105.235 55.0176 105.419 55.2592 105.529 55.6217C105.578 55.7787 105.596 55.9508 105.584 56.1378C105.571 56.3253 105.541 56.5215 105.493 56.7265C105.725 56.4611 105.96 56.2074 106.199 55.9653C106.437 55.7237 106.679 55.5129 106.924 55.3317C107.168 55.1505 107.407 55.0055 107.64 54.8968C107.872 54.7881 108.099 54.7335 108.319 54.7335C108.796 54.7218 109.151 54.9268 109.384 55.3496C109.616 55.7725 109.689 56.3157 109.604 56.9797Z" fill="white"/>
<path d="M113.64 63.3789L113.622 63.3968C113.352 63.5301 113.095 63.6326 112.851 63.7051C112.606 63.7776 112.398 63.8134 112.227 63.8134C111.737 63.8134 111.362 63.6901 111.099 63.4422C110.835 63.1952 110.661 62.9019 110.575 62.5637C110.49 62.2258 110.477 61.8875 110.538 61.5493C110.599 61.2114 110.716 60.9514 110.888 60.7706C111.132 60.5169 111.352 60.3482 111.548 60.2632C111.744 60.1791 111.909 60.1487 112.044 60.1728C112.178 60.1849 112.303 60.2391 112.419 60.3357C112.536 60.4328 112.594 60.5532 112.594 60.6982C112.594 60.8552 112.536 60.9881 112.419 61.0964C112.303 61.2051 112.172 61.2597 112.025 61.2597C111.915 61.2597 111.811 61.2264 111.713 61.1602C111.615 61.0939 111.547 61.006 111.511 60.8973C111.352 61.0785 111.242 61.296 111.181 61.5493C111.12 61.803 111.107 62.0446 111.144 62.2741C111.181 62.5032 111.275 62.6999 111.428 62.8628C111.581 63.0257 111.792 63.1136 112.062 63.1252C112.159 63.1252 112.3 63.0802 112.484 62.9894C112.667 62.899 112.854 62.7482 113.044 62.5366C113.233 62.3254 113.402 62.0537 113.548 61.7213C113.695 61.3897 113.784 60.9881 113.815 60.5169C113.845 60.0462 113.793 59.4967 113.659 58.8685C113.524 58.2411 113.267 57.5346 112.888 56.7493C112.766 56.9788 112.628 57.2292 112.475 57.5012C112.322 57.7729 112.184 58.0295 112.062 58.2707C112 58.3553 111.927 58.404 111.842 58.4157C111.756 58.4282 111.677 58.419 111.603 58.3886C111.53 58.3586 111.477 58.3103 111.447 58.2436C111.417 58.1774 111.426 58.102 111.474 58.0174C111.573 57.812 111.664 57.6279 111.749 57.465C111.835 57.3017 111.921 57.1476 112.007 57.003C112.092 56.858 112.172 56.7101 112.245 56.5589C112.319 56.4085 112.398 56.2486 112.484 56.0794C112.349 55.8861 112.245 55.6745 112.171 55.4454C112.098 55.2158 112.062 54.9742 112.062 54.7205C112.062 54.6122 112.084 54.476 112.126 54.3131C112.169 54.1502 112.242 53.9873 112.347 53.824C112.45 53.6611 112.594 53.5224 112.777 53.4074C112.961 53.2928 113.199 53.2354 113.493 53.2354C113.799 53.2354 114.022 53.302 114.163 53.4345C114.304 53.5678 114.381 53.7365 114.393 53.9419C114.405 54.1473 114.362 54.3735 114.265 54.6209C114.166 54.8688 114.038 55.1133 113.879 55.3545L113.824 55.4633C114.301 56.0065 114.683 56.526 114.971 57.0209C115.258 57.5162 115.476 57.9874 115.622 58.434C115.769 58.881 115.852 59.2976 115.871 59.6838C115.889 60.0704 115.855 60.4328 115.77 60.7706C116.173 60.312 116.534 59.8587 116.853 59.4121C117.17 58.9656 117.433 58.5427 117.642 58.144C117.678 58.0595 117.733 58.0024 117.807 57.972C117.88 57.942 117.972 57.957 118.082 58.0174C118.168 58.0657 118.22 58.1324 118.238 58.2165C118.257 58.3011 118.247 58.3798 118.21 58.4519C117.917 59.0439 117.577 59.5992 117.192 60.1183C116.807 60.6378 116.381 61.1572 115.917 61.6763C115.586 62.0383 115.24 62.3645 114.879 62.6545C114.519 62.9444 114.111 63.186 113.659 63.3789H113.64Z" fill="white"/>
</g>
<defs>
<clipPath id="clip0_2139_23551">
<rect width="119" height="119" fill="white" transform="translate(0.5 0.120117)"/>
</clipPath>
</defs>
</svg>
