<svg width="110" height="67" viewBox="0 0 110 67" fill="none" xmlns="http://www.w3.org/2000/svg">
<path d="M62.1216 8.78293C47.7705 8.96459 44.864 25.4956 44.864 25.4956C44.864 25.4956 44.319 22.7707 34.3277 18.9558C24.3365 15.141 5.62558 19.5008 6.71553 37.6668C7.80549 55.8327 55.4002 65.279 55.4002 65.279C55.4002 65.279 73.7478 38.7567 76.836 29.3104C79.9242 19.8641 76.4727 8.60127 62.1216 8.78293Z" fill="#FF999A"/>
<path d="M74.9297 18.5055C65.4834 14.1457 56.2188 21.957 56.2188 33.9466C56.2188 46.3806 70.9332 65.6461 70.9332 65.6461C70.9332 65.6461 112.715 55.3824 101.997 39.3963C97.62 32.868 84.9209 37.5797 84.9209 37.5797C84.9209 37.5797 84.3759 22.8653 74.9297 18.5055Z" fill="#FF999A"/>
<path d="M54.9294 63.6112C57.8039 59.6461 64.3552 48.4372 68.6487 38.3218C72.0887 30.2172 74.106 22.7588 70.656 11.8357C67.2477 1.04416 54.5985 -2.58092 46.1529 6.23579C38.8157 13.8954 38.4423 23.0634 38.3796 26.0602C38.317 29.0569 38.672 38.1493 42.4404 40.4084C46.2089 42.6675 45.4979 37.5652 41.4232 32.5741C37.3484 27.5831 26.575 17.0918 12.2005 18.0632C-2.17408 19.0345 -0.684077 33.514 4.88469 42.0762C9.19767 48.7075 19.069 54.5466 29.3321 59.0311C40.4938 63.9082 56.2662 65.6811 62.6683 65.815" stroke="#FD1616" stroke-width="0.544978"/>
<path d="M72.1468 65.2322C72.1098 65.2213 72.0805 65.2097 72.0592 65.1973C71.2315 64.7149 63.2416 53.165 60.1587 43.506C57.0477 33.7593 58.676 26.6912 63.4319 21.9062C68.5036 16.8034 77.0401 20.9857 79.6097 26.5647C82.1793 32.1436 82.4455 38.3613 82.2631 40.5C82.0807 42.6388 79.9073 47.3176 78.5725 46.4824C77.2377 45.6472 78.6133 40.066 86.6395 34.7304C92.7774 30.6502 98.5247 27.4411 105.192 31.2991C110.948 34.63 109.876 43.2588 106.457 48.3524C103.241 53.1438 95.3572 58.4416 88.5088 61.1286C81.6604 63.8155 73.77 65.5477 62.4873 65.8063" stroke="#FD1515" stroke-width="0.544978"/>
</svg>
