<svg width="254" height="199" viewBox="0 0 254 199" fill="none" xmlns="http://www.w3.org/2000/svg">
<path d="M140.02 50.4941C140.02 50.4941 179.66 45.2931 185.594 44.0451C191.528 42.7966 199.124 42.1724 203.159 42.7966C207.194 43.4209 213.603 44.2531 217.639 45.5012C221.674 46.7496 223.098 47.9976 224.759 49.4541C224.759 49.4541 226.42 50.286 227.133 51.7425C227.844 53.1986 229.257 55.9785 229.257 55.9785C229.257 55.9785 229.251 55.936 229.643 60.2957C229.784 61.8654 229.103 64.9159 229.103 64.9159C229.103 64.9159 227.335 67.4715 226.169 68.6737C225.003 69.8763 211.285 78.7731 209.159 79.7948C207.033 80.8169 196.607 85.6857 194.343 86.4068C192.08 87.1284 184.535 90.1947 184.535 90.1947L165.262 85.9866L137.277 66.3894L140.02 50.4941Z" fill="#FB7865"/>
<path d="M151.88 1.11523C152.223 4.47317 155.07 5.81002 158.36 4.23387C158.806 4.02012 159.777 4.10367 160.138 4.39732C161.398 5.42308 162.561 6.55875 163.612 7.75364C163.855 8.02945 163.689 8.82239 163.397 9.17769C162.271 10.5446 161.865 12.0266 162.323 13.6291C163.14 16.4894 166.345 17.3026 168.758 15.2876C169.135 14.9729 169.356 14.5162 169.672 14.0952C172.153 16.5239 174.47 18.5665 176.438 20.8414C177.133 21.6441 177.083 23.0077 177.18 24.1284C177.342 25.9925 178.676 27.3253 180.822 27.1765C182.621 27.0524 183.656 27.6887 184.692 28.856C188.029 32.6143 190.223 36.8921 192.127 41.2876C192.592 42.3628 193.132 42.6281 194.308 42.5608C200.085 42.2318 205.84 42.2545 211.558 43.2738C215.927 44.053 220.142 45.2629 223.762 47.5038C226.352 49.1071 228.005 51.565 228.935 54.289C229.012 54.5157 228.761 54.8289 228.533 55.4616C228.124 54.7619 227.829 54.3904 227.679 53.9787C226.061 49.5634 222.039 47.2848 217.542 45.7532C210.899 43.4896 203.875 43.0909 196.794 43.3513C194.842 43.4231 192.883 43.3622 191.464 43.3622C190.382 42.0302 189.737 40.8167 188.683 40.0177C185.816 37.8433 182.839 38.9067 182.215 42.2038C181.712 44.8593 181.72 44.9019 178.683 45.3801C171.316 46.5393 163.947 47.6948 156.561 48.7579C155.006 48.9818 154.935 49.5687 155.529 50.5324C157.083 53.0552 158.534 55.6409 160.293 58.0509C165.931 65.7731 172.594 72.7258 181.304 77.9187C185.33 80.319 189.659 82.3429 193.95 84.3746C194.846 84.7988 196.415 84.886 197.279 84.4809C203.422 81.5987 209.538 78.6593 215.508 75.5131C219.801 73.2507 223.641 70.42 226.764 66.9286C227.345 66.2793 227.786 65.5342 228.308 64.8426C228.356 64.7798 228.519 64.7838 228.97 64.6723C228.454 66.7486 227.221 68.2529 225.676 69.582C219.872 74.5762 213.096 78.3632 205.897 81.5719C199.425 84.4573 192.862 87.1866 186.337 89.9795C186.135 90.0655 185.901 90.0935 185.683 90.1487L185.34 89.8205C185.708 89.5236 186.021 89.1172 186.455 88.9477C188.775 88.0396 191.126 87.1902 193.754 86.2136C193.17 85.8376 192.893 85.5934 192.558 85.4539C177.851 79.3241 166.569 69.9134 158.193 57.7483C156.567 55.387 155.118 52.927 153.708 50.4594C153.212 49.5906 152.642 49.3346 151.609 49.4815C148.967 49.8575 146.32 50.2205 143.661 50.4853C143.188 50.5324 142.355 50.1921 142.187 49.8453C140.732 46.8321 138.58 44.3563 135.479 42.5015C135.096 42.2728 134.778 41.6169 134.845 41.2118C135.176 39.2065 135.646 37.2191 136.053 35.2957C136.376 35.2332 136.51 35.1651 136.584 35.1992C140.369 36.9339 143.628 35.4296 144.167 31.6928C144.389 30.1511 142.575 28.0027 140.185 27.6048C138.044 27.2487 138.15 26.3142 138.59 24.9558C140.216 19.9394 141.632 14.8638 143.487 9.91426C144.756 6.52711 146.321 3.13673 150.092 1.11523H151.88ZM154.11 26.8629C154.085 29.0734 156.422 31.1136 159.04 31.1659C161.165 31.2081 163.765 28.6565 163.734 26.5604C163.706 24.6792 160.751 22.3105 158.345 22.2408C156.118 22.1767 154.139 24.3369 154.11 26.8629ZM152.72 12.4541C152.753 10.0282 150.677 8.40787 147.52 8.39651C145.285 8.3884 143.213 10.3231 143.221 12.4119C143.23 14.9254 145.548 16.8544 148.565 16.8593C151.022 16.8634 152.684 15.1018 152.72 12.4541ZM157.723 42.1613C157.754 39.6032 156.179 38.1077 153.478 38.1308C151.209 38.1503 149.168 40.216 149.124 42.5376C149.083 44.7056 150.939 46.1381 153.894 46.218C156.184 46.2801 157.692 44.682 157.723 42.1613ZM178.562 34.9789C178.668 32.7733 176.686 30.9992 174.019 30.9124C171.938 30.8443 170.02 32.6111 169.952 34.6577C169.885 36.7035 172.164 38.7761 174.554 38.8418C176.617 38.8986 178.46 37.1221 178.562 34.9789Z" fill="#183EAC"/>
<path d="M181.117 68.5023C181.123 65.017 184.225 62.3949 188.356 62.3819C192.446 62.3693 195.277 64.9558 195.289 68.7181C195.302 72.5437 192.795 74.8256 188.44 74.7891C185.39 74.7635 180.809 72.6114 181.117 68.5023Z" fill="#183EAC"/>
<path d="M221.382 57.5963C219.171 57.5204 217.636 56.6082 216.718 55.1529C216.362 54.59 216.547 53.4133 217.022 52.8982C217.484 52.3993 218.664 52.1535 219.473 52.2322C220.281 52.3109 220.989 53.0012 221.802 53.2924C222.679 53.606 223.619 53.9276 224.543 53.9572C225.875 53.9998 226.177 54.4804 225.648 55.417C224.746 57.0134 222.961 57.3062 221.382 57.5963Z" fill="#183EAC"/>
<path d="M176.01 56.9989C172.967 56.9713 169.668 54.6785 168.964 52.0218C168.871 51.671 169.214 51.2317 169.356 50.833C169.721 51.0455 170.198 51.1899 170.428 51.4836C170.962 52.1654 171.26 53.0046 171.858 53.6292C174.568 56.4598 178.872 56.0315 180.857 52.7787C180.969 52.5949 181 52.3398 181.165 52.2206C181.528 51.9585 181.953 51.7618 182.353 51.5387C182.456 51.946 182.748 52.4019 182.632 52.7539C181.844 55.1481 178.858 57.0248 176.01 56.9989Z" fill="#183EAC"/>
<path d="M221.334 70.5903C219.827 70.3328 218.293 70.1645 216.82 69.8002C213.82 69.058 211.297 67.6299 209.53 65.3334C209.043 64.7007 208.67 63.9467 208.491 63.2024C208.377 62.7323 208.718 62.1779 208.855 61.6611C209.229 62.0302 209.798 62.3478 209.944 62.7769C210.579 64.637 211.925 66.027 213.748 66.9562C216.168 68.19 218.733 69.2052 221.235 70.3141C221.268 70.4062 221.301 70.4983 221.334 70.5903Z" fill="#183EAC"/>
<path d="M154.11 26.8618C154.138 24.3358 156.118 22.1756 158.344 22.2397C160.75 22.3094 163.705 24.6785 163.734 26.5593C163.765 28.6554 161.164 31.207 159.039 31.1648C156.422 31.1125 154.084 29.0728 154.11 26.8618Z" fill="#FECBA7"/>
<path d="M152.72 12.4537C152.683 15.101 151.021 16.8634 148.564 16.8593C145.548 16.8544 143.23 14.925 143.221 12.4119C143.213 10.3231 145.285 8.3884 147.52 8.39651C150.676 8.40746 152.753 10.0278 152.72 12.4537Z" fill="#FECBA7"/>
<path d="M157.723 42.1596C157.692 44.6804 156.183 46.278 153.894 46.216C150.939 46.1361 149.082 44.7039 149.124 42.5356C149.168 40.2143 151.209 38.1486 153.477 38.1292C156.178 38.1061 157.754 39.6011 157.723 42.1596Z" fill="#FECBA7"/>
<path d="M178.561 34.9776C178.459 37.1208 176.616 38.8973 174.553 38.8405C172.163 38.7748 169.883 36.7022 169.951 34.6564C170.018 32.6097 171.936 30.8429 174.018 30.9111C176.684 30.9979 178.667 32.772 178.561 34.9776Z" fill="#FECBA7"/>
<path d="M151.88 1.11441C151.88 1.11441 153.009 0.113801 155.321 1.46484C157.635 2.81629 159.667 4.10609 159.667 4.10609C159.667 4.10609 157.004 5.3963 155.743 5.08885C154.481 4.78182 153.359 4.72057 152.729 3.61491C152.098 2.50926 151.88 1.11441 151.88 1.11441Z" fill="#FECBA7"/>
<path d="M138.315 26.127C138.315 26.127 137.481 28.9515 136.87 31.1917C136.259 33.4318 134.203 36.7431 139.425 35.8666C144.649 34.9901 144.069 32.3371 144.164 31.6913C144.26 31.0456 142.537 28.0264 141.37 27.5392C140.204 27.0525 138.315 26.127 138.315 26.127Z" fill="#FECBA7"/>
<path d="M163.373 7.62207C163.373 7.62207 165.984 9.03436 167.54 11.0311C169.096 13.0275 169.818 14.4397 169.818 14.4397C169.818 14.4397 167.374 17.2639 165.151 16.3387C162.929 15.4136 160.985 13.1244 161.763 11.6638C162.54 10.2029 163.373 7.62207 163.373 7.62207Z" fill="#FECBA7"/>
<path d="M134.845 41.2109C134.845 41.2109 140.797 44.4217 141.258 46.7299C141.719 49.0382 144.221 50.5389 143.035 50.5389C141.85 50.5389 136.583 51.8664 135.331 51.2892C134.08 50.7121 133.751 48.4034 134.212 45.7488C134.673 43.0941 134.845 41.2109 134.845 41.2109Z" fill="#FECBA7"/>
<path d="M184.056 39.2261C183.003 39.8608 182.278 40.8995 182.08 41.8231C181.883 42.7466 180.895 44.6509 181.159 44.7665C181.422 44.8817 191.69 43.9156 191.461 43.3599C191.233 42.8042 189.389 39.8608 188.27 39.4568C187.151 39.0529 185.307 38.4757 184.78 38.7645C184.254 39.0529 184.056 39.2261 184.056 39.2261Z" fill="#FECBA7"/>
<path d="M176.438 20.8398C176.438 20.8398 179.91 23.7034 181.292 25.0885C182.675 26.4736 184.123 28.2623 184.123 28.2623C184.123 28.2623 180.634 28.1471 179.514 27.3391C178.395 26.5312 177.612 25.7054 177.18 24.1268C176.749 22.5486 176.438 20.8398 176.438 20.8398Z" fill="#FECBA7"/>
<path d="M216.895 66.699C218.008 65.451 228.796 54.8633 228.796 54.8633C228.796 54.8633 242.289 43.5463 243.729 41.5625C245.169 39.5788 246.336 36.6329 245.238 35.9714C244.141 35.3102 241.123 34.7096 239.957 35.4311C238.791 36.1523 237.145 37.3549 237.488 39.0377C237.831 40.7209 237.831 41.322 238.722 41.322C239.614 41.322 240.574 41.3824 240.986 40.6609C241.398 39.9397 242.289 39.0977 242.015 38.8576C241.741 38.6171 240.849 38.5566 240.711 38.9777C240.574 39.3987 240.506 40.3003 240.094 40.2399C239.683 40.1798 238.722 40.1798 238.928 39.2182C239.134 38.2565 239.409 37.1143 240.711 36.9939C242.015 36.8734 242.906 36.5733 243.181 37.1143C243.455 37.655 244.278 37.8355 243.729 39.2782C243.18 40.7209 241.466 43.0052 240.643 43.0657C239.819 43.1257 237.487 43.7268 236.527 43.1857C235.567 42.6447 233.441 41.6826 233.578 39.3382C233.716 36.9939 234.195 34.1685 237.419 32.9063C240.643 31.6436 245.238 30.682 247.982 32.1847C250.725 33.6874 253.058 35.4311 253.058 37.9556C253.058 40.4808 253.812 42.4041 251.48 44.6885C249.148 46.9728 229.394 64.1048 229.394 64.1048C229.394 64.1048 226.815 67.06 225.477 68.1162C223.757 69.4733 220.986 70.3693 218.647 69.8071C217.047 69.4226 214.964 68.8645 216.895 66.699Z" fill="#FB7865"/>
<path d="M221.592 62.3721C221.592 62.3721 217.295 66.2776 217.136 67.2542C216.977 68.2305 216.579 68.5793 218.091 68.9975C219.603 69.4161 220.399 69.9048 221.752 69.556C223.104 69.2076 225.253 67.3236 225.253 67.3236L221.592 62.3721Z" fill="#FECBA7"/>
<path d="M224.136 60.0703C223.977 60.3494 223.579 60.2796 223.897 61.2559C224.215 62.2325 225.648 65.9989 225.966 66.278C226.285 66.557 226.842 66.9752 226.921 66.3477C227.001 65.7203 225.409 61.5353 225.25 61.0474C225.091 60.5591 224.136 60.0703 224.136 60.0703Z" fill="#FECBA7"/>
<path d="M227.08 56.7236C226.921 57.3511 226.524 57.2817 227.24 59.0952C227.956 60.9086 228.513 62.7918 228.513 63.6285C228.513 64.4657 228.593 64.9536 228.911 64.4653C229.229 63.9769 229.866 62.3732 229.308 60.6993C228.752 59.0254 227.956 57.2817 227.717 57.0729C227.478 56.8636 227.08 56.7236 227.08 56.7236Z" fill="#FECBA7"/>
<path d="M229.629 54.6325C229.629 55.1208 229.549 55.8878 230.027 56.7947C230.505 57.7012 231.3 60.0724 231.3 60.7002C231.3 61.3277 230.902 62.1648 231.539 61.816C232.175 61.4676 232.255 60.9095 232.255 59.8631C232.255 58.817 231.459 57.0738 231.061 56.0274C230.663 54.9813 230.425 54.2139 230.027 54.4232L229.629 54.6325Z" fill="#FECBA7"/>
<path d="M232.731 51.4922C232.493 52.1894 233.209 52.8173 233.527 54.0028C233.845 55.1884 234.562 56.9321 234.562 57.6995C234.562 58.4664 234.721 59.2342 235.039 58.8157C235.357 58.3971 235.596 57.6999 235.278 56.2352C234.959 54.7706 234.641 53.1665 233.925 52.3293C233.209 51.4926 232.731 51.4922 232.731 51.4922Z" fill="#FECBA7"/>
<path d="M235.674 48.563C235.435 49.1905 235.276 49.6788 235.754 50.5156C236.231 51.3527 237.425 53.0964 237.425 53.6545C237.425 54.2122 237.265 55.8861 237.981 55.7466C238.698 55.607 238.777 54.7703 238.539 54.0029C238.3 53.2359 236.39 49.4695 236.151 48.9816C235.913 48.4933 235.674 48.563 235.674 48.563Z" fill="#FECBA7"/>
<path d="M239.576 49.5387C239.814 50.3754 240.292 52.4679 240.69 52.7469C241.088 53.026 241.246 53.305 241.486 52.8865C241.724 52.4679 241.804 51.7703 241.406 50.7242C241.008 49.6782 239.257 46.5397 238.78 46.3304C238.302 46.1211 239.336 48.7019 239.576 49.5387Z" fill="#FECBA7"/>
<path d="M241.087 43.8213C240.769 44.3096 240.849 44.7976 241.406 45.844C241.963 46.89 243.952 49.4007 244.111 49.889C244.27 50.3774 244.668 51.0048 244.828 50.2379C244.987 49.4705 245.146 48.1454 244.191 47.3086C243.236 46.4715 242.042 44.7278 241.724 44.3096C241.406 43.8911 241.087 43.8213 241.087 43.8213Z" fill="#FECBA7"/>
<path d="M0.898438 197.977H210.905C210.905 197.977 212.266 193.692 210.565 188.026C208.863 182.36 219.072 160.889 217.71 151.942C216.349 142.996 208.864 131.664 203.079 126.594C197.295 121.524 195.594 119.437 192.191 108.403C188.789 97.3694 187.577 88.2669 184.115 86.4462C180.652 84.6255 174.248 83.412 171.651 83.5636C169.055 83.7153 169.055 83.1082 169.055 83.1082C169.055 83.1082 169.574 68.6961 161.612 67.027C153.649 65.3584 148.802 65.5101 148.802 65.5101C148.802 65.5101 151.052 61.4132 149.148 59.2895C147.244 57.1654 143.609 55.9522 143.609 55.9522C143.609 55.9522 143.609 48.0625 141.013 45.3317C138.416 42.6008 132.185 40.6292 128.896 41.0842C125.607 41.5393 124.741 41.691 124.741 41.691C124.741 41.691 116.778 33.8018 109.854 33.8018C102.93 33.8018 92.3711 35.6225 85.7931 40.6292C79.2152 45.6355 72.6377 50.7934 71.4257 54.2828C70.2141 57.7721 68.1367 64.2962 68.1367 64.2962C68.1367 64.2962 52.9038 63.3856 43.5561 72.3367C34.2089 81.2878 30.4007 87.5085 30.0545 93.4253C29.7084 99.3418 29.1887 105.562 29.1887 105.562C29.1887 105.562 13.4365 110.72 7.89753 129.229C2.35805 147.738 4.08931 160.33 5.99319 162.302C7.89753 164.274 11.8788 168.522 9.62832 173.074C7.37783 177.625 3.22345 185.362 2.87729 189.004C2.53113 192.645 0.898438 197.977 0.898438 197.977Z" fill="#FECBA7"/>
<path d="M93.9541 116.524L98.4639 180.391L117.453 182.264L122.2 117.149C122.2 117.149 121.488 118.397 118.877 115.484C116.266 112.572 115.791 110.907 115.791 110.907C115.791 110.907 114.842 113.196 112.705 112.78C110.569 112.363 107.246 109.243 107.246 109.243C107.246 109.243 108.196 117.564 104.873 117.772C101.55 117.981 93.9541 116.524 93.9541 116.524Z" fill="#FB7865"/>
<path d="M114.428 198.192C110.752 195.625 107.135 192.99 103.386 190.507C97.2765 186.462 96.9729 186.039 96.9132 179.195C96.8993 177.56 97.8642 176.873 99.7353 177.119C104.503 177.747 109.275 178.351 114.044 178.963C116.858 179.324 117.269 179.669 117.347 182.14C117.47 186.058 117.589 189.977 117.57 193.895C117.563 195.328 117.156 196.76 116.931 198.192H114.428Z" fill="#183EAC"/>
<path d="M175.22 49.5986C172.443 49.5986 169.551 51.6266 169.551 51.6266C169.551 51.6266 171.98 56.5952 176.377 56.4938C180.542 56.3977 182.971 52.6406 182.277 51.728C181.3 50.4431 177.997 49.5986 175.22 49.5986Z" fill="#FA7764"/>
<path d="M175.22 49.5986C172.443 49.5986 169.551 51.6266 169.551 51.6266C169.551 51.6266 171.98 56.5952 176.377 56.4938C180.542 56.3977 182.971 52.6406 182.277 51.728C181.3 50.4431 177.997 49.5986 175.22 49.5986Z" stroke="#173DAB" stroke-width="1.12423"/>
<path d="M176.843 50.0015C176.843 50.0015 175.57 50.2818 175.57 52.2323C175.57 54.2603 176.149 55.0714 177.306 55.5784C178.463 56.0854 179.504 55.8826 180.777 55.0714C182.049 54.2603 182.512 52.3337 182.512 52.3337C182.512 52.3337 181.702 50.7113 179.851 50.3057C178 49.9001 176.843 50.0015 176.843 50.0015Z" fill="#173DAB"/>
<path d="M176.843 50.0015C176.843 50.0015 175.57 50.2818 175.57 52.2323C175.57 54.2603 176.149 55.0714 177.306 55.5784C178.463 56.0854 179.504 55.8826 180.777 55.0714C182.049 54.2603 182.512 52.3337 182.512 52.3337C182.512 52.3337 181.702 50.7113 179.851 50.3057C178 49.9001 176.843 50.0015 176.843 50.0015Z" stroke="#173DAB" stroke-width="1.12423"/>
</svg>
