<svg width="176" height="72" viewBox="0 0 176 72" fill="none" xmlns="http://www.w3.org/2000/svg">
<path d="M7.5157 3.27662C7.5157 1.81283 6.16375 0.62793 4.49359 0.62793H0C1.47148 2.61411 1.47148 5.92531 1.47148 7.24897V24.4294C1.47148 25.8932 2.82343 27.0781 4.49359 27.0781H9.02598C7.5157 25.0919 7.5157 21.7807 7.5157 20.457V3.27662ZM25.2091 20.457V3.27662C25.2091 1.81283 23.8572 0.62793 22.187 0.62793H17.6546C19.1649 2.61411 19.1649 5.92531 19.1649 7.24897V24.4294C19.1649 25.8932 20.5168 27.0781 22.187 27.0781H26.7209C25.2091 25.0919 25.2091 21.7807 25.2091 20.457ZM12.0481 11.2213C10.856 11.2213 9.50406 11.8498 9.02598 12.8592L8.27162 14.5325H14.6325C15.8649 14.5325 17.2169 13.87 17.6546 12.8946L18.4105 11.2213H12.0481Z" fill="#FB7865"/>
<path d="M46.4385 22.1626V16.1687C46.3982 10.8713 43.2177 8.22266 37.9294 8.22266C30.4137 8.22266 28.6256 12.8575 31.4087 14.2166C31.4087 12.614 33.6749 11.3244 36.0606 11.3244C38.5658 11.3244 39.9566 12.3011 40.5138 14.0424C34.9865 15.9252 28.7451 17.6679 28.7451 22.1626C28.7451 24.8113 30.971 27.46 34.4696 27.46C36.5775 27.46 39.3217 25.8915 39.6787 23.138C37.293 24.8113 34.3904 24.3229 34.3904 21.1518C34.3904 18.295 38.0877 16.3075 40.7529 15.4368C40.7917 15.6803 40.7917 15.9252 40.7917 16.1687V24.4971C40.7917 25.9608 42.1436 27.1457 43.8138 27.1457H47.1944C46.8359 26.4846 46.4385 24.1488 46.4385 22.1626Z" fill="#FB7865"/>
<path d="M63.3782 8.25879C61.112 8.25879 59.3611 9.30493 55.8237 12.2311V11.2204C55.8237 9.75794 54.4717 8.57304 52.8016 8.57304H49.4209C49.7795 9.23419 50.1365 11.57 50.1365 13.5562V33.6982C50.1365 35.162 51.4884 36.3469 53.1586 36.3469H56.578C56.1807 35.6843 55.8237 33.3853 55.8237 31.3977V14.2173C60.3561 10.245 64.0938 11.2204 64.0938 17.8428C64.0938 24.4638 60.7131 25.125 56.9366 23.1388C57.2936 25.4392 59.2028 27.4254 62.9808 27.4254C66.4795 27.4254 69.7794 24.7767 69.7794 17.8428C69.7794 12.5454 68.2691 8.25879 63.3782 8.25879Z" fill="#FB7865"/>
<path d="M86.2434 8.25879C83.9772 8.25879 82.2264 9.30493 78.6889 12.2311V11.2204C78.6889 9.75794 77.337 8.57304 75.6668 8.57304H72.2861C72.6447 9.23419 73.0017 11.57 73.0017 13.5562V33.6982C73.0017 35.162 74.3536 36.3469 76.0238 36.3469H79.4433C79.0459 35.6843 78.6889 33.3853 78.6889 31.3977V14.2173C83.2213 10.245 86.959 11.2204 86.959 17.8428C86.959 24.4638 83.5783 25.125 79.8018 23.1388C80.1588 25.4392 82.068 27.4254 85.8461 27.4254C89.3447 27.4254 92.6447 24.7767 92.6447 17.8428C92.6447 12.5454 91.1344 8.25879 86.2434 8.25879Z" fill="#FB7865"/>
<path d="M114.701 10.2815C115.058 9.44487 114.342 8.57422 113.349 8.57422H109.133C110.645 9.89788 110.049 12.1983 109.413 13.8702L105.874 23.3848L100.585 10.3863C100.188 9.30611 99.0347 8.57422 97.7216 8.57422H93.7061L100.506 24.3602C101.023 25.7887 102.454 26.8348 104.124 27.0429L101.459 32.6546C100.306 34.989 101.181 36.348 103.368 36.348H107.663C106.589 35.442 105.396 33.4205 106.271 30.9813L114.701 10.2815Z" fill="#FB7865"/>
<path d="M130.41 3.94011H139.674C140.908 3.94011 142.021 3.27759 142.497 2.26682L143.253 0.628906H122.895C124.366 2.61508 124.366 5.92628 124.366 7.24995V24.4304C124.366 25.8942 125.718 27.0791 127.388 27.0791H139.674C140.908 27.0791 142.021 26.4165 142.497 25.4058C142.497 25.4058 143.054 24.1869 143.174 23.7679C141.226 23.7679 132.954 23.7679 130.41 23.7679V3.94011ZM134.943 11.2223C133.751 11.2223 132.399 11.8508 131.921 12.8602L131.166 14.5335H137.209C138.441 14.5335 139.754 13.871 140.231 12.8956L140.987 11.2223H134.943Z" fill="#FB7865"/>
<path d="M151.517 11.2201C151.517 9.75771 150.165 8.5728 148.495 8.5728H145.116C145.475 9.23395 145.832 11.5698 145.832 13.5559V24.4636C145.832 25.9274 147.184 27.1123 148.854 27.1123H152.273C151.876 26.4497 151.517 24.1153 151.517 22.1278V11.2201ZM148.297 5.2616C150.206 5.22623 151.08 4.84396 153.149 0.662109H150.246C148.337 0.696119 147.423 1.07975 145.394 5.2616H148.297Z" fill="#FB7865"/>
<path d="M174.421 22.1282V2.64869C174.421 1.1849 173.069 0 171.399 0H168.02C168.377 0.662512 168.774 2.96158 168.774 4.94776V12.2313C167.621 9.23436 165.355 8.25896 163.088 8.25896C158.197 8.25896 154.818 12.5456 154.818 17.8429C154.818 24.7769 158.118 27.4256 161.578 27.4256C165.355 27.4256 167.304 25.4394 167.621 23.139C163.844 25.1251 160.464 24.464 160.464 17.8429C160.464 11.2205 166.111 10.2451 168.774 14.2175V24.464C168.774 25.9278 170.087 27.1127 171.757 27.1127H175.177C174.778 26.4502 174.421 24.1157 174.421 22.1282Z" fill="#FB7865"/>
<path d="M28.5086 45.9524C28.0709 44.9416 26.9579 44.2451 25.7239 44.2451H21.4306L22.6227 47.0326L13.2785 68.9186C12.9215 69.7892 13.637 70.6953 14.6708 70.6953H18.5668C17.4151 69.6845 17.6138 68.535 18.2502 67.0018C18.2502 66.9664 18.2502 66.9664 18.2502 66.9311L18.9254 65.3979L19.4826 64.0742H25.5253C26.5202 64.0742 27.3941 63.5518 27.7527 62.7492L28.3487 61.4255H20.6359L24.7305 51.8416L32.1267 68.988C32.6033 70.0328 33.7162 70.6953 34.9502 70.6953H39.2435L28.5086 45.9524Z" fill="#FB7865"/>
<path d="M46.7182 65.7477V45.6057C46.7182 44.1419 45.3663 42.957 43.6961 42.957H40.3154C40.674 43.6195 41.0325 45.92 41.0325 47.9061V68.0835C41.0325 69.5473 42.3845 70.7322 44.0531 70.7322H47.4726C47.0752 70.0697 46.7182 67.7353 46.7182 65.7477Z" fill="#FB7865"/>
<path d="M54.0301 56.7588C52.2001 56.7942 51.365 57.1424 49.417 61.1501H64.1286C65.9587 61.1148 66.8326 60.7325 68.7806 56.7588H54.0301Z" fill="#FB7865"/>
<path d="M84.7254 45.9524C84.2877 44.9416 83.1747 44.2451 81.9407 44.2451H77.6474L78.8395 47.0326L69.4953 68.9186C69.1383 69.7892 69.8538 70.6953 70.8876 70.6953H74.7836C73.6319 69.6845 73.8306 68.535 74.467 67.0018C74.467 66.9664 74.467 66.9664 74.467 66.9311L75.1422 65.3979L75.6994 64.0742H81.7421C82.737 64.0742 83.6109 63.5518 83.9695 62.7492L84.5655 61.4255H76.8527L80.9473 51.8416L88.3435 68.988C88.8201 70.0328 89.933 70.6953 91.167 70.6953H95.4603L84.7254 45.9524Z" fill="#FB7865"/>
<path d="M116.091 65.7483V46.2688C116.091 44.805 114.739 43.6201 113.069 43.6201H109.69C110.047 44.2826 110.444 46.5817 110.444 48.5679V55.8514C109.291 52.8545 107.025 51.8791 104.758 51.8791C99.8674 51.8791 96.4883 56.1657 96.4883 61.4631C96.4883 68.397 99.7882 71.0457 103.248 71.0457C107.025 71.0457 108.974 69.0595 109.291 66.7591C105.514 68.7453 102.134 68.0841 102.134 61.4631C102.134 54.8407 107.78 53.8653 110.444 57.8376V68.0841C110.444 69.5479 111.757 70.7328 113.427 70.7328H116.847C116.448 70.0703 116.091 67.7358 116.091 65.7483Z" fill="#FB7865"/>
<path d="M139.634 65.7483V60.138C139.634 55.2243 139.992 51.8791 134.704 51.8791C131.721 51.8791 129.813 53.517 125.678 56.8282V46.2688C125.678 44.805 124.326 43.6201 122.656 43.6201H119.275C119.634 44.2826 119.993 46.5817 119.993 48.5679V68.0841C119.993 69.5479 121.343 70.7328 123.013 70.7328H126.433C126.035 70.0703 125.678 67.7358 125.678 65.7483V58.8144C130.211 54.8407 133.948 53.6911 133.948 59.651V68.0841C133.948 69.5479 135.3 70.7328 136.97 70.7328H140.39C139.992 70.0703 139.634 67.7358 139.634 65.7483Z" fill="#FB7865"/>
<path d="M159.984 65.7847V59.7908C159.944 54.4934 156.764 51.8447 151.475 51.8447C143.96 51.8447 142.171 56.4796 144.955 57.8386C144.955 56.2361 147.221 54.9464 149.606 54.9464C152.112 54.9464 153.502 55.9232 154.06 57.6645C148.532 59.5473 142.291 61.2899 142.291 65.7847C142.291 68.4334 144.517 71.0821 148.015 71.0821C150.123 71.0821 152.868 69.5135 153.225 66.7601C150.839 68.4334 147.936 67.945 147.936 64.7739C147.936 61.9171 151.634 59.9296 154.299 59.0589C154.338 59.3024 154.338 59.5473 154.338 59.7908V68.1191C154.338 69.5829 155.69 70.7678 157.36 70.7678H160.74C160.382 70.1067 159.984 67.7709 159.984 65.7847Z" fill="#FB7865"/>
</svg>
