<svg width="212" height="230" viewBox="0 0 212 230" fill="none" xmlns="http://www.w3.org/2000/svg">
<path d="M64.1523 64.9968C62.5496 64.9968 60.7978 64.169 60.5807 64.0621C60.4242 63.9856 60.2881 63.8674 60.185 63.7186C60.0818 63.5697 60.015 63.3949 59.9905 63.2103C59.6276 60.4688 60.2381 55.3601 61.2217 52.8952C62.4089 49.9305 65.1646 47.2002 68.3716 47.2315C69.2416 44.2816 70.2778 41.0552 72.1737 38.4188C74.0698 35.7824 77.4616 33.2161 81.3112 33.9038C81.8667 34.0137 82.4155 34.1603 82.9546 34.3426C83.5244 34.5446 84.1103 34.6877 84.7047 34.7703C86.6211 34.9547 88.4204 33.7711 90.3249 32.5137C90.8523 32.1653 91.3984 31.8057 91.9461 31.4776C95.0937 29.5933 99.23 29.3186 101.048 32.44C102.135 34.3076 101.977 36.8886 100.602 39.7076C98.9553 43.0777 95.9315 46.529 92.8958 48.4925C92.7396 48.5924 92.5615 48.645 92.3804 48.645C92.199 48.645 92.0211 48.5924 91.8648 48.4925C91.8106 48.4575 86.2175 45.0227 82.5272 48.3838C82.0185 48.8428 81.3994 49.6743 80.7397 50.5666C78.8844 53.0592 76.5764 56.1639 73.5492 55.7528C73.11 55.7012 72.1094 57.4545 71.514 58.5053C70.0183 61.1344 68.1562 64.405 64.778 64.9452C64.571 64.9794 64.3617 64.9967 64.1523 64.9968ZM61.9391 62.2737C62.6446 62.5502 63.73 62.8821 64.4728 62.7623C66.9131 62.3714 68.4327 59.7019 69.7742 57.3475C71.002 55.1923 72.0619 53.332 73.7934 53.5644C75.6979 53.8188 77.6125 51.2488 79.1507 49.1802C79.8748 48.2087 80.5582 47.2904 81.2129 46.6931C85.261 43.0059 90.5996 45.3474 92.326 46.2673C94.8698 44.4716 97.4138 41.4867 98.7976 38.6697C99.3878 37.4621 100.239 35.1999 99.3216 33.6218C98.1192 31.5569 94.8547 32.2594 92.9195 33.4152C92.4108 33.7213 91.9021 34.0531 91.3729 34.4053C89.2718 35.7936 87.0977 37.2279 84.5148 36.9735C83.7909 36.8801 83.077 36.7109 82.3831 36.4683C81.9206 36.3113 81.4499 36.1838 80.9738 36.0867C78.525 35.6497 75.6979 37.1007 73.7696 39.7739C71.9194 42.355 70.9749 45.5906 70.0607 48.7286C69.9874 48.9805 69.8336 49.1956 69.627 49.3349C69.4205 49.4743 69.1749 49.5286 68.9347 49.4882C66.4128 49.064 64.037 51.376 63.0822 53.7672C62.3224 55.6974 61.7899 59.8033 61.9391 62.2737Z" fill="#041D36"/>
<path d="M102.396 72.1096L96.864 103.782L49.4492 93.8272L55.7705 77.5404C55.2221 76.9119 54.454 76.0316 53.4004 74.824C47.0847 67.5847 48.8487 62.2463 58.9322 63.965C64.9549 66.4932 68.1489 65.1673 73.9468 55.8208H75.5273C78.6074 51.4197 80.7121 49.1208 85.8005 45.8667L85.9622 45.9373C89.9574 47.6814 92.2669 48.6897 95.2835 50.3917C105.633 49.6633 105.714 56.2266 102.396 72.1096Z" fill="#FF9D8E"/>
<path d="M97.5576 103.382C97.5128 103.384 97.468 103.381 97.4236 103.373C97.1564 103.335 96.9138 103.184 96.7495 102.952C96.585 102.72 96.5121 102.425 96.5468 102.135C97.305 95.8243 99.1144 87.1371 101.207 77.0801C102.314 71.7648 103.459 66.2689 104.528 60.7196C105.235 57.0562 104.641 54.2115 102.813 52.4914C101.044 50.8322 98.4801 50.6109 96.8623 51.2562C96.7342 51.3073 96.5978 51.3299 96.4614 51.3227C96.3251 51.3154 96.1915 51.2783 96.0686 51.2137L90.981 48.5368C90.74 48.4077 90.5558 48.1802 90.4685 47.9041C90.3813 47.6279 90.398 47.3253 90.515 47.0625C90.6321 46.7998 90.8401 46.5979 91.0935 46.5011C91.3469 46.4042 91.6254 46.4203 91.8679 46.5457L96.5859 49.0291C98.7074 48.3672 101.83 48.6437 104.143 50.8174C105.839 52.4048 107.615 55.491 106.517 61.173C105.443 66.739 104.297 72.2349 103.19 77.5687C101.194 87.1554 99.3078 96.2139 98.5616 102.421C98.5295 102.686 98.4102 102.931 98.2256 103.106C98.0411 103.283 97.8037 103.382 97.5576 103.382ZM81.1211 54.6598C80.9347 54.6594 80.7521 54.6033 80.5931 54.4978C80.434 54.3923 80.3046 54.2415 80.2191 54.0616C80.1336 53.8816 80.0951 53.6796 80.1079 53.4776C80.1208 53.2754 80.1843 53.0812 80.2917 52.9157C81.2199 51.4927 82.5559 50.4443 84.0906 49.9345C84.349 49.8495 84.6278 49.8794 84.8658 50.0179C85.1039 50.1564 85.2816 50.392 85.3599 50.6729C85.4382 50.9539 85.4105 51.2569 85.2833 51.5157C85.1559 51.7745 84.9392 51.9678 84.6807 52.0529C83.5796 52.4183 82.6211 53.1704 81.9555 54.1915C81.8611 54.3366 81.7361 54.4549 81.5909 54.5364C81.4456 54.618 81.2846 54.6603 81.1211 54.6598Z" fill="#041D36"/>
<path d="M89.4601 49.6258C89.231 49.6259 89.0085 49.5419 88.8287 49.3877C88.6491 49.2334 88.5224 49.0176 88.4695 48.7753C88.4165 48.533 88.4403 48.2785 88.5369 48.0526C88.6337 47.827 88.7976 47.6433 89.0022 47.5314L90.7676 46.5524C90.8869 46.487 91.0169 46.4478 91.1502 46.4371C91.2836 46.4264 91.4175 46.4443 91.5445 46.4898C91.6714 46.5354 91.7888 46.6076 91.8901 46.7025C91.9912 46.7974 92.0744 46.913 92.1345 47.0428C92.1946 47.1726 92.2307 47.314 92.2405 47.4588C92.2503 47.6037 92.2339 47.7494 92.1921 47.8873C92.1501 48.0253 92.0836 48.153 91.9964 48.263C91.9091 48.3731 91.8027 48.4634 91.6834 48.5287L89.9196 49.5004C89.7776 49.5809 89.6202 49.6238 89.4601 49.6258ZM90.3894 68.7407C88.373 68.7585 86.4254 67.9449 84.9389 66.4637C84.8355 66.366 84.7515 66.2467 84.6917 66.1128C84.6317 65.9791 84.5974 65.8334 84.5905 65.6848C84.5837 65.5363 84.6045 65.3876 84.6516 65.2479C84.6987 65.1083 84.7715 64.9804 84.8651 64.872C84.9588 64.7634 85.0717 64.6767 85.197 64.6167C85.3223 64.5568 85.4574 64.5249 85.5943 64.5232C85.7311 64.5214 85.8669 64.5495 85.9936 64.6061C86.1202 64.6626 86.2349 64.7464 86.3311 64.8524C88.3255 66.8804 91.7241 67.0868 93.9067 65.2949C94.1221 65.1181 94.3933 65.0416 94.6606 65.0822C94.928 65.1228 95.1694 65.2773 95.3321 65.5116C95.4947 65.7458 95.5649 66.0406 95.5276 66.3312C95.4902 66.6217 95.3482 66.8843 95.1328 67.061C93.7612 68.1655 92.0963 68.755 90.3894 68.7407ZM49.6133 93.7625C49.443 93.7624 49.2753 93.7158 49.1257 93.6268C48.9761 93.5378 48.8496 93.4095 48.7576 93.2535C48.6656 93.0974 48.6111 92.9188 48.5992 92.734C48.5872 92.5491 48.6181 92.3639 48.6892 92.1955C50.7565 87.2803 52.6253 82.1956 54.2466 77.0869C54.484 76.3403 54.6723 75.5898 54.4501 75.1603C54.2805 74.821 53.7921 74.5777 53.2833 74.3215L53.0272 74.1905C51.4466 73.3701 50.2104 72.2141 49.4659 70.8517C48.6841 69.4375 48.1635 67.2657 49.0504 65.4129C50.1883 63.0347 52.3642 61.5874 55.3404 61.2242C57.7147 60.9367 60.0974 61.4251 61.4067 62.0372C61.5365 62.0891 61.6553 62.1693 61.7556 62.2728C61.856 62.3763 61.9359 62.5011 61.9904 62.6392C62.045 62.7774 62.073 62.9263 62.0728 63.0767C62.0727 63.2271 62.0443 63.3759 61.9895 63.514C61.9346 63.652 61.8544 63.7764 61.7539 63.8798C61.6533 63.983 61.5343 64.0629 61.4044 64.1145C61.2745 64.1661 61.1362 64.1884 60.9981 64.1798C60.8599 64.1714 60.7249 64.1323 60.6011 64.0653C58.5983 63.1287 52.7576 62.4557 50.8548 66.4307C50.4444 67.2897 50.5834 68.5747 51.2093 69.7086C51.9011 70.9586 53.0612 71.7477 53.9125 72.1901L54.15 72.31C54.8554 72.6677 55.7338 73.112 56.2307 74.0706C56.9328 75.4257 56.4428 76.9725 56.1782 77.8041C54.5366 82.981 52.6423 88.1285 50.5479 93.1063C50.4675 93.3025 50.3364 93.4689 50.1705 93.5856C50.0045 93.7021 49.8109 93.7636 49.6133 93.7625Z" fill="#041D36"/>
<path d="M92.1727 53.3806C91.9098 53.382 91.6505 53.3149 91.4164 53.1848C91.1824 53.0548 90.9804 52.8656 90.8276 52.633C90.6747 52.4007 90.5754 52.1316 90.5379 51.8489C90.5004 51.5659 90.5259 51.2775 90.6122 51.0076C90.6985 50.7376 90.8431 50.4941 91.0339 50.2976C91.2247 50.1009 91.4561 49.9569 91.7086 49.8777C91.9612 49.7984 92.2275 49.7862 92.4853 49.842C92.7432 49.8978 92.9849 50.0201 93.1902 50.1985C93.3599 50.344 93.5009 50.5251 93.6053 50.7309C93.7095 50.9367 93.7748 51.1631 93.7974 51.3968C93.8225 51.6465 93.7992 51.8991 93.7287 52.1382C93.6581 52.3774 93.5421 52.5978 93.388 52.7848C93.2339 52.972 93.0453 53.1218 92.8345 53.2244C92.6237 53.3272 92.3952 53.3803 92.1643 53.3806H92.1727ZM92.1727 51.1682H92.1303C92.0657 51.1741 92.0033 51.1973 91.9488 51.236C91.8945 51.2745 91.8498 51.3271 91.8187 51.3891C91.7877 51.4511 91.7714 51.5206 91.7711 51.5911C91.7709 51.6617 91.7867 51.7311 91.8173 51.7934C91.848 51.8557 91.8923 51.9087 91.9466 51.9476C92.0006 51.9866 92.0628 52.0104 92.1275 52.0168C92.1922 52.0231 92.2572 52.0119 92.3169 51.9841C92.3766 51.9563 92.429 51.913 92.4694 51.8577C92.5339 51.7691 92.5644 51.6568 92.5543 51.5442C92.5432 51.4421 92.4985 51.3476 92.4283 51.2786C92.3582 51.2094 92.2673 51.1702 92.1727 51.1682ZM85.1296 55.8103C85.4752 55.8103 85.7554 55.5057 85.7554 55.1299C85.7554 54.7541 85.4752 54.4497 85.1296 54.4497C84.7841 54.4497 84.5039 54.7541 84.5039 55.1299C84.5039 55.5057 84.7841 55.8103 85.1296 55.8103Z" fill="#041D36"/>
<path d="M85.6356 56.4608C85.2424 56.4608 84.8631 56.2985 84.5703 56.0052C84.2776 55.7119 84.0921 55.3083 84.0493 54.8717C84.0144 54.5205 84.0735 54.1657 84.2191 53.8519C84.3647 53.5383 84.5904 53.2798 84.8675 53.1094C85.1446 52.939 85.4607 52.864 85.776 52.8942C86.0911 52.9245 86.3912 53.0585 86.6383 53.2793C86.8853 53.4999 87.0681 53.7975 87.1638 54.1343C87.2594 54.4712 87.2635 54.8321 87.1753 55.1715C87.0872 55.511 86.911 55.8134 86.6691 56.0411C86.427 56.2686 86.1301 56.4109 85.8156 56.4498C85.7558 56.4572 85.6957 56.4608 85.6356 56.4608ZM85.2592 54.7223C85.2713 54.8338 85.3216 54.9356 85.3996 55.0062C85.4791 55.0761 85.5795 55.1092 85.6802 55.0984C85.7794 55.0842 85.8698 55.0268 85.9314 54.9388C85.9932 54.8509 86.0215 54.7394 86.0103 54.6283L85.2592 54.7223ZM85.6372 54.2486H85.5961C85.4967 54.2628 85.4065 54.3202 85.3448 54.4081C85.283 54.4961 85.2547 54.6075 85.2659 54.7187L86.0236 54.6246C86.0133 54.5202 85.969 54.4235 85.8989 54.3535C85.8288 54.2834 85.738 54.2447 85.6439 54.2449L85.6372 54.2486ZM43.1176 178.242C42.8753 178.242 42.6417 178.143 42.4607 177.963C42.2797 177.783 42.1641 177.536 42.1354 177.267C42.0628 176.59 41.5362 176.119 41.0658 175.903C40.5953 175.688 39.9251 175.61 39.448 176.036C39.281 176.184 39.0755 176.268 38.8621 176.276C38.6487 176.284 38.4389 176.213 38.2638 176.077C38.0888 175.94 37.958 175.744 37.8908 175.519C37.8239 175.291 37.824 175.047 37.8915 174.821C40.6267 165.647 38.9116 154.83 33.5205 147.264C33.4395 147.15 33.3792 147.02 33.3432 146.881C33.3073 146.74 33.2963 146.594 33.311 146.45C33.3256 146.305 33.3655 146.166 33.4285 146.038C33.4916 145.911 33.5763 145.8 33.6782 145.708C33.7799 145.618 33.8966 145.551 34.0217 145.511C34.1468 145.47 34.2776 145.458 34.4069 145.475C34.5363 145.492 34.6613 145.536 34.7752 145.606C34.8891 145.676 34.9894 145.771 35.0705 145.885C37.7634 149.745 39.6338 154.24 40.5396 159.029C41.4454 163.817 41.3629 168.771 40.2982 173.52C40.8199 173.518 41.3365 173.633 41.8185 173.857C43.0812 174.436 43.9643 175.644 44.103 177.006C44.1184 177.149 44.1083 177.296 44.073 177.436C44.0379 177.577 43.9783 177.707 43.8978 177.821C43.8174 177.936 43.7174 178.03 43.604 178.102C43.4905 178.172 43.3656 178.218 43.2364 178.235C43.1967 178.239 43.1571 178.242 43.1176 178.242Z" fill="#041D36"/>
<path d="M58.9975 69.0167C58.7475 69.0174 58.5061 68.9185 58.3191 68.7382C57.8309 68.2879 57.2356 67.997 56.6017 67.8992C55.9679 67.8013 55.3215 67.9004 54.7374 68.1851C54.494 68.3125 54.2141 68.3296 53.9592 68.2326C53.7043 68.1357 53.4953 67.9324 53.3782 67.668C53.261 67.4034 53.2453 67.0991 53.3345 66.822C53.4237 66.5448 53.6105 66.3177 53.8539 66.1903C54.7995 65.7158 55.8508 65.5469 56.8822 65.7042C57.9137 65.8614 58.8816 66.338 59.6707 67.0771C59.8248 67.2263 59.9335 67.4229 59.9825 67.641C60.0313 67.8589 60.0182 68.0879 59.9446 68.2975C59.871 68.5072 59.7405 68.6875 59.5704 68.8145C59.4003 68.9417 59.1988 69.0095 58.9923 69.0092L58.9975 69.0167ZM73.672 54.6638C77.1485 55.1321 79.8772 49.3597 81.8715 47.5437C86.1673 43.6296 92.3725 47.5437 92.3725 47.5437C95.2403 45.6872 98.1386 42.3962 99.7004 39.1901C100.633 37.282 101.249 34.8594 100.185 33.0342C98.6592 30.4053 94.9402 30.9491 92.4336 32.4499C89.927 33.9504 87.4596 36.1555 84.6104 35.8734C83.4234 35.7573 82.3159 35.2078 81.1423 34.9977C78.0355 34.4447 74.9116 36.4044 72.9733 39.1016C71.0348 41.7989 70.0462 45.1413 69.0948 48.4047C66.1541 47.9087 63.3372 50.37 62.1518 53.3364C61.2259 55.6593 60.6611 60.5266 60.9934 63.056C60.9934 63.056 63.1304 64.0976 64.6244 63.8581C69.7494 63.0395 71.1621 54.3246 73.672 54.6638Z" fill="#041D36"/>
<g opacity="0.2">
<path d="M78.5011 63.4088C80.1467 62.5984 81.1438 61.1323 80.7279 60.1344C80.3122 59.1364 78.6408 58.9843 76.995 59.7948C75.3494 60.6052 74.3524 62.0713 74.7682 63.0693C75.184 64.0672 76.8553 64.2193 78.5011 63.4088Z" fill="#007FFE"/>
<path d="M76.4635 65.0314C75.2426 65.0314 74.2589 64.5077 73.8434 63.5177C73.1735 61.9119 74.3521 59.8746 76.5754 58.7778C78.7987 57.6807 80.9848 58.0643 81.6546 59.6701C82.3246 61.2758 81.1459 63.3113 78.9226 64.4082C78.1524 64.8018 77.3145 65.0142 76.4635 65.0314ZM79.0295 60.3744C78.4698 60.389 77.9195 60.5329 77.4149 60.7966C76.0226 61.4824 75.6309 62.4558 75.6971 62.6088C75.7632 62.7618 76.6891 63.0826 78.0832 62.3968C79.4771 61.711 79.8673 60.7375 79.8011 60.5863C79.7671 60.4979 79.489 60.3744 79.0295 60.3744Z" fill="#007FFE"/>
</g>
<path d="M63.9765 65.6565C62.3738 65.6565 60.622 64.8286 60.4049 64.7218C60.2484 64.6453 60.1123 64.5271 60.0093 64.3782C59.906 64.2294 59.8392 64.0545 59.8147 63.8699C59.4518 61.1285 60.0623 56.0198 61.0459 53.5548C62.2331 50.5902 64.9889 47.8599 68.1959 47.8912C69.0658 44.9413 70.102 41.7149 71.998 39.0785C73.894 36.4421 77.2858 33.8757 81.1354 34.5634C81.6909 34.6734 82.2398 34.8199 82.7788 35.0023C83.3486 35.2043 83.9345 35.3473 84.5289 35.4299C86.4453 35.6144 88.2446 34.4308 90.1491 33.1734C90.6765 32.825 91.2226 32.4654 91.7703 32.1373C94.9179 30.253 99.0543 29.9783 100.872 33.0996C101.959 34.9673 101.802 37.5483 100.426 40.3673C98.7795 43.7374 95.7557 47.1886 92.72 49.1522C92.5639 49.252 92.3858 49.3047 92.2046 49.3047C92.0233 49.3047 91.8453 49.252 91.689 49.1522C91.6348 49.1172 86.0417 45.6824 82.3514 49.0435C81.8427 49.5024 81.2236 50.334 80.5639 51.2262C78.7086 53.7188 76.4006 56.8235 73.3734 56.4125C72.9342 56.3609 71.9336 58.1142 71.3383 59.1649C69.8425 61.794 67.9804 65.0647 64.6022 65.6049C64.3952 65.6391 64.1859 65.6563 63.9765 65.6565ZM61.7633 62.9334C62.4688 63.2099 63.5542 63.5418 64.297 63.422C66.7373 63.0311 68.257 60.3615 69.5984 58.0071C70.8262 55.852 71.8862 53.9917 73.6176 54.2241C75.5221 54.4784 77.4367 51.9084 78.9749 49.8399C79.699 48.8683 80.3825 47.9501 81.0371 47.3528C85.0852 43.6656 90.4238 46.007 92.1502 46.9269C94.694 45.1312 97.238 42.1464 98.6218 39.3293C99.212 38.1218 100.063 35.8596 99.1458 34.2814C97.9435 32.2165 94.6789 32.919 92.7438 34.0748C92.2351 34.381 91.7264 34.7128 91.1971 35.065C89.096 36.4532 86.9219 37.8875 84.339 37.6332C83.6152 37.5397 82.9013 37.3706 82.2073 37.1279C81.7448 36.971 81.2742 36.8435 80.798 36.7464C78.3492 36.3094 75.5221 37.7604 73.5939 40.4336C71.7436 43.0147 70.7991 46.2502 69.8849 49.3882C69.8116 49.6402 69.6578 49.8553 69.4512 49.9945C69.2447 50.1339 68.9991 50.1883 68.7589 50.1478C66.237 49.7237 63.8612 52.0356 62.9064 54.4268C62.1466 56.3571 61.6142 60.4629 61.7633 62.9334Z" fill="#041D36"/>
<path d="M75.2539 48.38C75.1773 48.3799 75.1012 48.3707 75.0266 48.3524C74.8962 48.3202 74.7728 48.2603 74.6637 48.1762C74.5545 48.0922 74.4616 47.9855 74.3905 47.8624C74.3193 47.7392 74.2712 47.6021 74.2487 47.4587C74.2264 47.3154 74.2302 47.1686 74.2601 47.0268C74.6162 45.3288 75.286 42.8823 76.9735 41.271C78.6067 39.713 81.4794 39.1655 83.2703 40.9962C83.4614 41.1987 83.5718 41.4745 83.5776 41.7645C83.5835 42.0544 83.4843 42.3352 83.3016 42.5466C83.1187 42.7579 82.8671 42.8826 82.6005 42.8941C82.3339 42.9054 82.0738 42.8026 81.8763 42.6076C80.9605 41.6729 79.2647 42.0286 78.315 42.9339C77.3653 43.8392 76.714 45.2643 76.2408 47.519C76.19 47.7626 76.0647 47.9803 75.8855 48.1367C75.7063 48.293 75.4837 48.3788 75.2539 48.38ZM94.2258 42.1735C94.0487 42.1732 93.8747 42.1226 93.7211 42.0267C93.5674 41.9308 93.4396 41.7929 93.35 41.6269C93.2604 41.4608 93.2122 41.2721 93.2103 41.0796C93.2083 40.887 93.2527 40.6972 93.3389 40.529C93.5949 40.0276 93.8612 39.5077 93.9018 39.0375C93.9308 38.7186 93.8069 38.4457 93.7086 38.3978C93.483 38.2871 92.8928 38.8273 92.406 39.7787C92.275 40.0352 92.0555 40.2245 91.7961 40.305C91.5365 40.3856 91.2582 40.3508 91.0222 40.2082C90.7864 40.0657 90.6122 39.8271 90.5381 39.5449C90.4639 39.2629 90.4959 38.9603 90.6271 38.7038C91.6955 36.6112 93.198 35.7208 94.5463 36.3827C95.4824 36.8418 96.0388 37.9921 95.9285 39.2458C95.847 40.1806 95.4417 40.9715 95.1161 41.6057C95.0278 41.7781 94.8987 41.9216 94.7421 42.0215C94.5855 42.1213 94.4073 42.1738 94.2258 42.1735Z" fill="white"/>
<path d="M52.6724 63.9146C52.4709 63.9164 52.2734 63.8523 52.106 63.7303C48.2576 60.9051 44.9299 57.3213 42.2952 53.1643C41.5423 51.9716 40.6113 50.174 41.2201 48.3709C41.7645 46.7522 43.2025 46.0184 44.5084 45.458L54.9653 40.9613C60.6888 38.4854 68.9698 35.5798 75.923 35.7015C76.193 35.7036 76.451 35.8222 76.6403 36.0313C76.8298 36.2403 76.935 36.5224 76.933 36.8159C76.9309 37.1092 76.8218 37.3897 76.6295 37.5957C76.4372 37.8015 76.1777 37.916 75.9077 37.9137H75.8925C69.2785 37.8032 61.2655 40.6257 55.7115 43.0114L45.2563 47.5081C44.3608 47.8915 43.3907 48.3653 43.128 49.1249C42.9108 49.7683 43.1788 50.6533 43.9759 51.9088C46.4631 55.8394 49.6062 59.2282 53.2422 61.8996C53.425 62.0312 53.5636 62.2236 53.6376 62.4479C53.7116 62.6723 53.717 62.9166 53.6529 63.1446C53.5889 63.3724 53.4588 63.5718 53.2821 63.7129C53.1054 63.854 52.8917 63.9292 52.6724 63.9275V63.9146Z" fill="#041D36"/>
<path d="M67.0128 151.708C65.0676 151.708 63.1224 151.028 61.3739 150.286C56.0342 148.02 51.0182 144.941 46.4772 141.139C46.1296 140.847 45.6039 140.401 45.3122 139.722C44.6236 138.101 45.7073 136.427 46.0635 135.877C48.8533 131.592 52.357 127.912 56.3931 125.029C57.6447 124.139 59.5255 123.038 61.3825 123.739C63.0241 124.367 63.8618 126.031 64.5232 127.738C65.1507 129.362 65.7375 131.024 66.2649 132.676C67.2231 135.668 68.0238 138.719 68.6629 141.811C68.8325 142.644 68.9545 143.509 69.07 144.345C69.331 146.255 69.5787 148.06 70.408 149.492C70.4869 149.63 70.5375 149.784 70.556 149.944C70.5744 150.105 70.5604 150.266 70.5149 150.421C70.4692 150.575 70.3933 150.715 70.2921 150.834C70.191 150.952 70.0674 151.045 69.9296 151.106C69.0027 151.511 68.0118 151.715 67.0128 151.708ZM60.1207 125.728C59.4423 125.728 58.6046 126.096 57.5074 126.881C53.6852 129.61 50.3677 133.092 47.7271 137.151C47.0962 138.126 47.0708 138.581 47.1607 138.792C47.2505 139.003 47.5185 139.217 47.7187 139.386C52.1067 143.063 56.9534 146.043 62.1134 148.236C64.0076 149.037 66.1445 149.766 68.0761 149.407C67.4978 147.903 67.2739 146.272 67.0586 144.686C66.9433 143.854 66.8364 143.064 66.6804 142.31C66.0572 139.301 65.2776 136.331 64.3451 133.416C63.8364 131.808 63.2597 130.191 62.6492 128.61C62.1693 127.374 61.6045 126.182 60.7109 125.844C60.5217 125.77 60.3221 125.73 60.1207 125.728Z" fill="#007FFE"/>
<path d="M68.8321 150.993C68.6197 150.993 68.4125 150.921 68.2396 150.787C68.0669 150.653 67.9371 150.463 67.8684 150.245C67.7998 150.027 67.7958 149.79 67.8571 149.569C67.9182 149.347 68.0416 149.153 68.2097 149.011C73.5191 144.558 78.4306 139.571 82.8792 134.115C83.0283 133.931 83.4286 133.439 83.4099 133.193C83.3998 133.068 83.2641 132.825 82.6757 132.402C80.208 130.605 77.4563 129.32 74.5591 128.608C73.9011 128.446 73.2295 128.33 72.7716 128.573C72.2052 128.874 71.883 129.758 71.6201 130.671C70.5534 134.374 69.2865 139.734 68.9356 143.68C68.9228 143.825 68.8839 143.965 68.8211 144.093C68.7583 144.222 68.6729 144.335 68.5698 144.428C68.4666 144.521 68.3478 144.59 68.22 144.632C68.092 144.675 67.9578 144.689 67.8248 144.675C67.6916 144.661 67.5624 144.619 67.4444 144.551C67.3263 144.483 67.2218 144.39 67.1368 144.278C67.0517 144.165 66.9878 144.037 66.9488 143.898C66.9097 143.759 66.8961 143.612 66.909 143.467C67.3703 138.288 69.1458 131.853 69.6784 130.01C69.9277 129.143 70.4467 127.344 71.883 126.584C72.9107 126.031 74.0419 126.216 75.0136 126.449C78.1539 127.22 81.1366 128.614 83.8119 130.561C84.2681 130.892 85.3381 131.666 85.4417 133.001C85.5366 134.19 84.8023 135.094 84.4071 135.583C79.8726 141.144 74.8656 146.226 69.4528 150.764C69.2753 150.914 69.0568 150.995 68.8321 150.993Z" fill="#007FFE"/>
<path d="M103.996 127.121C103.82 127.121 103.647 127.071 103.493 126.976C103.34 126.882 103.212 126.744 103.123 126.579C103.033 126.414 102.984 126.226 102.98 126.036C102.977 125.843 103.02 125.654 103.104 125.486C104.507 122.687 104.417 119.401 104.32 115.914C104.251 113.349 104.178 110.697 104.722 108.143C105.023 106.863 105.403 105.606 105.86 104.382C106.227 103.386 106.548 102.369 106.82 101.339C106.923 100.998 106.965 100.641 106.945 100.285C106.885 99.8594 106.553 99.3982 105.963 98.9173C104.673 97.8729 103.109 97.3049 101.5 97.2988C101.23 97.2988 100.971 97.1828 100.78 96.9751C100.59 96.7675 100.482 96.4859 100.482 96.1925C100.482 95.8992 100.59 95.6178 100.78 95.4104C100.971 95.2029 101.23 95.0864 101.5 95.0864C103.544 95.0957 105.531 95.8167 107.171 97.1431C108.202 97.9844 108.799 98.9265 108.945 99.9449C109.015 100.604 108.958 101.272 108.775 101.905C108.487 103.011 108.147 104.099 107.758 105.167C107.333 106.298 106.98 107.458 106.699 108.64C106.215 110.915 106.284 113.421 106.35 115.845C106.451 119.47 106.552 123.22 104.887 126.54C104.8 126.714 104.672 126.86 104.515 126.962C104.358 127.066 104.179 127.12 103.996 127.121Z" fill="#041D36"/>
<path d="M134.855 156.185C134.599 156.187 134.352 156.083 134.164 155.894C133.974 155.706 133.859 155.448 133.838 155.17C133.432 149.867 131.492 144.839 128.296 140.81C127.107 139.335 125.721 137.94 124.374 136.597C121.831 134.057 119.195 131.435 117.657 127.908C117.21 126.833 116.824 125.729 116.498 124.603C116.192 123.534 115.825 122.488 115.4 121.468C113.571 117.342 109.516 114.428 105.309 114.214C105.175 114.206 105.044 114.171 104.923 114.11C104.802 114.047 104.694 113.96 104.603 113.854C104.513 113.745 104.444 113.62 104.398 113.482C104.353 113.347 104.333 113.202 104.339 113.056C104.345 112.91 104.378 112.768 104.435 112.637C104.492 112.505 104.572 112.386 104.671 112.288C104.77 112.191 104.885 112.114 105.011 112.066C105.137 112.017 105.27 111.994 105.404 112.001C110.335 112.252 115.089 115.67 117.232 120.506C117.693 121.607 118.091 122.738 118.421 123.893C118.721 124.935 119.078 125.958 119.488 126.955C120.855 130.088 123.23 132.452 125.745 134.961C127.131 136.344 128.567 137.775 129.825 139.355C133.305 143.739 135.421 149.208 135.864 154.978C135.885 155.271 135.8 155.561 135.624 155.784C135.45 156.007 135.2 156.146 134.932 156.169C134.907 156.176 134.881 156.182 134.855 156.185Z" fill="#041D36"/>
<path d="M131.457 162.311C131.393 162.311 131.328 162.305 131.264 162.292C130.999 162.237 130.766 162.069 130.616 161.828C130.464 161.585 130.407 161.289 130.457 161.002C130.717 159.559 131.261 158.194 132.05 157C132.839 155.808 133.856 154.812 135.03 154.084C135.147 154.008 135.276 153.959 135.411 153.937C135.546 153.916 135.683 153.925 135.814 153.963C135.946 154.002 136.068 154.067 136.176 154.157C136.285 154.247 136.374 154.36 136.44 154.49C136.508 154.618 136.55 154.76 136.565 154.907C136.581 155.054 136.568 155.203 136.53 155.345C136.492 155.486 136.428 155.619 136.342 155.733C136.256 155.848 136.15 155.942 136.029 156.011C135.113 156.58 134.32 157.358 133.705 158.289C133.088 159.222 132.664 160.286 132.46 161.413C132.415 161.666 132.29 161.894 132.108 162.057C131.925 162.222 131.695 162.311 131.457 162.311ZM170.644 125.77C161.995 125.77 150.206 124.564 142.853 121.173C142.72 121.125 142.596 121.049 142.491 120.947C142.386 120.845 142.301 120.719 142.242 120.579C142.185 120.44 142.153 120.289 142.151 120.135C142.15 119.982 142.178 119.829 142.233 119.689C142.287 119.547 142.369 119.42 142.473 119.315C142.575 119.211 142.697 119.13 142.829 119.078C142.963 119.028 143.105 119.008 143.245 119.018C143.386 119.031 143.523 119.073 143.647 119.145C150.717 122.405 162.204 123.57 170.643 123.57C170.682 123.575 170.721 123.575 170.762 123.57C171.032 123.57 171.29 123.686 171.481 123.894C171.672 124.101 171.779 124.382 171.779 124.677C171.779 124.97 171.672 125.251 171.481 125.459C171.29 125.666 171.032 125.782 170.762 125.782L170.644 125.77Z" fill="#041D36"/>
<path d="M156.694 209.174C155.971 209.174 155.358 208.806 154.895 208.513L154.766 208.434C152.024 206.774 148.59 206.908 145.268 207.047C144.809 207.066 144.35 207.084 143.895 207.098C134.878 207.365 125.913 205.521 117.608 201.687C117.476 201.639 117.353 201.56 117.249 201.458C117.145 201.355 117.062 201.23 117.005 201.091C116.947 200.952 116.917 200.801 116.916 200.648C116.915 200.496 116.943 200.345 116.998 200.204C117.052 200.064 117.134 199.937 117.236 199.833C117.339 199.728 117.46 199.648 117.592 199.596C117.725 199.546 117.865 199.525 118.005 199.535C118.145 199.546 118.281 199.589 118.406 199.659C126.443 203.368 135.118 205.153 143.844 204.893C144.292 204.881 144.745 204.863 145.201 204.841C148.804 204.695 152.53 204.542 155.768 206.501L155.909 206.586C156.197 206.77 156.559 206.988 156.735 206.954C156.971 206.918 157.33 206.337 157.466 206.118C164.312 195.074 171.39 183.656 174.737 170.64C177.789 158.762 177.84 144.97 174.89 128.479C174.722 127.493 174.447 126.001 175.164 124.735C175.524 124.103 176.031 123.701 176.476 123.349C176.566 123.277 176.656 123.207 176.743 123.133C178.948 121.309 179.838 117.82 178.824 115.021C178.725 114.748 178.73 114.444 178.837 114.175C178.945 113.905 179.146 113.694 179.397 113.586C179.649 113.479 179.93 113.484 180.177 113.601C180.424 113.719 180.619 113.937 180.718 114.21C182.053 117.898 180.876 122.492 177.978 124.903C177.878 124.987 177.775 125.068 177.674 125.149C177.351 125.405 177.045 125.647 176.897 125.908C176.619 126.396 176.728 127.209 176.897 128.067C179.907 144.905 179.844 159.03 176.705 171.247C173.271 184.606 166.1 196.176 159.163 207.365C158.815 207.93 158.163 208.979 157.034 209.156C156.921 209.171 156.808 209.177 156.694 209.174Z" fill="#041D36"/>
<path d="M148.725 102.291C148.725 102.291 139.991 102.773 144.128 105.404C145.913 106.54 148.729 106.879 148.729 106.879L148.725 102.291Z" fill="#041D36"/>
<path d="M82.7714 187.652C82.5035 187.652 82.2465 187.536 82.0561 187.331C81.8656 187.127 81.7571 186.849 81.7538 186.559C81.7538 186.342 81.7828 184.378 83.5245 181.734C84.1247 180.812 84.8302 180.908 85.1066 180.996C85.4985 181.109 86.5398 181.412 86.9466 185.824C86.9725 186.102 86.9008 186.38 86.7461 186.603C86.5913 186.824 86.365 186.976 86.1124 187.024L82.9512 187.638C82.8917 187.649 82.8316 187.654 82.7714 187.652ZM84.6115 183.988C84.4146 184.365 84.2445 184.756 84.1027 185.16L84.7997 185.026C84.742 184.655 84.6775 184.299 84.6115 183.988ZM85.3238 217.942C85.3238 217.942 82.6527 222.235 82.4746 221.473C82.0117 219.488 81.5996 217.386 81.5996 217.386L85.3238 217.942Z" fill="#041D36"/>
<path d="M82.5847 222.667C82.5119 222.665 82.4393 222.659 82.3677 222.646C82.1549 222.604 81.9579 222.497 81.8007 222.336C81.6437 222.174 81.5336 221.966 81.4841 221.739C81.0194 219.754 80.6023 217.628 80.5989 217.608C80.5646 217.434 80.5694 217.254 80.6128 217.083C80.6563 216.911 80.7371 216.753 80.8485 216.624C80.9597 216.494 81.0983 216.395 81.2524 216.335C81.4065 216.274 81.5714 216.256 81.7334 216.28L85.4643 216.834C85.6355 216.86 85.7979 216.932 85.9359 217.045C86.0742 217.158 86.1836 217.308 86.2539 217.479C86.3244 217.65 86.3535 217.839 86.3385 218.025C86.3234 218.213 86.2649 218.393 86.1681 218.549C86.1444 218.587 85.5695 219.511 84.9251 220.438C83.7617 222.114 83.2004 222.667 82.5847 222.667ZM82.9035 218.691C82.9528 218.925 83.007 219.177 83.0629 219.441C83.2105 219.236 83.3632 219.013 83.5209 218.783L82.9035 218.691ZM34.6963 53.8634C33.582 53.8634 32.4928 53.5041 31.5663 52.8313C30.6399 52.1582 29.9177 51.2017 29.4913 50.0826C29.0649 48.9634 28.9534 47.732 29.1708 46.544C29.3882 45.356 29.9247 44.2646 30.7126 43.4082C31.5006 42.5516 32.5043 41.9682 33.5972 41.732C34.69 41.4956 35.8227 41.6169 36.8522 42.0804C37.8816 42.544 38.7615 43.3291 39.3806 44.3362C39.9995 45.3434 40.33 46.5275 40.33 47.7388C40.3282 49.3626 39.7341 50.9192 38.6779 52.0674C37.6217 53.2156 36.1899 53.8614 34.6963 53.8634ZM34.6963 43.8267C33.9845 43.8267 33.2887 44.056 32.6969 44.486C32.1052 44.9158 31.644 45.5268 31.3715 46.2417C31.0992 46.9566 31.0278 47.7432 31.1667 48.502C31.3056 49.2609 31.6483 49.958 32.1517 50.5051C32.6549 51.0523 33.296 51.4249 33.9942 51.5759C34.6922 51.7267 35.4158 51.6493 36.0734 51.3533C36.731 51.0571 37.2931 50.5556 37.6884 49.9124C38.0838 49.269 38.2949 48.5126 38.2949 47.7388C38.2922 46.7028 37.912 45.7102 37.2375 44.9784C36.563 44.2464 35.6493 43.8349 34.6963 43.834V43.8267Z" fill="#041D36"/>
<path d="M70.8192 150.594L73.9601 181.781L71.8029 184.085L69.3591 181.781L66.125 151.088L70.8192 150.594Z" fill="#007FFE"/>
<path d="M92.0145 52.9348C92.3602 52.9348 92.6403 52.6303 92.6403 52.2546C92.6403 51.8788 92.3602 51.5742 92.0145 51.5742C91.6689 51.5742 91.3887 51.8788 91.3887 52.2546C91.3887 52.6303 91.6689 52.9348 92.0145 52.9348Z" fill="#041D36"/>
<path d="M84.572 223.122L71.6572 218.735C52.5055 224.683 34.7138 226.276 9.50461 220.49L8.69743 216.102C-1.33183 178.938 -4.00129 146.541 15.962 120.455C24.201 109.772 29.5402 105.399 40.9835 102.027C43.9327 98.8006 46.5375 90.4949 49.8624 89.7422C78.4858 98.2617 93.7039 102.4 103.943 96.7622C109.121 97.4222 110.565 98.9355 110.401 103.782L108.786 114.312C122.907 123.075 135.8 149.249 138.652 154.677C142.913 142.345 144.377 134.881 145.109 120.455C143.06 114.574 141.992 111.258 146.724 103.782C156.642 111.59 164.843 111.657 180.625 109.925C184.962 116.847 183.486 120.405 179.011 126.597C185.994 162.428 178.808 179.952 160.446 209.96C142.135 208.188 133.291 206.271 120.087 201.185L116.051 228.387L84.572 223.122Z" fill="#509DFF"/>
<path d="M145.109 120.455C144.377 134.881 142.913 142.345 138.652 154.677C135.8 149.249 122.907 123.075 108.786 114.312L110.401 103.782C110.565 98.9355 109.121 97.4222 103.943 96.7622C93.7039 102.4 78.4858 98.2617 49.8624 89.7422C46.5375 90.4949 43.9327 98.8006 40.9835 102.027C29.5402 105.399 24.201 109.772 15.962 120.455C-4.00129 146.541 -1.33183 178.938 8.69743 216.102L9.50461 220.49C34.7138 226.276 52.5055 224.683 71.6572 218.735L84.572 223.122L116.051 228.387L120.087 201.185C133.291 206.271 142.135 208.188 160.446 209.96C178.808 179.952 185.994 162.428 179.011 126.597M145.109 120.455C143.06 114.574 141.992 111.258 146.724 103.782C156.642 111.59 164.843 111.657 180.625 109.925C184.962 116.847 183.486 120.405 179.011 126.597M145.109 120.455C158.829 125.291 166.13 126.495 179.011 126.597" stroke="black" stroke-width="1.61435"/>
<path d="M56.1812 49.9893C55.9407 49.9887 55.7083 49.8957 55.525 49.7265C55.3416 49.5575 55.2194 49.3233 55.1796 49.0654C55.14 48.8076 55.1857 48.5429 55.3084 48.3181C55.4313 48.0934 55.6233 47.9231 55.8505 47.8378C58.8068 46.7331 61.8877 46.0714 65.0084 45.8706C65.2782 45.8532 65.5433 45.953 65.7454 46.1483C65.9475 46.3435 66.07 46.618 66.086 46.9113C66.102 47.2046 66.01 47.4929 65.8305 47.7126C65.6511 47.9325 65.3985 48.0656 65.1287 48.083C62.1932 48.2688 59.2949 48.8892 56.5136 49.9265C56.4067 49.9674 56.2944 49.9887 56.1812 49.9893ZM60.9161 53.592C60.8674 53.592 60.8186 53.5882 60.7703 53.581C57.5293 53.0703 54.2388 53.0537 50.9935 53.5313C50.8611 53.5513 50.7264 53.5426 50.5971 53.5061C50.4677 53.4694 50.3462 53.4054 50.2396 53.3178C50.133 53.2302 50.0433 53.1205 49.9757 52.9952C49.908 52.8698 49.8638 52.7312 49.8454 52.5872C49.827 52.4434 49.8348 52.2969 49.8686 52.1563C49.9023 52.0157 49.9611 51.8836 50.0417 51.7677C50.1223 51.6519 50.2232 51.5543 50.3385 51.4807C50.4538 51.4073 50.5813 51.3592 50.7136 51.3392C54.1475 50.8341 57.6292 50.8513 61.0585 51.3908C61.3134 51.4303 61.5452 51.5732 61.7068 51.7911C61.8685 52.0088 61.9483 52.2852 61.93 52.5645C61.9117 52.8436 61.7967 53.105 61.6082 53.2955C61.4199 53.4862 61.1719 53.5922 60.9144 53.592H60.9161ZM58.257 56.7608H55.8827C55.6129 56.7608 55.3541 56.6442 55.1632 56.4369C54.9725 56.2294 54.8652 55.948 54.8652 55.6546C54.8652 55.3612 54.9725 55.0798 55.1632 54.8724C55.3541 54.6649 55.6129 54.5484 55.8827 54.5484H58.257C58.5268 54.5484 58.7856 54.6649 58.9765 54.8724C59.1674 55.0798 59.2745 55.3612 59.2745 55.6546C59.2745 55.948 59.1674 56.2294 58.9765 56.4369C58.7856 56.6442 58.5268 56.7608 58.257 56.7608ZM97.3609 106.407C80.9159 106.398 64.6061 103.179 49.2077 96.9026C49.0827 96.8515 48.9681 96.7739 48.8707 96.6745C48.7732 96.5753 48.6945 96.456 48.6395 96.3236C48.5281 96.0564 48.519 95.752 48.6142 95.4775C48.7093 95.2029 48.9009 94.9806 49.1466 94.8597C49.3926 94.7386 49.6725 94.7289 49.9252 94.8322C67.1284 101.845 85.4664 104.972 103.819 104.02C104.089 104.007 104.353 104.109 104.553 104.306C104.753 104.503 104.873 104.779 104.886 105.072C104.9 105.366 104.805 105.653 104.624 105.871C104.442 106.088 104.189 106.219 103.919 106.233C101.738 106.349 99.5519 106.407 97.3609 106.407ZM98.6818 133.672H98.6463C98.5125 133.667 98.3811 133.634 98.2595 133.573C98.1377 133.513 98.0281 133.428 97.937 133.321C97.8458 133.215 97.7748 133.09 97.728 132.954C97.6812 132.817 97.6596 132.672 97.6644 132.527C97.9144 125.024 98.6596 117.551 99.8944 110.165C99.9499 109.882 100.104 109.636 100.323 109.476C100.543 109.317 100.812 109.256 101.072 109.308C101.332 109.358 101.563 109.519 101.717 109.752C101.871 109.986 101.935 110.276 101.896 110.56C100.679 117.843 99.9446 125.213 99.6993 132.611C99.6888 132.896 99.577 133.166 99.3874 133.363C99.1977 133.562 98.9448 133.672 98.6818 133.672Z" fill="#041D36"/>
<path d="M16.2607 220.018C15.7609 220.024 15.2663 219.903 14.8145 219.665C14.3626 219.425 13.965 219.076 13.652 218.641C13.3388 218.206 13.1182 217.697 13.0069 217.152C12.8955 216.608 12.8961 216.044 13.0089 215.5C13.0349 215.355 13.0866 215.217 13.1608 215.095C13.235 214.973 13.3305 214.869 13.4413 214.788C13.5522 214.709 13.6763 214.654 13.8063 214.628C13.9365 214.602 14.0699 214.605 14.1987 214.639C14.3276 214.671 14.4492 214.732 14.5567 214.817C14.664 214.903 14.7549 215.013 14.8241 215.138C14.8931 215.265 14.9391 215.404 14.959 215.55C14.9788 215.695 14.9725 215.845 14.9401 215.989C14.8827 216.266 14.8983 216.56 14.985 216.828C15.0718 217.099 15.226 217.335 15.4293 217.509C15.6327 217.683 15.8767 217.79 16.1323 217.815C16.388 217.839 16.6444 217.781 16.8715 217.647C17.1042 217.511 17.3757 217.483 17.6264 217.57C17.8772 217.659 18.0865 217.854 18.2085 218.114C18.3304 218.373 18.3549 218.677 18.2766 218.957C18.1982 219.236 18.0235 219.471 17.7908 219.607C17.3181 219.88 16.793 220.021 16.2607 220.018ZM44.6523 126.408C44.4296 126.408 44.2133 126.324 44.0387 126.17C43.864 126.016 43.7413 125.799 43.69 125.558C42.6145 120.559 39.9066 116.191 36.0969 113.308C35.878 113.145 35.7262 112.891 35.6748 112.603C35.6234 112.314 35.6767 112.015 35.8228 111.77C35.9691 111.526 36.1963 111.357 36.4544 111.299C36.7126 111.242 36.9807 111.302 37.1996 111.465C41.4244 114.658 44.4272 119.501 45.6179 125.04C45.6479 125.182 45.6527 125.329 45.6317 125.472C45.611 125.616 45.565 125.753 45.4967 125.877C45.4283 126.001 45.3389 126.108 45.2334 126.193C45.1278 126.277 45.0084 126.338 44.8818 126.372C44.8069 126.395 44.7298 126.407 44.6523 126.408ZM45.5601 137.66C45.3078 137.661 45.0647 137.554 44.8805 137.36C44.6965 137.168 44.5853 136.904 44.5698 136.623L44.2826 131.473C44.2663 131.18 44.3552 130.891 44.5295 130.671C44.7037 130.45 44.9492 130.317 45.2119 130.299C45.4745 130.28 45.7329 130.38 45.93 130.575C46.1273 130.769 46.2472 131.044 46.2633 131.337L46.5505 136.484C46.5589 136.629 46.5415 136.774 46.4994 136.912C46.4573 137.049 46.3914 137.177 46.3054 137.286C46.2194 137.394 46.115 137.484 45.9982 137.548C45.8814 137.612 45.7544 137.649 45.6245 137.658L45.5601 137.66ZM26.0162 189.191C25.8311 189.189 25.6498 189.131 25.4929 189.023C25.3358 188.913 25.2095 188.756 25.128 188.571C25.0466 188.385 25.0133 188.179 25.0319 187.972C25.0507 187.766 25.1205 187.571 25.2338 187.407C27.6602 183.911 31.0924 181.456 34.9513 180.457C35.2074 180.39 35.4765 180.44 35.6994 180.596C35.9223 180.752 36.0806 181.001 36.1398 181.286C36.1989 181.572 36.1538 181.873 36.0145 182.122C35.8752 182.37 35.653 182.548 35.397 182.613C31.99 183.514 28.9585 185.682 26.8003 188.76C26.7076 188.895 26.5888 189.003 26.453 189.076C26.3169 189.151 26.1675 189.191 26.0162 189.191ZM72.0948 202.34C71.8408 202.342 71.5962 202.232 71.412 202.038C71.2276 201.842 71.1175 201.575 71.1044 201.291C70.8761 196.271 71.6479 191.257 73.3641 186.61C73.4108 186.472 73.4821 186.345 73.5735 186.236C73.6651 186.129 73.7752 186.044 73.897 185.984C74.0189 185.925 74.1503 185.894 74.2832 185.893C74.416 185.891 74.5477 185.92 74.6706 185.977C74.7933 186.033 74.9046 186.117 74.9977 186.224C75.0909 186.33 75.1641 186.455 75.2127 186.594C75.2616 186.731 75.2849 186.879 75.2815 187.027C75.2782 187.175 75.248 187.322 75.1931 187.456C73.5909 191.799 72.8699 196.485 73.0819 201.175C73.0888 201.32 73.07 201.465 73.0266 201.603C72.9832 201.74 72.916 201.867 72.829 201.974C72.742 202.082 72.6366 202.171 72.5191 202.233C72.4017 202.296 72.2743 202.331 72.1443 202.339L72.0948 202.34ZM84.6679 224.971C84.481 224.973 84.2978 224.913 84.1395 224.803C83.9812 224.692 83.8542 224.533 83.7733 224.345C81.7594 219.665 80.8482 211.576 81.3385 202.702C81.8254 193.875 83.5471 186.624 85.9455 183.308C86.1123 183.086 86.3502 182.946 86.608 182.919C86.866 182.891 87.1232 182.977 87.325 183.158C87.5266 183.34 87.6567 183.603 87.687 183.89C87.7174 184.177 87.6456 184.467 87.4873 184.696C83.1658 190.675 81.3632 213.64 85.5593 223.386C85.6318 223.554 85.665 223.74 85.6556 223.928C85.6461 224.114 85.5945 224.295 85.5055 224.453C85.4165 224.612 85.2929 224.742 85.1465 224.834C84.9999 224.924 84.8354 224.971 84.6679 224.971Z" fill="#041D36"/>
<path d="M66.2705 130.566C65.7489 129.181 65.0671 127.679 63.7945 127.183C62.4492 126.656 60.9999 127.476 59.8065 128.348C55.9789 131.148 52.659 134.731 50.0213 138.907C49.5095 139.718 49.0062 140.75 49.3791 141.649C49.5524 142.071 49.8893 142.373 50.2176 142.654C54.5641 146.392 59.3638 149.42 64.4729 151.649C66.9027 152.708 69.6511 153.579 72.066 152.479C70.7587 150.159 70.7769 147.111 70.2404 144.451C69.6232 141.399 68.8516 138.39 67.9294 135.437C67.4276 133.795 66.8746 132.171 66.2705 130.566Z" fill="#FFC754"/>
<path d="M67.9486 148.669C67.7743 148.67 67.603 148.618 67.4521 148.522C67.3011 148.424 67.1757 148.285 67.0886 148.116C64.5302 143.149 62.4952 137.868 61.024 132.377C60.9487 132.096 60.9764 131.792 61.1012 131.534C61.2261 131.276 61.4375 131.084 61.6892 131C61.941 130.916 62.2122 130.947 62.4435 131.087C62.6747 131.226 62.847 131.461 62.9223 131.744C64.3491 137.069 66.3232 142.193 68.8053 147.012C68.8922 147.18 68.9379 147.371 68.9379 147.565C68.9381 147.759 68.8923 147.95 68.8055 148.118C68.7187 148.285 68.5939 148.426 68.4435 148.522C68.293 148.62 68.1224 148.672 67.9486 148.672V148.669Z" fill="white"/>
<path d="M70.5059 145.97C70.8542 141.944 72.0756 136.6 73.1585 132.739C73.4639 131.654 73.8766 130.474 74.791 129.973C75.5222 129.573 76.3906 129.723 77.1845 129.923C80.1215 130.67 82.9113 132.009 85.4165 133.876C85.9463 134.273 86.5124 134.781 86.5719 135.491C86.623 136.157 86.2054 136.742 85.8093 137.241C81.4384 142.749 76.6124 147.784 71.3955 152.279L70.5059 145.97Z" fill="#FFC754"/>
<path d="M110.968 203.949C110.884 203.947 110.802 203.937 110.722 203.915L106.389 202.679C106.263 202.642 106.144 202.578 106.04 202.491C105.936 202.404 105.849 202.294 105.782 202.169C105.716 202.043 105.673 201.905 105.655 201.761C105.636 201.616 105.644 201.469 105.676 201.329C105.709 201.188 105.766 201.056 105.844 200.94C105.922 200.824 106.02 200.726 106.133 200.652C106.245 200.578 106.369 200.53 106.498 200.509C106.627 200.489 106.758 200.497 106.884 200.533L111.216 201.77C111.45 201.837 111.654 201.998 111.789 202.221C111.925 202.443 111.982 202.712 111.952 202.979C111.922 203.247 111.807 203.492 111.627 203.671C111.446 203.848 111.214 203.947 110.973 203.949H110.968ZM108.899 214.539C108.819 214.539 108.739 214.529 108.661 214.507L104.956 213.483C104.828 213.451 104.707 213.389 104.6 213.304C104.493 213.218 104.402 213.11 104.333 212.985C104.264 212.86 104.218 212.721 104.198 212.576C104.178 212.431 104.184 212.283 104.215 212.141C104.246 211.999 104.303 211.864 104.381 211.745C104.46 211.627 104.558 211.528 104.671 211.453C104.784 211.379 104.91 211.33 105.04 211.31C105.17 211.289 105.302 211.298 105.43 211.336L109.145 212.359C109.38 212.423 109.587 212.582 109.725 212.803C109.863 213.026 109.923 213.298 109.894 213.567C109.864 213.837 109.748 214.084 109.566 214.263C109.385 214.441 109.151 214.541 108.907 214.539H108.899ZM168.258 114.61C162.371 114.605 156.512 113.7 150.844 111.921C148.084 111.059 145.202 109.924 142.831 107.484C142.735 107.386 142.657 107.267 142.602 107.136C142.548 107.005 142.518 106.861 142.512 106.716C142.507 106.571 142.527 106.426 142.571 106.29C142.616 106.154 142.684 106.029 142.773 105.922C142.861 105.815 142.967 105.728 143.085 105.667C143.202 105.606 143.331 105.571 143.461 105.565C143.591 105.559 143.721 105.582 143.842 105.632C143.965 105.683 144.077 105.759 144.173 105.857C146.222 107.99 148.847 109.002 151.371 109.79C159.604 112.382 168.229 113.051 176.705 111.755C176.833 111.735 176.964 111.744 177.09 111.781C177.216 111.817 177.333 111.882 177.437 111.97C177.541 112.057 177.629 112.167 177.694 112.292C177.76 112.417 177.802 112.556 177.82 112.7C177.838 112.845 177.83 112.992 177.797 113.132C177.764 113.272 177.707 113.404 177.627 113.52C177.549 113.636 177.451 113.732 177.339 113.805C177.227 113.879 177.102 113.927 176.973 113.947C174.085 114.389 171.172 114.61 168.258 114.61ZM163.804 79.9298C161.163 79.9298 160.438 78.4899 159.362 76.3328L159.34 76.2904C159.273 76.1633 159.231 76.0227 159.213 75.8767C159.197 75.7308 159.205 75.5825 159.241 75.4404C159.275 75.2984 159.335 75.1655 159.416 75.0496C159.498 74.9338 159.599 74.8371 159.714 74.7653C159.828 74.6937 159.956 74.6485 160.087 74.6322C160.217 74.616 160.349 74.6292 160.476 74.671C160.602 74.7127 160.72 74.7821 160.822 74.8754C160.925 74.9686 161.008 75.0837 161.071 75.2138L161.092 75.2561C162.124 77.3246 162.338 77.758 163.949 77.7155C164.213 77.7093 164.467 77.8197 164.655 78.0226C164.845 78.2255 164.955 78.5044 164.962 78.7978C164.967 79.0911 164.867 79.3751 164.687 79.587C164.505 79.7989 164.255 79.9215 163.992 79.9279L163.804 79.9298ZM164.545 95.4793C164.33 95.4793 164.121 95.4009 163.949 95.256C163.776 95.1111 163.652 94.9074 163.593 94.6761C163.533 94.4447 163.544 94.1982 163.622 93.9739C163.7 93.7496 163.841 93.5596 164.024 93.4329L167.761 90.8519C167.871 90.7734 167.995 90.7203 168.124 90.6956C168.254 90.6707 168.385 90.6748 168.513 90.7075C168.64 90.7402 168.761 90.8008 168.867 90.8858C168.974 90.9709 169.064 91.0787 169.134 91.2031C169.202 91.3274 169.249 91.4659 169.269 91.6103C169.29 91.7547 169.286 91.9024 169.254 92.0445C169.224 92.1868 169.168 92.3207 169.091 92.4389C169.014 92.557 168.917 92.6567 168.804 92.7324L165.067 95.3135C164.91 95.4219 164.729 95.4793 164.545 95.4793ZM169.719 103.296C169.495 103.298 169.277 103.214 169.102 103.059C168.926 102.905 168.803 102.688 168.751 102.446C168.699 102.203 168.722 101.948 168.818 101.722C168.912 101.496 169.072 101.311 169.273 101.2L172.037 99.653C172.273 99.5278 172.542 99.5095 172.788 99.6026C173.034 99.6973 173.238 99.8942 173.354 100.155C173.47 100.415 173.491 100.716 173.41 100.992C173.329 101.268 173.154 101.497 172.923 101.632L170.158 103.178C170.021 103.255 169.871 103.296 169.719 103.296ZM86.7737 115.314H86.711C73.4677 114.389 60.3903 111.529 47.8127 106.806C47.6859 106.764 47.568 106.692 47.4662 106.597C47.3642 106.502 47.2804 106.386 47.2196 106.255C47.1589 106.124 47.1224 105.979 47.1123 105.832C47.1021 105.684 47.1187 105.536 47.1609 105.395C47.2032 105.255 47.2702 105.125 47.3581 105.014C47.4458 104.904 47.5527 104.814 47.6723 104.75C47.792 104.685 47.9218 104.649 48.0543 104.643C48.1868 104.635 48.319 104.658 48.4434 104.71C60.8571 109.37 73.7641 112.193 86.8347 113.106C87.0974 113.115 87.3461 113.24 87.5261 113.454C87.7062 113.668 87.8027 113.953 87.7946 114.247C87.7866 114.54 87.6744 114.818 87.4829 115.018C87.2914 115.219 87.0363 115.328 86.7737 115.318V115.314Z" fill="#041D36"/>
<path d="M99.8012 185.896C99.5543 185.898 99.3159 185.796 99.1326 185.611C98.9494 185.426 98.8347 185.171 98.8108 184.896L95.899 151.293L40.2548 157.306C40.1247 157.321 39.9934 157.306 39.8685 157.263C39.7435 157.221 39.6273 157.152 39.5264 157.059C39.4256 156.966 39.342 156.851 39.2806 156.723C39.2193 156.595 39.1813 156.453 39.1687 156.308C39.1561 156.163 39.1692 156.016 39.2074 155.875C39.2455 155.737 39.308 155.607 39.391 155.494C39.4741 155.381 39.5762 155.288 39.6916 155.219C39.807 155.152 39.9333 155.109 40.0633 155.094L96.7028 148.985C96.8323 148.97 96.963 148.985 97.0874 149.028C97.2119 149.069 97.3274 149.139 97.4275 149.232C97.6285 149.415 97.7564 149.681 97.784 149.97L100.788 184.687C100.814 184.979 100.734 185.27 100.567 185.496C100.4 185.722 100.16 185.866 99.8986 185.895C99.8662 185.896 99.8336 185.898 99.8012 185.896Z" fill="#FFC754"/>
<path d="M74.293 187.59C74.0545 187.59 73.8242 187.494 73.6442 187.32L71.2655 185.015C71.0801 184.833 70.9623 184.579 70.9354 184.305L67.7876 153.612C67.7727 153.467 67.7841 153.319 67.8208 153.178C67.8575 153.038 67.919 152.905 68.0017 152.792C68.0843 152.677 68.1865 152.583 68.3022 152.514C68.418 152.444 68.5448 152.401 68.6756 152.386L73.2447 151.893C73.504 151.864 73.7627 151.952 73.9647 152.135C74.1668 152.319 74.296 152.584 74.3243 152.873L77.3814 184.06C77.3983 184.227 77.3811 184.395 77.3307 184.552C77.2804 184.709 77.1983 184.853 77.0907 184.969L74.9862 187.27C74.8018 187.474 74.5527 187.589 74.293 187.59ZM72.8551 183.627L74.2517 184.978L75.356 183.767L72.4573 154.198L69.8658 154.479L72.8551 183.627Z" fill="#FFC754"/>
<path d="M41.8853 172.562C41.7553 172.57 41.6253 172.547 41.5029 172.498C41.3804 172.449 41.2677 172.373 41.1715 172.275C41.0752 172.177 40.9972 172.058 40.9418 171.927C40.8865 171.796 40.8547 171.654 40.8487 171.507C40.8427 171.362 40.8623 171.217 40.9064 171.081C40.9506 170.944 41.0185 170.819 41.1061 170.71C41.1938 170.603 41.2996 170.516 41.4174 170.454C41.5353 170.393 41.6628 170.357 41.7929 170.35L97.9819 164.43C98.2434 164.403 98.5041 164.491 98.7066 164.679C98.909 164.865 99.0367 165.136 99.0615 165.427C99.0862 165.72 99.006 166.01 98.8385 166.236C98.671 166.462 98.43 166.606 98.1684 166.633L41.9794 172.553L41.8853 172.562Z" fill="#FFC754"/>
<path d="M97.2617 156.144L109.558 156.91L106.641 186.209C106.641 186.209 104.066 183.589 99.8104 184.79L97.2617 156.144Z" fill="#007FFE"/>
<path d="M106.636 187.314C106.392 187.313 106.157 187.211 105.976 187.027C105.89 186.942 103.705 184.833 100.055 185.864C99.917 185.902 99.7729 185.908 99.6327 185.879C99.4925 185.85 99.3597 185.788 99.2431 185.696C99.1264 185.604 99.029 185.487 98.9572 185.348C98.8853 185.21 98.841 185.058 98.8271 184.899L96.2784 156.255C96.2641 156.096 96.2808 155.935 96.3274 155.783C96.3741 155.632 96.4495 155.495 96.5485 155.379C96.6475 155.264 96.7678 155.174 96.9009 155.115C97.0341 155.057 97.177 155.031 97.3199 155.04L109.616 155.805C109.75 155.814 109.882 155.852 110.003 155.919C110.123 155.987 110.23 156.081 110.318 156.196C110.404 156.31 110.469 156.445 110.509 156.588C110.547 156.732 110.56 156.883 110.545 157.032L107.629 186.333C107.601 186.603 107.485 186.855 107.302 187.035C107.119 187.217 106.883 187.316 106.638 187.314H106.636ZM102.014 183.368C103.335 183.361 104.64 183.691 105.829 184.334L108.454 157.955L98.3565 157.321L100.682 183.473C101.123 183.403 101.568 183.368 102.013 183.368H102.014Z" fill="#FFC754"/>
<path d="M64.1275 148.602C63.9165 148.604 63.7109 148.528 63.5416 148.387L58.2973 144.068C58.1926 143.982 58.1041 143.874 58.037 143.749C57.9698 143.625 57.9252 143.486 57.9057 143.342C57.8862 143.199 57.8923 143.052 57.9236 142.912C57.9547 142.77 58.0105 142.639 58.0877 142.521C58.1648 142.403 58.2619 142.306 58.3733 142.229C58.4846 142.155 58.6082 142.106 58.7367 142.083C58.8653 142.061 58.9965 142.069 59.1227 142.103C59.249 142.138 59.368 142.2 59.4726 142.287L64.7168 146.607C64.8848 146.744 65.0095 146.938 65.0728 147.161C65.1362 147.382 65.1353 147.622 65.0699 147.844C65.0046 148.065 64.8782 148.257 64.709 148.393C64.5398 148.531 64.3362 148.604 64.1275 148.602Z" fill="white"/>
<path d="M109.374 191.726C107.895 181.525 100.163 183.438 84.5388 188.933C80.303 205.451 81.8192 210.536 84.4968 219.516L84.5388 219.657L105.092 221.519C109.198 219.797 110.197 218.257 109.374 214.071C113.535 209.591 113.676 207.141 111.087 202.899C113.961 198.614 114.068 196.191 109.374 191.726Z" fill="#FF9D8E" stroke="#000080" stroke-width="0.513837"/>
<path d="M118.974 182.376C118.908 182.376 118.842 182.369 118.778 182.355C118.65 182.326 118.528 182.269 118.42 182.189C118.312 182.108 118.22 182.004 118.148 181.883C118.075 181.761 118.026 181.625 118 181.483C117.976 181.341 117.976 181.193 118.002 181.051C118.215 179.921 118.688 178.874 119.376 178.01C120.062 177.147 120.939 176.499 121.918 176.13C122.043 176.083 122.175 176.061 122.306 176.07C122.438 176.08 122.566 176.118 122.684 176.183C122.803 176.248 122.908 176.339 122.994 176.451C123.08 176.561 123.146 176.69 123.187 176.831C123.228 176.97 123.243 177.118 123.232 177.264C123.222 177.411 123.185 177.553 123.125 177.684C123.064 177.814 122.98 177.93 122.879 178.025C122.779 178.118 122.662 178.19 122.536 178.232C121.89 178.481 121.313 178.912 120.859 179.483C120.405 180.052 120.089 180.744 119.943 181.491C119.898 181.74 119.776 181.964 119.6 182.126C119.423 182.288 119.202 182.376 118.974 182.376ZM101.193 223.291C99.6974 223.265 98.205 223.128 96.7261 222.876L84.5375 221.006C84.2846 220.957 84.0588 220.799 83.9073 220.567C83.756 220.337 83.6911 220.048 83.7261 219.764C83.7612 219.48 83.8937 219.222 84.0956 219.045C84.2973 218.868 84.553 218.786 84.8082 218.815L96.9969 220.682C100.505 221.221 104.45 221.587 106.868 219.103C107.895 218.048 109.06 215.822 108.056 214.013C107.924 213.773 107.879 213.484 107.929 213.208C107.98 212.932 108.123 212.689 108.33 212.527C109.857 211.328 110.549 210.258 110.971 208.443C111.415 206.552 110.882 204.54 109.674 203.548C109.527 203.427 109.413 203.264 109.344 203.076C109.274 202.888 109.254 202.682 109.283 202.48C109.311 202.28 109.389 202.093 109.507 201.937C109.626 201.783 109.78 201.668 109.952 201.604C110.745 201.317 111.128 200.527 111.287 200.082C111.466 199.57 111.545 199.024 111.52 198.475C111.496 197.927 111.367 197.391 111.145 196.903C110.353 195.292 108.581 194.127 106.289 193.707C105.108 193.49 103.913 193.454 102.647 193.415C101.657 193.385 100.642 193.353 99.6264 193.231C99.3653 193.199 99.1262 193.052 98.9619 192.823C98.7974 192.594 98.7211 192.302 98.7499 192.011C98.7786 191.719 98.9098 191.452 99.1147 191.269C99.3196 191.084 99.5814 191 99.8427 191.032C100.777 191.145 101.713 191.176 102.702 191.205C103.978 191.246 105.296 191.285 106.609 191.525C108.312 191.837 111.396 192.815 112.881 195.84C113.244 196.614 113.455 197.466 113.497 198.34C113.54 199.211 113.414 200.085 113.127 200.899C112.863 201.671 112.431 202.358 111.87 202.899C112.98 204.523 113.396 206.836 112.886 209.006C112.408 211.047 111.613 212.445 110.141 213.771C110.986 216.309 109.812 219.077 108.203 220.734C106.277 222.717 103.773 223.291 101.193 223.291Z" fill="#041D36"/>
<path d="M36.8493 189.934C36.6542 189.934 36.4636 189.869 36.3015 189.748C36.1394 189.628 36.0128 189.455 35.9378 189.253C35.8626 189.053 35.8423 188.832 35.8794 188.618C35.9164 188.405 36.0092 188.208 36.1461 188.052C40.4378 183.199 45.1785 178.866 50.6967 180.016C51.2448 180.131 51.7697 180.297 52.2765 180.459C52.9211 180.691 53.5845 180.853 54.2573 180.941C55.3302 181.037 56.4296 180.726 57.595 180.389C58.0159 180.268 58.4533 180.144 58.8924 180.039C64.4039 178.729 70.358 180.674 74.4088 185.018C75.7574 183.256 77.9396 182.14 80.3941 182.019C82.9427 181.894 84.7436 182.144 87.0364 182.941C87.1644 182.981 87.2838 183.048 87.3879 183.141C87.4919 183.233 87.5783 183.348 87.6419 183.477C87.7056 183.609 87.7451 183.751 87.7581 183.899C87.7712 184.047 87.7575 184.195 87.718 184.337C87.6785 184.479 87.6138 184.61 87.528 184.723C87.4421 184.836 87.3369 184.929 87.2182 184.995C87.0997 185.062 86.9704 185.102 86.8379 185.111C86.7054 185.122 86.5724 185.1 86.4471 185.053C84.3953 184.339 82.7777 184.116 80.4799 184.229C78.6906 184.316 76.4193 185.161 75.4107 187.276C75.3356 187.433 75.2276 187.568 75.096 187.669C74.9645 187.769 74.813 187.832 74.6547 187.853C74.4964 187.875 74.3358 187.853 74.1866 187.789C74.0375 187.727 73.9042 187.624 73.798 187.491C70.2325 183.032 64.5443 180.957 59.3083 182.202C58.9072 182.299 58.5077 182.41 58.0852 182.531C56.8158 182.899 55.5035 183.268 54.1038 183.138C53.3012 183.044 52.5093 182.857 51.7399 182.586C51.2564 182.433 50.7975 182.286 50.3402 182.192C45.7299 181.23 41.4728 185.187 37.5607 189.606C37.4677 189.712 37.3569 189.794 37.2347 189.85C37.1125 189.907 36.9815 189.936 36.8493 189.934ZM109.359 194.214C109.254 194.214 109.15 194.196 109.05 194.159C108.8 194.068 108.593 193.869 108.474 193.608C108.357 193.347 108.336 193.043 108.417 192.764C109.148 190.267 107.236 187.473 105.062 186.526C102.535 185.421 99.6029 185.936 97.0527 186.497C95.6628 186.803 94.0815 187.401 92.4011 188.033C89.8673 188.988 87.2476 189.974 85.0028 190.046H84.9746C84.712 190.05 84.4586 189.937 84.2702 189.733C84.082 189.528 83.974 189.249 83.9703 188.956C83.9666 188.663 84.0673 188.38 84.2504 188.169C84.4336 187.959 84.684 187.838 84.9466 187.833C86.896 187.774 89.3721 186.841 91.7672 185.937C93.5087 185.281 95.1528 184.661 96.668 184.328C99.4923 183.705 102.757 183.149 105.781 184.465C108.844 185.798 111.393 189.727 110.299 193.452C110.235 193.674 110.108 193.866 109.94 194.003C109.77 194.141 109.567 194.214 109.359 194.214Z" fill="#041D36"/>
<path d="M15.1962 229.474L9.11914 221.399L17.222 222.867L28.7009 224.336L39.5047 225.07L55.0351 223.601L71.9159 219.931L93.5234 225.804L105.678 228.006L116.481 229.474H63.8131H15.1962Z" fill="#509DFF" stroke="#509DFF" stroke-width="0.405141"/>
<path d="M171.027 76.2803C189.41 80.8408 189.056 98.3154 178.735 108.865C166.073 111.527 159.821 110.334 149.617 105.141C150.827 87.2243 150.311 75.8838 164.176 71.6252C168.122 71.2656 169.519 72.4617 171.027 76.2803Z" fill="#FF9D8E"/>
<path d="M171.027 76.2803C189.41 80.8408 189.056 98.3154 178.735 108.865C166.073 111.527 159.821 110.334 149.617 105.141C150.827 87.2243 150.311 75.8838 164.176 71.6252C168.122 71.2656 169.519 72.4617 171.027 76.2803ZM171.027 76.2803L161.607 83.7283" stroke="#000080" stroke-width="0.513837"/>
<path d="M148.727 107.992C148.457 107.992 148.197 107.876 148.008 107.669C147.817 107.461 147.708 107.18 147.708 106.887C147.617 94.9727 149.429 85.7084 153.092 79.3533C156.283 73.8225 160.913 70.5205 165.485 70.5205H165.52C167.214 70.5536 168.828 71.3099 170.012 72.6259C170.516 73.1962 170.905 73.8735 171.156 74.6152C171.408 75.357 171.516 76.1473 171.474 76.9363C171.468 77.0817 171.436 77.2243 171.378 77.3561C171.322 77.4877 171.242 77.6062 171.144 77.7043C171.045 77.8025 170.929 77.8786 170.804 77.9282C170.677 77.9778 170.544 78.0001 170.41 77.9937C170.277 77.9873 170.146 77.9523 170.024 77.8908C169.903 77.8292 169.795 77.7425 169.704 77.6352C169.614 77.528 169.544 77.4023 169.499 77.2657C169.453 77.129 169.433 76.984 169.439 76.8386C169.469 76.3474 169.405 75.8546 169.249 75.3921C169.094 74.9294 168.851 74.5071 168.538 74.1524C167.732 73.2783 166.651 72.7708 165.512 72.7329H165.484C161.617 72.7329 157.63 75.644 154.815 80.5278C151.36 86.5196 149.654 95.382 149.742 106.869C149.743 107.014 149.718 107.159 149.668 107.295C149.617 107.429 149.541 107.553 149.447 107.656C149.353 107.76 149.241 107.843 149.116 107.898C148.992 107.954 148.859 107.983 148.725 107.983L148.727 107.992Z" fill="#041D36"/>
<path d="M175.495 107.128C174.939 107.128 174.384 107.07 173.838 106.955C171.889 106.548 170.339 105.528 169.474 104.08C168.9 103.106 168.625 101.959 168.691 100.805C167.012 100.463 165.325 99.2599 164.241 97.5544C163.196 95.9141 162.884 94.03 163.349 92.2785C160.441 89.0613 160.644 86.0415 161.363 84.0319C163.14 79.0633 169.917 75.3244 173.445 75.3244C175.869 75.3244 178.308 76.3642 180.313 78.254C182.495 80.3132 183.936 83.0473 184.949 85.1933C187.794 91.2313 188.21 96.4396 186.155 100.263C185.477 101.514 184.501 102.685 183.157 103.843C181.64 105.15 178.8 107.128 175.495 107.128ZM169.845 98.6889C170 98.6889 170.15 98.7255 170.289 98.7988C170.426 98.8705 170.547 98.9759 170.643 99.1072C170.738 99.237 170.806 99.3897 170.839 99.5515C170.873 99.7149 170.873 99.8828 170.838 100.046C170.601 101.152 170.717 102.098 171.176 102.875C171.737 103.813 172.817 104.491 174.217 104.784C177.417 105.451 180.396 103.396 181.886 102.111C183.029 101.124 183.851 100.155 184.393 99.1454C186.525 95.1823 184.884 89.9278 183.133 86.2018C182.203 84.231 180.893 81.7365 178.973 79.9335C177.363 78.4143 175.345 77.5368 173.439 77.5368C170.912 77.5368 164.735 80.6913 163.254 84.8339C162.477 87.0057 163.116 89.0743 165.21 91.1612C165.368 91.3172 165.474 91.5224 165.519 91.7483C165.563 91.9741 165.54 92.2091 165.455 92.4204C164.776 94.1074 165.455 95.573 165.91 96.2922C166.841 97.7544 168.471 98.7591 169.787 98.6889H169.845Z" fill="#041D36"/>
</svg>
