<svg width="239" height="43" viewBox="0 0 239 43" fill="none" xmlns="http://www.w3.org/2000/svg">
<path d="M31.6168 19.21C31.8178 19.2854 31.9425 19.417 31.9936 19.6058C32.0438 19.7938 32.0057 19.9886 31.8801 20.1887C31.4289 21.0928 30.9387 22.0091 30.4121 22.9384C29.8847 23.8669 29.3443 24.7771 28.7926 25.6683C28.2401 26.5594 27.6875 27.4134 27.1358 28.2292C26.5833 29.045 26.0437 29.7916 25.5172 30.4689C23.5832 33.0047 21.6008 35.1014 19.5664 36.7582C17.6585 38.2894 15.7757 39.3945 13.918 40.0718C13.2658 40.3481 12.5816 40.549 11.8663 40.6746C11.1509 40.8001 10.4537 40.8625 9.77644 40.8625C8.97273 40.8625 8.18115 40.762 7.40342 40.5611C6.62569 40.3602 5.90946 40.0467 5.25731 39.6197C4.10198 38.9424 3.18655 38.0634 2.50843 36.9843C1.8303 35.9043 1.35396 34.7308 1.07769 33.4637C0.801413 32.1949 0.707879 30.8716 0.795351 29.4902C0.883689 28.1097 1.1028 26.7794 1.45356 25.4985C2.08146 23.2901 2.77171 21.2375 3.52519 19.3417C4.27866 17.4467 5.14992 15.6765 6.14243 14.0318C7.13321 12.3889 8.25649 10.8317 9.51315 9.36287C10.7672 7.89403 12.1988 6.48235 13.8054 5.12609C14.3328 4.67487 15.0291 4.22278 15.8952 3.7707C16.7612 3.31861 17.7027 2.97998 18.7194 2.75394C19.7362 2.5279 20.772 2.49066 21.826 2.64135C22.8809 2.79118 23.8595 3.25626 24.7637 4.03485C25.4661 4.63676 26.0307 5.50976 26.4577 6.65209C26.8847 7.79443 27.0986 9.02424 27.0986 10.3415C27.0986 11.6597 26.8535 12.9908 26.3642 14.3332C25.874 15.6765 25.0772 16.8379 23.973 17.8165C23.6213 18.1179 23.1563 18.2253 22.5795 18.137C22.0018 18.0495 21.4683 17.8607 20.979 17.5723C20.4897 17.2839 20.132 16.9444 19.9059 16.5555C19.6799 16.1667 19.7552 15.8211 20.132 15.5197C20.8343 14.968 21.4553 14.2518 21.9957 13.3736C22.5353 12.4946 22.9562 11.5783 23.2576 10.6239C23.5581 9.67033 23.7209 8.74797 23.7469 7.85679C23.7712 6.96561 23.6335 6.23119 23.3329 5.65352C23.0558 5.17719 22.6037 4.99445 21.9767 5.1079C21.3497 5.22049 20.6022 5.5851 19.7362 6.20001C18.8701 6.81491 17.9348 7.64893 16.931 8.7038C15.9264 9.7578 14.9226 10.9885 13.918 12.3941C13.1653 13.449 12.4621 14.5852 11.8091 15.8021C11.1561 17.0197 10.5732 18.2253 10.0588 19.417C9.54347 20.6096 9.09225 21.758 8.70252 22.8631C8.31365 23.9682 8.0062 24.9468 7.78016 25.7999C7.32894 27.4567 7.1029 29.0009 7.1029 30.4316C7.1029 31.8624 7.2839 33.1242 7.64852 34.2163C8.01226 35.3084 8.54576 36.1996 9.249 36.8899C9.95138 37.5801 10.7802 38.0071 11.7337 38.1708C12.6881 38.3336 13.7491 38.2141 14.9165 37.8122C16.0831 37.4104 17.332 36.6699 18.6631 35.5908C19.6669 34.7628 20.6897 33.7833 21.7316 32.6531C22.7735 31.5237 23.8032 30.2749 24.82 28.9065C25.8367 27.539 26.8284 26.0701 27.7949 24.5008C28.7606 22.9324 29.6838 21.2938 30.5628 19.5868C30.8131 19.1347 31.1656 19.01 31.6168 19.21Z" fill="white"/>
<path d="M42.7264 14.7312C42.7264 15.1331 42.651 15.4224 42.5003 15.5973C42.2994 15.974 41.9859 16.162 41.5589 16.162C41.2575 16.162 40.9873 16.0632 40.7492 15.8623C40.5101 15.6614 40.3915 15.3981 40.3915 15.0716C40.3915 14.8707 40.4486 14.681 40.5612 14.5052C40.6738 14.3303 40.8184 14.1804 40.9942 14.0548C40.7933 13.7032 40.5621 13.5265 40.2979 13.5265C40.0346 13.5265 39.7514 13.6331 39.4501 13.847C39.1487 14.06 38.8412 14.3493 38.5277 14.7131C38.2133 15.0768 37.9076 15.4475 37.6062 15.8242C37.0788 16.5023 36.5704 17.2861 36.0811 18.1773C35.5917 19.0685 35.1587 19.9848 34.782 20.9262C34.4052 21.8676 34.103 22.7978 33.8769 23.7132C33.6509 24.6304 33.5322 25.4644 33.5201 26.2179C33.5071 26.9705 33.6136 27.5914 33.8397 28.0808C34.0657 28.5701 34.4425 28.8654 34.969 28.9659C35.3458 29.0412 35.7658 28.8723 36.2309 28.4584C36.6951 28.0444 37.1593 27.51 37.6235 26.857C38.0886 26.2049 38.5398 25.4956 38.9798 24.7291C39.4189 23.9635 39.8017 23.255 40.1282 22.6012C39.6008 22.376 39.237 22.0062 39.0361 21.4917C38.8352 20.9773 38.7728 20.4551 38.8473 19.9276C38.9226 19.4011 39.1236 18.9377 39.4501 18.5359C39.7766 18.134 40.1905 17.9322 40.6929 17.9322C40.8678 17.9322 41.0938 17.9461 41.371 17.9712C41.6464 17.9963 41.8846 18.1271 42.0864 18.3652C42.2873 18.6043 42.3999 18.9871 42.425 19.5136C42.4501 20.0411 42.3115 20.8075 42.011 21.8105C43.0148 21.7862 43.8185 21.6476 44.4213 21.3965C45.0232 21.1462 45.4952 20.8699 45.8338 20.5694C46.1733 20.268 46.3976 19.9727 46.5111 19.6843C46.6237 19.3959 46.7051 19.2123 46.7553 19.1369C46.8307 18.962 46.9493 18.8554 47.113 18.8182C47.2758 18.7801 47.4334 18.7991 47.5841 18.8745C47.7348 18.9498 47.8474 19.0685 47.9228 19.2313C47.9981 19.395 47.9981 19.5777 47.9228 19.7787C47.7218 20.255 47.4083 20.695 46.9813 21.0959C46.5544 21.4978 46.059 21.8364 45.4943 22.1118C44.9288 22.389 44.3026 22.602 43.6124 22.7536C42.9212 22.9043 42.2241 22.9658 41.5208 22.9407C41.1692 23.7193 40.724 24.5853 40.1845 25.5389C39.6441 26.4933 39.0231 27.3784 38.3207 28.1933C37.6175 29.01 36.8449 29.6812 36.0049 30.2087C35.163 30.7352 34.2667 30.9613 33.3131 30.8859C32.0573 30.7612 31.0718 30.2347 30.3564 29.3054C29.641 28.377 29.2591 27.2467 29.2088 25.9156C29.1837 24.9118 29.2842 23.8639 29.5094 22.7718C29.7363 21.6797 30.074 20.6058 30.5261 19.5518C30.9773 18.4969 31.5299 17.4992 32.1838 16.5578C32.8359 15.6164 33.5703 14.7953 34.3862 14.0921C35.202 13.3897 36.0923 12.8493 37.0589 12.4734C38.0254 12.0967 39.0361 11.9339 40.0909 11.9832C40.5673 12.0083 40.9631 12.1149 41.2775 12.3028C41.591 12.4907 41.8473 12.7168 42.0482 12.9809C42.2492 13.2442 42.3999 13.5326 42.5003 13.847C42.5999 14.1605 42.6753 14.4558 42.7264 14.7312Z" fill="white"/>
<path d="M61.2545 16.7604C61.2034 17.6144 61.0155 18.5116 60.6898 19.453C60.3633 20.3944 59.9918 21.3177 59.5778 22.2218C59.1638 23.1251 58.7498 23.9852 58.3359 24.801C57.9219 25.6177 57.6023 26.3261 57.3754 26.9289C57.1502 27.5317 57.055 28.0141 57.0922 28.3778C57.1303 28.7416 57.4005 28.9234 57.9028 28.9234C58.1289 28.9234 58.4424 28.7416 58.8442 28.3778C59.2461 28.0141 59.6852 27.5377 60.1624 26.9471C60.6396 26.3582 61.1341 25.6922 61.6494 24.9508C62.163 24.2112 62.648 23.4759 63.0992 22.7484C63.5513 22.0201 63.9532 21.3237 64.3048 20.6577C64.6564 19.9926 64.9076 19.447 65.0583 19.02C65.1336 18.8191 65.2583 18.6935 65.4341 18.6433C65.6099 18.593 65.7736 18.593 65.9243 18.6433C66.0741 18.6935 66.1937 18.794 66.282 18.9447C66.3695 19.0954 66.3625 19.259 66.2629 19.434C66.062 19.8618 65.7736 20.4447 65.3969 21.1852C65.0201 21.9256 64.5741 22.7172 64.0597 23.5582C63.5452 24.4 62.9866 25.247 62.3847 26.1001C61.7819 26.954 61.1601 27.7317 60.5201 28.4341C59.8801 29.1374 59.234 29.7142 58.581 30.1663C57.9279 30.6183 57.3009 30.8452 56.6981 30.8452C56.1958 30.8704 55.768 30.7508 55.4172 30.4876C55.0647 30.2234 54.7763 29.8649 54.5512 29.4128C54.3251 28.9616 54.1675 28.4532 54.08 27.8894C53.9917 27.3238 53.9856 26.7531 54.061 26.1754C54.1865 25.1465 54.4247 24.1298 54.7763 23.1251C55.128 22.1214 55.5108 21.1609 55.9256 20.2438C56.3396 19.3275 56.7475 18.4865 57.1494 17.7209C57.5503 16.9553 57.8517 16.291 58.0527 15.7255C58.2536 15.1608 58.3229 14.7278 58.2605 14.4264C58.1982 14.1259 57.9028 13.9873 57.3754 14.0124C57.0991 14.0375 56.7103 14.2558 56.2088 14.6706C55.7065 15.0846 55.1591 15.6129 54.5693 16.2529C53.9796 16.893 53.3837 17.5962 52.7809 18.3618C52.1781 19.1274 51.6395 19.8627 51.1631 20.5651C50.6851 21.5437 50.1897 22.5172 49.6752 23.4828C49.1608 24.4494 48.7009 25.3596 48.2999 26.2127C47.8981 27.0657 47.6036 27.8192 47.4148 28.4714C47.2269 29.1244 47.2199 29.6276 47.3966 29.9792C47.4962 30.1801 47.4148 30.3862 47.1515 30.5993C46.8882 30.8132 46.5487 30.9249 46.1347 30.9388C45.7199 30.9509 45.2938 30.8193 44.8538 30.543C44.4156 30.2667 44.0822 29.7523 43.8561 28.9988C43.6561 28.3969 43.6682 27.6062 43.8942 26.6275C44.1203 25.648 44.4468 24.6001 44.8729 23.4828C45.3007 22.3665 45.7779 21.2233 46.3045 20.0567C46.8319 18.8892 47.3083 17.8144 47.7361 16.8358C48.1622 15.8571 48.4757 15.0162 48.6766 14.3129C48.8767 13.6106 48.8767 13.1585 48.6766 12.9567C48.5 12.8069 48.5822 12.631 48.9209 12.4301C49.2604 12.2292 49.6865 12.1166 50.2018 12.0906C50.7162 12.0664 51.2376 12.179 51.7642 12.4301C52.2916 12.6813 52.6675 13.1836 52.8944 13.9371C52.994 14.2636 53.0312 14.6213 53.007 15.0101C52.9819 15.3999 52.9186 15.8078 52.819 16.2339C53.2954 15.6822 53.7786 15.1548 54.2688 14.6516C54.7582 14.1493 55.2544 13.711 55.7567 13.3343C56.2582 12.9576 56.7484 12.6562 57.2256 12.4301C57.7019 12.2041 58.1661 12.0906 58.6182 12.0906C59.5969 12.0664 60.3252 12.4925 60.8033 13.3715C61.2796 14.2506 61.4303 15.3799 61.2545 16.7604Z" fill="white"/>
<path d="M74.5858 15.0749C74.5858 14.8739 74.6421 14.686 74.7547 14.5102C74.8681 14.3344 75.0119 14.1837 75.1877 14.0581C75.0621 13.7567 74.8612 13.606 74.5858 13.606C74.2333 13.5818 73.8444 13.7385 73.4175 14.0772C72.9905 14.4158 72.5323 14.9051 72.043 15.546C71.5537 16.186 71.0453 16.9767 70.5187 17.9181C69.9913 18.8596 69.4647 19.9084 68.9373 21.062C68.6108 21.7912 68.3406 22.575 68.1275 23.4159C67.9136 24.2577 67.7941 25.0606 67.769 25.8262C67.7447 26.5926 67.8192 27.263 67.995 27.8406C68.17 28.4183 68.4852 28.795 68.9373 28.9709C69.489 29.196 70.0788 28.989 70.7067 28.349C71.3337 27.709 71.9616 26.862 72.5895 25.8071C73.2174 24.7531 73.8262 23.6168 74.416 22.3992C75.005 21.1815 75.5514 20.1084 76.0538 19.1791C76.0538 19.1047 76.0667 19.0544 76.0919 19.0293C76.77 17.4228 77.2905 16.0544 77.6542 14.9242C78.018 13.7948 78.0985 13.0924 77.8985 12.8153C77.772 12.6646 77.8864 12.4897 78.238 12.2879C78.5896 12.0878 79.0287 11.9752 79.5561 11.9492C80.0836 11.925 80.6032 12.0506 81.1185 12.326C81.6321 12.6022 82.0028 13.1297 82.2288 13.9074C82.3544 14.3344 82.292 15.0186 82.0409 15.96C81.7897 16.9014 81.4381 17.9623 80.986 19.1419C80.5339 20.3223 80.0203 21.5582 79.4427 22.8512C78.865 24.1443 78.3133 25.362 77.7859 26.5034C77.2593 27.6466 76.7934 28.6444 76.3924 29.4974C75.9905 30.3514 75.7402 30.9412 75.6398 31.2668C76.5431 30.6649 77.4854 29.8179 78.464 28.7258C79.4427 27.6337 80.359 26.4913 81.2129 25.2987C82.066 24.1062 82.8195 22.9456 83.4725 21.8154C84.1246 20.6861 84.5758 19.7819 84.827 19.1047C84.9023 18.8786 85.0288 18.734 85.2046 18.6716C85.3795 18.6084 85.5424 18.6023 85.6931 18.6526C85.8438 18.7028 85.9633 18.8033 86.0516 18.954C86.1391 19.1047 86.146 19.2683 86.0707 19.4433C85.493 20.7233 84.7716 22.0735 83.9055 23.4913C83.0394 24.9099 82.0911 26.2722 81.0622 27.5774C80.0325 28.8825 78.9533 30.0569 77.824 31.0979C76.6946 32.1389 75.5895 32.9366 74.5104 33.4891C74.3597 33.8659 74.1579 34.3491 73.9077 34.9389C73.6565 35.5287 73.3984 36.1254 73.1351 36.7273C72.871 37.3301 72.6328 37.8948 72.4206 38.4222C72.2067 38.9496 72.0491 39.3385 71.9495 39.5897C71.6983 40.292 71.3025 40.8888 70.763 41.3781C70.2217 41.8674 69.6146 42.2442 68.9373 42.5074C68.2592 42.7716 67.5559 42.9223 66.8284 42.9595C66.1001 42.9976 65.422 42.9223 64.7949 42.7343C64.167 42.5455 63.6214 42.2312 63.1563 41.7921C62.6921 41.353 62.3977 40.7944 62.2721 40.1171C62.247 39.8911 62.2781 39.6208 62.3656 39.3073C62.4539 38.993 62.6739 38.6604 63.0247 38.3088C63.4265 37.9069 63.9098 37.5432 64.4745 37.2175C65.0392 36.891 65.6281 36.5766 66.2438 36.2761C66.8588 35.9747 67.4624 35.6673 68.0522 35.3529C68.6411 35.0385 69.1504 34.6947 69.5773 34.3171C69.8276 33.6147 70.1221 32.8361 70.4607 31.983C70.8002 31.1291 71.1709 30.2379 71.5727 29.3095C70.8444 30.0127 70.0476 30.483 69.1815 30.7212C68.3155 30.9602 67.3412 30.8667 66.2629 30.4388C65.2583 30.0378 64.5377 29.4472 64.0977 28.6686C63.6586 27.8917 63.4014 27.0439 63.3261 26.1267C63.2507 25.2113 63.3261 24.2577 63.5521 23.2652C63.7782 22.2736 64.0536 21.3633 64.3792 20.5354C64.982 19.0042 65.6541 17.6921 66.3954 16.6C67.1359 15.5079 67.9205 14.6167 68.7485 13.9265C69.5773 13.2362 70.4304 12.7399 71.3095 12.4386C72.1876 12.138 73.0788 12.0003 73.983 12.0246C74.2844 12.0506 74.604 12.106 74.9435 12.1943C75.2821 12.2827 75.5956 12.4264 75.8849 12.6274C76.1733 12.8283 76.4175 13.0976 76.6184 13.4371C76.8194 13.7758 76.9198 14.1967 76.9198 14.6981C76.9198 15.2013 76.8072 15.5642 76.5812 15.7902C76.3803 16.0414 76.104 16.167 75.7524 16.167C75.4518 16.167 75.1816 16.0674 74.9435 15.8656C74.7044 15.6646 74.5858 15.4014 74.5858 15.0749ZM69.0499 36.012C68.6732 36.3133 68.2462 36.5766 67.769 36.8027C67.2927 37.0287 66.8154 37.2548 66.3391 37.4808C65.861 37.7068 65.4029 37.9571 64.9638 38.2334C64.5247 38.5097 64.167 38.8362 63.8908 39.2129C63.7158 39.4632 63.6457 39.7404 63.6829 40.0418C63.721 40.3423 63.8345 40.6125 64.0224 40.8507C64.2112 41.0897 64.4494 41.2716 64.7378 41.3971C65.027 41.5227 65.3457 41.5348 65.6974 41.4344C66.049 41.3339 66.4145 41.0897 66.7903 40.7008C67.1671 40.3111 67.517 39.7144 67.8435 38.9115C67.995 38.5599 68.1778 38.1459 68.3908 37.6696C68.6039 37.1915 68.8239 36.6399 69.0499 36.012Z" fill="white"/>
<path d="M85.9175 19.8133C85.8421 19.964 85.7226 20.0645 85.5598 20.1147C85.3961 20.165 85.2446 20.165 85.1069 20.1147C84.9692 20.0645 84.8566 19.9701 84.7691 19.8315C84.6816 19.6947 84.6747 19.5249 84.75 19.324C84.8254 19.098 84.9631 18.7533 85.164 18.2882C85.3649 17.824 85.5659 17.3347 85.7668 16.8193C85.9677 16.3049 86.1678 15.8026 86.3687 15.3133C86.5688 14.8239 86.7082 14.416 86.7836 14.0895C86.2059 13.8132 85.7105 13.3741 85.2965 12.7714C84.8825 12.1686 84.6738 11.5667 84.6738 10.9639C84.6738 10.1862 84.8748 9.52102 85.2766 8.96847C85.6776 8.41592 86.2812 8.13965 87.085 8.13965C87.5873 8.13965 88.0203 8.34664 88.384 8.76062C88.7478 9.17546 88.9418 9.67172 88.9669 10.2485C88.9669 10.575 88.9479 11.0262 88.9106 11.6039C88.8734 12.1816 88.8032 12.6588 88.7036 13.0346C88.8283 13.136 88.999 13.1983 89.2129 13.2234C89.4259 13.2486 89.658 13.2616 89.9092 13.2616C90.4609 13.2616 90.8939 13.1983 91.2083 13.0728C91.5218 12.9472 91.792 12.8155 92.0181 12.677C92.2441 12.5401 92.4701 12.4076 92.6962 12.282C92.9214 12.1565 93.2227 12.0932 93.5995 12.0932C94.1018 12.0932 94.6033 12.2197 95.1056 12.47C95.6079 12.722 95.9716 13.2105 96.1977 13.9388C96.4237 14.6672 96.3856 15.5523 96.0851 16.5933C95.7837 17.6352 95.3628 18.7212 94.8232 19.8506C94.2837 20.9808 93.706 22.098 93.0911 23.2022C92.4753 24.3073 91.9618 25.2921 91.5469 26.1581C91.1329 27.025 90.8939 27.7153 90.8315 28.2297C90.7692 28.7451 91.0247 28.9772 91.6023 28.9261C91.8293 28.9018 92.1428 28.7 92.5455 28.3241C92.9465 27.9474 93.3864 27.4641 93.8628 26.8735C94.34 26.2846 94.8293 25.6255 95.3316 24.8971C95.8339 24.1688 96.3094 23.4413 96.7615 22.7129C97.2136 21.9846 97.6146 21.2943 97.967 20.6422C98.3178 19.9891 98.5698 19.4496 98.7205 19.0226C98.7959 18.8217 98.9206 18.6961 99.0964 18.6459C99.2713 18.5956 99.4359 18.5956 99.5866 18.6459C99.7382 18.6961 99.8568 18.7966 99.9443 18.9473C100.033 19.098 100.025 19.2616 99.9252 19.4366C99.7234 19.8644 99.435 20.4473 99.0592 21.1878C98.6824 21.9283 98.2373 22.719 97.7228 23.5599C97.2084 24.4017 96.6498 25.2488 96.047 26.1018C95.4442 26.9558 94.8232 27.7344 94.1832 28.4367C93.5432 29.14 92.8962 29.7168 92.2441 30.1689C91.5911 30.6209 90.9641 30.847 90.3613 30.847C89.859 30.8721 89.4259 30.7716 89.0622 30.5456C88.6976 30.3196 88.4031 29.9991 88.1771 29.5851C87.951 29.1712 87.8003 28.6688 87.725 28.079C87.6496 27.4893 87.6496 26.8553 87.725 26.1772C87.8254 25.1985 88.0636 24.1566 88.4403 23.0515C88.8162 21.9473 89.2319 20.8613 89.6831 19.7943C90.1352 18.7282 90.5743 17.7296 91.0013 16.8003C91.4274 15.8719 91.7409 15.0812 91.9418 14.4281C91.4144 14.6299 90.8186 14.7486 90.1543 14.7858C89.4891 14.8239 88.8292 14.7546 88.1771 14.5788C88.1017 14.7546 87.9701 15.0751 87.7813 15.5393C87.5933 16.0044 87.3863 16.5058 87.1603 17.0454C86.9343 17.5858 86.7082 18.1132 86.4822 18.6268C86.257 19.1421 86.0682 19.5371 85.9175 19.8133Z" fill="white"/>
<path d="M108.209 15.0673C108.209 14.8664 108.265 14.6793 108.379 14.5035C108.491 14.3277 108.636 14.177 108.812 14.0514C108.685 13.75 108.485 13.5984 108.209 13.5984C107.857 13.5742 107.468 13.7318 107.041 14.0704C106.614 14.4091 106.156 14.8984 105.666 15.5384C105.177 16.1793 104.669 16.97 104.141 17.9114C103.614 18.8529 103.088 19.9017 102.561 21.0553C102.234 21.7836 101.964 22.5674 101.751 23.4083C101.537 24.2502 101.417 25.053 101.392 25.8186C101.367 26.5842 101.443 27.2563 101.618 27.8339C101.793 28.4116 102.109 28.7875 102.561 28.9624C102.911 29.1131 103.281 29.0759 103.671 28.8498C104.059 28.6238 104.449 28.2722 104.838 27.795C105.227 27.3186 105.629 26.741 106.044 26.0628C106.458 25.3856 106.858 24.6771 107.248 23.9366C107.637 23.1962 108.014 22.4548 108.379 21.7135C108.742 20.973 109.086 20.2897 109.413 19.6626C109.765 18.8338 110.11 18.0483 110.449 17.3078C110.788 16.5673 111.07 15.903 111.296 15.3132C111.522 14.7235 111.673 14.2203 111.748 13.8063C111.823 13.3923 111.785 13.1091 111.635 12.9584C111.459 12.8077 111.542 12.6328 111.88 12.4319C112.219 12.2318 112.64 12.1175 113.142 12.0924C113.644 12.0681 114.164 12.1816 114.705 12.4319C115.244 12.6839 115.626 13.1845 115.852 13.9371C116.078 14.6663 116.042 15.5514 115.74 16.5924C115.439 17.6343 115.018 18.7195 114.479 19.8497C113.939 20.979 113.361 22.098 112.746 23.2022C112.132 24.3065 111.616 25.292 111.202 26.1581C110.788 27.0242 110.549 27.7144 110.486 28.228C110.424 28.7433 110.68 28.9754 111.259 28.9243C111.485 28.9001 111.798 28.7 112.2 28.3233C112.601 27.9465 113.042 27.4633 113.519 26.8726C113.995 26.2828 114.49 25.6246 115.005 24.8962C115.52 24.1688 115.998 23.4404 116.437 22.7129C116.876 21.9845 117.271 21.2943 117.622 20.6413C117.973 19.9891 118.224 19.4487 118.376 19.0209C118.451 18.8199 118.576 18.6952 118.752 18.6441C118.928 18.5948 119.09 18.5948 119.242 18.6441C119.393 18.6952 119.512 18.7957 119.6 18.9464C119.688 19.0962 119.682 19.2608 119.581 19.4357C119.38 19.8635 119.091 20.4464 118.715 21.186C118.339 21.9274 117.892 22.719 117.377 23.5599C116.863 24.4009 116.304 25.2479 115.701 26.1018C115.1 26.9557 114.479 27.7335 113.839 28.4359C113.199 29.1391 112.552 29.7159 111.899 30.168C111.246 30.6201 110.619 30.8452 110.016 30.8452C109.061 30.8963 108.346 30.5075 107.869 29.6787C107.392 28.8507 107.217 27.795 107.343 26.5149C106.866 27.2935 106.364 28.0037 105.836 28.6437C105.309 29.2837 104.738 29.7912 104.123 30.168C103.508 30.5447 102.854 30.7699 102.164 30.8452C101.474 30.9206 100.715 30.7838 99.8862 30.4321C98.8816 30.0303 98.1602 29.4396 97.7211 28.661C97.282 27.8833 97.0248 27.0363 96.9503 26.1191C96.8749 25.2037 96.9494 24.2502 97.1746 23.2577C97.4006 22.266 97.6769 21.3566 98.0034 20.5287C98.6062 18.9975 99.2774 17.6845 100.019 16.5924C100.759 15.5003 101.543 14.6091 102.372 13.9189C103.2 13.2286 104.053 12.7332 104.932 12.4319C105.81 12.1305 106.702 11.9936 107.605 12.0179C107.907 12.043 108.226 12.0984 108.566 12.1868C108.905 12.2742 109.22 12.4189 109.508 12.6198C109.797 12.8207 110.041 13.0901 110.242 13.4287C110.443 13.7682 110.544 14.1891 110.544 14.6905C110.544 15.2431 110.417 15.6207 110.166 15.8216C109.965 16.0468 109.701 16.1594 109.376 16.1594C109.074 16.1594 108.804 16.0607 108.566 15.8589C108.327 15.6579 108.209 15.3938 108.209 15.0673Z" fill="white"/>
<path d="M113.105 10.4755C113.081 10.8271 112.983 11.0593 112.811 11.1718C112.64 11.2853 112.45 11.2723 112.241 11.1346C112.033 10.9969 111.861 10.7327 111.726 10.3439C111.591 9.95502 111.548 9.43365 111.599 8.78064C111.697 7.72664 112.105 6.92293 112.821 6.37124C113.539 5.81956 114.468 5.44802 115.61 5.26008C116.752 5.07215 118.045 5.00286 119.488 5.05309C120.931 5.10333 122.43 5.20379 123.988 5.35362C124.415 4.22427 124.728 3.29585 124.93 2.56749C125.131 1.84 125.167 1.41303 125.042 1.28745C124.866 1.13675 124.948 0.960941 125.287 0.760016C125.626 0.559089 126.045 0.446499 126.548 0.421384C127.05 0.396269 127.571 0.509722 128.111 0.760016C128.65 1.01117 129.034 1.51349 129.26 2.2661C129.385 2.61859 129.397 3.09492 129.297 3.69684C129.197 4.29962 129.034 4.97775 128.808 5.73036C129.913 5.78146 131.016 5.78146 132.122 5.73036C133.226 5.68099 134.218 5.58659 135.097 5.44802C135.976 5.31118 136.684 5.12844 137.225 4.9024C137.764 4.67636 138.034 4.40008 138.034 4.07358C138.034 3.69684 138.147 3.50284 138.372 3.49072C138.598 3.47772 138.824 3.57213 139.05 3.77219C139.275 3.97398 139.432 4.23726 139.52 4.5629C139.608 4.89028 139.502 5.1908 139.201 5.46707C138.874 5.79358 138.353 6.1019 137.638 6.38943C136.922 6.6787 136.068 6.92986 135.078 7.14291C134.085 7.35596 132.988 7.53783 131.782 7.68853C130.577 7.84009 129.322 7.92756 128.017 7.95268C127.489 9.30807 126.854 10.7769 126.115 12.3583C125.374 13.9398 124.634 15.5152 123.893 17.0845C123.153 18.6538 122.437 20.1599 121.747 21.6036C121.056 23.0473 120.504 24.3144 120.09 25.4065C119.675 26.4986 119.425 27.3707 119.338 28.0237C119.249 28.6767 119.431 28.9781 119.883 28.927C120.134 28.9028 120.454 28.701 120.844 28.3251C121.232 27.9484 121.665 27.4651 122.143 26.8753C122.619 26.2855 123.109 25.6264 123.612 24.8981C124.113 24.1706 124.59 23.4422 125.042 22.7139C125.494 21.9864 125.896 21.2961 126.247 20.6431C126.598 19.9901 126.85 19.4505 127 19.0236C127.075 18.8227 127.201 18.6979 127.377 18.6468C127.551 18.5966 127.716 18.5966 127.866 18.6468C128.017 18.6979 128.135 18.7975 128.224 18.9482C128.311 19.0989 128.306 19.2626 128.205 19.4376C128.004 19.8654 127.717 20.4491 127.339 21.1887C126.963 21.9301 126.517 22.7208 126.003 23.5609C125.488 24.4027 124.929 25.2497 124.326 26.1028C123.724 26.9567 123.102 27.7353 122.462 28.4377C121.822 29.1409 121.175 29.7177 120.523 30.1698C119.87 30.6219 119.243 30.848 118.641 30.848C118.139 30.8731 117.706 30.7726 117.342 30.5466C116.979 30.3205 116.682 30.0001 116.456 29.5861C116.23 29.1721 116.08 28.6698 116.004 28.08C115.929 27.4902 115.929 26.8563 116.004 26.1781C116.105 25.4004 116.4 24.3022 116.889 22.8836C117.379 21.465 117.963 19.9087 118.641 18.2138C119.319 16.5198 120.04 14.7747 120.807 12.9802C121.572 11.1848 122.281 9.509 122.934 7.95268C121.628 7.95268 120.385 7.97087 119.205 8.00897C118.026 8.04621 116.99 8.15361 116.099 8.32855C115.207 8.50523 114.492 8.76158 113.953 9.10108C113.412 9.43971 113.131 9.89786 113.105 10.4755Z" fill="white"/>
<path d="M145.567 19.4331C145.366 19.8609 145.077 20.4438 144.701 21.1843C144.324 21.9248 143.878 22.7172 143.363 23.5573C142.848 24.3991 142.29 25.2461 141.688 26.0992C141.086 26.9531 140.464 27.7317 139.824 28.4341C139.184 29.1373 138.538 29.7141 137.885 30.1662C137.232 30.6183 136.604 30.8444 136.002 30.8444C135.5 30.8695 135.067 30.769 134.703 30.543C134.338 30.3169 134.044 29.9965 133.818 29.5825C133.592 29.1685 133.441 28.6653 133.366 28.0756C133.29 27.4858 133.29 26.8527 133.366 26.1745C133.366 26.0498 133.379 25.9294 133.404 25.8169C133.428 25.7043 133.454 25.5848 133.479 25.4583C133.002 26.1616 132.506 26.8336 131.991 27.4736C131.476 28.1137 130.956 28.6853 130.429 29.1876C129.901 29.6899 129.375 30.0909 128.846 30.3923C128.32 30.6937 127.818 30.8444 127.34 30.8444C126.839 30.8695 126.406 30.769 126.042 30.543C125.678 30.3169 125.383 29.9965 125.157 29.5825C124.931 29.1685 124.78 28.6653 124.705 28.0756C124.63 27.4858 124.63 26.8527 124.705 26.1745C124.805 25.3466 125 24.4675 125.289 23.5391C125.577 22.6098 125.911 21.6805 126.286 20.7512C126.663 19.8228 127.045 18.9256 127.435 18.0595C127.825 17.1935 128.162 16.4088 128.452 15.7064C128.74 15.0032 128.942 14.4125 129.054 13.9353C129.167 13.459 129.135 13.1333 128.96 12.9567C128.784 12.8068 128.866 12.631 129.204 12.4301C129.544 12.2292 129.964 12.1166 130.466 12.0906C130.968 12.0664 131.489 12.1798 132.029 12.4301C132.569 12.6813 132.952 13.1818 133.178 13.9353C133.404 14.6637 133.366 15.5488 133.064 16.5898C132.764 17.6317 132.342 18.7177 131.802 19.8479C131.263 20.9773 130.685 22.0954 130.07 23.1996C129.455 24.3047 128.942 25.2894 128.527 26.1555C128.113 27.0224 127.874 27.7127 127.812 28.2271C127.749 28.7424 128.006 28.9737 128.584 28.9226C128.885 28.8983 129.324 28.5848 129.901 27.982C130.478 27.3792 131.088 26.6336 131.728 25.7415C132.368 24.8503 132.995 23.9081 133.611 22.9164C134.226 21.9248 134.734 21.0396 135.136 20.2619C135.513 19.3829 135.882 18.5437 136.246 17.7391C136.61 16.9362 136.924 16.2018 137.188 15.5358C137.452 14.8707 137.634 14.3121 137.734 13.86C137.834 13.4079 137.796 13.1074 137.621 12.9567C137.445 12.8068 137.527 12.631 137.866 12.4301C138.204 12.2292 138.624 12.1166 139.127 12.0906C139.63 12.0664 140.149 12.1798 140.69 12.4301C141.229 12.6813 141.613 13.1818 141.838 13.9353C142.064 14.6637 142.027 15.5488 141.725 16.5898C141.424 17.6317 141.003 18.7177 140.464 19.8479C139.923 20.9773 139.347 22.0954 138.732 23.1996C138.116 24.3047 137.602 25.2894 137.188 26.1555C136.774 27.0224 136.535 27.7127 136.472 28.2271C136.41 28.7424 136.667 28.9737 137.245 28.9226C137.47 28.8983 137.784 28.6974 138.186 28.3215C138.587 27.9448 139.026 27.4606 139.504 26.87C139.981 26.2811 140.47 25.6229 140.972 24.8945C141.474 24.1661 141.952 23.4386 142.404 22.7103C142.855 21.9819 143.257 21.2925 143.609 20.6395C143.96 19.9865 144.211 19.4461 144.361 19.0191C144.436 18.8182 144.562 18.6935 144.738 18.6424C144.914 18.5921 145.077 18.5921 145.227 18.6424C145.378 18.6935 145.497 18.7939 145.585 18.9446C145.673 19.0953 145.666 19.2582 145.567 19.4331Z" fill="white"/>
<path d="M154.186 19.4382C153.986 19.866 153.698 20.4489 153.32 21.1894C152.944 21.9299 152.498 22.7215 151.984 23.5615C151.469 24.4034 150.911 25.2504 150.307 26.1034C149.705 26.9574 149.084 27.736 148.444 28.4384C147.804 29.1416 147.157 29.7184 146.505 30.1705C145.851 30.6226 145.224 30.8486 144.622 30.8486C144.12 30.8737 143.687 30.7733 143.323 30.5472C142.959 30.3212 142.663 30.0007 142.438 29.5868C142.212 29.1728 142.062 28.6705 141.986 28.0807C141.911 27.4909 141.911 26.8569 141.986 26.1788C142.087 25.3508 142.401 24.1834 142.928 22.6773C143.454 21.1703 144.082 19.5205 144.81 17.7251C145.539 15.9306 146.304 14.0972 147.107 12.2274C147.911 10.3575 148.632 8.63752 149.272 7.06821C149.912 5.49977 150.409 4.18768 150.76 3.13282C151.111 2.07882 151.199 1.46391 151.024 1.28724C150.848 1.13741 150.929 0.961595 151.269 0.760669C151.607 0.559742 152.027 0.447153 152.53 0.421172C153.032 0.396922 153.552 0.510376 154.093 0.760669C154.632 1.01183 155.015 1.51414 155.241 2.26675C155.416 2.8193 155.366 3.62907 155.091 4.69607C154.814 5.76306 154.406 6.97381 153.867 8.3292C153.326 9.68546 152.692 11.1482 151.966 12.7167C151.237 14.286 150.502 15.8362 149.763 17.3675C149.021 18.8987 148.319 20.3744 147.654 21.7922C146.988 23.2099 146.448 24.4536 146.034 25.5197C145.619 26.5876 145.381 27.4346 145.319 28.0616C145.256 28.6895 145.437 28.9788 145.865 28.9277C146.116 28.9034 146.436 28.7016 146.825 28.3258C147.214 27.949 147.647 27.4658 148.124 26.8751C148.601 26.2862 149.09 25.6271 149.593 24.8987C150.094 24.1704 150.571 23.4429 151.024 22.7145C151.476 21.9862 151.877 21.2968 152.228 20.6438C152.581 19.9908 152.832 19.4512 152.982 19.0242C153.057 18.8233 153.183 18.6986 153.358 18.6475C153.533 18.5973 153.698 18.5973 153.848 18.6475C153.999 18.6986 154.117 18.7982 154.205 18.9489C154.293 19.0996 154.287 19.2633 154.186 19.4382Z" fill="white"/>
<path d="M162.51 15.0673C162.51 14.8664 162.566 14.6793 162.68 14.5035C162.792 14.3277 162.937 14.177 163.113 14.0514C162.987 13.75 162.785 13.5984 162.51 13.5984C162.158 13.5742 161.769 13.7318 161.342 14.0704C160.915 14.4091 160.457 14.8984 159.967 15.5384C159.478 16.1793 158.969 16.97 158.443 17.9114C157.915 18.8529 157.388 19.9017 156.861 21.0553C156.535 21.7836 156.265 22.5674 156.052 23.4083C155.839 24.2502 155.718 25.053 155.693 25.8186C155.669 26.5842 155.744 27.2563 155.921 27.8339C156.096 28.4116 156.408 28.7875 156.861 28.9624C157.212 29.1131 157.583 29.0759 157.972 28.8498C158.361 28.6238 158.749 28.2722 159.138 27.795C159.528 27.3186 159.93 26.741 160.345 26.0628C160.76 25.3856 161.16 24.6771 161.55 23.9366C161.939 23.1962 162.315 22.4548 162.68 21.7135C163.043 20.973 163.388 20.2897 163.715 19.6626C164.065 18.8338 164.411 18.0483 164.75 17.3078C165.089 16.5673 165.371 15.903 165.597 15.3132C165.823 14.7235 165.973 14.2203 166.049 13.8063C166.124 13.3923 166.087 13.1091 165.936 12.9584C165.76 12.8077 165.843 12.6328 166.181 12.4319C166.521 12.2318 166.941 12.1175 167.443 12.0924C167.944 12.0681 168.465 12.1816 169.005 12.4319C169.544 12.6839 169.927 13.1845 170.153 13.9371C170.38 14.6663 170.343 15.5514 170.041 16.5924C169.741 17.6343 169.319 18.7195 168.779 19.8497C168.24 20.979 167.662 22.098 167.047 23.2022C166.432 24.3065 165.918 25.292 165.503 26.1581C165.089 27.0242 164.851 27.7144 164.788 28.228C164.725 28.7433 164.981 28.9754 165.559 28.9243C165.785 28.9001 166.1 28.7 166.501 28.3233C166.902 27.9465 167.343 27.4633 167.82 26.8726C168.297 26.2828 168.791 25.6246 169.307 24.8962C169.82 24.1688 170.298 23.4404 170.737 22.7129C171.177 21.9845 171.572 21.2943 171.923 20.6413C172.274 19.9891 172.525 19.4487 172.677 19.0209C172.752 18.8199 172.878 18.6952 173.053 18.6441C173.228 18.5948 173.391 18.5948 173.543 18.6441C173.693 18.6952 173.813 18.7957 173.901 18.9464C173.989 19.0962 173.983 19.2608 173.882 19.4357C173.68 19.8635 173.392 20.4464 173.016 21.186C172.639 21.9274 172.194 22.719 171.68 23.5599C171.164 24.4009 170.606 25.2479 170.002 26.1018C169.4 26.9557 168.778 27.7335 168.138 28.4359C167.499 29.1391 166.852 29.7159 166.2 30.168C165.546 30.6201 164.919 30.8452 164.316 30.8452C163.362 30.8963 162.647 30.5075 162.17 29.6787C161.693 28.8507 161.517 27.795 161.644 26.5149C161.167 27.2935 160.664 28.0037 160.137 28.6437C159.609 29.2837 159.039 29.7912 158.424 30.168C157.809 30.5447 157.155 30.7699 156.465 30.8452C155.775 30.9206 155.017 30.7838 154.189 30.4321C153.183 30.0303 152.461 29.4396 152.022 28.661C151.583 27.8833 151.326 27.0363 151.251 26.1191C151.176 25.2037 151.25 24.2502 151.476 23.2577C151.701 22.266 151.979 21.3566 152.304 20.5287C152.907 18.9975 153.578 17.6845 154.32 16.5924C155.06 15.5003 155.845 14.6091 156.673 13.9189C157.501 13.2286 158.354 12.7332 159.234 12.4319C160.111 12.1305 161.003 11.9936 161.907 12.0179C162.208 12.043 162.527 12.0984 162.867 12.1868C163.206 12.2742 163.52 12.4189 163.808 12.6198C164.097 12.8207 164.342 13.0901 164.543 13.4287C164.743 13.7682 164.845 14.1891 164.845 14.6905C164.845 15.2431 164.718 15.6207 164.467 15.8216C164.265 16.0468 164.003 16.1594 163.676 16.1594C163.375 16.1594 163.105 16.0607 162.867 15.8589C162.629 15.6579 162.51 15.3938 162.51 15.0673Z" fill="white"/>
<path d="M167.402 10.4755C167.377 10.8271 167.279 11.0593 167.107 11.1718C166.936 11.2853 166.747 11.2723 166.538 11.1346C166.33 10.9969 166.158 10.7327 166.023 10.3439C165.888 9.95502 165.845 9.43365 165.895 8.78064C165.993 7.72664 166.401 6.92293 167.117 6.37124C167.834 5.81956 168.763 5.44802 169.906 5.26008C171.049 5.07215 172.341 5.00286 173.784 5.05309C175.227 5.10333 176.727 5.20379 178.284 5.35362C178.711 4.22427 179.024 3.29585 179.225 2.56749C179.427 1.84 179.464 1.41303 179.338 1.28745C179.163 1.13675 179.245 0.960941 179.583 0.760016C179.922 0.559089 180.342 0.446499 180.845 0.421384C181.347 0.396269 181.867 0.509722 182.408 0.760016C182.947 1.01117 183.33 1.51349 183.556 2.2661C183.682 2.61859 183.694 3.09492 183.593 3.69684C183.493 4.29962 183.33 4.97775 183.104 5.73036C184.208 5.78146 185.313 5.78146 186.418 5.73036C187.522 5.68099 188.514 5.58659 189.393 5.44802C190.271 5.31118 190.981 5.12844 191.521 4.9024C192.06 4.67636 192.33 4.40008 192.33 4.07358C192.33 3.69684 192.443 3.50284 192.669 3.49072C192.895 3.47772 193.121 3.57213 193.347 3.77219C193.573 3.97398 193.729 4.23726 193.817 4.5629C193.906 4.89028 193.798 5.1908 193.498 5.46707C193.171 5.79358 192.65 6.1019 191.935 6.38943C191.219 6.6787 190.366 6.92986 189.374 7.14291C188.383 7.35596 187.284 7.53783 186.079 7.68853C184.874 7.84009 183.619 7.92756 182.313 7.95268C181.786 9.30807 181.152 10.7769 180.412 12.3583C179.671 13.9398 178.931 15.5152 178.19 17.0845C177.45 18.6538 176.733 20.1599 176.044 21.6036C175.353 23.0473 174.801 24.3144 174.386 25.4065C173.972 26.4986 173.721 27.3707 173.634 28.0237C173.545 28.6767 173.728 28.9781 174.179 28.927C174.43 28.9028 174.75 28.701 175.141 28.3251C175.529 27.9484 175.962 27.4651 176.44 26.8753C176.915 26.2855 177.405 25.6264 177.908 24.8981C178.409 24.1706 178.887 23.4422 179.338 22.7139C179.791 21.9864 180.192 21.2961 180.544 20.6431C180.895 19.9901 181.146 19.4505 181.297 19.0236C181.372 18.8227 181.497 18.6979 181.673 18.6468C181.849 18.5966 182.012 18.5966 182.163 18.6468C182.313 18.6979 182.432 18.7975 182.52 18.9482C182.609 19.0989 182.602 19.2626 182.502 19.4376C182.3 19.8654 182.012 20.4491 181.636 21.1887C181.259 21.9301 180.813 22.7208 180.299 23.5609C179.784 24.4027 179.225 25.2497 178.623 26.1028C178.021 26.9567 177.399 27.7353 176.759 28.4377C176.118 29.1409 175.472 29.7177 174.819 30.1698C174.167 30.6219 173.539 30.848 172.937 30.848C172.435 30.8731 172.002 30.7726 171.638 30.5466C171.275 30.3205 170.979 30.0001 170.753 29.5861C170.526 29.1721 170.376 28.6698 170.301 28.08C170.226 27.4902 170.226 26.8563 170.301 26.1781C170.402 25.4004 170.697 24.3022 171.186 22.8836C171.676 21.465 172.258 19.9087 172.937 18.2138C173.615 16.5198 174.336 14.7747 175.103 12.9802C175.867 11.1848 176.577 9.509 177.23 7.95268C175.924 7.95268 174.682 7.97087 173.502 8.00897C172.322 8.04621 171.287 8.15361 170.395 8.32855C169.504 8.50523 168.789 8.76158 168.249 9.10108C167.709 9.43971 167.427 9.89786 167.402 10.4755Z" fill="white"/>
<path d="M190.34 21.1895C189.963 21.93 189.517 22.7216 189.004 23.5617C188.488 24.4035 187.93 25.2505 187.327 26.1036C186.725 26.9575 186.103 27.7361 185.464 28.4385C184.823 29.1417 184.176 29.7185 183.524 30.1706C182.871 30.6227 182.244 30.8496 181.641 30.8496C181.14 30.8747 180.707 30.7743 180.342 30.5482C179.978 30.3222 179.683 30.0009 179.457 29.5869C179.231 29.1729 179.081 28.6706 179.006 28.0808C178.93 27.491 178.93 26.8579 179.006 26.1798C179.106 25.3518 179.301 24.4728 179.589 23.5444C179.878 22.6151 180.21 21.6858 180.586 20.7565C180.962 19.8281 181.346 18.9308 181.736 18.0648C182.124 17.1987 182.462 16.4132 182.751 15.7108C183.04 15.0076 183.242 14.4178 183.354 13.9406C183.468 13.4642 183.436 13.1386 183.261 12.9619C183.085 12.8121 183.166 12.6363 183.505 12.4353C183.844 12.2344 184.264 12.1218 184.767 12.0958C185.268 12.0716 185.79 12.1851 186.33 12.4353C186.87 12.6865 187.251 13.1871 187.478 13.9406C187.704 14.6689 187.666 15.554 187.365 16.5951C187.064 17.6369 186.643 18.723 186.103 19.8523C185.564 20.9825 184.986 22.1006 184.371 23.2049C183.756 24.31 183.242 25.2938 182.828 26.1599C182.413 27.0268 182.175 27.717 182.112 28.2315C182.049 28.7468 182.306 28.9789 182.884 28.9278C183.134 28.9036 183.455 28.7026 183.844 28.3268C184.233 27.95 184.666 27.4659 185.144 26.8752C185.62 26.2863 186.108 25.6281 186.612 24.8997C187.113 24.1714 187.59 23.4439 188.041 22.7155C188.494 21.9872 188.895 21.296 189.247 20.6439C189.599 19.9909 189.851 19.4513 190.001 19.0244C190.077 18.8234 190.201 18.6979 190.378 18.6476C190.553 18.5974 190.717 18.5974 190.867 18.6476C191.018 18.6979 191.137 18.7983 191.225 18.949C191.313 19.0997 191.306 19.2634 191.206 19.4383C191.004 19.8662 190.717 20.449 190.34 21.1895ZM188.702 9.45955C188.839 9.15816 188.99 8.85677 189.153 8.55624C189.317 8.25399 189.468 7.96645 189.605 7.69018C189.743 7.41477 189.812 7.19999 189.812 7.04929C189.812 6.42226 189.623 5.90782 189.247 5.50683C188.87 5.10498 188.451 4.80359 187.987 4.60266C187.522 4.40173 187.101 4.30127 186.725 4.30127C186.348 4.30127 186.159 4.38874 186.159 4.56369C186.159 4.71438 186.085 4.92917 185.934 5.20457C185.784 5.48172 185.615 5.78224 185.426 6.10788C185.237 6.43439 185.067 6.74184 184.917 7.03024C184.766 7.3195 184.691 7.55161 184.691 7.72742C184.691 8.35532 184.892 8.87582 185.293 9.2898C185.695 9.70378 186.128 10.006 186.592 10.1948C187.058 10.3828 187.491 10.4763 187.892 10.4763C188.293 10.4763 188.495 10.3758 188.495 10.1749C188.495 9.99997 188.564 9.76094 188.702 9.45955Z" fill="white"/>
<path d="M201.977 14.7312C201.977 15.1331 201.902 15.4224 201.751 15.5973C201.55 15.974 201.237 16.162 200.81 16.162C200.509 16.162 200.238 16.0632 200.001 15.8623C199.761 15.6614 199.643 15.3981 199.643 15.0716C199.643 14.8707 199.699 14.681 199.812 14.5052C199.926 14.3303 200.069 14.1804 200.245 14.0548C200.044 13.7032 199.812 13.5265 199.548 13.5265C199.286 13.5265 199.002 13.6331 198.702 13.847C198.4 14.06 198.093 14.3493 197.779 14.7131C197.464 15.0768 197.158 15.4475 196.856 15.8242C196.33 16.5023 195.821 17.2861 195.331 18.1773C194.842 19.0685 194.409 19.9848 194.032 20.9262C193.656 21.8676 193.354 22.7978 193.128 23.7132C192.902 24.6304 192.783 25.4644 192.77 26.2179C192.757 26.9705 192.865 27.5914 193.091 28.0808C193.317 28.5701 193.693 28.8654 194.22 28.9659C194.598 29.0412 195.017 28.8723 195.482 28.4584C195.946 28.0444 196.41 27.51 196.874 26.857C197.339 26.2049 197.791 25.4956 198.231 24.7291C198.67 23.9635 199.053 23.255 199.379 22.6012C198.852 22.376 198.488 22.0062 198.287 21.4917C198.086 20.9773 198.024 20.4551 198.098 19.9276C198.173 19.4011 198.375 18.9377 198.702 18.5359C199.027 18.134 199.441 17.9322 199.944 17.9322C200.119 17.9322 200.345 17.9461 200.622 17.9712C200.898 17.9963 201.135 18.1271 201.337 18.3652C201.538 18.6043 201.651 18.9871 201.676 19.5136C201.701 20.0411 201.562 20.8075 201.262 21.8105C202.266 21.7862 203.069 21.6476 203.672 21.3965C204.274 21.1462 204.745 20.8699 205.084 20.5694C205.423 20.268 205.648 19.9727 205.762 19.6843C205.875 19.3959 205.956 19.2123 206.006 19.1369C206.082 18.962 206.201 18.8554 206.364 18.8182C206.528 18.7801 206.685 18.7991 206.835 18.8745C206.986 18.9498 207.098 19.0685 207.174 19.2313C207.25 19.395 207.25 19.5777 207.174 19.7787C206.974 20.255 206.659 20.695 206.232 21.0959C205.805 21.4978 205.311 21.8364 204.745 22.1118C204.181 22.389 203.553 22.602 202.862 22.7536C202.172 22.9043 201.475 22.9658 200.772 22.9407C200.42 23.7193 199.975 24.5853 199.435 25.5389C198.895 26.4933 198.275 27.3784 197.572 28.1933C196.869 29.01 196.097 29.6812 195.256 30.2087C194.415 30.7352 193.517 30.9613 192.563 30.8859C191.308 30.7612 190.323 30.2347 189.607 29.3054C188.892 28.377 188.509 27.2467 188.459 25.9156C188.434 24.9118 188.534 23.8639 188.759 22.7718C188.986 21.6797 189.325 20.6058 189.777 19.5518C190.229 18.4969 190.78 17.4992 191.434 16.5578C192.086 15.6164 192.82 14.7953 193.636 14.0921C194.452 13.3897 195.343 12.8493 196.31 12.4734C197.276 12.0967 198.287 11.9339 199.342 11.9832C199.818 12.0083 200.214 12.1149 200.527 12.3028C200.841 12.4907 201.098 12.7168 201.3 12.9809C201.5 13.2442 201.651 13.5326 201.751 13.847C201.851 14.1605 201.926 14.4558 201.977 14.7312Z" fill="white"/>
<path d="M220.496 16.7604C220.445 17.6144 220.257 18.5116 219.932 19.453C219.605 20.3944 219.234 21.3177 218.82 22.2218C218.406 23.1251 217.992 23.9852 217.578 24.801C217.163 25.6177 216.843 26.3261 216.617 26.9289C216.392 27.5317 216.297 28.0141 216.335 28.3778C216.372 28.7416 216.642 28.9234 217.145 28.9234C217.371 28.9234 217.684 28.7416 218.086 28.3778C218.488 28.0141 218.927 27.5377 219.404 26.9471C219.88 26.3582 220.377 25.6922 220.891 24.9508C221.406 24.2112 221.889 23.4759 222.341 22.7484C222.793 22.0201 223.194 21.3237 223.546 20.6577C223.898 19.9926 224.149 19.447 224.3 19.02C224.375 18.8191 224.5 18.6935 224.676 18.6433C224.851 18.593 225.015 18.593 225.166 18.6433C225.316 18.6935 225.435 18.794 225.524 18.9447C225.61 19.0954 225.604 19.259 225.504 19.434C225.304 19.8618 225.015 20.4447 224.638 21.1852C224.262 21.9256 223.816 22.7172 223.301 23.5582C222.787 24.4 222.228 25.247 221.626 26.1001C221.023 26.954 220.402 27.7317 219.762 28.4341C219.122 29.1374 218.475 29.7142 217.823 30.1663C217.169 30.6183 216.543 30.8452 215.939 30.8452C215.437 30.8704 215.011 30.7508 214.66 30.4876C214.307 30.2234 214.019 29.8649 213.794 29.4128C213.567 28.9616 213.41 28.4532 213.323 27.8894C213.234 27.3238 213.228 26.7531 213.304 26.1754C213.429 25.1465 213.667 24.1298 214.019 23.1251C214.371 22.1214 214.753 21.1609 215.168 20.2438C215.581 19.3275 215.99 18.4865 216.392 17.7209C216.793 16.9553 217.093 16.291 217.295 15.7255C217.496 15.1608 217.565 14.7278 217.502 14.4264C217.44 14.1259 217.145 13.9873 216.617 14.0124C216.341 14.0375 215.952 14.2558 215.451 14.6706C214.948 15.0846 214.402 15.6129 213.812 16.2529C213.222 16.893 212.625 17.5962 212.024 18.3618C211.421 19.1274 210.88 19.8627 210.405 20.5651C209.927 21.5437 209.431 22.5172 208.917 23.4828C208.402 24.4494 207.943 25.3596 207.542 26.2127C207.141 27.0657 206.845 27.8192 206.657 28.4714C206.469 29.1244 206.463 29.6276 206.638 29.9792C206.738 30.1801 206.657 30.3862 206.394 30.5993C206.13 30.8132 205.791 30.9249 205.377 30.9388C204.962 30.9509 204.536 30.8193 204.096 30.543C203.658 30.2667 203.325 29.7523 203.099 28.9988C202.899 28.3969 202.91 27.6062 203.136 26.6275C203.363 25.648 203.689 24.6001 204.115 23.4828C204.542 22.3665 205.02 21.2233 205.546 20.0567C206.074 18.8892 206.55 17.8144 206.978 16.8358C207.404 15.8571 207.717 15.0162 207.919 14.3129C208.119 13.6106 208.119 13.1585 207.919 12.9567C207.743 12.8069 207.825 12.631 208.163 12.4301C208.502 12.2292 208.929 12.1166 209.444 12.0906C209.958 12.0664 210.48 12.179 211.007 12.4301C211.533 12.6813 211.91 13.1836 212.137 13.9371C212.237 14.2636 212.274 14.6213 212.25 15.0101C212.224 15.3999 212.161 15.8078 212.062 16.2339C212.538 15.6822 213.021 15.1548 213.511 14.6516C214 14.1493 214.495 13.711 214.998 13.3343C215.5 12.9576 215.99 12.6562 216.467 12.4301C216.943 12.2041 217.409 12.0906 217.86 12.0906C218.839 12.0664 219.567 12.4925 220.045 13.3715C220.52 14.2506 220.671 15.3799 220.496 16.7604Z" fill="white"/>
<path d="M228.785 30.0605L228.747 30.0977C228.193 30.3748 227.667 30.5879 227.165 30.7386C226.662 30.8893 226.236 30.9638 225.884 30.9638C224.88 30.9638 224.11 30.7074 223.57 30.1921C223.03 29.6785 222.672 29.0688 222.496 28.3656C222.32 27.6632 222.294 26.9599 222.42 26.2567C222.546 25.5543 222.785 25.0139 223.137 24.638C223.639 24.1106 224.091 23.7598 224.492 23.5832C224.893 23.4082 225.232 23.345 225.509 23.3952C225.785 23.4203 226.041 23.5329 226.279 23.7339C226.518 23.9357 226.637 24.1859 226.637 24.4873C226.637 24.8138 226.518 25.0901 226.279 25.3153C226.041 25.5413 225.772 25.6548 225.471 25.6548C225.245 25.6548 225.031 25.5855 224.831 25.4478C224.629 25.3101 224.491 25.1274 224.415 24.9013C224.09 25.278 223.865 25.7301 223.739 26.2567C223.613 26.7841 223.587 27.2865 223.663 27.7637C223.738 28.24 223.932 28.6488 224.246 28.9874C224.56 29.326 224.993 29.5088 225.546 29.533C225.746 29.533 226.035 29.4395 226.412 29.2507C226.788 29.0628 227.17 28.7492 227.56 28.3093C227.949 27.8702 228.294 27.3055 228.595 26.6144C228.897 25.925 229.08 25.0901 229.142 24.1106C229.205 23.1319 229.098 21.9896 228.823 20.6836C228.546 19.3793 228.018 17.9104 227.241 16.2779C226.99 16.7551 226.708 17.2756 226.393 17.8412C226.079 18.4058 225.796 18.9393 225.546 19.4408C225.419 19.6166 225.269 19.7179 225.094 19.7422C224.919 19.7681 224.756 19.7491 224.605 19.6859C224.454 19.6235 224.347 19.5231 224.285 19.3845C224.222 19.2468 224.241 19.09 224.341 18.9142C224.543 18.4872 224.729 18.1044 224.905 17.7658C225.081 17.4263 225.257 17.1059 225.433 16.8053C225.609 16.504 225.772 16.1965 225.922 15.8821C226.073 15.5695 226.236 15.2369 226.412 14.8853C226.135 14.4834 225.921 14.0435 225.771 13.5671C225.621 13.0899 225.546 12.5876 225.546 12.0602C225.546 11.835 225.591 11.5518 225.678 11.2132C225.766 10.8745 225.916 10.5359 226.13 10.1964C226.343 9.85777 226.637 9.56937 227.014 9.33034C227.391 9.09217 227.88 8.97266 228.482 8.97266C229.109 8.97266 229.568 9.11123 229.858 9.38663C230.146 9.66378 230.304 10.0145 230.329 10.4415C230.354 10.8685 230.266 11.3387 230.066 11.8532C229.864 12.3685 229.6 12.8769 229.274 13.3783L229.161 13.6044C230.14 14.7337 230.924 15.8137 231.514 16.8426C232.103 17.8723 232.549 18.8519 232.851 19.7803C233.152 20.7096 233.322 21.5756 233.36 22.3785C233.397 23.1822 233.328 23.9357 233.153 24.638C233.981 23.6845 234.721 22.7422 235.375 21.8138C236.027 20.8854 236.566 20.0063 236.994 19.1775C237.069 19.0017 237.181 18.883 237.332 18.8198C237.483 18.7575 237.671 18.7886 237.897 18.9142C238.072 19.0147 238.181 19.1532 238.218 19.3282C238.256 19.504 238.235 19.6677 238.16 19.8175C237.558 21.0482 236.862 22.2027 236.071 23.2818C235.28 24.3618 234.408 25.4417 233.454 26.5209C232.776 27.2735 232.067 27.9516 231.327 28.5544C230.586 29.1572 229.75 29.6595 228.823 30.0605H228.785Z" fill="white"/>
</svg>
