<svg width="247" height="40" viewBox="0 0 247 40" fill="none" xmlns="http://www.w3.org/2000/svg">
<path d="M32.4924 17.6545C32.7009 17.7253 32.8303 17.8489 32.8833 18.0263C32.9355 18.2028 32.8959 18.3858 32.7656 18.5737C32.2974 19.4228 31.7887 20.2834 31.2423 21.1561C30.695 22.0281 30.1342 22.8829 29.5617 23.7199C28.9884 24.5568 28.415 25.3588 27.8425 26.125C27.2691 26.8912 26.7093 27.5924 26.1628 28.2284C24.156 30.61 22.0989 32.5792 19.9879 34.1352C18.008 35.5732 16.0543 36.6111 14.1265 37.2471C13.4498 37.5066 12.7399 37.6953 11.9975 37.8132C11.2552 37.9312 10.5317 37.9897 9.82896 37.9897C8.99497 37.9897 8.17355 37.8954 7.36652 37.7067C6.55949 37.518 5.81626 37.2235 5.13954 36.8226C3.94067 36.1865 2.99075 35.3609 2.28707 34.3474C1.58338 33.3332 1.0891 32.231 0.802412 31.0411C0.515726 29.8495 0.418667 28.6066 0.509435 27.3093C0.601102 26.0128 0.828474 24.7634 1.19245 23.5605C1.84401 21.4864 2.56027 19.5587 3.34214 17.7782C4.12401 15.9985 5.0281 14.336 6.05801 12.7914C7.08613 11.2484 8.25174 9.78594 9.55576 8.40646C10.8571 7.02697 12.3426 5.70117 14.0097 4.42742C14.557 4.00365 15.2796 3.57907 16.1783 3.15449C17.077 2.72991 18.0539 2.41188 19.1089 2.19959C20.164 1.9873 21.2389 1.95232 22.3326 2.09385C23.4272 2.23456 24.4427 2.67135 25.381 3.40257C26.1098 3.96787 26.6958 4.78775 27.1388 5.86059C27.5819 6.93343 27.8039 8.08843 27.8039 9.32557C27.8039 10.5635 27.5495 11.8137 27.0418 13.0744C26.5331 14.336 25.7063 15.4267 24.5605 16.3458C24.1956 16.6289 23.713 16.7297 23.1145 16.6468C22.515 16.5646 21.9614 16.3873 21.4537 16.1164C20.9459 15.8456 20.5747 15.5267 20.3402 15.1615C20.1056 14.7963 20.1838 14.4718 20.5747 14.1887C21.3036 13.6706 21.9479 12.998 22.5087 12.1732C23.0686 11.3476 23.5054 10.4871 23.8181 9.59073C24.13 8.69521 24.2989 7.82896 24.3259 6.992C24.3511 6.15503 24.2082 5.46529 23.8963 4.92277C23.6087 4.47541 23.1396 4.30379 22.489 4.41034C21.8383 4.51608 21.0627 4.85851 20.164 5.43601C19.2653 6.01351 18.2947 6.79679 17.2531 7.78748C16.2106 8.77736 15.169 9.93316 14.1265 11.2533C13.3456 12.244 12.6158 13.3111 11.9382 14.4539C11.2606 15.5975 10.6558 16.7297 10.1219 17.8489C9.58721 18.969 9.11899 20.0475 8.71457 21.0854C8.31106 22.1232 7.99202 23.0423 7.75746 23.8435C7.28923 25.3995 7.05467 26.8498 7.05467 28.1934C7.05467 29.5371 7.2425 30.7222 7.62085 31.7479C7.99831 32.7736 8.55191 33.6105 9.28165 34.2588C10.0105 34.9071 10.8706 35.308 11.86 35.4618C12.8504 35.6147 13.9513 35.5024 15.1627 35.125C16.3733 34.7476 17.6692 34.0522 19.0505 33.0387C20.0921 32.2611 21.1535 31.3412 22.2346 30.2798C23.3158 29.2191 24.3843 28.0462 25.4394 26.7611C26.4945 25.4768 27.5235 24.0973 28.5264 22.6234C29.5285 21.1504 30.4865 19.6115 31.3987 18.0084C31.6584 17.5838 32.0242 17.4666 32.4924 17.6545Z" fill="black"/>
<path d="M44.0211 13.4415C44.0211 13.8189 43.9429 14.0905 43.7865 14.2548C43.578 14.6087 43.2527 14.7852 42.8096 14.7852C42.4969 14.7852 42.2165 14.6924 41.9693 14.5037C41.7213 14.315 41.5982 14.0678 41.5982 13.7611C41.5982 13.5724 41.6575 13.3943 41.7743 13.2292C41.8911 13.0649 42.0412 12.9242 42.2237 12.8062C42.0152 12.476 41.7752 12.3101 41.5011 12.3101C41.2279 12.3101 40.934 12.4101 40.6213 12.611C40.3085 12.8111 39.9895 13.0828 39.6642 13.4244C39.3379 13.766 39.0207 14.1141 38.7079 14.4679C38.1606 15.1048 37.6331 15.8409 37.1253 16.6779C36.6176 17.5149 36.1682 18.3754 35.7773 19.2595C35.3863 20.1437 35.0727 21.0172 34.8381 21.877C34.6036 22.7383 34.4805 23.5216 34.4679 24.2293C34.4544 24.9361 34.5649 25.5193 34.7995 25.9788C35.0341 26.4384 35.425 26.7158 35.9714 26.8101C36.3623 26.8809 36.7982 26.7223 37.2808 26.3335C37.7625 25.9447 38.2442 25.4428 38.7259 24.8295C39.2085 24.2171 39.6767 23.5509 40.1333 22.8311C40.5889 22.1121 40.9862 21.4467 41.325 20.8326C40.7777 20.6211 40.4002 20.2738 40.1917 19.7907C39.9832 19.3075 39.9185 18.8171 39.9958 18.3217C40.074 17.8272 40.2825 17.392 40.6213 17.0146C40.9601 16.6372 41.3897 16.4477 41.9109 16.4477C42.0925 16.4477 42.327 16.4607 42.6146 16.4843C42.9004 16.5079 43.1475 16.6307 43.3569 16.8544C43.5654 17.0789 43.6823 17.4384 43.7083 17.9329C43.7344 18.4283 43.5906 19.1481 43.2787 20.09C44.3203 20.0672 45.1543 19.9371 45.7798 19.7012C46.4044 19.4661 46.8942 19.2067 47.2456 18.9244C47.5979 18.6414 47.8307 18.364 47.9484 18.0932C48.0652 17.8223 48.1497 17.6499 48.2018 17.5791C48.28 17.4148 48.4031 17.3148 48.573 17.2798C48.7419 17.244 48.9055 17.2619 49.0619 17.3327C49.2183 17.4034 49.3351 17.5149 49.4133 17.6678C49.4915 17.8215 49.4915 17.9931 49.4133 18.1818C49.2048 18.6292 48.8794 19.0424 48.4364 19.419C47.9933 19.7964 47.4793 20.1144 46.8933 20.3731C46.3065 20.6333 45.6567 20.8334 44.9404 20.9758C44.2233 21.1173 43.4998 21.175 42.7701 21.1515C42.4052 21.8827 41.9433 22.6961 41.3834 23.5916C40.8226 24.4879 40.1782 25.3192 39.4494 26.0846C38.7196 26.8516 37.918 27.482 37.0462 27.9773C36.1727 28.4718 35.2426 28.6841 34.2531 28.6134C32.95 28.4962 31.9272 28.0017 31.1849 27.129C30.4426 26.257 30.0463 25.1956 29.9941 23.9454C29.9681 23.0027 30.0723 22.0185 30.306 20.9928C30.5415 19.9672 30.8919 18.9586 31.3611 17.9687C31.8293 16.978 32.4027 16.041 33.0812 15.1569C33.7579 14.2727 34.52 13.5017 35.3666 12.8412C36.2132 12.1815 37.137 11.674 38.14 11.321C39.1429 10.9672 40.1917 10.8143 41.2863 10.8606C41.7806 10.8842 42.1913 10.9843 42.5175 11.1608C42.8429 11.3373 43.1089 11.5496 43.3174 11.7976C43.5259 12.0449 43.6823 12.3158 43.7865 12.611C43.8899 12.9055 43.968 13.1828 44.0211 13.4415Z" fill="black"/>
<path d="M63.2475 15.3512C63.1945 16.1531 62.9994 16.9958 62.6615 17.8799C62.3227 18.7641 61.9372 19.6311 61.5076 20.4803C61.078 21.3286 60.6484 22.1363 60.2189 22.9025C59.7893 23.6695 59.4577 24.3349 59.2222 24.901C58.9885 25.4671 58.8897 25.9202 58.9283 26.2618C58.9679 26.6034 59.2483 26.7742 59.7695 26.7742C60.0041 26.7742 60.3294 26.6034 60.7464 26.2618C61.1634 25.9202 61.619 25.4728 62.1142 24.9181C62.6094 24.365 63.1226 23.7395 63.6573 23.0432C64.1902 22.3486 64.6935 21.6581 65.1617 20.9748C65.6308 20.2908 66.0478 19.6368 66.4127 19.0113C66.7776 18.3867 67.0382 17.8742 67.1946 17.4732C67.2728 17.2845 67.4022 17.1666 67.5846 17.1194C67.7671 17.0723 67.9369 17.0723 68.0933 17.1194C68.2488 17.1666 68.3728 17.261 68.4644 17.4025C68.5552 17.544 68.548 17.6977 68.4447 17.862C68.2362 18.2638 67.9369 18.8112 67.546 19.5067C67.155 20.2021 66.6922 20.9455 66.1584 21.7353C65.6245 22.5259 65.0449 23.3214 64.4203 24.1226C63.7948 24.9246 63.1495 25.655 62.4854 26.3146C61.8212 26.9751 61.1508 27.5168 60.4732 27.9414C59.7956 28.366 59.1449 28.5791 58.5194 28.5791C57.9982 28.6027 57.5542 28.4904 57.1902 28.2432C56.8245 27.9951 56.5252 27.6583 56.2915 27.2338C56.057 26.81 55.8934 26.3325 55.8027 25.803C55.711 25.2719 55.7047 24.7359 55.7829 24.1934C55.9132 23.2271 56.1603 22.2722 56.5252 21.3286C56.8901 20.3859 57.2873 19.4839 57.7178 18.6225C58.1474 17.762 58.5706 16.9722 58.9876 16.2532C59.4037 15.5342 59.7165 14.9103 59.925 14.3792C60.1335 13.8488 60.2054 13.4422 60.1407 13.1591C60.076 12.8769 59.7695 12.7467 59.2222 12.7703C58.9355 12.7939 58.532 12.9989 58.0117 13.3885C57.4904 13.7773 56.9224 14.2734 56.3104 14.8745C55.6984 15.4756 55.0801 16.1361 54.4546 16.8551C53.8291 17.5741 53.2701 18.2647 52.7758 18.9243C52.2797 19.8434 51.7657 20.7577 51.2319 21.6646C50.698 22.5723 50.2208 23.4272 49.8047 24.2283C49.3877 25.0295 49.0822 25.7371 48.8863 26.3496C48.6912 26.9629 48.684 27.4355 48.8674 27.7657C48.9707 27.9544 48.8863 28.148 48.613 28.3481C48.3398 28.549 47.9876 28.6539 47.558 28.6669C47.1275 28.6783 46.6853 28.5547 46.2288 28.2952C45.7741 28.0357 45.4281 27.5526 45.1935 26.845C44.9859 26.2797 44.9985 25.5371 45.233 24.6179C45.4676 23.698 45.8064 22.7138 46.2486 21.6646C46.6925 20.6161 47.1877 19.5425 47.7341 18.4469C48.2814 17.3504 48.7757 16.341 49.2197 15.4219C49.6618 14.5028 49.9872 13.713 50.1957 13.0526C50.4033 12.3929 50.4033 11.9683 50.1957 11.7788C50.0123 11.6381 50.0977 11.473 50.4491 11.2843C50.8014 11.0956 51.2435 10.9898 51.7783 10.9654C52.3121 10.9427 52.8531 11.0484 53.3995 11.2843C53.9468 11.5202 54.3369 11.9919 54.5723 12.6995C54.6757 13.0062 54.7143 13.3421 54.6892 13.7073C54.6631 14.0733 54.5975 14.4564 54.4941 14.8566C54.9884 14.3385 55.4899 13.8432 55.9986 13.3706C56.5063 12.8988 57.0213 12.4873 57.5425 12.1334C58.0629 11.7796 58.5715 11.4966 59.0667 11.2843C59.561 11.072 60.0427 10.9654 60.5118 10.9654C61.5274 10.9427 62.2832 11.3428 62.7793 12.1684C63.2735 12.994 63.4299 14.0546 63.2475 15.3512Z" fill="black"/>
<path d="M77.0814 13.7644C77.0814 13.5757 77.1398 13.3992 77.2566 13.2341C77.3743 13.069 77.5235 12.9274 77.706 12.8095C77.5757 12.5265 77.3672 12.3849 77.0814 12.3849C76.7156 12.3621 76.3121 12.5094 75.869 12.8274C75.426 13.1454 74.9506 13.605 74.4428 14.2069C73.935 14.808 73.4075 15.5506 72.8611 16.4347C72.3138 17.3189 71.7674 18.3039 71.22 19.3873C70.8812 20.0721 70.6008 20.8082 70.3798 21.598C70.1578 22.3886 70.0338 23.1426 70.0077 23.8617C69.9825 24.5815 70.0598 25.211 70.2423 25.7536C70.4238 26.2961 70.7509 26.6499 71.22 26.815C71.7925 27.0265 72.4045 26.8321 73.0561 26.231C73.7067 25.6299 74.3583 24.8345 75.0099 23.8438C75.6614 22.8539 76.2932 21.7867 76.9052 20.6431C77.5163 19.4995 78.0834 18.4917 78.6047 17.619C78.6047 17.549 78.6181 17.5019 78.6442 17.4783C79.3479 15.9695 79.888 14.6843 80.2655 13.6229C80.6429 12.5622 80.7265 11.9026 80.5189 11.6423C80.3877 11.5008 80.5063 11.3365 80.8712 11.147C81.2361 10.9591 81.6917 10.8533 82.239 10.8289C82.7863 10.8062 83.3255 10.9241 83.8603 11.1828C84.3932 11.4422 84.7778 11.9376 85.0124 12.668C85.1427 13.069 85.078 13.7115 84.8174 14.5957C84.5568 15.4798 84.1919 16.4762 83.7228 17.584C83.2536 18.6927 82.7207 19.8533 82.1213 21.0677C81.5219 22.2821 80.9494 23.4257 80.4021 24.4977C79.8557 25.5714 79.3722 26.5084 78.9561 27.3096C78.5391 28.1115 78.2793 28.6654 78.1751 28.9713C79.1124 28.406 80.0902 27.6105 81.1058 26.5848C82.1213 25.5592 83.0721 24.4863 83.9582 23.3663C84.8434 22.2463 85.6253 21.1564 86.3029 20.0949C86.9797 19.0343 87.4479 18.1851 87.7085 17.549C87.7867 17.3368 87.9179 17.2009 88.1003 17.1424C88.2819 17.083 88.4508 17.0773 88.6072 17.1245C88.7636 17.1716 88.8876 17.266 88.9793 17.4075C89.07 17.549 89.0772 17.7028 88.999 17.8671C88.3996 19.0692 87.651 20.3373 86.7523 21.6688C85.8536 23.0011 84.8695 24.2805 83.8019 25.5063C82.7333 26.7321 81.6135 27.835 80.4416 28.8127C79.2697 29.7903 78.123 30.5395 77.0032 31.0584C76.8468 31.4122 76.6374 31.8661 76.3777 32.42C76.1171 32.9739 75.8493 33.5343 75.576 34.0996C75.3019 34.6657 75.0548 35.196 74.8346 35.6914C74.6126 36.1867 74.4491 36.5519 74.3457 36.7878C74.0851 37.4475 73.6744 38.0079 73.1145 38.4674C72.5528 38.927 71.9228 39.2808 71.22 39.5281C70.5164 39.7762 69.7866 39.9177 69.0317 39.9527C68.2759 39.9885 67.5722 39.9177 66.9216 39.7412C66.27 39.5639 65.7038 39.2686 65.2212 38.8562C64.7395 38.4439 64.434 37.9192 64.3036 37.2832C64.2776 37.0709 64.3099 36.8171 64.4007 36.5227C64.4924 36.2274 64.7206 35.9151 65.0846 35.5848C65.5016 35.2074 66.0031 34.8658 66.589 34.56C67.175 34.2533 67.7861 33.9581 68.4251 33.6758C69.0632 33.3928 69.6896 33.104 70.3016 32.8088C70.9127 32.5135 71.4411 32.1906 71.8842 31.836C72.1439 31.1763 72.4495 30.4451 72.8009 29.6439C73.1531 28.842 73.5378 28.005 73.9548 27.1331C73.199 27.7935 72.3722 28.2352 71.4735 28.4589C70.5748 28.6833 69.5637 28.5955 68.4449 28.1937C67.4024 27.8171 66.6546 27.2624 66.1981 26.5312C65.7425 25.8016 65.4755 25.0053 65.3974 24.1439C65.3192 23.2842 65.3974 22.3886 65.6319 21.4565C65.8665 20.5252 66.1523 19.6703 66.4902 18.8927C67.1157 17.4547 67.8131 16.2224 68.5824 15.1968C69.3507 14.1711 70.165 13.3341 71.0241 12.6859C71.8842 12.0376 72.7694 11.5715 73.6816 11.2885C74.5929 11.0063 75.5176 10.8769 76.4559 10.8997C76.7686 10.9241 77.1002 10.9762 77.4525 11.0591C77.8039 11.1421 78.1293 11.2771 78.4294 11.4658C78.7287 11.6545 78.9821 11.9075 79.1906 12.2263C79.3991 12.5443 79.5034 12.9396 79.5034 13.4106C79.5034 13.8832 79.3865 14.224 79.152 14.4363C78.9435 14.6721 78.6568 14.7901 78.2919 14.7901C77.9801 14.7901 77.6997 14.6965 77.4525 14.507C77.2045 14.3183 77.0814 14.0711 77.0814 13.7644ZM71.3369 33.4278C70.9459 33.7108 70.5029 33.9581 70.0077 34.1704C69.5134 34.3827 69.0182 34.595 68.5239 34.8073C68.0279 35.0195 67.5524 35.2546 67.0968 35.5141C66.6412 35.7735 66.27 36.0802 65.9833 36.434C65.8018 36.6691 65.729 36.9293 65.7676 37.2124C65.8072 37.4946 65.9249 37.7484 66.1199 37.9721C66.3158 38.1966 66.563 38.3674 66.8622 38.4853C67.1624 38.6033 67.4931 38.6147 67.858 38.5203C68.2229 38.426 68.6021 38.1966 68.9922 37.8314C69.3831 37.4654 69.7462 36.9049 70.085 36.1509C70.2423 35.8207 70.4319 35.4319 70.653 34.9846C70.874 34.5356 71.1023 34.0175 71.3369 33.4278Z" fill="black"/>
<path d="M88.8394 18.2145C88.7612 18.356 88.6372 18.4503 88.4682 18.4975C88.2983 18.5447 88.1411 18.5447 87.9982 18.4975C87.8553 18.4503 87.7385 18.3617 87.6477 18.2315C87.5569 18.103 87.5497 17.9436 87.6279 17.7549C87.7061 17.5426 87.849 17.2189 88.0575 16.7821C88.266 16.3461 88.4745 15.8866 88.683 15.4026C88.8915 14.9195 89.0991 14.4477 89.3076 13.9882C89.5152 13.5286 89.6599 13.1455 89.7381 12.8389C89.1386 12.5794 88.6246 12.167 88.195 11.6009C87.7654 11.0348 87.5488 10.4695 87.5488 9.90339C87.5488 9.17298 87.7573 8.54831 88.1743 8.02938C88.5904 7.51044 89.2168 7.25098 90.0508 7.25098C90.5721 7.25098 91.0214 7.44537 91.3989 7.83417C91.7763 8.22377 91.9776 8.68984 92.0037 9.23155C92.0037 9.53819 91.9839 9.96196 91.9453 10.5045C91.9066 11.047 91.8338 11.4952 91.7305 11.8482C91.8599 11.9433 92.0369 12.0019 92.2589 12.0255C92.48 12.0491 92.7208 12.0613 92.9815 12.0613C93.5539 12.0613 94.0033 12.0019 94.3295 11.884C94.6549 11.766 94.9352 11.6424 95.1698 11.5123C95.4044 11.3837 95.6389 11.2593 95.8735 11.1414C96.1072 11.0234 96.4199 10.964 96.8108 10.964C97.3321 10.964 97.8524 11.0828 98.3737 11.3179C98.8949 11.5545 99.2724 12.0133 99.5069 12.6973C99.7415 13.3814 99.702 14.2127 99.3901 15.1903C99.0774 16.1688 98.6406 17.1888 98.0807 18.2494C97.5208 19.3109 96.9214 20.3602 96.2833 21.3972C95.6443 22.4351 95.1114 23.3599 94.6809 24.1733C94.2513 24.9874 94.0033 25.6357 93.9386 26.1189C93.8739 26.6028 94.139 26.8208 94.7384 26.7728C94.9739 26.75 95.2992 26.5605 95.7171 26.2075C96.1332 25.8537 96.5898 25.3998 97.084 24.8451C97.5792 24.292 98.087 23.673 98.6082 22.989C99.1295 22.3049 99.6229 21.6217 100.092 20.9376C100.561 20.2536 100.977 19.6053 101.343 18.9929C101.707 18.3796 101.968 17.8728 102.125 17.4719C102.203 17.2832 102.332 17.1652 102.515 17.118C102.696 17.0709 102.867 17.0709 103.024 17.118C103.181 17.1652 103.304 17.2596 103.395 17.4011C103.486 17.5426 103.478 17.6963 103.375 17.8606C103.166 18.2625 102.866 18.8099 102.476 19.5053C102.085 20.2007 101.623 20.9433 101.09 21.7331C100.556 22.5237 99.9761 23.3192 99.3506 24.1204C98.7251 24.9224 98.0807 25.6536 97.4166 26.3132C96.7524 26.9737 96.0811 27.5154 95.4044 27.94C94.7267 28.3646 94.0761 28.5769 93.4506 28.5769C92.9293 28.6005 92.48 28.5061 92.1025 28.2938C91.7242 28.0815 91.4186 27.7806 91.1841 27.3918C90.9495 27.003 90.7931 26.5312 90.715 25.9773C90.6368 25.4234 90.6368 24.828 90.715 24.1912C90.8192 23.272 91.0663 22.2935 91.4573 21.2557C91.8473 20.2186 92.2787 19.1987 92.7469 18.1966C93.216 17.1953 93.6717 16.2575 94.1147 15.3847C94.5569 14.5128 94.8822 13.7702 95.0907 13.1569C94.5434 13.3464 93.9251 13.4578 93.2358 13.4928C92.5456 13.5286 91.8608 13.4635 91.1841 13.2984C91.1059 13.4635 90.9693 13.7645 90.7734 14.2005C90.5783 14.6372 90.3636 15.1082 90.129 15.6149C89.8944 16.1225 89.6599 16.6178 89.4253 17.1001C89.1917 17.5841 88.9957 17.955 88.8394 18.2145Z" fill="black"/>
<path d="M111.97 13.7625C111.97 13.5738 112.029 13.3981 112.147 13.233C112.263 13.0678 112.413 12.9263 112.596 12.8084C112.465 12.5253 112.256 12.383 111.97 12.383C111.606 12.3602 111.201 12.5082 110.758 12.8263C110.315 13.1443 109.84 13.6039 109.332 14.2049C108.824 14.8068 108.297 15.5494 107.749 16.4336C107.202 17.3177 106.656 18.3027 106.109 19.3861C105.77 20.0702 105.49 20.8063 105.269 21.5961C105.047 22.3867 104.923 23.1407 104.897 23.8597C104.871 24.5787 104.949 25.2099 105.131 25.7524C105.313 26.295 105.64 26.648 106.109 26.8123C106.473 26.9538 106.857 26.9188 107.261 26.7065C107.664 26.4942 108.068 26.164 108.472 25.7158C108.876 25.2685 109.293 24.726 109.724 24.0891C110.153 23.453 110.568 22.7877 110.973 22.0922C111.376 21.3968 111.768 20.7006 112.147 20.0043C112.523 19.3089 112.881 18.6671 113.22 18.0782C113.584 17.2998 113.943 16.5621 114.294 15.8667C114.647 15.1712 114.939 14.5474 115.173 13.9935C115.408 13.4396 115.564 12.967 115.642 12.5782C115.721 12.1894 115.681 11.9234 115.526 11.7819C115.342 11.6404 115.429 11.4761 115.78 11.2874C116.131 11.0995 116.568 10.9921 117.089 10.9685C117.61 10.9457 118.15 11.0523 118.711 11.2874C119.271 11.5241 119.667 11.9942 119.901 12.701C120.136 13.3859 120.098 14.2171 119.785 15.1948C119.473 16.1733 119.036 17.1925 118.476 18.2539C117.916 19.3146 117.317 20.3654 116.679 21.4025C116.041 22.4396 115.506 23.3652 115.076 24.1786C114.647 24.9919 114.399 25.6402 114.333 26.1225C114.268 26.6065 114.534 26.8245 115.135 26.7765C115.369 26.7537 115.695 26.5658 116.112 26.212C116.528 25.8582 116.985 25.4043 117.48 24.8496C117.975 24.2957 118.488 23.6775 119.022 22.9935C119.556 22.3102 120.052 21.6262 120.508 20.9429C120.964 20.2589 121.373 19.6106 121.738 18.9973C122.102 18.3849 122.363 17.8773 122.52 17.4755C122.598 17.2868 122.728 17.1697 122.91 17.1217C123.093 17.0753 123.262 17.0753 123.419 17.1217C123.575 17.1697 123.699 17.264 123.791 17.4056C123.882 17.5463 123.875 17.7008 123.771 17.8651C123.562 18.2669 123.263 18.8143 122.873 19.509C122.482 20.2052 122.018 20.9486 121.484 21.7384C120.95 22.5282 120.371 23.3237 119.745 24.1257C119.12 24.9277 118.476 25.6581 117.812 26.3177C117.148 26.9782 116.476 27.5199 115.799 27.9445C115.121 28.3691 114.471 28.5805 113.845 28.5805C112.855 28.6285 112.112 28.2633 111.617 27.4849C111.123 26.7073 110.94 25.7158 111.072 24.5137C110.577 25.2449 110.055 25.9119 109.508 26.5129C108.961 27.114 108.368 27.5907 107.73 27.9445C107.092 28.2983 106.414 28.5098 105.697 28.5805C104.981 28.6513 104.194 28.5228 103.334 28.1926C102.291 27.8152 101.543 27.2604 101.087 26.5292C100.631 25.7988 100.365 25.0033 100.287 24.1419C100.209 23.2822 100.286 22.3867 100.52 21.4546C100.755 20.5232 101.041 19.6692 101.38 18.8916C102.006 17.4536 102.702 16.2205 103.471 15.1948C104.24 14.1691 105.053 13.3322 105.913 12.6839C106.772 12.0357 107.658 11.5704 108.57 11.2874C109.481 11.0043 110.407 10.8758 111.344 10.8986C111.657 10.9222 111.988 10.9742 112.341 11.0572C112.692 11.1393 113.019 11.2752 113.318 11.4639C113.618 11.6526 113.871 11.9055 114.08 12.2236C114.288 12.5424 114.393 12.9377 114.393 13.4086C114.393 13.9276 114.261 14.2822 114.001 14.4709C113.792 14.6824 113.519 14.7881 113.181 14.7881C112.868 14.7881 112.588 14.6954 112.341 14.5059C112.093 14.3172 111.97 14.0691 111.97 13.7625Z" fill="black"/>
<path d="M117.052 9.44569C117.027 9.77592 116.924 9.9939 116.746 10.0996C116.568 10.2062 116.371 10.194 116.155 10.0647C115.939 9.93534 115.76 9.68726 115.62 9.32205C115.48 8.95685 115.436 8.46719 115.488 7.85391C115.59 6.86403 116.014 6.10922 116.757 5.5911C117.501 5.07298 118.465 4.72404 119.651 4.54754C120.836 4.37103 122.177 4.30596 123.674 4.35314C125.172 4.40032 126.728 4.49467 128.344 4.63538C128.787 3.57474 129.112 2.7028 129.322 2.01875C129.53 1.33552 129.568 0.934523 129.438 0.816583C129.255 0.675056 129.341 0.50994 129.692 0.321238C130.044 0.132535 130.479 0.0267949 131 0.00320758C131.522 -0.0203798 132.062 0.0861713 132.623 0.321238C133.183 0.557116 133.581 1.02887 133.815 1.7357C133.945 2.06674 133.957 2.5141 133.854 3.07939C133.75 3.6455 133.581 4.28238 133.346 4.9892C134.493 5.03719 135.637 5.03719 136.784 4.9892C137.93 4.94284 138.959 4.85418 139.872 4.72404C140.784 4.59553 141.519 4.4239 142.08 4.21161C142.64 3.99932 142.92 3.73985 142.92 3.43321C142.92 3.07939 143.037 2.8972 143.27 2.88581C143.505 2.87361 143.74 2.96227 143.974 3.15016C144.208 3.33967 144.37 3.58694 144.462 3.89277C144.553 4.20023 144.443 4.48247 144.13 4.74193C143.792 5.04858 143.251 5.33814 142.509 5.60818C141.766 5.87985 140.88 6.11573 139.852 6.31582C138.822 6.51591 137.683 6.68671 136.432 6.82824C135.181 6.97058 133.879 7.05273 132.525 7.07632C131.977 8.34925 131.319 9.72874 130.551 11.214C129.783 12.6992 129.014 14.1787 128.246 15.6526C127.478 17.1264 126.735 18.5409 126.019 19.8967C125.302 21.2526 124.729 22.4426 124.3 23.4683C123.869 24.4939 123.61 25.313 123.519 25.9263C123.427 26.5396 123.616 26.8226 124.085 26.7747C124.345 26.7519 124.677 26.5624 125.082 26.2094C125.484 25.8555 125.934 25.4017 126.43 24.8478C126.924 24.2939 127.433 23.6749 127.954 22.9908C128.474 22.3076 128.969 21.6235 129.438 20.9395C129.907 20.2563 130.324 19.608 130.689 18.9947C131.053 18.3814 131.314 17.8747 131.47 17.4737C131.548 17.285 131.678 17.1679 131.861 17.1199C132.042 17.0727 132.213 17.0727 132.368 17.1199C132.525 17.1679 132.648 17.2614 132.74 17.4029C132.83 17.5445 132.825 17.6982 132.721 17.8625C132.512 18.2643 132.214 18.8125 131.822 19.5071C131.431 20.2034 130.969 20.946 130.435 21.735C129.901 22.5256 129.321 23.3211 128.695 24.1222C128.071 24.9242 127.425 25.6554 126.761 26.3151C126.097 26.9756 125.426 27.5173 124.749 27.9418C124.071 28.3664 123.421 28.5787 122.796 28.5787C122.275 28.6023 121.826 28.508 121.448 28.2957C121.071 28.0834 120.763 27.7824 120.529 27.3936C120.294 27.0048 120.138 26.5331 120.06 25.9792C119.981 25.4253 119.981 24.8299 120.06 24.193C120.164 23.4626 120.47 22.4312 120.978 21.0989C121.486 19.7666 122.093 18.305 122.796 16.7132C123.499 15.1222 124.248 13.4833 125.043 11.798C125.837 10.1118 126.573 8.53796 127.251 7.07632C125.896 7.07632 124.605 7.0934 123.381 7.12919C122.157 7.16417 121.082 7.26503 120.158 7.42933C119.233 7.59525 118.491 7.83601 117.931 8.15486C117.37 8.47289 117.078 8.90316 117.052 9.44569Z" fill="black"/>
<path d="M150.736 17.8612C150.527 18.263 150.228 18.8104 149.837 19.5059C149.446 20.2013 148.983 20.9455 148.45 21.7345C147.915 22.5251 147.336 23.3206 146.711 24.1218C146.086 24.9237 145.441 25.655 144.777 26.3146C144.112 26.9751 143.442 27.5168 142.764 27.9414C142.087 28.366 141.435 28.5782 140.811 28.5782C140.289 28.6018 139.84 28.5075 139.463 28.2952C139.084 28.0829 138.779 27.782 138.544 27.3932C138.31 27.0044 138.153 26.5318 138.075 25.9779C137.997 25.424 137.997 24.8294 138.075 24.1925C138.075 24.0754 138.088 23.9623 138.114 23.8566C138.14 23.7509 138.167 23.6386 138.193 23.5199C137.697 24.1803 137.183 24.8115 136.649 25.4126C136.114 26.0137 135.575 26.5505 135.027 27.0223C134.48 27.494 133.934 27.8706 133.386 28.1537C132.839 28.4367 132.318 28.5782 131.823 28.5782C131.302 28.6018 130.853 28.5075 130.476 28.2952C130.098 28.0829 129.792 27.782 129.557 27.3932C129.322 27.0044 129.166 26.5318 129.088 25.9779C129.01 25.424 129.01 24.8294 129.088 24.1925C129.192 23.4149 129.394 22.5894 129.694 21.7174C129.993 20.8447 130.339 19.9719 130.729 19.0992C131.12 18.2272 131.516 17.3846 131.921 16.5712C132.325 15.7578 132.676 15.0209 132.976 14.3613C133.275 13.7008 133.484 13.1461 133.601 12.6979C133.718 12.2505 133.685 11.9447 133.503 11.7788C133.321 11.6381 133.406 11.473 133.757 11.2843C134.109 11.0956 134.545 10.9898 135.066 10.9654C135.587 10.9426 136.127 11.0492 136.688 11.2843C137.248 11.5201 137.645 11.9903 137.88 12.6979C138.114 13.3819 138.075 14.2132 137.762 15.1909C137.45 16.1694 137.013 17.1894 136.453 18.2508C135.893 19.3115 135.293 20.3615 134.655 21.3986C134.017 22.4364 133.484 23.3613 133.054 24.1746C132.624 24.9888 132.376 25.6371 132.312 26.1202C132.247 26.6042 132.514 26.8214 133.113 26.7734C133.425 26.7506 133.881 26.4561 134.48 25.89C135.079 25.3239 135.711 24.6236 136.375 23.7858C137.04 22.9489 137.69 22.0639 138.329 21.1326C138.967 20.2013 139.495 19.37 139.912 18.6396C140.303 17.814 140.687 17.0259 141.064 16.2702C141.441 15.5162 141.768 14.8265 142.041 14.201C142.315 13.5763 142.504 13.0517 142.608 12.6271C142.711 12.2026 142.673 11.9203 142.49 11.7788C142.308 11.6381 142.393 11.473 142.745 11.2843C143.096 11.0956 143.532 10.9898 144.053 10.9654C144.575 10.9426 145.114 11.0492 145.675 11.2843C146.235 11.5201 146.633 11.9903 146.867 12.6979C147.101 13.3819 147.063 14.2132 146.749 15.1909C146.437 16.1694 146.001 17.1894 145.441 18.2508C144.88 19.3115 144.281 20.3615 143.643 21.3986C143.004 22.4364 142.471 23.3613 142.041 24.1746C141.612 24.9888 141.363 25.6371 141.299 26.1202C141.234 26.6042 141.501 26.8214 142.1 26.7734C142.334 26.7506 142.66 26.5619 143.077 26.2089C143.493 25.8551 143.949 25.4004 144.445 24.8457C144.939 24.2926 145.447 23.6744 145.968 22.9904C146.489 22.3063 146.985 21.6231 147.454 20.939C147.922 20.255 148.339 19.6075 148.704 18.9942C149.069 18.381 149.329 17.8734 149.485 17.4724C149.563 17.2837 149.693 17.1666 149.876 17.1186C150.058 17.0714 150.228 17.0714 150.384 17.1186C150.54 17.1666 150.664 17.2609 150.755 17.4025C150.846 17.544 150.839 17.6969 150.736 17.8612Z" fill="black"/>
<path d="M159.682 17.8631C159.473 18.2649 159.175 18.8123 158.783 19.5078C158.392 20.2032 157.93 20.9466 157.396 21.7356C156.861 22.5262 156.283 23.3217 155.656 24.1228C155.032 24.9248 154.386 25.6561 153.723 26.3157C153.059 26.9762 152.388 27.5179 151.711 27.9425C151.032 28.367 150.382 28.5793 149.756 28.5793C149.236 28.6029 148.787 28.5086 148.408 28.2963C148.031 28.084 147.724 27.783 147.491 27.3942C147.256 27.0055 147.1 26.5337 147.022 25.9798C146.943 25.4259 146.943 24.8305 147.022 24.1936C147.126 23.416 147.452 22.3196 147.998 20.9051C148.545 19.4899 149.196 17.9404 149.952 16.2543C150.708 14.5689 151.502 12.847 152.336 11.0909C153.17 9.33487 153.918 7.7195 154.582 6.24567C155.246 4.77264 155.761 3.54038 156.126 2.54969C156.49 1.55981 156.582 0.982312 156.399 0.816384C156.217 0.67567 156.302 0.510554 156.654 0.321852C157.005 0.133148 157.441 0.0274088 157.962 0.00300851C158.484 -0.0197659 159.024 0.0867852 159.584 0.321852C160.144 0.55773 160.542 1.02949 160.776 1.73631C160.958 2.25524 160.906 3.01575 160.62 4.01783C160.333 5.01991 159.91 6.15701 159.35 7.42994C158.789 8.70369 158.131 10.0775 157.377 11.5505C156.621 13.0243 155.858 14.4803 155.091 15.9183C154.322 17.3564 153.593 18.7424 152.903 20.0739C152.212 21.4054 151.652 22.5734 151.222 23.5746C150.792 24.5775 150.544 25.373 150.48 25.9619C150.414 26.5516 150.603 26.8233 151.047 26.7753C151.307 26.7525 151.639 26.563 152.043 26.21C152.446 25.8562 152.895 25.4023 153.391 24.8476C153.886 24.2945 154.393 23.6755 154.915 22.9914C155.435 22.3074 155.93 21.6242 156.399 20.9401C156.869 20.2561 157.285 19.6086 157.65 18.9953C158.015 18.382 158.276 17.8753 158.431 17.4743C158.51 17.2856 158.64 17.1685 158.822 17.1205C159.004 17.0733 159.175 17.0733 159.33 17.1205C159.487 17.1685 159.61 17.262 159.701 17.4036C159.792 17.5451 159.786 17.6988 159.682 17.8631Z" fill="black"/>
<path d="M168.318 13.7625C168.318 13.5738 168.376 13.3981 168.494 13.233C168.611 13.0678 168.761 12.9263 168.944 12.8084C168.813 12.5253 168.604 12.383 168.318 12.383C167.953 12.3602 167.549 12.5082 167.106 12.8263C166.663 13.1443 166.188 13.6039 165.679 14.2049C165.172 14.8068 164.644 15.5494 164.098 16.4336C163.55 17.3177 163.003 18.3027 162.457 19.3861C162.118 20.0702 161.838 20.8063 161.616 21.5961C161.395 22.3867 161.27 23.1407 161.244 23.8597C161.219 24.5787 161.297 25.2099 161.481 25.7524C161.662 26.295 161.987 26.648 162.457 26.8123C162.821 26.9538 163.205 26.9188 163.609 26.7065C164.012 26.4942 164.416 26.164 164.819 25.7158C165.224 25.2685 165.641 24.726 166.071 24.0891C166.502 23.453 166.917 22.7877 167.322 22.0922C167.726 21.3968 168.116 20.7006 168.494 20.0043C168.871 19.3089 169.229 18.6671 169.568 18.0782C169.932 17.2998 170.291 16.5621 170.642 15.8667C170.994 15.1712 171.287 14.5474 171.521 13.9935C171.756 13.4396 171.912 12.967 171.99 12.5782C172.068 12.1894 172.03 11.9234 171.873 11.7819C171.691 11.6404 171.777 11.4761 172.128 11.2874C172.48 11.0995 172.916 10.9921 173.437 10.9685C173.957 10.9457 174.498 11.0523 175.058 11.2874C175.617 11.5241 176.015 11.9942 176.249 12.701C176.485 13.3859 176.446 14.2171 176.133 15.1948C175.821 16.1733 175.384 17.1925 174.824 18.2539C174.264 19.3146 173.664 20.3654 173.026 21.4025C172.388 22.4396 171.854 23.3652 171.424 24.1786C170.994 24.9919 170.747 25.6402 170.683 26.1225C170.617 26.6065 170.882 26.8245 171.482 26.7765C171.717 26.7537 172.043 26.5658 172.459 26.212C172.875 25.8582 173.333 25.4043 173.828 24.8496C174.323 24.2957 174.836 23.6775 175.371 22.9935C175.904 22.3102 176.399 21.6262 176.856 20.9429C177.311 20.2589 177.721 19.6106 178.086 18.9973C178.45 18.3849 178.711 17.8773 178.868 17.4755C178.946 17.2868 179.076 17.1697 179.259 17.1217C179.44 17.0753 179.609 17.0753 179.767 17.1217C179.923 17.1697 180.047 17.264 180.139 17.4056C180.229 17.5463 180.223 17.7008 180.119 17.8651C179.909 18.2669 179.61 18.8143 179.22 19.509C178.829 20.2052 178.367 20.9486 177.833 21.7384C177.299 22.5282 176.719 23.3237 176.093 24.1257C175.468 24.9277 174.823 25.6581 174.159 26.3177C173.495 26.9782 172.824 27.5199 172.147 27.9445C171.469 28.3691 170.818 28.5805 170.193 28.5805C169.202 28.6285 168.46 28.2633 167.965 27.4849C167.471 26.7073 167.288 25.7158 167.419 24.5137C166.924 25.2449 166.403 25.9119 165.856 26.5129C165.308 27.114 164.716 27.5907 164.078 27.9445C163.44 28.2983 162.761 28.5098 162.045 28.5805C161.329 28.6513 160.542 28.5228 159.683 28.1926C158.64 27.8152 157.89 27.2604 157.435 26.5292C156.979 25.7988 156.713 25.0033 156.635 24.1419C156.557 23.2822 156.634 22.3867 156.869 21.4546C157.102 20.5232 157.39 19.6692 157.728 18.8916C158.353 17.4536 159.05 16.2205 159.819 15.1948C160.587 14.1691 161.402 13.3322 162.261 12.6839C163.121 12.0357 164.005 11.5704 164.918 11.2874C165.829 11.0043 166.754 10.8758 167.693 10.8986C168.004 10.9222 168.336 10.9742 168.688 11.0572C169.041 11.1393 169.366 11.2752 169.665 11.4639C169.964 11.6526 170.219 11.9055 170.427 12.2236C170.636 12.5424 170.741 12.9377 170.741 13.4086C170.741 13.9276 170.61 14.2822 170.349 14.4709C170.14 14.6824 169.867 14.7881 169.529 14.7881C169.216 14.7881 168.935 14.6954 168.688 14.5059C168.441 14.3172 168.318 14.0691 168.318 13.7625Z" fill="black"/>
<path d="M173.393 9.44569C173.367 9.77592 173.266 9.9939 173.087 10.0996C172.91 10.2062 172.713 10.194 172.497 10.0647C172.281 9.93534 172.102 9.68726 171.962 9.32205C171.822 8.95685 171.778 8.46719 171.83 7.85391C171.931 6.86403 172.355 6.10922 173.098 5.5911C173.841 5.07298 174.805 4.72404 175.992 4.54754C177.177 4.37103 178.518 4.30596 180.016 4.35314C181.513 4.40032 183.07 4.49467 184.685 4.63538C185.129 3.57474 185.453 2.7028 185.662 2.01875C185.871 1.33552 185.91 0.934523 185.779 0.816583C185.597 0.675056 185.682 0.50994 186.033 0.321238C186.385 0.132535 186.821 0.0267949 187.342 0.00320758C187.864 -0.0203798 188.404 0.0861713 188.964 0.321238C189.524 0.557116 189.922 1.02887 190.156 1.7357C190.286 2.06674 190.299 2.5141 190.195 3.07939C190.09 3.6455 189.922 4.28238 189.687 4.9892C190.833 5.03719 191.98 5.03719 193.125 4.9892C194.271 4.94284 195.3 4.85418 196.213 4.72404C197.124 4.59553 197.861 4.4239 198.421 4.21161C198.98 3.99932 199.261 3.73985 199.261 3.43321C199.261 3.07939 199.378 2.8972 199.612 2.88581C199.847 2.87361 200.081 2.96227 200.316 3.15016C200.55 3.33967 200.712 3.58694 200.804 3.89277C200.896 4.20023 200.784 4.48247 200.472 4.74193C200.133 5.04858 199.592 5.33814 198.85 5.60818C198.108 5.87985 197.223 6.11573 196.193 6.31582C195.165 6.51591 194.024 6.68671 192.774 6.82824C191.524 6.97058 190.221 7.05273 188.866 7.07632C188.319 8.34925 187.661 9.72874 186.893 11.214C186.125 12.6992 185.356 14.1787 184.588 15.6526C183.819 17.1264 183.076 18.5409 182.361 19.8967C181.644 21.2526 181.071 22.4426 180.641 23.4683C180.211 24.4939 179.95 25.313 179.86 25.9263C179.768 26.5396 179.958 26.8226 180.426 26.7747C180.686 26.7519 181.018 26.5624 181.423 26.2094C181.826 25.8555 182.275 25.4017 182.771 24.8478C183.265 24.2939 183.774 23.6749 184.295 22.9908C184.815 22.3076 185.311 21.6235 185.779 20.9395C186.249 20.2563 186.666 19.608 187.03 18.9947C187.394 18.3814 187.655 17.8747 187.811 17.4737C187.89 17.285 188.019 17.1679 188.202 17.1199C188.385 17.0727 188.554 17.0727 188.71 17.1199C188.866 17.1679 188.99 17.2614 189.081 17.4029C189.173 17.5445 189.166 17.6982 189.062 17.8625C188.853 18.2643 188.554 18.8125 188.164 19.5071C187.773 20.2034 187.309 20.946 186.776 21.735C186.242 22.5256 185.662 23.3211 185.037 24.1222C184.412 24.9242 183.767 25.6554 183.103 26.3151C182.438 26.9756 181.768 27.5173 181.09 27.9418C180.413 28.3664 179.762 28.5787 179.137 28.5787C178.616 28.6023 178.167 28.508 177.789 28.2957C177.412 28.0834 177.105 27.7824 176.871 27.3936C176.635 27.0048 176.48 26.5331 176.401 25.9792C176.323 25.4253 176.323 24.8299 176.401 24.193C176.506 23.4626 176.812 22.4312 177.32 21.0989C177.828 19.7666 178.433 18.305 179.137 16.7132C179.84 15.1222 180.589 13.4833 181.384 11.798C182.177 10.1118 182.913 8.53796 183.592 7.07632C182.237 7.07632 180.947 7.0934 179.723 7.12919C178.499 7.16417 177.424 7.26503 176.499 7.42933C175.575 7.59525 174.832 7.83601 174.272 8.15486C173.712 8.47289 173.419 8.90316 173.393 9.44569Z" fill="black"/>
<path d="M197.195 19.5132C196.804 20.2086 196.341 20.952 195.808 21.741C195.274 22.5316 194.694 23.3271 194.068 24.1283C193.444 24.9302 192.798 25.6615 192.135 26.3211C191.47 26.9816 190.799 27.5233 190.122 27.9479C189.445 28.3725 188.794 28.5856 188.168 28.5856C187.648 28.6091 187.199 28.5148 186.82 28.3025C186.443 28.0902 186.136 27.7885 185.902 27.3997C185.667 27.0109 185.512 26.5391 185.434 25.9852C185.355 25.4313 185.355 24.8367 185.434 24.1998C185.538 23.4223 185.74 22.5967 186.039 21.7247C186.339 20.852 186.683 19.9792 187.074 19.1065C187.464 18.2345 187.862 17.3919 188.266 16.5785C188.67 15.7651 189.02 15.0274 189.321 14.3678C189.62 13.7073 189.829 13.1534 189.946 12.7052C190.064 12.2579 190.03 11.952 189.849 11.7861C189.667 11.6454 189.751 11.4803 190.102 11.2916C190.455 11.1029 190.891 10.9971 191.412 10.9727C191.932 10.9499 192.473 11.0565 193.034 11.2916C193.594 11.5274 193.989 11.9976 194.225 12.7052C194.459 13.3893 194.421 14.2205 194.108 15.1982C193.795 16.1767 193.358 17.1967 192.798 18.2573C192.239 19.3188 191.639 20.3688 191.001 21.4059C190.363 22.4438 189.829 23.3678 189.4 24.1811C188.969 24.9953 188.722 25.6436 188.657 26.1267C188.592 26.6107 188.859 26.8287 189.458 26.7807C189.718 26.7579 190.05 26.5692 190.455 26.2162C190.858 25.8624 191.308 25.4077 191.803 24.853C192.297 24.2999 192.804 23.6817 193.326 22.9977C193.846 22.3136 194.342 21.6304 194.81 20.9463C195.28 20.2623 195.696 19.6132 196.061 19.0007C196.426 18.3875 196.687 17.8807 196.844 17.4797C196.922 17.291 197.051 17.1731 197.234 17.1259C197.416 17.0787 197.586 17.0787 197.742 17.1259C197.899 17.1731 198.022 17.2674 198.113 17.409C198.204 17.5505 198.198 17.7042 198.094 17.8685C197.884 18.2703 197.586 18.8177 197.195 19.5132ZM195.495 8.49681C195.637 8.21375 195.794 7.9307 195.964 7.64846C196.134 7.36459 196.29 7.09455 196.433 6.83508C196.576 6.57643 196.648 6.37471 196.648 6.23318C196.648 5.6443 196.451 5.16116 196.061 4.78456C195.67 4.40716 195.235 4.1241 194.753 3.9354C194.271 3.74669 193.834 3.65234 193.444 3.65234C193.053 3.65234 192.857 3.73449 192.857 3.8988C192.857 4.04032 192.78 4.24204 192.623 4.50069C192.467 4.76097 192.292 5.04322 192.096 5.34904C191.9 5.65569 191.724 5.94444 191.567 6.21529C191.411 6.48696 191.334 6.70494 191.334 6.87006C191.334 7.45975 191.542 7.94859 191.958 8.33739C192.375 8.72618 192.825 9.01005 193.306 9.18736C193.789 9.36387 194.238 9.45171 194.654 9.45171C195.071 9.45171 195.281 9.35736 195.281 9.16866C195.281 9.00435 195.352 8.77986 195.495 8.49681Z" fill="black"/>
<path d="M209.272 13.4415C209.272 13.8189 209.194 14.0905 209.037 14.2548C208.829 14.6087 208.504 14.7852 208.061 14.7852C207.749 14.7852 207.467 14.6924 207.221 14.5037C206.972 14.315 206.85 14.0678 206.85 13.7611C206.85 13.5724 206.908 13.3943 207.025 13.2292C207.143 13.0649 207.292 12.9242 207.475 12.8062C207.266 12.476 207.025 12.3101 206.751 12.3101C206.479 12.3101 206.185 12.4101 205.873 12.611C205.559 12.8111 205.241 13.0828 204.915 13.4244C204.589 13.766 204.271 14.1141 203.958 14.4679C203.412 15.1048 202.884 15.8409 202.375 16.6779C201.868 17.5149 201.418 18.3754 201.027 19.2595C200.637 20.1437 200.324 21.0172 200.089 21.877C199.854 22.7383 199.731 23.5216 199.718 24.2293C199.704 24.9361 199.817 25.5193 200.05 25.9788C200.285 26.4384 200.676 26.7158 201.222 26.8101C201.614 26.8809 202.049 26.7223 202.532 26.3335C203.013 25.9447 203.495 25.4428 203.977 24.8295C204.459 24.2171 204.928 23.5509 205.384 22.8311C205.84 22.1121 206.237 21.4467 206.576 20.8326C206.029 20.6211 205.651 20.2738 205.443 19.7907C205.234 19.3075 205.169 18.8171 205.247 18.3217C205.325 17.8272 205.534 17.392 205.873 17.0146C206.211 16.6372 206.641 16.4477 207.162 16.4477C207.343 16.4477 207.578 16.4607 207.865 16.4843C208.152 16.5079 208.398 16.6307 208.608 16.8544C208.816 17.0789 208.933 17.4384 208.959 17.9329C208.985 18.4283 208.841 19.1481 208.53 20.09C209.571 20.0672 210.405 19.9371 211.031 19.7012C211.655 19.4661 212.144 19.2067 212.496 18.9244C212.848 18.6414 213.082 18.364 213.199 18.0932C213.316 17.8223 213.401 17.6499 213.453 17.5791C213.531 17.4148 213.655 17.3148 213.824 17.2798C213.994 17.244 214.157 17.2619 214.313 17.3327C214.469 17.4034 214.586 17.5149 214.664 17.6678C214.743 17.8215 214.743 17.9931 214.664 18.1818C214.457 18.6292 214.13 19.0424 213.687 19.419C213.244 19.7964 212.731 20.1144 212.144 20.3731C211.558 20.6333 210.907 20.8334 210.19 20.9758C209.474 21.1173 208.751 21.175 208.021 21.1515C207.656 21.8827 207.194 22.6961 206.634 23.5916C206.073 24.4879 205.43 25.3192 204.7 26.0846C203.971 26.8516 203.17 27.482 202.297 27.9773C201.425 28.4718 200.493 28.6841 199.503 28.6134C198.201 28.4962 197.178 28.0017 196.436 27.129C195.693 26.257 195.296 25.1956 195.244 23.9454C195.218 23.0027 195.322 22.0185 195.556 20.9928C195.791 19.9672 196.143 18.9586 196.612 17.9687C197.081 16.978 197.653 16.041 198.331 15.1569C199.008 14.2727 199.77 13.5017 200.617 12.8412C201.463 12.1815 202.388 11.674 203.391 11.321C204.394 10.9672 205.443 10.8143 206.537 10.8606C207.032 10.8842 207.442 10.9843 207.768 11.1608C208.093 11.3373 208.36 11.5496 208.569 11.7976C208.777 12.0449 208.933 12.3158 209.037 12.611C209.141 12.9055 209.219 13.1828 209.272 13.4415Z" fill="black"/>
<path d="M228.489 15.3512C228.436 16.1531 228.241 16.9958 227.903 17.8799C227.564 18.7641 227.18 19.6311 226.75 20.4803C226.321 21.3286 225.89 22.1363 225.461 22.9025C225.03 23.6695 224.698 24.3349 224.464 24.901C224.23 25.4671 224.131 25.9202 224.171 26.2618C224.21 26.6034 224.49 26.7742 225.011 26.7742C225.246 26.7742 225.571 26.6034 225.988 26.2618C226.405 25.9202 226.861 25.4728 227.356 24.9181C227.85 24.365 228.365 23.7395 228.899 23.0432C229.433 22.3486 229.934 21.6581 230.403 20.9748C230.873 20.2908 231.289 19.6368 231.654 19.0113C232.019 18.3867 232.28 17.8742 232.436 17.4732C232.514 17.2845 232.644 17.1666 232.826 17.1194C233.008 17.0723 233.179 17.0723 233.335 17.1194C233.49 17.1666 233.614 17.261 233.706 17.4025C233.796 17.544 233.79 17.6977 233.685 17.862C233.478 18.2638 233.179 18.8112 232.787 19.5067C232.397 20.2021 231.934 20.9455 231.4 21.7353C230.866 22.5259 230.287 23.3214 229.662 24.1226C229.036 24.9246 228.391 25.655 227.727 26.3146C227.063 26.9751 226.392 27.5168 225.715 27.9414C225.036 28.366 224.387 28.5791 223.76 28.5791C223.239 28.6027 222.797 28.4904 222.433 28.2432C222.067 27.9951 221.768 27.6583 221.534 27.2338C221.299 26.81 221.136 26.3325 221.045 25.803C220.954 25.2719 220.947 24.7359 221.025 24.1934C221.156 23.2271 221.403 22.2722 221.768 21.3286C222.133 20.3859 222.53 19.4839 222.96 18.6225C223.389 17.762 223.813 16.9722 224.23 16.2532C224.646 15.5342 224.958 14.9103 225.168 14.3792C225.376 13.8488 225.447 13.4422 225.382 13.1591C225.318 12.8769 225.011 12.7467 224.464 12.7703C224.177 12.7939 223.774 12.9989 223.253 13.3885C222.732 13.7773 222.165 14.2734 221.553 14.8745C220.941 15.4756 220.322 16.1361 219.697 16.8551C219.072 17.5741 218.511 18.2647 218.018 18.9243C217.521 19.8434 217.007 20.7577 216.474 21.6646C215.939 22.5723 215.463 23.4272 215.047 24.2283C214.63 25.0295 214.324 25.7371 214.129 26.3496C213.934 26.9629 213.927 27.4355 214.109 27.7657C214.212 27.9544 214.129 28.148 213.856 28.3481C213.582 28.549 213.23 28.6539 212.801 28.6669C212.37 28.6783 211.927 28.5547 211.471 28.2952C211.017 28.0357 210.671 27.5526 210.436 26.845C210.228 26.2797 210.24 25.5371 210.475 24.6179C210.71 23.698 211.049 22.7138 211.491 21.6646C211.934 20.6161 212.429 19.5425 212.976 18.4469C213.523 17.3504 214.017 16.341 214.461 15.4219C214.904 14.5028 215.229 13.713 215.438 13.0526C215.646 12.3929 215.646 11.9683 215.438 11.7788C215.255 11.6381 215.34 11.473 215.692 11.2843C216.043 11.0956 216.486 10.9898 217.02 10.9654C217.554 10.9427 218.096 11.0484 218.642 11.2843C219.189 11.5202 219.579 11.9919 219.815 12.6995C219.918 13.0062 219.957 13.3421 219.932 13.7073C219.905 14.0733 219.84 14.4564 219.737 14.8566C220.231 14.3385 220.733 13.8432 221.241 13.3706C221.748 12.8988 222.262 12.4873 222.783 12.1334C223.305 11.7796 223.813 11.4966 224.308 11.2843C224.802 11.072 225.285 10.9654 225.754 10.9654C226.77 10.9427 227.525 11.3428 228.021 12.1684C228.514 12.994 228.671 14.0546 228.489 15.3512Z" fill="black"/>
<path d="M237.09 27.8337L237.05 27.8687C236.476 28.1289 235.93 28.329 235.409 28.4706C234.887 28.6121 234.445 28.682 234.08 28.682C233.038 28.682 232.239 28.4413 231.679 27.9573C231.118 27.475 230.747 26.9024 230.564 26.2419C230.382 25.5823 230.355 24.9218 230.485 24.2613C230.616 23.6017 230.864 23.0942 231.23 22.7411C231.751 22.2458 232.219 21.9164 232.635 21.7505C233.052 21.5862 233.403 21.5268 233.691 21.574C233.977 21.5975 234.243 21.7033 234.49 21.892C234.738 22.0815 234.861 22.3166 234.861 22.5996C234.861 22.9063 234.738 23.1657 234.49 23.3772C234.243 23.5895 233.963 23.6961 233.652 23.6961C233.417 23.6961 233.195 23.631 232.987 23.5017C232.778 23.3723 232.634 23.2007 232.556 22.9884C232.218 23.3422 231.984 23.7668 231.854 24.2613C231.724 24.7567 231.697 25.2285 231.775 25.6766C231.853 26.124 232.055 26.5079 232.381 26.8259C232.706 27.144 233.155 27.3156 233.729 27.3383C233.936 27.3383 234.237 27.2505 234.628 27.0732C235.018 26.8967 235.415 26.6022 235.819 26.189C236.223 25.7767 236.581 25.2463 236.893 24.5973C237.207 23.9498 237.396 23.1657 237.461 22.2458C237.526 21.3267 237.415 20.2538 237.129 19.0273C236.843 17.8023 236.295 16.4228 235.488 14.8896C235.228 15.3378 234.935 15.8266 234.609 16.3578C234.282 16.8881 233.989 17.3891 233.729 17.8601C233.598 18.0252 233.442 18.1204 233.261 18.1431C233.078 18.1675 232.909 18.1496 232.753 18.0903C232.596 18.0317 232.485 17.9374 232.42 17.8072C232.356 17.6779 232.375 17.5307 232.479 17.3655C232.688 16.9646 232.881 16.605 233.064 16.287C233.246 15.9682 233.43 15.6672 233.612 15.385C233.794 15.1019 233.963 14.8132 234.12 14.5179C234.276 14.2243 234.445 13.912 234.628 13.5817C234.34 13.2043 234.119 12.7911 233.962 12.3438C233.807 11.8956 233.729 11.4238 233.729 10.9285C233.729 10.717 233.776 10.451 233.866 10.133C233.958 9.81498 234.113 9.49695 234.335 9.17811C234.557 8.86008 234.861 8.58922 235.252 8.36473C235.644 8.14105 236.151 8.02881 236.776 8.02881C237.427 8.02881 237.903 8.15895 238.203 8.4176C238.503 8.67788 238.666 9.0073 238.692 9.40829C238.718 9.80929 238.627 10.251 238.419 10.7341C238.21 11.2181 237.936 11.6955 237.598 12.1665L237.481 12.3787C238.496 13.4394 239.31 14.4537 239.922 15.42C240.534 16.3871 240.997 17.307 241.309 18.1789C241.622 19.0517 241.798 19.8651 241.838 20.6191C241.876 21.3739 241.805 22.0815 241.623 22.7411C242.482 21.8456 243.25 20.9607 243.928 20.0887C244.605 19.2168 245.165 18.3912 245.609 17.6128C245.686 17.4477 245.803 17.3363 245.959 17.2769C246.116 17.2183 246.312 17.2476 246.545 17.3655C246.728 17.4599 246.84 17.59 246.879 17.7543C246.918 17.9195 246.897 18.0732 246.818 18.2139C246.194 19.3697 245.471 20.4539 244.651 21.4674C243.83 22.4817 242.925 23.496 241.936 24.5094C241.232 25.2163 240.496 25.8531 239.728 26.4192C238.959 26.9853 238.092 27.4571 237.129 27.8337H237.09Z" fill="black"/>
</svg>
