<svg width="84" height="84" viewBox="0 0 84 84" fill="none" xmlns="http://www.w3.org/2000/svg">
<path d="M17.5 3.5C14.21 3.5 11.165 4.65502 8.75 6.58002C5.53 9.13502 3.5 13.09 3.5 17.5C3.5 25.235 9.765 31.5 17.5 31.5C21.035 31.5 24.2551 30.17 26.7401 28C29.6451 25.445 31.5 21.7 31.5 17.5C31.5 9.765 25.235 3.5 17.5 3.5ZM21 18.375C21 19.285 20.5101 20.1601 19.7401 20.6151L15.3651 23.2401C14.9451 23.4851 14.49 23.625 14.035 23.625C13.16 23.625 12.285 23.1701 11.795 22.3651C11.06 21.1051 11.445 19.4949 12.705 18.7599L15.8201 16.9051V13.125C15.8201 11.69 17.0101 10.5 18.4451 10.5C19.8801 10.5 21.0701 11.69 21.0701 13.125V18.375H21Z" fill="url(#paint0_linear_4956_146135)"/>
<path opacity="0.4" d="M52.5 10.5V42C52.5 45.85 49.35 49 45.5 49H7V26.67C9.555 29.715 13.4751 31.605 17.8151 31.5C21.3501 31.43 24.535 30.065 26.915 27.79C28 26.88 28.9101 25.725 29.6101 24.465C30.8701 22.33 31.57 19.8099 31.5 17.1849C31.395 13.0899 29.5751 9.485 26.7401 7H49C50.925 7 52.5 8.575 52.5 10.5Z" fill="url(#paint1_linear_4956_146135)"/>
<path d="M77 49V59.5C77 65.31 72.31 70 66.5 70H63C63 66.15 59.85 63 56 63C52.15 63 49 66.15 49 70H35C35 66.15 31.85 63 28 63C24.15 63 21 66.15 21 70H17.5C11.69 70 7 65.31 7 59.5V49H45.5C49.35 49 52.5 45.85 52.5 42V17.5H58.9401C61.4601 17.5 63.7701 18.865 65.0301 21.035L71.0149 31.5H66.5C64.575 31.5 63 33.075 63 35V45.5C63 47.425 64.575 49 66.5 49H77Z" fill="url(#paint2_linear_4956_146135)"/>
<path opacity="0.4" d="M28 77C31.866 77 35 73.866 35 70C35 66.134 31.866 63 28 63C24.134 63 21 66.134 21 70C21 73.866 24.134 77 28 77Z" fill="#00BAFE"/>
<path opacity="0.4" d="M56 77C59.866 77 63 73.866 63 70C63 66.134 59.866 63 56 63C52.134 63 49 66.134 49 70C49 73.866 52.134 77 56 77Z" fill="#00BAFE"/>
<path opacity="0.4" d="M77 43.8551V49H66.5C64.575 49 63 47.425 63 45.5V35C63 33.075 64.575 31.5 66.5 31.5H71.0149L76.09 40.3899C76.685 41.4399 77 42.6301 77 43.8551Z" fill="#00BAFE"/>
<defs>
<linearGradient id="paint0_linear_4956_146135" x1="40.2277" y1="17.5" x2="3.5" y2="17.5" gradientUnits="userSpaceOnUse">
<stop stop-color="#00BAFE"/>
<stop offset="1" stop-color="#7DD942"/>
</linearGradient>
<linearGradient id="paint1_linear_4956_146135" x1="66.6826" y1="28" x2="7" y2="28" gradientUnits="userSpaceOnUse">
<stop stop-color="#00BAFE"/>
<stop offset="1" stop-color="#7DD942"/>
</linearGradient>
<linearGradient id="paint2_linear_4956_146135" x1="98.8193" y1="43.75" x2="7" y2="43.75" gradientUnits="userSpaceOnUse">
<stop stop-color="#00BAFE"/>
<stop offset="1" stop-color="#7DD942"/>
</linearGradient>
</defs>
</svg>
