<svg width="24" height="25" viewBox="0 0 24 25" fill="none" xmlns="http://www.w3.org/2000/svg">
<path opacity="0.4" d="M20.4002 16.8298C20.1202 17.5798 19.5302 18.1498 18.7602 18.4098C17.6802 18.7698 16.5702 19.0398 15.4502 19.2298C15.3402 19.2498 15.2302 19.2698 15.1202 19.2798C14.9402 19.3098 14.7602 19.3298 14.5802 19.3498C14.3602 19.3798 14.1302 19.3998 13.9002 19.4198C13.2702 19.4698 12.6502 19.4998 12.0202 19.4998C11.3802 19.4998 10.7402 19.4698 10.1102 19.4098C9.8402 19.3898 9.5802 19.3598 9.3202 19.3198C9.1702 19.2998 9.0202 19.2798 8.8802 19.2598C8.7702 19.2398 8.6602 19.2298 8.5502 19.2098C7.4402 19.0298 6.3402 18.7598 5.2702 18.3998C4.4702 18.1298 3.8602 17.5598 3.5902 16.8298C3.3202 16.1098 3.4202 15.2698 3.8502 14.5498L4.9802 12.6698C5.2202 12.2598 5.4402 11.4698 5.4402 10.9898V9.1298C5.4402 5.4998 8.3902 2.5498 12.0202 2.5498C15.6402 2.5498 18.5902 5.4998 18.5902 9.1298V10.9898C18.5902 11.4698 18.8102 12.2598 19.0602 12.6698L20.1902 14.5498C20.6002 15.2498 20.6802 16.0698 20.4002 16.8298Z" fill="#0091D4"/>
<path d="M12.0002 11.2596C11.5802 11.2596 11.2402 10.9196 11.2402 10.4996V7.39965C11.2402 6.97965 11.5802 6.63965 12.0002 6.63965C12.4202 6.63965 12.7602 6.97965 12.7602 7.39965V10.4996C12.7502 10.9196 12.4102 11.2596 12.0002 11.2596Z" fill="#0091D4"/>
<path d="M14.8302 20.51C14.4102 21.67 13.3002 22.5 12.0002 22.5C11.2102 22.5 10.4302 22.18 9.88018 21.61C9.56018 21.31 9.32018 20.91 9.18018 20.5C9.31018 20.52 9.44018 20.53 9.58018 20.55C9.81018 20.58 10.0502 20.61 10.2902 20.63C10.8602 20.68 11.4402 20.71 12.0202 20.71C12.5902 20.71 13.1602 20.68 13.7202 20.63C13.9302 20.61 14.1402 20.6 14.3402 20.57C14.5002 20.55 14.6602 20.53 14.8302 20.51Z" fill="#0091D4"/>
</svg>
