<svg width="41" height="40" viewBox="0 0 41 40" fill="none" xmlns="http://www.w3.org/2000/svg">
<g id="vuesax/bulk/lock">
<g id="lock">
<path id="Vector" d="M31.75 13.3335V16.8335C31.0167 16.7335 30.1833 16.6835 29.25 16.6668V13.3335C29.25 8.0835 27.7667 4.5835 20.5 4.5835C13.2333 4.5835 11.75 8.0835 11.75 13.3335V16.6668C10.8167 16.6835 9.98333 16.7335 9.25 16.8335V13.3335C9.25 8.50016 10.4167 2.0835 20.5 2.0835C30.5833 2.0835 31.75 8.50016 31.75 13.3335Z" fill="url(#paint0_linear_12038_990)"/>
<path id="Vector_2" opacity="0.4" d="M37.1668 24.9998V28.3332C37.1668 34.9998 35.5002 36.6665 28.8335 36.6665H12.1668C5.50016 36.6665 3.8335 34.9998 3.8335 28.3332V24.9998C3.8335 19.4332 5.00016 17.3498 9.25016 16.8332C9.9835 16.7332 10.8168 16.6832 11.7502 16.6665H29.2502C30.1835 16.6832 31.0168 16.7332 31.7502 16.8332C36.0002 17.3498 37.1668 19.4332 37.1668 24.9998Z" fill="url(#paint1_linear_12038_990)"/>
<g id="Group">
<path id="Vector_3" d="M13.8332 28.3329C13.6165 28.3329 13.3998 28.2829 13.1998 28.1996C12.9832 28.1163 12.8165 27.9996 12.6499 27.8496C12.3499 27.533 12.1665 27.0996 12.1665 26.6663C12.1665 26.4496 12.2165 26.2329 12.2998 26.0329C12.3831 25.8329 12.4999 25.6496 12.6499 25.4829C12.8165 25.3329 12.9832 25.2163 13.1998 25.133C13.8165 24.8663 14.5498 25.0163 15.0165 25.4829C15.1665 25.6496 15.2832 25.8329 15.3665 26.0329C15.4499 26.2329 15.4998 26.4496 15.4998 26.6663C15.4998 27.0996 15.3165 27.533 15.0165 27.8496C14.6998 28.1496 14.2665 28.3329 13.8332 28.3329Z" fill="url(#paint2_linear_12038_990)"/>
</g>
<g id="Group_2">
<path id="Vector_4" d="M20.5002 28.3335C20.0502 28.3335 19.6335 28.1502 19.3168 27.8502C19.1668 27.6835 19.0501 27.5002 18.9668 27.3002C18.8835 27.1002 18.8335 26.8835 18.8335 26.6668C18.8335 26.2168 19.0168 25.8002 19.3168 25.4835C19.9335 24.8668 21.0501 24.8668 21.6835 25.4835C21.9835 25.8002 22.1668 26.2168 22.1668 26.6668C22.1668 26.8835 22.1169 27.1002 22.0335 27.3002C21.9502 27.5002 21.8335 27.6835 21.6835 27.8502C21.3668 28.1502 20.9335 28.3335 20.5002 28.3335Z" fill="url(#paint3_linear_12038_990)"/>
</g>
<g id="Group_3">
<path id="Vector_5" d="M27.1667 28.3335C26.7333 28.3335 26.3 28.1502 25.9833 27.8502C25.6833 27.5335 25.5 27.1168 25.5 26.6668C25.5 26.2168 25.6833 25.8002 25.9833 25.4835C26.6167 24.8668 27.7333 24.8668 28.35 25.4835C28.4167 25.5668 28.4833 25.6502 28.55 25.7502C28.6166 25.8335 28.6667 25.9335 28.7 26.0335C28.75 26.1335 28.7834 26.2335 28.8 26.3335C28.8167 26.4502 28.8333 26.5668 28.8333 26.6668C28.8333 27.1002 28.65 27.5335 28.35 27.8502C28.0333 28.1502 27.6 28.3335 27.1667 28.3335Z" fill="url(#paint4_linear_12038_990)"/>
</g>
</g>
</g>
<defs>
<linearGradient id="paint0_linear_12038_990" x1="9.25" y1="9.4585" x2="31.75" y2="9.4585" gradientUnits="userSpaceOnUse">
<stop stop-color="#00BAFE"/>
<stop offset="1" stop-color="#CAA7FF"/>
</linearGradient>
<linearGradient id="paint1_linear_12038_990" x1="3.8335" y1="26.6665" x2="37.1668" y2="26.6665" gradientUnits="userSpaceOnUse">
<stop stop-color="#00BAFE"/>
<stop offset="1" stop-color="#CAA7FF"/>
</linearGradient>
<linearGradient id="paint2_linear_12038_990" x1="12.1665" y1="26.6672" x2="15.4998" y2="26.6672" gradientUnits="userSpaceOnUse">
<stop stop-color="#00BAFE"/>
<stop offset="1" stop-color="#CAA7FF"/>
</linearGradient>
<linearGradient id="paint3_linear_12038_990" x1="18.8335" y1="26.6773" x2="22.1668" y2="26.6773" gradientUnits="userSpaceOnUse">
<stop stop-color="#00BAFE"/>
<stop offset="1" stop-color="#CAA7FF"/>
</linearGradient>
<linearGradient id="paint4_linear_12038_990" x1="25.5" y1="26.6773" x2="28.8333" y2="26.6773" gradientUnits="userSpaceOnUse">
<stop stop-color="#00BAFE"/>
<stop offset="1" stop-color="#CAA7FF"/>
</linearGradient>
</defs>
</svg>
