<svg width="29" height="28" viewBox="0 0 29 28" fill="none" xmlns="http://www.w3.org/2000/svg">
<path d="M12.1667 25.6667H16.8333C22.6667 25.6667 25 23.3333 25 17.5V10.5C25 4.66667 22.6667 2.33333 16.8333 2.33333H12.1667C6.33333 2.33333 4 4.66667 4 10.5V17.5C4 23.3333 6.33333 25.6667 12.1667 25.6667Z" stroke="url(#paint0_linear_12099_5681)" stroke-width="1.5" stroke-linecap="round" stroke-linejoin="round"/>
<path opacity="0.4" d="M19.75 8.84333V10.01C19.75 10.9667 18.9683 11.76 18 11.76H11C10.0433 11.76 9.25 10.9783 9.25 10.01V8.84333C9.25 7.88667 10.0317 7.09333 11 7.09333H18C18.9683 7.09333 19.75 7.875 19.75 8.84333Z" stroke="url(#paint1_linear_12099_5681)" stroke-width="1.5" stroke-linecap="round" stroke-linejoin="round"/>
<path opacity="0.4" d="M9.99214 16.3333H10.0056" stroke="url(#paint2_linear_12099_5681)" stroke-width="2" stroke-linecap="round" stroke-linejoin="round"/>
<path opacity="0.4" d="M14.4943 16.3333H14.5078" stroke="url(#paint3_linear_12099_5681)" stroke-width="2" stroke-linecap="round" stroke-linejoin="round"/>
<path opacity="0.4" d="M18.9968 16.3333H19.0103" stroke="url(#paint4_linear_12099_5681)" stroke-width="2" stroke-linecap="round" stroke-linejoin="round"/>
<path opacity="0.4" d="M9.99214 20.4167H10.0056" stroke="url(#paint5_linear_12099_5681)" stroke-width="2" stroke-linecap="round" stroke-linejoin="round"/>
<path opacity="0.4" d="M14.4943 20.4167H14.5078" stroke="url(#paint6_linear_12099_5681)" stroke-width="2" stroke-linecap="round" stroke-linejoin="round"/>
<path opacity="0.4" d="M18.9968 20.4167H19.0103" stroke="url(#paint7_linear_12099_5681)" stroke-width="2" stroke-linecap="round" stroke-linejoin="round"/>
<defs>
<linearGradient id="paint0_linear_12099_5681" x1="4" y1="14" x2="25" y2="14" gradientUnits="userSpaceOnUse">
<stop stop-color="#00BAFE"/>
<stop offset="1" stop-color="#CAA7FF"/>
</linearGradient>
<linearGradient id="paint1_linear_12099_5681" x1="9.25" y1="9.42667" x2="19.75" y2="9.42667" gradientUnits="userSpaceOnUse">
<stop stop-color="#00BAFE"/>
<stop offset="1" stop-color="#CAA7FF"/>
</linearGradient>
<linearGradient id="paint2_linear_12099_5681" x1="9.25" y1="16.3333" x2="10.7478" y2="16.3333" gradientUnits="userSpaceOnUse">
<stop stop-color="#00BAFE"/>
<stop offset="1" stop-color="#CAA7FF"/>
</linearGradient>
<linearGradient id="paint3_linear_12099_5681" x1="13.7522" y1="16.3333" x2="15.25" y2="16.3333" gradientUnits="userSpaceOnUse">
<stop stop-color="#00BAFE"/>
<stop offset="1" stop-color="#CAA7FF"/>
</linearGradient>
<linearGradient id="paint4_linear_12099_5681" x1="18.2546" y1="16.3333" x2="19.7524" y2="16.3333" gradientUnits="userSpaceOnUse">
<stop stop-color="#00BAFE"/>
<stop offset="1" stop-color="#CAA7FF"/>
</linearGradient>
<linearGradient id="paint5_linear_12099_5681" x1="9.25" y1="20.4167" x2="10.7478" y2="20.4167" gradientUnits="userSpaceOnUse">
<stop stop-color="#00BAFE"/>
<stop offset="1" stop-color="#CAA7FF"/>
</linearGradient>
<linearGradient id="paint6_linear_12099_5681" x1="13.7522" y1="20.4167" x2="15.25" y2="20.4167" gradientUnits="userSpaceOnUse">
<stop stop-color="#00BAFE"/>
<stop offset="1" stop-color="#CAA7FF"/>
</linearGradient>
<linearGradient id="paint7_linear_12099_5681" x1="18.2546" y1="20.4167" x2="19.7524" y2="20.4167" gradientUnits="userSpaceOnUse">
<stop stop-color="#00BAFE"/>
<stop offset="1" stop-color="#CAA7FF"/>
</linearGradient>
</defs>
</svg>
