<svg width="41" height="40" viewBox="0 0 41 40" fill="none" xmlns="http://www.w3.org/2000/svg">
<path d="M33.8333 15.916C33.15 15.916 32.5833 15.3493 32.5833 14.666V7.91602H25.8333C25.15 7.91602 24.5833 7.34935 24.5833 6.66602C24.5833 5.98268 25.15 5.41602 25.8333 5.41602H33.8333C34.5167 5.41602 35.0833 5.98268 35.0833 6.66602V14.666C35.0833 15.3493 34.5167 15.916 33.8333 15.916Z" fill="url(#paint0_linear_3141_98826)"/>
<path opacity="0.4" d="M20.15 23.684L14.7 29.134C14.1 28.6006 13.5167 28.0506 12.95 27.484C11.2333 25.7507 9.68334 23.934 8.30001 22.034C6.93334 20.134 5.83334 18.234 5.03334 16.3507C4.23334 14.4507 3.83334 12.634 3.83334 10.9007C3.83334 9.76732 4.03334 8.68398 4.43334 7.68398C4.83334 6.66732 5.46668 5.73398 6.35001 4.90065C7.41668 3.85065 8.58334 3.33398 9.81668 3.33398C10.2833 3.33398 10.75 3.43398 11.1667 3.63398C11.6 3.83398 11.9833 4.13398 12.2833 4.56732L16.15 10.0173C16.45 10.434 16.6667 10.8173 16.8167 11.184C16.9667 11.534 17.05 11.884 17.05 12.2007C17.05 12.6007 16.9333 13.0007 16.7 13.384C16.4833 13.7673 16.1667 14.1673 15.7667 14.5673L14.5 15.884C14.3167 16.0673 14.2333 16.284 14.2333 16.5507C14.2333 16.684 14.25 16.8007 14.2833 16.934C14.3333 17.0673 14.3833 17.1673 14.4167 17.2673C14.7167 17.8173 15.2333 18.534 15.9667 19.4007C16.7167 20.2673 17.5167 21.1507 18.3833 22.034C18.9833 22.6173 19.5667 23.184 20.15 23.684Z" fill="url(#paint1_linear_3141_98826)"/>
<path d="M37.1167 30.5504C37.1167 31.0171 37.0333 31.5004 36.8667 31.9671C36.8167 32.1004 36.7667 32.2337 36.7 32.3671C36.4167 32.9671 36.05 33.5337 35.5667 34.0671C34.75 34.9671 33.85 35.6171 32.8333 36.0337C32.8167 36.0337 32.8 36.0504 32.7833 36.0504C31.8 36.4504 30.7333 36.6671 29.5833 36.6671C27.8833 36.6671 26.0667 36.2671 24.15 35.4504C22.2333 34.6337 20.3167 33.5337 18.4167 32.1504C17.7667 31.6671 17.1167 31.1837 16.5 30.6671L21.95 25.2171C22.4167 25.5671 22.8333 25.8337 23.1833 26.0171C23.2667 26.0504 23.3667 26.1004 23.4833 26.1504C23.6167 26.2004 23.75 26.2171 23.9 26.2171C24.1833 26.2171 24.4 26.1171 24.5833 25.9337L25.85 24.6837C26.2667 24.2671 26.6667 23.9504 27.05 23.7504C27.4333 23.5171 27.8167 23.4004 28.2333 23.4004C28.55 23.4004 28.8833 23.4671 29.25 23.6171C29.6167 23.7671 30 23.9837 30.4167 24.2671L35.9333 28.1837C36.3667 28.4837 36.6667 28.8337 36.85 29.2504C37.0167 29.6671 37.1167 30.0837 37.1167 30.5504Z" fill="url(#paint2_linear_3141_98826)"/>
<defs>
<linearGradient id="paint0_linear_3141_98826" x1="24.5833" y1="10.666" x2="35.0833" y2="10.666" gradientUnits="userSpaceOnUse">
<stop stop-color="#00BAFE"/>
<stop offset="1" stop-color="#CAA7FF"/>
</linearGradient>
<linearGradient id="paint1_linear_3141_98826" x1="3.83334" y1="16.234" x2="20.15" y2="16.234" gradientUnits="userSpaceOnUse">
<stop stop-color="#00BAFE"/>
<stop offset="1" stop-color="#CAA7FF"/>
</linearGradient>
<linearGradient id="paint2_linear_3141_98826" x1="16.5" y1="30.0337" x2="37.1167" y2="30.0337" gradientUnits="userSpaceOnUse">
<stop stop-color="#00BAFE"/>
<stop offset="1" stop-color="#CAA7FF"/>
</linearGradient>
</defs>
</svg>
