<svg width="41" height="40" viewBox="0 0 41 40" fill="none" xmlns="http://www.w3.org/2000/svg">
<path d="M35.5 14.25H27.5C26.8167 14.25 26.25 13.6833 26.25 13V5C26.25 4.31667 26.8167 3.75 27.5 3.75C28.1833 3.75 28.75 4.31667 28.75 5V11.75H35.5C36.1833 11.75 36.75 12.3167 36.75 13C36.75 13.6833 36.1833 14.25 35.5 14.25Z" fill="url(#paint0_linear_3141_98893)"/>
<path opacity="0.4" d="M20.15 23.684L14.7 29.134C14.1 28.6006 13.5166 28.0506 12.95 27.484C11.2333 25.7507 9.68331 23.934 8.29998 22.034C6.93331 20.134 5.83331 18.234 5.03331 16.3507C4.23331 14.4507 3.83331 12.634 3.83331 10.9007C3.83331 9.76732 4.03331 8.68398 4.43331 7.68398C4.83331 6.66732 5.46665 5.73398 6.34998 4.90065C7.41665 3.85065 8.58331 3.33398 9.81665 3.33398C10.2833 3.33398 10.75 3.43398 11.1666 3.63398C11.6 3.83398 11.9833 4.13398 12.2833 4.56732L16.15 10.0173C16.45 10.434 16.6666 10.8173 16.8166 11.184C16.9666 11.534 17.05 11.884 17.05 12.2007C17.05 12.6007 16.9333 13.0007 16.7 13.384C16.4833 13.7673 16.1666 14.1673 15.7666 14.5673L14.5 15.884C14.3166 16.0673 14.2333 16.284 14.2333 16.5507C14.2333 16.684 14.25 16.8007 14.2833 16.934C14.3333 17.0673 14.3833 17.1673 14.4166 17.2673C14.7166 17.8173 15.2333 18.534 15.9666 19.4007C16.7166 20.2673 17.5166 21.1507 18.3833 22.034C18.9833 22.6173 19.5666 23.184 20.15 23.684Z" fill="url(#paint1_linear_3141_98893)"/>
<path d="M37.1167 30.5504C37.1167 31.0171 37.0333 31.5004 36.8667 31.9671C36.8167 32.1004 36.7667 32.2337 36.7 32.3671C36.4167 32.9671 36.05 33.5337 35.5667 34.0671C34.75 34.9671 33.85 35.6171 32.8333 36.0337C32.8167 36.0337 32.8 36.0504 32.7833 36.0504C31.8 36.4504 30.7333 36.6671 29.5833 36.6671C27.8833 36.6671 26.0667 36.2671 24.15 35.4504C22.2333 34.6337 20.3167 33.5337 18.4167 32.1504C17.7667 31.6671 17.1167 31.1837 16.5 30.6671L21.95 25.2171C22.4167 25.5671 22.8333 25.8337 23.1833 26.0171C23.2667 26.0504 23.3667 26.1004 23.4833 26.1504C23.6167 26.2004 23.75 26.2171 23.9 26.2171C24.1833 26.2171 24.4 26.1171 24.5833 25.9337L25.85 24.6837C26.2667 24.2671 26.6667 23.9504 27.05 23.7504C27.4333 23.5171 27.8167 23.4004 28.2333 23.4004C28.55 23.4004 28.8833 23.4671 29.25 23.6171C29.6167 23.7671 30 23.9837 30.4167 24.2671L35.9333 28.1837C36.3667 28.4837 36.6667 28.8337 36.85 29.2504C37.0167 29.6671 37.1167 30.0837 37.1167 30.5504Z" fill="url(#paint2_linear_3141_98893)"/>
<defs>
<linearGradient id="paint0_linear_3141_98893" x1="26.25" y1="9" x2="36.75" y2="9" gradientUnits="userSpaceOnUse">
<stop stop-color="#00BAFE"/>
<stop offset="1" stop-color="#CAA7FF"/>
</linearGradient>
<linearGradient id="paint1_linear_3141_98893" x1="3.83331" y1="16.234" x2="20.15" y2="16.234" gradientUnits="userSpaceOnUse">
<stop stop-color="#00BAFE"/>
<stop offset="1" stop-color="#CAA7FF"/>
</linearGradient>
<linearGradient id="paint2_linear_3141_98893" x1="16.5" y1="30.0337" x2="37.1167" y2="30.0337" gradientUnits="userSpaceOnUse">
<stop stop-color="#00BAFE"/>
<stop offset="1" stop-color="#CAA7FF"/>
</linearGradient>
</defs>
</svg>
