<svg width="18" height="18" viewBox="0 0 18 18" fill="none" xmlns="http://www.w3.org/2000/svg">
<path d="M11.8915 6.88079L7.3015 2.29079C7.11414 2.10454 6.86069 2 6.5965 2C6.33232 2 6.07886 2.10454 5.8915 2.29079C5.79777 2.38376 5.72338 2.49436 5.67261 2.61622C5.62184 2.73808 5.5957 2.86878 5.5957 3.00079C5.5957 3.1328 5.62184 3.26351 5.67261 3.38537C5.72338 3.50723 5.79777 3.61783 5.8915 3.71079L10.4915 8.29079C10.5852 8.38376 10.6596 8.49436 10.7104 8.61622C10.7612 8.73808 10.7873 8.86878 10.7873 9.00079C10.7873 9.13281 10.7612 9.26351 10.7104 9.38537C10.6596 9.50723 10.5852 9.61783 10.4915 9.71079L5.8915 14.2908C5.7032 14.4778 5.59688 14.7319 5.59595 14.9973C5.59501 15.2626 5.69952 15.5175 5.8865 15.7058C6.07348 15.8941 6.3276 16.0004 6.59297 16.0014C6.85833 16.0023 7.1132 15.8978 7.3015 15.7108L11.8915 11.1208C12.4533 10.5583 12.7689 9.7958 12.7689 9.00079C12.7689 8.20579 12.4533 7.44329 11.8915 6.88079Z" fill="#00BAFE"/>
</svg>
