<svg width="73" height="84" viewBox="0 0 73 84" fill="none" xmlns="http://www.w3.org/2000/svg">
<g clip-path="url(#clip0_24443_19445)">
<mask id="mask0_24443_19445" style="mask-type:luminance" maskUnits="userSpaceOnUse" x="0" y="-1" width="73" height="40">
<path d="M34.7243 38.4419C34.3177 33.9009 32.3228 29.6488 29.0904 26.4336C25.8581 23.2184 21.5954 21.246 17.0524 20.8636C17.4626 25.4032 19.4587 29.6533 22.6903 32.8678C25.9219 36.0823 30.1826 38.0558 34.7243 38.4419ZM38.008 38.4419C42.5497 38.0558 46.8103 36.0823 50.042 32.8678C53.2736 29.6533 55.2697 25.4032 55.6799 20.8636C51.1368 21.246 46.8742 23.2184 43.6418 26.4336C40.4095 29.6488 38.4146 33.9009 38.008 38.4419ZM55.0344 38.2267C59.5761 37.8406 63.8367 35.8671 67.0684 32.6526C70.3 29.4381 72.2961 25.188 72.7063 20.6484C68.1639 21.0327 63.9022 23.0056 60.6702 26.2205C57.4383 29.4353 55.4427 33.6864 55.0344 38.2267ZM17.6979 38.2267C17.2877 33.6871 15.2916 29.437 12.06 26.2225C8.82837 23.008 4.56775 21.0345 0.026001 20.6484C0.434395 25.1887 2.42992 29.4398 5.66189 32.6546C8.89387 35.8695 13.1555 37.8424 17.6979 38.2267ZM31.6839 19.2077C31.6734 23.8431 33.3341 28.3269 36.3615 31.8372C39.3878 28.3253 41.0525 23.8436 41.0525 19.2077C41.0525 14.5718 39.3878 10.09 36.3615 6.57822C33.3399 10.0882 31.6799 14.5669 31.6839 19.1983M34.7243 -0.0078125C30.1819 0.376477 25.9203 2.34941 22.6883 5.56427C19.4563 8.77914 17.4608 13.0302 17.0524 17.5705C21.5954 17.188 25.8581 15.2157 29.0904 12.0005C32.3228 8.78526 34.3177 4.53314 34.7243 -0.0078125ZM38.008 -0.0078125C38.4146 4.53314 40.4095 8.78526 43.6418 12.0005C46.8742 15.2157 51.1368 17.188 55.6799 17.5705C55.2697 13.0309 53.2736 8.78082 50.042 5.5663C46.8103 2.35178 42.5497 0.378274 38.008 -0.0078125Z" fill="white"/>
</mask>
<g mask="url(#mask0_24443_19445)">
<path d="M72.7063 -0.0078125H0.026001V38.4419H72.7063V-0.0078125Z" fill="url(#paint0_linear_24443_19445)"/>
</g>
<path d="M68.5882 68.8442C68.5901 69.2841 68.7062 69.716 68.9249 70.0977H67.9894V71.632H72.7044V70.0977H70.4592C70.2845 69.8163 70.1876 69.4934 70.1785 69.1622C70.1785 68.4887 70.6556 68.2267 71.3292 68.2267C71.6445 68.2254 71.9587 68.2631 72.2647 68.339L72.5454 66.8609C72.0783 66.7566 71.6019 66.7002 71.1234 66.6925C70.8119 66.6457 70.494 66.6662 70.1911 66.7524C69.8882 66.8387 69.6072 66.9887 69.3671 67.1925C69.127 67.3963 68.9332 67.6492 68.7989 67.934C68.6645 68.2189 68.5927 68.5292 68.5882 68.8442ZM12.3262 54.8863V61.6407C12.3262 65.1582 10.6236 66.3183 7.89186 66.3183C5.16015 66.3183 3.44816 64.8963 3.44816 62.1272C3.4706 60.8384 3.74718 59.5667 4.26206 58.3851L1.38067 57.4589C0.59939 59.0712 0.171967 60.8319 0.127075 62.623C0.127075 66.0283 2.50329 69.4055 7.80766 69.4055C12.3823 69.4055 15.6192 67.2257 15.6192 62.4826V54.8863H12.3262ZM6.35761 51.3219C6.34987 51.5579 6.39047 51.7929 6.47694 52.0126C6.5634 52.2323 6.69389 52.4319 6.86038 52.5993C7.02688 52.7667 7.22585 52.8982 7.44507 52.9858C7.66428 53.0734 7.89911 53.1153 8.13509 53.1088C8.36907 53.1157 8.60192 53.0738 8.81878 52.9857C9.03565 52.8976 9.23177 52.7653 9.39463 52.5972C9.55748 52.429 9.68349 52.2288 9.76462 52.0092C9.84575 51.7896 9.88021 51.5556 9.8658 51.3219C9.87928 51.0907 9.84383 50.8592 9.76175 50.6426C9.67967 50.426 9.55282 50.2292 9.38947 50.065C9.22613 49.9007 9.02998 49.7728 8.81383 49.6896C8.59768 49.6063 8.3664 49.5696 8.13509 49.5819C7.89977 49.5685 7.66427 49.6047 7.44382 49.6882C7.22338 49.7716 7.0229 49.9003 6.85535 50.0661C6.68781 50.2319 6.55693 50.431 6.47119 50.6505C6.38545 50.8701 6.34676 51.1052 6.35761 51.3407M19.3052 46.214V59.3112C19.3052 62.8288 20.9236 64.5314 25.4983 64.5314H28.1926C30.4004 64.5314 31.7101 63.9982 32.4959 63.2217C33.4314 64.2508 34.8628 64.5314 36.4532 64.5314C37.9269 64.6412 39.3857 64.1751 40.5227 63.2311C41.5639 64.1186 42.8971 64.5886 44.2647 64.5501C45.031 64.5947 45.7978 64.4703 46.5107 64.1858C47.2236 63.9013 47.8653 63.4636 48.3904 62.9036C49.1294 63.9327 50.4111 64.5501 52.4505 64.5501H64.6683C66.2306 57.5993 64.528 52.5755 57.6613 52.5755C56.3599 52.5799 55.0678 52.7947 53.8351 53.2117L54.5648 56.0182C55.4798 55.7684 56.4229 55.6364 57.3713 55.6253C61.7308 55.6253 62.1986 59.1709 61.7869 61.6033H52.4318C50.5608 61.6033 49.4381 60.7332 49.4381 58.7967V52.8562H46.1358V58.7125C46.1358 60.6677 45.6961 61.5658 43.8531 61.5658C42.375 61.5658 41.6172 60.9484 41.6172 59.6948V54.8863H38.3523V58.7967C38.3523 60.8361 37.7722 61.6033 36.0322 61.6033C34.7225 61.6033 33.8618 61.0981 33.8618 59.7322V54.8863H30.5688V58.7967C30.5688 60.8361 29.9513 61.6033 28.1926 61.6033H25.4983C23.4588 61.6033 22.5982 60.8736 22.5982 59.2551V46.1953L19.3052 46.214ZM68.7098 64.5501H72.0028V46.1953H68.7098V64.5501Z" fill="#074367"/>
<path d="M0.295532 80.6946C0.2991 80.3763 0.35277 80.0606 0.45457 79.7591L0.950394 79.89C0.885723 80.1156 0.848038 80.3479 0.838132 80.5823C0.838132 81.2933 1.38073 81.5833 2.55013 81.5833C3.71952 81.5833 4.23406 81.312 4.23406 80.9378C4.23406 80.3391 2.54077 80.2643 2.54077 79.2258C2.54077 78.599 3.06466 78.1406 3.93469 78.1406C4.1811 78.1465 4.42598 78.181 4.66439 78.2435L4.57084 78.7487C4.35817 78.6863 4.13762 78.6548 3.91598 78.6552C3.39209 78.6552 3.09273 78.8703 3.09273 79.1978C3.09273 79.9368 4.77665 79.8807 4.77665 80.8817C4.7696 81.0697 4.70968 81.252 4.60378 81.4075C4.49788 81.563 4.35029 81.6856 4.17792 81.7611C3.6716 82.0065 3.11225 82.1222 2.55013 82.0979C1.0533 82.1446 0.295532 81.6582 0.295532 80.6946ZM1.70816 83.0708C1.70687 83.0262 1.7147 82.9818 1.73116 82.9404C1.74763 82.899 1.77239 82.8613 1.80393 82.8298C1.83546 82.7982 1.87311 82.7735 1.91455 82.757C1.956 82.7405 2.00037 82.7327 2.04495 82.734C2.13427 82.734 2.21993 82.7695 2.28309 82.8327C2.34625 82.8958 2.38173 82.9815 2.38173 83.0708C2.38173 83.1601 2.34625 83.2458 2.28309 83.3089C2.21993 83.3721 2.13427 83.4076 2.04495 83.4076C2.00037 83.4089 1.956 83.401 1.91455 83.3846C1.87311 83.3681 1.83546 83.3434 1.80393 83.3118C1.77239 83.2803 1.74763 83.2426 1.73116 83.2012C1.7147 83.1597 1.70687 83.1154 1.70816 83.0708ZM2.64368 83.0708C2.64368 83.0042 2.66343 82.9391 2.70044 82.8837C2.73744 82.8283 2.79004 82.7851 2.85158 82.7596C2.91312 82.7342 2.98084 82.7275 3.04617 82.7405C3.1115 82.7535 3.17151 82.7856 3.21861 82.8327C3.26571 82.8798 3.29778 82.9398 3.31078 83.0051C3.32377 83.0704 3.3171 83.1381 3.29161 83.1997C3.26612 83.2612 3.22296 83.3138 3.16757 83.3508C3.11219 83.3878 3.04707 83.4076 2.98046 83.4076C2.93589 83.4089 2.89151 83.401 2.85007 83.3846C2.80862 83.3681 2.77098 83.3434 2.73944 83.3118C2.70791 83.2803 2.68315 83.2426 2.66668 83.2012C2.65021 83.1597 2.64238 83.1154 2.64368 83.0708Z" fill="#074367"/>
<path d="M7.5836 80.5218C7.66779 80.5218 7.71457 80.606 7.71457 80.7743C7.71457 80.9427 7.71457 81.0269 7.5836 81.0269H6.64808C6.5996 81.3545 6.43685 81.6544 6.18861 81.8735C5.94036 82.0926 5.62263 82.2169 5.29158 82.2244L5.17932 81.7286C5.88096 81.6257 6.11484 81.3263 6.11484 80.6153V78.2578H6.64808V80.5218H7.5836Z" fill="#074367"/>
<path d="M9.94186 80.7743C9.94186 80.9427 9.89509 81.0269 9.80153 81.0269C9.59446 81.0523 9.38437 81.0214 9.19339 80.9375C9.00241 80.8535 8.8376 80.7196 8.71634 80.5498C8.58824 80.7168 8.41959 80.8483 8.22638 80.9318C8.03318 81.0153 7.82184 81.0481 7.61243 81.0269V80.5218C8.16438 80.5218 8.37019 80.2598 8.37019 79.5862V78.2578H8.90344V79.7453C8.90344 80.2598 9.19345 80.5218 9.78282 80.5218C9.87638 80.5218 9.92315 80.606 9.92315 80.7743M8.42633 81.9531C8.43446 82.0014 8.43196 82.0509 8.41902 82.0981C8.40608 82.1453 8.38299 82.1891 8.35138 82.2265C8.31976 82.2639 8.28038 82.2939 8.23596 82.3145C8.19155 82.3351 8.14318 82.3458 8.09422 82.3458C8.04526 82.3458 7.99688 82.3351 7.95247 82.3145C7.90806 82.2939 7.86867 82.2639 7.83706 82.2265C7.80544 82.1891 7.78236 82.1453 7.76941 82.0981C7.75647 82.0509 7.75398 82.0014 7.76211 81.9531C7.75398 81.9048 7.75647 81.8553 7.76941 81.8081C7.78236 81.7609 7.80544 81.7171 7.83706 81.6797C7.86867 81.6423 7.90806 81.6123 7.95247 81.5917C7.99688 81.5711 8.04526 81.5604 8.09422 81.5604C8.14318 81.5604 8.19155 81.5711 8.23596 81.5917C8.28038 81.6123 8.31976 81.6423 8.35138 81.6797C8.38299 81.7171 8.40608 81.7609 8.41902 81.8081C8.43196 81.8553 8.43446 81.9048 8.42633 81.9531ZM9.36184 81.9531C9.36439 81.9964 9.35806 82.0398 9.34322 82.0806C9.32838 82.1213 9.30536 82.1587 9.27556 82.1902C9.24577 82.2218 9.20983 82.2469 9.16997 82.264C9.13011 82.2812 9.08716 82.29 9.04377 82.2899C8.99997 82.2899 8.95661 82.2811 8.91626 82.2641C8.87592 82.2471 8.8394 82.2221 8.80887 82.1907C8.77834 82.1593 8.75442 82.1221 8.73852 82.0813C8.72263 82.0405 8.71508 81.9969 8.71634 81.9531C8.71496 81.9077 8.72305 81.8625 8.74008 81.8204C8.75712 81.7783 8.78273 81.7402 8.81528 81.7085C8.84784 81.6768 8.88662 81.6523 8.92918 81.6364C8.97174 81.6205 9.01713 81.6137 9.06248 81.6163C9.10587 81.6162 9.14882 81.625 9.18868 81.6422C9.22854 81.6593 9.26448 81.6844 9.29427 81.716C9.32407 81.7475 9.34709 81.7848 9.36193 81.8256C9.37677 81.8664 9.3831 81.9098 9.38055 81.9531" fill="#074367"/>
<path d="M13.5151 80.5182C13.5993 80.5182 13.6461 80.6024 13.6461 80.7708C13.6461 80.9392 13.6461 81.0234 13.5151 81.0234H9.77307V80.5182H12.1399C12.2615 79.9288 12.2241 78.6472 10.8583 78.6472C10.6107 78.6553 10.3654 78.6962 10.1286 78.7688L10.007 78.2917C10.3075 78.1859 10.6239 78.1322 10.9425 78.1326C11.2196 78.1075 11.4986 78.1526 11.7536 78.2638C12.0087 78.375 12.2317 78.5487 12.4019 78.7688C12.6963 79.2845 12.7928 79.8898 12.6732 80.4714L13.5151 80.5182ZM10.6337 77.0568C10.6256 77.0085 10.6281 76.959 10.6411 76.9118C10.654 76.8646 10.6771 76.8208 10.7087 76.7834C10.7403 76.746 10.7797 76.716 10.8241 76.6953C10.8685 76.6747 10.9169 76.6641 10.9659 76.6641C11.0148 76.6641 11.0632 76.6747 11.1076 76.6953C11.152 76.716 11.1914 76.746 11.223 76.7834C11.2546 76.8208 11.2777 76.8646 11.2907 76.9118C11.3036 76.959 11.3061 77.0085 11.298 77.0568C11.3004 77.1454 11.2704 77.2319 11.2138 77.3C11.0267 77.4965 10.5963 77.3562 10.6337 77.0568Z" fill="#074367"/>
<path d="M13.5143 80.5167C13.626 80.53 13.7393 80.5203 13.8471 80.4881C13.9549 80.4559 14.0549 80.402 14.1411 80.3296C14.2588 80.1087 14.3107 79.8587 14.2908 79.6093V75.8672H14.8147V79.8244C14.8147 80.6009 14.3843 81.0032 13.5143 81.0032V80.5167Z" fill="#074367"/>
<path d="M16.3678 75.8906H15.8346V81.0266H16.3678V75.8906Z" fill="#074367"/>
<path d="M23.4684 80.5214C23.5526 80.5214 23.5994 80.6056 23.5994 80.774C23.5994 80.9424 23.5526 81.0266 23.4684 81.0266H22.6451C22.5133 81.3804 22.2688 81.681 21.9493 81.8822C21.6298 82.0834 21.253 82.1739 20.877 82.1399C20.4022 82.1637 19.9354 82.0104 19.5673 81.7095C19.3917 81.5716 19.2499 81.3954 19.1526 81.1944C19.0554 80.9934 19.0052 80.7728 19.006 80.5495C19.0178 80.1315 19.1166 79.7205 19.296 79.3427L19.7638 79.5111C19.6462 79.83 19.5738 80.1638 19.5486 80.5027C19.5486 81.2511 19.9789 81.6253 20.8396 81.6253C21.7003 81.6253 22.14 81.2044 22.1587 80.3624V75.8906H22.7481V80.5682L23.4684 80.5214Z" fill="#074367"/>
<path d="M27.4266 80.5217C27.5108 80.5217 27.5576 80.6059 27.5576 80.7743C27.5576 80.9427 27.5108 81.0269 27.4266 81.0269H26.3882C26.0526 81.2799 25.6383 81.4058 25.2188 81.3824H24.8165C24.6792 81.2811 24.5565 81.1615 24.4517 81.0269H23.4694V80.5217H24.1616C24.0867 80.3245 24.0486 80.1152 24.0494 79.9043C24.0433 79.7114 24.0776 79.5194 24.1501 79.3406C24.2226 79.1617 24.3317 79 24.4704 78.8658C24.6162 78.7318 24.7873 78.628 24.9736 78.5606C25.1599 78.4931 25.3577 78.4633 25.5556 78.4729C25.7454 78.457 25.9363 78.4869 26.1121 78.5601C26.2879 78.6334 26.4436 78.7479 26.5659 78.8939C26.7856 79.1873 26.8979 79.5473 26.884 79.9136C26.8888 80.121 26.8538 80.3274 26.7811 80.5217H27.4266ZM25.3685 80.8772C25.5025 80.8857 25.6368 80.8653 25.7623 80.8172C25.8877 80.7692 26.0013 80.6947 26.0954 80.5989C26.1895 80.503 26.2618 80.388 26.3075 80.2617C26.3532 80.1354 26.3711 80.0007 26.3601 79.8668C26.3741 79.7508 26.3624 79.6331 26.3257 79.5221C26.289 79.4111 26.2283 79.3095 26.1479 79.2247C26.0675 79.1398 25.9694 79.0737 25.8605 79.0311C25.7517 78.9885 25.6348 78.9704 25.5181 78.9781C25.392 78.9649 25.2646 78.98 25.1451 79.0223C25.0255 79.0646 24.917 79.1332 24.8273 79.2228C24.7377 79.3125 24.6692 79.421 24.6268 79.5405C24.5845 79.6601 24.5694 79.7875 24.5826 79.9136C24.5867 80.2648 24.7276 80.6004 24.9755 80.8491L25.3685 80.8772Z" fill="#074367"/>
<path d="M31.3831 80.531C31.4673 80.531 31.5235 80.6152 31.5235 80.7836C31.5235 80.952 31.4673 81.0362 31.3831 81.0362H30.9341C30.3778 81.0487 29.8236 80.9632 29.2969 80.7836C28.7685 80.9693 28.2102 81.055 27.6504 81.0362H27.4259V80.531H27.7533C28.1443 80.5431 28.535 80.499 28.9134 80.4C28.7263 80.1568 28.5298 79.9229 28.2398 79.5955L27.903 79.2213C27.9216 79.0271 27.9624 78.8356 28.0246 78.6506C28.4577 78.3647 28.9651 78.2118 29.484 78.2109C30.2886 78.2109 30.8031 78.5851 30.8031 79.2213C30.7856 79.4775 30.7012 79.7246 30.5584 79.938C30.4156 80.1514 30.2194 80.3236 29.9892 80.4375C30.2968 80.5019 30.6105 80.5333 30.9247 80.531H31.3831ZM28.3614 79.0248C28.7665 79.375 29.1334 79.767 29.456 80.1942C29.9705 79.9416 30.2792 79.6236 30.2792 79.2587C30.2792 78.8939 29.9612 78.6881 29.3905 78.6881C29.0331 78.6908 28.6823 78.7842 28.3708 78.9594L28.3614 79.0248Z" fill="#074367"/>
<path d="M33.704 80.7693C33.704 80.9377 33.6572 81.0219 33.573 81.0219C33.3703 81.0449 33.165 81.0157 32.9768 80.9371C32.7885 80.8585 32.6234 80.7331 32.4972 80.5728C32.3657 80.7369 32.1943 80.8644 31.9993 80.943C31.8043 81.0216 31.5924 81.0488 31.3839 81.0219V80.5167C31.4957 80.5312 31.6092 80.522 31.7172 80.4897C31.8252 80.4575 31.9252 80.4029 32.0107 80.3296C32.1326 80.1103 32.1848 79.859 32.1604 79.6093V75.8672H32.6936V79.7215C32.6936 80.2361 32.9836 80.498 33.573 80.498C33.6572 80.498 33.704 80.5822 33.704 80.7506" fill="#074367"/>
<path d="M33.5724 80.5167C33.6841 80.53 33.7974 80.5203 33.9052 80.4881C34.013 80.4559 34.113 80.402 34.1992 80.3296C34.3211 80.1103 34.3733 79.859 34.3489 79.6093V75.8672H34.9102V79.8244C34.9102 80.6009 34.4798 81.0032 33.6098 81.0032L33.5724 80.5167Z" fill="#074367"/>
<path d="M41.1778 80.7806C41.1778 80.949 41.131 81.0332 41.0468 81.0332C40.4294 81.0332 40.0458 80.9116 39.9055 80.6777C39.6133 80.8164 39.2934 80.8867 38.97 80.8835C38.1093 80.8835 37.548 80.4345 37.548 79.6674C37.548 78.9002 38.1561 78.2641 39.1664 78.2641H40.3077V79.8451C40.3077 80.3877 40.4949 80.528 41.0468 80.528C41.131 80.528 41.1778 80.6122 41.1778 80.7806ZM39.7558 78.7693H39.0635C38.4835 78.7693 38.128 79.0686 38.128 79.6112C38.128 80.1538 38.4367 80.369 39.0635 80.369C39.3205 80.3799 39.5757 80.3217 39.8026 80.2006L39.7558 78.7693ZM38.3432 77.1415C38.3432 77.0745 38.3632 77.009 38.4006 76.9534C38.4381 76.8979 38.4912 76.8547 38.5533 76.8295C38.6154 76.8043 38.6836 76.7982 38.7492 76.812C38.8147 76.8258 38.8747 76.8588 38.9214 76.9068C38.9681 76.9549 38.9994 77.0158 39.0114 77.0817C39.0233 77.1476 39.0153 77.2156 38.9883 77.277C38.9614 77.3383 38.9168 77.3902 38.8602 77.4261C38.8036 77.462 38.7376 77.4801 38.6706 77.4783C38.6264 77.4796 38.5824 77.4718 38.5415 77.4552C38.5005 77.4387 38.4634 77.4137 38.4326 77.3821C38.4018 77.3504 38.3779 77.3126 38.3625 77.2712C38.3471 77.2298 38.3405 77.1856 38.3432 77.1415ZM39.2787 77.1415C39.2787 77.0749 39.2984 77.0097 39.3354 76.9544C39.3724 76.899 39.425 76.8558 39.4866 76.8303C39.5481 76.8048 39.6158 76.7982 39.6812 76.8112C39.7465 76.8242 39.8065 76.8562 39.8536 76.9033C39.9007 76.9504 39.9328 77.0104 39.9458 77.0758C39.9588 77.1411 39.9521 77.2088 39.9266 77.2704C39.9011 77.3319 39.858 77.3845 39.8026 77.4215C39.7472 77.4585 39.6821 77.4783 39.6155 77.4783C39.5709 77.4796 39.5265 77.4717 39.4851 77.4553C39.4436 77.4388 39.406 77.414 39.3744 77.3825C39.3429 77.351 39.3181 77.3133 39.3017 77.2719C39.2852 77.2304 39.2774 77.1861 39.2787 77.1415Z" fill="#074367"/>
<path d="M43.4042 80.7743C43.4042 80.9427 43.3574 81.0269 43.2639 81.0269C43.0569 81.0513 42.8471 81.02 42.6563 80.9361C42.4655 80.8522 42.3006 80.7188 42.1787 80.5498C42.0533 80.7175 41.8864 80.8496 41.6945 80.9332C41.5026 81.0169 41.2923 81.0492 41.0841 81.0269V80.5218C41.6361 80.5218 41.8419 80.2598 41.8419 79.5862V78.2578H42.3938V79.7453C42.3938 80.2598 42.6838 80.5218 43.2732 80.5218C43.3668 80.5218 43.4135 80.606 43.4135 80.7743M41.898 81.9531C41.8993 81.9977 41.8915 82.042 41.875 82.0835C41.8585 82.1249 41.8338 82.1626 41.8022 82.1941C41.7707 82.2257 41.7331 82.2504 41.6916 82.2669C41.6502 82.2833 41.6058 82.2912 41.5612 82.2899C41.5174 82.2899 41.4741 82.2811 41.4337 82.2641C41.3934 82.2471 41.3569 82.2221 41.3263 82.1907C41.2958 82.1593 41.2719 82.1221 41.256 82.0813C41.2401 82.0405 41.2325 81.9969 41.2338 81.9531C41.2257 81.9048 41.2282 81.8553 41.2411 81.8081C41.254 81.7609 41.2771 81.7171 41.3087 81.6797C41.3404 81.6423 41.3797 81.6123 41.4242 81.5917C41.4686 81.5711 41.5169 81.5604 41.5659 81.5604C41.6149 81.5604 41.6632 81.5711 41.7076 81.5917C41.7521 81.6123 41.7914 81.6423 41.8231 81.6797C41.8547 81.7171 41.8778 81.7609 41.8907 81.8081C41.9036 81.8553 41.9061 81.9048 41.898 81.9531ZM42.8335 81.9531C42.8417 82.0014 42.8392 82.0509 42.8262 82.0981C42.8133 82.1453 42.7902 82.1891 42.7586 82.2265C42.727 82.2639 42.6876 82.2939 42.6432 82.3145C42.5987 82.3351 42.5504 82.3458 42.5014 82.3458C42.4525 82.3458 42.4041 82.3351 42.3597 82.3145C42.3153 82.2939 42.2759 82.2639 42.2443 82.2265C42.2126 82.1891 42.1896 82.1453 42.1766 82.0981C42.1637 82.0509 42.1612 82.0014 42.1693 81.9531C42.1612 81.9048 42.1637 81.8553 42.1766 81.8081C42.1896 81.7609 42.2126 81.7171 42.2443 81.6797C42.2759 81.6423 42.3153 81.6123 42.3597 81.5917C42.4041 81.5711 42.4525 81.5604 42.5014 81.5604C42.5504 81.5604 42.5987 81.5711 42.6432 81.5917C42.6876 81.6123 42.727 81.6423 42.7586 81.6797C42.7902 81.7171 42.8133 81.7609 42.8262 81.8081C42.8392 81.8553 42.8417 81.9048 42.8335 81.9531Z" fill="#074367"/>
<path d="M45.6321 80.7663C45.6321 80.9346 45.5853 81.0188 45.5011 81.0188C45.2927 81.045 45.081 81.0145 44.8884 80.9305C44.6958 80.8466 44.5293 80.7123 44.4066 80.5417C44.2732 80.7125 44.0982 80.846 43.8983 80.9296C43.6985 81.0132 43.4804 81.0439 43.2653 81.0188V80.5137C43.864 80.5137 44.0885 80.2704 44.0885 79.5782V78.2497H44.6124V79.7372C44.6124 80.2517 44.9024 80.5137 45.5479 80.5137C45.6321 80.5137 45.6789 80.5979 45.6789 80.7663M44.0604 77.1271C44.0523 77.0788 44.0548 77.0293 44.0678 76.9821C44.0807 76.9349 44.1038 76.8911 44.1354 76.8537C44.167 76.8163 44.2064 76.7863 44.2508 76.7657C44.2952 76.7451 44.3436 76.7344 44.3926 76.7344C44.4415 76.7344 44.4899 76.7451 44.5343 76.7657C44.5787 76.7863 44.6181 76.8163 44.6497 76.8537C44.6813 76.8911 44.7044 76.9349 44.7174 76.9821C44.7303 77.0293 44.7328 77.0788 44.7247 77.1271C44.7266 77.1719 44.7192 77.2166 44.7031 77.2584C44.687 77.3003 44.6625 77.3384 44.6311 77.3703C44.4534 77.5668 44.023 77.4265 44.0604 77.1271Z" fill="#074367"/>
<path d="M50.1688 78.669C50.4352 79.017 50.5709 79.4474 50.5524 79.8852C50.5513 80.2732 50.4881 80.6585 50.3653 81.0265H45.5006V80.5213H46.1368V75.8438H46.67V79.6419C46.9128 79.2217 47.2526 78.8657 47.6611 78.6036C48.0697 78.3416 48.535 78.1812 49.0182 78.1358C49.2291 78.1217 49.4404 78.1585 49.6341 78.2432C49.8279 78.3279 49.9984 78.4579 50.1314 78.6222M49.8975 80.4933C49.9524 80.2888 49.9807 80.0781 49.9817 79.8665C49.9817 79.1648 49.6262 78.669 48.962 78.669C48.5302 78.6943 48.1189 78.8621 47.7926 79.1461C47.3359 79.5145 46.9601 79.9731 46.6887 80.4933H49.8975Z" fill="#074367"/>
<path d="M51.7496 81.7059C52.8816 81.7808 53.4429 81.5001 53.4429 80.8733C53.2134 80.9756 52.9644 81.0267 52.7132 81.023C52.5288 81.0412 52.3428 81.0189 52.1679 80.9577C51.9931 80.8965 51.8338 80.7978 51.701 80.6686C51.5683 80.5395 51.4653 80.3828 51.3994 80.2097C51.3334 80.0367 51.3061 79.8513 51.3193 79.6665C51.3085 79.2827 51.442 78.9089 51.6935 78.6187C51.8698 78.4141 52.1052 78.269 52.3673 78.2033C52.6294 78.1377 52.9053 78.1547 53.1574 78.252C53.4094 78.3493 53.6252 78.5222 53.7751 78.747C53.925 78.9717 54.0018 79.2374 53.9948 79.5075V80.7704C54.0024 80.9671 53.9679 81.1631 53.8937 81.3454C53.8194 81.5277 53.7072 81.692 53.5645 81.8275C53.1453 82.1318 52.6305 82.2746 52.1144 82.2298H51.7964L51.7496 81.7059ZM53.4709 80.443V79.7226C53.4709 79.0678 53.209 78.7403 52.6851 78.7403C52.568 78.7404 52.4522 78.7657 52.3457 78.8146C52.2393 78.8634 52.1446 78.9347 52.0682 79.0235C51.9919 79.1124 51.9355 79.2166 51.9032 79.3292C51.8708 79.4418 51.8631 79.56 51.8806 79.6758C51.8806 80.2652 52.1893 80.6114 52.8161 80.6114C53.0419 80.6174 53.2669 80.5826 53.4803 80.5085" fill="#074367"/>
<path d="M60.1691 80.7808C60.1691 80.9492 60.1224 81.0334 60.0288 81.0334C59.4114 81.0334 59.0372 80.9117 58.8875 80.6779C58.5957 80.8178 58.2755 80.8882 57.952 80.8837C57.0913 80.8837 56.5206 80.4346 56.5206 79.6675C56.5214 79.4646 56.5655 79.2642 56.6501 79.0798C56.7347 78.8953 56.8578 78.7311 57.0111 78.5982C57.1644 78.4653 57.3444 78.3667 57.5389 78.3091C57.7335 78.2515 57.9381 78.2362 58.1391 78.2642H59.2898V79.8453C59.2898 80.3879 59.4769 80.5282 60.0195 80.5282C60.113 80.5282 60.1598 80.6124 60.1598 80.7808M58.7378 78.7694H58.0455C57.4749 78.7694 57.11 79.0688 57.11 79.6114C57.11 80.154 57.4281 80.3691 58.0455 80.3691C58.2995 80.3802 58.5517 80.3219 58.7752 80.2008L58.7378 78.7694ZM57.3626 77.1416C57.3613 77.097 57.3691 77.0527 57.3856 77.0112C57.4021 76.9698 57.4268 76.9321 57.4584 76.9006C57.4899 76.8691 57.5275 76.8443 57.569 76.8278C57.6104 76.8114 57.6548 76.8035 57.6994 76.8048C57.7887 76.8048 57.8744 76.8403 57.9375 76.9035C58.0007 76.9666 58.0362 77.0523 58.0362 77.1416C58.0362 77.2309 58.0007 77.3166 57.9375 77.3798C57.8744 77.4429 57.7887 77.4784 57.6994 77.4784C57.6548 77.4797 57.6104 77.4719 57.569 77.4554C57.5275 77.4389 57.4899 77.4142 57.4584 77.3826C57.4268 77.3511 57.4021 77.3135 57.3856 77.272C57.3691 77.2306 57.3613 77.1862 57.3626 77.1416ZM58.2981 77.1416C58.2968 77.097 58.3046 77.0527 58.3211 77.0112C58.3376 76.9698 58.3623 76.9321 58.3939 76.9006C58.4254 76.8691 58.4631 76.8443 58.5045 76.8278C58.5459 76.8114 58.5903 76.8035 58.6349 76.8048C58.7242 76.8048 58.8099 76.8403 58.873 76.9035C58.9362 76.9666 58.9717 77.0523 58.9717 77.1416C58.9717 77.2309 58.9362 77.3166 58.873 77.3798C58.8099 77.4429 58.7242 77.4784 58.6349 77.4784C58.5903 77.4797 58.5459 77.4719 58.5045 77.4554C58.4631 77.4389 58.4254 77.4142 58.3939 77.3826C58.3623 77.3511 58.3376 77.3135 58.3211 77.272C58.3046 77.2306 58.2968 77.1862 58.2981 77.1416Z" fill="#074367"/>
<path d="M66.7181 80.5216C66.8117 80.5216 66.8584 80.6058 66.8584 80.7742C66.8584 80.9425 66.8117 81.0267 66.7181 81.0267H61.9283C61.7531 81.0547 61.5736 81.0346 61.4089 80.9687C61.2442 80.9028 61.1004 80.7936 60.9927 80.6525C60.8431 80.9051 60.5156 81.0267 60.0011 81.0267V80.5216C60.4969 80.5216 60.6934 80.297 60.6934 79.6702V78.7347H61.2173V79.9415C61.2071 80.0591 61.2392 80.1765 61.3078 80.2725C61.3764 80.3685 61.477 80.4369 61.5915 80.4654C62.4428 78.9312 63.3877 78.1641 64.398 78.1641C65.4084 78.1641 65.9042 78.8376 65.9042 79.8667C65.9042 80.0804 65.8822 80.2936 65.8387 80.5029L66.7181 80.5216ZM65.3429 80.5216C65.3971 80.3234 65.4254 80.119 65.4271 79.9135C65.4271 79.1931 65.0529 78.6973 64.398 78.6973C63.7432 78.6973 62.9012 79.3054 62.1902 80.5683L65.3429 80.5216Z" fill="#074367"/>
<path d="M69.0755 80.7663C69.0755 80.9346 69.0755 81.0188 68.9445 81.0188C68.736 81.045 68.5244 81.0145 68.3317 80.9305C68.1391 80.8466 67.9727 80.7123 67.8499 80.5417C67.7166 80.7125 67.5416 80.846 67.3417 80.9296C67.1418 81.0132 66.9238 81.0439 66.7086 81.0188V80.5137C67.3073 80.5137 67.5319 80.2704 67.5319 79.5782V78.2497H68.0558V79.7372C68.0558 80.2517 68.3458 80.5137 68.9445 80.5137C69.0287 80.5137 69.0755 80.5979 69.0755 80.7663ZM67.457 77.1271C67.4489 77.0788 67.4514 77.0293 67.4643 76.9821C67.4773 76.9349 67.5004 76.8911 67.532 76.8537C67.5636 76.8163 67.603 76.7863 67.6474 76.7657C67.6918 76.7451 67.7402 76.7344 67.7891 76.7344C67.8381 76.7344 67.8865 76.7451 67.9309 76.7657C67.9753 76.7863 68.0147 76.8163 68.0463 76.8537C68.0779 76.8911 68.101 76.9349 68.1139 76.9821C68.1269 77.0293 68.1294 77.0788 68.1212 77.1271C68.1231 77.1719 68.1158 77.2166 68.0997 77.2584C68.0836 77.3003 68.0591 77.3384 68.0277 77.3703C67.85 77.5668 67.4196 77.4265 67.457 77.1271Z" fill="#074367"/>
<path d="M70.9834 78.1691C71.1689 78.16 71.354 78.1922 71.5255 78.2633C71.697 78.3345 71.8506 78.4429 71.975 78.5807C72.2196 78.8626 72.3468 79.2276 72.3305 79.6004C72.3305 80.4237 71.8534 81.013 70.7589 81.013H68.944V80.5079H69.814C69.6098 80.2396 69.5041 79.9093 69.5146 79.5723C69.5099 79.381 69.5448 79.1908 69.6173 79.0137C69.6898 78.8366 69.7981 78.6764 69.9356 78.5433C70.2184 78.2767 70.5948 78.1321 70.9834 78.141M70.815 80.4798C70.9411 80.493 71.0686 80.4779 71.1881 80.4356C71.3076 80.3933 71.4162 80.3248 71.5058 80.2351C71.5955 80.1454 71.664 80.0369 71.7063 79.9174C71.7487 79.7979 71.7638 79.6704 71.7505 79.5443C71.7505 79.316 71.6598 79.0971 71.4984 78.9357C71.337 78.7743 71.1181 78.6836 70.8898 78.6836C70.6616 78.6836 70.4427 78.7743 70.2813 78.9357C70.1199 79.0971 70.0292 79.316 70.0292 79.5443C70.0312 79.8887 70.1575 80.2209 70.3847 80.4798H70.815Z" fill="#074367"/>
</g>
<defs>
<linearGradient id="paint0_linear_24443_19445" x1="36.9497" y1="38.5949" x2="36.9497" y2="19.7104" gradientUnits="userSpaceOnUse">
<stop stop-color="#064367"/>
<stop offset="1" stop-color="#188F7A"/>
</linearGradient>
<clipPath id="clip0_24443_19445">
<rect width="72.409" height="84" fill="white" transform="translate(0.295532)"/>
</clipPath>
</defs>
</svg>
