<svg width="25" height="28" viewBox="0 0 25 28" fill="none" xmlns="http://www.w3.org/2000/svg">
<g clip-path="url(#clip0_24498_7065)">
<mask id="mask0_24498_7065" style="mask-type:luminance" maskUnits="userSpaceOnUse" x="0" y="-1" width="25" height="14">
<path d="M11.6427 12.8063C11.5072 11.2927 10.8422 9.87529 9.76476 8.80355C8.68732 7.73181 7.26644 7.07436 5.75209 6.94687C5.88882 8.46008 6.55418 9.87678 7.63139 10.9483C8.7086 12.0198 10.1288 12.6776 11.6427 12.8063ZM12.7373 12.8063C14.2512 12.6776 15.6714 12.0198 16.7486 10.9483C17.8258 9.87678 18.4912 8.46008 18.6279 6.94687C17.1136 7.07436 15.6927 7.73181 14.6152 8.80355C13.5378 9.87529 12.8728 11.2927 12.7373 12.8063ZM18.4127 12.7346C19.9267 12.6059 21.3469 11.9481 22.4241 10.8766C23.5013 9.80505 24.1666 8.38836 24.3034 6.87514C22.7892 7.00324 21.3687 7.66088 20.2914 8.73251C19.214 9.80413 18.5489 11.2212 18.4127 12.7346ZM5.96726 12.7346C5.83053 11.2214 5.16516 9.80469 4.08795 8.73318C3.01075 7.66168 1.59054 7.00384 0.076622 6.87514C0.212753 8.38858 0.877927 9.80561 1.95525 10.8772C3.03258 11.9489 4.45312 12.6065 5.96726 12.7346ZM10.6292 6.39491C10.6258 7.94004 11.1793 9.43464 12.1884 10.6047C13.1972 9.43413 13.7521 7.94021 13.7521 6.39491C13.7521 4.84962 13.1972 3.35569 12.1884 2.18509C11.1813 3.35509 10.6279 4.84799 10.6292 6.3918M11.6427 -0.0102539C10.1286 0.117843 8.70804 0.775486 7.63072 1.84711C6.55339 2.91873 5.88822 4.33576 5.75209 5.8492C7.26644 5.7217 8.68732 5.06425 9.76476 3.99251C10.8422 2.92077 11.5072 1.5034 11.6427 -0.0102539ZM12.7373 -0.0102539C12.8728 1.5034 13.5378 2.92077 14.6152 3.99251C15.6927 5.06425 17.1136 5.7217 18.6279 5.8492C18.4912 4.33599 17.8258 2.91929 16.7486 1.84778C15.6714 0.776278 14.2512 0.118442 12.7373 -0.0102539Z" fill="white"/>
</mask>
<g mask="url(#mask0_24498_7065)">
<path d="M24.3034 -0.0102539H0.076622V12.8063H24.3034V-0.0102539Z" fill="url(#paint0_linear_24498_7065)"/>
</g>
<path d="M22.9311 22.9456C22.9317 23.0923 22.9704 23.2362 23.0433 23.3635H22.7315V23.8749H24.3032V23.3635H23.5547C23.4965 23.2696 23.4642 23.162 23.4612 23.0516C23.4612 22.8271 23.6202 22.7398 23.8447 22.7398C23.9498 22.7393 24.0546 22.7519 24.1566 22.7772L24.2501 22.2845C24.0945 22.2498 23.9356 22.231 23.7761 22.2284C23.6723 22.2128 23.5664 22.2196 23.4654 22.2484C23.3644 22.2771 23.2708 22.3271 23.1907 22.3951C23.1107 22.463 23.0461 22.5473 23.0013 22.6422C22.9565 22.7372 22.9326 22.8406 22.9311 22.9456ZM4.17708 18.293V20.5445C4.17708 21.717 3.60953 22.1036 2.69896 22.1036C1.7884 22.1036 1.21773 21.6297 1.21773 20.7066C1.22521 20.277 1.3174 19.8531 1.48903 19.4593L0.528566 19.1505C0.268141 19.688 0.125666 20.2749 0.110703 20.8719C0.110703 22.007 0.902773 23.1327 2.6709 23.1327C4.19579 23.1327 5.27475 22.4061 5.27475 20.8251V18.293H4.17708ZM2.18755 17.1049C2.18497 17.1835 2.1985 17.2619 2.22732 17.3351C2.25614 17.4083 2.29964 17.4749 2.35514 17.5307C2.41064 17.5865 2.47696 17.6303 2.55003 17.6595C2.62311 17.6887 2.70138 17.7027 2.78004 17.7005C2.85803 17.7028 2.93565 17.6888 3.00794 17.6595C3.08023 17.6301 3.1456 17.586 3.19989 17.5299C3.25417 17.4739 3.29618 17.4072 3.32322 17.334C3.35026 17.2608 3.36175 17.1827 3.35694 17.1049C3.36144 17.0278 3.34962 16.9506 3.32226 16.8784C3.2949 16.8062 3.25262 16.7406 3.19817 16.6859C3.14372 16.6311 3.07834 16.5885 3.00629 16.5608C2.93424 16.533 2.85714 16.5208 2.78004 16.5249C2.7016 16.5204 2.6231 16.5325 2.54962 16.5603C2.47614 16.5881 2.40931 16.631 2.35346 16.6863C2.29761 16.7415 2.25399 16.8079 2.22541 16.8811C2.19683 16.9543 2.18393 17.0326 2.18755 17.1111M6.5034 15.4022V19.768C6.5034 20.9405 7.04288 21.508 8.56777 21.508H9.46587C10.2018 21.508 10.6384 21.3303 10.9003 21.0715C11.2122 21.4145 11.6893 21.508 12.2194 21.508C12.7106 21.5446 13.1969 21.3893 13.5759 21.0746C13.923 21.3704 14.3674 21.5271 14.8233 21.5143C15.0787 21.5291 15.3343 21.4877 15.5719 21.3928C15.8095 21.298 16.0234 21.1521 16.1985 20.9654C16.4448 21.3085 16.872 21.5143 17.5518 21.5143H21.6245C22.1452 19.1973 21.5777 17.5227 19.2888 17.5227C18.855 17.5242 18.4243 17.5958 18.0134 17.7348L18.2566 18.6703C18.5616 18.587 18.876 18.543 19.1921 18.5393C20.6453 18.5393 20.8012 19.7212 20.664 20.532H17.5456C16.9219 20.532 16.5477 20.242 16.5477 19.5965V17.6163H15.4469V19.5684C15.4469 20.2201 15.3004 20.5195 14.686 20.5195C14.1933 20.5195 13.9408 20.3137 13.9408 19.8958V18.293H12.8524V19.5965C12.8524 20.2763 12.6591 20.532 12.0791 20.532C11.6425 20.532 11.3556 20.3636 11.3556 19.9083V18.293H10.2579V19.5965C10.2579 20.2763 10.0521 20.532 9.46587 20.532H8.56777C7.88796 20.532 7.60107 20.2887 7.60107 19.7493V15.396L6.5034 15.4022ZM22.9716 21.5143H24.0693V15.396H22.9716V21.5143Z" fill="#074367"/>
<path d="M0.166885 26.8962C0.168074 26.7902 0.185965 26.6849 0.219898 26.5844L0.385173 26.6281C0.363615 26.7032 0.351054 26.7807 0.347752 26.8588C0.347752 27.0958 0.528618 27.1925 0.918417 27.1925C1.30822 27.1925 1.47973 27.1021 1.47973 26.9773C1.47973 26.7777 0.915298 26.7528 0.915298 26.4067C0.915298 26.1977 1.08993 26.0449 1.37994 26.0449C1.46207 26.0469 1.5437 26.0584 1.62317 26.0792L1.59199 26.2476C1.5211 26.2268 1.44758 26.2163 1.3737 26.2164C1.19907 26.2164 1.09928 26.2882 1.09928 26.3973C1.09928 26.6437 1.66059 26.6249 1.66059 26.9586C1.65824 27.0213 1.63827 27.082 1.60297 27.1339C1.56767 27.1857 1.51847 27.2266 1.46102 27.2517C1.29224 27.3335 1.10579 27.3721 0.918417 27.364C0.419475 27.3796 0.166885 27.2174 0.166885 26.8962ZM0.637762 27.6883C0.637331 27.6735 0.63994 27.6587 0.645429 27.6448C0.650918 27.631 0.659172 27.6185 0.669683 27.608C0.680195 27.5975 0.692743 27.5892 0.706558 27.5837C0.720374 27.5782 0.735164 27.5756 0.750024 27.5761C0.779798 27.5761 0.808352 27.5879 0.829405 27.6089C0.850458 27.63 0.862286 27.6585 0.862286 27.6883C0.862286 27.7181 0.850458 27.7466 0.829405 27.7677C0.808352 27.7887 0.779798 27.8006 0.750024 27.8006C0.735164 27.801 0.720374 27.7984 0.706558 27.7929C0.692743 27.7874 0.680195 27.7792 0.669683 27.7687C0.659172 27.7581 0.650918 27.7456 0.645429 27.7318C0.63994 27.718 0.637331 27.7032 0.637762 27.6883ZM0.949601 27.6883C0.949601 27.6661 0.956185 27.6444 0.96852 27.6259C0.980856 27.6075 0.998389 27.5931 1.0189 27.5846C1.03942 27.5761 1.06199 27.5739 1.08376 27.5782C1.10554 27.5825 1.12554 27.5932 1.14124 27.6089C1.15694 27.6246 1.16764 27.6446 1.17197 27.6664C1.1763 27.6882 1.17408 27.7108 1.16558 27.7313C1.15708 27.7518 1.14269 27.7693 1.12423 27.7817C1.10577 27.794 1.08407 27.8006 1.06186 27.8006C1.047 27.801 1.03221 27.7984 1.0184 27.7929C1.00458 27.7874 0.992034 27.7792 0.981522 27.7687C0.971011 27.7581 0.962757 27.7456 0.957268 27.7318C0.951779 27.718 0.94917 27.7032 0.949601 27.6883Z" fill="#074367"/>
<path d="M2.59618 26.8384C2.62425 26.8384 2.63984 26.8665 2.63984 26.9226C2.63984 26.9787 2.63984 27.0068 2.59618 27.0068H2.28434C2.26818 27.116 2.21393 27.2159 2.13118 27.289C2.04844 27.362 1.94252 27.4034 1.83217 27.4059L1.79475 27.2407C2.02863 27.2064 2.10659 27.1066 2.10659 26.8696V26.0837H2.28434V26.8384H2.59618Z" fill="#074367"/>
<path d="M3.38189 26.9226C3.38189 26.9787 3.36629 27.0068 3.33511 27.0068C3.26609 27.0153 3.19606 27.0049 3.13239 26.977C3.06873 26.949 3.0138 26.9043 2.97338 26.8477C2.93068 26.9034 2.87446 26.9472 2.81006 26.9751C2.74566 27.0029 2.67521 27.0138 2.60541 27.0068V26.8384C2.78939 26.8384 2.858 26.7511 2.858 26.5266V26.0837H3.03575V26.5796C3.03575 26.7511 3.13242 26.8384 3.32887 26.8384C3.36006 26.8384 3.37565 26.8665 3.37565 26.9226M2.87671 27.3155C2.87942 27.3316 2.87859 27.3481 2.87427 27.3638C2.86996 27.3796 2.86226 27.3942 2.85172 27.4066C2.84119 27.4191 2.82806 27.4291 2.81325 27.436C2.79845 27.4429 2.78232 27.4464 2.766 27.4464C2.74968 27.4464 2.73356 27.4429 2.71876 27.436C2.70395 27.4291 2.69082 27.4191 2.68028 27.4066C2.66975 27.3942 2.66205 27.3796 2.65774 27.3638C2.65342 27.3481 2.65259 27.3316 2.6553 27.3155C2.65259 27.2994 2.65342 27.2829 2.65774 27.2672C2.66205 27.2514 2.66975 27.2368 2.68028 27.2244C2.69082 27.2119 2.70395 27.2019 2.71876 27.195C2.73356 27.1882 2.74968 27.1846 2.766 27.1846C2.78232 27.1846 2.79845 27.1882 2.81325 27.195C2.82806 27.2019 2.84119 27.2119 2.85172 27.2244C2.86226 27.2368 2.86996 27.2514 2.87427 27.2672C2.87859 27.2829 2.87942 27.2994 2.87671 27.3155ZM3.18855 27.3155C3.1894 27.3299 3.18728 27.3444 3.18234 27.358C3.17739 27.3716 3.16972 27.384 3.15979 27.3945C3.14985 27.4051 3.13788 27.4134 3.12459 27.4191C3.1113 27.4249 3.09699 27.4278 3.08252 27.4278C3.06792 27.4278 3.05347 27.4248 3.04002 27.4192C3.02657 27.4135 3.0144 27.4052 3.00422 27.3947C2.99404 27.3842 2.98607 27.3718 2.98077 27.3582C2.97548 27.3446 2.97296 27.3301 2.97338 27.3155C2.97292 27.3004 2.97562 27.2853 2.98129 27.2713C2.98697 27.2572 2.99551 27.2445 3.00636 27.234C3.01721 27.2234 3.03014 27.2152 3.04433 27.2099C3.05851 27.2047 3.07364 27.2024 3.08876 27.2032C3.10322 27.2032 3.11754 27.2062 3.13083 27.2119C3.14411 27.2176 3.15609 27.2259 3.16602 27.2365C3.17595 27.247 3.18363 27.2594 3.18858 27.273C3.19352 27.2866 3.19563 27.3011 3.19478 27.3155" fill="#074367"/>
<path d="M4.57313 26.8399C4.6012 26.8399 4.61679 26.868 4.61679 26.9241C4.61679 26.9802 4.61679 27.0083 4.57313 27.0083H3.32578V26.8399H4.11473C4.15527 26.6434 4.14279 26.2162 3.68751 26.2162C3.605 26.2189 3.52321 26.2326 3.44427 26.2567L3.40373 26.0977C3.50392 26.0625 3.60937 26.0445 3.71557 26.0447C3.80795 26.0363 3.90094 26.0514 3.98596 26.0884C4.07099 26.1255 4.1453 26.1834 4.20204 26.2567C4.3002 26.4286 4.33235 26.6304 4.29247 26.8243L4.57313 26.8399ZM3.61267 25.6861C3.60996 25.67 3.61079 25.6535 3.6151 25.6378C3.61942 25.622 3.62711 25.6074 3.63765 25.5949C3.64819 25.5825 3.66132 25.5725 3.67612 25.5656C3.69093 25.5587 3.70705 25.5552 3.72337 25.5552C3.73969 25.5552 3.75581 25.5587 3.77062 25.5656C3.78542 25.5725 3.79855 25.5825 3.80909 25.5949C3.81963 25.6074 3.82732 25.622 3.83164 25.6378C3.83595 25.6535 3.83678 25.67 3.83407 25.6861C3.83488 25.7156 3.8249 25.7444 3.80601 25.7672C3.74364 25.8326 3.60019 25.7859 3.61267 25.6861Z" fill="#074367"/>
<path d="M4.57313 26.8394C4.61037 26.8438 4.64812 26.8406 4.68405 26.8298C4.71999 26.8191 4.75334 26.8011 4.78206 26.777C4.82129 26.7034 4.83861 26.6201 4.83195 26.5369V25.2896H5.00658V26.6086C5.00658 26.8675 4.86314 27.0015 4.57313 27.0015V26.8394Z" fill="#074367"/>
<path d="M5.52423 25.2969H5.34648V27.0089H5.52423V25.2969Z" fill="#074367"/>
<path d="M7.89113 26.8405C7.9192 26.8405 7.93479 26.8685 7.93479 26.9247C7.93479 26.9808 7.9192 27.0089 7.89113 27.0089H7.61671C7.57277 27.1268 7.49127 27.227 7.38477 27.2941C7.27827 27.3611 7.15268 27.3913 7.02734 27.38C6.86906 27.3879 6.71348 27.3368 6.59076 27.2365C6.53223 27.1905 6.48496 27.1318 6.45254 27.0648C6.42011 26.9978 6.4034 26.9243 6.40366 26.8498C6.40761 26.7105 6.44053 26.5735 6.50033 26.4476L6.65625 26.5037C6.61706 26.61 6.59292 26.7213 6.58453 26.8342C6.58453 27.0837 6.72797 27.2084 7.01486 27.2084C7.30175 27.2084 7.44832 27.0681 7.45456 26.7875V25.2969H7.65101V26.8561L7.89113 26.8405Z" fill="#074367"/>
<path d="M9.21021 26.8389C9.23828 26.8389 9.25387 26.8669 9.25387 26.9231C9.25387 26.9792 9.23828 27.0073 9.21021 27.0073H8.86407C8.75223 27.0916 8.61413 27.1336 8.47427 27.1258H8.34018C8.29443 27.092 8.25351 27.0521 8.21857 27.0073H7.89114V26.8389H8.1219C8.09692 26.7731 8.08423 26.7034 8.08448 26.633C8.08245 26.5688 8.09389 26.5048 8.11806 26.4451C8.14222 26.3855 8.17858 26.3316 8.2248 26.2869C8.27343 26.2422 8.33044 26.2076 8.39254 26.1852C8.45463 26.1627 8.52057 26.1527 8.58654 26.1559C8.64981 26.1506 8.71344 26.1606 8.77205 26.185C8.83067 26.2094 8.88255 26.2476 8.92332 26.2963C8.99656 26.3941 9.03399 26.5141 9.02935 26.6362C9.03093 26.7053 9.01929 26.7741 8.99504 26.8389H9.21021ZM8.52417 26.9574C8.56885 26.9602 8.61362 26.9534 8.65543 26.9374C8.69725 26.9214 8.73512 26.8965 8.76648 26.8646C8.79785 26.8326 8.82196 26.7943 8.83718 26.7522C8.85241 26.7101 8.85839 26.6652 8.85472 26.6206C8.85939 26.5819 8.85547 26.5427 8.84324 26.5057C8.83102 26.4687 8.81079 26.4348 8.78399 26.4065C8.75719 26.3782 8.72448 26.3562 8.6882 26.342C8.65191 26.3278 8.61294 26.3218 8.57406 26.3243C8.53203 26.3199 8.48954 26.325 8.4497 26.3391C8.40986 26.3532 8.37368 26.376 8.34379 26.4059C8.3139 26.4358 8.29107 26.472 8.27696 26.5118C8.26285 26.5516 8.25781 26.5941 8.26222 26.6362C8.26357 26.7532 8.31056 26.8651 8.3932 26.948L8.52417 26.9574Z" fill="#074367"/>
<path d="M10.5293 26.84C10.5573 26.84 10.5761 26.8681 10.5761 26.9242C10.5761 26.9803 10.5573 27.0084 10.5293 27.0084H10.3796C10.1942 27.0126 10.0094 26.9841 9.83388 26.9242C9.65775 26.9861 9.47163 27.0147 9.28505 27.0084H9.21021V26.84H9.31935C9.44967 26.844 9.57989 26.8293 9.70603 26.7964C9.64366 26.7153 9.57818 26.6373 9.48151 26.5282L9.36924 26.4034C9.37544 26.3387 9.38905 26.2749 9.40978 26.2132C9.55414 26.1179 9.72326 26.0669 9.89625 26.0667C10.1644 26.0667 10.3359 26.1914 10.3359 26.4034C10.3301 26.4888 10.302 26.5712 10.2544 26.6423C10.2068 26.7135 10.1414 26.7709 10.0646 26.8088C10.1672 26.8303 10.2717 26.8408 10.3765 26.84H10.5293ZM9.52204 26.338C9.65706 26.4547 9.77935 26.5853 9.8869 26.7277C10.0584 26.6436 10.1613 26.5375 10.1613 26.4159C10.1613 26.2943 10.0553 26.2257 9.86507 26.2257C9.74594 26.2266 9.629 26.2577 9.52516 26.3161L9.52204 26.338Z" fill="#074367"/>
<path d="M11.3026 26.9236C11.3026 26.9797 11.287 27.0078 11.259 27.0078C11.1914 27.0155 11.123 27.0057 11.0602 26.9795C10.9975 26.9533 10.9424 26.9115 10.9004 26.8581C10.8565 26.9128 10.7994 26.9553 10.7344 26.9815C10.6694 27.0077 10.5988 27.0168 10.5293 27.0078V26.8394C10.5665 26.8442 10.6044 26.8411 10.6404 26.8304C10.6764 26.8197 10.7097 26.8015 10.7382 26.777C10.7789 26.7039 10.7963 26.6202 10.7881 26.5369V25.2896H10.9659V26.5743C10.9659 26.7458 11.0625 26.8332 11.259 26.8332C11.287 26.8332 11.3026 26.8612 11.3026 26.9173" fill="#074367"/>
<path d="M11.2589 26.8394C11.2962 26.8438 11.3339 26.8406 11.3699 26.8298C11.4058 26.8191 11.4392 26.8011 11.4679 26.777C11.5085 26.7039 11.5259 26.6202 11.5178 26.5369V25.2896H11.7049V26.6086C11.7049 26.8675 11.5614 27.0015 11.2714 27.0015L11.2589 26.8394Z" fill="#074367"/>
<path d="M13.7942 26.9244C13.7942 26.9806 13.7786 27.0086 13.7505 27.0086C13.5447 27.0086 13.4169 26.9681 13.3701 26.8901C13.2727 26.9363 13.166 26.9598 13.0582 26.9587C12.7714 26.9587 12.5843 26.8091 12.5843 26.5533C12.5843 26.2976 12.7869 26.0856 13.1237 26.0856H13.5042V26.6126C13.5042 26.7935 13.5665 26.8402 13.7505 26.8402C13.7786 26.8402 13.7942 26.8683 13.7942 26.9244ZM13.3202 26.254H13.0894C12.8961 26.254 12.7776 26.3538 12.7776 26.5346C12.7776 26.7155 12.8805 26.7872 13.0894 26.7872C13.1751 26.7908 13.2601 26.7715 13.3358 26.7311L13.3202 26.254ZM12.8493 25.7114C12.8493 25.689 12.856 25.6672 12.8685 25.6487C12.881 25.6302 12.8987 25.6158 12.9194 25.6074C12.9401 25.599 12.9628 25.597 12.9847 25.6016C13.0065 25.6062 13.0265 25.6172 13.0421 25.6332C13.0576 25.6492 13.0681 25.6695 13.072 25.6915C13.076 25.7134 13.0733 25.7361 13.0644 25.7565C13.0554 25.777 13.0405 25.7943 13.0217 25.8063C13.0028 25.8182 12.9808 25.8243 12.9585 25.8236C12.9437 25.8241 12.9291 25.8215 12.9154 25.816C12.9018 25.8104 12.8894 25.8021 12.8791 25.7916C12.8689 25.781 12.8609 25.7684 12.8558 25.7546C12.8506 25.7408 12.8484 25.7261 12.8493 25.7114ZM13.1612 25.7114C13.1612 25.6892 13.1677 25.6675 13.1801 25.649C13.1924 25.6306 13.2099 25.6162 13.2305 25.6077C13.251 25.5992 13.2735 25.5969 13.2953 25.6013C13.3171 25.6056 13.3371 25.6163 13.3528 25.632C13.3685 25.6477 13.3792 25.6677 13.3835 25.6895C13.3879 25.7113 13.3856 25.7338 13.3771 25.7543C13.3686 25.7749 13.3542 25.7924 13.3358 25.8047C13.3173 25.8171 13.2956 25.8236 13.2734 25.8236C13.2586 25.8241 13.2438 25.8215 13.23 25.816C13.2161 25.8105 13.2036 25.8022 13.1931 25.7917C13.1826 25.7812 13.1743 25.7687 13.1688 25.7548C13.1633 25.741 13.1607 25.7262 13.1612 25.7114Z" fill="#074367"/>
<path d="M14.5364 26.9226C14.5364 26.9787 14.5209 27.0068 14.4897 27.0068C14.4207 27.0149 14.3508 27.0045 14.2872 26.9765C14.2236 26.9485 14.1686 26.9041 14.1279 26.8477C14.0861 26.9036 14.0305 26.9477 13.9666 26.9755C13.9026 27.0034 13.8325 27.0142 13.7631 27.0068V26.8384C13.9471 26.8384 14.0157 26.7511 14.0157 26.5266V26.0837H14.1997V26.5796C14.1997 26.7511 14.2963 26.8384 14.4928 26.8384C14.524 26.8384 14.5396 26.8665 14.5396 26.9226M14.0344 27.3155C14.0348 27.3304 14.0322 27.3452 14.0267 27.359C14.0212 27.3728 14.013 27.3853 14.0025 27.3958C13.992 27.4064 13.9794 27.4146 13.9656 27.4201C13.9518 27.4256 13.937 27.4282 13.9221 27.4278C13.9075 27.4278 13.8931 27.4248 13.8796 27.4192C13.8662 27.4135 13.854 27.4052 13.8438 27.3947C13.8336 27.3842 13.8257 27.3718 13.8204 27.3582C13.8151 27.3446 13.8126 27.3301 13.813 27.3155C13.8103 27.2994 13.8111 27.2829 13.8154 27.2672C13.8197 27.2514 13.8274 27.2368 13.838 27.2244C13.8485 27.2119 13.8616 27.2019 13.8764 27.195C13.8912 27.1882 13.9074 27.1846 13.9237 27.1846C13.94 27.1846 13.9561 27.1882 13.9709 27.195C13.9857 27.2019 13.9989 27.2119 14.0094 27.2244C14.0199 27.2368 14.0276 27.2514 14.0319 27.2672C14.0363 27.2829 14.0371 27.2994 14.0344 27.3155ZM14.3462 27.3155C14.3489 27.3316 14.3481 27.3481 14.3438 27.3638C14.3395 27.3796 14.3318 27.3942 14.3212 27.4066C14.3107 27.4191 14.2976 27.4291 14.2828 27.436C14.268 27.4429 14.2518 27.4464 14.2355 27.4464C14.2192 27.4464 14.2031 27.4429 14.1883 27.436C14.1735 27.4291 14.1603 27.4191 14.1498 27.4066C14.1393 27.3942 14.1316 27.3796 14.1273 27.3638C14.1229 27.3481 14.1221 27.3316 14.1248 27.3155C14.1221 27.2994 14.1229 27.2829 14.1273 27.2672C14.1316 27.2514 14.1393 27.2368 14.1498 27.2244C14.1603 27.2119 14.1735 27.2019 14.1883 27.195C14.2031 27.1882 14.2192 27.1846 14.2355 27.1846C14.2518 27.1846 14.268 27.1882 14.2828 27.195C14.2976 27.2019 14.3107 27.2119 14.3212 27.2244C14.3318 27.2368 14.3395 27.2514 14.3438 27.2672C14.3481 27.2829 14.3489 27.2994 14.3462 27.3155Z" fill="#074367"/>
<path d="M15.2786 26.9235C15.2786 26.9797 15.2631 27.0077 15.235 27.0077C15.1655 27.0165 15.0949 27.0063 15.0307 26.9783C14.9665 26.9503 14.9111 26.9056 14.8701 26.8487C14.8257 26.9056 14.7673 26.9501 14.7007 26.978C14.6341 27.0058 14.5614 27.0161 14.4897 27.0077V26.8394C14.6893 26.8394 14.7641 26.7583 14.7641 26.5275V26.0847H14.9387V26.5805C14.9387 26.752 15.0354 26.8394 15.2506 26.8394C15.2786 26.8394 15.2942 26.8674 15.2942 26.9235M14.7548 25.7105C14.752 25.6944 14.7529 25.6779 14.7572 25.6622C14.7615 25.6464 14.7692 25.6318 14.7797 25.6194C14.7903 25.6069 14.8034 25.5969 14.8182 25.59C14.833 25.5831 14.8491 25.5796 14.8655 25.5796C14.8818 25.5796 14.8979 25.5831 14.9127 25.59C14.9275 25.5969 14.9406 25.6069 14.9512 25.6194C14.9617 25.6318 14.9694 25.6464 14.9737 25.6622C14.978 25.6779 14.9789 25.6944 14.9762 25.7105C14.9768 25.7254 14.9743 25.7403 14.969 25.7543C14.9636 25.7682 14.9554 25.7809 14.945 25.7916C14.8857 25.8571 14.7423 25.8103 14.7548 25.7105Z" fill="#074367"/>
<path d="M16.791 26.2215C16.8797 26.3375 16.925 26.481 16.9188 26.6269C16.9184 26.7563 16.8974 26.8847 16.8564 27.0074H15.2349V26.839H15.4469V25.2798H15.6247V26.5458C15.7056 26.4058 15.8189 26.2871 15.9551 26.1998C16.0912 26.1124 16.2463 26.0589 16.4074 26.0438C16.4777 26.0391 16.5481 26.0514 16.6127 26.0796C16.6773 26.1078 16.7342 26.1512 16.7785 26.2059M16.7005 26.8296C16.7188 26.7615 16.7283 26.6913 16.7286 26.6207C16.7286 26.3868 16.6101 26.2215 16.3887 26.2215C16.2447 26.23 16.1076 26.2859 15.9989 26.3806C15.8467 26.5034 15.7214 26.6562 15.6309 26.8296H16.7005Z" fill="#074367"/>
<path d="M17.318 27.2353C17.6954 27.2603 17.8825 27.1667 17.8825 26.9578C17.806 26.9919 17.723 27.0089 17.6392 27.0077C17.5778 27.0137 17.5158 27.0063 17.4575 26.9859C17.3992 26.9655 17.3461 26.9326 17.3018 26.8895C17.2576 26.8465 17.2233 26.7943 17.2013 26.7366C17.1793 26.6789 17.1702 26.6171 17.1746 26.5555C17.171 26.4276 17.2155 26.303 17.2993 26.2062C17.3581 26.138 17.4366 26.0897 17.5239 26.0678C17.6113 26.0459 17.7033 26.0516 17.7873 26.084C17.8713 26.1164 17.9432 26.1741 17.9932 26.249C18.0432 26.3239 18.0688 26.4125 18.0664 26.5025V26.9235C18.069 26.989 18.0575 27.0544 18.0327 27.1151C18.008 27.1759 17.9706 27.2307 17.923 27.2758C17.7833 27.3773 17.6117 27.4249 17.4396 27.4099H17.3336L17.318 27.2353ZM17.8918 26.8143V26.5742C17.8918 26.3559 17.8045 26.2468 17.6299 26.2468C17.5908 26.2468 17.5522 26.2552 17.5167 26.2715C17.4813 26.2878 17.4497 26.3116 17.4242 26.3412C17.3988 26.3708 17.38 26.4055 17.3692 26.4431C17.3584 26.4806 17.3559 26.52 17.3617 26.5586C17.3617 26.7551 17.4646 26.8705 17.6735 26.8705C17.7488 26.8725 17.8238 26.8609 17.8949 26.8362" fill="#074367"/>
<path d="M20.1246 26.9245C20.1246 26.9806 20.109 27.0087 20.0778 27.0087C19.872 27.0087 19.7473 26.9681 19.6974 26.8902C19.6001 26.9368 19.4934 26.9603 19.3855 26.9588C19.0986 26.9588 18.9084 26.8091 18.9084 26.5534C18.9087 26.4858 18.9234 26.419 18.9516 26.3575C18.9798 26.296 19.0208 26.2413 19.0719 26.197C19.123 26.1527 19.183 26.1198 19.2479 26.1006C19.3127 26.0814 19.3809 26.0763 19.4479 26.0856H19.8315V26.6126C19.8315 26.7935 19.8938 26.8403 20.0747 26.8403C20.1059 26.8403 20.1215 26.8684 20.1215 26.9245M19.6475 26.254H19.4167C19.2265 26.254 19.1049 26.3538 19.1049 26.5347C19.1049 26.7155 19.2109 26.7873 19.4167 26.7873C19.5014 26.7909 19.5855 26.7715 19.66 26.7311L19.6475 26.254ZM19.1891 25.7114C19.1886 25.6966 19.1913 25.6818 19.1967 25.668C19.2022 25.6541 19.2105 25.6416 19.221 25.6311C19.2315 25.6206 19.2441 25.6123 19.2579 25.6068C19.2717 25.6013 19.2865 25.5987 19.3013 25.5992C19.3311 25.5992 19.3597 25.611 19.3807 25.632C19.4018 25.6531 19.4136 25.6817 19.4136 25.7114C19.4136 25.7412 19.4018 25.7698 19.3807 25.7908C19.3597 25.8119 19.3311 25.8237 19.3013 25.8237C19.2865 25.8241 19.2717 25.8215 19.2579 25.816C19.2441 25.8105 19.2315 25.8023 19.221 25.7918C19.2105 25.7813 19.2022 25.7687 19.1967 25.7549C19.1913 25.7411 19.1886 25.7263 19.1891 25.7114ZM19.5009 25.7114C19.5005 25.6966 19.5031 25.6818 19.5086 25.668C19.5141 25.6541 19.5223 25.6416 19.5328 25.6311C19.5434 25.6206 19.5559 25.6123 19.5697 25.6068C19.5835 25.6013 19.5983 25.5987 19.6132 25.5992C19.643 25.5992 19.6715 25.611 19.6926 25.632C19.7136 25.6531 19.7254 25.6817 19.7254 25.7114C19.7254 25.7412 19.7136 25.7698 19.6926 25.7908C19.6715 25.8119 19.643 25.8237 19.6132 25.8237C19.5983 25.8241 19.5835 25.8215 19.5697 25.816C19.5559 25.8105 19.5434 25.8023 19.5328 25.7918C19.5223 25.7813 19.5141 25.7687 19.5086 25.7549C19.5031 25.7411 19.5005 25.7263 19.5009 25.7114Z" fill="#074367"/>
<path d="M22.3074 26.8405C22.3386 26.8405 22.3542 26.8686 22.3542 26.9247C22.3542 26.9808 22.3386 27.0089 22.3074 27.0089H20.7108C20.6524 27.0182 20.5925 27.0115 20.5376 26.9896C20.4827 26.9676 20.4348 26.9312 20.3989 26.8842C20.349 26.9684 20.2399 27.0089 20.0684 27.0089V26.8405C20.2336 26.8405 20.2991 26.7657 20.2991 26.5567V26.2449H20.4738V26.6472C20.4704 26.6864 20.4811 26.7255 20.5039 26.7575C20.5268 26.7895 20.5603 26.8123 20.5985 26.8218C20.8823 26.3104 21.1972 26.0547 21.534 26.0547C21.8708 26.0547 22.0361 26.2792 22.0361 26.6222C22.0361 26.6935 22.0288 26.7645 22.0142 26.8343L22.3074 26.8405ZM21.849 26.8405C21.8671 26.7745 21.8765 26.7063 21.877 26.6378C21.877 26.3977 21.7523 26.2324 21.534 26.2324C21.3157 26.2324 21.0351 26.4351 20.7981 26.8561L21.849 26.8405Z" fill="#074367"/>
<path d="M23.0933 26.9235C23.0933 26.9797 23.0933 27.0077 23.0497 27.0077C22.9802 27.0165 22.9096 27.0063 22.8454 26.9783C22.7812 26.9503 22.7258 26.9056 22.6848 26.8487C22.6404 26.9056 22.582 26.9501 22.5154 26.978C22.4488 27.0058 22.3761 27.0161 22.3044 27.0077V26.8394C22.504 26.8394 22.5788 26.7583 22.5788 26.5275V26.0847H22.7534V26.5805C22.7534 26.752 22.8501 26.8394 23.0497 26.8394C23.0777 26.8394 23.0933 26.8674 23.0933 26.9235ZM22.5539 25.7105C22.5512 25.6944 22.552 25.6779 22.5563 25.6622C22.5606 25.6464 22.5683 25.6318 22.5788 25.6194C22.5894 25.6069 22.6025 25.5969 22.6173 25.59C22.6321 25.5831 22.6482 25.5796 22.6646 25.5796C22.6809 25.5796 22.697 25.5831 22.7118 25.59C22.7266 25.5969 22.7397 25.6069 22.7503 25.6194C22.7608 25.6318 22.7685 25.6464 22.7728 25.6622C22.7771 25.6779 22.778 25.6944 22.7753 25.7105C22.7759 25.7254 22.7735 25.7403 22.7681 25.7543C22.7627 25.7682 22.7546 25.7809 22.7441 25.7916C22.6848 25.8571 22.5414 25.8103 22.5539 25.7105Z" fill="#074367"/>
<path d="M23.7294 26.0593C23.7912 26.0563 23.8529 26.067 23.9101 26.0907C23.9673 26.1144 24.0184 26.1506 24.0599 26.1965C24.1414 26.2905 24.1838 26.4121 24.1784 26.5364C24.1784 26.8108 24.0194 27.0073 23.6545 27.0073H23.0496V26.8389H23.3396C23.2715 26.7495 23.2363 26.6394 23.2398 26.527C23.2382 26.4633 23.2499 26.3999 23.274 26.3408C23.2982 26.2818 23.3343 26.2284 23.3801 26.184C23.4744 26.0951 23.5999 26.047 23.7294 26.0499M23.6733 26.8295C23.7153 26.8339 23.7578 26.8289 23.7976 26.8148C23.8375 26.8007 23.8736 26.7778 23.9035 26.748C23.9334 26.7181 23.9562 26.6819 23.9704 26.6421C23.9845 26.6022 23.9895 26.5597 23.9851 26.5177C23.9851 26.4416 23.9549 26.3686 23.9011 26.3148C23.8473 26.261 23.7743 26.2308 23.6982 26.2308C23.6221 26.2308 23.5491 26.261 23.4953 26.3148C23.4415 26.3686 23.4113 26.4416 23.4113 26.5177C23.412 26.6325 23.4541 26.7432 23.5298 26.8295H23.6733Z" fill="#074367"/>
</g>
<defs>
<linearGradient id="paint0_linear_24498_7065" x1="12.3845" y1="12.8573" x2="12.3845" y2="6.5625" gradientUnits="userSpaceOnUse">
<stop stop-color="#064367"/>
<stop offset="1" stop-color="#188F7A"/>
</linearGradient>
<clipPath id="clip0_24498_7065">
<rect width="24.1363" height="28" fill="white" transform="translate(0.166679)"/>
</clipPath>
</defs>
</svg>
