<svg width="25" height="25" viewBox="0 0 25 25" fill="none" xmlns="http://www.w3.org/2000/svg">
<path fill-rule="evenodd" clip-rule="evenodd" d="M10.9304 7.88177C11.259 7.75459 11.6037 7.67369 11.9546 7.6414C11.9793 7.63927 12.0034 7.63224 12.0254 7.62073C12.0474 7.60922 12.0669 7.59345 12.0827 7.57435C12.0986 7.55524 12.1105 7.53318 12.1178 7.50943C12.125 7.48569 12.1275 7.46073 12.125 7.43603C12.1226 7.41132 12.1152 7.38734 12.1034 7.36549C12.0916 7.34365 12.0756 7.32436 12.0563 7.30875C12.037 7.29315 12.0148 7.28153 11.9909 7.27458C11.9671 7.26763 11.9421 7.26549 11.9174 7.26827C11.5318 7.30392 11.153 7.39315 10.7921 7.5334C10.7459 7.55175 10.7089 7.5877 10.6892 7.63334C10.6695 7.67898 10.6687 7.73058 10.6871 7.77677C10.7054 7.82297 10.7414 7.85999 10.787 7.87968C10.8326 7.89937 10.8842 7.90012 10.9304 7.88177ZM12.8733 7.63427C13.3166 7.66765 13.7223 7.67477 14.0928 7.65902C14.1177 7.65845 14.1422 7.65291 14.165 7.64275C14.1877 7.63259 14.2082 7.618 14.2252 7.59983C14.2423 7.58167 14.2555 7.56029 14.2642 7.53695C14.2729 7.5136 14.2768 7.48877 14.2758 7.46388C14.2748 7.439 14.2688 7.41457 14.2583 7.39202C14.2477 7.36947 14.2327 7.34925 14.2143 7.33254C14.1958 7.31583 14.1742 7.30297 14.1507 7.2947C14.1272 7.28644 14.1023 7.28293 14.0774 7.2844C13.7201 7.2994 13.3289 7.29227 12.9014 7.26002C12.8532 7.25875 12.8063 7.27608 12.7705 7.30842C12.7347 7.34077 12.7128 7.38564 12.7091 7.43375C12.7055 7.48186 12.7206 7.52952 12.7511 7.56685C12.7817 7.60418 12.8254 7.62832 12.8733 7.63427ZM15.1053 7.54802C15.5426 7.4659 15.9134 7.3444 16.2251 7.19477C16.2473 7.18411 16.2672 7.16918 16.2836 7.15083C16.3 7.13248 16.3127 7.11107 16.3209 7.08783C16.329 7.06458 16.3326 7.03996 16.3312 7.01536C16.3298 6.99076 16.3237 6.96667 16.313 6.94446C16.3023 6.92225 16.2874 6.90236 16.2691 6.88592C16.2507 6.86948 16.2293 6.85682 16.2061 6.84865C16.1828 6.84048 16.1582 6.83698 16.1336 6.83833C16.109 6.83968 16.0849 6.84586 16.0627 6.85652C15.7769 6.99377 15.4368 7.1044 15.0359 7.17977C15.011 7.18349 14.9871 7.19221 14.9656 7.2054C14.9441 7.2186 14.9254 7.23599 14.9108 7.25654C14.8962 7.2771 14.8859 7.30039 14.8805 7.32503C14.8751 7.34967 14.8747 7.37514 14.8794 7.39993C14.884 7.42472 14.8936 7.44831 14.9076 7.46929C14.9216 7.49027 14.9397 7.50822 14.9608 7.52204C14.9819 7.53587 15.0056 7.5453 15.0304 7.54976C15.0553 7.55422 15.0807 7.55363 15.1053 7.54802ZM16.9893 6.6739C17.3253 6.34952 17.5226 5.97602 17.6114 5.59615C17.6228 5.54771 17.6144 5.49676 17.5882 5.45449C17.5619 5.41223 17.52 5.38211 17.4716 5.37077C17.4231 5.35943 17.3722 5.3678 17.3299 5.39403C17.2876 5.42026 17.2575 5.46221 17.2462 5.51065C17.1727 5.82602 17.0077 6.13502 16.7291 6.4039C16.7113 6.42099 16.6971 6.4414 16.6873 6.46397C16.6775 6.48654 16.6722 6.51083 16.6717 6.53545C16.6713 6.56007 16.6757 6.58454 16.6847 6.60745C16.6937 6.63037 16.7071 6.65129 16.7242 6.66902C16.7413 6.68675 16.7617 6.70094 16.7843 6.71078C16.8068 6.72062 16.8311 6.72592 16.8557 6.72637C16.8804 6.72682 16.9048 6.72242 16.9277 6.71342C16.9507 6.70441 16.9716 6.69099 16.9893 6.6739ZM17.5222 4.30502C17.3733 3.90977 17.1209 3.57415 16.8134 3.3619C16.7725 3.3337 16.722 3.32294 16.6731 3.33198C16.6241 3.34101 16.5808 3.36911 16.5526 3.41009C16.5244 3.45106 16.5137 3.50156 16.5227 3.55047C16.5317 3.59938 16.5598 3.6427 16.6008 3.6709C16.8494 3.84227 17.0508 4.11677 17.1712 4.43702C17.1887 4.48357 17.224 4.52125 17.2693 4.54179C17.3146 4.56232 17.3661 4.56403 17.4127 4.54652C17.4592 4.52902 17.4969 4.49374 17.5175 4.44845C17.538 4.40316 17.5397 4.35157 17.5222 4.30502ZM12.6367 3.36115C12.8426 2.39515 13.6631 1.92527 14.2548 1.9219C14.4491 1.92077 14.6174 1.96652 14.7048 2.08352C14.7566 2.1529 14.7723 2.2459 14.7524 2.3599C14.744 2.40893 14.7554 2.45931 14.7841 2.49996C14.8127 2.54061 14.8564 2.56819 14.9054 2.57665C14.9545 2.5851 15.0049 2.57373 15.0455 2.54504C15.0862 2.51635 15.1137 2.47268 15.1222 2.42365C15.1627 2.18927 15.1117 2.0014 15.0052 1.85927C14.8563 1.6594 14.5833 1.54502 14.2529 1.5469C13.5326 1.55102 12.5204 2.10715 12.2699 3.28315C12.2644 3.30739 12.2637 3.3325 12.2679 3.35701C12.2722 3.38152 12.2812 3.40494 12.2946 3.42591C12.308 3.44688 12.3254 3.46498 12.3459 3.47915C12.3663 3.49332 12.3894 3.50328 12.4137 3.50846C12.438 3.51363 12.4631 3.51391 12.4876 3.50929C12.512 3.50466 12.5353 3.49522 12.556 3.48151C12.5768 3.4678 12.5946 3.45009 12.6085 3.42943C12.6223 3.40877 12.6319 3.38556 12.6367 3.36115Z" fill="#00618D"/>
<path fill-rule="evenodd" clip-rule="evenodd" d="M12.2715 3.36349C12.5254 4.53349 13.5338 5.08699 14.2523 5.09149C14.6082 5.09337 14.8965 4.96099 15.0375 4.73187C15.1227 4.59387 15.1598 4.41799 15.12 4.20312C15.0713 3.93874 14.8973 3.60012 14.5332 3.19812C14.5168 3.17913 14.4969 3.1636 14.4745 3.15245C14.4521 3.1413 14.4276 3.13474 14.4027 3.13318C14.3777 3.13161 14.3526 3.13507 14.329 3.14334C14.3054 3.15161 14.2836 3.16452 14.2651 3.18133C14.2465 3.19813 14.2315 3.21848 14.221 3.24118C14.2104 3.26387 14.2045 3.28845 14.2036 3.31347C14.2026 3.33848 14.2068 3.36343 14.2156 3.38684C14.2245 3.41024 14.238 3.43163 14.2553 3.44974C14.5088 3.72987 14.6592 3.96874 14.7252 4.16937C14.775 4.32237 14.7739 4.44499 14.7184 4.53537C14.6682 4.61674 14.5782 4.66587 14.4698 4.69287C14.3337 4.72662 14.1705 4.72399 13.9984 4.68762C13.4483 4.57137 12.8175 4.11124 12.6383 3.28399C12.6257 3.23748 12.5957 3.19759 12.5546 3.17254C12.5134 3.1475 12.4642 3.13923 12.4171 3.14943C12.37 3.15964 12.3287 3.18755 12.3016 3.22739C12.2745 3.26722 12.2637 3.31595 12.2715 3.36349Z" fill="#00618D"/>
<path fill-rule="evenodd" clip-rule="evenodd" d="M12.4043 3.69531H14.9149C15.0144 3.69531 15.1098 3.6558 15.1801 3.58548C15.2504 3.51515 15.2899 3.41977 15.2899 3.32031C15.2899 3.22086 15.2504 3.12547 15.1801 3.05515C15.1098 2.98482 15.0144 2.94531 14.9149 2.94531H12.4043C12.3048 2.94531 12.2095 2.98482 12.1391 3.05515C12.0688 3.12547 12.0293 3.22086 12.0293 3.32031C12.0293 3.41977 12.0688 3.51515 12.1391 3.58548C12.2095 3.6558 12.3048 3.69531 12.4043 3.69531Z" fill="#B6EAFF"/>
<path fill-rule="evenodd" clip-rule="evenodd" d="M4.8125 18.3369V20.4403C4.8125 20.8543 5.084 21.2192 5.48075 21.338L12.2308 23.363C12.4064 23.4159 12.5936 23.4159 12.7692 23.363L19.5192 21.338C19.7124 21.2802 19.8817 21.1616 20.0021 20.9999C20.1225 20.8381 20.1875 20.6419 20.1875 20.4403V17.4414C20.1875 17.3917 20.1677 17.344 20.1326 17.3088C20.0974 17.2737 20.0497 17.2539 20 17.2539C19.9503 17.2539 19.9026 17.2737 19.8674 17.3088C19.8323 17.344 19.8125 17.3917 19.8125 17.4414V20.4403C19.8125 20.6885 19.6494 20.9075 19.4116 20.9792L12.6616 23.0042C12.5562 23.0357 12.4438 23.0357 12.3384 23.0042L5.58838 20.9792C5.47255 20.9443 5.37103 20.8731 5.29883 20.776C5.22664 20.679 5.1876 20.5612 5.1875 20.4403V18.3369C5.1875 18.2872 5.16775 18.2395 5.13258 18.2043C5.09742 18.1692 5.04973 18.1494 5 18.1494C4.95027 18.1494 4.90258 18.1692 4.86742 18.2043C4.83225 18.2395 4.8125 18.2872 4.8125 18.3369Z" fill="#00618D"/>
<path fill-rule="evenodd" clip-rule="evenodd" d="M4.376 14.0872L2.94125 16.2142C2.89241 16.2863 2.86103 16.3689 2.84959 16.4553C2.83815 16.5417 2.84696 16.6295 2.87534 16.7119C2.90371 16.7943 2.95087 16.869 3.01307 16.93C3.07528 16.991 3.15083 17.0368 3.23375 17.0636L9.98187 19.2562C10.0979 19.2939 10.223 19.2929 10.3384 19.2533C10.4537 19.2137 10.5532 19.1377 10.6216 19.0368L12.6552 16.0361C12.6716 16.012 12.682 15.9844 12.6859 15.9556C12.6897 15.9268 12.6867 15.8975 12.6773 15.87C12.6678 15.8425 12.6521 15.8175 12.6314 15.7972C12.6106 15.7768 12.5854 15.7615 12.5577 15.7526L5.05775 13.3188C5.01126 13.3064 4.96181 13.3124 4.91958 13.3354C4.87734 13.3584 4.84555 13.3968 4.83074 13.4425C4.81594 13.4883 4.81925 13.538 4.83999 13.5814C4.86074 13.6248 4.89733 13.6586 4.94225 13.6758L12.2049 16.0323L10.3111 18.8264C10.2883 18.8601 10.2552 18.8855 10.2167 18.8987C10.1782 18.9119 10.1364 18.9122 10.0977 18.8996L3.34962 16.7069C3.32201 16.698 3.29687 16.6827 3.27616 16.6623C3.25546 16.642 3.23976 16.6171 3.23031 16.5897C3.22086 16.5622 3.21791 16.5329 3.22169 16.5042C3.22548 16.4754 3.23589 16.4479 3.25212 16.4238L4.68687 14.2968C4.70113 14.2764 4.71118 14.2534 4.71644 14.229C4.7217 14.2047 4.72207 14.1796 4.71752 14.1551C4.71298 14.1307 4.7036 14.1073 4.68995 14.0865C4.6763 14.0657 4.65864 14.0479 4.63801 14.0339C4.61738 14.02 4.59418 14.0104 4.56977 14.0055C4.54536 14.0006 4.52023 14.0007 4.49585 14.0057C4.47146 14.0106 4.4483 14.0204 4.42773 14.0344C4.40715 14.0484 4.38956 14.0663 4.376 14.0872Z" fill="#00618D"/>
<path fill-rule="evenodd" clip-rule="evenodd" d="M18.8753 13.6654L12.4422 15.753C12.4182 15.7601 12.3958 15.7719 12.3764 15.7877C12.357 15.8036 12.341 15.8232 12.3293 15.8453C12.3176 15.8675 12.3105 15.8918 12.3083 15.9167C12.3062 15.9417 12.309 15.9668 12.3167 15.9906C12.3245 16.0145 12.3369 16.0365 12.3533 16.0555C12.3696 16.0744 12.3896 16.0899 12.4121 16.101C12.4346 16.1121 12.459 16.1186 12.484 16.12C12.509 16.1215 12.5341 16.118 12.5577 16.1096L18.9908 14.0224C19.0382 14.007 19.0775 13.9735 19.1001 13.9292C19.1228 13.8849 19.1269 13.8335 19.1116 13.7861C19.0963 13.7388 19.0628 13.6995 19.0185 13.6768C18.9742 13.6542 18.9227 13.65 18.8753 13.6654Z" fill="#00618D"/>
<path fill-rule="evenodd" clip-rule="evenodd" d="M12.8756 16.8165L14.3782 19.0339C14.5188 19.2413 14.7795 19.3305 15.018 19.2533L21.7661 17.0607C21.849 17.0339 21.9246 16.9882 21.9868 16.9271C22.049 16.8661 22.0961 16.7914 22.1245 16.709C22.1529 16.6267 22.1617 16.5388 22.1503 16.4524C22.1388 16.366 22.1074 16.2835 22.0586 16.2113L20.1555 13.3894C20.1275 13.3483 20.0844 13.3198 20.0356 13.3103C19.9868 13.3009 19.9362 13.3111 19.8948 13.3388C19.8537 13.3667 19.8253 13.4098 19.8158 13.4587C19.8063 13.5075 19.8165 13.5581 19.8442 13.5994L21.7477 16.4209C21.7638 16.445 21.7741 16.4725 21.7778 16.5013C21.7815 16.53 21.7785 16.5592 21.7691 16.5866C21.7596 16.614 21.744 16.6389 21.7234 16.6592C21.7028 16.6796 21.6777 16.6949 21.6502 16.704L14.9021 18.8967C14.8634 18.9093 14.8217 18.909 14.7832 18.8958C14.7447 18.8826 14.7115 18.8572 14.6887 18.8235L13.1861 16.6062C13.1582 16.565 13.1151 16.5366 13.0662 16.5272C13.0174 16.5178 12.9668 16.5282 12.9257 16.5561C12.8845 16.584 12.8561 16.6271 12.8467 16.676C12.8373 16.7248 12.8477 16.7754 12.8756 16.8165ZM6.19685 13.302L12.558 11.2313C12.5855 11.2221 12.6106 11.2067 12.6312 11.1863C12.6518 11.1658 12.6674 11.1409 12.6768 11.1134C12.6862 11.0859 12.6891 11.0566 12.6852 11.0278C12.6814 10.999 12.671 10.9715 12.6547 10.9474L10.8393 8.27742C10.7709 8.17672 10.6715 8.10096 10.5563 8.06154C10.4411 8.02211 10.3162 8.02115 10.2003 8.0588L3.45185 10.2514C3.36906 10.2785 3.29368 10.3243 3.23161 10.3854C3.16954 10.4465 3.12249 10.5212 3.09415 10.6035C3.0658 10.6859 3.05694 10.7737 3.06825 10.86C3.07956 10.9464 3.11075 11.0289 3.15935 11.1012L4.84422 13.5994C4.87292 13.6386 4.91569 13.6651 4.96353 13.6735C5.01138 13.6818 5.0606 13.6713 5.10086 13.6441C5.14112 13.617 5.1693 13.5753 5.17948 13.5278C5.18966 13.4803 5.18106 13.4307 5.15547 13.3894L3.47022 10.8915C3.454 10.8674 3.44358 10.8399 3.4398 10.8111C3.43601 10.7823 3.43896 10.753 3.44841 10.7255C3.45786 10.6981 3.47355 10.6731 3.49426 10.6528C3.51496 10.6324 3.54011 10.6171 3.56772 10.608L10.3162 8.41542C10.3548 8.40286 10.3964 8.40316 10.4349 8.41628C10.4733 8.4294 10.5064 8.45463 10.5292 8.48817L12.2043 10.9519L6.08097 12.9454C6.03418 12.9612 5.9955 12.9948 5.97332 13.0389C5.95115 13.083 5.94727 13.1341 5.96252 13.181C5.97778 13.228 6.01095 13.2671 6.05482 13.2897C6.09869 13.3124 6.14973 13.3168 6.19685 13.302Z" fill="#00618D"/>
<path fill-rule="evenodd" clip-rule="evenodd" d="M12.4419 11.2313L19.9419 13.6725C19.9807 13.6853 20.0225 13.685 20.061 13.6718C20.0996 13.6586 20.1328 13.6332 20.1557 13.5994L21.8405 11.1012C21.8891 11.0289 21.9203 10.9464 21.9316 10.86C21.943 10.7737 21.9341 10.6859 21.9057 10.6035C21.8774 10.5212 21.8303 10.4465 21.7683 10.3854C21.7062 10.3243 21.6308 10.2785 21.548 10.2514L14.7995 8.0588C14.6837 8.02115 14.5588 8.02211 14.4436 8.06154C14.3284 8.10096 14.229 8.17672 14.1605 8.27742L12.8488 10.2064C12.8208 10.2475 12.8103 10.2981 12.8196 10.347C12.8289 10.3959 12.8572 10.4391 12.8983 10.467C12.9394 10.495 12.99 10.5056 13.0389 10.4963C13.0877 10.487 13.1309 10.4587 13.1589 10.4175L14.4707 8.48817C14.4935 8.45463 14.5266 8.4294 14.565 8.41628C14.6035 8.40316 14.6451 8.40286 14.6837 8.41542L21.4322 10.608C21.4597 10.6172 21.4847 10.6326 21.5053 10.653C21.526 10.6734 21.5416 10.6983 21.551 10.7257C21.5605 10.7531 21.5634 10.7823 21.5597 10.8111C21.556 10.8399 21.5457 10.8674 21.5297 10.8915L19.9235 13.2724L12.5582 10.8747C12.5109 10.8593 12.4594 10.8633 12.4151 10.8858C12.3707 10.9083 12.3372 10.9476 12.3217 10.9949C12.3063 11.0422 12.3103 11.0936 12.3329 11.138C12.3554 11.1823 12.3946 11.2159 12.4419 11.2313Z" fill="#00618D"/>
<path fill-rule="evenodd" clip-rule="evenodd" d="M18.1801 13.4976L12.4999 15.3403L6.81982 13.4976L12.4999 11.6484L18.1801 13.4976Z" fill="#B6EAFF"/>
<path fill-rule="evenodd" clip-rule="evenodd" d="M10.6243 11.0377C10.5235 10.8956 10.4368 10.7527 10.3641 10.6099C10.3415 10.5656 10.3022 10.5322 10.255 10.5169C10.2077 10.5016 10.1563 10.5057 10.112 10.5282C10.0678 10.5508 10.0343 10.5899 10.0189 10.6372C10.0035 10.6844 10.0075 10.7358 10.03 10.7801C10.1106 10.9387 10.2066 11.0974 10.3187 11.2552C10.3476 11.2958 10.3913 11.3232 10.4404 11.3314C10.4894 11.3397 10.5397 11.3281 10.5803 11.2993C10.6208 11.2705 10.6482 11.2267 10.6565 11.1776C10.6647 11.1286 10.6532 11.0783 10.6243 11.0377ZM10.1042 9.82986C10.0707 9.62372 10.0688 9.41369 10.0986 9.20698C10.1058 9.15775 10.0932 9.10767 10.0634 9.06776C10.0337 9.02785 9.98938 9.00138 9.94015 8.99417C9.89092 8.98696 9.84084 8.9996 9.80093 9.02931C9.76102 9.05902 9.73455 9.10338 9.72734 9.15261C9.69239 9.39665 9.69454 9.64458 9.73371 9.88798C9.74142 9.93711 9.76833 9.98117 9.80852 10.0105C9.84871 10.0398 9.89889 10.0519 9.94803 10.0442C9.99716 10.0365 10.0412 10.0096 10.0705 9.96936C10.0998 9.92917 10.1119 9.87899 10.1042 9.82986Z" fill="#00618D"/>
</svg>
