<svg width="61" height="60" viewBox="0 0 61 60" fill="none" xmlns="http://www.w3.org/2000/svg">
<g id="Group 82">
<path id="Face ID Symbol" d="M2.39854 19.1736C1.12239 19.1736 0.484314 18.5146 0.484314 17.1967V9.1318C0.484314 6.09833 1.25837 3.81799 2.80649 2.2908C4.35461 0.763598 6.65586 0 9.71025 0H17.7751C19.0931 0 19.7521 0.638075 19.7521 1.91423C19.7521 3.2113 19.0931 3.85983 17.7751 3.85983H9.8044C8.02615 3.85983 6.66632 4.32008 5.7249 5.24059C4.8044 6.16109 4.34415 7.53138 4.34415 9.35146V17.1967C4.34415 18.5146 3.69561 19.1736 2.39854 19.1736ZM58.5701 19.1736C57.2939 19.1736 56.6559 18.5146 56.6559 17.1967V9.35146C56.6559 7.53138 56.1747 6.16109 55.2123 5.24059C54.25 4.32008 52.9006 3.85983 51.1642 3.85983H43.2249C41.9069 3.85983 41.2479 3.2113 41.2479 1.91423C41.2479 0.638075 41.9069 0 43.2249 0H51.2584C54.3337 0 56.6454 0.774059 58.1935 2.32218C59.7416 3.84937 60.5157 6.11925 60.5157 9.1318V17.1967C60.5157 18.5146 59.8672 19.1736 58.5701 19.1736ZM9.71025 60C6.65586 60 4.35461 59.2259 2.80649 57.6778C1.25837 56.1506 0.484314 53.8703 0.484314 50.8368V42.8033C0.484314 41.4854 1.12239 40.8264 2.39854 40.8264C3.69561 40.8264 4.34415 41.4854 4.34415 42.8033V50.6485C4.34415 52.4686 4.8044 53.8389 5.7249 54.7594C6.66632 55.6799 8.02615 56.1402 9.8044 56.1402H17.7751C19.0931 56.1402 19.7521 56.7887 19.7521 58.0858C19.7521 59.3619 19.0931 60 17.7751 60H9.71025ZM43.2249 60C41.9069 60 41.2479 59.3619 41.2479 58.0858C41.2479 56.7887 41.9069 56.1402 43.2249 56.1402H51.1642C52.9006 56.1402 54.25 55.6799 55.2123 54.7594C56.1747 53.8389 56.6559 52.4686 56.6559 50.6485V42.8033C56.6559 41.4854 57.2939 40.8264 58.5701 40.8264C59.8672 40.8264 60.5157 41.4854 60.5157 42.8033V50.8368C60.5157 53.8703 59.7416 56.1506 58.1935 57.6778C56.6454 59.2259 54.3337 60 51.2584 60H43.2249Z" fill="url(#paint0_linear_10683_10764)"/>
<g id="Face ID Symbol_2">
<path d="M17.336 26.9243C17.7335 27.3009 18.2356 27.4892 18.8422 27.4892C19.4489 27.4892 19.951 27.3009 20.3485 26.9243C20.746 26.5477 20.9448 26.0352 20.9448 25.3866V21.1502C20.9448 20.5226 20.746 20.0205 20.3485 19.644C19.951 19.2465 19.4489 19.0477 18.8422 19.0477C18.2356 19.0477 17.7335 19.2465 17.336 19.644C16.9594 20.0205 16.7711 20.5226 16.7711 21.1502V25.3866C16.7711 26.0352 16.9594 26.5477 17.336 26.9243Z" fill="url(#paint1_linear_10683_10764)"/>
<path d="M26.4364 34.3929C26.792 34.6858 27.2941 34.8323 27.9427 34.8323H28.0682H28.2251C29.6895 34.8323 30.7983 34.4557 31.5515 33.7026C32.3046 32.9494 32.6812 31.8406 32.6812 30.3762V20.6168C32.6812 20.1147 32.5347 19.7277 32.2418 19.4557C31.9489 19.1628 31.5515 19.0164 31.0494 19.0164C30.5682 19.0164 30.1812 19.1628 29.8883 19.4557C29.5954 19.7277 29.4489 20.1147 29.4489 20.6168V30.6586C29.4489 30.9515 29.3548 31.1712 29.1665 31.3176C28.9992 31.4641 28.8004 31.5373 28.5703 31.5373H27.5033C27.0431 31.5373 26.6561 31.6942 26.3422 32.008C26.0494 32.3009 25.9029 32.6774 25.9029 33.1377C25.9029 33.6607 26.0807 34.0791 26.4364 34.3929Z" fill="url(#paint2_linear_10683_10764)"/>
<path d="M40.4636 26.9243C40.8402 27.3009 41.3422 27.4892 41.9699 27.4892C42.5766 27.4892 43.0682 27.3009 43.4448 26.9243C43.8422 26.5477 44.041 26.0352 44.041 25.3866V21.1502C44.041 20.5226 43.8422 20.0205 43.4448 19.644C43.0682 19.2465 42.5766 19.0477 41.9699 19.0477C41.3422 19.0477 40.8402 19.2465 40.4636 19.644C40.087 20.0205 39.8987 20.5226 39.8987 21.1502V25.3866C39.8987 26.0352 40.087 26.5477 40.4636 26.9243Z" fill="url(#paint3_linear_10683_10764)"/>
<path d="M24.8674 43.9013C26.6456 44.6126 28.4448 44.9682 30.2648 44.9682C32.0849 44.9682 33.8632 44.6021 35.5996 43.8699C37.3569 43.1168 38.905 42.0812 40.2439 40.7632C40.3904 40.6168 40.5054 40.4494 40.5891 40.2611C40.6728 40.0519 40.7146 39.8113 40.7146 39.5394C40.7146 39.0582 40.5577 38.6712 40.2439 38.3783C39.9301 38.0854 39.5535 37.939 39.1142 37.939C38.654 37.939 38.2042 38.1691 37.7648 38.6293C36.8653 39.5498 35.746 40.303 34.4071 40.8887C33.0891 41.4536 31.7084 41.736 30.2648 41.736C28.905 41.736 27.5556 41.4536 26.2167 40.8887C24.8778 40.3239 23.7481 39.5708 22.8276 38.6293C22.5975 38.4201 22.3778 38.2528 22.1686 38.1272C21.9803 38.0017 21.7397 37.939 21.4468 37.939C20.9866 37.939 20.5996 38.0854 20.2858 38.3783C19.972 38.6712 19.8151 39.0582 19.8151 39.5394C19.8151 39.7695 19.8569 39.9892 19.9406 40.1984C20.0452 40.3867 20.1812 40.5645 20.3485 40.7318C21.5828 42.1126 23.0891 43.1691 24.8674 43.9013Z" fill="url(#paint4_linear_10683_10764)"/>
</g>
</g>
<defs>
<linearGradient id="paint0_linear_10683_10764" x1="0.484314" y1="30" x2="60.5157" y2="30" gradientUnits="userSpaceOnUse">
<stop stop-color="#00BAFE"/>
<stop offset="1" stop-color="#CAA7FF"/>
</linearGradient>
<linearGradient id="paint1_linear_10683_10764" x1="16.7711" y1="31.9923" x2="44.041" y2="31.9923" gradientUnits="userSpaceOnUse">
<stop stop-color="#00BAFE"/>
<stop offset="1" stop-color="#CAA7FF"/>
</linearGradient>
<linearGradient id="paint2_linear_10683_10764" x1="16.7711" y1="31.9923" x2="44.041" y2="31.9923" gradientUnits="userSpaceOnUse">
<stop stop-color="#00BAFE"/>
<stop offset="1" stop-color="#CAA7FF"/>
</linearGradient>
<linearGradient id="paint3_linear_10683_10764" x1="16.7711" y1="31.9923" x2="44.041" y2="31.9923" gradientUnits="userSpaceOnUse">
<stop stop-color="#00BAFE"/>
<stop offset="1" stop-color="#CAA7FF"/>
</linearGradient>
<linearGradient id="paint4_linear_10683_10764" x1="16.7711" y1="31.9923" x2="44.041" y2="31.9923" gradientUnits="userSpaceOnUse">
<stop stop-color="#00BAFE"/>
<stop offset="1" stop-color="#CAA7FF"/>
</linearGradient>
</defs>
</svg>
