
<svg width="345" height="345" viewBox="0 0 345 345" fill="none" xmlns="http://www.w3.org/2000/svg">
<path d="M0 28C0 12.536 12.536 0 28 0H317C332.464 0 345 12.536 345 28V317C345 332.464 332.464 345 317 345H28C12.536 345 0 332.464 0 317V28Z" fill="white"/>
<path opacity="0.4" d="M239.167 144.567V185.167L228.301 175.833C223.101 171.367 214.701 171.367 209.501 175.833L181.767 199.633C176.567 204.1 168.167 204.1 162.967 199.633L160.701 197.767C155.967 193.633 148.434 193.233 143.101 196.833L110.301 218.833L109.567 219.367C107.101 214.033 105.834 207.7 105.834 200.433V144.567C105.834 120.3 120.301 105.833 144.567 105.833H200.434C224.701 105.833 239.167 120.3 239.167 144.567Z" fill="#BDBDBD"/>
<path d="M152.494 161.701C161.257 161.701 168.36 154.597 168.36 145.834C168.36 137.071 161.257 129.968 152.494 129.968C143.731 129.968 136.627 137.071 136.627 145.834C136.627 154.597 143.731 161.701 152.494 161.701Z" fill="#BDBDBD"/>
<path d="M239.17 185.167V200.434C239.17 224.7 224.704 239.167 200.437 239.167H144.57C127.57 239.167 115.304 232.034 109.57 219.367L110.304 218.834L143.104 196.834C148.437 193.234 155.97 193.634 160.704 197.767L162.97 199.634C168.17 204.1 176.57 204.1 181.77 199.634L209.504 175.834C214.704 171.367 223.104 171.367 228.304 175.834L239.17 185.167Z" fill="#BDBDBD"/>
</svg>
