<svg width="29" height="28" viewBox="0 0 29 28" fill="none" xmlns="http://www.w3.org/2000/svg">
<path d="M23.4655 11.6667H4.79883V21C4.79883 24.5 5.96549 25.6667 9.46549 25.6667H18.7988C22.2988 25.6667 23.4655 24.5 23.4655 21V11.6667Z" stroke="url(#paint0_linear_10683_11664)" stroke-width="1.5" stroke-miterlimit="10" stroke-linecap="round" stroke-linejoin="round"/>
<path d="M25.2502 8.16667V9.33333C25.2502 10.6167 24.6318 11.6667 22.9168 11.6667H5.41683C3.63183 11.6667 3.0835 10.6167 3.0835 9.33333V8.16667C3.0835 6.88333 3.63183 5.83333 5.41683 5.83333H22.9168C24.6318 5.83333 25.2502 6.88333 25.2502 8.16667Z" stroke="url(#paint1_linear_10683_11664)" stroke-width="1.5" stroke-miterlimit="10" stroke-linecap="round" stroke-linejoin="round"/>
<path opacity="0.4" d="M13.7471 5.83333H7.30707C6.9104 5.40167 6.92207 4.73667 7.34207 4.31667L8.99873 2.66C9.4304 2.22833 10.1421 2.22833 10.5737 2.66L13.7471 5.83333Z" stroke="url(#paint2_linear_10683_11664)" stroke-width="1.5" stroke-miterlimit="10" stroke-linecap="round" stroke-linejoin="round"/>
<path opacity="0.4" d="M21.0152 5.83333H14.5752L17.7485 2.66C18.1802 2.22833 18.8919 2.22833 19.3235 2.66L20.9802 4.31667C21.4002 4.73667 21.4119 5.40167 21.0152 5.83333Z" stroke="url(#paint3_linear_10683_11664)" stroke-width="1.5" stroke-miterlimit="10" stroke-linecap="round" stroke-linejoin="round"/>
<path opacity="0.4" d="M10.5972 11.6667V17.6633C10.5972 18.5967 11.6238 19.145 12.4055 18.6433L13.5022 17.92C13.8988 17.6633 14.4005 17.6633 14.7855 17.92L15.8238 18.62C16.5938 19.1333 17.6322 18.585 17.6322 17.6517V11.6667H10.5972Z" stroke="url(#paint4_linear_10683_11664)" stroke-width="1.5" stroke-miterlimit="10" stroke-linecap="round" stroke-linejoin="round"/>
<defs>
<linearGradient id="paint0_linear_10683_11664" x1="4.79883" y1="18.6667" x2="23.4655" y2="18.6667" gradientUnits="userSpaceOnUse">
<stop stop-color="#00BAFE"/>
<stop offset="1" stop-color="#CAA7FF"/>
</linearGradient>
<linearGradient id="paint1_linear_10683_11664" x1="3.0835" y1="8.75" x2="25.2502" y2="8.75" gradientUnits="userSpaceOnUse">
<stop stop-color="#00BAFE"/>
<stop offset="1" stop-color="#CAA7FF"/>
</linearGradient>
<linearGradient id="paint2_linear_10683_11664" x1="7.01807" y1="4.08479" x2="13.7471" y2="4.08479" gradientUnits="userSpaceOnUse">
<stop stop-color="#00BAFE"/>
<stop offset="1" stop-color="#CAA7FF"/>
</linearGradient>
<linearGradient id="paint3_linear_10683_11664" x1="14.5752" y1="4.08479" x2="21.3042" y2="4.08479" gradientUnits="userSpaceOnUse">
<stop stop-color="#00BAFE"/>
<stop offset="1" stop-color="#CAA7FF"/>
</linearGradient>
<linearGradient id="paint4_linear_10683_11664" x1="10.5972" y1="15.25" x2="17.6322" y2="15.25" gradientUnits="userSpaceOnUse">
<stop stop-color="#00BAFE"/>
<stop offset="1" stop-color="#CAA7FF"/>
</linearGradient>
</defs>
</svg>
