<svg width="29" height="28" viewBox="0 0 29 28" fill="none" xmlns="http://www.w3.org/2000/svg">
<path d="M14.5002 25.6667C20.9435 25.6667 26.1668 20.4433 26.1668 14C26.1668 7.55668 20.9435 2.33334 14.5002 2.33334C8.05684 2.33334 2.8335 7.55668 2.8335 14C2.8335 20.4433 8.05684 25.6667 14.5002 25.6667Z" stroke="url(#paint0_linear_10683_11674)" stroke-width="1.5" stroke-linecap="round" stroke-linejoin="round"/>
<g opacity="0.4">
<path d="M9.83304 3.5H10.9997C8.72471 10.3133 8.72471 17.6867 10.9997 24.5H9.83304" stroke="url(#paint1_linear_10683_11674)" stroke-width="1.5" stroke-linecap="round" stroke-linejoin="round"/>
<path d="M18 3.5C20.275 10.3133 20.275 17.6867 18 24.5" stroke="url(#paint2_linear_10683_11674)" stroke-width="1.5" stroke-linecap="round" stroke-linejoin="round"/>
<path d="M4 18.6667V17.5C10.8133 19.775 18.1867 19.775 25 17.5V18.6667" stroke="url(#paint3_linear_10683_11674)" stroke-width="1.5" stroke-linecap="round" stroke-linejoin="round"/>
<path d="M4 10.5001C10.8133 8.22512 18.1867 8.22512 25 10.5001" stroke="url(#paint4_linear_10683_11674)" stroke-width="1.5" stroke-linecap="round" stroke-linejoin="round"/>
</g>
<defs>
<linearGradient id="paint0_linear_10683_11674" x1="2.8335" y1="14" x2="26.1668" y2="14" gradientUnits="userSpaceOnUse">
<stop stop-color="#00BAFE"/>
<stop offset="1" stop-color="#CAA7FF"/>
</linearGradient>
<linearGradient id="paint1_linear_10683_11674" x1="9.29346" y1="14" x2="10.9997" y2="14" gradientUnits="userSpaceOnUse">
<stop stop-color="#00BAFE"/>
<stop offset="1" stop-color="#CAA7FF"/>
</linearGradient>
<linearGradient id="paint2_linear_10683_11674" x1="18" y1="14" x2="19.7062" y2="14" gradientUnits="userSpaceOnUse">
<stop stop-color="#00BAFE"/>
<stop offset="1" stop-color="#CAA7FF"/>
</linearGradient>
<linearGradient id="paint3_linear_10683_11674" x1="4" y1="18.3531" x2="25" y2="18.3531" gradientUnits="userSpaceOnUse">
<stop stop-color="#00BAFE"/>
<stop offset="1" stop-color="#CAA7FF"/>
</linearGradient>
<linearGradient id="paint4_linear_10683_11674" x1="4" y1="9.64699" x2="25" y2="9.64699" gradientUnits="userSpaceOnUse">
<stop stop-color="#00BAFE"/>
<stop offset="1" stop-color="#CAA7FF"/>
</linearGradient>
</defs>
</svg>
