<svg width="14" height="14" viewBox="0 0 14 14" fill="none" xmlns="http://www.w3.org/2000/svg">
<path d="M7.00002 12.8334C10.2217 12.8334 12.8334 10.2217 12.8334 7.00008C12.8334 3.77842 10.2217 1.16675 7.00002 1.16675C3.77836 1.16675 1.16669 3.77842 1.16669 7.00008C1.16669 10.2217 3.77836 12.8334 7.00002 12.8334Z" stroke="#00BAFE" stroke-linecap="round" stroke-linejoin="round"/>
<g opacity="0.4">
<path d="M4.66646 1.75H5.24979C4.11229 5.15667 4.11229 8.84333 5.24979 12.25H4.66646" stroke="#00BAFE" stroke-linecap="round" stroke-linejoin="round"/>
<path d="M8.75 1.75C9.8875 5.15667 9.8875 8.84333 8.75 12.25" stroke="#00BAFE" stroke-linecap="round" stroke-linejoin="round"/>
<path d="M1.75 9.33333V8.75C5.15667 9.8875 8.84333 9.8875 12.25 8.75V9.33333" stroke="#00BAFE" stroke-linecap="round" stroke-linejoin="round"/>
<path d="M1.75 5.2501C5.15667 4.1126 8.84333 4.1126 12.25 5.2501" stroke="#00BAFE" stroke-linecap="round" stroke-linejoin="round"/>
</g>
</svg>
