
<svg width="134" height="134" viewBox="0 0 134 134" fill="none" xmlns="http://www.w3.org/2000/svg">
<path opacity="0.4" d="M122.833 50.25V91.9017C122.833 104.687 112.448 115.017 99.6625 115.017H34.3375C21.5516 115.017 11.1666 104.687 11.1666 91.9017V50.25H122.833Z" fill="url(#paint0_linear_14916_83251)"/>
<path d="M122.833 42.1004V50.252H11.1666V42.1004C11.1666 29.3145 21.5516 18.9854 34.3375 18.9854H99.6625C112.448 18.9854 122.833 29.3145 122.833 42.1004Z" fill="url(#paint1_linear_14916_83251)"/>
<path d="M44.6667 96.3125H33.5C31.2108 96.3125 29.3125 94.4142 29.3125 92.125C29.3125 89.8358 31.2108 87.9375 33.5 87.9375H44.6667C46.9558 87.9375 48.8542 89.8358 48.8542 92.125C48.8542 94.4142 46.9558 96.3125 44.6667 96.3125Z" fill="url(#paint2_linear_14916_83251)"/>
<path d="M56.2418 96.1918C55.5088 96.1889 54.8781 96.0085 54.3497 95.6506C53.8241 95.2926 53.4193 94.7741 53.1352 94.0952C52.854 93.4162 52.7148 92.5994 52.7176 91.6449C52.7176 90.6932 52.8582 89.8821 53.1395 89.2116C53.4236 88.5412 53.8284 88.0312 54.354 87.6818C54.8824 87.3295 55.5116 87.1534 56.2418 87.1534C56.9719 87.1534 57.5997 87.3295 58.1253 87.6818C58.6537 88.0341 59.0599 88.5455 59.344 89.2159C59.6281 89.8835 59.7687 90.6932 59.7659 91.6449C59.7659 92.6023 59.6239 93.4205 59.3398 94.0994C59.0585 94.7784 58.6551 95.2969 58.1295 95.6548C57.604 96.0128 56.9747 96.1918 56.2418 96.1918ZM56.2418 94.6619C56.7418 94.6619 57.1409 94.4105 57.4392 93.9077C57.7375 93.4048 57.8852 92.6506 57.8824 91.6449C57.8824 90.983 57.8142 90.4318 57.6778 89.9915C57.5443 89.5511 57.354 89.2202 57.1068 88.9986C56.8625 88.777 56.5741 88.6662 56.2418 88.6662C55.7446 88.6662 55.3469 88.9148 55.0486 89.4119C54.7503 89.9091 54.5997 90.6534 54.5969 91.6449C54.5969 92.3153 54.6636 92.875 54.7972 93.3239C54.9335 93.7699 55.1253 94.1051 55.3724 94.3295C55.6196 94.5511 55.9094 94.6619 56.2418 94.6619ZM63.9373 96.1193C63.281 96.1193 62.6972 96.0128 62.1859 95.7997C61.6773 95.5838 61.2782 95.2898 60.9884 94.9176C60.6986 94.5455 60.5538 94.1236 60.5538 93.652C60.5538 93.2884 60.6361 92.9545 60.8009 92.6506C60.9685 92.3438 61.1958 92.0895 61.4827 91.8878C61.7697 91.6832 62.0907 91.5526 62.4458 91.4957V91.4361C61.9799 91.3423 61.6021 91.1165 61.3123 90.7585C61.0225 90.3977 60.8776 89.9787 60.8776 89.5014C60.8776 89.0497 61.0097 88.6477 61.2739 88.2955C61.5381 87.9403 61.9004 87.6619 62.3606 87.4602C62.8236 87.2557 63.3492 87.1534 63.9373 87.1534C64.5254 87.1534 65.0495 87.2557 65.5097 87.4602C65.9728 87.6648 66.3364 87.9446 66.6006 88.2997C66.8648 88.652 66.9984 89.0526 67.0012 89.5014C66.9984 89.9815 66.8506 90.4006 66.558 90.7585C66.2654 91.1165 65.8904 91.3423 65.433 91.4361V91.4957C65.7825 91.5526 66.0992 91.6832 66.3833 91.8878C66.6702 92.0895 66.8975 92.3438 67.0651 92.6506C67.2356 92.9545 67.3222 93.2884 67.3251 93.652C67.3222 94.1236 67.1759 94.5455 66.8861 94.9176C66.5964 95.2898 66.1958 95.5838 65.6844 95.7997C65.1759 96.0128 64.5935 96.1193 63.9373 96.1193ZM63.9373 94.7642C64.2299 94.7642 64.4856 94.7116 64.7043 94.6065C64.9231 94.4986 65.0935 94.3509 65.2157 94.1634C65.3407 93.973 65.4032 93.7543 65.4032 93.5071C65.4032 93.2543 65.3393 93.0312 65.2114 92.8381C65.0836 92.642 64.9103 92.4886 64.6915 92.3778C64.4728 92.2642 64.2214 92.2074 63.9373 92.2074C63.656 92.2074 63.4046 92.2642 63.183 92.3778C62.9614 92.4886 62.7867 92.642 62.6589 92.8381C62.5339 93.0312 62.4714 93.2543 62.4714 93.5071C62.4714 93.7543 62.5325 93.973 62.6546 94.1634C62.7768 94.3509 62.9486 94.4986 63.1702 94.6065C63.3918 94.7116 63.6475 94.7642 63.9373 94.7642ZM63.9373 90.8651C64.1816 90.8651 64.3989 90.8153 64.5893 90.7159C64.7796 90.6165 64.9288 90.4787 65.0367 90.3026C65.1447 90.1264 65.1987 89.9233 65.1987 89.6932C65.1987 89.4659 65.1447 89.267 65.0367 89.0966C64.9288 88.9233 64.781 88.7884 64.5935 88.6918C64.406 88.5923 64.1873 88.5426 63.9373 88.5426C63.6901 88.5426 63.4714 88.5923 63.281 88.6918C63.0907 88.7884 62.9415 88.9233 62.8336 89.0966C62.7285 89.267 62.6759 89.4659 62.6759 89.6932C62.6759 89.9233 62.7299 90.1264 62.8379 90.3026C62.9458 90.4787 63.095 90.6165 63.2853 90.7159C63.4756 90.8153 63.693 90.8651 63.9373 90.8651ZM72.0334 86.8636L69.2209 97.3125H67.657L70.4695 86.8636H72.0334ZM72.491 96V94.6705L75.5975 91.794C75.8617 91.5384 76.0833 91.3082 76.2623 91.1037C76.4441 90.8991 76.5819 90.6989 76.6756 90.5028C76.7694 90.304 76.8163 90.0895 76.8163 89.8594C76.8163 89.6037 76.758 89.3835 76.6415 89.1989C76.5251 89.0114 76.366 88.8679 76.1643 88.7685C75.9626 88.6662 75.7339 88.6151 75.4782 88.6151C75.2111 88.6151 74.9782 88.669 74.7793 88.777C74.5805 88.8849 74.4271 89.0398 74.3191 89.2415C74.2111 89.4432 74.1572 89.6832 74.1572 89.9616H72.4058C72.4058 89.3906 72.535 88.8949 72.7935 88.4744C73.0521 88.054 73.4143 87.7287 73.8802 87.4986C74.3461 87.2685 74.883 87.1534 75.491 87.1534C76.116 87.1534 76.66 87.2642 77.1231 87.4858C77.589 87.7045 77.9512 88.0085 78.2097 88.3977C78.4683 88.7869 78.5975 89.233 78.5975 89.7358C78.5975 90.0653 78.5322 90.3906 78.4015 90.7116C78.2736 91.0327 78.045 91.3892 77.7154 91.7812C77.3859 92.1705 76.9214 92.6378 76.3219 93.1832L75.0478 94.4318V94.4915H78.7126V96H72.491ZM79.33 94.4659V93.0128L82.9734 87.2727H84.2263V89.2841H83.4848L81.1879 92.919V92.9872H86.3655V94.4659H79.33ZM83.5189 96V94.0227L83.553 93.3793V87.2727H85.2831V96H83.5189Z" fill="#04334D"/>
<defs>
<linearGradient id="paint0_linear_14916_83251" x1="157.64" y1="82.6333" x2="11.1666" y2="82.6332" gradientUnits="userSpaceOnUse">
<stop stop-color="#00BAFE"/>
<stop offset="1" stop-color="#7DD942"/>
</linearGradient>
<linearGradient id="paint1_linear_14916_83251" x1="157.64" y1="34.6187" x2="11.1666" y2="34.6185" gradientUnits="userSpaceOnUse">
<stop stop-color="#00BAFE"/>
<stop offset="1" stop-color="#7DD942"/>
</linearGradient>
<linearGradient id="paint2_linear_14916_83251" x1="54.9454" y1="92.125" x2="29.3125" y2="92.125" gradientUnits="userSpaceOnUse">
<stop stop-color="#00BAFE"/>
<stop offset="1" stop-color="#7DD942"/>
</linearGradient>
</defs>
</svg>
