
<svg width="134" height="134" viewBox="0 0 134 134" fill="none" xmlns="http://www.w3.org/2000/svg">
<path opacity="0.4" d="M122.833 50.25V91.9017C122.833 104.687 112.448 115.017 99.6625 115.017H34.3375C21.5517 115.017 11.1667 104.687 11.1667 91.9017V50.25H122.833Z" fill="url(#paint0_linear_14916_83273)"/>
<path d="M122.833 42.1004V50.252H11.1667V42.1004C11.1667 29.3145 21.5517 18.9854 34.3375 18.9854H99.6625C112.448 18.9854 122.833 29.3145 122.833 42.1004Z" fill="url(#paint1_linear_14916_83273)"/>
<path d="M84.3542 71.3125H28.1875C25.8983 71.3125 24 69.4142 24 67.125C24 64.8358 25.8983 62.9375 28.1875 62.9375H84.3542C86.6433 62.9375 88.5417 64.8358 88.5417 67.125C88.5417 69.4142 86.6433 71.3125 84.3542 71.3125Z" fill="url(#paint2_linear_14916_83273)"/>
<path d="M95.7343 62.2727V71H93.8892V64.0241H93.838L91.8395 65.277V63.6406L94 62.2727H95.7343ZM97.4086 71V69.6705L100.515 66.794C100.779 66.5384 101.001 66.3082 101.18 66.1037C101.362 65.8991 101.499 65.6989 101.593 65.5028C101.687 65.304 101.734 65.0895 101.734 64.8594C101.734 64.6037 101.676 64.3835 101.559 64.1989C101.443 64.0114 101.284 63.8679 101.082 63.7685C100.88 63.6662 100.651 63.6151 100.396 63.6151C100.129 63.6151 99.8958 63.669 99.6969 63.777C99.498 63.8849 99.3446 64.0398 99.2367 64.2415C99.1287 64.4432 99.0748 64.6832 99.0748 64.9616H97.3233C97.3233 64.3906 97.4526 63.8949 97.7111 63.4744C97.9696 63.054 98.3319 62.7287 98.7978 62.4986C99.2637 62.2685 99.8006 62.1534 100.409 62.1534C101.034 62.1534 101.578 62.2642 102.041 62.4858C102.507 62.7045 102.869 63.0085 103.127 63.3977C103.386 63.7869 103.515 64.233 103.515 64.7358C103.515 65.0653 103.45 65.3906 103.319 65.7116C103.191 66.0327 102.963 66.3892 102.633 66.7812C102.303 67.1705 101.839 67.6378 101.24 68.1832L99.9654 69.4318V69.4915H103.63V71H97.4086ZM107.793 71.1193C107.157 71.1193 106.59 71.0099 106.093 70.7912C105.598 70.5696 105.208 70.2656 104.921 69.8793C104.637 69.4901 104.49 69.0412 104.482 68.5327H106.34C106.351 68.7457 106.421 68.9332 106.549 69.0952C106.679 69.2543 106.853 69.3778 107.069 69.4659C107.284 69.554 107.527 69.598 107.797 69.598C108.079 69.598 108.327 69.5483 108.543 69.4489C108.759 69.3494 108.928 69.2116 109.05 69.0355C109.172 68.8594 109.233 68.6562 109.233 68.4261C109.233 68.1932 109.168 67.9872 109.037 67.8082C108.909 67.6264 108.725 67.4844 108.483 67.3821C108.245 67.2798 107.961 67.2287 107.631 67.2287H106.817V65.8736H107.631C107.909 65.8736 108.155 65.8253 108.368 65.7287C108.584 65.6321 108.752 65.4986 108.871 65.3281C108.99 65.1548 109.05 64.9531 109.05 64.723C109.05 64.5043 108.998 64.3125 108.892 64.1477C108.79 63.9801 108.645 63.8494 108.458 63.7557C108.273 63.6619 108.057 63.6151 107.81 63.6151C107.56 63.6151 107.331 63.6605 107.124 63.7514C106.917 63.8395 106.75 63.9659 106.625 64.1307C106.5 64.2955 106.434 64.4886 106.425 64.7102H104.657C104.665 64.2074 104.809 63.7642 105.087 63.3807C105.365 62.9972 105.74 62.6974 106.212 62.4815C106.686 62.2628 107.222 62.1534 107.819 62.1534C108.421 62.1534 108.948 62.2628 109.4 62.4815C109.851 62.7003 110.202 62.9957 110.452 63.3679C110.705 63.7372 110.83 64.152 110.827 64.6122C110.83 65.1009 110.678 65.5085 110.371 65.8352C110.067 66.1619 109.671 66.3693 109.182 66.4574V66.5256C109.824 66.608 110.313 66.831 110.648 67.1946C110.986 67.5554 111.154 68.0071 111.151 68.5497C111.154 69.0469 111.01 69.4886 110.721 69.875C110.434 70.2614 110.037 70.5653 109.532 70.7869C109.026 71.0085 108.446 71.1193 107.793 71.1193Z" fill="#04334D"/>
<defs>
<linearGradient id="paint0_linear_14916_83273" x1="157.64" y1="82.6333" x2="11.1667" y2="82.6332" gradientUnits="userSpaceOnUse">
<stop stop-color="#00BAFE"/>
<stop offset="1" stop-color="#7DD942"/>
</linearGradient>
<linearGradient id="paint1_linear_14916_83273" x1="157.64" y1="34.6187" x2="11.1667" y2="34.6185" gradientUnits="userSpaceOnUse">
<stop stop-color="#00BAFE"/>
<stop offset="1" stop-color="#7DD942"/>
</linearGradient>
<linearGradient id="paint2_linear_14916_83273" x1="108.66" y1="67.125" x2="24" y2="67.1248" gradientUnits="userSpaceOnUse">
<stop stop-color="#00BAFE"/>
<stop offset="1" stop-color="#7DD942"/>
</linearGradient>
</defs>
</svg>
