<svg width="24" height="24" viewBox="0 0 24 24" fill="none" xmlns="http://www.w3.org/2000/svg">
<rect width="24" height="24" rx="12" fill="#5DBE24"/>
<path d="M6.75657 13.7435L8.83957 15.8265C9.12086 16.1077 9.50232 16.2657 9.90007 16.2657C10.2978 16.2657 10.6793 16.1077 10.9606 15.8265L17.3936 9.3935C17.4846 9.2992 17.535 9.1729 17.5339 9.0418C17.5328 8.9107 17.4802 8.78529 17.3875 8.69259C17.2948 8.59989 17.1694 8.5473 17.0383 8.54616C16.9072 8.54502 16.7809 8.59542 16.6866 8.6865L10.2536 15.1195C10.1598 15.2132 10.0326 15.2659 9.90007 15.2659C9.76748 15.2659 9.64033 15.2132 9.54657 15.1195L7.46357 13.0365C7.36927 12.9454 7.24296 12.895 7.11187 12.8962C6.98077 12.8973 6.85536 12.9499 6.76266 13.0426C6.66995 13.1353 6.61737 13.2607 6.61623 13.3918C6.61509 13.5229 6.66549 13.6492 6.75657 13.7435Z" fill="white"/>
</svg>
