<svg width="22" height="22" viewBox="0 0 22 22" fill="none" xmlns="http://www.w3.org/2000/svg">
<path d="M1.3872 14.1965L5.20604 18.0153C5.72174 18.5308 6.42108 18.8205 7.15029 18.8205C7.87949 18.8205 8.57883 18.5308 9.09453 18.0153L20.8884 6.22145C21.0553 6.04857 21.1477 5.81702 21.1457 5.57667C21.1436 5.33632 21.0472 5.10641 20.8772 4.93645C20.7072 4.7665 20.4773 4.67009 20.237 4.668C19.9966 4.66591 19.7651 4.75831 19.5922 4.92529L7.79837 16.7191C7.62647 16.891 7.39335 16.9875 7.15029 16.9875C6.90722 16.9875 6.6741 16.891 6.5022 16.7191L2.68337 12.9003C2.51048 12.7333 2.27893 12.6409 2.03858 12.643C1.79824 12.6451 1.56833 12.7415 1.39837 12.9115C1.22841 13.0814 1.13201 13.3113 1.12992 13.5517C1.12783 13.792 1.22022 14.0236 1.3872 14.1965Z" fill="#00BAFE"/>
</svg>
