
<svg width="386" height="413" viewBox="0 0 386 413" fill="none" xmlns="http://www.w3.org/2000/svg">
<rect x="0.5" y="0.5" width="385" height="412" rx="4.5" fill="#F6F9FC"/>
<rect x="0.5" y="0.5" width="385" height="412" rx="4.5" stroke="#9747FF" stroke-dasharray="10 5"/>
<g opacity="0.2">
<path opacity="0.4" d="M219.167 56.8266V73.0666L214.821 69.3333C212.741 67.5466 209.381 67.5466 207.301 69.3333L196.207 78.8532C194.127 80.6399 190.767 80.6399 188.687 78.8532L187.781 78.1066C185.887 76.4532 182.874 76.2932 180.741 77.7332L167.621 86.5333L167.327 86.7466C166.341 84.6133 165.834 82.0799 165.834 79.1733V56.8266C165.834 47.1199 171.621 41.3333 181.327 41.3333H203.674C213.381 41.3333 219.167 47.1199 219.167 56.8266Z" fill="#04334D"/>
<path d="M184.497 63.6804C188.002 63.6804 190.844 60.8389 190.844 57.3337C190.844 53.8286 188.002 50.9871 184.497 50.9871C180.992 50.9871 178.15 53.8286 178.15 57.3337C178.15 60.8389 180.992 63.6804 184.497 63.6804Z" fill="#04334D"/>
<path d="M219.168 73.0667V79.1734C219.168 88.8801 213.381 94.6667 203.675 94.6667H181.328C174.528 94.6667 169.621 91.8134 167.328 86.7467L167.621 86.5334L180.741 77.7334C182.875 76.2934 185.888 76.4534 187.781 78.1067L188.688 78.8534C190.768 80.6401 194.128 80.6401 196.208 78.8534L207.301 69.3334C209.381 67.5467 212.741 67.5467 214.821 69.3334L219.168 73.0667Z" fill="#04334D"/>
</g>
<rect opacity="0.2" x="44" y="152" width="297" height="15" fill="#04334D"/>
<rect opacity="0.2" x="44" y="219" width="297" height="10" fill="#04334D"/>
<rect opacity="0.2" x="44" y="239" width="297" height="10" fill="#04334D"/>
<rect opacity="0.2" x="44" y="259" width="297" height="10" fill="#04334D"/>
<g opacity="0.2">
<path opacity="0.4" d="M102.667 341.827V358.067L98.3207 354.333C96.2407 352.547 92.8806 352.547 90.8006 354.333L79.7073 363.853C77.6273 365.64 74.2673 365.64 72.1873 363.853L71.2806 363.107C69.3873 361.453 66.374 361.293 64.2407 362.733L51.1207 371.533L50.8273 371.747C49.8407 369.613 49.334 367.08 49.334 364.173V341.827C49.334 332.12 55.1207 326.333 64.8273 326.333H87.174C96.8806 326.333 102.667 332.12 102.667 341.827Z" fill="#04334D"/>
<path d="M67.9971 348.68C71.5022 348.68 74.3437 345.839 74.3437 342.334C74.3437 338.829 71.5022 335.987 67.9971 335.987C64.4919 335.987 61.6504 338.829 61.6504 342.334C61.6504 345.839 64.4919 348.68 67.9971 348.68Z" fill="#04334D"/>
<path d="M102.668 358.067V364.173C102.668 373.88 96.8815 379.667 87.1748 379.667H64.8281C58.0281 379.667 53.1215 376.813 50.8281 371.747L51.1215 371.533L64.2415 362.733C66.3748 361.293 69.3881 361.453 71.2815 363.107L72.1881 363.853C74.2681 365.64 77.6281 365.64 79.7081 363.853L90.8015 354.333C92.8815 352.547 96.2415 352.547 98.3215 354.333L102.668 358.067Z" fill="#04334D"/>
</g>
<g opacity="0.2">
<rect x="118" y="328" width="223" height="10" fill="#04334D"/>
<rect x="118" y="348" width="223" height="10" fill="#04334D"/>
<rect x="118" y="368" width="223" height="10" fill="#04334D"/>
</g>
</svg>
