<svg width="41" height="40" viewBox="0 0 41 40" fill="none" xmlns="http://www.w3.org/2000/svg">
<g id="vuesax/bulk/login">
<g id="login">
<path id="Vector" opacity="0.4" d="M15.5 12.0002V27.9835C15.5 33.3335 18.8333 36.6668 24.1667 36.6668H28.4833C33.8167 36.6668 37.15 33.3335 37.15 28.0002V12.0002C37.1667 6.66683 33.8333 3.3335 28.5 3.3335H24.1667C18.8333 3.3335 15.5 6.66683 15.5 12.0002Z" fill="url(#paint0_linear_10798_7161)"/>
<path id="Vector_2" d="M21.2168 13.5332L26.8002 19.1165C27.2835 19.5999 27.2835 20.3999 26.8002 20.8832L21.2168 26.4665C20.7335 26.9499 19.9335 26.9499 19.4502 26.4665C18.9668 25.9832 18.9668 25.1832 19.4502 24.6999L22.9002 21.2499H5.0835C4.40016 21.2499 3.8335 20.6832 3.8335 19.9999C3.8335 19.3165 4.40016 18.7499 5.0835 18.7499H22.9002L19.4502 15.2999C19.2002 15.0499 19.0835 14.7332 19.0835 14.4165C19.0835 14.0999 19.2002 13.7832 19.4502 13.5332C19.9335 13.0332 20.7168 13.0332 21.2168 13.5332Z" fill="url(#paint1_linear_10798_7161)"/>
</g>
</g>
<defs>
<linearGradient id="paint0_linear_10798_7161" x1="15.5" y1="20.0002" x2="37.1501" y2="20.0002" gradientUnits="userSpaceOnUse">
<stop stop-color="#00BAFE"/>
<stop offset="1" stop-color="#CAA7FF"/>
</linearGradient>
<linearGradient id="paint1_linear_10798_7161" x1="3.8335" y1="19.9936" x2="27.1627" y2="19.9936" gradientUnits="userSpaceOnUse">
<stop stop-color="#00BAFE"/>
<stop offset="1" stop-color="#CAA7FF"/>
</linearGradient>
</defs>
</svg>
