<svg width="26" height="26" viewBox="0 0 26 26" fill="none" xmlns="http://www.w3.org/2000/svg">
<rect x="1" y="1" width="24" height="24" rx="4" fill="white"/>
<rect x="1" y="1" width="24" height="24" rx="4" stroke="#D9D9D9" stroke-width="0.3"/>
<path d="M15.7356 17.1263H10.7385V8.21252H15.7356V17.1263Z" fill="#FF5F00"/>
<path d="M11.059 12.669C11.059 10.8608 11.912 9.25005 13.2403 8.21207C12.2689 7.45304 11.0431 7 9.71074 7C6.55674 7 4 9.53806 4 12.669C4 15.7999 6.55674 18.3379 9.71074 18.3379C11.0431 18.3379 12.2689 17.8849 13.2403 17.1259C11.912 16.0879 11.059 14.4772 11.059 12.669Z" fill="#EB001B"/>
<path d="M22.4751 12.669C22.4751 15.7999 19.9184 18.3379 16.7644 18.3379C15.4321 18.3379 14.2062 17.8849 13.2345 17.1259C14.5631 16.0879 15.4161 14.4772 15.4161 12.669C15.4161 10.8608 14.5631 9.25005 13.2345 8.21207C14.2062 7.45304 15.4321 7 16.7644 7C19.9184 7 22.4751 9.53806 22.4751 12.669Z" fill="#F79E1B"/>
</svg>
