<svg width="25" height="25" viewBox="0 0 25 25" fill="none" xmlns="http://www.w3.org/2000/svg">
<g id="vuesax/twotone/menu" opacity="0.5">
<g id="vuesax/twotone/menu_2">
<g id="menu">
<path id="Vector" d="M18.4151 8.45125C19.7737 8.45125 20.8751 7.34987 20.8751 5.99125C20.8751 4.63263 19.7737 3.53125 18.4151 3.53125C17.0564 3.53125 15.9551 4.63263 15.9551 5.99125C15.9551 7.34987 17.0564 8.45125 18.4151 8.45125Z" stroke="#7C7C7C" stroke-width="1.5" stroke-miterlimit="10" stroke-linecap="round" stroke-linejoin="round"/>
<path id="Vector_2" d="M7.33501 8.45125C8.69363 8.45125 9.795 7.34987 9.795 5.99125C9.795 4.63263 8.69363 3.53125 7.33501 3.53125C5.97639 3.53125 4.875 4.63263 4.875 5.99125C4.875 7.34987 5.97639 8.45125 7.33501 8.45125Z" stroke="#7C7C7C" stroke-width="1.5" stroke-miterlimit="10" stroke-linecap="round" stroke-linejoin="round"/>
<path id="Vector_3" d="M18.4151 20.752C19.7737 20.752 20.8751 19.6507 20.8751 18.292C20.8751 16.9334 19.7737 15.832 18.4151 15.832C17.0564 15.832 15.9551 16.9334 15.9551 18.292C15.9551 19.6507 17.0564 20.752 18.4151 20.752Z" stroke="#7C7C7C" stroke-width="1.5" stroke-miterlimit="10" stroke-linecap="round" stroke-linejoin="round"/>
<path id="Vector_4" d="M7.33501 20.752C8.69363 20.752 9.795 19.6507 9.795 18.292C9.795 16.9334 8.69363 15.832 7.33501 15.832C5.97639 15.832 4.875 16.9334 4.875 18.292C4.875 19.6507 5.97639 20.752 7.33501 20.752Z" stroke="#7C7C7C" stroke-width="1.5" stroke-miterlimit="10" stroke-linecap="round" stroke-linejoin="round"/>
</g>
</g>
</g>
</svg>
