<svg width="25" height="24" viewBox="0 0 25 24" fill="none" xmlns="http://www.w3.org/2000/svg">
<path d="M18.4151 8.31001C19.7737 8.31001 20.8751 7.20863 20.8751 5.85001C20.8751 4.49139 19.7737 3.39001 18.4151 3.39001C17.0564 3.39001 15.9551 4.49139 15.9551 5.85001C15.9551 7.20863 17.0564 8.31001 18.4151 8.31001Z" stroke="#7C7C7C" stroke-width="1.5" stroke-miterlimit="10" stroke-linecap="round" stroke-linejoin="round"/>
<path d="M7.33501 8.31001C8.69363 8.31001 9.795 7.20863 9.795 5.85001C9.795 4.49139 8.69363 3.39001 7.33501 3.39001C5.97639 3.39001 4.875 4.49139 4.875 5.85001C4.875 7.20863 5.97639 8.31001 7.33501 8.31001Z" stroke="#7C7C7C" stroke-width="1.5" stroke-miterlimit="10" stroke-linecap="round" stroke-linejoin="round"/>
<path d="M18.4151 20.6099C19.7737 20.6099 20.8751 19.5086 20.8751 18.1499C20.8751 16.7913 19.7737 15.6899 18.4151 15.6899C17.0564 15.6899 15.9551 16.7913 15.9551 18.1499C15.9551 19.5086 17.0564 20.6099 18.4151 20.6099Z" stroke="#7C7C7C" stroke-width="1.5" stroke-miterlimit="10" stroke-linecap="round" stroke-linejoin="round"/>
<path d="M7.33501 20.6099C8.69363 20.6099 9.795 19.5086 9.795 18.1499C9.795 16.7913 8.69363 15.6899 7.33501 15.6899C5.97639 15.6899 4.875 16.7913 4.875 18.1499C4.875 19.5086 5.97639 20.6099 7.33501 20.6099Z" stroke="#7C7C7C" stroke-width="1.5" stroke-miterlimit="10" stroke-linecap="round" stroke-linejoin="round"/>
</svg>
