<svg width="41" height="40" viewBox="0 0 41 40" fill="none" xmlns="http://www.w3.org/2000/svg">
<g id="vuesax/bulk/message-favorite">
<g id="message-favorite">
<path id="Vector" d="M35.4498 1.6665H30.5498C28.4332 1.6665 27.1665 2.93317 27.1665 5.04984V9.94984C27.1665 12.0665 28.4332 13.3332 30.5498 13.3332H35.4498C37.5665 13.3332 38.8332 12.0665 38.8332 9.94984V5.04984C38.8332 2.93317 37.5665 1.6665 35.4498 1.6665ZM36.5165 7.79984C35.8998 9.7665 33.7498 10.8332 32.9998 10.8332C32.2498 10.8332 30.1165 9.79984 29.4832 7.79984C29.3832 7.49984 29.3332 7.1665 29.3332 6.84984C29.3332 5.7665 29.8832 4.64984 31.0332 4.28317C31.7165 4.0665 32.4498 4.18317 32.9665 4.6165C33.4998 4.19984 34.2332 4.0665 34.9332 4.28317C36.4665 4.7665 36.9498 6.48317 36.5165 7.79984Z" fill="url(#paint0_linear_12038_4418)"/>
<path id="Vector_2" opacity="0.4" d="M35.4502 13.3335H30.5502C28.4335 13.3335 27.1668 12.0668 27.1668 9.95016V5.05016C27.1668 4.3835 27.3002 3.81683 27.5335 3.3335H12.1668C7.56683 3.3335 3.8335 7.05016 3.8335 11.6335V21.6002V23.2668C3.8335 27.8502 7.56683 31.5668 12.1668 31.5668H14.6668C15.1168 31.5668 15.7168 31.8668 16.0002 32.2335L18.5002 35.5502C19.6002 37.0168 21.4002 37.0168 22.5002 35.5502L25.0002 32.2335C25.3168 31.8168 25.8168 31.5668 26.3335 31.5668H28.8335C33.4335 31.5668 37.1668 27.8502 37.1668 23.2668V12.9502C36.6835 13.2002 36.1168 13.3335 35.4502 13.3335Z" fill="url(#paint1_linear_12038_4418)"/>
<path id="Vector_3" d="M20.5002 19.9998C19.5668 19.9998 18.8335 19.2498 18.8335 18.3332C18.8335 17.4165 19.5835 16.6665 20.5002 16.6665C21.4168 16.6665 22.1668 17.4165 22.1668 18.3332C22.1668 19.2498 21.4335 19.9998 20.5002 19.9998Z" fill="url(#paint2_linear_12038_4418)"/>
<path id="Vector_4" d="M27.1667 19.9998C26.2333 19.9998 25.5 19.2498 25.5 18.3332C25.5 17.4165 26.25 16.6665 27.1667 16.6665C28.0833 16.6665 28.8333 17.4165 28.8333 18.3332C28.8333 19.2498 28.1 19.9998 27.1667 19.9998Z" fill="url(#paint3_linear_12038_4418)"/>
<path id="Vector_5" d="M13.8332 19.9998C12.8998 19.9998 12.1665 19.2498 12.1665 18.3332C12.1665 17.4165 12.9165 16.6665 13.8332 16.6665C14.7498 16.6665 15.4998 17.4165 15.4998 18.3332C15.4998 19.2498 14.7665 19.9998 13.8332 19.9998Z" fill="url(#paint4_linear_12038_4418)"/>
</g>
</g>
<defs>
<linearGradient id="paint0_linear_12038_4418" x1="27.1665" y1="7.49984" x2="38.8332" y2="7.49984" gradientUnits="userSpaceOnUse">
<stop stop-color="#00BAFE"/>
<stop offset="1" stop-color="#CAA7FF"/>
</linearGradient>
<linearGradient id="paint1_linear_12038_4418" x1="3.8335" y1="19.9918" x2="37.1668" y2="19.9918" gradientUnits="userSpaceOnUse">
<stop stop-color="#00BAFE"/>
<stop offset="1" stop-color="#CAA7FF"/>
</linearGradient>
<linearGradient id="paint2_linear_12038_4418" x1="18.8335" y1="18.3332" x2="22.1668" y2="18.3332" gradientUnits="userSpaceOnUse">
<stop stop-color="#00BAFE"/>
<stop offset="1" stop-color="#CAA7FF"/>
</linearGradient>
<linearGradient id="paint3_linear_12038_4418" x1="25.5" y1="18.3332" x2="28.8333" y2="18.3332" gradientUnits="userSpaceOnUse">
<stop stop-color="#00BAFE"/>
<stop offset="1" stop-color="#CAA7FF"/>
</linearGradient>
<linearGradient id="paint4_linear_12038_4418" x1="12.1665" y1="18.3332" x2="15.4998" y2="18.3332" gradientUnits="userSpaceOnUse">
<stop stop-color="#00BAFE"/>
<stop offset="1" stop-color="#CAA7FF"/>
</linearGradient>
</defs>
</svg>
