
<svg width="21" height="20" viewBox="0 0 21 20" fill="none" xmlns="http://www.w3.org/2000/svg">
<path d="M18.8084 15.275C18.8084 15.575 18.7417 15.8834 18.6001 16.1834C18.4584 16.4834 18.2751 16.7667 18.0334 17.0334C17.6251 17.4834 17.1751 17.8084 16.6667 18.0167C16.1667 18.225 15.6251 18.3334 15.0417 18.3334C14.1917 18.3334 13.2834 18.1334 12.3251 17.725C11.3667 17.3167 10.4084 16.7667 9.45842 16.075C8.50008 15.375 7.59175 14.6 6.72508 13.7417C5.86675 12.875 5.09175 11.9667 4.40008 11.0167C3.71675 10.0667 3.16675 9.11669 2.76675 8.17502C2.36675 7.22502 2.16675 6.31669 2.16675 5.45002C2.16675 4.88335 2.26675 4.34169 2.46675 3.84169C2.66675 3.33335 2.98341 2.86669 3.42508 2.45002C3.95841 1.92502 4.54175 1.66669 5.15841 1.66669C5.39175 1.66669 5.62508 1.71669 5.83341 1.81669C6.05008 1.91669 6.24175 2.06669 6.39175 2.28335L8.32508 5.00835C8.47508 5.21669 8.58341 5.40835 8.65841 5.59169C8.73341 5.76669 8.77508 5.94169 8.77508 6.10002C8.77508 6.30002 8.71675 6.50002 8.60008 6.69169C8.49175 6.88335 8.33341 7.08335 8.13341 7.28335L7.50008 7.94169C7.40841 8.03335 7.36675 8.14169 7.36675 8.27502C7.36675 8.34169 7.37508 8.40002 7.39175 8.46669C7.41675 8.53335 7.44175 8.58335 7.45842 8.63335C7.60842 8.90835 7.86675 9.26669 8.23341 9.70002C8.60841 10.1334 9.00841 10.575 9.44175 11.0167C9.89175 11.4584 10.3251 11.8667 10.7667 12.2417C11.2001 12.6084 11.5584 12.8584 11.8417 13.0084C11.8834 13.025 11.9334 13.05 11.9917 13.075C12.0584 13.1 12.1251 13.1084 12.2001 13.1084C12.3417 13.1084 12.4501 13.0584 12.5417 12.9667L13.1751 12.3417C13.3834 12.1334 13.5834 11.975 13.7751 11.875C13.9667 11.7584 14.1584 11.7 14.3667 11.7C14.5251 11.7 14.6917 11.7334 14.8751 11.8084C15.0584 11.8834 15.2501 11.9917 15.4584 12.1334L18.2167 14.0917C18.4334 14.2417 18.5834 14.4167 18.6751 14.625C18.7584 14.8334 18.8084 15.0417 18.8084 15.275Z" stroke="#459818" stroke-width="1.5" stroke-miterlimit="10"/>
<path opacity="0.4" d="M13 4.97502L14.6667 6.64168L18 3.30835" stroke="#459818" stroke-width="1.5" stroke-linecap="round" stroke-linejoin="round"/>
</svg>
