<svg width="20" height="20" viewBox="0 0 20 20" fill="none" xmlns="http://www.w3.org/2000/svg">
    <g id="Layer 2">
        <g id="Layer 5">
            <path id="Vector" d="M15.0035 8.21777V8.22015L10.0029 10.0046V9.99983L15.0035 8.21777Z"
                fill="#04334D" />
            <path id="Vector_2" d="M15.0035 13.2168L10.0029 15.0012L15.0035 13.2168Z" fill="#04334D" />
            <path id="Vector_3" d="M12.0315 4.27832L10.0029 5.00161L12.0315 4.27832Z" fill="#04334D" />
            <path id="Vector_4" d="M20.0016 6.4375V11.4339L15.0034 13.216V8.21956L20.0016 6.4375Z"
                fill="#04334D" />
            <path id="Vector_5" d="M15.0035 8.2207V13.2171L10.0029 15.0016V10.0051L15.0035 8.2207Z"
                fill="#04334D" />
            <path id="Vector_6" d="M10.003 10.0049V15.0013L5.00244 16.7834V11.7869L10.003 10.0049Z"
                fill="#04334D" />
            <path id="Vector_7"
                d="M15.0035 3.21973V8.21854L10.0029 10.0006V5.00179L12.0315 4.27849L15.0035 3.21973Z"
                fill="#04334D" />
            <path id="Vector_8"
                d="M15.0035 13.2168V18.218L12.0315 19.2768L11.7076 19.391L10.0029 20V15.0012L15.0035 13.2168Z"
                fill="#04334D" />
            <path id="Vector_9" d="M10.003 0V0.00237925L5.00244 1.78682V1.78206L10.003 0Z"
                fill="#04334D" />
            <path id="Vector_10" d="M10.003 4.99902V5.0014L5.00244 6.78346V6.78108L10.003 4.99902Z"
                fill="#04334D" />
            <path id="Vector_11" d="M7.03076 11.0588L10.0027 10L7.03076 11.0588Z" fill="#04334D" />
            <path id="Vector_12"
                d="M5.00206 6.78516V11.7816L0.00146484 13.5636V8.56722L5.00206 6.78516Z"
                fill="#04334D" />
            <path id="Vector_13"
                d="M10.003 0V5.00119L5.00244 6.78325V1.78206L7.03105 1.05877L10.003 0Z"
                fill="#04334D" />
        </g>
    </g>
</svg>
    