<svg width="200" height="157" viewBox="0 0 200 157" fill="none" xmlns="http://www.w3.org/2000/svg">
    <g opacity="0.3" clip-path="url(#clip0_14916_83353)">
        <path d="M201.796 84.5312V84.5632L134.538 108.564V108.5L201.796 84.5312Z" fill="#7C7C7C" />
        <path d="M201.796 151.765L134.538 175.765L201.796 151.765Z" fill="#808080" />
        <path d="M161.823 31.5381L134.538 41.2664L161.823 31.5381Z" fill="#808080" />
        <path d="M201.796 84.5635V151.765L134.538 175.766V108.564L201.796 84.5635Z" fill="#302F66" />
        <path d="M134.537 108.563V175.765L67.2788 199.734V132.532L134.537 108.563Z" fill="#7D7CFF" />
        <path d="M201.796 17.2979V84.5319L134.538 108.501V41.2666L161.823 31.5383L201.796 17.2979Z"
            fill="#7D7CFF" />
        <path
            d="M201.796 151.765V219.031L161.823 233.271L157.466 234.807L134.538 242.999V175.765L201.796 151.765Z"
            fill="#302F66" />
        <path d="M134.537 41.2344V41.2664L67.2788 65.2351V65.2031L134.537 41.2344Z" fill="#808080" />
        <path d="M94.564 122.74L134.537 108.5L94.564 122.74Z" fill="#808080" />
        <path d="M67.278 65.2666V132.469L0.0200195 156.437V89.2353L67.278 65.2666Z" fill="white" />
        <path d="M134.537 -26V41.266L67.2788 65.2347V-2.03129L94.5636 -11.7596L134.537 -26Z"
            fill="white" />
    </g>
    <defs>
        <clipPath id="clip0_14916_83353">
            <rect width="269" height="269" fill="white" transform="translate(0 -26)" />
        </clipPath>
    </defs>
</svg>
    