
<svg width="41" height="40" viewBox="0 0 41 40" fill="none" xmlns="http://www.w3.org/2000/svg">
<path opacity="0.4" d="M28.8333 30.7166H22.1666L14.7499 35.65C13.6499 36.3833 12.1666 35.5999 12.1666 34.2666V30.7166C7.16659 30.7166 3.83325 27.3833 3.83325 22.3833V12.3833C3.83325 7.38326 7.16659 4.04993 12.1666 4.04993H28.8333C33.8333 4.04993 37.1666 7.38326 37.1666 12.3833V22.3833C37.1666 27.3833 33.8333 30.7166 28.8333 30.7166Z" fill="url(#paint0_linear_12428_4101)"/>
<path d="M20.5 20.1833C19.8167 20.1833 19.25 19.6167 19.25 18.9333V18.5834C19.25 16.6501 20.6667 15.7001 21.2 15.3334C21.8167 14.9167 22.0166 14.6334 22.0166 14.2001C22.0166 13.3667 21.3334 12.6833 20.5 12.6833C19.6667 12.6833 18.9834 13.3667 18.9834 14.2001C18.9834 14.8834 18.4167 15.4501 17.7334 15.4501C17.0501 15.4501 16.4834 14.8834 16.4834 14.2001C16.4834 11.9834 18.2834 10.1833 20.5 10.1833C22.7167 10.1833 24.5166 11.9834 24.5166 14.2001C24.5166 16.1001 23.1167 17.05 22.6 17.4C21.95 17.8334 21.75 18.1167 21.75 18.5834V18.9333C21.75 19.6333 21.1834 20.1833 20.5 20.1833Z" fill="url(#paint1_linear_12428_4101)"/>
<path d="M20.5 24.3333C19.8 24.3333 19.25 23.7666 19.25 23.0833C19.25 22.3999 19.8167 21.8333 20.5 21.8333C21.1833 21.8333 21.75 22.3999 21.75 23.0833C21.75 23.7666 21.2 24.3333 20.5 24.3333Z" fill="url(#paint2_linear_12428_4101)"/>
<defs>
<linearGradient id="paint0_linear_12428_4101" x1="3.83325" y1="19.9907" x2="37.1666" y2="19.9907" gradientUnits="userSpaceOnUse">
<stop stop-color="#00BAFE"/>
<stop offset="1" stop-color="#CAA7FF"/>
</linearGradient>
<linearGradient id="paint1_linear_12428_4101" x1="16.4834" y1="15.1833" x2="24.5166" y2="15.1833" gradientUnits="userSpaceOnUse">
<stop stop-color="#00BAFE"/>
<stop offset="1" stop-color="#CAA7FF"/>
</linearGradient>
<linearGradient id="paint2_linear_12428_4101" x1="19.25" y1="23.0833" x2="21.75" y2="23.0833" gradientUnits="userSpaceOnUse">
<stop stop-color="#00BAFE"/>
<stop offset="1" stop-color="#CAA7FF"/>
</linearGradient>
</defs>
</svg>
