<svg width="18" height="19" viewBox="0 0 18 19" fill="none" xmlns="http://www.w3.org/2000/svg">
<path d="M16.5 5L16.5 6.815C16.5 8 15.75 8.75 14.565 8.75L12 8.75L12 3.5075C12 2.675 12.6825 1.9925 13.515 2C14.3325 2.0075 15.0825 2.3375 15.6225 2.8775C16.1625 3.425 16.5 4.175 16.5 5Z" fill="#FF9800"/>
<path opacity="0.4" d="M1.5 5.75L1.5 16.25C1.5 16.8725 2.205 17.225 2.7 16.85L3.9825 15.89C4.2825 15.665 4.7025 15.695 4.9725 15.965L6.2175 17.2175C6.51 17.51 6.99 17.51 7.2825 17.2175L8.5425 15.9575C8.805 15.695 9.225 15.665 9.5175 15.89L10.8 16.85C11.295 17.2175 12 16.865 12 16.25L12 3.5C12 2.675 12.675 2 13.5 2L5.25 2L4.5 2C2.25 2 1.5 3.3425 1.5 5L1.5 5.75Z" fill="#FF9800"/>
<path d="M9 9.69501L6.75 9.69501C6.4425 9.69501 6.1875 9.95001 6.1875 10.2575C6.1875 10.565 6.4425 10.82 6.75 10.82L9 10.82C9.3075 10.82 9.5625 10.565 9.5625 10.2575C9.5625 9.95001 9.3075 9.69501 9 9.69501Z" fill="#FF9800"/>
<path d="M6.75 7.81995L9 7.81995C9.3075 7.81995 9.5625 7.56495 9.5625 7.25745C9.5625 6.94995 9.3075 6.69495 9 6.69495L6.75 6.69495C6.4425 6.69495 6.1875 6.94995 6.1875 7.25745C6.1875 7.56495 6.4425 7.81995 6.75 7.81995Z" fill="#FF9800"/>
<path d="M4.47754 6.50751C4.05754 6.50751 3.72754 6.84501 3.72754 7.25751C3.72754 7.67001 4.06504 8.00751 4.47754 8.00751C4.89004 8.00751 5.22754 7.67001 5.22754 7.25751C5.22754 6.84501 4.89004 6.50751 4.47754 6.50751Z" fill="#FF9800"/>
<path d="M4.47754 9.50745C4.05754 9.50745 3.72754 9.84495 3.72754 10.2574C3.72754 10.6699 4.06504 11.0074 4.47754 11.0074C4.89004 11.0074 5.22754 10.6699 5.22754 10.2574C5.22754 9.84495 4.89004 9.50745 4.47754 9.50745Z" fill="#FF9800"/>
</svg>
