<svg width="29" height="28" viewBox="0 0 29 28" fill="none" xmlns="http://www.w3.org/2000/svg">
<path d="M26.5003 14C26.5003 20.44 21.2737 25.6667 14.8337 25.6667C8.39366 25.6667 3.16699 20.44 3.16699 14C3.16699 7.56 8.39366 2.33333 14.8337 2.33333" stroke="url(#paint0_linear_10683_11660)" stroke-width="1.5" stroke-linecap="round" stroke-linejoin="round"/>
<path d="M20.667 3.5V8.16667H25.3337" stroke="url(#paint1_linear_10683_11660)" stroke-width="1.5" stroke-linecap="round" stroke-linejoin="round"/>
<path d="M26.5003 2.33333L20.667 8.16667" stroke="url(#paint2_linear_10683_11660)" stroke-width="1.5" stroke-linecap="round" stroke-linejoin="round"/>
<path d="M17.4165 18.9583H11.5832C9.83317 18.9583 8.6665 18.0833 8.6665 16.0417V11.9583C8.6665 9.91667 9.83317 9.04167 11.5832 9.04167H17.4165C19.1665 9.04167 20.3332 9.91667 20.3332 11.9583V16.0417C20.3332 18.0833 19.1665 18.9583 17.4165 18.9583Z" stroke="url(#paint3_linear_10683_11660)" stroke-width="0.875" stroke-miterlimit="10" stroke-linecap="round" stroke-linejoin="round"/>
<path d="M14.5 15.75C15.4665 15.75 16.25 14.9665 16.25 14C16.25 13.0335 15.4665 12.25 14.5 12.25C13.5335 12.25 12.75 13.0335 12.75 14C12.75 14.9665 13.5335 15.75 14.5 15.75Z" stroke="url(#paint4_linear_10683_11660)" stroke-width="0.875" stroke-miterlimit="10" stroke-linecap="round" stroke-linejoin="round"/>
<path opacity="0.4" d="M12.4583 10.5H11.5833C10.7783 10.5 10.125 11.1533 10.125 11.9583V12.8333" stroke="url(#paint5_linear_10683_11660)" stroke-width="0.875" stroke-miterlimit="10" stroke-linecap="round" stroke-linejoin="round"/>
<path opacity="0.4" d="M16.5415 10.5H17.4165C18.2215 10.5 18.8748 11.1533 18.8748 11.9583V12.8333" stroke="url(#paint6_linear_10683_11660)" stroke-width="0.875" stroke-miterlimit="10" stroke-linecap="round" stroke-linejoin="round"/>
<path opacity="0.4" d="M12.4583 17.5H11.5833C10.7783 17.5 10.125 16.8467 10.125 16.0417V15.1667" stroke="url(#paint7_linear_10683_11660)" stroke-width="0.875" stroke-miterlimit="10" stroke-linecap="round" stroke-linejoin="round"/>
<path opacity="0.4" d="M16.5415 17.5H17.4165C18.2215 17.5 18.8748 16.8467 18.8748 16.0417V15.1667" stroke="url(#paint8_linear_10683_11660)" stroke-width="0.875" stroke-miterlimit="10" stroke-linecap="round" stroke-linejoin="round"/>
<defs>
<linearGradient id="paint0_linear_10683_11660" x1="3.16699" y1="14" x2="26.5003" y2="14" gradientUnits="userSpaceOnUse">
<stop stop-color="#00BAFE"/>
<stop offset="1" stop-color="#CAA7FF"/>
</linearGradient>
<linearGradient id="paint1_linear_10683_11660" x1="20.667" y1="5.83333" x2="25.3337" y2="5.83333" gradientUnits="userSpaceOnUse">
<stop stop-color="#00BAFE"/>
<stop offset="1" stop-color="#CAA7FF"/>
</linearGradient>
<linearGradient id="paint2_linear_10683_11660" x1="20.667" y1="5.25" x2="26.5003" y2="5.25" gradientUnits="userSpaceOnUse">
<stop stop-color="#00BAFE"/>
<stop offset="1" stop-color="#CAA7FF"/>
</linearGradient>
<linearGradient id="paint3_linear_10683_11660" x1="8.6665" y1="14" x2="20.3332" y2="14" gradientUnits="userSpaceOnUse">
<stop stop-color="#00BAFE"/>
<stop offset="1" stop-color="#CAA7FF"/>
</linearGradient>
<linearGradient id="paint4_linear_10683_11660" x1="12.75" y1="14" x2="16.25" y2="14" gradientUnits="userSpaceOnUse">
<stop stop-color="#00BAFE"/>
<stop offset="1" stop-color="#CAA7FF"/>
</linearGradient>
<linearGradient id="paint5_linear_10683_11660" x1="10.125" y1="11.6667" x2="12.4583" y2="11.6667" gradientUnits="userSpaceOnUse">
<stop stop-color="#00BAFE"/>
<stop offset="1" stop-color="#CAA7FF"/>
</linearGradient>
<linearGradient id="paint6_linear_10683_11660" x1="16.5415" y1="11.6667" x2="18.8748" y2="11.6667" gradientUnits="userSpaceOnUse">
<stop stop-color="#00BAFE"/>
<stop offset="1" stop-color="#CAA7FF"/>
</linearGradient>
<linearGradient id="paint7_linear_10683_11660" x1="10.125" y1="16.3333" x2="12.4583" y2="16.3333" gradientUnits="userSpaceOnUse">
<stop stop-color="#00BAFE"/>
<stop offset="1" stop-color="#CAA7FF"/>
</linearGradient>
<linearGradient id="paint8_linear_10683_11660" x1="16.5415" y1="16.3333" x2="18.8748" y2="16.3333" gradientUnits="userSpaceOnUse">
<stop stop-color="#00BAFE"/>
<stop offset="1" stop-color="#CAA7FF"/>
</linearGradient>
</defs>
</svg>
