<svg width="49" height="48" viewBox="0 0 49 48" fill="none" xmlns="http://www.w3.org/2000/svg">
<path d="M21.4991 33.9998C20.9732 34.0003 20.4524 33.897 19.9664 33.6959C19.4805 33.4947 19.039 33.1998 18.6671 32.8278L11.0991 25.4298C10.7199 25.0585 10.5036 24.5518 10.498 24.0211C10.4924 23.4903 10.6978 22.9791 11.0691 22.5998C11.4404 22.2206 11.9472 22.0044 12.4779 21.9987C13.0086 21.9931 13.5199 22.1985 13.8991 22.5698L21.4851 29.9838L35.0971 16.5838C35.481 16.2461 35.9796 16.0682 36.4906 16.0867C37.0015 16.1051 37.486 16.3186 37.8445 16.6832C38.2029 17.0478 38.4081 17.5358 38.4179 18.047C38.4277 18.5582 38.2414 19.0538 37.8971 19.4318L24.3111 32.8458C23.9413 33.2137 23.5026 33.5049 23.0201 33.7029C22.5376 33.9009 22.0207 34.0018 21.4991 33.9998ZM48.4991 37.9998V24.6798C48.5737 18.5147 46.3133 12.5496 42.1718 7.98218C38.0302 3.41474 32.3141 0.583116 26.1711 0.0558411C22.7424 -0.184044 19.3022 0.315321 16.0832 1.52015C12.8642 2.72497 9.94154 4.60715 7.51296 7.03934C5.08438 9.47153 3.20653 12.397 2.00648 15.6178C0.806426 18.8385 0.312163 22.2795 0.55713 25.7078C1.44113 38.4158 12.6631 47.9998 26.6651 47.9998H38.4991C41.1503 47.9967 43.692 46.9421 45.5667 45.0674C47.4414 43.1927 48.496 40.651 48.4991 37.9998ZM25.8991 4.04784C31.032 4.50191 35.803 6.88166 39.2533 10.709C42.7037 14.5362 44.5778 19.5275 44.4991 24.6798V37.9998C44.4991 39.5911 43.867 41.1173 42.7418 42.2425C41.6166 43.3677 40.0904 43.9998 38.4991 43.9998H26.6651C14.5971 43.9998 5.29913 36.1998 4.54913 25.4318C4.35223 22.689 4.72308 19.935 5.6385 17.342C6.55392 14.7489 7.99424 12.3725 9.86948 10.3612C11.7447 8.34987 14.0146 6.74687 16.5373 5.65234C19.0599 4.55781 21.7812 3.99526 24.5311 3.99984C24.9851 3.99984 25.4431 4.01784 25.8991 4.04784Z" fill="#00BAFE"/>
</svg>
