<svg width="21" height="20" viewBox="0 0 21 20" fill="none" xmlns="http://www.w3.org/2000/svg">
<path d="M11.429 15.0001C11.429 14.5399 11.0559 14.1668 10.5957 14.1668C10.1355 14.1668 9.76237 14.5399 9.76237 15.0001C9.76237 15.4604 10.1355 15.8335 10.5957 15.8335C11.0559 15.8335 11.429 15.4604 11.429 15.0001Z" fill="#00BAFE"/>
<path d="M10.5957 4.16679C10.3747 4.16679 10.1627 4.25459 10.0064 4.41087C9.85017 4.56715 9.76237 4.77911 9.76237 5.00013V11.6668C9.76237 11.8878 9.85017 12.0998 10.0064 12.256C10.1627 12.4123 10.3747 12.5001 10.5957 12.5001C10.8167 12.5001 11.0287 12.4123 11.185 12.256C11.3412 12.0998 11.429 11.8878 11.429 11.6668V5.00013C11.429 4.77911 11.3412 4.56715 11.185 4.41087C11.0287 4.25459 10.8167 4.16679 10.5957 4.16679Z" fill="#00BAFE"/>
<path d="M10.5957 0C8.61789 0 6.68449 0.58649 5.04 1.6853C3.39551 2.78412 2.11379 4.3459 1.35691 6.17316C0.600036 8.00043 0.402003 10.0111 0.787855 11.9509C1.17371 13.8907 2.12611 15.6725 3.52464 17.0711C4.92316 18.4696 6.70499 19.422 8.6448 19.8078C10.5846 20.1937 12.5953 19.9957 14.4225 19.2388C16.2498 18.4819 17.8116 17.2002 18.9104 15.5557C20.0092 13.9112 20.5957 11.9778 20.5957 10C20.5928 7.34871 19.5383 4.80684 17.6636 2.9321C15.7889 1.05736 13.247 0.00286757 10.5957 0ZM10.5957 18.3333C8.94753 18.3333 7.33636 17.8446 5.96595 16.9289C4.59554 16.0132 3.52744 14.7117 2.89671 13.189C2.26598 11.6663 2.10095 9.99075 2.4225 8.37425C2.74404 6.75774 3.53771 5.27288 4.70315 4.10744C5.86859 2.94201 7.35345 2.14833 8.96995 1.82679C10.5865 1.50525 12.262 1.67027 13.7847 2.301C15.3074 2.93173 16.6089 3.99984 17.5246 5.37025C18.4403 6.74066 18.929 8.35182 18.929 10C18.9266 12.2094 18.0479 14.3276 16.4856 15.8899C14.9233 17.4522 12.8051 18.3309 10.5957 18.3333Z" fill="#00BAFE"/>
</svg>
