<svg width="41" height="40" viewBox="0 0 41 40" fill="none" xmlns="http://www.w3.org/2000/svg">
<path opacity="0.4" d="M16.1996 3.5999L7.03295 7.03323C5.28295 7.68323 3.84961 9.76656 3.84961 11.6332V25.1332C3.84961 26.4832 4.73296 28.2666 5.81629 29.0666L14.983 35.9166C16.5996 37.1332 19.2496 37.1332 20.8663 35.9166L30.033 29.0666C31.1163 28.2499 31.9996 26.4832 31.9996 25.1332V11.6332C31.9996 9.76656 30.5663 7.68323 28.8163 7.03323L19.6496 3.5999C18.6996 3.2499 17.1496 3.2499 16.1996 3.5999Z" fill="url(#paint0_linear_18066_24465)"/>
<path d="M32.6001 11.2666H21.1834C20.8501 11.2666 20.5334 11.2833 20.2334 11.2833C17.3668 11.45 16.6001 12.5 16.6001 15.7666V16.4166C16.6001 17.107 17.1597 17.6666 17.8501 17.6666H35.9168C36.6071 17.6666 37.1668 17.107 37.1668 16.4166V15.7666C37.1668 12.1666 36.2501 11.2666 32.6001 11.2666Z" fill="url(#paint1_linear_18066_24465)"/>
<path d="M17.8667 19.5C17.1763 19.5 16.6167 20.0596 16.6167 20.75V24.2333C16.6167 27.8333 17.5334 28.75 21.1834 28.75H32.6C36.1834 28.75 37.1334 27.8833 37.1667 24.4333V20.75C37.1667 20.0596 36.6071 19.5 35.9167 19.5H17.8667ZM22.6167 25.7833H20.5334C20.0334 25.7833 19.6334 25.3833 19.6334 24.8833C19.6334 24.3833 20.0334 23.9833 20.5334 23.9833H22.6167C23.1167 23.9833 23.5167 24.3833 23.5167 24.8833C23.5167 25.3833 23.1167 25.7833 22.6167 25.7833ZM29.3667 25.7833H25.2167C24.7167 25.7833 24.3167 25.3833 24.3167 24.8833C24.3167 24.3833 24.7167 23.9833 25.2167 23.9833H29.3667C29.8667 23.9833 30.2667 24.3833 30.2667 24.8833C30.2834 25.3833 29.8667 25.7833 29.3667 25.7833Z" fill="url(#paint2_linear_18066_24465)"/>
<defs>
<linearGradient id="paint0_linear_18066_24465" x1="3.84961" y1="20.0832" x2="31.9996" y2="20.0832" gradientUnits="userSpaceOnUse">
<stop stop-color="#00BAFE"/>
<stop offset="1" stop-color="#CAA7FF"/>
</linearGradient>
<linearGradient id="paint1_linear_18066_24465" x1="16.6001" y1="14.4666" x2="37.1668" y2="14.4666" gradientUnits="userSpaceOnUse">
<stop stop-color="#00BAFE"/>
<stop offset="1" stop-color="#CAA7FF"/>
</linearGradient>
<linearGradient id="paint2_linear_18066_24465" x1="16.6167" y1="24.125" x2="37.1667" y2="24.125" gradientUnits="userSpaceOnUse">
<stop stop-color="#00BAFE"/>
<stop offset="1" stop-color="#CAA7FF"/>
</linearGradient>
</defs>
</svg>
