<svg width="29" height="28" viewBox="0 0 29 28" fill="none" xmlns="http://www.w3.org/2000/svg">
<path d="M26.5003 14C26.5003 20.44 21.2737 25.6667 14.8337 25.6667C8.39366 25.6667 3.16699 20.44 3.16699 14C3.16699 7.56 8.39366 2.33333 14.8337 2.33333" stroke="url(#paint0_linear_10683_11656)" stroke-width="1.5" stroke-linecap="round" stroke-linejoin="round"/>
<path d="M26.5002 7V2.33333H21.8335" stroke="url(#paint1_linear_10683_11656)" stroke-width="1.5" stroke-linecap="round" stroke-linejoin="round"/>
<path d="M20.667 8.16667L26.5003 2.33333" stroke="url(#paint2_linear_10683_11656)" stroke-width="1.5" stroke-linecap="round" stroke-linejoin="round"/>
<path d="M17.75 18.9583H11.9167C10.1667 18.9583 9 18.0833 9 16.0417V11.9583C9 9.91667 10.1667 9.04167 11.9167 9.04167H17.75C19.5 9.04167 20.6667 9.91667 20.6667 11.9583V16.0417C20.6667 18.0833 19.5 18.9583 17.75 18.9583Z" stroke="url(#paint3_linear_10683_11656)" stroke-width="0.875" stroke-miterlimit="10" stroke-linecap="round" stroke-linejoin="round"/>
<path d="M14.8335 15.75C15.8 15.75 16.5835 14.9665 16.5835 14C16.5835 13.0335 15.8 12.25 14.8335 12.25C13.867 12.25 13.0835 13.0335 13.0835 14C13.0835 14.9665 13.867 15.75 14.8335 15.75Z" stroke="url(#paint4_linear_10683_11656)" stroke-width="0.875" stroke-miterlimit="10" stroke-linecap="round" stroke-linejoin="round"/>
<path opacity="0.4" d="M12.7918 10.5H11.9168C11.1118 10.5 10.4585 11.1533 10.4585 11.9583V12.8333" stroke="url(#paint5_linear_10683_11656)" stroke-width="0.875" stroke-miterlimit="10" stroke-linecap="round" stroke-linejoin="round"/>
<path opacity="0.4" d="M16.875 10.5H17.75C18.555 10.5 19.2083 11.1533 19.2083 11.9583V12.8333" stroke="url(#paint6_linear_10683_11656)" stroke-width="0.875" stroke-miterlimit="10" stroke-linecap="round" stroke-linejoin="round"/>
<path opacity="0.4" d="M12.7918 17.5H11.9168C11.1118 17.5 10.4585 16.8467 10.4585 16.0417V15.1667" stroke="url(#paint7_linear_10683_11656)" stroke-width="0.875" stroke-miterlimit="10" stroke-linecap="round" stroke-linejoin="round"/>
<path opacity="0.4" d="M16.875 17.5H17.75C18.555 17.5 19.2083 16.8467 19.2083 16.0417V15.1667" stroke="url(#paint8_linear_10683_11656)" stroke-width="0.875" stroke-miterlimit="10" stroke-linecap="round" stroke-linejoin="round"/>
<defs>
<linearGradient id="paint0_linear_10683_11656" x1="3.16699" y1="14" x2="26.5003" y2="14" gradientUnits="userSpaceOnUse">
<stop stop-color="#00BAFE"/>
<stop offset="1" stop-color="#CAA7FF"/>
</linearGradient>
<linearGradient id="paint1_linear_10683_11656" x1="21.8335" y1="4.66667" x2="26.5002" y2="4.66667" gradientUnits="userSpaceOnUse">
<stop stop-color="#00BAFE"/>
<stop offset="1" stop-color="#CAA7FF"/>
</linearGradient>
<linearGradient id="paint2_linear_10683_11656" x1="20.667" y1="5.25" x2="26.5003" y2="5.25" gradientUnits="userSpaceOnUse">
<stop stop-color="#00BAFE"/>
<stop offset="1" stop-color="#CAA7FF"/>
</linearGradient>
<linearGradient id="paint3_linear_10683_11656" x1="9" y1="14" x2="20.6667" y2="14" gradientUnits="userSpaceOnUse">
<stop stop-color="#00BAFE"/>
<stop offset="1" stop-color="#CAA7FF"/>
</linearGradient>
<linearGradient id="paint4_linear_10683_11656" x1="13.0835" y1="14" x2="16.5835" y2="14" gradientUnits="userSpaceOnUse">
<stop stop-color="#00BAFE"/>
<stop offset="1" stop-color="#CAA7FF"/>
</linearGradient>
<linearGradient id="paint5_linear_10683_11656" x1="10.4585" y1="11.6667" x2="12.7918" y2="11.6667" gradientUnits="userSpaceOnUse">
<stop stop-color="#00BAFE"/>
<stop offset="1" stop-color="#CAA7FF"/>
</linearGradient>
<linearGradient id="paint6_linear_10683_11656" x1="16.875" y1="11.6667" x2="19.2083" y2="11.6667" gradientUnits="userSpaceOnUse">
<stop stop-color="#00BAFE"/>
<stop offset="1" stop-color="#CAA7FF"/>
</linearGradient>
<linearGradient id="paint7_linear_10683_11656" x1="10.4585" y1="16.3333" x2="12.7918" y2="16.3333" gradientUnits="userSpaceOnUse">
<stop stop-color="#00BAFE"/>
<stop offset="1" stop-color="#CAA7FF"/>
</linearGradient>
<linearGradient id="paint8_linear_10683_11656" x1="16.875" y1="16.3333" x2="19.2083" y2="16.3333" gradientUnits="userSpaceOnUse">
<stop stop-color="#00BAFE"/>
<stop offset="1" stop-color="#CAA7FF"/>
</linearGradient>
</defs>
</svg>
