<svg width="18" height="18" viewBox="0 0 18 18" fill="none" xmlns="http://www.w3.org/2000/svg">
<path d="M16.5 9C16.5 13.14 13.14 16.5 9 16.5C4.86 16.5 1.5 13.14 1.5 9C1.5 4.86 4.86 1.5 9 1.5" stroke="#00618D" stroke-width="0.964286" stroke-linecap="round" stroke-linejoin="round"/>
<path d="M16.5 4.5V1.5H13.5" stroke="#00618D" stroke-width="0.964286" stroke-linecap="round" stroke-linejoin="round"/>
<path d="M12.75 5.25L16.5 1.5" stroke="#00618D" stroke-width="0.964286" stroke-linecap="round" stroke-linejoin="round"/>
<path d="M10.875 12.1875H7.125C6 12.1875 5.25 11.625 5.25 10.3125V7.6875C5.25 6.375 6 5.8125 7.125 5.8125H10.875C12 5.8125 12.75 6.375 12.75 7.6875V10.3125C12.75 11.625 12 12.1875 10.875 12.1875Z" stroke="#00618D" stroke-width="0.5625" stroke-miterlimit="10" stroke-linecap="round" stroke-linejoin="round"/>
<path d="M9 10.125C9.62132 10.125 10.125 9.62132 10.125 9C10.125 8.37868 9.62132 7.875 9 7.875C8.37868 7.875 7.875 8.37868 7.875 9C7.875 9.62132 8.37868 10.125 9 10.125Z" stroke="#00618D" stroke-width="0.5625" stroke-miterlimit="10" stroke-linecap="round" stroke-linejoin="round"/>
<path opacity="0.4" d="M7.6875 6.75H7.125C6.6075 6.75 6.1875 7.17 6.1875 7.6875V8.25" stroke="#00618D" stroke-width="0.5625" stroke-miterlimit="10" stroke-linecap="round" stroke-linejoin="round"/>
<path opacity="0.4" d="M10.3125 6.75H10.875C11.3925 6.75 11.8125 7.17 11.8125 7.6875V8.25" stroke="#00618D" stroke-width="0.5625" stroke-miterlimit="10" stroke-linecap="round" stroke-linejoin="round"/>
<path opacity="0.4" d="M7.6875 11.25H7.125C6.6075 11.25 6.1875 10.83 6.1875 10.3125V9.75" stroke="#00618D" stroke-width="0.5625" stroke-miterlimit="10" stroke-linecap="round" stroke-linejoin="round"/>
<path opacity="0.4" d="M10.3125 11.25H10.875C11.3925 11.25 11.8125 10.83 11.8125 10.3125V9.75" stroke="#00618D" stroke-width="0.5625" stroke-miterlimit="10" stroke-linecap="round" stroke-linejoin="round"/>
</svg>
