<svg width="14" height="16" viewBox="0 0 14 16" fill="none" xmlns="http://www.w3.org/2000/svg">
<path d="M7.00017 10C6.82335 10 6.65379 9.92976 6.52876 9.80473C6.40374 9.67971 6.3335 9.51014 6.3335 9.33333V4C6.3335 3.82318 6.40374 3.65362 6.52876 3.52859C6.65379 3.40357 6.82335 3.33333 7.00017 3.33333C7.17698 3.33333 7.34655 3.40357 7.47157 3.52859C7.59659 3.65362 7.66683 3.82318 7.66683 4V9.33333C7.66683 9.51014 7.59659 9.67971 7.47157 9.80473C7.34655 9.92976 7.17698 10 7.00017 10ZM7.52883 15.84C8.96883 15.2613 13.6668 12.986 13.6668 8.02866V4.58133C13.6676 3.88067 13.4472 3.19764 13.0371 2.62954C12.627 2.06143 12.0481 1.63722 11.3828 1.41733L7.21017 0.0339958C7.07394 -0.011983 6.92639 -0.011983 6.79017 0.0339958L2.6175 1.41733C1.95224 1.63722 1.37333 2.06143 0.963232 2.62954C0.553134 3.19764 0.332759 3.88067 0.333498 4.58133V8.02866C0.333498 12.4033 5.0035 15.0793 6.4355 15.7953C6.61662 15.8818 6.80574 15.9503 7.00017 16C7.18093 15.963 7.35791 15.9095 7.52883 15.84ZM10.9628 2.68266C11.3619 2.81494 11.709 3.06958 11.9551 3.41042C12.2012 3.75126 12.3336 4.16096 12.3335 4.58133V8.02866C12.3335 12.1507 8.2755 14.1027 7.0315 14.6027C5.77283 13.9733 1.66683 11.6393 1.66683 8.02866V4.58133C1.66678 4.16096 1.79918 3.75126 2.04523 3.41042C2.29129 3.06958 2.63848 2.81494 3.0375 2.68266L7.00017 1.36933L10.9628 2.68266ZM7.00017 11.3333C6.86831 11.3333 6.73942 11.3724 6.62979 11.4457C6.52015 11.5189 6.4347 11.6231 6.38425 11.7449C6.33379 11.8667 6.32058 12.0007 6.34631 12.1301C6.37203 12.2594 6.43553 12.3782 6.52876 12.4714C6.622 12.5646 6.74078 12.6281 6.87011 12.6539C6.99943 12.6796 7.13347 12.6664 7.25529 12.6159C7.37711 12.5655 7.48122 12.48 7.55448 12.3704C7.62773 12.2607 7.66683 12.1319 7.66683 12C7.66683 11.8232 7.59659 11.6536 7.47157 11.5286C7.34655 11.4036 7.17698 11.3333 7.00017 11.3333Z" fill="#000"/>
</svg>
