<svg width="16" height="16" viewBox="0 0 16 16" fill="none" xmlns="http://www.w3.org/2000/svg">
<g clip-path="url(#clip0_10004_47637)">
<path d="M8.00017 10C7.82335 10 7.65379 9.92976 7.52876 9.80473C7.40374 9.67971 7.3335 9.51014 7.3335 9.33333V4C7.3335 3.82318 7.40374 3.65362 7.52876 3.52859C7.65379 3.40357 7.82335 3.33333 8.00017 3.33333C8.17698 3.33333 8.34655 3.40357 8.47157 3.52859C8.59659 3.65362 8.66683 3.82318 8.66683 4V9.33333C8.66683 9.51014 8.59659 9.67971 8.47157 9.80473C8.34655 9.92976 8.17698 10 8.00017 10ZM8.52883 15.84C9.96883 15.2613 14.6668 12.986 14.6668 8.02866V4.58133C14.6676 3.88067 14.4472 3.19764 14.0371 2.62954C13.627 2.06143 13.0481 1.63722 12.3828 1.41733L8.21017 0.0339958C8.07394 -0.011983 7.92639 -0.011983 7.79017 0.0339958L3.6175 1.41733C2.95224 1.63722 2.37333 2.06143 1.96323 2.62954C1.55313 3.19764 1.33276 3.88067 1.3335 4.58133V8.02866C1.3335 12.4033 6.0035 15.0793 7.4355 15.7953C7.61662 15.8818 7.80574 15.9503 8.00017 16C8.18093 15.963 8.35791 15.9095 8.52883 15.84ZM11.9628 2.68266C12.3619 2.81494 12.709 3.06958 12.9551 3.41042C13.2012 3.75126 13.3336 4.16096 13.3335 4.58133V8.02866C13.3335 12.1507 9.2755 14.1027 8.0315 14.6027C6.77283 13.9733 2.66683 11.6393 2.66683 8.02866V4.58133C2.66678 4.16096 2.79918 3.75126 3.04523 3.41042C3.29129 3.06958 3.63848 2.81494 4.0375 2.68266L8.00017 1.36933L11.9628 2.68266ZM8.00017 11.3333C7.86831 11.3333 7.73942 11.3724 7.62979 11.4457C7.52015 11.5189 7.4347 11.6231 7.38425 11.7449C7.33379 11.8667 7.32058 12.0007 7.34631 12.1301C7.37203 12.2594 7.43553 12.3782 7.52876 12.4714C7.622 12.5646 7.74078 12.6281 7.87011 12.6539C7.99943 12.6796 8.13347 12.6664 8.25529 12.6159C8.37711 12.5655 8.48122 12.48 8.55448 12.3704C8.62773 12.2607 8.66683 12.1319 8.66683 12C8.66683 11.8232 8.59659 11.6536 8.47157 11.5286C8.34655 11.4036 8.17698 11.3333 8.00017 11.3333Z" fill="#9953F9"/>
</g>
<defs>
<clipPath id="clip0_10004_47637">
<rect width="16" height="16" fill="white"/>
</clipPath>
</defs>
</svg>
