<svg width="25" height="24" viewBox="0 0 25 24" fill="none" xmlns="http://www.w3.org/2000/svg">
<path d="M2.625 2H4.36501C5.44501 2 6.295 2.93 6.205 4L5.375 13.96C5.235 15.59 6.52499 16.99 8.16499 16.99H18.815C20.255 16.99 21.515 15.81 21.625 14.38L22.165 6.88C22.285 5.22 21.025 3.87 19.355 3.87H6.44501" stroke="#7C7C7C" stroke-width="1.5" stroke-miterlimit="10" stroke-linecap="round" stroke-linejoin="round"/>
<path d="M16.875 22C17.5654 22 18.125 21.4404 18.125 20.75C18.125 20.0596 17.5654 19.5 16.875 19.5C16.1846 19.5 15.625 20.0596 15.625 20.75C15.625 21.4404 16.1846 22 16.875 22Z" stroke="#7C7C7C" stroke-width="1.5" stroke-miterlimit="10" stroke-linecap="round" stroke-linejoin="round"/>
<path d="M8.875 22C9.56536 22 10.125 21.4404 10.125 20.75C10.125 20.0596 9.56536 19.5 8.875 19.5C8.18464 19.5 7.625 20.0596 7.625 20.75C7.625 21.4404 8.18464 22 8.875 22Z" stroke="#7C7C7C" stroke-width="1.5" stroke-miterlimit="10" stroke-linecap="round" stroke-linejoin="round"/>
<path d="M9.625 8H21.625" stroke="#7C7C7C" stroke-width="1.5" stroke-miterlimit="10" stroke-linecap="round" stroke-linejoin="round"/>
</svg>
