<svg width="25" height="25" viewBox="0 0 25 25" fill="none" xmlns="http://www.w3.org/2000/svg">
<g id="vuesax/twotone/shopping-cart" opacity="0.5">
<g id="vuesax/twotone/shopping-cart_2">
<g id="shopping-cart">
<path id="Vector" d="M2.625 2.14062H4.36501C5.44501 2.14062 6.295 3.07062 6.205 4.14062L5.375 14.1006C5.235 15.7306 6.52499 17.1306 8.16499 17.1306H18.815C20.255 17.1306 21.515 15.9506 21.625 14.5206L22.165 7.02063C22.285 5.36063 21.025 4.01062 19.355 4.01062H6.44501" stroke="#7C7C7C" stroke-width="1.5" stroke-miterlimit="10" stroke-linecap="round" stroke-linejoin="round"/>
<path id="Vector_2" d="M16.875 22.1406C17.5654 22.1406 18.125 21.581 18.125 20.8906C18.125 20.2003 17.5654 19.6406 16.875 19.6406C16.1846 19.6406 15.625 20.2003 15.625 20.8906C15.625 21.581 16.1846 22.1406 16.875 22.1406Z" stroke="#7C7C7C" stroke-width="1.5" stroke-miterlimit="10" stroke-linecap="round" stroke-linejoin="round"/>
<path id="Vector_3" d="M8.875 22.1406C9.56536 22.1406 10.125 21.581 10.125 20.8906C10.125 20.2003 9.56536 19.6406 8.875 19.6406C8.18464 19.6406 7.625 20.2003 7.625 20.8906C7.625 21.581 8.18464 22.1406 8.875 22.1406Z" stroke="#7C7C7C" stroke-width="1.5" stroke-miterlimit="10" stroke-linecap="round" stroke-linejoin="round"/>
<path id="Vector_4" d="M9.625 8.14062H21.625" stroke="#7C7C7C" stroke-width="1.5" stroke-miterlimit="10" stroke-linecap="round" stroke-linejoin="round"/>
</g>
</g>
</g>
</svg>
