<svg width="345" height="69" viewBox="0 0 345 69" fill="none" xmlns="http://www.w3.org/2000/svg">
<g clip-path="url(#clip0_1745_91616)">
<path d="M0 16C0 7.16344 7.16344 0 16 0H329C337.837 0 345 7.16344 345 16V53C345 61.8366 337.837 69 329 69H16C7.16345 69 0 61.8366 0 53V16Z" fill="white" fill-opacity="0.2"/>
<path d="M0 16C0 7.16344 7.16344 0 16 0H329C337.837 0 345 7.16344 345 16V53C345 61.8366 337.837 69 329 69H16C7.16345 69 0 61.8366 0 53V16Z" fill="url(#paint0_linear_1745_91616)" fill-opacity="0.2"/>
<path d="M149.24 51.5733L106.92 80.7676" stroke="white" stroke-opacity="0.6" stroke-width="0.229941" stroke-linecap="round" stroke-linejoin="round"/>
<path d="M134.357 26.7883L107.414 80.7676" stroke="white" stroke-opacity="0.6" stroke-width="0.229941" stroke-linecap="round" stroke-linejoin="round"/>
<path d="M149.836 51.6115L135.446 26.75" stroke="white" stroke-opacity="0.6" stroke-width="0.229941" stroke-linecap="round" stroke-linejoin="round"/>
<path d="M136.928 133.297L148.281 51.5756" stroke="white" stroke-opacity="0.6" stroke-width="0.229941" stroke-linecap="round" stroke-linejoin="round"/>
<path d="M135.811 26.7949L196.861 9.29941" stroke="white" stroke-opacity="0.6" stroke-width="0.229941" stroke-linecap="round" stroke-linejoin="round"/>
<path d="M150.703 51.5723L196.342 9.29169" stroke="white" stroke-opacity="0.6" stroke-width="0.229941" stroke-linecap="round" stroke-linejoin="round"/>
<path d="M199.436 93.5889L149.836 51.4445" stroke="white" stroke-opacity="0.6" stroke-width="0.229941" stroke-linecap="round" stroke-linejoin="round"/>
<path d="M168.847 129.402L149.839 51.5266" stroke="white" stroke-opacity="0.6" stroke-width="0.229941" stroke-linecap="round" stroke-linejoin="round"/>
<path d="M197.213 9.28826L199.426 93.4589" stroke="white" stroke-opacity="0.6" stroke-width="0.229941" stroke-linecap="round" stroke-linejoin="round"/>
<path d="M254.965 78.6433L197.209 9.14671" stroke="white" stroke-opacity="0.6" stroke-width="0.229941" stroke-linecap="round" stroke-linejoin="round"/>
<path d="M266.05 58.1586L197.224 9.11624" stroke="white" stroke-opacity="0.6" stroke-width="0.229941" stroke-linecap="round" stroke-linejoin="round"/>
<path d="M265.624 57.9763L255.388 78.4902" stroke="white" stroke-opacity="0.6" stroke-width="0.229941" stroke-linecap="round" stroke-linejoin="round"/>
<path d="M319.838 54.8807L266.105 57.9717" stroke="white" stroke-opacity="0.6" stroke-width="0.229941" stroke-linecap="round" stroke-linejoin="round"/>
<path d="M317.934 115.732L266.045 57.8295" stroke="white" stroke-opacity="0.6" stroke-width="0.229941" stroke-linecap="round" stroke-linejoin="round"/>
<path d="M267.456 57.9639L322.331 -10.8502L322.351 -10.8502" stroke="white" stroke-opacity="0.6" stroke-width="0.229941" stroke-linecap="round" stroke-linejoin="round"/>
<path d="M331.241 88.0541L319.9 54.8493" stroke="white" stroke-opacity="0.6" stroke-width="0.229941" stroke-linecap="round" stroke-linejoin="round"/>
<path d="M266.048 57.7981L331.248 88.2" stroke="white" stroke-opacity="0.6" stroke-width="0.229941" stroke-linecap="round" stroke-linejoin="round"/>
<path d="M333.28 17.9211L320.643 54.877" stroke="white" stroke-opacity="0.6" stroke-width="0.229941" stroke-linecap="round" stroke-linejoin="round"/>
<path d="M333.984 48.5067L320.033 54.877" stroke="white" stroke-opacity="0.6" stroke-width="0.229941" stroke-linecap="round" stroke-linejoin="round"/>
<path d="M135.307 24.704C135.796 24.7026 136.278 24.8473 136.692 25.12C137.106 25.3926 137.433 25.7809 137.631 26.2355C137.83 26.6901 137.891 27.1906 137.807 27.6735C137.723 28.1564 137.498 28.6 137.16 28.9481C136.822 29.2961 136.386 29.5329 135.908 29.6285C135.43 29.724 134.932 29.674 134.475 29.4848C134.019 29.2956 133.626 28.9757 133.346 28.5656C133.065 28.1555 132.91 27.6738 132.901 27.1814C132.885 26.5226 133.13 25.8906 133.582 25.4245C134.034 24.9584 134.656 24.6964 135.311 24.6961" fill="white" fill-opacity="0.6"/>
<path d="M266.515 55.0245C267.003 55.0243 267.484 55.1698 267.897 55.4426C268.309 55.7154 268.635 56.1033 268.833 56.5572C269.03 57.0111 269.091 57.5105 269.007 57.9925C268.923 58.4744 268.698 58.9172 268.361 59.2648C268.024 59.6123 267.59 59.8492 267.113 59.9452C266.636 60.0413 266.138 59.9923 265.683 59.8044C265.227 59.6166 264.834 59.2983 264.553 58.8899C264.272 58.4814 264.115 58.0012 264.104 57.5098C264.088 56.8509 264.334 56.2189 264.786 55.7528C265.238 55.2867 265.86 55.0248 266.515 55.0245Z" fill="white" fill-opacity="0.6"/>
<path d="M319.886 51.7872C320.375 51.7873 320.856 51.933 321.268 52.206C321.68 52.4789 322.006 52.8668 322.203 53.3206C322.401 53.7744 322.461 54.2738 322.377 54.7556C322.293 55.2374 322.069 55.68 321.731 56.0275C321.394 56.375 320.96 56.6117 320.483 56.7078C320.007 56.8039 319.509 56.7551 319.054 56.5674C318.598 56.3798 318.205 56.0617 317.924 55.6535C317.642 55.2453 317.486 54.7653 317.474 54.2741C317.458 53.6152 317.704 52.9832 318.156 52.5171C318.608 52.051 319.23 51.789 319.885 51.7888" fill="white" fill-opacity="0.6"/>
<path d="M197.773 7.62117C198.262 7.62097 198.742 7.76651 199.155 8.03933C199.568 8.31215 199.893 8.70004 200.091 9.15391C200.289 9.60779 200.349 10.1073 200.265 10.5892C200.182 11.0712 199.957 11.5139 199.62 11.8615C199.282 12.2091 198.848 12.4458 198.371 12.5419C197.894 12.6379 197.397 12.5889 196.941 12.4011C196.485 12.2132 196.092 11.895 195.811 11.4866C195.53 11.0781 195.374 10.5978 195.362 10.1065C195.347 9.4476 195.592 8.81563 196.044 8.34955C196.496 7.88346 197.118 7.62143 197.773 7.62117" fill="white" fill-opacity="0.6"/>
</g>
<defs>
<linearGradient id="paint0_linear_1745_91616" x1="-76" y1="89.5" x2="-59.2595" y2="-23.9749" gradientUnits="userSpaceOnUse">
<stop stop-color="#00BAFE"/>
<stop offset="1" stop-color="#CAA7FF"/>
</linearGradient>
<clipPath id="clip0_1745_91616">
<path d="M0 16C0 7.16344 7.16344 0 16 0H329C337.837 0 345 7.16344 345 16V53C345 61.8366 337.837 69 329 69H16C7.16345 69 0 61.8366 0 53V16Z" fill="white"/>
</clipPath>
</defs>
</svg>
