<svg width="64" height="64" viewBox="0 0 64 64" fill="none" xmlns="http://www.w3.org/2000/svg">
<path opacity="0.4" d="M43.173 5.33325H20.8263C11.1197 5.33325 5.33301 11.1199 5.33301 20.8266V43.1466C5.33301 52.8799 11.1197 58.6666 20.8263 58.6666H43.1463C52.853 58.6666 58.6397 52.8799 58.6397 43.1733V20.8266C58.6663 11.1199 52.8797 5.33325 43.173 5.33325Z" fill="#00BAFE"/>
<path d="M28.2148 41.5469C27.6815 41.5469 27.1748 41.3336 26.8015 40.9603L19.2548 33.4136C18.4815 32.6403 18.4815 31.3603 19.2548 30.5869C20.0281 29.8136 21.3081 29.8136 22.0815 30.5869L28.2148 36.7203L41.9215 23.0136C42.6948 22.2403 43.9748 22.2403 44.7481 23.0136C45.5215 23.7869 45.5215 25.0669 44.7481 25.8403L29.6281 40.9603C29.2548 41.3336 28.7481 41.5469 28.2148 41.5469Z" fill="#00BAFE"/>
</svg>
