<svg width="24" height="24" viewBox="0 0 24 24" fill="none" xmlns="http://www.w3.org/2000/svg">
<path d="M1.51326 15.487L5.67926 19.653C6.24184 20.2154 7.00476 20.5314 7.80026 20.5314C8.59575 20.5314 9.35867 20.2154 9.92126 19.653L22.7873 6.787C22.9694 6.59839 23.0702 6.34579 23.0679 6.0836C23.0657 5.8214 22.9605 5.57059 22.7751 5.38518C22.5897 5.19977 22.3389 5.0946 22.0767 5.09232C21.8145 5.09004 21.5619 5.19084 21.3733 5.373L8.50726 18.239C8.31973 18.4265 8.06542 18.5318 7.80026 18.5318C7.53509 18.5318 7.28078 18.4265 7.09326 18.239L2.92726 14.073C2.73865 13.8908 2.48605 13.79 2.22385 13.7923C1.96166 13.7946 1.71085 13.8998 1.52544 14.0852C1.34003 14.2706 1.23486 14.5214 1.23258 14.7836C1.2303 15.0458 1.3311 15.2984 1.51326 15.487Z" fill="#5DBE24"/>
</svg>
