<svg width="41" height="40" viewBox="0 0 41 40" fill="none" xmlns="http://www.w3.org/2000/svg">
<path d="M30.5 21.6666C28.9334 21.6666 27.4834 22.2166 26.3334 23.1333C24.8 24.35 23.8334 26.2333 23.8334 28.3333C23.8334 29.5833 24.1834 30.7666 24.8 31.7666C25.95 33.7 28.0667 35 30.5 35C32.1834 35 33.7167 34.3833 34.8834 33.3333C35.4 32.9 35.8501 32.3666 36.2001 31.7666C36.8167 30.7666 37.1667 29.5833 37.1667 28.3333C37.1667 24.65 34.1834 21.6666 30.5 21.6666ZM33.9501 27.6166L30.4 30.8999C30.1667 31.1166 29.85 31.2333 29.55 31.2333C29.2334 31.2333 28.9167 31.1167 28.6667 30.8667L27.0167 29.2167C26.5334 28.7333 26.5334 27.9332 27.0167 27.4499C27.5 26.9666 28.3 26.9666 28.7834 27.4499L29.5834 28.25L32.25 25.7832C32.75 25.3166 33.55 25.35 34.0167 25.85C34.4833 26.35 34.4501 27.1333 33.9501 27.6166Z" fill="url(#paint0_linear_10683_14723)"/>
<path opacity="0.4" d="M35.6501 35.8334C35.6501 36.3 35.2834 36.6667 34.8168 36.6667H6.18343C5.71676 36.6667 5.3501 36.3 5.3501 35.8334C5.3501 28.9334 12.1501 23.3334 20.5001 23.3334C22.2168 23.3334 23.8834 23.5667 25.4168 24.0167C24.4334 25.1833 23.8334 26.7 23.8334 28.3334C23.8334 29.5834 24.1834 30.7667 24.8001 31.7667C25.1334 32.3334 25.5668 32.85 26.0668 33.2833C27.2334 34.35 28.7834 35 30.5001 35C32.3668 35 34.0501 34.2334 35.2501 33C35.5168 33.9 35.6501 34.85 35.6501 35.8334Z" fill="url(#paint1_linear_10683_14723)"/>
<path d="M20.5 20C25.1023 20 28.8333 16.2691 28.8333 11.6667C28.8333 7.06433 25.1023 3.33337 20.5 3.33337C15.8976 3.33337 12.1666 7.06433 12.1666 11.6667C12.1666 16.2691 15.8976 20 20.5 20Z" fill="url(#paint2_linear_10683_14723)"/>
<defs>
<linearGradient id="paint0_linear_10683_14723" x1="23.8334" y1="28.3333" x2="37.1667" y2="28.3333" gradientUnits="userSpaceOnUse">
<stop stop-color="#00BAFE"/>
<stop offset="1" stop-color="#CAA7FF"/>
</linearGradient>
<linearGradient id="paint1_linear_10683_14723" x1="5.3501" y1="30" x2="35.6501" y2="30" gradientUnits="userSpaceOnUse">
<stop stop-color="#00BAFE"/>
<stop offset="1" stop-color="#CAA7FF"/>
</linearGradient>
<linearGradient id="paint2_linear_10683_14723" x1="12.1666" y1="11.6667" x2="28.8333" y2="11.6667" gradientUnits="userSpaceOnUse">
<stop stop-color="#00BAFE"/>
<stop offset="1" stop-color="#CAA7FF"/>
</linearGradient>
</defs>
</svg>

