<svg width="29" height="28" viewBox="0 0 29 28" fill="none" xmlns="http://www.w3.org/2000/svg">
<path d="M21.8335 22.0033H20.9468C20.0135 22.0033 19.1268 22.365 18.4735 23.0183L16.4785 24.99C15.5685 25.8883 14.0868 25.8883 13.1768 24.99L11.1818 23.0183C10.5285 22.365 9.63016 22.0033 8.7085 22.0033H7.8335C5.89683 22.0033 4.3335 20.4517 4.3335 18.5383V5.80997C4.3335 3.89664 5.89683 2.34501 7.8335 2.34501H21.8335C23.7702 2.34501 25.3335 3.89664 25.3335 5.80997V18.5383C25.3335 20.44 23.7702 22.0033 21.8335 22.0033Z" stroke="url(#paint0_linear_10683_11953)" stroke-width="1.5" stroke-miterlimit="10" stroke-linecap="round" stroke-linejoin="round"/>
<path opacity="0.4" d="M14.8336 11.6667C16.3349 11.6667 17.5519 10.4496 17.5519 8.94832C17.5519 7.44702 16.3349 6.23003 14.8336 6.23003C13.3323 6.23003 12.1152 7.44702 12.1152 8.94832C12.1152 10.4496 13.3323 11.6667 14.8336 11.6667Z" stroke="url(#paint1_linear_10683_11953)" stroke-width="1.5" stroke-linecap="round" stroke-linejoin="round"/>
<path opacity="0.4" d="M19.5003 18.27C19.5003 16.17 17.412 14.4667 14.8337 14.4667C12.2553 14.4667 10.167 16.17 10.167 18.27" stroke="url(#paint2_linear_10683_11953)" stroke-width="1.5" stroke-linecap="round" stroke-linejoin="round"/>
<defs>
<linearGradient id="paint0_linear_10683_11953" x1="4.3335" y1="14.0044" x2="25.3335" y2="14.0044" gradientUnits="userSpaceOnUse">
<stop stop-color="#00BAFE"/>
<stop offset="1" stop-color="#CAA7FF"/>
</linearGradient>
<linearGradient id="paint1_linear_10683_11953" x1="12.1152" y1="8.94835" x2="17.5519" y2="8.94835" gradientUnits="userSpaceOnUse">
<stop stop-color="#00BAFE"/>
<stop offset="1" stop-color="#CAA7FF"/>
</linearGradient>
<linearGradient id="paint2_linear_10683_11953" x1="10.167" y1="16.3683" x2="19.5003" y2="16.3683" gradientUnits="userSpaceOnUse">
<stop stop-color="#00BAFE"/>
<stop offset="1" stop-color="#CAA7FF"/>
</linearGradient>
</defs>
</svg>
