<svg width="64" height="64" viewBox="0 0 64 64" fill="none" xmlns="http://www.w3.org/2000/svg">
<path opacity="0.4" d="M56.2142 22.88V41.1199C56.2142 44.1066 54.6142 46.88 52.0275 48.4L36.1875 57.5467C33.6008 59.04 30.4008 59.04 27.7874 57.5467L11.9474 48.4C9.36076 46.9067 7.76074 44.1333 7.76074 41.1199V22.88C7.76074 19.8933 9.36076 17.1199 11.9474 15.5999L27.7874 6.45325C30.3741 4.95992 33.5742 4.95992 36.1875 6.45325L52.0275 15.5999C54.6142 17.1199 56.2142 19.8667 56.2142 22.88Z" fill="#F44336"/>
<path d="M32 36.6667C30.9067 36.6667 30 35.7601 30 34.6667V20.6667C30 19.5734 30.9067 18.6667 32 18.6667C33.0933 18.6667 34 19.5734 34 20.6667V34.6667C34 35.7601 33.0933 36.6667 32 36.6667Z" fill="#F44336"/>
<path d="M32.0007 45.9998C31.654 45.9998 31.3073 45.9197 30.9873 45.7864C30.6406 45.6531 30.3739 45.4665 30.1073 45.2265C29.8673 44.9598 29.6807 44.6665 29.5207 44.3465C29.3873 44.0265 29.334 43.6798 29.334 43.3331C29.334 42.6398 29.6006 41.9464 30.1073 41.4397C30.3739 41.1997 30.6406 41.0132 30.9873 40.8798C31.974 40.4532 33.1474 40.6931 33.894 41.4397C34.134 41.7064 34.3206 41.9731 34.4539 42.3198C34.5873 42.6398 34.6673 42.9865 34.6673 43.3331C34.6673 43.6798 34.5873 44.0265 34.4539 44.3465C34.3206 44.6665 34.134 44.9598 33.894 45.2265C33.3874 45.7332 32.7207 45.9998 32.0007 45.9998Z" fill="#F44336"/>
</svg>
