<svg width="38" height="38" viewBox="0 0 38 38" fill="none" xmlns="http://www.w3.org/2000/svg">
<path d="M36 0H2C0.895431 0 0 0.89543 0 2V36C0 37.1046 0.89543 38 2 38H36C37.1046 38 38 37.1046 38 36V2C38 0.895431 37.1046 0 36 0Z" fill="#FAFAFA"/>
<path fill-rule="evenodd" clip-rule="evenodd" d="M29.75 14C29.75 13.271 29.46 12.571 28.945 12.055C28.429 11.54 27.729 11.25 27 11.25C23.168 11.25 14.832 11.25 11 11.25C10.271 11.25 9.571 11.54 9.055 12.055C8.54 12.571 8.25 13.271 8.25 14V24C8.25 24.729 8.54 25.429 9.055 25.945C9.571 26.46 10.271 26.75 11 26.75H27C27.729 26.75 28.429 26.46 28.945 25.945C29.46 25.429 29.75 24.729 29.75 24V14ZM28.25 14V24C28.25 24.332 28.118 24.649 27.884 24.884C27.649 25.118 27.332 25.25 27 25.25H11C10.668 25.25 10.351 25.118 10.116 24.884C9.882 24.649 9.75 24.332 9.75 24V14C9.75 13.668 9.882 13.351 10.116 13.116C10.351 12.882 10.668 12.75 11 12.75H27C27.332 12.75 27.649 12.882 27.884 13.116C28.118 13.351 28.25 13.668 28.25 14Z" fill="#7AABDE"/>
<path fill-rule="evenodd" clip-rule="evenodd" d="M11.6742 16.2021C10.8982 17.2621 11.2072 18.8161 12.4552 19.6501C12.9632 19.9901 13.7562 20.1671 14.5342 20.2241C15.5632 20.2981 16.5472 20.1891 16.5472 20.1891C16.7622 20.1651 16.9562 20.0501 17.0792 19.8721C17.2032 19.6951 17.2442 19.4721 17.1922 19.2621C17.1922 19.2621 16.9612 18.3341 16.5322 17.4281C16.2062 16.7421 15.7572 16.0841 15.2422 15.7401C14.0262 14.9271 12.4312 15.1701 11.6742 16.2021ZM12.8842 17.0901C13.2052 16.6511 13.8922 16.6411 14.4082 16.9871C14.7302 17.2021 14.9732 17.6421 15.1762 18.0711C15.2862 18.3031 15.3812 18.5361 15.4592 18.7491C15.2092 18.7531 14.9282 18.7481 14.6422 18.7281C14.1412 18.6911 13.6172 18.6231 13.2882 18.4031C12.8032 18.0791 12.5822 17.5011 12.8842 17.0901Z" fill="#7AABDE"/>
<path fill-rule="evenodd" clip-rule="evenodd" d="M21.3262 16.2021C20.5692 15.1701 18.9742 14.9271 17.7582 15.7401C17.2432 16.0841 16.7942 16.7421 16.4682 17.4281C16.0392 18.3341 15.8082 19.2621 15.8082 19.2621C15.7562 19.4721 15.7972 19.6951 15.9212 19.8721C16.0442 20.0501 16.2382 20.1651 16.4532 20.1891C16.4532 20.1891 17.4372 20.2981 18.4662 20.2241C19.2442 20.1671 20.0372 19.9901 20.5452 19.6501C21.7932 18.8161 22.1022 17.2621 21.3262 16.2021ZM20.1162 17.0901C20.4182 17.5011 20.1972 18.0791 19.7122 18.4031C19.3832 18.6231 18.8592 18.6911 18.3582 18.7281C18.0722 18.7481 17.7912 18.7531 17.5412 18.7491C17.6192 18.5361 17.7142 18.3031 17.8242 18.0711C18.0272 17.6421 18.2702 17.2021 18.5922 16.9871C19.1082 16.6411 19.7952 16.6511 20.1162 17.0901Z" fill="#7AABDE"/>
<path fill-rule="evenodd" clip-rule="evenodd" d="M15.7822 12V26C15.7822 26.414 16.1182 26.75 16.5322 26.75C16.9462 26.75 17.2822 26.414 17.2822 26V12C17.2822 11.586 16.9462 11.25 16.5322 11.25C16.1182 11.25 15.7822 11.586 15.7822 12Z" fill="#7AABDE"/>
<path fill-rule="evenodd" clip-rule="evenodd" d="M21 18.25H29C29.414 18.25 29.75 17.914 29.75 17.5C29.75 17.086 29.414 16.75 29 16.75H21C20.586 16.75 20.25 17.086 20.25 17.5C20.25 17.914 20.586 18.25 21 18.25Z" fill="#7AABDE"/>
<path fill-rule="evenodd" clip-rule="evenodd" d="M9 18.25H12C12.414 18.25 12.75 17.914 12.75 17.5C12.75 17.086 12.414 16.75 12 16.75H9C8.586 16.75 8.25 17.086 8.25 17.5C8.25 17.914 8.586 18.25 9 18.25Z" fill="#7AABDE"/>
<path fill-rule="evenodd" clip-rule="evenodd" d="M15.9368 19.78L18.9368 22.78C19.2298 23.073 19.7048 23.073 19.9978 22.78C20.2908 22.488 20.2908 22.012 19.9978 21.72L16.9978 18.72C16.7048 18.427 16.2298 18.427 15.9368 18.72C15.6448 19.012 15.6448 19.488 15.9368 19.78Z" fill="#7AABDE"/>
<path fill-rule="evenodd" clip-rule="evenodd" d="M16.002 18.72L13.002 21.72C12.709 22.012 12.709 22.488 13.002 22.78C13.295 23.073 13.77 23.073 14.063 22.78L17.063 19.78C17.355 19.488 17.355 19.012 17.063 18.72C16.77 18.427 16.295 18.427 16.002 18.72Z" fill="#7AABDE"/>
</svg>
