<svg width="188" height="188" viewBox="0 0 188 188" fill="none" xmlns="http://www.w3.org/2000/svg">
<g filter="url(#filter0_d_2348_19296)">
<rect width="74.023" height="101.94" rx="17.5423" transform="matrix(0.95146 -0.307774 0.322738 0.946488 26.1357 62.6714)" fill="#E6E6E6"/>
</g>
<g filter="url(#filter1_d_2348_19296)">
<rect x="61.3389" y="36.9214" width="79.39" height="104.435" rx="12" transform="rotate(4.35313 61.3389 36.9214)" fill="white"/>
</g>
<path d="M90.6064 37.9971L100.028 39.2322C100.107 39.3348 100.005 39.4135 99.9821 39.5948L96.4978 67.7965L129.395 72.017L138.273 73.1809C138.454 73.2047 138.454 73.2047 138.635 73.2284L137.44 82.6552C137.338 82.734 137.258 82.6315 137.156 82.7102L104.339 78.5923L95.3584 77.5071L86.997 143.217L76.2594 143.219L85.7555 76.2482L58.0044 72.9968L59.0044 63.4968L86.997 66.4588L90.5834 38.1784C90.4813 38.2571 90.5834 38.1784 90.6064 37.9971Z" fill="#E6E6E6"/>
<path d="M107.026 100.963L102.244 138.67C102.129 139.577 102.762 140.397 103.668 140.516C104.574 140.634 105.391 140.004 105.506 139.098L110.287 101.391C110.402 100.484 109.77 99.664 108.864 99.5453C107.958 99.4265 107.141 100.057 107.026 100.963Z" fill="#F0F0F0"/>
<path d="M113.031 112.968L111.79 122.757C111.675 123.664 112.307 124.484 113.213 124.603C114.119 124.722 114.936 124.091 115.051 123.185L116.292 113.396C116.407 112.489 115.775 111.669 114.869 111.55C113.963 111.431 113.146 112.062 113.031 112.968Z" fill="#F0F0F0"/>
<path opacity="0.6" d="M126.495 61.7456L122.096 66.7395L126.227 70.9676L125.5 71.5278L100.966 73.8821L111.925 87.7494L105.425 88.2495L103.667 94.25L96.8264 85.2183L103.665 62.9306L126.495 61.7456Z" fill="#E6E6E6"/>
<path d="M111.223 127.931L109.775 139.352C109.66 140.258 110.293 141.079 111.199 141.197C112.105 141.316 112.921 140.686 113.036 139.78L114.485 128.359C114.6 127.452 113.967 126.632 113.061 126.513C112.053 126.473 111.338 127.025 111.223 127.931Z" fill="#F0F0F0"/>
<path d="M86.1152 74.1375L91.7423 69.796L100.781 72.1278L99.5551 75.9814L99.9233 89.2192C99.9683 92.0924 97.0142 94.0809 94.378 92.9161L79.8089 86.4184C77.1024 85.1625 76.5856 81.4901 78.9453 79.6695L79.3084 79.3894" fill="#E6E6E6"/>
<path d="M100.64 72.6811L102.63 69.2554L112.645 60.6558C114.844 58.814 114.398 55.2328 111.691 53.9768L97.122 47.4792C94.4156 46.2232 91.3502 48.4429 91.5563 51.3372L92.7954 67.3927L100.64 72.6811Z" fill="#E6E6E6"/>
<path d="M91.7631 76.3028C88.7051 74.5912 87.5031 71.1567 88.6559 68.5224C89.9404 65.4958 94.2421 64.5033 98.1259 66.1593C102.01 67.8154 104.047 71.769 102.762 74.7956C101.832 76.9674 99.463 78.2134 96.795 77.9456C94.8417 77.8533 93.755 77.3832 91.7631 76.3028Z" fill="white"/>
<defs>
<filter id="filter0_d_2348_19296" x="22.4013" y="35.9706" width="116.437" height="132.742" filterUnits="userSpaceOnUse" color-interpolation-filters="sRGB">
<feFlood flood-opacity="0" result="BackgroundImageFix"/>
<feColorMatrix in="SourceAlpha" type="matrix" values="0 0 0 0 0 0 0 0 0 0 0 0 0 0 0 0 0 0 127 0" result="hardAlpha"/>
<feOffset dx="2.81904" dy="2.81904"/>
<feGaussianBlur stdDeviation="5.63808"/>
<feColorMatrix type="matrix" values="0 0 0 0 0.0392157 0 0 0 0 0.0392157 0 0 0 0 0.0392157 0 0 0 0.08 0"/>
<feBlend mode="normal" in2="BackgroundImageFix" result="effect1_dropShadow_2348_19296"/>
<feBlend mode="normal" in="SourceGraphic" in2="effect1_dropShadow_2348_19296" result="shape"/>
</filter>
<filter id="filter1_d_2348_19296" x="37.2876" y="30.7971" width="119.336" height="142.409" filterUnits="userSpaceOnUse" color-interpolation-filters="sRGB">
<feFlood flood-opacity="0" result="BackgroundImageFix"/>
<feColorMatrix in="SourceAlpha" type="matrix" values="0 0 0 0 0 0 0 0 0 0 0 0 0 0 0 0 0 0 127 0" result="hardAlpha"/>
<feOffset dy="10"/>
<feGaussianBlur stdDeviation="8.5"/>
<feComposite in2="hardAlpha" operator="out"/>
<feColorMatrix type="matrix" values="0 0 0 0 0.889097 0 0 0 0 0.896632 0 0 0 0 0.904167 0 0 0 1 0"/>
<feBlend mode="normal" in2="BackgroundImageFix" result="effect1_dropShadow_2348_19296"/>
<feBlend mode="normal" in="SourceGraphic" in2="effect1_dropShadow_2348_19296" result="shape"/>
</filter>
</defs>
</svg>
