<svg width="136" height="144" viewBox="0 0 136 144" fill="none" xmlns="http://www.w3.org/2000/svg">
<path d="M125.268 67.8572C125.268 81.1931 120.645 93.436 112.978 103.383C108.806 108.74 103.732 113.44 97.8687 117.047C88.51 123.059 77.2344 126.557 65.0568 126.557C31.7938 126.557 4.73242 100.213 4.73242 67.7478C4.73242 35.2824 31.7938 9.15698 64.944 9.15698C77.0089 9.15698 88.1717 12.6549 97.7559 18.5578C103.619 22.165 108.693 26.8654 112.865 32.2217C120.533 42.2783 125.268 54.5212 125.268 67.8572Z" fill="#ABD4FF" fill-opacity="0.2"/>
<g filter="url(#filter0_d_1374_18987)">
<rect width="74.023" height="101.94" rx="17.5423" transform="matrix(0.95146 -0.307774 0.322738 0.946488 4.73242 33.208)" fill="#FFAD0E"/>
</g>
<g filter="url(#filter1_d_1374_18987)">
<rect x="40.0459" y="7" width="79.39" height="104.435" rx="12" transform="rotate(4.35313 40.0459 7)" fill="#5CA8F7"/>
</g>
<path d="M80.2391 24.1468C80.3982 22.1493 79.165 20.9173 76.7662 20.7262C75.3705 20.615 74.0138 20.5674 74.0138 20.5674L73.2061 30.7051L75.0961 30.8557L75.3749 27.3564C75.3749 27.3564 75.6924 27.4118 76.0559 27.4407C78.5852 27.6425 80.0764 26.1893 80.2391 24.1468ZM78.2608 24.1857C78.1722 25.2971 77.5078 25.9242 76.301 25.8281C76.0331 25.8061 75.7676 25.7596 75.5075 25.6893L75.7791 22.28C75.7791 22.28 76.1438 22.294 76.5072 22.3229C77.8302 22.4281 78.3481 23.0892 78.2608 24.1857ZM86.3923 31.7556C86.3977 31.1365 86.4394 30.4294 86.4872 29.8286L86.7325 26.7497C86.8653 25.0827 86.2731 24.0681 84.0343 23.8898C83.1025 23.8159 82.1641 23.915 81.2603 24.1827L81.4484 25.6788C82.1659 25.4274 82.9179 25.3134 83.6697 25.3421C84.629 25.4185 84.9303 25.8505 84.8585 26.7517L84.837 27.022C82.3073 26.8205 80.5986 27.5162 80.4574 29.288C80.3605 30.5046 81.0434 31.4808 82.352 31.5851C83.4278 31.6708 84.3614 31.1557 84.7773 30.3424L84.7907 30.3585C84.7029 30.772 84.645 31.1919 84.6174 31.6142L86.3923 31.7556ZM84.7226 28.4788C84.6508 29.38 83.9685 30.2323 83.0672 30.1605C82.9547 30.1607 82.8437 30.1359 82.7411 30.0877C82.6385 30.0396 82.5466 29.9691 82.4712 29.8807C82.3958 29.7923 82.3384 29.6879 82.3028 29.5742C82.2672 29.4604 82.2541 29.3397 82.2643 29.2197C82.3157 28.5739 82.8628 28.1339 84.7382 28.2833L84.7226 28.4788ZM94.9974 24.9295L93.0057 24.7709L91.9458 27.2406C91.6582 27.913 91.2727 28.8956 91.059 29.558L91.0444 29.5568C90.9383 28.8683 90.7934 28.1159 90.6413 27.4541L89.8946 24.523L87.8154 24.3574L89.8959 32.0348L89.6107 32.6771C89.1256 33.8174 88.4612 34.0668 87.8504 34.0182C87.5403 33.99 87.236 33.9149 86.9465 33.7951L86.5966 35.4308C86.9271 35.5239 87.2648 35.5862 87.6059 35.6171C89.2778 35.7503 90.3547 35.0956 91.5049 32.5874L94.9974 24.9295Z" fill="white"/>
<path d="M62.1943 19.6252L61.3862 29.7692L70.8819 30.5257L71.69 20.3817L62.1943 19.6252ZM65.6006 21.6502L67.9903 21.0501L67.4026 28.4264L65.0089 29.0781L65.6006 21.6502Z" fill="white"/>
<g clip-path="url(#clip0_1374_18987)">
<mask id="mask0_1374_18987" style="mask-type:luminance" maskUnits="userSpaceOnUse" x="42" y="48" width="60" height="61">
<path d="M101.881 52.8207L46.6377 48.5991L42.4161 103.842L97.6593 108.064L101.881 52.8207Z" fill="white"/>
</mask>
<g mask="url(#mask0_1374_18987)">
<path d="M76.1641 71.4335C75.6325 72.2193 75.0456 73.158 74.9522 74.1679C74.8873 74.8696 75.085 75.4557 74.9657 76.1689C74.8576 76.8144 74.5149 77.4048 74.1681 77.87C73.8213 78.3353 73.4433 78.742 73.1453 79.2977C72.7674 80.0025 72.561 80.8767 72.4855 81.6827C72.4099 82.4887 72.4523 83.2445 72.4947 83.9911" stroke="#231F20" stroke-width="0.572114" stroke-linecap="round" stroke-linejoin="round"/>
<path d="M82.6162 77.4063C81.5728 77.9143 80.8354 78.5006 80.4222 79.5928C80.0932 80.4626 80.0406 81.3842 79.3538 82.1762C78.39 83.2876 76.859 83.4274 75.6444 84.216C74.8405 84.738 74.0315 85.7448 73.4547 86.5186" stroke="#231F20" stroke-width="0.572114" stroke-linecap="round" stroke-linejoin="round"/>
<path d="M75.8988 69.964C75.5628 70.1224 75.048 70.5243 74.919 70.8941C74.7763 71.3032 75.1608 71.5456 75.4951 71.6745C75.9572 71.8525 76.5513 72.0098 77.047 71.9167C77.8423 71.7674 77.4335 70.7207 77.1008 70.3184" fill="#FFAD0E"/>
<path d="M81.1579 69.9644C78.4748 71.0715 75.4973 70.7466 73.521 68.8655C70.1907 65.6964 71.9013 58.6618 75.2291 56.0949C79.9385 52.4626 86.7629 55.6675 86.8589 61.6622C85.4689 62.3411 84.1811 63.3924 83.1527 64.7779C81.9571 66.3901 81.2942 68.2076 81.1579 69.9644Z" fill="#FFAD0E"/>
<path d="M83.6276 75.7485C83.0676 75.6983 82.4936 75.8331 82.0118 76.1222C81.5228 76.4156 81.7269 76.9857 82.0864 77.3213C82.3579 77.5747 83.05 78.2051 83.484 78.0644C84.1212 77.8577 84.064 76.7345 83.9886 76.2494" fill="#FB8567"/>
<path d="M83.9202 76.5338C81.8907 75.0447 80.9502 72.569 81.159 69.9643C81.2953 68.2075 81.9582 66.39 83.1537 64.7778C84.1822 63.3924 85.47 62.341 86.86 61.6621C89.4894 60.3654 92.4688 60.406 94.695 62.0354C98.0926 64.5244 98.4394 69.7866 95.4614 73.7914C92.4898 77.797 87.3205 79.0263 83.9202 76.5338Z" fill="#FB8567"/>
<path d="M89.8753 84.2752L88.4932 102.362C88.4245 103.261 87.6843 103.937 86.84 103.872L62.1199 101.983C61.2756 101.919 60.639 101.137 60.7077 100.239L62.0719 82.3866L73.0697 83.1375L79.334 83.5593L89.8753 84.2752Z" fill="#2B81DA"/>
<path d="M79.3352 83.5592L77.8355 103.184L71.5755 102.706L73.0709 83.1375L79.3352 83.5592Z" fill="#FF9D8E"/>
<path d="M69.1662 71.3721L70.3678 70.5686C71.2224 69.9995 72.3731 70.232 72.9426 71.0826L73.7751 72.3268C74.3442 73.1814 74.1157 74.3325 73.2611 74.9016L65.0646 80.3786L59.8471 83.8669L50.6223 90.0323C49.7677 90.6015 48.617 90.3689 48.0475 89.5182L47.2151 88.2741C46.646 87.4196 46.8745 86.2684 47.7291 85.6994L57.0555 79.4654L62.2727 75.9812L69.1662 71.3721Z" fill="#2B81DA"/>
<path d="M65.0648 80.3788L59.8472 83.8671L57.0556 79.4656L62.2728 75.9814L65.0648 80.3788Z" fill="#FF9D8E"/>
<path d="M69.2069 74.4276C68.6206 74.7443 68.1918 75.5214 68.0019 76.3541C67.8477 75.4427 67.207 74.6196 66.532 74.5448C67.1606 74.0716 67.6528 73.2362 67.8597 72.2912C68.0458 73.2625 68.5762 73.9564 69.2069 74.4276Z" fill="#F7BFD8"/>
<path d="M57.5611 109.098C58.0561 109.402 58.4488 110.167 58.6503 110.992C58.7245 110.082 59.1997 109.249 59.7451 109.161C59.2067 108.702 58.7592 107.88 58.5376 106.943C58.4407 107.914 58.048 108.616 57.5611 109.098Z" fill="#F06898"/>
<path d="M50.9232 69.6595C51.4383 69.4154 51.859 68.7493 52.0848 68.0177C52.14 68.8426 52.6086 69.6209 53.1662 69.7326C52.6031 70.1137 52.1246 70.8277 51.8756 71.6586C51.7986 70.7781 51.4118 70.1227 50.9232 69.6595Z" fill="#FFAD0E"/>
<path d="M94.381 85.1536C94.2666 86.6501 91.87 86.4669 91.7557 87.9634C91.6413 89.4602 94.0379 89.6432 93.9235 91.1399C93.809 92.638 91.4124 92.4547 91.298 93.9528C91.1834 95.4518 93.58 95.635 93.4655 97.134C93.3509 98.6331 90.9543 98.4499 90.8398 99.9489" stroke="#F4AAC9" stroke-width="0.762891" stroke-miterlimit="10" stroke-linecap="round"/>
</g>
</g>
<path d="M53.9269 63.6277C53.6823 63.5455 53.4907 63.5478 53.3517 63.6344C53.2127 63.721 53.1008 63.8795 53.016 64.1097C52.8711 64.5028 52.8388 64.9018 52.9184 65.3063C52.9984 65.7108 53.1609 65.954 53.4054 66.0362C53.5609 66.0886 53.7173 66.0698 53.8737 65.9802C54.0305 65.8903 54.2878 65.6087 54.6457 65.1357C55.0199 64.6393 55.3587 64.2911 55.6617 64.0912C55.9643 63.8912 56.2592 63.839 56.546 63.9352C57.0229 64.0956 57.3331 64.5842 57.4779 65.4015C57.6223 66.2185 57.5586 66.9954 57.2865 67.7326C57.1984 67.9723 57.0742 68.1464 56.9149 68.2549C56.7557 68.3633 56.5983 68.3914 56.4423 68.3393C56.3189 68.2978 56.2158 68.2264 56.1337 68.1256C56.0517 68.0248 56.0271 67.9291 56.0605 67.8385C56.0813 67.7826 56.11 67.7348 56.147 67.6948C56.3482 67.488 56.4876 67.2786 56.5656 67.0671C56.6996 66.7043 56.7417 66.2605 56.6924 65.7354C56.6428 65.2104 56.5146 64.9129 56.307 64.843C56.2204 64.8141 56.1163 64.8426 55.9945 64.9282C55.8724 65.014 55.6872 65.2099 55.4384 65.5157C55.077 65.9613 54.7922 66.2928 54.5846 66.5092C54.3771 66.7256 54.1572 66.8685 53.9247 66.9383C53.6922 67.008 53.4459 66.9988 53.1868 66.9118C52.7246 66.7564 52.3883 66.3586 52.1775 65.718C51.9668 65.0773 51.9873 64.4147 52.2392 63.731C52.3845 63.3379 52.5813 63.0558 52.8305 62.8848C53.0798 62.7134 53.3103 62.6636 53.5228 62.7352C53.9578 62.8812 54.0925 63.1788 53.9269 63.6277Z" fill="#FFAD0E"/>
<path d="M58.483 61.0102C58.7634 61.4283 58.9419 61.8357 59.019 62.2325C59.096 62.6293 59.0526 62.968 58.8892 63.2479C58.792 63.414 58.6015 63.5324 58.317 63.6039C58.0326 63.6749 57.6976 63.6092 57.3124 63.4065C57.0397 63.2628 56.6658 62.9814 56.1912 62.5626C55.8027 62.2114 55.4903 61.9735 55.2544 61.8492C55.112 61.6617 55.0943 61.4764 55.2014 61.2931C55.2743 61.1684 55.3767 61.0918 55.5083 61.0641C55.6399 61.0363 55.7505 61.0458 55.8399 61.0928C56.003 61.1788 56.2027 61.3545 56.4404 61.6204C56.5826 61.7771 56.7958 61.9775 57.0806 62.2217C57.365 62.4659 57.5532 62.612 57.645 62.6605C57.95 62.8209 58.1369 62.8419 58.2061 62.7233C58.3156 62.5362 58.2722 62.1821 58.0755 61.6617C57.8788 61.1412 57.6081 60.7269 57.2636 60.4186C56.9283 60.1152 56.7219 59.8938 56.6442 59.7544C56.5668 59.6151 56.5684 59.4765 56.6487 59.3385C56.7796 59.1145 56.9782 59.0727 57.2441 59.2125C57.2833 59.2331 57.3504 59.2926 57.4459 59.3907C57.7776 59.7314 58.1976 60.0359 58.7066 60.3037C59.3027 60.6177 59.7145 60.7107 59.9421 60.5828C60.0177 60.5406 60.0844 60.535 60.1415 60.565C60.224 60.6084 60.2699 60.7044 60.279 60.853C60.2884 61.0016 60.2639 61.1253 60.2059 61.2245C60.1066 61.3945 59.9022 61.4582 59.5931 61.4151C59.2841 61.3722 58.914 61.2373 58.483 61.0102Z" fill="#FFAD0E"/>
<path d="M59.7468 58.2504L59.6838 58.1294C59.3536 57.5333 59.1343 56.9855 59.0265 56.4864C58.9187 55.9873 58.9664 55.6053 59.1698 55.3406C59.326 55.1378 59.5126 55.013 59.7301 54.9665C59.9476 54.92 60.138 54.9531 60.3011 55.0658C60.4031 55.1357 60.4737 55.2181 60.5134 55.3123C60.5528 55.4065 60.5426 55.4924 60.483 55.5699C60.388 55.6933 60.2478 55.7687 60.0615 55.7957C59.9366 55.8189 59.8578 55.8516 59.8256 55.8935C59.7108 56.0427 59.7661 56.4629 59.9909 57.1536C60.2161 57.8447 60.6096 58.4386 61.1717 58.936C61.3331 59.0806 61.4201 59.2152 61.4332 59.3398C61.4462 59.4644 61.4028 59.5914 61.3035 59.7208C61.1978 59.858 61.0394 59.8982 60.8288 59.8413C60.6177 59.7843 60.3237 59.6253 59.946 59.3652C59.7911 59.2585 59.5852 59.1105 59.3285 58.921C59.0864 58.7421 58.8007 58.51 58.4711 58.2252C58.3855 58.1508 58.3176 58.0936 58.2678 58.053C58.0737 57.8917 57.9469 57.7729 57.8868 57.6967C57.8272 57.6205 57.7953 57.5173 57.7917 57.3867C57.7881 57.2564 57.8253 57.1404 57.9035 57.039C57.9861 56.9316 58.0815 56.8726 58.1899 56.862C58.2988 56.8517 58.3922 56.8737 58.4708 56.9277C58.5704 56.9964 58.7427 57.1838 58.9877 57.4898C59.0715 57.5961 59.1804 57.7122 59.3139 57.8379L59.7468 58.2504Z" fill="#FFAD0E"/>
<path d="M63.5566 56.2105C63.6589 56.3608 63.8298 56.5727 64.069 56.8462L65.0593 57.9841C65.2201 58.1699 65.3048 58.3253 65.3128 58.4498C65.3212 58.5747 65.2805 58.6817 65.1907 58.7703C65.1098 58.8505 65.001 58.8976 64.8646 58.9125C64.7283 58.9271 64.6209 58.8993 64.5432 58.8292C64.3894 58.6902 64.234 58.5078 64.0777 58.2819C63.2152 56.9975 62.1887 55.7947 60.9978 54.6737L60.941 54.622C60.6865 54.3926 60.5238 54.233 60.4526 54.1434C60.3814 54.0539 60.3455 53.9486 60.3448 53.827C60.3441 53.7057 60.4021 53.5873 60.519 53.4716C60.7149 53.2776 60.9715 53.3236 61.2888 53.6098C61.418 53.7263 61.6148 53.9463 61.8795 54.2701L62.0493 54.4742C61.8932 53.9456 61.8371 53.4345 61.8809 52.9403C61.9248 52.446 62.058 52.0885 62.281 51.8679C62.4822 51.6689 62.7292 51.5679 63.0224 51.5653C63.3153 51.5628 63.5769 51.6651 63.8068 51.8724C64.4204 52.4257 64.7534 53.1517 64.8053 54.0503C64.8576 54.949 64.6635 55.6163 64.223 56.0522C64.0147 56.2584 63.7926 56.3112 63.5566 56.2105ZM62.8226 52.5555C62.6032 52.7723 62.545 53.2578 62.6473 54.0114C62.75 54.7651 62.9302 55.2585 63.1887 55.4913C63.2553 55.5514 63.3454 55.5743 63.4596 55.56C63.5741 55.5457 63.6726 55.4976 63.7551 55.4157C63.9834 55.1898 64.056 54.7598 63.9728 54.1255C63.8893 53.4912 63.6709 53.0147 63.3178 52.696C63.2001 52.5897 63.0979 52.5299 63.0113 52.5166C62.925 52.5033 62.8621 52.5163 62.8226 52.5555Z" fill="#FFAD0E"/>
<path d="M66.184 51.6411L66.1569 51.5092C66.0042 50.8533 65.9452 50.2714 65.9804 49.7643C66.0155 49.2573 66.1686 48.9016 66.4393 48.6978C66.647 48.5411 66.8623 48.4677 67.0855 48.4773C67.3088 48.4866 67.4838 48.5658 67.6101 48.715C67.6889 48.8077 67.7341 48.9047 67.7461 49.0052C67.758 49.1058 67.7244 49.1859 67.6451 49.2457C67.5187 49.3407 67.3619 49.378 67.1742 49.3575C67.0468 49.3488 66.9619 49.3605 66.919 49.3927C66.7664 49.5077 66.7022 49.9259 66.7266 50.6468C66.7509 51.3678 66.9655 52.0375 67.3702 52.6559C67.4856 52.8352 67.5324 52.9866 67.5101 53.1095C67.4878 53.2327 67.4101 53.3443 67.278 53.4439C67.1376 53.5496 66.9735 53.549 66.7856 53.4415C66.5974 53.3338 66.3574 53.1079 66.0649 52.7634C65.9452 52.6223 65.7875 52.4286 65.592 52.1824C65.408 51.9499 65.1966 51.6552 64.9576 51.299C64.8956 51.2061 64.846 51.1341 64.8091 51.0827C64.6666 50.879 64.5768 50.7333 64.5402 50.6448C64.5037 50.5566 64.5019 50.4495 64.5348 50.3231C64.5681 50.1967 64.6363 50.0944 64.74 50.0163C64.8501 49.9332 64.959 49.9003 65.0667 49.9173C65.1745 49.9347 65.2591 49.979 65.3198 50.0505C65.397 50.1415 65.5113 50.3646 65.6626 50.7202C65.714 50.8436 65.7867 50.9822 65.8808 51.1366L66.184 51.6411Z" fill="#FFAD0E"/>
<path d="M68.4413 45.6232C68.5431 45.7708 68.5621 45.9427 68.4988 46.1394C68.4355 46.3361 68.3522 46.4655 68.2497 46.5285C68.1184 46.6082 67.966 46.6276 67.7928 46.5858C67.6192 46.5442 67.4967 46.4713 67.4252 46.3673C67.3218 46.2176 67.2887 46.0661 67.3255 45.9123C67.3623 45.7586 67.4749 45.6239 67.6629 45.509C67.8096 45.4196 67.9566 45.3883 68.1041 45.4151C68.2513 45.4415 68.3636 45.5109 68.4413 45.6232ZM68.6235 49.152L68.6258 49.1552C68.4347 48.7345 68.3207 48.4969 68.2834 48.443C68.1774 48.2891 68.1242 48.1388 68.1236 47.9916C68.1227 47.8444 68.1861 47.7317 68.3129 47.6542C68.4615 47.5637 68.6008 47.526 68.7298 47.542C68.8585 47.5575 68.9516 47.6068 69.0089 47.6898C69.0662 47.7732 69.1443 47.9693 69.2423 48.2783L69.2701 48.3591C69.4264 48.8333 69.5798 49.2045 69.7307 49.4726C69.8815 49.741 70.0107 49.9529 70.1183 50.1086C70.2055 50.2354 70.3453 50.3906 70.5374 50.5745C70.5699 50.608 70.5944 50.6373 70.6119 50.6622C70.6447 50.71 70.6416 50.8032 70.6023 50.9424C70.563 51.0815 70.4886 51.1845 70.3794 51.2511C70.0909 51.4273 69.803 51.3077 69.5163 50.8922C69.2724 50.5389 69.0284 50.077 68.7836 49.506C68.7281 49.3805 68.6748 49.2626 68.6235 49.152Z" fill="#FFAD0E"/>
<path d="M72.826 48.6081C72.7505 48.4947 72.4707 48.448 71.9872 48.4691C71.3897 48.4873 70.9815 48.4503 70.7619 48.3589C70.5428 48.2672 70.3813 48.1297 70.278 47.9456C70.0608 47.5579 70.0997 47.1057 70.3953 46.5891C70.6905 46.0725 71.0369 45.7162 71.4341 45.5196C71.8241 45.327 72.1097 45.3917 72.2901 45.7133C72.3379 45.7987 72.3365 45.8975 72.2857 46.0094C72.235 46.121 72.1784 46.1923 72.1162 46.2234C72.0906 46.236 72.0372 46.2426 71.9554 46.2442C71.8734 46.2453 71.8152 46.2543 71.7806 46.2716C71.575 46.373 71.3857 46.5506 71.2124 46.8042C71.0392 47.0577 71.0017 47.2719 71.1 47.4472C71.1479 47.5325 71.2381 47.5935 71.3708 47.6303C71.5032 47.6668 71.7385 47.6787 72.0761 47.6657C72.5763 47.6479 72.9301 47.6795 73.1382 47.7616C73.3463 47.8434 73.4996 47.9719 73.5979 48.1468C73.7774 48.4668 73.699 48.846 73.3628 49.2849C73.0266 49.7238 72.5746 50.0837 72.0065 50.3643C71.5886 50.5707 71.2995 50.5307 71.1385 50.2439C71.0793 50.1385 71.0728 50.0273 71.119 49.9093C71.1649 49.7915 71.2418 49.7058 71.3504 49.652C71.3943 49.6304 71.4712 49.6123 71.5808 49.597C71.6916 49.5842 71.7861 49.5588 71.8646 49.5199C72.0814 49.4125 72.2905 49.2674 72.4916 49.084C72.6924 48.9008 72.8039 48.7422 72.826 48.6081Z" fill="#FFAD0E"/>
<path d="M77.3203 46.5151C77.4167 46.7561 77.3178 47.119 77.0236 47.6032C76.7297 48.0875 76.3132 48.4238 75.7754 48.6119C75.3618 48.7562 74.9873 48.7464 74.6514 48.5823C74.3157 48.4186 74.0598 48.1165 73.8837 47.6763C73.6242 47.0274 73.6231 46.3349 73.8805 45.598C74.1375 44.8609 74.5416 44.3966 75.0918 44.2043C75.3657 44.1085 75.6186 44.1139 75.8505 44.2201C76.0828 44.3266 76.2443 44.4933 76.3351 44.7203C76.4964 45.1236 76.4454 45.579 76.183 46.0866C75.9207 46.5942 75.4978 47.0291 74.9153 47.3911C74.8484 47.4329 74.8285 47.4875 74.8551 47.5546C74.8996 47.666 74.9941 47.7536 75.1384 47.8184C75.2827 47.8828 75.4415 47.8847 75.6153 47.8241C76.1068 47.6523 76.4988 47.242 76.7913 46.5932C76.8469 46.4682 76.9191 46.3899 77.007 46.3592C77.1536 46.3079 77.2581 46.3602 77.3203 46.5151ZM74.6129 46.7599C74.9694 46.5508 75.2473 46.2756 75.4466 45.934C75.6459 45.5924 75.7068 45.3242 75.629 45.1296C75.5984 45.053 75.5501 44.9966 75.4838 44.9605C75.4179 44.9241 75.3493 44.9182 75.2784 44.9431C75.0655 45.0174 74.889 45.2482 74.7482 45.6352C74.6077 46.0225 74.5625 46.3975 74.6129 46.7599Z" fill="#FFAD0E"/>
<path d="M52.685 63.51C52.8541 63.2442 53.2113 63.1152 53.5111 63.2116" stroke="white" stroke-width="0.190669" stroke-linecap="round" stroke-linejoin="round"/>
<path d="M56.3861 64.314C56.5294 64.2627 56.6914 64.3614 56.7638 64.4952C56.8363 64.629 56.8414 64.7877 56.845 64.9398" stroke="white" stroke-width="0.190669" stroke-linecap="round" stroke-linejoin="round"/>
<path d="M56.5243 67.8774C56.5847 67.9356 56.6899 67.918 56.7527 67.8623C56.8154 67.8067 56.8464 67.7243 56.8749 67.6454" stroke="white" stroke-width="0.190669" stroke-linecap="round" stroke-linejoin="round"/>
<path d="M55.4808 61.3542C55.427 61.4546 55.4646 61.5844 55.5402 61.6697C55.6158 61.7551 55.7218 61.8059 55.8249 61.8546" stroke="white" stroke-width="0.190669" stroke-linecap="round" stroke-linejoin="round"/>
<path d="M59.4737 60.9964C59.6165 61.0944 59.8223 61.0887 59.9593 60.9829" stroke="white" stroke-width="0.190669" stroke-linecap="round" stroke-linejoin="round"/>
<path d="M57.9098 63.3407C58.1917 63.3697 58.4798 63.171 58.5528 62.8971" stroke="white" stroke-width="0.190669" stroke-linecap="round" stroke-linejoin="round"/>
<path d="M58.3503 57.0956C58.1822 57.2503 58.2184 57.5674 58.417 57.6803" stroke="white" stroke-width="0.190669" stroke-linecap="round" stroke-linejoin="round"/>
<path d="M59.7919 55.4547C59.8423 55.3234 60.0526 55.2974 60.1335 55.4125" stroke="white" stroke-width="0.190669" stroke-linecap="round" stroke-linejoin="round"/>
<path d="M60.1943 58.4861C60.3542 58.934 60.6984 59.3129 61.1289 59.515" stroke="white" stroke-width="0.190669" stroke-linecap="round" stroke-linejoin="round"/>
<path d="M64.3906 58.002C64.5037 58.2774 64.7126 58.5124 64.9728 58.6571" stroke="white" stroke-width="0.190669" stroke-linecap="round" stroke-linejoin="round"/>
<path d="M60.884 54.1328C60.7262 54.0422 60.7305 53.7702 60.891 53.6846" stroke="white" stroke-width="0.190669" stroke-linecap="round" stroke-linejoin="round"/>
<path d="M63.6328 52.3789C64.0094 52.6929 64.2449 53.1699 64.2654 53.6597" stroke="white" stroke-width="0.190669" stroke-linecap="round" stroke-linejoin="round"/>
<path d="M64.9599 50.8898C64.8587 50.6758 64.9249 50.396 65.1112 50.2501" stroke="white" stroke-width="0.190669" stroke-linecap="round" stroke-linejoin="round"/>
<path d="M67.0742 48.8164C67.1936 48.8572 67.2921 48.9553 67.3335 49.0744" stroke="white" stroke-width="0.190669" stroke-linecap="round" stroke-linejoin="round"/>
<path d="M66.8369 52.3118C67.0165 52.5976 67.0711 52.959 66.9839 53.2851" stroke="white" stroke-width="0.190669" stroke-linecap="round" stroke-linejoin="round"/>
<path d="M67.7571 45.8752C67.8278 45.7464 68.0085 45.6926 68.1382 45.7616C68.268 45.8307 68.3242 46.0106 68.257 46.1412" stroke="white" stroke-width="0.190669" stroke-linecap="round" stroke-linejoin="round"/>
<path d="M68.5934 48.4131C68.5332 48.2714 68.5259 48.1081 68.5732 47.9615" stroke="white" stroke-width="0.190669" stroke-linecap="round" stroke-linejoin="round"/>
<path d="M70.1736 50.5054C70.3024 50.6742 70.2341 50.9548 70.0422 51.0457" stroke="white" stroke-width="0.190669" stroke-linecap="round" stroke-linejoin="round"/>
<path d="M71.368 46.0125C71.4095 45.8713 71.5296 45.756 71.6723 45.7203C71.815 45.6847 71.9751 45.73 72.0781 45.8351" stroke="white" stroke-width="0.190669" stroke-linecap="round" stroke-linejoin="round"/>
<path d="M71.6249 50.1379C71.8902 50.1219 72.1417 49.9583 72.2639 49.7224" stroke="white" stroke-width="0.190669" stroke-linecap="round" stroke-linejoin="round"/>
<path d="M70.5693 47.5354C70.628 47.7608 70.8768 47.9182 71.1056 47.8748" stroke="white" stroke-width="0.190669" stroke-linecap="round" stroke-linejoin="round"/>
<path d="M75.1674 44.415C75.3776 44.2751 75.7105 44.4106 75.7633 44.6575" stroke="white" stroke-width="0.190669" stroke-linecap="round" stroke-linejoin="round"/>
<path d="M74.0605 46.7979C74.1106 47.1323 74.2632 47.4504 74.4925 47.6989" stroke="white" stroke-width="0.190669" stroke-linecap="round" stroke-linejoin="round"/>
<path d="M76.7499 47.4875C76.5354 47.7851 76.2559 48.036 75.9369 48.2174" stroke="white" stroke-width="0.190669" stroke-linecap="round" stroke-linejoin="round"/>
<defs>
<filter id="filter0_d_1374_18987" x="0.997952" y="6.50723" width="116.437" height="132.742" filterUnits="userSpaceOnUse" color-interpolation-filters="sRGB">
<feFlood flood-opacity="0" result="BackgroundImageFix"/>
<feColorMatrix in="SourceAlpha" type="matrix" values="0 0 0 0 0 0 0 0 0 0 0 0 0 0 0 0 0 0 127 0" result="hardAlpha"/>
<feOffset dx="2.81904" dy="2.81904"/>
<feGaussianBlur stdDeviation="5.63808"/>
<feColorMatrix type="matrix" values="0 0 0 0 0.0392157 0 0 0 0 0.0392157 0 0 0 0 0.0392157 0 0 0 0.08 0"/>
<feBlend mode="normal" in2="BackgroundImageFix" result="effect1_dropShadow_1374_18987"/>
<feBlend mode="normal" in="SourceGraphic" in2="effect1_dropShadow_1374_18987" result="shape"/>
</filter>
<filter id="filter1_d_1374_18987" x="15.9941" y="0.875732" width="119.337" height="142.409" filterUnits="userSpaceOnUse" color-interpolation-filters="sRGB">
<feFlood flood-opacity="0" result="BackgroundImageFix"/>
<feColorMatrix in="SourceAlpha" type="matrix" values="0 0 0 0 0 0 0 0 0 0 0 0 0 0 0 0 0 0 127 0" result="hardAlpha"/>
<feOffset dy="10"/>
<feGaussianBlur stdDeviation="8.5"/>
<feComposite in2="hardAlpha" operator="out"/>
<feColorMatrix type="matrix" values="0 0 0 0 0.517647 0 0 0 0 0.737255 0 0 0 0 0.968627 0 0 0 0.4 0"/>
<feBlend mode="normal" in2="BackgroundImageFix" result="effect1_dropShadow_1374_18987"/>
<feBlend mode="normal" in="SourceGraphic" in2="effect1_dropShadow_1374_18987" result="shape"/>
</filter>
<clipPath id="clip0_1374_18987">
<rect width="55.4043" height="55.4043" fill="white" transform="translate(46.6357 48.5989) rotate(4.36993)"/>
</clipPath>
</defs>
</svg>
