<svg width="118" height="94" viewBox="0 0 118 94" fill="none" xmlns="http://www.w3.org/2000/svg">
<path d="M64.7734 24.0188C64.7734 24.0188 83.1789 21.5704 85.9342 20.9829C88.6896 20.3952 92.2164 20.1013 94.0901 20.3952C95.9636 20.689 98.9395 21.0809 100.813 21.6684C102.687 22.2561 103.348 22.8436 104.119 23.5293C104.119 23.5293 104.891 23.9209 105.221 24.6066C105.552 25.292 106.208 26.6007 106.208 26.6007C106.208 26.6007 106.205 26.5807 106.387 28.6331C106.452 29.372 106.136 30.8081 106.136 30.8081C106.136 30.8081 105.316 32.0112 104.774 32.5772C104.233 33.1433 97.8631 37.3316 96.8758 37.8125C95.8886 38.2937 91.0477 40.5858 89.9967 40.9252C88.9457 41.2649 85.4426 42.7084 85.4426 42.7084L76.4938 40.7274L63.5 31.5018L64.7734 24.0188Z" fill="#FB7865"/>
<path d="M70.2792 0.776123C70.4384 2.35691 71.7601 2.98625 73.2879 2.24426C73.495 2.14363 73.9456 2.18297 74.1132 2.32121C74.6986 2.8041 75.2386 3.33873 75.7263 3.90124C75.8391 4.03108 75.7622 4.40436 75.6264 4.57163C75.1038 5.21509 74.9154 5.91279 75.1279 6.66719C75.5074 8.0137 76.9956 8.39654 78.1158 7.44795C78.2907 7.29978 78.3936 7.08478 78.5404 6.88658C79.6921 8.02993 80.768 8.9915 81.6819 10.0625C82.0044 10.4404 81.9814 11.0823 82.0265 11.6099C82.1017 12.4874 82.7208 13.1149 83.7176 13.0448C84.5526 12.9864 85.0331 13.2859 85.5142 13.8355C87.0639 15.6047 88.0824 17.6186 88.9664 19.6878C89.1824 20.194 89.4329 20.3188 89.9791 20.2871C92.6617 20.1323 95.3337 20.143 97.9887 20.6228C100.017 20.9896 101.974 21.5592 103.655 22.6141C104.858 23.3689 105.625 24.526 106.057 25.8083C106.093 25.9151 105.976 26.0625 105.87 26.3604C105.681 26.031 105.544 25.8561 105.474 25.6623C104.723 23.5837 102.855 22.511 100.767 21.79C97.6825 20.7244 94.4215 20.5367 91.1337 20.6593C90.2271 20.6931 89.3173 20.6644 88.6585 20.6644C88.1563 20.0374 87.8566 19.4661 87.3673 19.0899C86.0363 18.0663 84.6538 18.567 84.364 20.1191C84.1306 21.3692 84.1345 21.3892 82.7242 21.6144C79.3034 22.1601 75.8819 22.7041 72.4527 23.2045C71.7305 23.3099 71.6976 23.5862 71.9735 24.0399C72.6951 25.2275 73.3687 26.4448 74.1854 27.5793C76.8033 31.2146 79.8971 34.4877 83.9413 36.9323C85.8107 38.0623 87.8205 39.0151 89.813 39.9715C90.229 40.1712 90.9577 40.2123 91.3589 40.0215C94.2109 38.6647 97.0509 37.281 99.8229 35.7999C101.816 34.7348 103.599 33.4022 105.049 31.7586C105.319 31.4529 105.524 31.1022 105.766 30.7766C105.788 30.747 105.864 30.7489 106.073 30.6964C105.834 31.6738 105.261 32.382 104.544 33.0077C101.849 35.3588 98.7029 37.1416 95.3603 38.6521C92.355 40.0105 89.3079 41.2953 86.2779 42.6101C86.1842 42.6506 86.0757 42.6638 85.9743 42.6897L85.815 42.5353C85.9861 42.3955 86.1315 42.2042 86.3329 42.1244C87.4103 41.6968 88.5016 41.297 89.7219 40.8372C89.4507 40.6602 89.322 40.5453 89.1667 40.4796C82.3381 37.5939 77.0994 33.1637 73.2103 27.4369C72.4555 26.3252 71.7827 25.1672 71.128 24.0055C70.8974 23.5965 70.6329 23.476 70.1535 23.5451C68.9265 23.7221 67.6974 23.893 66.463 24.0177C66.2432 24.0399 65.8564 23.8797 65.7784 23.7164C65.1028 22.2979 64.1036 21.1324 62.6637 20.2593C62.486 20.1516 62.3384 19.8428 62.3694 19.6521C62.5232 18.7081 62.7415 17.7725 62.9304 16.867C63.0802 16.8376 63.1427 16.8055 63.1769 16.8216C64.9346 17.6382 66.4477 16.93 66.6976 15.1709C66.8008 14.4451 65.9587 13.4337 64.849 13.2464C63.855 13.0788 63.904 12.6388 64.1084 11.9994C64.8632 9.63784 65.521 7.24841 66.382 4.91837C66.9712 3.32383 67.6981 1.72777 69.4489 0.776123H70.2792ZM71.3147 12.8972C71.3029 13.9378 72.3882 14.8982 73.6036 14.9229C74.5901 14.9427 75.7977 13.7415 75.7833 12.7547C75.7702 11.8692 74.3982 10.7541 73.281 10.7212C72.247 10.6911 71.328 11.708 71.3147 12.8972ZM70.6692 6.11404C70.6845 4.97203 69.7203 4.20922 68.2548 4.20388C67.217 4.20006 66.255 5.11084 66.2586 6.09418C66.2627 7.27744 67.3392 8.18555 68.7398 8.18784C69.8806 8.18975 70.6522 7.3605 70.6692 6.11404ZM72.9922 20.0991C73.0066 18.8948 72.2752 18.1908 71.021 18.2017C69.9676 18.2108 69.0198 19.1833 68.9996 20.2762C68.9803 21.2968 69.8424 21.9712 71.2141 22.0088C72.2776 22.0381 72.9778 21.2857 72.9922 20.0991ZM82.6682 16.7179C82.7171 15.6796 81.7968 14.8444 80.5587 14.8035C79.5924 14.7714 78.7017 15.6032 78.6704 16.5667C78.639 17.5298 79.6975 18.5055 80.8071 18.5364C81.765 18.5631 82.6209 17.7268 82.6682 16.7179Z" fill="#183EAC"/>
<path d="M83.8545 32.4979C83.8573 30.8571 85.2974 29.6227 87.2156 29.6166C89.1145 29.6107 90.4289 30.8283 90.4347 32.5995C90.4407 34.4004 89.2767 35.4746 87.2545 35.4575C85.8385 35.4454 83.7114 34.4323 83.8545 32.4979Z" fill="#183EAC"/>
<path d="M102.551 27.3639C101.524 27.3282 100.811 26.8988 100.385 26.2137C100.22 25.9486 100.306 25.3947 100.526 25.1522C100.741 24.9174 101.288 24.8017 101.664 24.8387C102.04 24.8757 102.368 25.2007 102.746 25.3378C103.153 25.4854 103.589 25.6368 104.018 25.6508C104.637 25.6708 104.777 25.8971 104.531 26.338C104.113 27.0895 103.284 27.2274 102.551 27.3639Z" fill="#183EAC"/>
<path d="M81.4858 27.0848C80.073 27.0718 78.5412 25.9924 78.2143 24.7418C78.1712 24.5766 78.3306 24.3698 78.3961 24.1821C78.5657 24.2822 78.7874 24.3502 78.8942 24.4884C79.142 24.8094 79.2803 25.2044 79.558 25.4985C80.8165 26.831 82.8146 26.6294 83.7367 25.0981C83.7887 25.0116 83.8027 24.8915 83.8794 24.8353C84.048 24.712 84.2455 24.6194 84.4312 24.5144C84.4791 24.7061 84.6145 24.9207 84.5607 25.0864C84.1946 26.2135 82.8084 27.097 81.4858 27.0848Z" fill="#183EAC"/>
<path d="M102.531 33.4841C101.831 33.3628 101.119 33.2836 100.435 33.1121C99.0416 32.7627 97.8705 32.0904 97.0499 31.0093C96.8236 30.7114 96.6506 30.3565 96.5673 30.0061C96.5144 29.7848 96.6728 29.5238 96.7364 29.2805C96.9102 29.4543 97.1741 29.6038 97.2422 29.8058C97.537 30.6814 98.1621 31.3358 99.0083 31.7732C100.132 32.3541 101.323 32.832 102.485 33.354C102.5 33.3974 102.515 33.4407 102.531 33.4841Z" fill="#183EAC"/>
<path d="M71.3145 12.8947C71.3279 11.7056 72.2469 10.6886 73.2809 10.7188C74.398 10.7516 75.77 11.8669 75.7831 12.7523C75.7975 13.7391 74.5899 14.9403 73.6034 14.9204C72.3881 14.8958 71.3027 13.9356 71.3145 12.8947Z" fill="#FECBA7"/>
<path d="M70.6684 6.11592C70.6514 7.36218 69.8798 8.19182 68.739 8.18991C67.3384 8.18762 66.2619 7.27931 66.2578 6.09625C66.2542 5.11291 67.2162 4.20213 68.254 4.20594C69.7195 4.2111 70.6836 4.97391 70.6684 6.11592Z" fill="#FECBA7"/>
<path d="M72.9929 20.099C72.9788 21.2857 72.2783 22.0378 71.2151 22.0086C69.8431 21.971 68.981 21.2968 69.0003 20.276C69.0207 19.1833 69.9683 18.2108 71.0217 18.2017C72.2759 18.1908 73.0073 18.8946 72.9929 20.099Z" fill="#FECBA7"/>
<path d="M82.6686 16.7164C82.6213 17.7253 81.7653 18.5617 80.8073 18.5349C79.6977 18.504 78.6392 17.5283 78.6706 16.5652C78.702 15.6017 79.5926 14.77 80.5589 14.802C81.7971 14.8429 82.7176 15.6781 82.6686 16.7164Z" fill="#FECBA7"/>
<path d="M70.2793 0.777735C70.2793 0.777735 70.8034 0.306686 71.8771 0.942708C72.9513 1.57892 73.895 2.18611 73.895 2.18611C73.895 2.18611 72.6584 2.79349 72.0729 2.64876C71.4869 2.50421 70.9663 2.47538 70.6734 1.95488C70.3807 1.43438 70.2793 0.777735 70.2793 0.777735Z" fill="#FECBA7"/>
<path d="M63.9819 12.5493C63.9819 12.5493 63.5949 13.879 63.311 14.9336C63.0274 15.9881 62.0727 17.547 64.4976 17.1344C66.9229 16.7217 66.6537 15.4728 66.6979 15.1688C66.7422 14.8648 65.9424 13.4435 65.4007 13.2142C64.859 12.985 63.9819 12.5493 63.9819 12.5493Z" fill="#FECBA7"/>
<path d="M75.6162 3.84021C75.6162 3.84021 76.8285 4.50506 77.5509 5.44506C78.2731 6.38487 78.6086 7.04972 78.6086 7.04972C78.6086 7.04972 77.4738 8.37924 76.4417 7.9437C75.4099 7.50817 74.507 6.4305 74.8682 5.74293C75.2292 5.05516 75.6162 3.84021 75.6162 3.84021Z" fill="#FECBA7"/>
<path d="M62.3703 19.6561C62.3703 19.6561 65.1338 21.1676 65.3479 22.2542C65.5619 23.3409 66.7237 24.0474 66.1732 24.0474C65.6231 24.0474 63.1772 24.6723 62.5961 24.4006C62.0153 24.1289 61.8625 23.0421 62.0766 21.7924C62.2904 20.5427 62.3703 19.6561 62.3703 19.6561Z" fill="#FECBA7"/>
<path d="M85.2216 18.7213C84.7325 19.0201 84.3958 19.5091 84.3041 19.9439C84.2125 20.3786 83.7538 21.2751 83.876 21.3295C83.9985 21.3837 88.7658 20.9289 88.6599 20.6673C88.5539 20.4057 87.6976 19.0201 87.1781 18.8299C86.6583 18.6397 85.8024 18.368 85.5577 18.504C85.3134 18.6397 85.2216 18.7213 85.2216 18.7213Z" fill="#FECBA7"/>
<path d="M81.6816 10.061C81.6816 10.061 83.2934 11.4091 83.9353 12.0611C84.5775 12.7132 85.2499 13.5552 85.2499 13.5552C85.2499 13.5552 83.6295 13.501 83.1097 13.1207C82.5901 12.7403 82.2264 12.3516 82.0261 11.6084C81.8258 10.8655 81.6816 10.061 81.6816 10.061Z" fill="#FECBA7"/>
<path d="M100.47 31.6486C100.987 31.061 105.996 26.0768 105.996 26.0768C105.996 26.0768 112.261 20.7491 112.93 19.8153C113.598 18.8814 114.14 17.4946 113.63 17.1831C113.121 16.8719 111.72 16.5891 111.178 16.9288C110.637 17.2683 109.872 17.8344 110.032 18.6267C110.191 19.4191 110.191 19.702 110.605 19.702C111.019 19.702 111.465 19.7305 111.656 19.3908C111.847 19.0513 112.261 18.6549 112.134 18.5419C112.006 18.4287 111.592 18.4002 111.528 18.5984C111.465 18.7966 111.433 19.2211 111.242 19.1926C111.051 19.1643 110.605 19.1643 110.7 18.7116C110.796 18.2589 110.924 17.7212 111.528 17.6645C112.134 17.6078 112.548 17.4665 112.675 17.7212C112.802 17.9757 113.184 18.0607 112.93 18.7399C112.675 19.4191 111.879 20.4944 111.497 20.5229C111.114 20.5511 110.031 20.8341 109.586 20.5794C109.14 20.3247 108.153 19.8718 108.216 18.7681C108.28 17.6645 108.503 16.3344 110 15.7402C111.497 15.1458 113.63 14.6931 114.904 15.4005C116.178 16.108 117.261 16.9288 117.261 18.1172C117.261 19.306 117.611 20.2115 116.528 21.2868C115.446 22.3622 106.274 30.4273 106.274 30.4273C106.274 30.4273 105.076 31.8185 104.455 32.3157C103.656 32.9546 102.37 33.3764 101.284 33.1117C100.541 32.9307 99.5735 32.668 100.47 31.6486Z" fill="#FB7865"/>
<path d="M102.649 29.6154C102.649 29.6154 100.654 31.4539 100.58 31.9137C100.506 32.3733 100.321 32.5375 101.024 32.7344C101.726 32.9314 102.095 33.1615 102.723 32.9973C103.351 32.8333 104.349 31.9464 104.349 31.9464L102.649 29.6154Z" fill="#FECBA7"/>
<path d="M103.831 28.5264C103.757 28.6577 103.572 28.6249 103.72 29.0845C103.867 29.5443 104.533 31.3173 104.68 31.4487C104.828 31.5801 105.087 31.7769 105.124 31.4815C105.161 31.1862 104.422 29.216 104.348 28.9863C104.274 28.7564 103.831 28.5264 103.831 28.5264Z" fill="#FECBA7"/>
<path d="M105.2 26.9498C105.126 27.2452 104.942 27.2126 105.274 28.0663C105.607 28.9199 105.865 29.8065 105.865 30.2004C105.865 30.5945 105.902 30.8242 106.05 30.5943C106.198 30.3644 106.493 29.6094 106.235 28.8214C105.976 28.0334 105.607 27.2126 105.496 27.1142C105.385 27.0157 105.2 26.9498 105.2 26.9498Z" fill="#FECBA7"/>
<path d="M106.381 25.9683C106.381 26.1982 106.344 26.5593 106.566 26.9862C106.788 27.413 107.157 28.5292 107.157 28.8248C107.157 29.1202 106.972 29.5143 107.268 29.35C107.563 29.186 107.6 28.9233 107.6 28.4307C107.6 27.9382 107.231 27.1176 107.046 26.6249C106.861 26.1325 106.751 25.7713 106.566 25.8698L106.381 25.9683Z" fill="#FECBA7"/>
<path d="M107.823 24.4912C107.712 24.8194 108.045 25.115 108.193 25.6731C108.34 26.2312 108.673 27.0521 108.673 27.4134C108.673 27.7744 108.747 28.1359 108.894 27.9388C109.042 27.7418 109.153 27.4135 109.005 26.7241C108.857 26.0346 108.71 25.2794 108.377 24.8853C108.045 24.4914 107.823 24.4912 107.823 24.4912Z" fill="#FECBA7"/>
<path d="M109.191 23.1083C109.08 23.4037 109.006 23.6336 109.228 24.0275C109.449 24.4216 110.004 25.2424 110.004 25.5052C110.004 25.7677 109.929 26.5557 110.262 26.49C110.595 26.4244 110.632 26.0305 110.521 25.6692C110.41 25.3081 109.523 23.5351 109.412 23.3054C109.301 23.0755 109.191 23.1083 109.191 23.1083Z" fill="#FECBA7"/>
<path d="M111 23.5704C111.111 23.9643 111.332 24.9494 111.517 25.0808C111.702 25.2121 111.775 25.3435 111.886 25.1465C111.997 24.9494 112.034 24.621 111.849 24.1286C111.665 23.6361 110.852 22.1586 110.63 22.0601C110.408 21.9616 110.889 23.1765 111 23.5704Z" fill="#FECBA7"/>
<path d="M111.702 20.8806C111.554 21.1105 111.591 21.3402 111.849 21.8328C112.108 22.3253 113.032 23.5072 113.106 23.7371C113.18 23.967 113.364 24.2624 113.438 23.9013C113.512 23.54 113.586 22.9162 113.143 22.5223C112.699 22.1282 112.145 21.3074 111.997 21.1105C111.849 20.9135 111.702 20.8806 111.702 20.8806Z" fill="#FECBA7"/>
<path d="M0.179688 93.4526H97.6894C97.6894 93.4526 98.3216 91.4355 97.5315 88.768C96.7416 86.1008 101.481 75.993 100.849 71.7813C100.217 67.5695 96.7416 62.2348 94.0558 59.8481C91.3701 57.4615 90.5802 56.479 89.0002 51.2846C87.4204 46.0903 86.8577 41.8052 85.2504 40.9481C83.6427 40.091 80.669 39.5197 79.4633 39.5911C78.2578 39.6625 78.2578 39.3767 78.2578 39.3767C78.2578 39.3767 78.4989 32.592 74.8018 31.8063C71.1046 31.0207 68.854 31.0922 68.854 31.0922C68.854 31.0922 69.8987 29.1635 69.0147 28.1637C68.1307 27.1638 66.4426 26.5927 66.4426 26.5927C66.4426 26.5927 66.4426 22.8785 65.2372 21.5929C64.0315 20.3073 61.1382 19.3791 59.611 19.5934C58.0839 19.8076 57.6819 19.879 57.6819 19.879C57.6819 19.879 53.9847 16.165 50.7697 16.165C47.5549 16.165 42.6521 17.0222 39.5978 19.3791C36.5435 21.7359 33.4895 24.1641 32.9267 25.8067C32.3642 27.4494 31.3996 30.5207 31.3996 30.5207C31.3996 30.5207 24.3267 30.092 19.9864 34.3059C15.6463 38.5197 13.8781 41.4482 13.7174 44.2336C13.5566 47.0188 13.3153 49.9471 13.3153 49.9471C13.3153 49.9471 6.00135 52.3753 3.42949 61.0886C0.857411 69.8018 1.66127 75.7297 2.54527 76.6582C3.42949 77.5866 5.27808 79.5865 4.23313 81.7292C3.18818 83.8716 1.25923 87.5141 1.0985 89.2284C0.937774 90.9425 0.179688 93.4526 0.179688 93.4526Z" fill="#FECBA7"/>
<path d="M43.3809 55.1077L45.4748 85.1739L54.2917 86.0552L56.4961 55.4015C56.4961 55.4015 56.1654 55.9891 54.9528 54.6181C53.7407 53.247 53.5203 52.4634 53.5203 52.4634C53.5203 52.4634 53.0793 53.5406 52.0875 53.3449C51.0956 53.1488 49.5526 51.6799 49.5526 51.6799C49.5526 51.6799 49.9935 55.5973 48.4507 55.6952C46.9076 55.7932 43.3809 55.1077 43.3809 55.1077Z" fill="#FB7865"/>
<path d="M52.8884 93.5535C51.1814 92.3452 49.5019 91.1045 47.7614 89.9359C44.9246 88.0313 44.7836 87.8322 44.7559 84.6106C44.7495 83.8406 45.1975 83.5171 46.0662 83.6332C48.2799 83.9288 50.4955 84.2133 52.7102 84.5012C54.0167 84.671 54.2075 84.8336 54.2436 85.9969C54.3008 87.8411 54.3562 89.6862 54.3474 91.5307C54.344 92.2055 54.1549 92.8793 54.0504 93.5535H52.8884Z" fill="#183EAC"/>
<path d="M81.1186 23.5991C79.8293 23.5991 78.4863 24.5538 78.4863 24.5538C78.4863 24.5538 79.6144 26.8928 81.6558 26.8451C83.5897 26.7998 84.7178 25.0312 84.3954 24.6016C83.9416 23.9967 82.4078 23.5991 81.1186 23.5991Z" fill="#FA7764"/>
<path d="M81.1186 23.5991C79.8293 23.5991 78.4863 24.5538 78.4863 24.5538C78.4863 24.5538 79.6144 26.8928 81.6558 26.8451C83.5897 26.7998 84.7178 25.0312 84.3954 24.6016C83.9416 23.9967 82.4078 23.5991 81.1186 23.5991Z" stroke="#173DAB" stroke-width="0.535278"/>
<path d="M81.8722 23.7875C81.8722 23.7875 81.2812 23.9195 81.2812 24.8377C81.2812 25.7924 81.5498 26.1743 82.087 26.413C82.6242 26.6516 83.1077 26.5562 83.6986 26.1743C84.2895 25.7924 84.5044 24.8854 84.5044 24.8854C84.5044 24.8854 84.1284 24.1217 83.2689 23.9307C82.4094 23.7398 81.8722 23.7875 81.8722 23.7875Z" fill="#173DAB"/>
<path d="M81.8722 23.7875C81.8722 23.7875 81.2812 23.9195 81.2812 24.8377C81.2812 25.7924 81.5498 26.1743 82.087 26.413C82.6242 26.6516 83.1077 26.5562 83.6986 26.1743C84.2895 25.7924 84.5044 24.8854 84.5044 24.8854C84.5044 24.8854 84.1284 24.1217 83.2689 23.9307C82.4094 23.7398 81.8722 23.7875 81.8722 23.7875Z" stroke="#173DAB" stroke-width="0.535278"/>
</svg>
