<svg width="89" height="37" viewBox="0 0 89 37" fill="none" xmlns="http://www.w3.org/2000/svg">
<path d="M4.4114 1.66947C4.4114 0.923325 3.73169 0.319336 2.892 0.319336H0.632812C1.37261 1.33176 1.37261 3.01961 1.37261 3.69433V12.4518C1.37261 13.198 2.05232 13.802 2.892 13.802H5.17071C4.4114 12.7895 4.4114 11.1017 4.4114 10.427V1.66947ZM13.3069 10.427V1.66947C13.3069 0.923325 12.6272 0.319336 11.7875 0.319336H9.50882C10.2681 1.33176 10.2681 3.01961 10.2681 3.69433V12.4518C10.2681 13.198 10.9478 13.802 11.7875 13.802H14.067C13.3069 12.7895 13.3069 11.1017 13.3069 10.427ZM6.6901 5.71918C6.09077 5.71918 5.41106 6.03955 5.17071 6.55409L4.79144 7.40703H7.98943C8.60905 7.40703 9.28875 7.06932 9.50882 6.57212L9.88886 5.71918H6.6901Z" fill="#FB7865"/>
<path d="M23.9795 11.2976V8.2423C23.9592 5.54203 22.3602 4.19189 19.7015 4.19189C15.9229 4.19189 15.0239 6.55446 16.4231 7.24721C16.4231 6.43033 17.5625 5.77295 18.7619 5.77295C20.0214 5.77295 20.7206 6.27084 21.0008 7.15845C18.2219 8.11817 15.084 9.00648 15.084 11.2976C15.084 12.6477 16.203 13.9979 17.962 13.9979C19.0218 13.9979 20.4015 13.1983 20.581 11.7948C19.3815 12.6477 17.9222 12.3988 17.9222 10.7824C17.9222 9.32615 19.7811 8.31303 21.121 7.86923C21.1405 7.99335 21.1405 8.11817 21.1405 8.2423V12.4876C21.1405 13.2337 21.8202 13.8377 22.6599 13.8377H24.3595C24.1793 13.5007 23.9795 12.31 23.9795 11.2976Z" fill="#FB7865"/>
<path d="M32.4976 4.20947C31.3583 4.20947 30.478 4.74273 28.6995 6.23433V5.7191C28.6995 4.97365 28.0198 4.36966 27.1801 4.36966H25.4805C25.6607 4.70667 25.8402 5.89732 25.8402 6.90974V17.1769C25.8402 17.923 26.5199 18.527 27.3596 18.527H29.0788C28.879 18.1893 28.6995 17.0174 28.6995 16.0043V7.24676C30.9782 5.2219 32.8574 5.7191 32.8574 9.09478C32.8574 12.4698 31.1577 12.8068 29.2591 11.7944C29.4385 12.967 30.3984 13.9794 32.2978 13.9794C34.0568 13.9794 35.7159 12.6293 35.7159 9.09478C35.7159 6.39451 34.9566 4.20947 32.4976 4.20947Z" fill="#FB7865"/>
<path d="M43.9908 4.20947C42.8514 4.20947 41.9712 4.74273 40.1927 6.23433V5.7191C40.1927 4.97365 39.513 4.36966 38.6733 4.36966H36.9736C37.1539 4.70667 37.3334 5.89732 37.3334 6.90974V17.1769C37.3334 17.923 38.0131 18.527 38.8528 18.527H40.572C40.3722 18.1893 40.1927 17.0174 40.1927 16.0043V7.24676C42.4714 5.2219 44.3505 5.7191 44.3505 9.09478C44.3505 12.4698 42.6509 12.8068 40.7522 11.7944C40.9317 12.967 41.8916 13.9794 43.791 13.9794C45.55 13.9794 47.2091 12.6293 47.2091 9.09478C47.2091 6.39451 46.4498 4.20947 43.9908 4.20947Z" fill="#FB7865"/>
<path d="M58.2985 5.24039C58.478 4.81392 58.1183 4.37012 57.6188 4.37012H55.4993C56.2594 5.04484 55.9598 6.21745 55.6398 7.06969L53.8605 11.9196L51.2018 5.29378C51.002 4.74319 50.4222 4.37012 49.762 4.37012H47.7432L51.162 12.4168C51.4219 13.145 52.1414 13.6782 52.9811 13.7843L51.6411 16.6448C51.0613 17.8347 51.5015 18.5275 52.601 18.5275H54.7603C54.2203 18.0656 53.6202 17.0352 54.0603 15.7918L58.2985 5.24039Z" fill="#FB7865"/>
<path d="M66.1946 2.00767H70.8519C71.4723 2.00767 72.0318 1.66996 72.2714 1.15473L72.6514 0.319824H62.416C63.1558 1.33225 63.1558 3.02009 63.1558 3.69482V12.4523C63.1558 13.1985 63.8355 13.8025 64.6752 13.8025H70.8519C71.4723 13.8025 72.0318 13.4647 72.2714 12.9495C72.2714 12.9495 72.5516 12.3282 72.6116 12.1146C71.6323 12.1146 67.4736 12.1146 66.1946 12.1146V2.00767ZM68.4733 5.71967C67.874 5.71967 67.1943 6.04004 66.9539 6.55458L66.5746 7.40751H69.6127C70.2323 7.40751 70.8925 7.06981 71.132 6.57261L71.5121 5.71967H68.4733Z" fill="#FB7865"/>
<path d="M76.8081 5.71971C76.8081 4.97426 76.1284 4.37027 75.2887 4.37027H73.5898C73.7701 4.70728 73.9496 5.89792 73.9496 6.91035V12.4704C73.9496 13.2165 74.6293 13.8205 75.469 13.8205H77.1882C76.9884 13.4828 76.8081 12.2929 76.8081 11.2797V5.71971ZM75.1888 2.68242C76.1487 2.66439 76.5881 2.46954 77.6283 0.337891H76.169C75.2091 0.355227 74.7495 0.550778 73.7295 2.68242H75.1888Z" fill="#FB7865"/>
<path d="M88.3232 11.2796V1.35014C88.3232 0.60399 87.6434 0 86.8038 0H85.1049C85.2844 0.337707 85.4841 1.50963 85.4841 2.52206V6.23475C84.9043 4.7071 83.765 4.2099 82.6256 4.2099C80.1667 4.2099 78.4678 6.39494 78.4678 9.09521C78.4678 12.6297 80.1269 13.9798 81.8663 13.9798C83.765 13.9798 84.7451 12.9674 84.9043 11.7948C83.0057 12.8072 81.306 12.4702 81.306 9.09521C81.306 5.71953 84.145 5.22233 85.4841 7.24718V12.4702C85.4841 13.2163 86.1443 13.8203 86.984 13.8203H88.7032C88.5026 13.4826 88.3232 12.2927 88.3232 11.2796Z" fill="#FB7865"/>
<path d="M14.9645 23.4245C14.7445 22.9092 14.1849 22.5542 13.5645 22.5542H11.406L12.0053 23.9751L7.30747 35.1312C7.12798 35.575 7.48774 36.0368 8.00747 36.0368H9.96622C9.38718 35.5216 9.48706 34.9356 9.80702 34.1541C9.80702 34.1361 9.80702 34.1361 9.80702 34.1181L10.1465 33.3366L10.4266 32.6618H13.4646C13.9649 32.6618 14.4042 32.3956 14.5845 31.9864L14.8842 31.3117H11.0065L13.0651 26.4264L16.7836 35.1666C17.0232 35.6991 17.5827 36.0368 18.2031 36.0368H20.3616L14.9645 23.4245Z" fill="#FB7865"/>
<path d="M24.1194 33.5142V23.2471C24.1194 22.501 23.4397 21.897 22.6001 21.897H20.9004C21.0807 22.2347 21.2609 23.4073 21.2609 24.4197V34.7049C21.2609 35.451 21.9406 36.055 22.7795 36.055H24.4987C24.2989 35.7173 24.1194 34.5274 24.1194 33.5142Z" fill="#FB7865"/>
<path d="M27.7978 28.9316C26.8777 28.9497 26.4579 29.1272 25.4785 31.1701H32.8749C33.795 31.152 34.2343 30.9572 35.2137 28.9316H27.7978Z" fill="#FB7865"/>
<path d="M43.2311 23.4245C43.0111 22.9092 42.4515 22.5542 41.8311 22.5542H39.6726L40.2719 23.9751L35.5741 35.1312C35.3946 35.575 35.7543 36.0368 36.2741 36.0368H38.2328C37.6538 35.5216 37.7537 34.9356 38.0736 34.1541C38.0736 34.1361 38.0736 34.1361 38.0736 34.1181L38.4131 33.3366L38.6932 32.6618H41.7312C42.2315 32.6618 42.6708 32.3956 42.8511 31.9864L43.1508 31.3117H39.2731L41.3317 26.4264L45.0502 35.1666C45.2898 35.6991 45.8493 36.0368 46.4697 36.0368H48.6282L43.2311 23.4245Z" fill="#FB7865"/>
<path d="M58.9999 33.5144V23.585C58.9999 22.8389 58.3202 22.2349 57.4805 22.2349H55.7816C55.9611 22.5726 56.1609 23.7445 56.1609 24.7569V28.4696C55.5811 26.942 54.4417 26.4448 53.3024 26.4448C50.8434 26.4448 49.1445 28.6298 49.1445 31.3301C49.1445 34.8646 50.8036 36.2147 52.5431 36.2147C54.4417 36.2147 55.4219 35.2023 55.5811 34.0297C53.6824 35.0421 51.9828 34.7051 51.9828 31.3301C51.9828 27.9544 54.8218 27.4572 56.1609 29.482V34.7051C56.1609 35.4512 56.8211 36.0552 57.6608 36.0552H59.38C59.1794 35.7175 58.9999 34.5275 58.9999 33.5144Z" fill="#FB7865"/>
<path d="M70.8331 33.5144V30.6547C70.8331 28.1499 71.0133 26.4448 68.3546 26.4448C66.8547 26.4448 65.8956 27.2797 63.8167 28.9675V23.585C63.8167 22.8389 63.137 22.2349 62.2973 22.2349H60.5977C60.7779 22.5726 60.9582 23.7445 60.9582 24.7569V34.7051C60.9582 35.4512 61.6371 36.0552 62.4768 36.0552H64.196C63.9962 35.7175 63.8167 34.5275 63.8167 33.5144V29.9799C66.0954 27.9544 67.9746 27.3684 67.9746 30.4064V34.7051C67.9746 35.4512 68.6543 36.0552 69.494 36.0552H71.2131C71.0133 35.7175 70.8331 34.5275 70.8331 33.5144Z" fill="#FB7865"/>
<path d="M81.0674 33.532V30.4767C81.0471 27.7764 79.4481 26.4263 76.7894 26.4263C73.0108 26.4263 72.1118 28.7888 73.511 29.4816C73.511 28.6647 74.6504 28.0073 75.8498 28.0073C77.1093 28.0073 77.8085 28.5052 78.0887 29.3928C75.3098 30.3525 72.1719 31.2409 72.1719 33.532C72.1719 34.8821 73.2909 36.2323 75.0499 36.2323C76.1097 36.2323 77.4894 35.4327 77.6689 34.0292C76.4694 34.8821 75.0101 34.6332 75.0101 33.0168C75.0101 31.5605 76.869 30.5474 78.2089 30.1036C78.2284 30.2277 78.2284 30.3525 78.2284 30.4767V34.7219C78.2284 35.4681 78.9081 36.0721 79.7478 36.0721H81.4474C81.2672 35.7351 81.0674 34.5444 81.0674 33.532Z" fill="#FB7865"/>
</svg>
