<svg width="89" height="37" viewBox="0 0 89 37" fill="none" xmlns="http://www.w3.org/2000/svg">
<path d="M4.24343 2.05326C4.24343 1.30711 3.56372 0.703125 2.72404 0.703125H0.464844C1.20464 1.71555 1.20464 3.4034 1.20464 4.07812V12.8356C1.20464 13.5818 1.88435 14.1858 2.72404 14.1858H5.00274C4.24343 13.1733 4.24343 11.4855 4.24343 10.8108V2.05326ZM13.1389 10.8108V2.05326C13.1389 1.30711 12.4592 0.703125 11.6196 0.703125H9.34085C10.1002 1.71555 10.1002 3.4034 10.1002 4.07812V12.8356C10.1002 13.5818 10.7799 14.1858 11.6196 14.1858H13.899C13.1389 13.1733 13.1389 11.4855 13.1389 10.8108ZM6.52213 6.10297C5.9228 6.10297 5.24309 6.42334 5.00274 6.93788L4.62347 7.79081H7.82146C8.44108 7.79081 9.12079 7.45311 9.34085 6.95591L9.7209 6.10297H6.52213Z" fill="#FFE47D"/>
<path d="M23.8115 11.6814V8.62609C23.7912 5.92582 22.1923 4.57568 19.5335 4.57568C15.7549 4.57568 14.8559 6.93825 16.2551 7.631C16.2551 6.81412 17.3945 6.15674 18.5939 6.15674C19.8535 6.15674 20.5527 6.65463 20.8328 7.54224C18.0539 8.50196 14.916 9.39026 14.916 11.6814C14.916 13.0315 16.0351 14.3817 17.794 14.3817C18.8538 14.3817 20.2335 13.5821 20.413 12.1786C19.2136 13.0315 17.7542 12.7826 17.7542 11.1662C17.7542 9.70994 19.6131 8.69682 20.953 8.25302C20.9725 8.37714 20.9725 8.50196 20.9725 8.62609V12.8714C20.9725 13.6175 21.6522 14.2215 22.4919 14.2215H24.1916C24.0113 13.8845 23.8115 12.6938 23.8115 11.6814Z" fill="#FFE47D"/>
<path d="M32.3297 4.59326C31.1903 4.59326 30.31 5.12652 28.5316 6.61812V6.10289C28.5316 5.35744 27.8518 4.75345 27.0122 4.75345H25.3125C25.4928 5.09046 25.6723 6.2811 25.6723 7.29353V17.5607C25.6723 18.3068 26.352 18.9108 27.1916 18.9108H28.9108C28.711 18.5731 28.5316 17.4012 28.5316 16.388V7.63055C30.8103 5.60569 32.6894 6.10289 32.6894 9.47857C32.6894 12.8536 30.9897 13.1906 29.0911 12.1782C29.2706 13.3508 30.2304 14.3632 32.1299 14.3632C33.8888 14.3632 35.5479 13.0131 35.5479 9.47857C35.5479 6.7783 34.7886 4.59326 32.3297 4.59326Z" fill="#FFE47D"/>
<path d="M43.8238 4.59326C42.6844 4.59326 41.8042 5.12652 40.0257 6.61812V6.10289C40.0257 5.35744 39.346 4.75345 38.5063 4.75345H36.8066C36.9869 5.09046 37.1664 6.2811 37.1664 7.29353V17.5607C37.1664 18.3068 37.8461 18.9108 38.6858 18.9108H40.405C40.2052 18.5731 40.0257 17.4012 40.0257 16.388V7.63055C42.3044 5.60569 44.1835 6.10289 44.1835 9.47857C44.1835 12.8536 42.4839 13.1906 40.5852 12.1782C40.7647 13.3508 41.7246 14.3632 43.624 14.3632C45.383 14.3632 47.0421 13.0131 47.0421 9.47857C47.0421 6.7783 46.2828 4.59326 43.8238 4.59326Z" fill="#FFE47D"/>
<path d="M58.1296 5.62418C58.3091 5.19771 57.9493 4.75391 57.4499 4.75391H55.3304C56.0905 5.42863 55.7908 6.60124 55.4709 7.45348L53.6916 12.3034L51.0329 5.67757C50.8331 5.12698 50.2533 4.75391 49.5931 4.75391H47.5742L50.9931 12.8006C51.2529 13.5287 51.9724 14.062 52.8121 14.1681L51.4722 17.0286C50.8924 18.2185 51.3325 18.9113 52.4321 18.9113H54.5914C54.0513 18.4494 53.4512 17.419 53.8914 16.1756L58.1296 5.62418Z" fill="#FFE47D"/>
<path d="M66.0266 2.39146H70.6839C71.3043 2.39146 71.8639 2.05375 72.1034 1.53852L72.4835 0.703613H62.248C62.9878 1.71604 62.9878 3.40388 62.9878 4.0786V12.8361C62.9878 13.5823 63.6676 14.1862 64.5072 14.1862H70.6839C71.3043 14.1862 71.8639 13.8485 72.1034 13.3333C72.1034 13.3333 72.3836 12.712 72.4437 12.4984C71.4643 12.4984 67.3057 12.4984 66.0266 12.4984V2.39146ZM68.3053 6.10346C67.706 6.10346 67.0263 6.42383 66.7859 6.93837L66.4067 7.7913H69.4447C70.0643 7.7913 70.7245 7.4536 70.9641 6.9564L71.3441 6.10346H68.3053Z" fill="#FFE47D"/>
<path d="M76.6402 6.1035C76.6402 5.35804 75.9604 4.75406 75.1208 4.75406H73.4219C73.6021 5.09107 73.7816 6.28171 73.7816 7.29414V12.8542C73.7816 13.6003 74.4613 14.2043 75.301 14.2043H77.0202C76.8204 13.8666 76.6402 12.6767 76.6402 11.6635V6.1035ZM75.0209 3.06621C75.9807 3.04818 76.4201 2.85333 77.4603 0.72168H76.001C75.0412 0.739016 74.5815 0.934567 73.5616 3.06621H75.0209Z" fill="#FFE47D"/>
<path d="M88.1562 11.6633V1.73392C88.1562 0.987779 87.4765 0.383789 86.6368 0.383789H84.9379C85.1174 0.721496 85.3172 1.89342 85.3172 2.90584V6.61854C84.7373 5.09089 83.598 4.59369 82.4586 4.59369C79.9997 4.59369 78.3008 6.77873 78.3008 9.479C78.3008 13.0135 79.9599 14.3636 81.6993 14.3636C83.598 14.3636 84.5781 13.3512 84.7373 12.1786C82.8387 13.191 81.139 12.854 81.139 9.479C81.139 6.10331 83.978 5.60611 85.3172 7.63097V12.854C85.3172 13.6001 85.9773 14.2041 86.817 14.2041H88.5362C88.3356 13.8664 88.1562 12.6765 88.1562 11.6633Z" fill="#FFE47D"/>
<path d="M14.7956 23.8083C14.5755 23.293 14.016 22.938 13.3956 22.938H11.2371L11.8364 24.3589L7.13853 35.515C6.95904 35.9588 7.31879 36.4206 7.83852 36.4206H9.79727C9.21823 35.9054 9.31812 35.3194 9.63807 34.5379C9.63807 34.5199 9.63807 34.5199 9.63807 34.5019L9.97754 33.7203L10.2577 33.0456H13.2957C13.7959 33.0456 14.2353 32.7793 14.4155 32.3702L14.7152 31.6955H10.8375L12.8961 26.8102L16.6146 35.5503C16.8542 36.0829 17.4137 36.4206 18.0341 36.4206H20.1927L14.7956 23.8083Z" fill="#FFE47D"/>
<path d="M23.9515 33.898V23.6309C23.9515 22.8848 23.2718 22.2808 22.4321 22.2808H20.7324C20.9127 22.6185 21.093 23.7911 21.093 24.8035V35.0887C21.093 35.8348 21.7727 36.4388 22.6116 36.4388H24.3307C24.131 36.1011 23.9515 34.9111 23.9515 33.898Z" fill="#FFE47D"/>
<path d="M27.6298 29.3154C26.7098 29.3335 26.2899 29.511 25.3105 31.5539H32.707C33.627 31.5358 34.0664 31.341 35.0458 29.3154H27.6298Z" fill="#FFE47D"/>
<path d="M43.0632 23.8083C42.8431 23.293 42.2836 22.938 41.6632 22.938H39.5046L40.104 24.3589L35.4061 35.515C35.2266 35.9588 35.5864 36.4206 36.1061 36.4206H38.0648C37.4858 35.9054 37.5857 35.3194 37.9057 34.5379C37.9057 34.5199 37.9057 34.5199 37.9057 34.5019L38.2451 33.7203L38.5253 33.0456H41.5633C42.0635 33.0456 42.5029 32.7793 42.6831 32.3702L42.9828 31.6955H39.1051L41.1637 26.8102L44.8822 35.5503C45.1218 36.0829 45.6813 36.4206 46.3017 36.4206H48.4603L43.0632 23.8083Z" fill="#FFE47D"/>
<path d="M58.8319 33.8982V23.9688C58.8319 23.2226 58.1522 22.6187 57.3125 22.6187H55.6137C55.7932 22.9564 55.9929 24.1283 55.9929 25.1407V28.8534C55.4131 27.3257 54.2738 26.8286 53.1344 26.8286C50.6754 26.8286 48.9766 29.0136 48.9766 31.7139C48.9766 35.2483 50.6356 36.5985 52.3751 36.5985C54.2738 36.5985 55.2539 35.5861 55.4131 34.4134C53.5145 35.4259 51.8148 35.0889 51.8148 31.7139C51.8148 28.3382 54.6538 27.841 55.9929 29.8658V35.0889C55.9929 35.835 56.6531 36.439 57.4928 36.439H59.212C59.0114 36.1013 58.8319 34.9113 58.8319 33.8982Z" fill="#FFE47D"/>
<path d="M70.6651 33.8982V31.0384C70.6651 28.5337 70.8454 26.8285 68.1866 26.8285C66.6868 26.8285 65.7277 27.6635 63.6487 29.3513V23.9688C63.6487 23.2226 62.969 22.6187 62.1293 22.6187H60.4297C60.61 22.9564 60.7902 24.1283 60.7902 25.1407V35.0889C60.7902 35.835 61.4691 36.439 62.3088 36.439H64.028C63.8282 36.1013 63.6487 34.9113 63.6487 33.8982V30.3637C65.9274 28.3382 67.8066 27.7522 67.8066 30.7902V35.0889C67.8066 35.835 68.4863 36.439 69.326 36.439H71.0452C70.8454 36.1013 70.6651 34.9113 70.6651 33.8982Z" fill="#FFE47D"/>
<path d="M80.8994 33.9158V30.8605C80.8791 28.1602 79.2801 26.8101 76.6214 26.8101C72.8428 26.8101 71.9438 29.1726 73.343 29.8654C73.343 29.0485 74.4824 28.3911 75.6818 28.3911C76.9414 28.3911 77.6406 28.889 77.9207 29.7766C75.1418 30.7363 72.0039 31.6246 72.0039 33.9158C72.0039 35.2659 73.123 36.616 74.8819 36.616C75.9417 36.616 77.3214 35.8165 77.5009 34.413C76.3014 35.2659 74.8421 35.017 74.8421 33.4005C74.8421 31.9443 76.701 30.9312 78.0409 30.4874C78.0604 30.6115 78.0604 30.7363 78.0604 30.8605V35.1057C78.0604 35.8519 78.7401 36.4559 79.5798 36.4559H81.2795C81.0992 36.1188 80.8994 34.9282 80.8994 33.9158Z" fill="#FFE47D"/>
</svg>
