<svg width="116" height="114" viewBox="0 0 116 114" fill="none" xmlns="http://www.w3.org/2000/svg">
<path d="M34.6416 33.5946C33.7955 33.5946 32.8707 33.1926 32.7561 33.1407C32.6735 33.1035 32.6016 33.0461 32.5472 32.9738C32.4927 32.9016 32.4574 32.8167 32.4445 32.727C32.2529 31.3957 32.5752 28.9149 33.0945 27.7179C33.7212 26.2782 35.176 24.9524 36.869 24.9676C37.3283 23.5351 37.8753 21.9683 38.8762 20.6881C39.8772 19.4078 41.6678 18.1616 43.7 18.4955C43.9933 18.5489 44.283 18.6201 44.5676 18.7086C44.8684 18.8067 45.1777 18.8762 45.4915 18.9163C46.5032 19.0059 47.4531 18.4311 48.4585 17.8205C48.7369 17.6513 49.0252 17.4767 49.3144 17.3173C50.976 16.4023 53.1597 16.2689 54.1194 17.7847C54.6933 18.6916 54.6101 19.945 53.8839 21.3139C53.0147 22.9504 51.4183 24.6264 49.8157 25.5799C49.7333 25.6284 49.6393 25.654 49.5436 25.654C49.4479 25.654 49.354 25.6284 49.2714 25.5799C49.2428 25.563 46.2901 23.895 44.342 25.5271C44.0734 25.75 43.7466 26.1538 43.3983 26.5871C42.4189 27.7975 41.2005 29.3052 39.6023 29.1056C39.3705 29.0806 38.8423 29.932 38.528 30.4422C37.7383 31.7189 36.7553 33.3072 34.9719 33.5695C34.8626 33.5861 34.7521 33.5945 34.6416 33.5946ZM33.4732 32.2722C33.8456 32.4065 34.4186 32.5677 34.8108 32.5095C36.099 32.3197 36.9013 31.0233 37.6094 29.88C38.2576 28.8334 38.8172 27.93 39.7313 28.0429C40.7367 28.1664 41.7474 26.9184 42.5595 25.9139C42.9418 25.4421 43.3025 24.9962 43.6481 24.7061C45.7852 22.9156 48.6035 24.0526 49.5149 24.4993C50.8579 23.6273 52.2009 22.1779 52.9314 20.8099C53.243 20.2235 53.6924 19.1249 53.208 18.3586C52.5733 17.3558 50.8499 17.697 49.8283 18.2582C49.5597 18.4069 49.2912 18.568 49.0118 18.7391C47.9026 19.4132 46.7548 20.1097 45.3913 19.9862C45.0091 19.9408 44.6323 19.8587 44.2659 19.7409C44.0217 19.6646 43.7733 19.6027 43.5219 19.5556C42.2291 19.3434 40.7367 20.048 39.7187 21.3461C38.7419 22.5995 38.2433 24.1707 37.7607 25.6946C37.722 25.8169 37.6408 25.9214 37.5317 25.989C37.4228 26.0567 37.2931 26.0831 37.1663 26.0634C35.8349 25.8575 34.5807 26.9802 34.0767 28.1414C33.6755 29.0787 33.3944 31.0725 33.4732 32.2722Z" fill="#041D36"/>
<path d="M54.8322 37.0491L51.9119 52.4293L26.8809 47.5954L30.218 39.6864C29.9284 39.3811 29.523 38.9537 28.9668 38.3672C25.6326 34.8517 26.5638 32.2594 31.8871 33.094C35.0665 34.3217 36.7527 33.6778 39.8136 29.1391H40.6479C42.2739 27.0019 43.385 25.8855 46.0713 24.3053L46.1566 24.3395C48.2658 25.1865 49.485 25.6762 51.0775 26.5027C56.5411 26.149 56.5839 29.3362 54.8322 37.0491Z" fill="#FF9D8E"/>
<path d="M52.2777 52.2349C52.2541 52.2357 52.2304 52.2342 52.207 52.2305C52.0659 52.2119 51.9379 52.1385 51.8511 52.0258C51.7643 51.9131 51.7258 51.77 51.7441 51.6292C52.1444 48.5646 53.0996 44.346 54.2044 39.4622C54.789 36.8811 55.3933 34.2122 55.9573 31.5174C56.3307 29.7385 56.0173 28.3571 55.0522 27.5217C54.1184 26.716 52.7647 26.6086 51.9107 26.9219C51.843 26.9467 51.771 26.9577 51.699 26.9542C51.627 26.9507 51.5565 26.9327 51.4917 26.9013L48.8058 25.6014C48.6786 25.5387 48.5814 25.4282 48.5353 25.2941C48.4892 25.16 48.498 25.013 48.5598 24.8854C48.6216 24.7578 48.7315 24.6598 48.8652 24.6128C48.999 24.5657 49.146 24.5736 49.274 24.6345L51.7647 25.8404C52.8847 25.519 54.5329 25.6533 55.7541 26.7088C56.6494 27.4797 57.5871 28.9784 57.0073 31.7376C56.4408 34.4405 55.8356 37.1094 55.251 39.6995C54.1972 44.3549 53.2017 48.7538 52.8077 51.7678C52.7908 51.8968 52.7278 52.0155 52.6304 52.1007C52.5329 52.1867 52.4076 52.2349 52.2777 52.2349ZM43.6006 28.5748C43.5022 28.5745 43.4058 28.5473 43.3219 28.4961C43.2379 28.4449 43.1696 28.3716 43.1244 28.2843C43.0793 28.1968 43.059 28.0987 43.0657 28.0006C43.0725 27.9025 43.1061 27.8082 43.1628 27.7278C43.6528 27.0368 44.3581 26.5277 45.1683 26.2801C45.3047 26.2388 45.4519 26.2533 45.5775 26.3206C45.7032 26.3878 45.797 26.5023 45.8384 26.6387C45.8797 26.7751 45.8651 26.9223 45.7979 27.048C45.7306 27.1736 45.6162 27.2675 45.4798 27.3088C44.8985 27.4862 44.3925 27.8515 44.0411 28.3474C43.9913 28.4178 43.9253 28.4753 43.8486 28.5148C43.772 28.5544 43.6869 28.575 43.6006 28.5748Z" fill="#041D36"/>
<path d="M48.0019 26.1305C47.881 26.1305 47.7636 26.0898 47.6687 26.0149C47.5738 25.9399 47.507 25.8352 47.479 25.7175C47.451 25.5998 47.4636 25.4762 47.5146 25.3666C47.5657 25.257 47.6522 25.1678 47.7602 25.1134L48.6922 24.638C48.7552 24.6063 48.8238 24.5872 48.8942 24.582C48.9646 24.5768 49.0353 24.5855 49.1023 24.6076C49.1694 24.6298 49.2313 24.6648 49.2848 24.7109C49.3382 24.757 49.3821 24.8131 49.4138 24.8762C49.4456 24.9392 49.4646 25.0078 49.4698 25.0782C49.475 25.1486 49.4663 25.2193 49.4442 25.2863C49.4221 25.3533 49.387 25.4153 49.3409 25.4687C49.2948 25.5222 49.2387 25.566 49.1757 25.5977L48.2445 26.0696C48.1696 26.1087 48.0865 26.1295 48.0019 26.1305ZM48.4926 35.4129C47.4281 35.4215 46.3999 35.0264 45.6151 34.3071C45.5606 34.2597 45.5162 34.2018 45.4846 34.1367C45.453 34.0718 45.4349 34.0011 45.4313 33.9289C45.4276 33.8568 45.4386 33.7846 45.4635 33.7167C45.4883 33.6489 45.5268 33.5868 45.5762 33.5342C45.6257 33.4814 45.6853 33.4393 45.7514 33.4102C45.8176 33.3811 45.8889 33.3656 45.9612 33.3648C46.0334 33.3639 46.1051 33.3776 46.172 33.4051C46.2388 33.4325 46.2993 33.4732 46.3501 33.5247C47.403 34.5095 49.1972 34.6097 50.3494 33.7395C50.4631 33.6537 50.6063 33.6165 50.7474 33.6363C50.8886 33.656 51.016 33.731 51.1019 33.8448C51.1877 33.9585 51.2248 34.1017 51.2051 34.2428C51.1854 34.3839 51.1104 34.5114 50.9967 34.5972C50.2726 35.1336 49.3937 35.4198 48.4926 35.4129ZM26.9662 47.5637C26.8763 47.5636 26.7877 47.541 26.7088 47.4978C26.6298 47.4546 26.563 47.3923 26.5144 47.3165C26.4659 47.2407 26.4371 47.154 26.4308 47.0643C26.4245 46.9745 26.4408 46.8845 26.4783 46.8027C27.5697 44.4159 28.5563 41.9467 29.4122 39.4659C29.5375 39.1033 29.6369 38.7389 29.5196 38.5303C29.4301 38.3655 29.1723 38.2474 28.9036 38.1229L28.7685 38.0593C27.934 37.6609 27.2814 37.0996 26.8884 36.438C26.4757 35.7513 26.2008 34.6966 26.669 33.7969C27.2698 32.642 28.4184 31.9392 29.9896 31.7628C31.2431 31.6231 32.5009 31.8603 33.1921 32.1576C33.2606 32.1828 33.3233 32.2217 33.3763 32.272C33.4293 32.3223 33.4715 32.3828 33.5003 32.4499C33.5291 32.517 33.5439 32.5893 33.5438 32.6624C33.5437 32.7354 33.5287 32.8077 33.4998 32.8747C33.4708 32.9417 33.4285 33.0022 33.3754 33.0524C33.3223 33.1025 33.2595 33.1413 33.1909 33.1663C33.1223 33.1914 33.0493 33.2022 32.9764 33.1981C32.9035 33.194 32.8322 33.175 32.7668 33.1425C31.7095 32.6876 28.6261 32.3608 27.6216 34.2911C27.4049 34.7083 27.4783 35.3323 27.8087 35.8829C28.174 36.4899 28.7864 36.8731 29.2358 37.0879L29.3612 37.1462C29.7336 37.3199 30.1973 37.5356 30.4596 38.0011C30.8303 38.6592 30.5716 39.4103 30.4319 39.8141C29.5653 42.3281 28.5652 44.8277 27.4596 47.245C27.4172 47.3403 27.3479 47.4211 27.2603 47.4778C27.1727 47.5343 27.0705 47.5642 26.9662 47.5637Z" fill="#041D36"/>
<path d="M49.4352 27.9531C49.2964 27.9537 49.1595 27.9212 49.0359 27.858C48.9124 27.7949 48.8058 27.703 48.7251 27.5901C48.6444 27.4772 48.5919 27.3466 48.5721 27.2093C48.5523 27.0719 48.5658 26.9318 48.6114 26.8007C48.657 26.6696 48.7333 26.5514 48.834 26.4559C48.9347 26.3604 49.0569 26.2905 49.1902 26.252C49.3235 26.2136 49.4641 26.2076 49.6002 26.2347C49.7364 26.2618 49.864 26.3212 49.9724 26.4078C50.0619 26.4785 50.1364 26.5664 50.1915 26.6664C50.2465 26.7663 50.281 26.8763 50.2929 26.9897C50.3062 27.111 50.2939 27.2337 50.2566 27.3498C50.2194 27.466 50.1581 27.5729 50.0768 27.6638C49.9954 27.7547 49.8959 27.8274 49.7846 27.8772C49.6733 27.9271 49.5526 27.9529 49.4307 27.9531H49.4352ZM49.4352 26.8787H49.4128C49.3787 26.8816 49.3458 26.8929 49.317 26.9116C49.2883 26.9303 49.2647 26.9559 49.2483 26.986C49.232 27.0161 49.2234 27.0498 49.2232 27.0841C49.2231 27.1184 49.2314 27.1521 49.2476 27.1823C49.2638 27.2126 49.2872 27.2383 49.3158 27.2572C49.3444 27.2761 49.3772 27.2877 49.4113 27.2908C49.4455 27.2939 49.4798 27.2884 49.5113 27.275C49.5429 27.2615 49.5705 27.2404 49.5919 27.2136C49.6259 27.1706 49.642 27.116 49.6366 27.0613C49.6308 27.0117 49.6072 26.9658 49.5701 26.9323C49.5331 26.8987 49.4852 26.8797 49.4352 26.8787ZM45.717 29.133C45.8995 29.133 46.0474 28.985 46.0474 28.8026C46.0474 28.6201 45.8995 28.4722 45.717 28.4722C45.5346 28.4722 45.3867 28.6201 45.3867 28.8026C45.3867 28.985 45.5346 29.133 45.717 29.133Z" fill="#041D36"/>
<path d="M45.9838 29.4496C45.7762 29.4496 45.5759 29.3708 45.4214 29.2284C45.2668 29.0859 45.1689 28.89 45.1463 28.6779C45.1279 28.5074 45.1591 28.3351 45.236 28.1827C45.3128 28.0304 45.432 27.9049 45.5783 27.8221C45.7245 27.7394 45.8915 27.703 46.0579 27.7177C46.2242 27.7323 46.3826 27.7974 46.5131 27.9047C46.6435 28.0118 46.74 28.1563 46.7905 28.3199C46.841 28.4834 46.8431 28.6587 46.7966 28.8235C46.7501 28.9884 46.6571 29.1352 46.5294 29.2458C46.4016 29.3563 46.2448 29.4254 46.0788 29.4443C46.0472 29.4478 46.0155 29.4496 45.9838 29.4496ZM45.7851 28.6054C45.7914 28.6595 45.818 28.709 45.8592 28.7432C45.9011 28.7772 45.9542 28.7933 46.0073 28.788C46.0597 28.7811 46.1074 28.7532 46.1399 28.7105C46.1726 28.6678 46.1875 28.6137 46.1816 28.5597L45.7851 28.6054ZM45.9846 28.3753H45.9629C45.9104 28.3822 45.8628 28.4101 45.8303 28.4528C45.7976 28.4955 45.7827 28.5496 45.7886 28.6036L46.1886 28.5579C46.1832 28.5072 46.1598 28.4603 46.1228 28.4263C46.0857 28.3922 46.0378 28.3735 45.9882 28.3735L45.9846 28.3753ZM23.5378 88.5879C23.4099 88.5879 23.2866 88.5397 23.191 88.4522C23.0955 88.3647 23.0344 88.2446 23.0193 88.1141C22.981 87.7856 22.703 87.5565 22.4546 87.452C22.2062 87.3474 21.8525 87.3096 21.6006 87.5165C21.5124 87.5884 21.4039 87.6292 21.2913 87.6329C21.1786 87.6366 21.0679 87.6025 20.9754 87.5365C20.883 87.4698 20.814 87.3749 20.7785 87.2651C20.7432 87.1547 20.7432 87.036 20.7789 86.9263C22.2228 82.4717 21.3174 77.2185 18.4714 73.5446C18.4286 73.489 18.3968 73.4259 18.3778 73.3585C18.3588 73.2903 18.353 73.2191 18.3607 73.1494C18.3685 73.0789 18.3895 73.0115 18.4228 72.9492C18.4561 72.8876 18.5008 72.8335 18.5546 72.789C18.6083 72.7453 18.6699 72.7127 18.7359 72.6934C18.802 72.6734 18.871 72.6674 18.9393 72.6756C19.0076 72.6837 19.0736 72.7052 19.1337 72.7394C19.1939 72.7735 19.2468 72.8194 19.2896 72.875C20.7113 74.7494 21.6987 76.9323 22.1769 79.2575C22.655 81.5827 22.6115 83.9887 22.0494 86.2946C22.3248 86.2938 22.5975 86.3494 22.852 86.4584C23.5186 86.7395 23.9848 87.3259 24.058 87.9873C24.0662 88.057 24.0608 88.1282 24.0422 88.1964C24.0237 88.2646 23.9922 88.3277 23.9497 88.3833C23.9072 88.4389 23.8545 88.4848 23.7946 88.5197C23.7347 88.5538 23.6687 88.576 23.6005 88.5842C23.5796 88.5864 23.5587 88.5879 23.5378 88.5879Z" fill="#041D36"/>
<path d="M31.9202 35.5463C31.7882 35.5467 31.6607 35.4986 31.562 35.4111C31.3043 35.1924 30.99 35.0512 30.6554 35.0036C30.3208 34.9561 29.9796 35.0042 29.6712 35.1425C29.5427 35.2043 29.3949 35.2126 29.2603 35.1656C29.1258 35.1185 29.0154 35.0198 28.9536 34.8914C28.8918 34.7629 28.8835 34.6151 28.9306 34.4805C28.9776 34.346 29.0762 34.2356 29.2047 34.1738C29.704 33.9434 30.2589 33.8614 30.8035 33.9377C31.348 34.0141 31.859 34.2455 32.2755 34.6044C32.3569 34.6769 32.4143 34.7724 32.4401 34.8783C32.4659 34.9841 32.459 35.0953 32.4201 35.1971C32.3813 35.2989 32.3124 35.3864 32.2226 35.4481C32.1328 35.5099 32.0264 35.5428 31.9174 35.5427L31.9202 35.5463ZM39.6671 28.5764C41.5024 28.8038 42.9429 26.0007 43.9957 25.1188C46.2635 23.2181 49.5394 25.1188 49.5394 25.1188C51.0533 24.2173 52.5834 22.6192 53.4079 21.0623C53.9004 20.1357 54.2253 18.9592 53.664 18.0729C52.8582 16.7962 50.8949 17.0603 49.5716 17.7891C48.2483 18.5178 46.9458 19.5886 45.4416 19.4516C44.815 19.3953 44.2303 19.1284 43.6108 19.0264C41.9706 18.7578 40.3215 19.7095 39.2982 21.0193C38.2748 22.3291 37.7529 23.9522 37.2507 25.5369C35.6982 25.2961 34.2112 26.4913 33.5854 27.9318C33.0965 29.0599 32.7984 31.4235 32.9738 32.6517C32.9738 32.6517 34.102 33.1576 34.8907 33.0412C37.5963 32.6437 38.342 28.4117 39.6671 28.5764Z" fill="#041D36"/>
<g opacity="0.2">
<path d="M42.2197 32.824C43.0884 32.4304 43.6148 31.7185 43.3953 31.2339C43.1758 30.7493 42.2935 30.6754 41.4246 31.069C40.5559 31.4625 40.0295 32.1745 40.2491 32.6591C40.4685 33.1437 41.3509 33.2176 42.2197 32.824Z" fill="#007FFE"/>
<path d="M41.1441 33.6118C40.4996 33.6118 39.9802 33.3575 39.7609 32.8767C39.4073 32.097 40.0295 31.1076 41.2032 30.575C42.3769 30.0422 43.531 30.2285 43.8846 31.0083C44.2383 31.7881 43.616 32.7765 42.4423 33.3092C42.0357 33.5003 41.5933 33.6034 41.1441 33.6118ZM42.4987 31.3503C42.2033 31.3574 41.9128 31.4273 41.6464 31.5553C40.9114 31.8884 40.7046 32.3611 40.7395 32.4353C40.7744 32.5096 41.2632 32.6654 41.9991 32.3324C42.735 31.9994 42.941 31.5266 42.9061 31.4532C42.8881 31.4103 42.7413 31.3503 42.4987 31.3503Z" fill="#007FFE"/>
</g>
<path d="M34.5517 33.9156C33.7057 33.9156 32.7808 33.5136 32.6662 33.4617C32.5836 33.4246 32.5118 33.3672 32.4573 33.2949C32.4028 33.2226 32.3676 33.1377 32.3547 33.0481C32.1631 31.7168 32.4854 29.236 33.0046 28.039C33.6314 26.5993 35.0862 25.2734 36.7792 25.2886C37.2384 23.8561 37.7855 22.2894 38.7864 21.0091C39.7873 19.7288 41.5779 18.4826 43.6102 18.8166C43.9034 18.8699 44.1932 18.9411 44.4778 19.0296C44.7786 19.1277 45.0879 19.1972 45.4017 19.2373C46.4134 19.3269 47.3633 18.7521 48.3687 18.1415C48.6471 17.9723 48.9354 17.7977 49.2245 17.6384C50.8862 16.7234 53.0699 16.59 54.0296 18.1057C54.6035 19.0127 54.5202 20.266 53.7941 21.635C52.9248 23.2715 51.3285 24.9475 49.7259 25.901C49.6435 25.9495 49.5494 25.975 49.4538 25.975C49.3581 25.975 49.2641 25.9495 49.1816 25.901C49.153 25.884 46.2003 24.216 44.2521 25.8482C43.9836 26.0711 43.6568 26.4749 43.3085 26.9082C42.329 28.1186 41.1106 29.6263 39.5125 29.4267C39.2806 29.4016 38.7524 30.253 38.4381 30.7633C37.6485 32.04 36.6655 33.6282 34.882 33.8906C34.7727 33.9072 34.6623 33.9156 34.5517 33.9156ZM33.3833 32.5932C33.7558 32.7275 34.3288 32.8887 34.7209 32.8305C36.0092 32.6407 36.8114 31.3443 37.5196 30.201C38.1678 29.1545 38.7274 28.2511 39.6414 28.3639C40.6468 28.4875 41.6576 27.2394 42.4696 26.2349C42.8519 25.7631 43.2127 25.3172 43.5583 25.0272C45.6954 23.2366 48.5137 24.3737 49.4251 24.8204C50.768 23.9484 52.111 22.4989 52.8416 21.1309C53.1531 20.5445 53.6025 19.446 53.1182 18.6796C52.4834 17.6769 50.76 18.018 49.7384 18.5793C49.4699 18.728 49.2013 18.8891 48.9219 19.0601C47.8127 19.7342 46.665 20.4308 45.3014 20.3072C44.9193 20.2619 44.5424 20.1797 44.1761 20.0619C43.9319 19.9857 43.6834 19.9238 43.4321 19.8766C42.1393 19.6644 40.6468 20.369 39.6289 21.6671C38.6521 22.9206 38.1535 24.4918 37.6709 26.0156C37.6322 26.1379 37.551 26.2424 37.4419 26.31C37.3329 26.3777 37.2032 26.4041 37.0764 26.3845C35.7451 26.1785 34.4909 27.3012 33.9868 28.4624C33.5857 29.3997 33.3046 31.3936 33.3833 32.5932Z" fill="#041D36"/>
<path d="M40.505 25.5262C40.4646 25.5262 40.4244 25.5217 40.385 25.5128C40.3162 25.4972 40.2511 25.4681 40.1935 25.4272C40.1358 25.3865 40.0868 25.3346 40.0492 25.2749C40.0117 25.215 39.9862 25.1485 39.9744 25.0788C39.9626 25.0092 39.9646 24.938 39.9804 24.8691C40.1684 24.0445 40.522 22.8565 41.4128 22.074C42.275 21.3175 43.7916 21.0516 44.737 21.9406C44.8379 22.0389 44.8962 22.1729 44.8992 22.3137C44.9023 22.4545 44.85 22.5908 44.7535 22.6934C44.657 22.7961 44.5241 22.8566 44.3834 22.8622C44.2427 22.8677 44.1054 22.8178 44.0011 22.7231C43.5176 22.2692 42.6224 22.4419 42.121 22.8815C41.6196 23.3212 41.2758 24.0132 41.026 25.1081C40.9992 25.2264 40.9331 25.3321 40.8384 25.408C40.7438 25.484 40.6263 25.5256 40.505 25.5262ZM50.5206 22.5123C50.4271 22.5122 50.3353 22.4875 50.2541 22.441C50.173 22.3944 50.1056 22.3275 50.0582 22.2469C50.0109 22.1662 49.9855 22.0746 49.9845 21.9811C49.9834 21.8876 50.0069 21.7954 50.0524 21.7137C50.1876 21.4702 50.3281 21.2177 50.3496 20.9894C50.3648 20.8345 50.2994 20.702 50.2475 20.6788C50.1285 20.625 49.8169 20.8873 49.5599 21.3493C49.4907 21.4739 49.3749 21.5658 49.2379 21.6049C49.1009 21.6441 48.9539 21.6272 48.8294 21.5579C48.7049 21.4887 48.6129 21.3728 48.5738 21.2358C48.5346 21.0989 48.5515 20.9519 48.6208 20.8274C49.1848 19.8112 49.978 19.3788 50.6898 19.7002C51.184 19.9232 51.4777 20.4818 51.4195 21.0906C51.3765 21.5445 51.1625 21.9286 50.9906 22.2366C50.944 22.3203 50.8758 22.39 50.7932 22.4385C50.7105 22.4869 50.6164 22.5125 50.5206 22.5123Z" fill="white"/>
<path d="M28.5833 33.0695C28.4769 33.0704 28.3726 33.0393 28.2843 32.98C26.2526 31.6081 24.4959 29.8678 23.105 27.8491C22.7075 27.2699 22.216 26.397 22.5374 25.5214C22.8248 24.7353 23.584 24.379 24.2734 24.1069L29.7937 21.9232C32.8153 20.7209 37.187 19.3099 40.8577 19.369C41.0002 19.37 41.1364 19.4276 41.2363 19.5291C41.3363 19.6306 41.3919 19.7677 41.3908 19.9102C41.3897 20.0526 41.3321 20.1888 41.2306 20.2888C41.1291 20.3888 40.9921 20.4444 40.8496 20.4433H40.8416C37.3499 20.3896 33.1197 21.7602 30.1876 22.9188L24.6682 25.1024C24.1955 25.2886 23.6833 25.5187 23.5446 25.8875C23.43 26.2 23.5714 26.6297 23.9922 27.2394C25.3053 29.1481 26.9646 30.7938 28.8841 32.091C28.9806 32.155 29.0537 32.2484 29.0928 32.3573C29.1319 32.4663 29.1347 32.5849 29.1009 32.6956C29.0671 32.8062 28.9984 32.9031 28.9052 32.9716C28.8119 33.0401 28.699 33.0767 28.5833 33.0758V33.0695Z" fill="#041D36"/>
<path d="M36.1526 75.7026C35.1257 75.7026 34.0988 75.3727 33.1758 75.0123C30.3569 73.912 27.7088 72.4165 25.3116 70.5703C25.1281 70.4287 24.8505 70.2121 24.6965 69.8822C24.333 69.0948 24.9051 68.2822 25.0931 68.0152C26.566 65.934 28.4156 64.1471 30.5463 62.7472C31.2071 62.3149 32.2 61.7804 33.1803 62.1207C34.0469 62.4254 34.4892 63.2336 34.8383 64.0625C35.1696 64.8515 35.4794 65.6581 35.7578 66.4604C36.2636 67.9136 36.6863 69.3951 37.0238 70.8965C37.1133 71.3013 37.1777 71.721 37.2386 72.1273C37.3765 73.0549 37.5072 73.9313 37.945 74.6267C37.9867 74.6935 38.0134 74.7684 38.0232 74.8462C38.0329 74.9241 38.0255 75.0027 38.0015 75.0776C37.9774 75.1524 37.9372 75.2207 37.8839 75.2785C37.8305 75.3356 37.7652 75.3808 37.6925 75.4105C37.2031 75.607 36.68 75.7063 36.1526 75.7026ZM32.5142 63.0868C32.1561 63.0868 31.7138 63.2655 31.1346 63.6466C29.1168 64.9716 27.3654 66.6628 25.9714 68.6336C25.6383 69.1074 25.6249 69.3283 25.6724 69.4307C25.7198 69.533 25.8613 69.6368 25.967 69.7191C28.2835 71.5045 30.8421 72.9518 33.5662 74.0165C34.5662 74.4058 35.6943 74.7595 36.714 74.5852C36.4087 73.8549 36.2905 73.063 36.1768 72.2927C36.1159 71.8886 36.0595 71.5052 35.9771 71.139C35.6482 69.6776 35.2366 68.2354 34.7443 66.82C34.4758 66.0393 34.1713 65.2541 33.849 64.4859C33.5957 63.8861 33.2975 63.307 32.8258 63.1431C32.7259 63.1068 32.6205 63.0875 32.5142 63.0868Z" fill="#007FFE"/>
<path d="M37.1154 75.3558C37.0032 75.3558 36.8939 75.321 36.8026 75.2557C36.7114 75.1905 36.6429 75.0986 36.6066 74.9925C36.5704 74.8865 36.5683 74.7716 36.6006 74.6641C36.6329 74.5566 36.6981 74.4624 36.7868 74.3934C39.5897 72.2306 42.1826 69.809 44.5311 67.1598C44.6098 67.0701 44.8211 66.8314 44.8112 66.712C44.8059 66.6512 44.7343 66.5333 44.4236 66.3279C43.1209 65.4552 41.6682 64.8309 40.1388 64.4854C39.7914 64.4068 39.4368 64.3505 39.1951 64.4684C38.8961 64.6144 38.726 65.0437 38.5872 65.4871C38.0241 67.2851 37.3553 69.8884 37.17 71.8043C37.1632 71.8747 37.1427 71.9429 37.1096 72.0052C37.0764 72.0675 37.0313 72.1224 36.9769 72.1676C36.9224 72.2128 36.8597 72.2462 36.7922 72.267C36.7247 72.2877 36.6538 72.2944 36.5836 72.2877C36.5133 72.281 36.4451 72.2603 36.3828 72.2277C36.3204 72.1943 36.2653 72.1491 36.2204 72.0949C36.1755 72.0401 36.1418 71.9778 36.1211 71.9103C36.1005 71.8428 36.0933 71.7717 36.1002 71.7012C36.3436 69.1862 37.281 66.061 37.5622 65.1661C37.6938 64.7449 37.9677 63.8715 38.726 63.5023C39.2685 63.2339 39.8657 63.3236 40.3787 63.437C42.0365 63.8114 43.6111 64.4884 45.0235 65.4337C45.2643 65.5946 45.8292 65.9705 45.8838 66.6186C45.934 67.1962 45.5463 67.6351 45.3377 67.8724C42.9438 70.5727 40.3006 73.041 37.4431 75.2446C37.3494 75.3173 37.234 75.3566 37.1154 75.3558Z" fill="#007FFE"/>
<path d="M55.6772 63.7634C55.5842 63.7634 55.4927 63.739 55.4119 63.693C55.331 63.647 55.2635 63.5803 55.216 63.5002C55.1685 63.4201 55.1427 63.3289 55.141 63.2363C55.1393 63.1428 55.1618 63.0509 55.2063 62.9693C55.9467 61.6103 55.8993 60.0147 55.8483 58.3212C55.8116 57.0755 55.773 55.7876 56.0604 54.5472C56.2192 53.9259 56.4199 53.3156 56.6612 52.721C56.8552 52.2376 57.0242 51.7438 57.1681 51.2433C57.2222 51.0779 57.2444 50.9044 57.2341 50.7317C57.2022 50.5248 57.0272 50.3009 56.7158 50.0673C56.0348 49.5602 55.2088 49.2844 54.3594 49.2814C54.2169 49.2814 54.0803 49.225 53.9795 49.1242C53.8788 49.0234 53.8223 48.8866 53.8223 48.7441C53.8223 48.6017 53.8788 48.4651 53.9795 48.3644C54.0803 48.2636 54.2169 48.207 54.3594 48.207C55.4385 48.2116 56.4877 48.5617 57.3534 49.2058C57.8977 49.6143 58.2128 50.0718 58.2899 50.5663C58.327 50.8866 58.2966 51.2107 58.2002 51.5184C58.0482 52.0552 57.8687 52.5838 57.6634 53.1021C57.4387 53.6515 57.2526 54.215 57.1043 54.7889C56.8485 55.8937 56.8848 57.1104 56.9197 58.2878C56.9731 60.048 57.0264 61.869 56.1473 63.4809C56.1016 63.5655 56.0338 63.6366 55.9511 63.6863C55.8684 63.7367 55.7738 63.7627 55.6772 63.7634Z" fill="#041D36"/>
<path d="M71.9677 77.8766C71.8327 77.8774 71.7022 77.827 71.6029 77.735C71.5028 77.6438 71.442 77.5185 71.4309 77.3836C71.2166 74.8085 70.1926 72.3669 68.5051 70.4102C67.8778 69.694 67.146 69.0163 66.435 68.3645C65.0922 67.1308 63.7005 65.8577 62.8886 64.1449C62.6528 63.623 62.4489 63.0869 62.2769 62.5397C62.1153 62.0207 61.9217 61.5128 61.6971 61.0175C60.7317 59.0141 58.5911 57.5987 56.3701 57.4949C56.2996 57.4912 56.2304 57.4741 56.1664 57.4444C56.1025 57.414 56.0452 57.3718 55.9976 57.3199C55.9501 57.2672 55.9133 57.2064 55.8894 57.1397C55.8653 57.0737 55.8547 57.0033 55.858 56.9328C55.8613 56.8617 55.8785 56.7927 55.9085 56.7289C55.9385 56.6652 55.9809 56.6073 56.0331 56.5599C56.0853 56.5124 56.1464 56.4754 56.2128 56.4516C56.2792 56.4279 56.3497 56.4168 56.4202 56.4205C59.0234 56.5421 61.5332 58.2022 62.6647 60.5504C62.9079 61.085 63.1177 61.6344 63.2919 62.1949C63.4506 62.7013 63.6389 63.1981 63.8555 63.6823C64.5769 65.2037 65.8307 66.3515 67.1586 67.5697C67.8904 68.2415 68.6482 68.9362 69.3125 69.7036C71.1499 71.8323 72.2665 74.4882 72.5008 77.2901C72.5119 77.4325 72.4667 77.5734 72.374 77.6816C72.282 77.7899 72.1501 77.8574 72.0085 77.8685C71.9951 77.8722 71.9818 77.8751 71.9677 77.8766Z" fill="#041D36"/>
<path d="M70.1741 80.851C70.14 80.851 70.1059 80.8481 70.0718 80.8421C69.9324 80.8154 69.8093 80.7339 69.73 80.6167C69.6499 80.4988 69.6195 80.355 69.6462 80.2156C69.7833 79.5149 70.0703 78.8521 70.487 78.2723C70.9037 77.6932 71.4405 77.2098 72.0603 76.8561C72.1219 76.819 72.1901 76.7953 72.2613 76.7849C72.3324 76.7745 72.4051 76.779 72.4741 76.7975C72.5438 76.816 72.6083 76.8479 72.6654 76.8917C72.7225 76.9354 72.7699 76.9903 72.8048 77.0533C72.8403 77.1156 72.8626 77.1846 72.8708 77.2557C72.8789 77.3269 72.8722 77.3996 72.8522 77.4685C72.8322 77.5367 72.7981 77.6012 72.7529 77.6568C72.7076 77.7125 72.6513 77.7584 72.5875 77.7918C72.1041 78.0684 71.6852 78.4458 71.3604 78.898C71.0349 79.3511 70.811 79.8679 70.7035 80.4151C70.6798 80.5381 70.6138 80.6486 70.5174 80.7279C70.421 80.808 70.2994 80.851 70.1741 80.851ZM90.8613 63.1066C86.2955 63.1066 80.0717 62.5209 76.1902 60.8741C76.1198 60.8511 76.0545 60.814 75.9989 60.7644C75.9433 60.7147 75.8988 60.6539 75.8677 60.5857C75.8373 60.5182 75.8202 60.4448 75.8195 60.3699C75.8188 60.2958 75.8336 60.2216 75.8625 60.1534C75.8914 60.0844 75.9344 60.0229 75.9893 59.9717C76.0434 59.9213 76.1079 59.882 76.1776 59.8568C76.2481 59.8324 76.3229 59.8227 76.3971 59.8279C76.4712 59.8338 76.5439 59.8546 76.6091 59.8894C80.3416 61.4724 86.406 62.0382 90.8606 62.0382C90.8814 62.0404 90.9021 62.0404 90.9236 62.0382C91.066 62.0382 91.2024 62.0945 91.3032 62.1954C91.4041 62.2962 91.4604 62.4326 91.4604 62.5757C91.4604 62.7181 91.4041 62.8545 91.3032 62.9553C91.2024 63.0562 91.066 63.1125 90.9236 63.1125L90.8613 63.1066Z" fill="#041D36"/>
<path d="M83.4975 103.608C83.1156 103.608 82.7923 103.43 82.5477 103.287L82.4795 103.249C81.0321 102.443 79.2193 102.508 77.4658 102.576C77.2233 102.584 76.9809 102.593 76.7406 102.6C71.9805 102.73 67.2478 101.834 62.8636 99.9723C62.7939 99.9494 62.7287 99.9108 62.6738 99.8611C62.6189 99.8115 62.5752 99.7506 62.5448 99.6832C62.5144 99.6157 62.4988 99.5423 62.4981 99.4682C62.4973 99.394 62.5122 99.3206 62.5411 99.2524C62.57 99.1842 62.613 99.1226 62.6671 99.0722C62.7212 99.0211 62.785 98.9825 62.8547 98.9573C62.9251 98.9328 62.9993 98.9224 63.0727 98.9276C63.1468 98.9328 63.2188 98.9536 63.2848 98.9877C67.5273 100.789 72.1073 101.655 76.7139 101.529C76.9505 101.523 77.1892 101.515 77.4302 101.504C79.332 101.433 81.2991 101.359 83.0089 102.31L83.083 102.352C83.235 102.441 83.4263 102.547 83.519 102.53C83.6435 102.513 83.8334 102.231 83.9053 102.124C87.5191 96.7611 91.256 91.2165 93.0229 84.8957C94.6341 79.1279 94.6608 72.4304 93.1037 64.4219C93.0147 63.943 92.8694 63.2186 93.2483 62.6039C93.4381 62.2969 93.7058 62.1019 93.9408 61.9307C93.9883 61.8958 94.0357 61.8617 94.0817 61.8261C95.2458 60.9401 95.7159 59.2459 95.1805 57.8868C95.1279 57.7541 95.1309 57.6065 95.1872 57.476C95.2443 57.3448 95.3503 57.2425 95.483 57.1898C95.6158 57.1379 95.764 57.1402 95.8945 57.1972C96.025 57.2543 96.1281 57.3604 96.18 57.4931C96.8851 59.2837 96.2638 61.5147 94.7334 62.6855C94.6808 62.7263 94.6267 62.7656 94.5733 62.8048C94.4027 62.9294 94.2411 63.0466 94.1633 63.1733C94.0164 63.4106 94.0735 63.8051 94.1633 64.2218C95.7522 72.3985 95.7188 79.2577 94.0617 85.1908C92.2488 91.6777 88.463 97.2964 84.8009 102.73C84.6171 103.004 84.273 103.514 83.6769 103.6C83.6176 103.607 83.5575 103.61 83.4975 103.608Z" fill="#041D36"/>
<path d="M79.2895 51.705C79.2895 51.705 74.6785 51.9393 76.8628 53.2168C77.8052 53.7684 79.2918 53.933 79.2918 53.933L79.2895 51.705Z" fill="#041D36"/>
<path d="M44.4721 93.1569C44.3307 93.1569 44.195 93.1006 44.0945 93.0012C43.9939 92.9019 43.9366 92.7669 43.9349 92.626C43.9349 92.5208 43.9502 91.5672 44.8697 90.2831C45.1866 89.8352 45.559 89.8819 45.7049 89.9249C45.9118 89.9798 46.4615 90.1266 46.6763 92.2694C46.6899 92.4043 46.6521 92.5393 46.5704 92.6475C46.4887 92.7551 46.3693 92.8285 46.2359 92.8522L44.567 93.1503C44.5357 93.1554 44.5039 93.1577 44.4721 93.1569ZM45.4436 91.3774C45.3396 91.5606 45.2498 91.7504 45.1749 91.9469L45.5429 91.8816C45.5124 91.7015 45.4784 91.5287 45.4436 91.3774ZM45.8196 107.866C45.8196 107.866 44.4095 109.951 44.3154 109.581C44.0711 108.617 43.8535 107.596 43.8535 107.596L45.8196 107.866Z" fill="#041D36"/>
<path d="M44.3744 110.161C44.336 110.16 44.2977 110.157 44.2598 110.15C44.1475 110.13 44.0435 110.079 43.9605 110C43.8776 109.921 43.8195 109.821 43.7934 109.71C43.548 108.746 43.3278 107.714 43.3261 107.704C43.308 107.62 43.3105 107.532 43.3334 107.449C43.3564 107.366 43.399 107.289 43.4578 107.226C43.5165 107.163 43.5897 107.115 43.6711 107.086C43.7524 107.056 43.8394 107.047 43.925 107.059L45.8946 107.328C45.985 107.341 46.0707 107.376 46.1436 107.431C46.2165 107.486 46.2743 107.558 46.3114 107.641C46.3487 107.724 46.364 107.816 46.3561 107.907C46.3481 107.998 46.3172 108.086 46.2661 108.161C46.2536 108.18 45.9501 108.628 45.6099 109.078C44.9957 109.892 44.6994 110.161 44.3744 110.161ZM44.5427 108.23C44.5687 108.344 44.5973 108.466 44.6269 108.594C44.7048 108.495 44.7854 108.387 44.8686 108.275L44.5427 108.23ZM19.0933 28.1883C18.5051 28.1883 17.9301 28.0138 17.4409 27.6871C16.9519 27.3602 16.5706 26.8957 16.3455 26.3523C16.1204 25.8088 16.0615 25.2108 16.1763 24.6339C16.2911 24.057 16.5743 23.527 16.9903 23.1111C17.4062 22.6952 17.9361 22.4119 18.5131 22.2972C19.09 22.1824 19.688 22.2413 20.2315 22.4664C20.7749 22.6915 21.2394 23.0727 21.5662 23.5618C21.893 24.0509 22.0674 24.6259 22.0674 25.2141C22.0665 26.0026 21.7528 26.7585 21.1953 27.3161C20.6377 27.8737 19.8818 28.1873 19.0933 28.1883ZM19.0933 23.3144C18.7176 23.3144 18.3502 23.4257 18.0378 23.6345C17.7254 23.8432 17.4819 24.14 17.3381 24.4871C17.1943 24.8343 17.1567 25.2163 17.23 25.5848C17.3033 25.9533 17.4842 26.2918 17.75 26.5575C18.0156 26.8232 18.3541 27.0041 18.7227 27.0774C19.0912 27.1507 19.4732 27.1131 19.8203 26.9693C20.1675 26.8255 20.4642 26.582 20.6729 26.2696C20.8816 25.9572 20.9931 25.5899 20.9931 25.2141C20.9917 24.711 20.791 24.229 20.4348 23.8736C20.0788 23.5182 19.5964 23.3184 19.0933 23.3179V23.3144Z" fill="#041D36"/>
<path d="M38.1637 75.162L39.8218 90.3069L38.683 91.4257L37.3929 90.3069L35.6855 75.4022L38.1637 75.162Z" fill="#007FFE"/>
<path d="M49.3519 27.7381C49.5343 27.7381 49.6823 27.5903 49.6823 27.4078C49.6823 27.2253 49.5343 27.0774 49.3519 27.0774C49.1694 27.0774 49.0215 27.2253 49.0215 27.4078C49.0215 27.5903 49.1694 27.7381 49.3519 27.7381Z" fill="#041D36"/>
<path d="M45.4233 110.383L38.6054 108.252C28.4948 111.141 19.1023 111.914 5.79398 109.104L5.36785 106.974C0.0732397 88.9265 -1.33601 73.1942 9.20295 60.5264C13.5524 55.3391 16.3711 53.2154 22.4122 51.5779C23.9691 50.011 25.3442 45.9777 27.0995 45.6122C42.2103 49.7494 50.2442 51.7587 55.6497 49.0212C58.3831 49.3417 59.1455 50.0765 59.0587 52.4301L58.2064 57.5436C65.6612 61.7991 72.4676 74.5093 73.9729 77.1452C76.2225 71.1564 76.9951 67.5319 77.3819 60.5264C76.2999 57.6708 75.7363 56.0605 78.2341 52.4301C83.4701 56.2219 87.7995 56.254 96.1312 55.413C98.421 58.7747 97.6416 60.5022 95.279 63.5093C98.9656 80.9089 95.1719 89.4189 85.4782 103.991C75.8117 103.13 71.1431 102.2 64.1721 99.7296L62.0415 112.939L45.4233 110.383Z" fill="#4B8BFF"/>
<path d="M77.3819 60.5264C76.9951 67.5319 76.2225 71.1564 73.9729 77.1452C72.4676 74.5093 65.6612 61.7991 58.2064 57.5436L59.0587 52.4301C59.1455 50.0765 58.3831 49.3417 55.6497 49.0212C50.2442 51.7587 42.2103 49.7494 27.0995 45.6122C25.3442 45.9777 23.9691 50.011 22.4122 51.5779C16.3711 53.2154 13.5524 55.3391 9.20295 60.5264C-1.33601 73.1942 0.0732397 88.9265 5.36785 106.974L5.79398 109.104C19.1023 111.914 28.4948 111.141 38.6054 108.252L45.4233 110.383L62.0415 112.939L64.1721 99.7296C71.1431 102.2 75.8117 103.13 85.4782 103.991C95.1719 89.4189 98.9656 80.9089 95.279 63.5093M77.3819 60.5264C76.2999 57.6708 75.7363 56.0605 78.2341 52.4301C83.4701 56.2219 87.7995 56.254 96.1312 55.413C98.421 58.7747 97.6416 60.5022 95.279 63.5093M77.3819 60.5264C84.6249 62.875 88.4791 63.4598 95.279 63.5093" stroke="black" stroke-width="0.852243"/>
<path d="M30.4355 26.3074C30.3085 26.3071 30.1858 26.262 30.0891 26.1798C29.9922 26.0977 29.9277 25.984 29.9068 25.8588C29.8858 25.7336 29.9099 25.605 29.9747 25.4959C30.0396 25.3867 30.141 25.3041 30.2609 25.2626C31.8216 24.7262 33.4481 24.4048 35.0955 24.3073C35.2379 24.2989 35.3779 24.3474 35.4846 24.4422C35.5913 24.537 35.656 24.6703 35.6644 24.8127C35.6729 24.9551 35.6243 25.0951 35.5296 25.2018C35.4348 25.3086 35.3015 25.3733 35.1591 25.3817C33.6093 25.4719 32.0793 25.7732 30.611 26.2769C30.5546 26.2968 30.4952 26.3071 30.4355 26.3074ZM32.9351 28.0569C32.9094 28.0569 32.8837 28.0551 32.8582 28.0516C31.1472 27.8036 29.4101 27.7955 27.6969 28.0274C27.6269 28.0371 27.5558 28.0329 27.4875 28.0152C27.4193 27.9974 27.3551 27.9663 27.2988 27.9238C27.2426 27.8812 27.1952 27.828 27.1595 27.7671C27.1238 27.7062 27.1004 27.6389 27.0907 27.569C27.081 27.4991 27.0852 27.428 27.103 27.3597C27.1207 27.2915 27.1518 27.2273 27.1944 27.1711C27.2369 27.1148 27.2902 27.0674 27.351 27.0317C27.4119 26.996 27.4792 26.9726 27.5491 26.9629C29.3619 26.7177 31.1999 26.726 33.0103 26.988C33.1449 27.0072 33.2672 27.0766 33.3526 27.1824C33.4379 27.2881 33.48 27.4223 33.4704 27.5579C33.4608 27.6935 33.4 27.8204 33.3005 27.9129C33.2011 28.0056 33.0702 28.057 32.9342 28.0569H32.9351ZM31.5314 29.5957H30.2779C30.1355 29.5957 29.9988 29.5391 29.8981 29.4384C29.7974 29.3376 29.7407 29.201 29.7407 29.0586C29.7407 28.9161 29.7974 28.7794 29.8981 28.6787C29.9988 28.578 30.1355 28.5214 30.2779 28.5214H31.5314C31.6738 28.5214 31.8104 28.578 31.9112 28.6787C32.012 28.7794 32.0685 28.9161 32.0685 29.0586C32.0685 29.201 32.012 29.3376 31.9112 29.4384C31.8104 29.5391 31.6738 29.5957 31.5314 29.5957ZM52.1749 53.7043C43.4933 53.6999 34.8832 52.1369 26.7541 49.089C26.6881 49.0641 26.6276 49.0265 26.5762 48.9782C26.5247 48.93 26.4832 48.8721 26.4541 48.8078C26.3953 48.6781 26.3905 48.5302 26.4408 48.3969C26.491 48.2636 26.5921 48.1556 26.7218 48.0969C26.8517 48.0381 26.9994 48.0334 27.1328 48.0836C36.2147 51.4889 45.8956 53.0074 55.5841 52.5455C55.7266 52.5388 55.866 52.5885 55.9718 52.6841C56.0774 52.7798 56.1407 52.914 56.1477 53.0563C56.1547 53.1987 56.1048 53.3381 56.009 53.4441C55.9133 53.5494 55.7794 53.6132 55.637 53.6198C54.4857 53.6762 53.3316 53.7043 52.1749 53.7043ZM52.8723 66.9445H52.8535C52.7829 66.9422 52.7135 66.9259 52.6493 66.8963C52.585 66.8673 52.5272 66.8258 52.4791 66.7739C52.4309 66.7228 52.3934 66.662 52.3687 66.596C52.3441 66.5292 52.3326 66.4588 52.3352 66.3884C52.4671 62.7449 52.8605 59.1162 53.5124 55.5291C53.5417 55.3919 53.6229 55.2725 53.7389 55.1947C53.855 55.1176 53.9966 55.0879 54.134 55.1131C54.2713 55.1376 54.3935 55.2154 54.4747 55.3289C54.5559 55.4423 54.5896 55.5832 54.5689 55.7211C53.9264 59.2578 53.5389 62.8368 53.4094 66.4291C53.4039 66.5678 53.3449 66.699 53.2448 66.7947C53.1446 66.8911 53.0111 66.9445 52.8723 66.9445Z" fill="#041D36"/>
<path d="M9.35925 108.875C9.0954 108.878 8.8343 108.82 8.59578 108.704C8.3572 108.588 8.14733 108.418 7.98206 108.207C7.81673 107.995 7.70024 107.748 7.6415 107.484C7.58268 107.22 7.58304 106.945 7.64258 106.681C7.6563 106.611 7.68357 106.544 7.72276 106.485C7.76195 106.426 7.81232 106.375 7.87085 106.336C7.92938 106.297 7.99491 106.271 8.06354 106.258C8.13225 106.245 8.20268 106.247 8.27066 106.263C8.33872 106.279 8.40295 106.308 8.45967 106.35C8.51633 106.392 8.56432 106.445 8.60083 106.506C8.63728 106.567 8.66153 106.635 8.67206 106.706C8.68253 106.776 8.67921 106.849 8.6621 106.919C8.63179 107.054 8.64002 107.196 8.68578 107.326C8.7316 107.458 8.81301 107.573 8.92032 107.657C9.02771 107.742 9.15653 107.794 9.29149 107.805C9.42644 107.817 9.56183 107.789 9.6817 107.724C9.80453 107.658 9.94786 107.645 10.0802 107.687C10.2126 107.73 10.3231 107.825 10.3875 107.951C10.4519 108.077 10.4648 108.224 10.4234 108.36C10.3821 108.496 10.2899 108.61 10.167 108.676C9.91748 108.809 9.64028 108.877 9.35925 108.875ZM24.3476 63.4177C24.2301 63.4177 24.1159 63.3769 24.0237 63.302C23.9315 63.2272 23.8667 63.1219 23.8396 63.0047C23.2719 60.5772 21.8423 58.4559 19.8311 57.056C19.7156 56.9767 19.6354 56.8536 19.6082 56.7135C19.5811 56.5734 19.6093 56.428 19.6864 56.3094C19.7636 56.1908 19.8836 56.1085 20.0198 56.0803C20.1561 56.0529 20.2977 56.0818 20.4132 56.1611C22.6436 57.7115 24.2288 60.0634 24.8574 62.7534C24.8732 62.8223 24.8757 62.8935 24.8647 62.9632C24.8537 63.0329 24.8295 63.0996 24.7934 63.1597C24.7573 63.2197 24.7101 63.2716 24.6544 63.3132C24.5987 63.3539 24.5356 63.3836 24.4688 63.3999C24.4292 63.411 24.3885 63.417 24.3476 63.4177ZM24.8269 68.8815C24.6937 68.8822 24.5653 68.8303 24.4681 68.7361C24.371 68.6427 24.3123 68.5144 24.3041 68.378L24.1525 65.8771C24.1439 65.7347 24.1908 65.5946 24.2828 65.4878C24.3748 65.3803 24.5044 65.3158 24.6431 65.3069C24.7817 65.298 24.9181 65.3462 25.0222 65.4411C25.1263 65.5353 25.1896 65.6687 25.1981 65.8111L25.3497 68.3105C25.3541 68.381 25.345 68.4514 25.3228 68.5182C25.3005 68.5849 25.2657 68.6472 25.2203 68.6998C25.175 68.7524 25.1198 68.7962 25.0582 68.8273C24.9965 68.8585 24.9294 68.8763 24.8609 68.8807L24.8269 68.8815ZM14.5093 93.9055C14.4116 93.9047 14.3159 93.8765 14.2331 93.8239C14.1501 93.7705 14.0835 93.6941 14.0405 93.6044C13.9974 93.514 13.9799 93.4139 13.9897 93.3138C13.9996 93.2137 14.0365 93.1188 14.0963 93.0394C15.3772 91.3415 17.1892 90.1493 19.2263 89.6644C19.3615 89.6317 19.5036 89.6562 19.6212 89.7318C19.7389 89.8075 19.8225 89.9283 19.8538 90.067C19.8849 90.2056 19.8611 90.3517 19.7876 90.4725C19.714 90.5934 19.5968 90.6794 19.4616 90.7113C17.663 91.1487 16.0626 92.2016 14.9233 93.6964C14.8744 93.7616 14.8116 93.8143 14.7399 93.8499C14.6681 93.8862 14.5892 93.9055 14.5093 93.9055ZM38.835 100.291C38.7009 100.292 38.5718 100.238 38.4745 100.144C38.3772 100.049 38.3191 99.9194 38.3121 99.7815C38.1916 97.3436 38.5991 94.9086 39.5051 92.6524C39.5298 92.5849 39.5674 92.5234 39.6156 92.4707C39.664 92.4188 39.7221 92.3773 39.7864 92.3484C39.8508 92.3195 39.9201 92.3047 39.9903 92.3039C40.0604 92.3032 40.1299 92.3173 40.1948 92.3447C40.2596 92.3721 40.3183 92.4129 40.3675 92.4648C40.4167 92.516 40.4553 92.5768 40.481 92.6443C40.5068 92.711 40.5191 92.7829 40.5173 92.8548C40.5156 92.9267 40.4996 92.9979 40.4706 93.0632C39.6248 95.1719 39.2442 97.4474 39.3561 99.7251C39.3597 99.7956 39.3498 99.866 39.3269 99.9327C39.304 99.9995 39.2685 100.061 39.2226 100.113C39.1766 100.166 39.121 100.209 39.059 100.239C38.997 100.269 38.9297 100.286 38.8611 100.29L38.835 100.291ZM45.4725 111.281C45.3739 111.281 45.2772 111.252 45.1936 111.199C45.11 111.145 45.043 111.068 45.0003 110.977C43.9371 108.704 43.4561 104.776 43.7149 100.467C43.9719 96.1802 44.8808 92.6591 46.147 91.0486C46.2351 90.9411 46.3606 90.8729 46.4967 90.8596C46.6329 90.8462 46.7687 90.8878 46.8753 90.976C46.9817 91.0642 47.0503 91.1917 47.0664 91.3311C47.0824 91.4705 47.0445 91.6114 46.9609 91.7226C44.6795 94.6262 43.7279 105.778 45.9431 110.511C45.9814 110.593 45.9989 110.683 45.9939 110.774C45.989 110.865 45.9617 110.952 45.9147 111.029C45.8677 111.106 45.8025 111.169 45.7252 111.214C45.6478 111.258 45.5609 111.281 45.4725 111.281Z" fill="#041D36"/>
<path d="M35.7589 65.4363C35.4835 64.7638 35.1236 64.0342 34.4517 63.7932C33.7415 63.5374 32.9764 63.9356 32.3464 64.3589C30.3257 65.7188 28.5731 67.459 27.1806 69.4868C26.9104 69.8805 26.6447 70.3818 26.8416 70.8185C26.9331 71.0231 27.1109 71.1699 27.2843 71.3063C29.5789 73.1214 32.1127 74.5917 34.8098 75.6742C36.0926 76.1888 37.5435 76.6114 38.8184 76.0776C38.1282 74.9506 38.1378 73.4706 37.8546 72.179C37.5288 70.6969 37.1215 69.2355 36.6346 67.8015C36.3697 67.0044 36.0778 66.2155 35.7589 65.4363Z" fill="#FFC754"/>
<path d="M36.6463 74.2274C36.5543 74.2281 36.4639 74.2029 36.3842 74.1562C36.3045 74.1087 36.2383 74.0413 36.1923 73.959C34.8417 71.547 33.7674 68.9823 32.9907 66.3161C32.9509 66.1797 32.9656 66.0321 33.0315 65.9068C33.0974 65.7815 33.209 65.6881 33.3419 65.6473C33.4748 65.6065 33.618 65.6213 33.7401 65.6896C33.8621 65.757 33.9531 65.8712 33.9928 66.0084C34.7461 68.5946 35.7882 71.0829 37.0986 73.4229C37.1444 73.5045 37.1686 73.5971 37.1686 73.6913C37.1687 73.7855 37.1445 73.8782 37.0987 73.9597C37.0528 74.0413 36.987 74.1095 36.9076 74.1562C36.8281 74.2037 36.738 74.2289 36.6463 74.2289V74.2274Z" fill="white"/>
<path d="M37.998 72.9161C38.1819 70.9608 38.8268 68.3658 39.3984 66.4906C39.5596 65.9642 39.7775 65.3911 40.2602 65.1479C40.6463 64.9536 41.1047 65.0263 41.5238 65.1234C43.0743 65.486 44.5471 66.1362 45.8696 67.043C46.1493 67.2358 46.4482 67.4827 46.4796 67.8275C46.5066 68.1507 46.2861 68.4347 46.077 68.6772C43.7695 71.3516 41.2218 73.7969 38.4677 75.9797L37.998 72.9161Z" fill="#FFC754"/>
<path d="M59.3583 101.072C59.3143 101.071 59.271 101.066 59.2284 101.055L56.941 100.455C56.8744 100.437 56.8119 100.406 56.757 100.363C56.7021 100.321 56.6559 100.268 56.621 100.207C56.586 100.146 56.5631 100.079 56.5535 100.009C56.5439 99.9386 56.5478 99.8674 56.565 99.7992C56.5821 99.731 56.6122 99.6665 56.6536 99.6101C56.6949 99.5538 56.7466 99.5063 56.8058 99.4708C56.865 99.4344 56.9305 99.4114 56.9985 99.4011C57.0666 99.3914 57.1359 99.3951 57.2024 99.4129L59.4896 100.014C59.6131 100.046 59.7206 100.124 59.792 100.232C59.8635 100.34 59.8938 100.471 59.8779 100.601C59.862 100.73 59.8014 100.85 59.7062 100.937C59.6109 101.023 59.4882 101.071 59.3612 101.072H59.3583ZM58.2664 106.214C58.2238 106.214 58.182 106.209 58.1408 106.199L56.1846 105.701C56.1169 105.686 56.0531 105.656 55.9966 105.614C55.9402 105.573 55.8924 105.52 55.856 105.459C55.8196 105.399 55.7953 105.331 55.7846 105.261C55.7738 105.19 55.7769 105.118 55.7935 105.049C55.8101 104.98 55.8399 104.915 55.8812 104.857C55.9227 104.8 55.9747 104.752 56.0344 104.716C56.0941 104.679 56.1602 104.656 56.2289 104.646C56.2976 104.636 56.3676 104.64 56.4347 104.659L58.3963 105.155C58.5204 105.187 58.6294 105.264 58.7023 105.371C58.7752 105.479 58.8069 105.611 58.7918 105.742C58.7759 105.873 58.7146 105.993 58.6186 106.08C58.5226 106.167 58.3992 106.215 58.2707 106.214H58.2664ZM89.6026 57.6877C86.4951 57.6855 83.4019 57.2458 80.4098 56.382C78.9527 55.9631 77.4314 55.4122 76.1793 54.2274C76.1288 54.1799 76.0877 54.1221 76.0588 54.0583C76.0299 53.9945 76.014 53.9249 76.0112 53.8544C76.0083 53.784 76.0191 53.7135 76.0422 53.6475C76.066 53.5816 76.1021 53.5208 76.149 53.4689C76.1952 53.417 76.2515 53.3747 76.3135 53.345C76.3756 53.3154 76.4434 53.2983 76.512 53.2954C76.5806 53.2924 76.6491 53.3035 76.7134 53.328C76.7783 53.3525 76.8375 53.3895 76.888 53.437C77.9698 54.4728 79.3554 54.9644 80.6877 55.347C85.0344 56.6059 89.5875 56.9307 94.0619 56.3012C94.1298 56.2916 94.199 56.296 94.2654 56.3138C94.3318 56.3316 94.3939 56.3627 94.4487 56.4058C94.5036 56.448 94.5498 56.5014 94.5844 56.5622C94.6191 56.623 94.6414 56.6905 94.6508 56.7602C94.6602 56.8306 94.6559 56.9018 94.6385 56.97C94.6212 57.0382 94.5909 57.102 94.5491 57.1583C94.5079 57.2147 94.456 57.2614 94.3968 57.297C94.3376 57.3326 94.2719 57.3563 94.2034 57.3659C92.6792 57.5802 91.1413 57.6877 89.6026 57.6877ZM87.2514 40.8467C85.8571 40.8467 85.4746 40.1475 84.9066 39.1L84.8951 39.0794C84.8597 39.0177 84.8373 38.9494 84.828 38.8785C84.8193 38.8076 84.8236 38.7356 84.8424 38.6666C84.8605 38.5976 84.8922 38.5331 84.9348 38.4768C84.9781 38.4206 85.0315 38.3736 85.0921 38.3388C85.1527 38.304 85.2198 38.2821 85.2891 38.2741C85.3577 38.2663 85.4277 38.2727 85.4948 38.293C85.5612 38.3132 85.6233 38.3469 85.6774 38.3922C85.7315 38.4375 85.7755 38.4934 85.8087 38.5566L85.8196 38.5771C86.3644 39.5816 86.4777 39.792 87.3279 39.7714C87.4672 39.7684 87.6014 39.822 87.701 39.9205C87.8013 40.0191 87.859 40.1545 87.8627 40.297C87.8655 40.4394 87.8129 40.5773 87.7176 40.6802C87.6216 40.7831 87.4895 40.8427 87.351 40.8458L87.2514 40.8467ZM87.6425 48.3977C87.5292 48.3977 87.4188 48.3596 87.3279 48.2892C87.2369 48.2189 87.1713 48.1199 87.1402 48.0076C87.1085 47.8953 87.1143 47.7755 87.1554 47.6666C87.1965 47.5577 87.2709 47.4655 87.3676 47.4039L89.3407 46.1506C89.3984 46.1125 89.4641 46.0867 89.5319 46.0747C89.6005 46.0626 89.6697 46.0646 89.7376 46.0804C89.8047 46.0963 89.8682 46.1257 89.9245 46.167C89.9808 46.2083 90.0284 46.2607 90.0652 46.3211C90.1013 46.3815 90.1259 46.4487 90.1367 46.5189C90.1475 46.589 90.1453 46.6607 90.1287 46.7297C90.1129 46.7988 90.0833 46.8639 90.0429 46.9212C90.0017 46.9786 89.9505 47.027 89.8913 47.0638L87.9182 48.3172C87.8352 48.3698 87.74 48.3977 87.6425 48.3977ZM90.3741 52.1936C90.2558 52.1943 90.141 52.1535 90.0486 52.0786C89.9555 52.0038 89.8906 51.8985 89.8632 51.7806C89.8357 51.6627 89.848 51.5389 89.8985 51.4291C89.9483 51.3194 90.0328 51.2297 90.1388 51.1755L91.5981 50.4245C91.7222 50.3637 91.8644 50.3548 91.9943 50.4C92.1242 50.446 92.2317 50.5416 92.2931 50.6684C92.3544 50.7944 92.3652 50.9405 92.3227 51.0747C92.2801 51.2089 92.1877 51.3201 92.0657 51.3854L90.6058 52.1365C90.5336 52.1735 90.4542 52.1936 90.3741 52.1936ZM46.5859 58.0295H46.5528C39.5615 57.5802 32.6577 56.1915 26.0178 53.8982C25.9508 53.8774 25.8886 53.8425 25.8349 53.7966C25.781 53.7506 25.7368 53.6943 25.7047 53.6305C25.6726 53.5667 25.6533 53.4963 25.648 53.4251C25.6427 53.3532 25.6514 53.2813 25.6737 53.2131C25.696 53.1448 25.7314 53.0818 25.7778 53.0277C25.8241 52.9743 25.8805 52.9306 25.9437 52.8994C26.0068 52.8683 26.0754 52.8505 26.1453 52.8475C26.2153 52.8438 26.285 52.8549 26.3507 52.8801C32.9041 55.1431 39.718 56.514 46.6181 56.9574C46.7568 56.9618 46.8881 57.0226 46.9832 57.1264C47.0782 57.2302 47.1292 57.3689 47.1249 57.5112C47.1206 57.6536 47.0615 57.7886 46.9603 57.8857C46.8592 57.9836 46.7246 58.0362 46.5859 58.0317V58.0295Z" fill="#041D36"/>
<path d="M53.4625 92.305C53.3322 92.3057 53.2063 92.256 53.1096 92.1663C53.0129 92.0766 52.9523 91.9528 52.9397 91.8193L51.4025 75.5014L22.027 78.4213C21.9583 78.4287 21.889 78.4213 21.823 78.4005C21.7571 78.3798 21.6957 78.3464 21.6425 78.3012C21.5892 78.2559 21.5451 78.2003 21.5127 78.138C21.4803 78.0758 21.4603 78.0068 21.4536 77.9364C21.447 77.8659 21.4539 77.7948 21.474 77.7265C21.4942 77.6591 21.5272 77.596 21.571 77.5412C21.6148 77.4863 21.6687 77.4411 21.7297 77.4077C21.7906 77.3751 21.8573 77.3543 21.9259 77.3469L51.8268 74.3804C51.8952 74.373 51.9642 74.3804 52.0298 74.4011C52.0956 74.4211 52.1566 74.4553 52.2094 74.5005C52.3155 74.5895 52.383 74.7185 52.3976 74.8586L53.9837 91.7177C53.997 91.8594 53.955 92.001 53.867 92.1107C53.7789 92.2204 53.6519 92.2901 53.5139 92.3042C53.4968 92.305 53.4796 92.3057 53.4625 92.305Z" fill="#FFC754"/>
<path d="M39.9962 93.1268C39.8704 93.1268 39.7488 93.0801 39.6537 92.9956L38.398 91.876C38.3001 91.7878 38.2379 91.6647 38.2237 91.5312L36.562 76.6266C36.5541 76.5561 36.5601 76.4842 36.5795 76.416C36.5988 76.3478 36.6313 76.2833 36.675 76.2284C36.7186 76.1728 36.7725 76.1268 36.8336 76.0935C36.8947 76.0594 36.9617 76.0386 37.0308 76.0312L39.4428 75.7917C39.5797 75.7776 39.7163 75.8206 39.823 75.9096C39.9296 75.9986 39.9978 76.1276 40.0128 76.2677L41.6267 91.4126C41.6356 91.4934 41.6265 91.575 41.5999 91.6513C41.5733 91.7277 41.53 91.7974 41.4732 91.8538L40.3622 92.9711C40.2648 93.0705 40.1334 93.1261 39.9962 93.1268ZM39.2372 91.202L39.9744 91.8582L40.5574 91.2702L39.0272 76.9113L37.6591 77.0477L39.2372 91.202Z" fill="#FFC754"/>
<path d="M22.8877 85.8298C22.819 85.8335 22.7504 85.8224 22.6857 85.7986C22.6211 85.7749 22.5616 85.7378 22.5108 85.6904C22.46 85.6429 22.4188 85.5851 22.3896 85.5213C22.3603 85.4576 22.3436 85.3886 22.3404 85.3174C22.3372 85.247 22.3475 85.1766 22.3709 85.1106C22.3942 85.0438 22.43 84.983 22.4763 84.9304C22.5226 84.8785 22.5784 84.8362 22.6406 84.8058C22.7028 84.7762 22.7702 84.7591 22.8389 84.7554L52.502 81.8808C52.64 81.8675 52.7776 81.9105 52.8845 82.0017C52.9914 82.0921 53.0588 82.2234 53.0719 82.365C53.0849 82.5073 53.0426 82.6482 52.9542 82.7579C52.8658 82.8677 52.7385 82.9374 52.6004 82.9507L22.9373 85.8253L22.8877 85.8298Z" fill="#FFC754"/>
<path d="M52.1211 77.8563L58.6125 78.2285L57.0725 92.4563C57.0725 92.4563 55.7131 91.1839 53.4666 91.7674L52.1211 77.8563Z" fill="#007FFE"/>
<path d="M57.0703 92.993C56.9414 92.9923 56.8172 92.9426 56.7218 92.8536C56.6765 92.8121 55.5228 91.7882 53.596 92.2886C53.5231 92.3072 53.447 92.3101 53.373 92.2961C53.299 92.282 53.2289 92.2516 53.1673 92.2071C53.1058 92.1626 53.0543 92.1055 53.0164 92.038C52.9785 91.9713 52.9551 91.8972 52.9477 91.82L51.6022 77.9104C51.5947 77.8333 51.6035 77.7547 51.6281 77.6813C51.6527 77.6079 51.6926 77.5412 51.7448 77.4848C51.7971 77.4292 51.8606 77.3855 51.9309 77.3565C52.0011 77.3284 52.0766 77.3158 52.1521 77.3202L58.6435 77.6917C58.7143 77.6961 58.7835 77.7147 58.8478 77.7473C58.9113 77.7799 58.9676 77.8259 59.0138 77.8815C59.0592 77.9371 59.0939 78.0023 59.1148 78.072C59.135 78.1417 59.1415 78.2151 59.1336 78.2878L57.5942 92.5163C57.5798 92.6475 57.5183 92.7698 57.4217 92.8573C57.3252 92.9456 57.2004 92.9938 57.0713 92.993H57.0703ZM54.6304 91.0764C55.3277 91.0734 56.0164 91.2336 56.6443 91.5457L58.0301 78.7356L52.6993 78.4279L53.9272 91.1275C54.1599 91.0934 54.3945 91.0764 54.6295 91.0764H54.6304Z" fill="#FFC754"/>
<path d="M34.6303 74.195C34.519 74.1957 34.4104 74.1587 34.321 74.0905L31.5525 71.9929C31.4972 71.9514 31.4505 71.8987 31.4151 71.8379C31.3796 71.7779 31.356 71.7104 31.3457 71.6407C31.3355 71.571 31.3386 71.4998 31.3552 71.4316C31.3716 71.3627 31.4011 71.2989 31.4418 71.2418C31.4825 71.1847 31.5338 71.1373 31.5926 71.1002C31.6513 71.0639 31.7166 71.0401 31.7844 71.029C31.8523 71.0186 31.9216 71.0223 31.9882 71.0386C32.0549 71.0557 32.1177 71.0861 32.1729 71.1284L34.9414 73.2259C35.0301 73.2927 35.0959 73.3868 35.1294 73.4951C35.1628 73.6026 35.1623 73.719 35.1278 73.8265C35.0933 73.934 35.0267 74.0274 34.9373 74.0934C34.848 74.1602 34.7405 74.1957 34.6303 74.195Z" fill="white"/>
<path d="M58.5157 95.1356C57.7349 90.1817 53.6531 91.1109 45.4047 93.7793C43.1685 101.8 43.969 104.27 45.3825 108.631L45.4047 108.699L56.2552 109.603C58.4225 108.767 58.95 108.019 58.5157 105.986C60.7122 103.811 60.7867 102.621 59.4199 100.561C60.9373 98.4805 60.9939 97.3036 58.5157 95.1356Z" fill="#FF9D8E" stroke="#000080" stroke-width="0.271263"/>
<path d="M63.5833 90.5962C63.5487 90.5962 63.5141 90.5925 63.4802 90.5858C63.4123 90.5717 63.3481 90.5443 63.2911 90.505C63.2341 90.4657 63.1857 90.4153 63.1474 90.3567C63.1092 90.2974 63.0832 90.2314 63.0695 90.1624C63.0565 90.0935 63.0565 90.0215 63.0702 89.9526C63.1828 89.4039 63.4325 88.8953 63.7955 88.4756C64.1578 88.0567 64.6211 87.7423 65.1379 87.5629C65.2035 87.5399 65.2735 87.5295 65.3428 87.534C65.4121 87.5384 65.4799 87.557 65.542 87.5888C65.6048 87.62 65.6604 87.6645 65.7058 87.7186C65.7513 87.772 65.7859 87.835 65.8076 87.9032C65.8292 87.9707 65.8372 88.0426 65.8314 88.1138C65.8263 88.185 65.8069 88.2539 65.7751 88.3177C65.7426 88.3807 65.6986 88.4371 65.6452 88.483C65.5925 88.5283 65.5305 88.5631 65.4641 88.5839C65.1227 88.7047 64.8182 88.9138 64.5786 89.1911C64.339 89.4677 64.1722 89.8036 64.095 90.1661C64.0712 90.287 64.007 90.396 63.9139 90.4746C63.8208 90.5532 63.7039 90.5962 63.5833 90.5962ZM54.1966 110.465C53.4071 110.452 52.6192 110.386 51.8385 110.263L45.404 109.355C45.2705 109.331 45.1513 109.255 45.0713 109.142C44.9914 109.03 44.9571 108.89 44.9756 108.752C44.9941 108.614 45.0641 108.489 45.1707 108.403C45.2772 108.317 45.4121 108.277 45.5469 108.291L51.9815 109.198C53.8333 109.459 55.9159 109.637 57.1926 108.431C57.7348 107.919 58.3497 106.838 57.82 105.959C57.75 105.843 57.7262 105.703 57.7529 105.568C57.7796 105.434 57.8553 105.316 57.9643 105.238C58.7704 104.656 59.1356 104.136 59.3586 103.254C59.5932 102.336 59.3117 101.359 58.6737 100.877C58.5965 100.819 58.5359 100.739 58.4998 100.648C58.463 100.557 58.4522 100.457 58.4673 100.359C58.4825 100.262 58.5236 100.171 58.5857 100.095C58.6485 100.02 58.73 99.9644 58.821 99.9333C59.2395 99.7939 59.4416 99.4105 59.5253 99.194C59.6199 98.9457 59.6617 98.6802 59.6487 98.414C59.6357 98.1478 59.5679 97.8876 59.4503 97.6503C59.0324 96.8681 58.0971 96.3024 56.8867 96.0985C56.2636 95.9932 55.6327 95.9754 54.9644 95.9569C54.4415 95.942 53.9056 95.9265 53.3696 95.8671C53.2318 95.8516 53.1056 95.7804 53.0188 95.6692C52.932 95.558 52.8917 95.4163 52.9069 95.2747C52.9221 95.1331 52.9913 95.0034 53.0995 94.9144C53.2077 94.8247 53.3459 94.7839 53.4838 94.7995C53.977 94.8543 54.4711 94.8692 54.9931 94.8832C55.6667 94.9033 56.363 94.9225 57.0557 95.0389C57.9549 95.1902 59.5831 95.6655 60.3668 97.1343C60.5588 97.5102 60.6699 97.9239 60.6923 98.348C60.7147 98.7714 60.6483 99.1955 60.4967 99.5907C60.3574 99.9659 60.1294 100.3 59.8335 100.562C60.4195 101.351 60.6389 102.474 60.3697 103.528C60.1171 104.519 59.6978 105.198 58.9205 105.842C59.3666 107.074 58.7466 108.418 57.8972 109.223C56.8806 110.186 55.5587 110.465 54.1966 110.465Z" fill="#041D36"/>
<path d="M20.2286 94.2655C20.1256 94.2655 20.025 94.2337 19.9394 94.1751C19.8538 94.1165 19.787 94.0327 19.7474 93.9349C19.7077 93.8377 19.697 93.7302 19.7166 93.6264C19.7361 93.5226 19.7851 93.427 19.8574 93.3513C22.123 90.995 24.6257 88.8908 27.5389 89.4491C27.8282 89.5047 28.1053 89.5855 28.3729 89.6641C28.7131 89.7768 29.0634 89.8554 29.4186 89.8984C29.985 89.9451 30.5653 89.7938 31.1806 89.63C31.4028 89.5714 31.6337 89.5114 31.8655 89.4602C34.7751 88.824 37.9184 89.7686 40.0569 91.8781C40.7688 91.0224 41.9208 90.4804 43.2166 90.4219C44.562 90.3611 45.5128 90.4827 46.7232 90.8697C46.7908 90.889 46.8538 90.9216 46.9087 90.9668C46.9637 91.0113 47.0093 91.0669 47.0428 91.1299C47.0765 91.1937 47.0973 91.2627 47.1042 91.3346C47.1111 91.4065 47.1039 91.4784 47.083 91.5474C47.0622 91.6163 47.028 91.6801 46.9827 91.735C46.9374 91.7898 46.8818 91.8351 46.8192 91.867C46.7566 91.8996 46.6883 91.9189 46.6184 91.9233C46.5485 91.9285 46.4783 91.9181 46.4121 91.8951C45.3289 91.5481 44.4749 91.4399 43.2619 91.4947C42.3173 91.537 41.1182 91.9478 40.5858 92.9747C40.5462 93.051 40.4891 93.1163 40.4197 93.1652C40.3502 93.2142 40.2703 93.2446 40.1867 93.2549C40.1031 93.2653 40.0183 93.2549 39.9396 93.2238C39.8609 93.1934 39.7905 93.1437 39.7344 93.0792C37.8521 90.9134 34.8493 89.9058 32.0851 90.5108C31.8733 90.5575 31.6624 90.6117 31.4394 90.6702C30.7692 90.8489 30.0765 91.0284 29.3375 90.9653C28.9138 90.9194 28.4958 90.8289 28.0896 90.6969C27.8343 90.6228 27.5921 90.5516 27.3507 90.5056C24.9168 90.0385 22.6694 91.9604 20.6042 94.1061C20.5551 94.1573 20.4966 94.1973 20.432 94.2248C20.3675 94.2522 20.2984 94.2663 20.2286 94.2655ZM58.5076 96.3438C58.4521 96.3438 58.3972 96.3349 58.3446 96.3171C58.2125 96.2727 58.1035 96.1763 58.0407 96.0495C57.9787 95.9227 57.9678 95.7751 58.0104 95.6395C58.3965 94.4272 57.3867 93.0703 56.2391 92.6106C54.9049 92.0738 53.3573 92.3237 52.011 92.5965C51.2772 92.7448 50.4424 93.0355 49.5553 93.3424C48.2177 93.8058 46.8347 94.2848 45.6496 94.3197H45.6348C45.4961 94.3219 45.3623 94.267 45.2629 94.1677C45.1635 94.0683 45.1065 93.9326 45.1045 93.7903C45.1026 93.6479 45.1558 93.5107 45.2524 93.4084C45.3491 93.3061 45.4813 93.2475 45.62 93.2453C46.6491 93.2164 47.9563 92.7634 49.2207 92.3244C50.14 92.0056 51.008 91.7046 51.8079 91.5429C53.2989 91.2404 55.0226 90.9705 56.619 91.6097C58.2356 92.2569 59.5815 94.1647 59.0042 95.9739C58.9702 96.0814 58.9031 96.1748 58.8144 96.2415C58.7249 96.3082 58.6173 96.3438 58.5076 96.3438Z" fill="#041D36"/>
<path d="M8.79805 113.467L5.58984 109.546L9.86745 110.259L15.9274 110.971L21.6309 111.328L29.8296 110.615L38.7413 108.833L50.1483 111.684L56.5647 112.754L62.2681 113.467H34.4637H8.79805Z" fill="#4B8BFF" stroke="#4B8BFF" stroke-width="0.21388"/>
<path d="M91.0643 39.075C100.769 41.2896 100.582 49.7754 95.1333 54.8986C88.4492 56.191 85.1482 55.6117 79.7617 53.0902C80.4004 44.3895 80.1278 38.8824 87.4475 36.8144C89.5309 36.6398 90.2681 37.2206 91.0643 39.075Z" fill="#FF9D8E"/>
<path d="M91.0643 39.075C100.769 41.2896 100.582 49.7754 95.1333 54.8986C88.4492 56.191 85.1482 55.6117 79.7617 53.0902C80.4004 44.3895 80.1278 38.8824 87.4475 36.8144C89.5309 36.6398 90.2681 37.2206 91.0643 39.075ZM91.0643 39.075L86.0912 42.6918" stroke="#000080" stroke-width="0.271263"/>
<path d="M79.2912 54.4739C79.1489 54.4739 79.0117 54.4175 78.9116 54.3167C78.8108 54.2158 78.7537 54.0794 78.7537 53.9371C78.7055 48.1514 79.662 43.6526 81.5957 40.5665C83.2802 37.8807 85.7248 36.2772 88.1382 36.2772H88.1568C89.051 36.2933 89.9029 36.6606 90.5279 37.2996C90.7941 37.5765 90.9995 37.9055 91.1322 38.2657C91.2649 38.6258 91.322 39.0096 91.2998 39.3928C91.2968 39.4634 91.2798 39.5326 91.2494 39.5966C91.2197 39.6605 91.1775 39.7181 91.1256 39.7658C91.0737 39.8134 91.0121 39.8504 90.9461 39.8745C90.8794 39.8986 90.809 39.9094 90.7385 39.9063C90.6681 39.9031 90.5991 39.8862 90.5346 39.8563C90.4709 39.8264 90.4138 39.7843 90.3656 39.7322C90.3181 39.6801 90.281 39.6191 90.2573 39.5527C90.2328 39.4864 90.2225 39.4159 90.2254 39.3454C90.2417 39.1068 90.2076 38.8675 90.1253 38.6429C90.0438 38.4182 89.9155 38.2132 89.7502 38.0409C89.3246 37.6164 88.7536 37.37 88.1523 37.3516H88.1375C86.0963 37.3516 83.9913 38.7652 82.5054 41.1368C80.6815 44.0465 79.7806 48.3502 79.8273 53.9282C79.828 53.9986 79.8147 54.069 79.788 54.135C79.7613 54.2003 79.7213 54.2603 79.6716 54.3107C79.6219 54.3612 79.5626 54.4012 79.4966 54.4279C79.4314 54.4553 79.3609 54.4694 79.2905 54.4694L79.2912 54.4739Z" fill="#041D36"/>
<path d="M93.4234 54.0543C93.1298 54.0543 92.8369 54.0261 92.5485 53.9705C91.5194 53.7725 90.7015 53.2772 90.2448 52.5744C89.9416 52.1013 89.7962 51.5445 89.8311 50.9839C88.945 50.8178 88.0546 50.2336 87.4822 49.4054C86.9305 48.6088 86.7659 47.6939 87.0113 46.8434C85.4758 45.2811 85.5833 43.8146 85.9629 42.8387C86.9009 40.426 90.4784 38.6103 92.3409 38.6103C93.6206 38.6103 94.9085 39.1152 95.9666 40.0329C97.1188 41.0329 97.8795 42.3606 98.4141 43.4027C99.9163 46.3348 100.136 48.864 99.051 50.7207C98.6929 51.328 98.1776 51.8967 97.468 52.4594C96.6673 53.0941 95.168 54.0543 93.4234 54.0543ZM90.4406 49.9563C90.5221 49.9563 90.6014 49.9741 90.6748 50.0097C90.7475 50.0445 90.8113 50.0957 90.8617 50.1594C90.9121 50.2225 90.9477 50.2966 90.9655 50.3752C90.9833 50.4545 90.9833 50.5361 90.9648 50.6154C90.8395 51.1522 90.901 51.6119 91.1434 51.9893C91.4393 52.4446 92.0095 52.7738 92.7487 52.9162C94.4377 53.2402 96.0103 52.2422 96.797 51.6179C97.4006 51.1389 97.8343 50.6681 98.1205 50.178C99.246 48.2535 98.38 45.7018 97.4554 43.8925C96.9646 42.9354 96.2728 41.7241 95.2592 40.8485C94.4095 40.1108 93.3441 39.6847 92.3379 39.6847C91.0041 39.6847 87.7431 41.2165 86.9609 43.2282C86.5509 44.2828 86.8883 45.2874 87.9938 46.3008C88.0768 46.3766 88.1332 46.4762 88.1569 46.5859C88.1799 46.6955 88.168 46.8096 88.1228 46.9123C87.7647 47.7315 88.1228 48.4432 88.363 48.7924C88.8546 49.5025 89.7154 49.9904 90.4102 49.9563H90.4406Z" fill="#041D36"/>
<path d="M24.1883 0.248779C23.419 6.73375 22.7975 7.35528 16.3125 8.12456C16.3242 8.12456 16.3383 8.12691 16.3524 8.12925C22.7998 8.89384 23.4213 9.5271 24.1883 16.0003C24.9552 9.51302 25.5767 8.8915 32.0641 8.12456C25.5767 7.35528 24.9552 6.73375 24.1883 0.248779Z" fill="white"/>
<path d="M107.188 11.2488C106.421 17.7338 105.8 18.3553 99.3125 19.1246C99.3266 19.1246 99.3406 19.1269 99.3524 19.1293H99.3547C105.802 19.8938 106.424 20.5271 107.188 27.0003C107.958 20.513 108.579 19.8915 115.064 19.1246C108.579 18.3553 107.958 17.7338 107.188 11.2488Z" fill="white"/>
</svg>
