<svg width="117" height="21" viewBox="0 0 117 21" fill="none" xmlns="http://www.w3.org/2000/svg">
<path d="M15.2011 9.27817C15.3001 9.31529 15.3615 9.38015 15.3867 9.47317C15.4114 9.56577 15.3927 9.66177 15.3308 9.76034C15.1085 10.2058 14.867 10.6573 14.6075 11.1151C14.3477 11.5725 14.0814 12.021 13.8096 12.4601C13.5374 12.8992 13.2651 13.3199 12.9933 13.7218C12.7211 14.1238 12.4552 14.4916 12.1958 14.8253C11.243 16.0747 10.2663 17.1077 9.26394 17.924C8.32392 18.6784 7.39627 19.2229 6.48099 19.5566C6.15969 19.6927 5.82259 19.7917 5.47014 19.8535C5.11768 19.9154 4.77419 19.9461 4.44051 19.9461C4.04453 19.9461 3.65452 19.8966 3.27134 19.7977C2.88816 19.6987 2.53528 19.5442 2.21398 19.3338C1.64476 19.0001 1.19373 18.567 0.859625 18.0354C0.525517 17.5033 0.290831 16.9251 0.154713 16.3008C0.0185949 15.6757 -0.0274888 15.0237 0.015608 14.3431C0.0591313 13.663 0.167087 13.0075 0.339902 12.3765C0.649261 11.2884 0.989341 10.2771 1.36057 9.34303C1.7318 8.4094 2.16106 7.53723 2.65007 6.72692C3.13821 5.91746 3.69164 5.15025 4.31079 4.42657C4.92865 3.70288 5.63399 3.00736 6.42552 2.33914C6.68539 2.11683 7.02845 1.89409 7.45516 1.67136C7.88186 1.44862 8.34568 1.28178 8.84663 1.17041C9.34758 1.05904 9.85791 1.04069 10.3772 1.11494C10.8969 1.18875 11.3791 1.41789 11.8246 1.8015C12.1706 2.09806 12.4488 2.52817 12.6592 3.09099C12.8696 3.65381 12.975 4.25973 12.975 4.90874C12.975 5.55818 12.8542 6.21402 12.6131 6.87541C12.3716 7.53723 11.979 8.10943 11.435 8.59161C11.2618 8.7401 11.0326 8.79301 10.7484 8.74949C10.4638 8.70639 10.201 8.61337 9.95989 8.47128C9.71881 8.32918 9.54258 8.16192 9.43121 7.97033C9.31984 7.77874 9.35697 7.60848 9.54258 7.45999C9.88864 7.18818 10.1946 6.8353 10.4608 6.40263C10.7267 5.96952 10.9341 5.51807 11.0825 5.04785C11.2306 4.57805 11.3108 4.12361 11.3236 3.68453C11.3356 3.24546 11.2677 2.88361 11.1197 2.599C10.9831 2.36432 10.7604 2.27428 10.4515 2.33018C10.1425 2.38565 9.77428 2.5653 9.34758 2.86825C8.92088 3.17121 8.46004 3.58213 7.96549 4.10185C7.47052 4.62114 6.97597 5.22749 6.48099 5.92002C6.11019 6.43975 5.76371 6.99958 5.44198 7.5991C5.12024 8.19904 4.83307 8.79301 4.57961 9.38015C4.32572 9.96772 4.10341 10.5335 3.9114 11.078C3.71981 11.6225 3.56833 12.1046 3.45696 12.5249C3.23465 13.3412 3.12328 14.102 3.12328 14.8069C3.12328 15.5119 3.21246 16.1336 3.3921 16.6716C3.57131 17.2097 3.83416 17.6488 4.18064 17.9889C4.5267 18.3289 4.93505 18.5393 5.40485 18.62C5.87508 18.7002 6.39779 18.6413 6.97298 18.4433C7.54775 18.2453 8.16305 17.8805 8.81889 17.3488C9.31344 16.9409 9.81738 16.4583 10.3307 15.9014C10.844 15.345 11.3514 14.7297 11.8523 14.0555C12.3533 13.3818 12.8418 12.6581 13.318 11.8849C13.7938 11.1121 14.2487 10.3048 14.6818 9.46378C14.8051 9.24105 14.9788 9.1796 15.2011 9.27817Z" fill="white"/>
<path d="M20.6735 7.07301C20.6735 7.271 20.6364 7.41352 20.5622 7.49971C20.4632 7.68533 20.3087 7.77792 20.0983 7.77792C19.9499 7.77792 19.8167 7.72928 19.6994 7.63028C19.5816 7.53129 19.5232 7.40157 19.5232 7.24071C19.5232 7.14171 19.5513 7.04826 19.6068 6.96164C19.6623 6.87545 19.7335 6.80163 19.8201 6.73976C19.7211 6.56652 19.6072 6.47947 19.4771 6.47947C19.3473 6.47947 19.2078 6.53195 19.0593 6.63735C18.9108 6.74232 18.7594 6.88484 18.6049 7.06405C18.45 7.24327 18.2994 7.42589 18.1509 7.61151C17.891 7.94562 17.6405 8.33178 17.3995 8.77086C17.1584 9.20993 16.945 9.66139 16.7594 10.1252C16.5738 10.589 16.4249 11.0473 16.3135 11.4983C16.2021 11.9502 16.1437 12.3611 16.1377 12.7324C16.1313 13.1032 16.1838 13.4091 16.2952 13.6502C16.4065 13.8913 16.5921 14.0368 16.8516 14.0863C17.0372 14.1234 17.2441 14.0402 17.4733 13.8362C17.702 13.6323 17.9307 13.369 18.1594 13.0473C18.3885 12.726 18.6109 12.3765 18.8276 11.9989C19.044 11.6217 19.2326 11.2726 19.3934 10.9505C19.1336 10.8395 18.9544 10.6573 18.8554 10.4038C18.7564 10.1504 18.7256 9.89308 18.7623 9.63322C18.7995 9.37379 18.8985 9.1455 19.0593 8.94751C19.2202 8.74952 19.4242 8.6501 19.6716 8.6501C19.7578 8.6501 19.8692 8.65693 20.0057 8.6693C20.1414 8.68168 20.2588 8.74611 20.3582 8.86345C20.4572 8.98122 20.5127 9.16982 20.525 9.42926C20.5374 9.68912 20.4691 10.0668 20.3211 10.5609C20.8156 10.5489 21.2116 10.4807 21.5086 10.3569C21.8052 10.2336 22.0377 10.0975 22.2045 9.94941C22.3718 9.80092 22.4823 9.65541 22.5382 9.51332C22.5937 9.37123 22.6338 9.28077 22.6586 9.24364C22.6957 9.15745 22.7541 9.10497 22.8348 9.08662C22.915 9.06784 22.9927 9.07723 23.0669 9.11435C23.1412 9.15148 23.1966 9.20993 23.2337 9.29015C23.2709 9.3708 23.2709 9.46084 23.2337 9.55983C23.1348 9.79452 22.9803 10.0113 22.7699 10.2088C22.5596 10.4068 22.3155 10.5737 22.0373 10.7094C21.7586 10.8459 21.4501 10.9509 21.1101 11.0256C20.7695 11.0998 20.4261 11.1301 20.0796 11.1177C19.9063 11.5013 19.687 11.928 19.4212 12.3978C19.1549 12.868 18.849 13.3041 18.5029 13.7057C18.1564 14.108 17.7758 14.4387 17.3619 14.6986C16.9472 14.958 16.5055 15.0694 16.0357 15.0323C15.417 14.9708 14.9314 14.7114 14.579 14.2536C14.2265 13.7961 14.0383 13.2393 14.0136 12.5834C14.0012 12.0889 14.0507 11.5726 14.1616 11.0345C14.2734 10.4964 14.4399 9.96733 14.6626 9.44803C14.8849 8.92831 15.1571 8.43675 15.4793 7.97293C15.8006 7.5091 16.1624 7.10459 16.5644 6.75811C16.9664 6.41205 17.405 6.14579 17.8812 5.9606C18.3574 5.77498 18.8554 5.69476 19.3751 5.71909C19.6098 5.73146 19.8048 5.78395 19.9597 5.87654C20.1141 5.96913 20.2404 6.0805 20.3394 6.21065C20.4384 6.34036 20.5127 6.48246 20.5622 6.63735C20.6112 6.79182 20.6484 6.93732 20.6735 7.07301Z" fill="white"/>
<path d="M29.8018 8.0719C29.7766 8.49262 29.684 8.93469 29.5236 9.39851C29.3627 9.86234 29.1797 10.3172 28.9757 10.7627C28.7717 11.2077 28.5678 11.6314 28.3638 12.0334C28.1598 12.4358 28.0024 12.7848 27.8906 13.0818C27.7796 13.3788 27.7327 13.6165 27.7511 13.7957C27.7698 13.9749 27.903 14.0645 28.1504 14.0645C28.2618 14.0645 28.4163 13.9749 28.6143 13.7957C28.8123 13.6165 29.0286 13.3818 29.2637 13.0908C29.4988 12.8006 29.7425 12.4725 29.9964 12.1072C30.2494 11.7428 30.4883 11.3805 30.7107 11.0221C30.9334 10.6633 31.1314 10.3202 31.3046 9.99205C31.4779 9.66435 31.6016 9.39552 31.6759 9.18516C31.713 9.08617 31.7744 9.02429 31.861 8.99955C31.9477 8.9748 32.0283 8.9748 32.1026 8.99955C32.1764 9.02429 32.2353 9.07379 32.2788 9.14804C32.3219 9.22228 32.3185 9.30293 32.2694 9.38912C32.1704 9.59991 32.0283 9.88708 31.8427 10.2519C31.6571 10.6167 31.4373 11.0068 31.1839 11.4211C30.9304 11.8358 30.6552 12.2531 30.3586 12.6734C30.0616 13.0942 29.7553 13.4774 29.4399 13.8234C29.1246 14.1699 28.8063 14.4541 28.4846 14.6768C28.1628 14.8996 27.8539 15.0113 27.5569 15.0113C27.3094 15.0237 27.0986 14.9648 26.9258 14.8351C26.7521 14.705 26.6101 14.5283 26.4991 14.3056C26.3877 14.0833 26.3101 13.8328 26.267 13.555C26.2235 13.2764 26.2205 12.9952 26.2576 12.7106C26.3195 12.2036 26.4368 11.7027 26.6101 11.2077C26.7833 10.7132 26.9719 10.24 27.1763 9.78809C27.3802 9.33664 27.5812 8.92231 27.7792 8.54511C27.9768 8.1679 28.1253 7.84062 28.2243 7.56199C28.3233 7.28378 28.3574 7.07043 28.3267 6.92193C28.296 6.77387 28.1504 6.7056 27.8906 6.71797C27.7545 6.73034 27.5629 6.83787 27.3158 7.04226C27.0683 7.24623 26.7987 7.50652 26.5081 7.82185C26.2175 8.13718 25.9239 8.48366 25.6269 8.86087C25.3299 9.23807 25.0645 9.60034 24.8299 9.9464C24.5943 10.4286 24.3502 10.9082 24.0968 11.384C23.8433 11.8602 23.6167 12.3086 23.4192 12.7289C23.2212 13.1492 23.0761 13.5205 22.9831 13.8418C22.8905 14.1635 22.8871 14.4114 22.9741 14.5846C23.0232 14.6836 22.9831 14.7852 22.8534 14.8902C22.7237 14.9956 22.5564 15.0506 22.3524 15.0574C22.148 15.0634 21.9381 14.9985 21.7213 14.8624C21.5054 14.7263 21.3411 14.4728 21.2298 14.1016C21.1312 13.8051 21.1372 13.4155 21.2485 12.9333C21.3599 12.4507 21.5208 11.9344 21.7307 11.384C21.9415 10.8339 22.1766 10.2707 22.4361 9.69592C22.6959 9.12073 22.9306 8.59119 23.1414 8.10902C23.3513 7.62685 23.5058 7.21252 23.6048 6.86604C23.7034 6.51998 23.7034 6.29724 23.6048 6.19782C23.5177 6.124 23.5583 6.03738 23.7251 5.93839C23.8924 5.83939 24.1023 5.78392 24.3562 5.77112C24.6097 5.75917 24.8665 5.81464 25.126 5.93839C25.3858 6.06213 25.571 6.30962 25.6828 6.68085C25.7319 6.84171 25.7502 7.01794 25.7383 7.20953C25.7259 7.40155 25.6948 7.60252 25.6457 7.81246C25.8804 7.54065 26.1185 7.28079 26.36 7.03288C26.6011 6.78539 26.8456 6.56948 27.0931 6.38386C27.3401 6.19825 27.5817 6.04975 27.8168 5.93839C28.0515 5.82702 28.2802 5.77112 28.5029 5.77112C28.9851 5.75917 29.3439 5.96911 29.5795 6.40221C29.8142 6.83531 29.8884 7.39173 29.8018 8.0719Z" fill="white"/>
<path d="M36.3718 7.24064C36.3718 7.14164 36.3995 7.04905 36.455 6.96243C36.5109 6.87581 36.5817 6.80156 36.6683 6.73969C36.6065 6.5912 36.5075 6.51695 36.3718 6.51695C36.1981 6.505 36.0065 6.58223 35.7961 6.74908C35.5858 6.91592 35.3601 7.157 35.119 7.47276C34.8779 7.78809 34.6274 8.17767 34.368 8.6415C34.1081 9.10532 33.8487 9.62206 33.5888 10.1904C33.428 10.5497 33.2948 10.9359 33.1899 11.3502C33.0845 11.765 33.0256 12.1605 33.0132 12.5377C33.0013 12.9153 33.0379 13.2456 33.1246 13.5302C33.2108 13.8148 33.3661 14.0004 33.5888 14.0871C33.8606 14.198 34.1512 14.096 34.4606 13.7807C34.7695 13.4654 35.0789 13.048 35.3882 12.5283C35.6976 12.009 35.9976 11.4492 36.2881 10.8493C36.5783 10.2493 36.8475 9.72063 37.095 9.26278C37.095 9.22608 37.1014 9.20133 37.1138 9.18896C37.4479 8.39742 37.7044 7.72324 37.8836 7.16639C38.0628 6.60997 38.1025 6.26392 38.0039 6.12737C37.9416 6.05312 37.9979 5.96693 38.1712 5.86751C38.3444 5.76894 38.5608 5.71347 38.8206 5.70067C39.0805 5.68872 39.3365 5.75059 39.5904 5.88628C39.8434 6.0224 40.026 6.28226 40.1374 6.66544C40.1993 6.87581 40.1686 7.2129 40.0448 7.67673C39.9211 8.14055 39.7478 8.66326 39.5251 9.24443C39.3024 9.82602 39.0493 10.4349 38.7647 11.072C38.4801 11.7091 38.2083 12.309 37.9484 12.8714C37.689 13.4346 37.4594 13.9262 37.2619 14.3465C37.0639 14.7672 36.9406 15.0578 36.8911 15.2183C37.3361 14.9217 37.8004 14.5044 38.2825 13.9663C38.7647 13.4282 39.2162 12.8654 39.6369 12.2779C40.0572 11.6903 40.4284 11.1185 40.7502 10.5617C41.0715 10.0052 41.2938 9.55976 41.4175 9.22608C41.4546 9.11471 41.5169 9.04345 41.6036 9.01273C41.6898 8.98158 41.77 8.97859 41.8442 9.00334C41.9185 9.02809 41.9774 9.07759 42.0209 9.15183C42.064 9.22608 42.0674 9.30673 42.0303 9.39292C41.7457 10.0236 41.3902 10.6888 40.9635 11.3873C40.5368 12.0863 40.0696 12.7575 39.5626 13.4005C39.0553 14.0435 38.5236 14.6222 37.9672 15.135C37.4108 15.6479 36.8663 16.0409 36.3346 16.3132C36.2604 16.4988 36.161 16.7369 36.0377 17.0275C35.9139 17.3181 35.7868 17.6121 35.657 17.9086C35.5269 18.2056 35.4096 18.4838 35.305 18.7437C35.1996 19.0035 35.122 19.1951 35.0729 19.3189C34.9491 19.6649 34.7541 19.9589 34.4883 20.2C34.2216 20.4411 33.9225 20.6267 33.5888 20.7564C33.2547 20.8866 32.9082 20.9608 32.5498 20.9792C32.1909 20.9979 31.8568 20.9608 31.5479 20.8682C31.2385 20.7752 30.9697 20.6203 30.7406 20.404C30.5119 20.1876 30.3668 19.9124 30.3049 19.5787C30.2925 19.4674 30.3079 19.3342 30.351 19.1798C30.3945 19.0249 30.5029 18.861 30.6757 18.6878C30.8737 18.4898 31.1118 18.3106 31.39 18.1501C31.6682 17.9893 31.9584 17.8344 32.2618 17.6863C32.5647 17.5378 32.8621 17.3863 33.1527 17.2314C33.4429 17.0765 33.6938 16.9071 33.9042 16.7211C34.0275 16.375 34.1725 15.9914 34.3394 15.5711C34.5067 15.1504 34.6893 14.7113 34.8873 14.2539C34.5284 14.6004 34.1359 14.8321 33.7091 14.9494C33.2824 15.0672 32.8024 15.0211 32.2712 14.8103C31.7762 14.6128 31.4212 14.3218 31.2044 13.9381C30.9881 13.5554 30.8613 13.1377 30.8242 12.6858C30.7871 12.2348 30.8242 11.765 30.9356 11.276C31.047 10.7874 31.1826 10.3389 31.3431 9.93099C31.6401 9.17658 31.9712 8.53013 32.3364 7.99206C32.7013 7.45399 33.0879 7.01491 33.4958 6.67483C33.9042 6.33475 34.3245 6.09025 34.7576 5.94176C35.1902 5.79369 35.6293 5.72584 36.0748 5.73779C36.2233 5.75059 36.3807 5.7779 36.548 5.82143C36.7148 5.86495 36.8693 5.93578 37.0118 6.03478C37.1539 6.13377 37.2742 6.26648 37.3732 6.43374C37.4722 6.60058 37.5217 6.80796 37.5217 7.05502C37.5217 7.30293 37.4663 7.48172 37.3549 7.59309C37.2559 7.71684 37.1198 7.77871 36.9465 7.77871C36.7985 7.77871 36.6653 7.72964 36.548 7.63021C36.4302 7.53122 36.3718 7.4015 36.3718 7.24064ZM33.6443 17.5562C33.4587 17.7046 33.2483 17.8344 33.0132 17.9457C32.7785 18.0571 32.5434 18.1685 32.3087 18.2798C32.0732 18.3912 31.8474 18.5145 31.6311 18.6506C31.4148 18.7868 31.2385 18.9476 31.1024 19.1332C31.0162 19.2566 30.9817 19.3931 31 19.5416C31.0188 19.6897 31.0747 19.8228 31.1673 19.9401C31.2603 20.0579 31.3777 20.1475 31.5197 20.2094C31.6623 20.2713 31.8193 20.2772 31.9925 20.2277C32.1658 20.1782 32.3458 20.0579 32.531 19.8663C32.7166 19.6743 32.889 19.3803 33.0499 18.9848C33.1246 18.8115 33.2146 18.6075 33.3196 18.3729C33.4245 18.1373 33.5329 17.8655 33.6443 17.5562Z" fill="white"/>
<path d="M41.9526 9.57573C41.9155 9.64998 41.8566 9.69948 41.7764 9.72423C41.6957 9.74897 41.621 9.74897 41.5532 9.72423C41.4853 9.69948 41.4299 9.65297 41.3868 9.58469C41.3437 9.51728 41.3403 9.43364 41.3774 9.33465C41.4145 9.22328 41.4824 9.05345 41.5814 8.82431C41.6804 8.5956 41.7793 8.35451 41.8783 8.10063C41.9773 7.84716 42.0759 7.59968 42.1749 7.35859C42.2735 7.1175 42.3422 6.91653 42.3793 6.75566C42.0947 6.61954 41.8506 6.40321 41.6466 6.10622C41.4427 5.80924 41.3398 5.51268 41.3398 5.21569C41.3398 4.83252 41.4388 4.50481 41.6368 4.23257C41.8344 3.96034 42.1318 3.82422 42.5278 3.82422C42.7753 3.82422 42.9886 3.9262 43.1678 4.13016C43.347 4.33455 43.4426 4.57905 43.455 4.86324C43.455 5.0241 43.4456 5.24642 43.4273 5.53103C43.4089 5.81564 43.3744 6.05075 43.3253 6.23594C43.3867 6.28586 43.4708 6.31658 43.5762 6.32896C43.6812 6.34133 43.7955 6.34773 43.9193 6.34773C44.1911 6.34773 44.4044 6.31658 44.5593 6.25471C44.7138 6.19284 44.8469 6.12798 44.9583 6.05971C45.0696 5.99229 45.181 5.92701 45.2924 5.86513C45.4033 5.80326 45.5518 5.77211 45.7374 5.77211C45.9849 5.77211 46.232 5.83441 46.4795 5.95773C46.727 6.0819 46.9062 6.32256 47.0175 6.68141C47.1289 7.04027 47.1101 7.47636 46.9621 7.98926C46.8136 8.50258 46.6062 9.03766 46.3404 9.59408C46.0745 10.1509 45.7899 10.7014 45.487 11.2454C45.1836 11.7899 44.9305 12.2751 44.7261 12.7018C44.5222 13.1289 44.4044 13.469 44.3737 13.7224C44.343 13.9763 44.4688 14.0907 44.7535 14.0655C44.8653 14.0535 45.0197 13.9541 45.2181 13.7689C45.4157 13.5833 45.6325 13.3452 45.8672 13.0542C46.1023 12.7641 46.3434 12.4393 46.5908 12.0805C46.8383 11.7216 47.0726 11.3632 47.2953 11.0043C47.5181 10.6455 47.7156 10.3054 47.8893 9.98409C48.0621 9.66235 48.1863 9.39652 48.2605 9.18616C48.2976 9.08716 48.3591 9.02529 48.4457 9.00054C48.5319 8.97579 48.613 8.97579 48.6872 9.00054C48.7619 9.02529 48.8204 9.07479 48.8635 9.14903C48.907 9.22328 48.9031 9.30392 48.8541 9.39012C48.7546 9.60091 48.6126 9.88808 48.4274 10.2529C48.2417 10.6177 48.0224 11.0073 47.769 11.4216C47.5155 11.8364 47.2403 12.2537 46.9433 12.674C46.6463 13.0947 46.3404 13.4784 46.025 13.8244C45.7097 14.1709 45.391 14.4551 45.0696 14.6778C44.7479 14.9005 44.439 15.0119 44.142 15.0119C43.8945 15.0243 43.6812 14.9748 43.5019 14.8634C43.3223 14.7521 43.1772 14.5942 43.0659 14.3902C42.9545 14.1862 42.8802 13.9388 42.8431 13.6482C42.806 13.3576 42.806 13.0452 42.8431 12.7111C42.8926 12.229 43.01 11.7156 43.1956 11.1712C43.3808 10.6271 43.5856 10.092 43.8079 9.56635C44.0306 9.04108 44.247 8.54909 44.4573 8.09124C44.6673 7.63381 44.8217 7.24423 44.9207 6.9225C44.6609 7.02192 44.3673 7.08038 44.04 7.09873C43.7123 7.1175 43.3872 7.08337 43.0659 6.99675C43.0287 7.08337 42.9639 7.24125 42.8709 7.46996C42.7783 7.6991 42.6763 7.94616 42.5649 8.21199C42.4535 8.47826 42.3422 8.73812 42.2308 8.99115C42.1199 9.24504 42.0268 9.43962 41.9526 9.57573Z" fill="white"/>
<path d="M52.9361 7.23814C52.9361 7.13915 52.9639 7.04698 53.0198 6.96036C53.0752 6.87374 53.1465 6.79949 53.2331 6.73762C53.1708 6.58913 53.0718 6.51445 52.9361 6.51445C52.7629 6.50251 52.5709 6.58017 52.3605 6.74701C52.1501 6.91385 51.9244 7.15493 51.6833 7.47027C51.4422 7.78603 51.1918 8.1756 50.9319 8.63943C50.672 9.10325 50.413 9.61999 50.1532 10.1884C49.9923 10.5472 49.8592 10.9334 49.7542 11.3477C49.6488 11.7625 49.5899 12.158 49.5775 12.5352C49.5652 12.9124 49.6023 13.2435 49.6889 13.5282C49.7751 13.8128 49.9304 13.998 50.1532 14.0841C50.326 14.1584 50.5082 14.14 50.7002 14.0287C50.8914 13.9173 51.0834 13.7441 51.275 13.509C51.467 13.2743 51.665 12.9897 51.8694 12.6555C52.0733 12.3219 52.2705 11.9728 52.4625 11.608C52.6541 11.2432 52.8401 10.8779 53.0198 10.5127C53.1985 10.1478 53.3684 9.81115 53.5292 9.50222C53.7025 9.09387 53.8727 8.70685 54.0396 8.34202C54.2068 7.97719 54.3455 7.64991 54.4569 7.35932C54.5683 7.06874 54.6425 6.82083 54.6796 6.61686C54.7167 6.4129 54.698 6.27337 54.6242 6.19912C54.5371 6.12488 54.5781 6.03868 54.7449 5.93969C54.9117 5.84112 55.1191 5.78479 55.3666 5.77242C55.6137 5.76047 55.8701 5.81637 56.1364 5.93969C56.4022 6.06386 56.5904 6.31049 56.7018 6.68129C56.8131 7.04058 56.7952 7.47667 56.6467 7.98956C56.4982 8.50288 56.2908 9.03754 56.025 9.59439C55.7592 10.1508 55.4746 10.7021 55.1716 11.2462C54.8687 11.7902 54.6148 12.2758 54.4108 12.7025C54.2068 13.1292 54.0891 13.4693 54.0579 13.7223C54.0272 13.9762 54.1535 14.0905 54.4385 14.0654C54.5499 14.0534 54.7044 13.9549 54.9024 13.7692C55.0999 13.5836 55.3171 13.3455 55.5522 13.0545C55.7869 12.7639 56.0306 12.4396 56.2844 12.0808C56.5379 11.7224 56.7734 11.3635 56.9898 11.0051C57.2061 10.6462 57.4007 10.3061 57.5739 9.98439C57.7468 9.66309 57.8705 9.39683 57.9452 9.18603C57.9823 9.08704 58.0437 9.02559 58.1304 9.00042C58.217 8.9761 58.2972 8.9761 58.3719 9.00042C58.4461 9.02559 58.505 9.07509 58.5485 9.14934C58.5916 9.22316 58.5886 9.30423 58.5391 9.39042C58.4397 9.60122 58.2976 9.88839 58.1124 10.2528C57.9268 10.618 57.7066 11.0081 57.4532 11.4224C57.1997 11.8367 56.9245 12.254 56.6275 12.6747C56.331 13.0955 56.025 13.4787 55.7097 13.8247C55.3943 14.1712 55.0756 14.4554 54.7539 14.6781C54.4321 14.9009 54.1232 15.0118 53.8262 15.0118C53.356 15.037 53.0035 14.8454 52.7684 14.437C52.5337 14.0291 52.4471 13.509 52.5094 12.8783C52.2743 13.2619 52.0268 13.6118 51.767 13.9271C51.5071 14.2425 51.2259 14.4925 50.9229 14.6781C50.62 14.8637 50.2978 14.9747 49.9577 15.0118C49.6177 15.0489 49.2439 14.9815 48.8355 14.8083C48.3405 14.6103 47.9851 14.3193 47.7688 13.9357C47.5524 13.5525 47.4257 13.1352 47.389 12.6833C47.3519 12.2323 47.3886 11.7625 47.4995 11.2735C47.6109 10.7849 47.747 10.3368 47.9079 9.92892C48.2048 9.17451 48.5355 8.52763 48.9008 7.98956C49.2656 7.45149 49.6518 7.01242 50.0601 6.67233C50.4681 6.33225 50.8884 6.08818 51.3215 5.93969C51.7542 5.79119 52.1937 5.72378 52.6387 5.73572C52.7872 5.7481 52.9447 5.77541 53.1119 5.81893C53.2788 5.86203 53.4341 5.93329 53.5762 6.03228C53.7183 6.13128 53.8386 6.26398 53.9376 6.43082C54.0366 6.59809 54.0865 6.80546 54.0865 7.05253C54.0865 7.32476 54.0238 7.5108 53.9005 7.6098C53.801 7.72074 53.6713 7.77621 53.5109 7.77621C53.3624 7.77621 53.2293 7.72757 53.1119 7.62815C52.9942 7.52915 52.9361 7.39901 52.9361 7.23814Z" fill="white"/>
<path d="M55.3502 4.9748C55.3382 5.14804 55.2896 5.26239 55.2051 5.31786C55.1206 5.37376 55.0272 5.36736 54.9243 5.29952C54.8219 5.23167 54.737 5.10153 54.6704 4.90994C54.6039 4.71835 54.583 4.46147 54.6077 4.13974C54.6564 3.62044 54.8573 3.22446 55.2102 2.95266C55.5635 2.68085 56.0214 2.49779 56.5842 2.4052C57.147 2.3126 57.7837 2.27847 58.4945 2.30322C59.2059 2.32796 59.9445 2.37746 60.7117 2.45128C60.9221 1.89486 61.0765 1.43744 61.1759 1.07858C61.2749 0.720151 61.2929 0.509788 61.231 0.447916C61.1444 0.37367 61.1849 0.287049 61.3517 0.188055C61.519 0.0890597 61.7255 0.033588 61.973 0.021214C62.2205 0.0088399 62.477 0.0647372 62.7432 0.188055C63.0091 0.311798 63.1981 0.559285 63.3094 0.930089C63.3709 1.10376 63.3769 1.33844 63.3278 1.635C63.2783 1.93198 63.1981 2.26609 63.0867 2.6369C63.6312 2.66207 64.1744 2.66207 64.7193 2.6369C65.2633 2.61257 65.7519 2.56606 66.185 2.49779C66.6181 2.43037 66.9671 2.34034 67.2334 2.22897C67.4992 2.1176 67.6324 1.98148 67.6324 1.82062C67.6324 1.635 67.6878 1.53942 67.7988 1.53345C67.9101 1.52704 68.0215 1.57356 68.1329 1.67212C68.2438 1.77155 68.3211 1.90126 68.3646 2.0617C68.4077 2.223 68.3556 2.37106 68.2071 2.50718C68.0463 2.66805 67.7894 2.81995 67.4374 2.96162C67.0845 3.10414 66.6638 3.22788 66.1756 3.33285C65.6866 3.43782 65.146 3.52742 64.552 3.60167C63.958 3.67634 63.3397 3.71944 62.6967 3.73181C62.4368 4.3996 62.1241 5.12329 61.7597 5.90245C61.3948 6.6816 61.03 7.45777 60.6652 8.23096C60.3003 9.00414 59.9479 9.74618 59.6078 10.4575C59.2673 11.1688 58.9955 11.7931 58.7915 12.3311C58.5871 12.8692 58.4638 13.2989 58.4207 13.6206C58.3772 13.9424 58.4668 14.0909 58.6895 14.0657C58.8129 14.0537 58.9707 13.9543 59.1628 13.7691C59.3539 13.5835 59.5673 13.3454 59.8028 13.0548C60.0375 12.7642 60.279 12.4395 60.5265 12.0807C60.7736 11.7222 61.0087 11.3634 61.231 11.0045C61.4537 10.6461 61.6517 10.306 61.825 9.98428C61.9978 9.66254 62.1219 9.39671 62.1958 9.18634C62.2329 9.08735 62.2948 9.0259 62.3814 9.00073C62.4676 8.97598 62.5486 8.97598 62.6225 9.00073C62.6967 9.0259 62.7552 9.07497 62.7991 9.14922C62.8418 9.22347 62.8392 9.30411 62.7897 9.39031C62.6907 9.6011 62.5491 9.8887 62.363 10.2531C62.1774 10.6184 61.9581 11.0079 61.7046 11.4218C61.4512 11.8366 61.1755 12.2539 60.8785 12.6742C60.582 13.0949 60.2756 13.4785 59.9603 13.8246C59.6449 14.1711 59.3262 14.4553 59.0049 14.678C58.6831 14.9007 58.3742 15.0121 58.0777 15.0121C57.8302 15.0245 57.6168 14.975 57.4376 14.8636C57.2584 14.7522 57.1125 14.5944 57.0011 14.3904C56.8897 14.1864 56.8155 13.9389 56.7783 13.6484C56.7412 13.3578 56.7412 13.0454 56.7783 12.7113C56.8278 12.3281 56.9734 11.7871 57.2144 11.0882C57.4555 10.3892 57.7435 9.62243 58.0777 8.78738C58.4113 7.95275 58.7668 7.09294 59.1444 6.20882C59.5216 5.32427 59.8707 4.4986 60.1928 3.73181C59.5494 3.73181 58.9366 3.74077 58.3554 3.75955C57.7743 3.7779 57.2639 3.83081 56.8249 3.917C56.3858 4.00405 56.0333 4.13035 55.7675 4.29762C55.5012 4.46446 55.3626 4.69019 55.3502 4.9748Z" fill="white"/>
<path d="M71.3414 9.38869C71.2424 9.59948 71.1003 9.88665 70.9147 10.2515C70.7291 10.6163 70.5093 11.0067 70.2559 11.4206C70.002 11.8354 69.7272 12.2527 69.4302 12.673C69.1336 13.0937 68.8273 13.4773 68.5119 13.8234C68.1966 14.1699 67.8783 14.4541 67.5565 14.6768C67.2348 14.8995 66.9255 15.0109 66.6289 15.0109C66.3814 15.0233 66.1681 14.9738 65.9888 14.8624C65.8092 14.7511 65.6641 14.5932 65.5528 14.3892C65.4414 14.1852 65.3671 13.9373 65.33 13.6467C65.2929 13.3562 65.2929 13.0442 65.33 12.7101C65.33 12.6487 65.3364 12.5894 65.3488 12.5339C65.3607 12.4784 65.3735 12.4196 65.3859 12.3573C65.1508 12.7037 64.9063 13.0349 64.6528 13.3502C64.399 13.6655 64.1429 13.9471 63.8831 14.1946C63.6232 14.4421 63.3638 14.6397 63.1035 14.7882C62.8441 14.9367 62.5966 15.0109 62.3615 15.0109C62.1144 15.0233 61.901 14.9738 61.7218 14.8624C61.5426 14.7511 61.3971 14.5932 61.2857 14.3892C61.1744 14.1852 61.1001 13.9373 61.063 13.6467C61.0259 13.3562 61.0259 13.0442 61.063 12.7101C61.1125 12.3022 61.2085 11.8691 61.3506 11.4117C61.4927 10.9538 61.657 10.496 61.8422 10.0381C62.0278 9.5807 62.2159 9.13864 62.408 8.71194C62.6 8.28524 62.7664 7.89864 62.9089 7.55259C63.051 7.20611 63.1504 6.9151 63.2059 6.67998C63.2614 6.4453 63.2456 6.28486 63.1594 6.19781C63.0728 6.12399 63.1133 6.03737 63.2797 5.93838C63.447 5.83938 63.6539 5.78391 63.9014 5.77111C64.1489 5.75916 64.4054 5.81506 64.6716 5.93838C64.9375 6.06212 65.1261 6.30875 65.2374 6.67998C65.3488 7.03884 65.33 7.47493 65.1815 7.98783C65.0335 8.50115 64.8257 9.03623 64.5598 9.59308C64.294 10.1495 64.0094 10.7004 63.7064 11.2444C63.4035 11.7889 63.1504 12.274 62.946 12.7007C62.7421 13.1279 62.6243 13.468 62.5936 13.7214C62.5629 13.9753 62.6896 14.0892 62.9742 14.0641C63.1223 14.0521 63.3386 13.8976 63.6232 13.6007C63.9074 13.3037 64.2078 12.9363 64.5231 12.4968C64.8385 12.0577 65.1474 11.5935 65.4508 11.1049C65.7537 10.6163 66.0042 10.1802 66.2022 9.79704C66.3878 9.36394 66.57 8.95047 66.7492 8.55406C66.9284 8.15851 67.0833 7.79666 67.2131 7.46853C67.3432 7.14082 67.4328 6.8656 67.4823 6.64286C67.5314 6.42012 67.513 6.27206 67.4264 6.19781C67.3398 6.12399 67.3803 6.03737 67.5472 5.93838C67.714 5.83938 67.921 5.78391 68.1684 5.77111C68.4164 5.75916 68.6724 5.81506 68.9386 5.93838C69.2045 6.06212 69.3935 6.30875 69.5044 6.67998C69.6158 7.03884 69.5975 7.47493 69.4485 7.98783C69.3005 8.50115 69.0931 9.03623 68.8273 9.59308C68.561 10.1495 68.2768 10.7004 67.9739 11.2444C67.6705 11.7889 67.4174 12.274 67.2131 12.7007C67.0095 13.1279 66.8913 13.468 66.8606 13.7214C66.8299 13.9753 66.9566 14.0892 67.2412 14.0641C67.3522 14.0521 67.507 13.9531 67.705 13.7679C67.9026 13.5823 68.1189 13.3438 68.3545 13.0528C68.5892 12.7626 68.8303 12.4383 69.0777 12.0795C69.3248 11.7206 69.5603 11.3622 69.7831 11.0033C70.0054 10.6445 70.2034 10.3048 70.3766 9.98308C70.5499 9.66135 70.6736 9.39509 70.7474 9.18472C70.7845 9.08573 70.8464 9.02428 70.933 8.99911C71.0197 8.97436 71.1003 8.97436 71.1741 8.99911C71.2484 9.02428 71.3073 9.07378 71.3504 9.14803C71.3939 9.22227 71.3905 9.30249 71.3414 9.38869Z" fill="white"/>
<path d="M75.5896 9.39063C75.4906 9.60142 75.3489 9.88859 75.1629 10.2534C74.9773 10.6183 74.7579 11.0083 74.5045 11.4222C74.2506 11.8369 73.9758 12.2542 73.6784 12.6745C73.3818 13.0953 73.0754 13.4789 72.7605 13.8249C72.4452 14.1714 72.1265 14.4556 71.8052 14.6783C71.483 14.9011 71.1741 15.0124 70.8771 15.0124C70.63 15.0248 70.4167 14.9753 70.237 14.8639C70.0578 14.7526 69.9123 14.5947 69.8014 14.3907C69.69 14.1868 69.6157 13.9393 69.5786 13.6487C69.5415 13.3581 69.5415 13.0458 69.5786 12.7117C69.6281 12.3037 69.783 11.7285 70.0424 10.9865C70.3019 10.244 70.6112 9.43117 70.9701 8.54661C71.329 7.66249 71.7057 6.75916 72.1017 5.83791C72.4977 4.91666 72.8531 4.06923 73.1685 3.29605C73.4838 2.52329 73.7283 1.87684 73.9015 1.35711C74.0744 0.837817 74.1179 0.534858 74.0313 0.447811C73.9446 0.373992 73.9847 0.287371 74.152 0.188377C74.3189 0.0893818 74.5258 0.0339101 74.7733 0.0211095C75.0208 0.00916193 75.2772 0.0650593 75.5435 0.188377C75.8093 0.31212 75.9979 0.559607 76.1093 0.930411C76.1955 1.20265 76.1707 1.60161 76.0351 2.12731C75.8989 2.65301 75.698 3.24954 75.4321 3.91732C75.1659 4.58554 74.8535 5.30624 74.4955 6.079C74.1362 6.85218 73.7744 7.61598 73.41 8.37039C73.0447 9.12479 72.6987 9.85189 72.371 10.5504C72.0428 11.2489 71.777 11.8617 71.573 12.3869C71.3686 12.9131 71.2513 13.3304 71.2206 13.6393C71.1894 13.9487 71.279 14.0912 71.4898 14.066C71.6131 14.0541 71.771 13.9546 71.9626 13.7694C72.1542 13.5838 72.3675 13.3457 72.6027 13.0547C72.8378 12.7646 73.0784 12.4398 73.3263 12.081C73.5734 11.7221 73.8085 11.3637 74.0313 11.0048C74.254 10.646 74.4516 10.3063 74.6248 9.9846C74.7985 9.66287 74.9222 9.39703 74.996 9.18667C75.0332 9.08767 75.095 9.02623 75.1816 9.00105C75.2678 8.9763 75.3489 8.9763 75.4227 9.00105C75.497 9.02623 75.5554 9.0753 75.599 9.14954C75.6421 9.22379 75.6391 9.30444 75.5896 9.39063Z" fill="white"/>
<path d="M79.69 7.23814C79.69 7.13915 79.7178 7.04698 79.7737 6.96036C79.8291 6.87374 79.9004 6.79949 79.987 6.73762C79.9251 6.58913 79.8257 6.51445 79.69 6.51445C79.5168 6.50251 79.3248 6.58017 79.1144 6.74701C78.904 6.91385 78.6787 7.15493 78.4372 7.47027C78.1961 7.78603 77.9457 8.1756 77.6862 8.63943C77.4259 9.10325 77.1665 9.61999 76.9071 10.1884C76.7462 10.5472 76.6131 10.9334 76.5081 11.3477C76.4031 11.7625 76.3438 12.158 76.3314 12.5352C76.3195 12.9124 76.3566 13.2435 76.4437 13.5282C76.5299 13.8128 76.6839 13.998 76.9071 14.0841C77.0799 14.1584 77.2625 14.14 77.4541 14.0287C77.6457 13.9173 77.8373 13.7441 78.0289 13.509C78.2209 13.2743 78.4189 12.9897 78.6233 12.6555C78.8277 12.3219 79.0248 11.9728 79.2172 11.608C79.4088 11.2432 79.594 10.8779 79.7737 10.5127C79.9524 10.1478 80.1227 9.81115 80.2836 9.50222C80.4564 9.09387 80.6266 8.70685 80.7935 8.34202C80.9607 7.97719 81.0998 7.64991 81.2108 7.35932C81.3222 7.06874 81.3964 6.82083 81.4335 6.61686C81.4706 6.4129 81.4523 6.27337 81.3781 6.19912C81.2914 6.12488 81.3324 6.03868 81.4988 5.93969C81.6661 5.84112 81.873 5.78479 82.1205 5.77242C82.3676 5.76047 82.624 5.81637 82.8903 5.93969C83.1557 6.06386 83.3443 6.31049 83.4557 6.68129C83.5675 7.04058 83.5491 7.47667 83.4006 7.98956C83.2526 8.50288 83.0447 9.03754 82.7789 9.59439C82.5131 10.1508 82.2285 10.7021 81.9255 11.2462C81.6226 11.7902 81.3691 12.2758 81.1647 12.7025C80.9607 13.1292 80.8434 13.4693 80.8127 13.7223C80.7815 13.9762 80.9074 14.0905 81.1924 14.0654C81.3038 14.0534 81.4587 13.9549 81.6563 13.7692C81.8538 13.5836 82.071 13.3455 82.3061 13.0545C82.5412 12.7639 82.7849 12.4396 83.0388 12.0808C83.2918 11.7224 83.5269 11.3635 83.7437 11.0051C83.96 10.6462 84.1546 10.3061 84.3278 9.98439C84.5007 9.66309 84.6244 9.39683 84.6991 9.18603C84.7362 9.08704 84.7981 9.02559 84.8847 9.00042C84.9709 8.9761 85.0511 8.9761 85.1258 9.00042C85.2 9.02559 85.2589 9.07509 85.3024 9.14934C85.3455 9.22316 85.3425 9.30423 85.293 9.39042C85.1936 9.60122 85.0515 9.88839 84.8663 10.2528C84.6807 10.618 84.4614 11.0081 84.2079 11.4224C83.9541 11.8367 83.6788 12.254 83.3814 12.6747C83.0849 13.0955 82.7785 13.4787 82.4632 13.8247C82.1482 14.1712 81.8295 14.4554 81.5082 14.6781C81.186 14.9009 80.8771 15.0118 80.5801 15.0118C80.1099 15.037 79.7574 14.8454 79.5223 14.437C79.2876 14.0291 79.201 13.509 79.2633 12.8783C79.0282 13.2619 78.7807 13.6118 78.5209 13.9271C78.261 14.2425 77.9798 14.4925 77.6768 14.6781C77.3739 14.8637 77.0517 14.9747 76.7116 15.0118C76.3716 15.0489 75.9982 14.9815 75.5903 14.8083C75.0949 14.6103 74.739 14.3193 74.5227 13.9357C74.3063 13.5525 74.18 13.1352 74.1429 12.6833C74.1058 12.2323 74.1425 11.7625 74.2538 11.2735C74.3648 10.7849 74.5013 10.3368 74.6618 9.92892C74.9587 9.17451 75.2894 8.52763 75.6547 7.98956C76.0195 7.45149 76.4061 7.01242 76.814 6.67233C77.2224 6.33225 77.6423 6.08818 78.0758 5.93969C78.5081 5.79119 78.9476 5.72378 79.393 5.73572C79.5411 5.7481 79.6986 5.77541 79.8658 5.81893C80.0331 5.86203 80.1876 5.93329 80.3296 6.03228C80.4717 6.13128 80.5925 6.26398 80.6915 6.43082C80.7905 6.59809 80.8404 6.80546 80.8404 7.05253C80.8404 7.32476 80.7781 7.5108 80.6544 7.6098C80.5549 7.72074 80.4257 7.77621 80.2648 7.77621C80.1163 7.77621 79.9832 7.72757 79.8658 7.62815C79.7485 7.52915 79.69 7.39901 79.69 7.23814Z" fill="white"/>
<path d="M82.0998 4.9748C82.0878 5.14804 82.0396 5.26239 81.9547 5.31786C81.8706 5.37376 81.7772 5.36736 81.6743 5.29952C81.5719 5.23167 81.487 5.10153 81.4204 4.90994C81.3539 4.71835 81.333 4.46147 81.3577 4.13974C81.4059 3.62044 81.6069 3.22446 81.9598 2.95266C82.3127 2.68085 82.7705 2.49779 83.3338 2.4052C83.8966 2.3126 84.5332 2.27847 85.2445 2.30322C85.9554 2.32796 86.6945 2.37746 87.4613 2.45128C87.6721 1.89486 87.8261 1.43744 87.9251 1.07858C88.0245 0.720151 88.0429 0.509788 87.981 0.447916C87.8944 0.37367 87.9349 0.287049 88.1013 0.188055C88.2686 0.0890597 88.4755 0.033588 88.723 0.021214C88.9705 0.0088399 89.227 0.0647372 89.4932 0.188055C89.7591 0.311798 89.9477 0.559285 90.059 0.930089C90.1209 1.10376 90.1269 1.33844 90.0774 1.635C90.0279 1.93198 89.9477 2.26609 89.8363 2.6369C90.3803 2.66207 90.9248 2.66207 91.4688 2.6369C92.0129 2.61257 92.5015 2.56606 92.935 2.49779C93.3672 2.43037 93.7171 2.34034 93.983 2.22897C94.2488 2.1176 94.3819 1.98148 94.3819 1.82062C94.3819 1.635 94.4374 1.53942 94.5488 1.53345C94.6601 1.52704 94.7715 1.57356 94.8829 1.67212C94.9943 1.77155 95.0711 1.90126 95.1146 2.0617C95.1581 2.223 95.1052 2.37106 94.9571 2.50718C94.7963 2.66805 94.5394 2.81995 94.1869 2.96162C93.8345 3.10414 93.4142 3.22788 92.9252 3.33285C92.437 3.43782 91.8955 3.52742 91.302 3.60167C90.7085 3.67634 90.0897 3.71944 89.4467 3.73181C89.1868 4.3996 88.8745 5.12329 88.5097 5.90245C88.1448 6.6816 87.78 7.45777 87.4152 8.23096C87.0503 9.00414 86.6975 9.74618 86.3578 10.4575C86.0173 11.1688 85.7455 11.7931 85.5411 12.3311C85.3371 12.8692 85.2134 13.2989 85.1703 13.6206C85.1268 13.9424 85.2168 14.0909 85.4391 14.0657C85.5629 14.0537 85.7203 13.9543 85.9128 13.7691C86.1039 13.5835 86.3173 13.3454 86.5528 13.0548C86.7871 12.7642 87.0286 12.4395 87.2761 12.0807C87.5231 11.7222 87.7587 11.3634 87.981 11.0045C88.2037 10.6461 88.4017 10.306 88.575 9.98428C88.7478 9.66254 88.8715 9.39671 88.9458 9.18634C88.9829 9.08735 89.0443 9.0259 89.1314 9.00073C89.218 8.97598 89.2982 8.97598 89.3725 9.00073C89.4467 9.0259 89.5052 9.07497 89.5487 9.14922C89.5922 9.22347 89.5888 9.30411 89.5397 9.39031C89.4403 9.6011 89.2982 9.8887 89.113 10.2531C88.9274 10.6184 88.7072 11.0079 88.4542 11.4218C88.2007 11.8366 87.9251 12.2539 87.6285 12.6742C87.332 13.0949 87.0256 13.4785 86.7103 13.8246C86.3945 14.1711 86.0762 14.4553 85.7545 14.678C85.4331 14.9007 85.1238 15.0121 84.8272 15.0121C84.5797 15.0245 84.3664 14.975 84.1872 14.8636C84.008 14.7522 83.8625 14.5944 83.7511 14.3904C83.6393 14.1864 83.5655 13.9389 83.5283 13.6484C83.4912 13.3578 83.4912 13.0454 83.5283 12.7113C83.5778 12.3281 83.7234 11.7871 83.9644 11.0882C84.2055 10.3892 84.4927 9.62243 84.8272 8.78738C85.1609 7.95275 85.5164 7.09294 85.894 6.20882C86.2708 5.32427 86.6202 4.4986 86.9424 3.73181C86.2989 3.73181 85.6866 3.74077 85.1054 3.75955C84.5243 3.7779 84.0139 3.83081 83.5749 3.917C83.1358 4.00405 82.7833 4.13035 82.5175 4.29762C82.2512 4.46446 82.1121 4.69019 82.0998 4.9748Z" fill="white"/>
<path d="M93.4012 10.2543C93.2155 10.6191 92.9958 11.0091 92.7428 11.423C92.4889 11.8378 92.2136 12.2551 91.9167 12.6754C91.6201 13.0961 91.3137 13.4797 90.9988 13.8258C90.6831 14.1723 90.3643 14.4564 90.043 14.6792C89.7213 14.9019 89.4123 15.0137 89.1154 15.0137C88.8683 15.0261 88.6549 14.9766 88.4753 14.8652C88.2961 14.7539 88.1506 14.5955 88.0392 14.3916C87.9278 14.1876 87.854 13.9401 87.8169 13.6495C87.7798 13.359 87.7798 13.047 87.8169 12.7129C87.8664 12.305 87.9624 11.8719 88.1045 11.4145C88.2466 10.9566 88.41 10.4988 88.5956 10.0409C88.7808 9.58351 88.9699 9.14144 89.1619 8.71474C89.3535 8.28804 89.5199 7.90102 89.6624 7.55496C89.8045 7.20848 89.9039 6.9179 89.9594 6.68279C90.0153 6.4481 89.9995 6.28766 89.9133 6.20061C89.8267 6.12679 89.8668 6.04017 90.0336 5.94118C90.2009 5.84218 90.4078 5.78671 90.6553 5.77391C90.9024 5.76196 91.1593 5.81786 91.4255 5.94118C91.6914 6.06492 91.8791 6.31155 91.9909 6.68279C92.1023 7.04164 92.0839 7.47773 91.9354 7.99063C91.7869 8.50395 91.5796 9.03903 91.3137 9.59545C91.0479 10.1523 90.7633 10.7032 90.4603 11.2472C90.1574 11.7917 89.9039 12.2764 89.6999 12.7031C89.4955 13.1303 89.3782 13.4703 89.3475 13.7238C89.3163 13.9777 89.4431 14.092 89.7277 14.0669C89.851 14.0549 90.0089 13.9559 90.2009 13.7707C90.3925 13.5851 90.6058 13.3466 90.8409 13.0556C91.0756 12.7654 91.3163 12.4411 91.5642 12.0823C91.8113 11.7234 92.0464 11.365 92.2687 11.0061C92.4919 10.6473 92.6894 10.3068 92.8627 9.98546C93.0359 9.66372 93.1601 9.39789 93.2343 9.18753C93.2714 9.08853 93.3329 9.02666 93.4199 9.00191C93.5061 8.97716 93.5868 8.97716 93.661 9.00191C93.7353 9.02666 93.7937 9.07616 93.8372 9.1504C93.8803 9.22465 93.8774 9.3053 93.8279 9.39149C93.7284 9.60228 93.5868 9.88945 93.4012 10.2543ZM92.5943 4.47503C92.6617 4.32654 92.7359 4.17805 92.8166 4.02998C92.8972 3.88106 92.9715 3.7394 93.0393 3.60328C93.1072 3.46759 93.1413 3.36176 93.1413 3.28752C93.1413 2.97859 93.0478 2.72513 92.8627 2.52756C92.677 2.32957 92.4705 2.18108 92.2418 2.08209C92.0127 1.98309 91.8053 1.93359 91.6201 1.93359C91.4345 1.93359 91.3415 1.97669 91.3415 2.06288C91.3415 2.13713 91.3048 2.24295 91.2305 2.37864C91.1563 2.51519 91.0731 2.66325 90.98 2.82369C90.887 2.98456 90.8034 3.13604 90.7291 3.27813C90.6549 3.42065 90.6182 3.53501 90.6182 3.62163C90.6182 3.93099 90.7172 4.18743 90.9148 4.3914C91.1127 4.59536 91.3261 4.74428 91.5548 4.8373C91.784 4.92989 91.9973 4.97598 92.1949 4.97598C92.3929 4.97598 92.4923 4.92648 92.4923 4.82749C92.4923 4.74129 92.526 4.62352 92.5943 4.47503Z" fill="white"/>
<path d="M99.1349 7.07301C99.1349 7.271 99.0978 7.41352 99.0235 7.49971C98.9245 7.68533 98.7701 7.77792 98.5597 7.77792C98.4116 7.77792 98.2781 7.72928 98.1612 7.63028C98.043 7.53129 97.9849 7.40157 97.9849 7.24071C97.9849 7.14171 98.0127 7.04826 98.0681 6.96164C98.124 6.87545 98.1949 6.80163 98.2815 6.73976C98.1825 6.56652 98.0681 6.47947 97.938 6.47947C97.8087 6.47947 97.6692 6.53195 97.5211 6.63735C97.3722 6.74232 97.2211 6.88484 97.0663 7.06405C96.9114 7.24327 96.7603 7.42589 96.6118 7.61151C96.3524 7.94562 96.1019 8.33178 95.8604 8.77086C95.6193 9.20993 95.406 9.66139 95.2203 10.1252C95.0352 10.589 94.8862 11.0473 94.7749 11.4983C94.6635 11.9502 94.605 12.3611 94.5986 12.7324C94.5922 13.1032 94.6456 13.4091 94.7565 13.6502C94.8679 13.8913 95.0535 14.0368 95.3129 14.0863C95.499 14.1234 95.7055 14.0402 95.9346 13.8362C96.1634 13.6323 96.3921 13.369 96.6208 13.0473C96.8499 12.726 97.0722 12.3765 97.289 11.9989C97.5053 11.6217 97.6939 11.2726 97.8548 10.9505C97.5954 10.8395 97.4157 10.6573 97.3167 10.4038C97.2177 10.1504 97.187 9.89308 97.2237 9.63322C97.2608 9.37379 97.3602 9.1455 97.5211 8.94751C97.6816 8.74952 97.8855 8.6501 98.133 8.6501C98.2192 8.6501 98.3306 8.65693 98.4671 8.6693C98.6032 8.68168 98.7201 8.74611 98.8196 8.86345C98.9186 8.98122 98.974 9.16982 98.9864 9.42926C98.9988 9.68912 98.9305 10.0668 98.7824 10.5609C99.277 10.5489 99.673 10.4807 99.97 10.3569C100.267 10.2336 100.499 10.0975 100.665 9.94941C100.833 9.80092 100.944 9.65541 101 9.51332C101.055 9.37123 101.095 9.28077 101.12 9.24364C101.157 9.15745 101.216 9.10497 101.296 9.08662C101.377 9.06784 101.454 9.07723 101.528 9.11435C101.603 9.15148 101.658 9.20993 101.695 9.29015C101.733 9.3708 101.733 9.46084 101.695 9.55983C101.597 9.79452 101.442 10.0113 101.231 10.2088C101.021 10.4068 100.777 10.5737 100.499 10.7094C100.22 10.8459 99.9111 10.9509 99.571 11.0256C99.2309 11.0998 98.8874 11.1301 98.5409 11.1177C98.3677 11.5013 98.1484 11.928 97.8825 12.3978C97.6163 12.868 97.3108 13.3041 96.9643 13.7057C96.6182 14.108 96.2376 14.4387 95.8233 14.6986C95.4089 14.958 94.9665 15.0694 94.4967 15.0323C93.8784 14.9708 93.3928 14.7114 93.0403 14.2536C92.6879 13.7961 92.4993 13.2393 92.4745 12.5834C92.4621 12.0889 92.5116 11.5726 92.6226 11.0345C92.7344 10.4964 92.9012 9.96733 93.124 9.44803C93.3467 8.92831 93.6181 8.43675 93.9402 7.97293C94.2615 7.5091 94.6234 7.10459 95.0253 6.75811C95.4273 6.41205 95.8664 6.14579 96.3426 5.9606C96.8188 5.77498 97.3167 5.69476 97.8364 5.71909C98.0711 5.73146 98.2661 5.78395 98.4206 5.87654C98.5751 5.96913 98.7018 6.0805 98.8012 6.21065C98.8998 6.34036 98.974 6.48246 99.0235 6.63735C99.0726 6.79182 99.1097 6.93732 99.1349 7.07301Z" fill="white"/>
<path d="M108.259 8.0719C108.233 8.49262 108.141 8.93469 107.98 9.39851C107.82 9.86234 107.637 10.3172 107.433 10.7627C107.229 11.2077 107.025 11.6314 106.821 12.0334C106.616 12.4358 106.459 12.7848 106.347 13.0818C106.236 13.3788 106.19 13.6165 106.208 13.7957C106.227 13.9749 106.36 14.0645 106.607 14.0645C106.719 14.0645 106.873 13.9749 107.071 13.7957C107.269 13.6165 107.485 13.3818 107.721 13.0908C107.955 12.8006 108.2 12.4725 108.453 12.1072C108.707 11.7428 108.945 11.3805 109.167 11.0221C109.39 10.6633 109.588 10.3202 109.761 9.99205C109.935 9.66435 110.058 9.39552 110.133 9.18516C110.17 9.08617 110.231 9.02429 110.318 8.99955C110.404 8.9748 110.485 8.9748 110.559 8.99955C110.633 9.02429 110.692 9.07379 110.736 9.14804C110.778 9.22228 110.775 9.30293 110.726 9.38912C110.627 9.59991 110.485 9.88708 110.299 10.2519C110.114 10.6167 109.894 11.0068 109.641 11.4211C109.387 11.8358 109.112 12.2531 108.815 12.6734C108.518 13.0942 108.212 13.4774 107.897 13.8234C107.581 14.1699 107.263 14.4541 106.941 14.6768C106.619 14.8996 106.311 15.0113 106.013 15.0113C105.766 15.0237 105.556 14.9648 105.383 14.8351C105.209 14.705 105.067 14.5283 104.956 14.3056C104.845 14.0833 104.767 13.8328 104.724 13.555C104.681 13.2764 104.678 12.9952 104.715 12.7106C104.777 12.2036 104.894 11.7027 105.067 11.2077C105.241 10.7132 105.429 10.24 105.634 9.78809C105.837 9.33664 106.038 8.92231 106.236 8.54511C106.434 8.1679 106.582 7.84062 106.681 7.56199C106.78 7.28378 106.814 7.07043 106.783 6.92193C106.753 6.77387 106.607 6.7056 106.347 6.71797C106.211 6.73034 106.02 6.83787 105.773 7.04226C105.525 7.24623 105.256 7.50652 104.965 7.82185C104.675 8.13718 104.381 8.48366 104.084 8.86087C103.787 9.23807 103.521 9.60034 103.287 9.9464C103.051 10.4286 102.807 10.9082 102.554 11.384C102.3 11.8602 102.074 12.3086 101.876 12.7289C101.678 13.1492 101.533 13.5205 101.44 13.8418C101.348 14.1635 101.344 14.4114 101.431 14.5846C101.48 14.6836 101.44 14.7852 101.311 14.8902C101.18 14.9956 101.014 15.0506 100.81 15.0574C100.605 15.0634 100.395 14.9985 100.179 14.8624C99.9626 14.7263 99.7984 14.4728 99.687 14.1016C99.5884 13.8051 99.594 13.4155 99.7053 12.9333C99.8171 12.4507 99.978 11.9344 100.188 11.384C100.398 10.8339 100.633 10.2707 100.893 9.69592C101.153 9.12073 101.387 8.59119 101.598 8.10902C101.808 7.62685 101.963 7.21252 102.062 6.86604C102.161 6.51998 102.161 6.29724 102.062 6.19782C101.975 6.124 102.016 6.03738 102.182 5.93839C102.349 5.83939 102.56 5.78392 102.813 5.77112C103.066 5.75917 103.324 5.81464 103.583 5.93839C103.843 6.06213 104.028 6.30962 104.14 6.68085C104.189 6.84171 104.207 7.01794 104.196 7.20953C104.183 7.40155 104.152 7.60252 104.103 7.81246C104.338 7.54065 104.576 7.28079 104.817 7.03288C105.058 6.78539 105.302 6.56948 105.549 6.38386C105.797 6.19825 106.038 6.04975 106.274 5.93839C106.508 5.82702 106.737 5.77112 106.96 5.77112C107.442 5.75917 107.801 5.96911 108.036 6.40221C108.271 6.83531 108.345 7.39173 108.259 8.0719Z" fill="white"/>
<path d="M112.342 14.6241L112.324 14.6425C112.051 14.779 111.791 14.884 111.544 14.9582C111.296 15.0325 111.087 15.0692 110.913 15.0692C110.418 15.0692 110.039 14.9429 109.773 14.689C109.507 14.436 109.331 14.1356 109.244 13.7891C109.157 13.443 109.145 13.0965 109.206 12.7501C109.268 12.404 109.386 12.1377 109.56 11.9526C109.807 11.6927 110.03 11.5199 110.227 11.4328C110.425 11.3466 110.592 11.3155 110.729 11.3402C110.864 11.3526 110.991 11.4081 111.108 11.5071C111.226 11.6065 111.284 11.7298 111.284 11.8783C111.284 12.0392 111.226 12.1753 111.108 12.2862C110.991 12.3976 110.858 12.4535 110.71 12.4535C110.598 12.4535 110.493 12.4194 110.394 12.3515C110.295 12.2837 110.227 12.1936 110.19 12.0823C110.029 12.2679 109.918 12.4906 109.856 12.7501C109.794 13.0099 109.782 13.2574 109.819 13.4925C109.856 13.7272 109.952 13.9286 110.106 14.0955C110.261 14.2623 110.474 14.3523 110.746 14.3643C110.845 14.3643 110.988 14.3182 111.173 14.2252C111.358 14.1326 111.547 13.9781 111.739 13.7613C111.931 13.545 112.101 13.2668 112.249 12.9263C112.398 12.5866 112.488 12.1753 112.519 11.6927C112.549 11.2105 112.497 10.6477 112.361 10.0042C112.225 9.36163 111.965 8.63794 111.582 7.83361C111.458 8.06872 111.319 8.32517 111.164 8.6038C111.009 8.88201 110.87 9.14486 110.746 9.39192C110.684 9.47854 110.61 9.52847 110.524 9.54041C110.438 9.55321 110.357 9.54383 110.283 9.51268C110.209 9.48195 110.156 9.43246 110.125 9.36419C110.094 9.29634 110.104 9.21911 110.153 9.13249C110.252 8.92212 110.344 8.73352 110.431 8.56668C110.517 8.39941 110.604 8.24153 110.691 8.09347C110.778 7.94497 110.858 7.7935 110.932 7.6386C111.006 7.48456 111.087 7.32071 111.173 7.14747C111.037 6.94948 110.932 6.73271 110.857 6.49803C110.784 6.26292 110.746 6.01543 110.746 5.75557C110.746 5.64462 110.769 5.50509 110.812 5.33825C110.855 5.17141 110.929 5.00457 111.034 4.8373C111.139 4.67046 111.284 4.52837 111.47 4.4106C111.656 4.29326 111.896 4.23438 112.193 4.23438C112.502 4.23438 112.728 4.30265 112.871 4.43834C113.013 4.57488 113.091 4.7477 113.103 4.95806C113.115 5.16843 113.072 5.40012 112.973 5.65359C112.874 5.90747 112.744 6.15795 112.583 6.40501L112.528 6.51638C113.01 7.0728 113.396 7.60489 113.687 8.11182C113.977 8.61916 114.197 9.10176 114.346 9.55919C114.494 10.017 114.578 10.4437 114.597 10.8393C114.615 11.2353 114.581 11.6065 114.495 11.9526C114.903 11.4828 115.267 11.0185 115.589 10.5611C115.91 10.1037 116.176 9.67056 116.387 9.2622C116.424 9.17558 116.479 9.11712 116.553 9.08598C116.628 9.05525 116.721 9.07061 116.832 9.13249C116.918 9.18198 116.972 9.25026 116.99 9.33645C117.009 9.42307 116.998 9.50372 116.961 9.57754C116.665 10.1839 116.322 10.7527 115.932 11.2843C115.543 11.8164 115.113 12.3485 114.643 12.8802C114.309 13.251 113.96 13.5851 113.595 13.8821C113.23 14.1791 112.818 14.4266 112.361 14.6241H112.342Z" fill="white"/>
</svg>
