<svg width="109" height="21" viewBox="0 0 109 21" fill="none" xmlns="http://www.w3.org/2000/svg">
<path d="M14.6024 9.2236C14.6936 9.2578 14.7502 9.31757 14.7734 9.40328C14.7962 9.4886 14.7789 9.57706 14.7219 9.66789C14.5171 10.0784 14.2946 10.4943 14.0555 10.9162C13.8161 11.3377 13.5707 11.7509 13.3203 12.1555C13.0694 12.5601 12.8186 12.9478 12.5681 13.3181C12.3173 13.6885 12.0723 14.0274 11.8333 14.3349C10.9553 15.4861 10.0553 16.438 9.13177 17.1901C8.2656 17.8853 7.41084 18.3869 6.56748 18.6944C6.27142 18.8198 5.96081 18.911 5.63604 18.9681C5.31128 19.0251 4.99478 19.0534 4.68731 19.0534C4.32245 19.0534 3.96308 19.0078 3.61001 18.9165C3.25694 18.8253 2.93178 18.683 2.63572 18.4892C2.11123 18.1817 1.69564 17.7826 1.38779 17.2927C1.07993 16.8024 0.863683 16.2697 0.73826 15.6945C0.612837 15.1185 0.570374 14.5177 0.610085 13.8906C0.650188 13.2639 0.749662 12.66 0.908898 12.0784C1.19395 11.0758 1.50731 10.144 1.84937 9.28336C2.19144 8.42309 2.58697 7.61944 3.03755 6.8728C3.48734 6.12695 3.99729 5.42002 4.56779 4.75319C5.1371 4.08637 5.78702 3.44549 6.51636 2.82978C6.75581 2.62494 7.07192 2.4197 7.4651 2.21446C7.85827 2.00922 8.28565 1.85549 8.74724 1.75287C9.20883 1.65026 9.67907 1.63335 10.1576 1.70176C10.6364 1.76978 11.0807 1.98092 11.4912 2.33438C11.8101 2.60764 12.0664 3.00396 12.2603 3.52256C12.4541 4.04115 12.5512 4.59946 12.5512 5.19748C12.5512 5.7959 12.4399 6.40021 12.2178 7.00963C11.9953 7.61944 11.6335 8.14669 11.1322 8.59098C10.9726 8.7278 10.7615 8.77656 10.4996 8.73645C10.2374 8.69674 9.99518 8.61103 9.77304 8.4801C9.55089 8.34918 9.38851 8.19505 9.28589 8.01852C9.18327 7.84198 9.21748 7.6851 9.38851 7.54828C9.70738 7.29783 9.98928 6.97267 10.2346 6.57399C10.4796 6.17492 10.6707 5.75894 10.8075 5.32566C10.9439 4.89277 11.0178 4.47404 11.0296 4.06946C11.0406 3.66489 10.9781 3.33147 10.8417 3.06923C10.7159 2.85298 10.5106 2.77002 10.226 2.82152C9.94131 2.87264 9.602 3.03816 9.20883 3.31732C8.81565 3.59647 8.39102 3.9751 7.93533 4.45399C7.47925 4.93248 7.02356 5.49118 6.56748 6.12931C6.22581 6.6082 5.90655 7.12404 5.6101 7.67645C5.31364 8.22926 5.04903 8.77656 4.81549 9.31757C4.58155 9.85897 4.3767 10.3803 4.19978 10.882C4.02324 11.3837 3.88366 11.828 3.78104 12.2153C3.5762 12.9674 3.47358 13.6684 3.47358 14.318C3.47358 14.9675 3.55575 15.5404 3.72128 16.0361C3.88641 16.5319 4.12861 16.9365 4.44787 17.2499C4.76673 17.5632 5.143 17.7571 5.57589 17.8314C6.00917 17.9053 6.49081 17.851 7.02081 17.6686C7.55042 17.4862 8.11737 17.15 8.72168 16.6601C9.17737 16.2842 9.64172 15.8396 10.1147 15.3265C10.5877 14.8138 11.0552 14.2468 11.5168 13.6256C11.9784 13.0048 12.4285 12.3379 12.8673 11.6255C13.3057 10.9135 13.7248 10.1696 14.1239 9.39463C14.2375 9.18939 14.3976 9.13277 14.6024 9.2236Z" fill="#041C36"/>
<path d="M19.6462 7.18969C19.6462 7.37212 19.612 7.50344 19.5436 7.58286C19.4524 7.75389 19.31 7.83921 19.1162 7.83921C18.9794 7.83921 18.8567 7.79439 18.7486 7.70317C18.6401 7.61196 18.5862 7.49243 18.5862 7.3442C18.5862 7.25299 18.6122 7.16688 18.6633 7.08707C18.7144 7.00765 18.78 6.93963 18.8599 6.88262C18.7686 6.72299 18.6637 6.64278 18.5437 6.64278C18.4242 6.64278 18.2956 6.69114 18.1588 6.78825C18.022 6.88498 17.8824 7.0163 17.7401 7.18143C17.5974 7.34656 17.4586 7.51484 17.3218 7.68587C17.0823 7.99373 16.8515 8.34955 16.6294 8.75413C16.4072 9.15871 16.2106 9.57469 16.0396 10.0021C15.8686 10.4295 15.7314 10.8517 15.6287 11.2673C15.5261 11.6837 15.4723 12.0623 15.4668 12.4044C15.4609 12.746 15.5092 13.0279 15.6118 13.2501C15.7145 13.4722 15.8855 13.6063 16.1245 13.6519C16.2956 13.6861 16.4863 13.6095 16.6974 13.4215C16.9081 13.2336 17.1189 12.991 17.3296 12.6945C17.5407 12.3985 17.7456 12.0765 17.9453 11.7285C18.1447 11.3809 18.3185 11.0593 18.4667 10.7625C18.2272 10.6602 18.0621 10.4924 17.9709 10.2588C17.8797 10.0253 17.8514 9.78818 17.8852 9.54874C17.9194 9.30969 18.0106 9.09934 18.1588 8.91691C18.307 8.73447 18.495 8.64286 18.723 8.64286C18.8024 8.64286 18.9051 8.64915 19.0309 8.66056C19.1559 8.67196 19.264 8.73133 19.3556 8.83945C19.4469 8.94797 19.498 9.12175 19.5094 9.3608C19.5208 9.60024 19.4579 9.9482 19.3214 10.4035C19.7771 10.3925 20.142 10.3296 20.4156 10.2156C20.6889 10.1019 20.9032 9.97651 21.0569 9.84008C21.211 9.70326 21.3129 9.56918 21.3644 9.43826C21.4155 9.30733 21.4525 9.22398 21.4753 9.18977C21.5095 9.11035 21.5633 9.06199 21.6376 9.04508C21.7116 9.02778 21.7831 9.03643 21.8515 9.07064C21.9199 9.10484 21.971 9.15871 22.0053 9.23263C22.0395 9.30694 22.0395 9.3899 22.0053 9.48111C21.914 9.69736 21.7717 9.89709 21.5779 10.0791C21.384 10.2616 21.1591 10.4153 20.9028 10.5403C20.646 10.6661 20.3618 10.7629 20.0484 10.8317C19.7347 10.9001 19.4182 10.928 19.0989 10.9166C18.9393 11.2701 18.7372 11.6632 18.4922 12.0961C18.2469 12.5294 17.965 12.9312 17.6461 13.3012C17.3269 13.672 16.9762 13.9767 16.5948 14.2161C16.2126 14.4552 15.8057 14.5578 15.3728 14.5236C14.8027 14.467 14.3552 14.2279 14.0305 13.806C13.7057 13.3846 13.5323 12.8715 13.5095 12.2672C13.4981 11.8115 13.5437 11.3357 13.646 10.8399C13.749 10.3441 13.9023 9.85659 14.1075 9.3781C14.3124 8.89921 14.5632 8.44627 14.8601 8.01889C15.1561 7.59151 15.4896 7.21878 15.8599 6.89952C16.2303 6.58066 16.6345 6.33532 17.0733 6.16468C17.512 5.99365 17.9709 5.91973 18.4498 5.94214C18.666 5.95354 18.8457 6.0019 18.9884 6.08722C19.1308 6.17254 19.2471 6.27516 19.3383 6.39508C19.4296 6.5146 19.498 6.64553 19.5436 6.78825C19.5888 6.93058 19.623 7.06466 19.6462 7.18969Z" fill="#041C36"/>
<path d="M28.0583 8.11341C28.0351 8.50108 27.9498 8.90841 27.802 9.33579C27.6538 9.76317 27.4851 10.1823 27.2972 10.5928C27.1092 11.0029 26.9213 11.3933 26.7333 11.7636C26.5454 12.1344 26.4003 12.456 26.2973 12.7297C26.1951 13.0033 26.1518 13.2223 26.1687 13.3875C26.186 13.5526 26.3087 13.6352 26.5368 13.6352C26.6394 13.6352 26.7817 13.5526 26.9641 13.3875C27.1466 13.2223 27.3459 13.0061 27.5626 12.7379C27.7792 12.4706 28.0037 12.1682 28.2376 11.8317C28.4708 11.4959 28.691 11.1621 28.8958 10.8318C29.101 10.5012 29.2835 10.185 29.4431 9.8827C29.6027 9.58074 29.7168 9.33304 29.7852 9.1392C29.8194 9.04798 29.876 8.99097 29.9558 8.96817C30.0356 8.94537 30.1099 8.94537 30.1783 8.96817C30.2464 8.99097 30.3006 9.03658 30.3407 9.105C30.3804 9.17341 30.3773 9.24772 30.3321 9.32714C30.2409 9.52137 30.1099 9.78597 29.9389 10.1221C29.7679 10.4583 29.5654 10.8177 29.3318 11.1994C29.0983 11.5816 28.8447 11.9661 28.5714 12.3534C28.2978 12.7411 28.0155 13.0942 27.7249 13.413C27.4344 13.7323 27.1411 13.9941 26.8446 14.1994C26.5482 14.4046 26.2635 14.5076 25.9898 14.5076C25.7618 14.519 25.5676 14.4648 25.4083 14.3452C25.2483 14.2253 25.1174 14.0625 25.0152 13.8573C24.9125 13.6525 24.841 13.4217 24.8013 13.1657C24.7612 12.909 24.7584 12.6499 24.7926 12.3876C24.8496 11.9205 24.9578 11.4589 25.1174 11.0029C25.277 10.5472 25.4508 10.1111 25.6391 9.69476C25.8271 9.27878 26.0123 8.89701 26.1947 8.54944C26.3767 8.20187 26.5136 7.90031 26.6048 7.64356C26.696 7.38721 26.7274 7.19062 26.6991 7.0538C26.6708 6.91737 26.5368 6.85446 26.2973 6.86586C26.1719 6.87726 25.9954 6.97634 25.7677 7.16468C25.5397 7.35261 25.2912 7.59245 25.0234 7.88301C24.7557 8.17356 24.4852 8.49282 24.2115 8.84039C23.9379 9.18796 23.6933 9.52176 23.4771 9.84063C23.26 10.2849 23.0351 10.7268 22.8016 11.1652C22.568 11.604 22.3593 12.0172 22.1772 12.4045C21.9948 12.7918 21.8611 13.1339 21.7754 13.4299C21.6901 13.7264 21.6869 13.9548 21.7671 14.1144C21.8124 14.2057 21.7754 14.2992 21.6559 14.396C21.5364 14.4931 21.3822 14.5438 21.1943 14.5501C21.006 14.5556 20.8125 14.4958 20.6128 14.3704C20.4138 14.245 20.2625 14.0114 20.1598 13.6694C20.069 13.3961 20.0745 13.0371 20.1771 12.5929C20.2798 12.1482 20.428 11.6724 20.6214 11.1652C20.8157 10.6584 21.0323 10.1394 21.2714 9.60983C21.5108 9.07983 21.727 8.5919 21.9213 8.14761C22.1147 7.70333 22.257 7.32155 22.3483 7.00229C22.4391 6.68343 22.4391 6.47819 22.3483 6.38658C22.2681 6.31856 22.3054 6.23875 22.4591 6.14753C22.6133 6.05631 22.8067 6.0052 23.0406 5.99341C23.2742 5.9824 23.5109 6.03351 23.7499 6.14753C23.9894 6.26155 24.16 6.48959 24.263 6.83166C24.3082 6.97988 24.3251 7.14226 24.3141 7.3188C24.3027 7.49573 24.274 7.68091 24.2288 7.87436C24.4451 7.6239 24.6645 7.38446 24.887 7.15603C25.1091 6.92798 25.3344 6.72904 25.5625 6.55801C25.7901 6.38697 26.0127 6.25015 26.2293 6.14753C26.4455 6.04491 26.6563 5.99341 26.8615 5.99341C27.3058 5.9824 27.6365 6.17584 27.8535 6.57491C28.0697 6.97399 28.1382 7.48669 28.0583 8.11341Z" fill="#041C36"/>
<path d="M34.1096 7.34389C34.1096 7.25267 34.1352 7.16735 34.1863 7.08754C34.2378 7.00772 34.303 6.93931 34.3829 6.8823C34.3259 6.74548 34.2346 6.67706 34.1096 6.67706C33.9496 6.66606 33.773 6.73722 33.5792 6.89095C33.3854 7.04468 33.1774 7.26683 32.9552 7.55778C32.7331 7.84833 32.5023 8.2073 32.2633 8.63468C32.0238 9.06207 31.7848 9.5382 31.5453 10.0619C31.3971 10.393 31.2744 10.7488 31.1777 11.1306C31.0806 11.5127 31.0263 11.8772 31.0149 12.2248C31.0039 12.5727 31.0377 12.877 31.1175 13.1393C31.197 13.4015 31.3401 13.5726 31.5453 13.6524C31.7958 13.7546 32.0635 13.6606 32.3486 13.3701C32.6332 13.0795 32.9183 12.695 33.2033 12.2161C33.4884 11.7376 33.7648 11.2218 34.0325 10.669C34.2999 10.1162 34.548 9.62902 34.776 9.20715C34.776 9.17333 34.7819 9.15053 34.7933 9.13913C35.1012 8.40979 35.3375 7.78857 35.5026 7.27548C35.6678 6.76278 35.7043 6.44391 35.6135 6.3181C35.5561 6.24968 35.608 6.17026 35.7676 6.07865C35.9273 5.98783 36.1266 5.93672 36.366 5.92492C36.6055 5.91391 36.8414 5.97092 37.0753 6.09595C37.3085 6.22137 37.4768 6.46082 37.5794 6.81389C37.6364 7.00772 37.6081 7.31833 37.4941 7.74571C37.38 8.1731 37.2204 8.65474 37.0152 9.19024C36.8099 9.72614 36.5768 10.2872 36.3145 10.8742C36.0523 11.4612 35.8018 12.014 35.5624 12.5322C35.3233 13.0512 35.1118 13.5042 34.9298 13.8914C34.7473 14.2791 34.6337 14.5469 34.5881 14.6947C34.9982 14.4214 35.426 14.0369 35.8702 13.5411C36.3145 13.0453 36.7305 12.5267 37.1182 11.9853C37.5055 11.4439 37.8475 10.9171 38.144 10.404C38.44 9.89127 38.6449 9.4808 38.7589 9.17333C38.7931 9.07072 38.8505 9.00506 38.9303 8.97675C39.0098 8.94804 39.0837 8.94529 39.1521 8.9681C39.2205 8.9909 39.2748 9.03651 39.3149 9.10492C39.3546 9.17333 39.3577 9.24764 39.3235 9.32707C39.0613 9.90818 38.7337 10.5211 38.3406 11.1648C37.9474 11.8088 37.5169 12.4273 37.0498 13.0198C36.5823 13.6123 36.0924 14.1454 35.5797 14.618C35.067 15.0906 34.5653 15.4527 34.0754 15.7036C34.007 15.8746 33.9154 16.094 33.8018 16.3618C33.6877 16.6295 33.5706 16.9004 33.451 17.1737C33.3311 17.4473 33.223 17.7037 33.1267 17.9431C33.0296 18.1826 32.958 18.3591 32.9128 18.4731C32.7988 18.792 32.6191 19.0629 32.3741 19.285C32.1284 19.5072 31.8528 19.6782 31.5453 19.7977C31.2375 19.9176 30.9182 19.986 30.5879 20.003C30.2573 20.0203 29.9494 19.986 29.6648 19.9007C29.3797 19.815 29.132 19.6723 28.9209 19.473C28.7101 19.2736 28.5765 19.02 28.5194 18.7126C28.508 18.6099 28.5222 18.4873 28.5619 18.3449C28.602 18.2022 28.7019 18.0512 28.8611 17.8916C29.0435 17.7092 29.2629 17.544 29.5193 17.3962C29.7756 17.248 30.043 17.1053 30.3225 16.9688C30.6017 16.832 30.8757 16.6924 31.1435 16.5497C31.4109 16.407 31.642 16.2509 31.8359 16.0795C31.9495 15.7606 32.0832 15.4071 32.2369 15.0199C32.391 14.6322 32.5593 14.2276 32.7418 13.8061C32.4111 14.1254 32.0494 14.3389 31.6562 14.447C31.263 14.5555 30.8207 14.513 30.3312 14.3188C29.8751 14.1368 29.548 13.8686 29.3483 13.5152C29.1489 13.1625 29.0321 12.7776 28.9979 12.3612C28.9637 11.9456 28.9979 11.5127 29.1006 11.0621C29.2032 10.612 29.3282 10.1987 29.476 9.82286C29.7497 9.12773 30.0548 8.53207 30.3913 8.03627C30.7275 7.54048 31.0837 7.1359 31.4596 6.82254C31.8359 6.50918 32.2232 6.28389 32.6222 6.14706C33.0209 6.01063 33.4255 5.94812 33.836 5.95913C33.9728 5.97092 34.1179 5.99608 34.272 6.03619C34.4257 6.07629 34.568 6.14156 34.6994 6.23278C34.8303 6.32399 34.9412 6.44627 35.0324 6.60039C35.1236 6.75413 35.1692 6.94521 35.1692 7.17286C35.1692 7.40129 35.1181 7.56603 35.0155 7.66865C34.9243 7.78267 34.7988 7.83968 34.6392 7.83968C34.5028 7.83968 34.3801 7.79447 34.272 7.70286C34.1635 7.61164 34.1096 7.49212 34.1096 7.34389ZM31.5964 16.8489C31.4254 16.9857 31.2316 17.1053 31.0149 17.2079C30.7987 17.3105 30.582 17.4131 30.3658 17.5157C30.1488 17.6183 29.9408 17.732 29.7414 17.8574C29.5421 17.9828 29.3797 18.131 29.2543 18.3021C29.1749 18.4157 29.143 18.5415 29.1599 18.6783C29.1772 18.8148 29.2287 18.9374 29.314 19.0456C29.3998 19.1541 29.5079 19.2367 29.6388 19.2937C29.7701 19.3507 29.9148 19.3562 30.0744 19.3106C30.2341 19.265 30.4 19.1541 30.5706 18.9776C30.7417 18.8006 30.9005 18.5297 31.0487 18.1653C31.1175 18.0056 31.2005 17.8177 31.2972 17.6014C31.3939 17.3844 31.4938 17.134 31.5964 16.8489Z" fill="#041C36"/>
<path d="M39.2541 9.49761C39.2198 9.56602 39.1656 9.61163 39.0917 9.63443C39.0174 9.65724 38.9486 9.65724 38.886 9.63443C38.8235 9.61163 38.7724 9.56877 38.7327 9.50587C38.693 9.44374 38.6898 9.36668 38.7241 9.27546C38.7583 9.17285 38.8208 9.01636 38.912 8.80523C39.0032 8.59448 39.0944 8.37234 39.1856 8.1384C39.2769 7.90485 39.3677 7.67681 39.4589 7.45467C39.5497 7.23252 39.613 7.04734 39.6472 6.89911C39.385 6.77369 39.1601 6.57435 38.9721 6.3007C38.7842 6.02705 38.6895 5.75379 38.6895 5.48014C38.6895 5.12707 38.7807 4.82511 38.9631 4.57427C39.1451 4.32342 39.4192 4.198 39.7841 4.198C40.0121 4.198 40.2087 4.29197 40.3738 4.4799C40.5389 4.66824 40.627 4.89353 40.6384 5.15538C40.6384 5.30361 40.6298 5.50845 40.6129 5.7707C40.596 6.03295 40.5641 6.24959 40.5189 6.42022C40.5755 6.46623 40.653 6.49453 40.7501 6.50594C40.8468 6.51734 40.9522 6.52324 41.0662 6.52324C41.3167 6.52324 41.5132 6.49453 41.656 6.43752C41.7983 6.38051 41.921 6.32075 42.0236 6.25784C42.1262 6.19572 42.2288 6.13557 42.3314 6.07856C42.4337 6.02155 42.5705 5.99284 42.7415 5.99284C42.9696 5.99284 43.1972 6.05025 43.4252 6.16387C43.6533 6.27829 43.8184 6.50004 43.921 6.8307C44.0237 7.16136 44.0064 7.56319 43.8699 8.03578C43.7331 8.50877 43.542 9.00181 43.2971 9.51451C43.0521 10.0276 42.7899 10.5348 42.5107 11.0361C42.2312 11.5378 41.998 11.9848 41.8097 12.378C41.6218 12.7716 41.5132 13.0849 41.4849 13.3185C41.4566 13.5524 41.5726 13.6578 41.8349 13.6346C41.9379 13.6236 42.0802 13.532 42.263 13.3613C42.4451 13.1903 42.6448 12.9709 42.861 12.7028C43.0777 12.4354 43.2998 12.1362 43.5279 11.8055C43.7559 11.4749 43.9718 11.1446 44.177 10.814C44.3822 10.4833 44.5643 10.1699 44.7243 9.87388C44.8835 9.57742 44.998 9.33247 45.0664 9.13864C45.1006 9.04742 45.1572 8.99041 45.237 8.96761C45.3164 8.9448 45.3911 8.9448 45.4595 8.96761C45.5283 8.99041 45.5822 9.03602 45.6219 9.10443C45.662 9.17285 45.6585 9.24716 45.6133 9.32658C45.5217 9.52081 45.3907 9.78541 45.2201 10.1216C45.0491 10.4577 44.847 10.8167 44.6134 11.1985C44.3799 11.5807 44.1263 11.9652 43.8526 12.3525C43.579 12.7401 43.2971 13.0936 43.0065 13.4125C42.716 13.7317 42.4223 13.9936 42.1262 14.1988C41.8297 14.404 41.5451 14.5067 41.2714 14.5067C41.0434 14.5181 40.8468 14.4725 40.6817 14.3698C40.5161 14.2672 40.3825 14.1217 40.2798 13.9338C40.1772 13.7459 40.1088 13.5178 40.0746 13.2501C40.0404 12.9823 40.0404 12.6945 40.0746 12.3867C40.1202 11.9424 40.2283 11.4694 40.3994 10.9677C40.57 10.4664 40.7587 9.97335 40.9636 9.48896C41.1688 9.00496 41.3682 8.55163 41.562 8.12975C41.7554 7.70827 41.8978 7.3493 41.989 7.05284C41.7495 7.14445 41.479 7.19832 41.1775 7.21523C40.8755 7.23253 40.5759 7.20107 40.2798 7.12126C40.2456 7.20107 40.1859 7.34655 40.1002 7.55729C40.0148 7.76842 39.9209 7.99607 39.8183 8.24102C39.7156 8.48636 39.613 8.7258 39.5104 8.95896C39.4082 9.1929 39.3225 9.37219 39.2541 9.49761Z" fill="#041C36"/>
<path d="M49.3761 7.34386C49.3761 7.25265 49.4017 7.16772 49.4532 7.08791C49.5043 7.00809 49.57 6.93968 49.6498 6.88267C49.5924 6.74584 49.5012 6.67704 49.3761 6.67704C49.2165 6.66603 49.0396 6.73759 48.8457 6.89132C48.6519 7.04505 48.4439 7.2672 48.2218 7.55775C47.9996 7.8487 47.7688 8.20767 47.5294 8.63505C47.2899 9.06243 47.0513 9.53857 46.8118 10.0623C46.6636 10.3929 46.5409 10.7488 46.4442 11.1305C46.3471 11.5127 46.2928 11.8772 46.2814 12.2247C46.27 12.5723 46.3042 12.8774 46.3841 13.1397C46.4635 13.4019 46.6066 13.5725 46.8118 13.652C46.9711 13.7204 47.139 13.7035 47.3159 13.6009C47.492 13.4982 47.669 13.3386 47.8455 13.122C48.0224 12.9057 48.2049 12.6435 48.3932 12.3356C48.5811 12.0282 48.7628 11.7065 48.9397 11.3704C49.1162 11.0342 49.2877 10.6976 49.4532 10.3611C49.6179 10.0249 49.7744 9.71471 49.9226 9.43005C50.0823 9.05378 50.2391 8.69717 50.3929 8.36101C50.547 8.02484 50.6748 7.72328 50.7774 7.45553C50.88 7.18777 50.9484 6.95934 50.9826 6.7714C51.0168 6.58346 50.9995 6.4549 50.9315 6.38648C50.8513 6.31807 50.8891 6.23865 51.0428 6.14743C51.1965 6.05661 51.3876 6.00471 51.6157 5.99331C51.8433 5.9823 52.0796 6.0338 52.3249 6.14743C52.5699 6.26185 52.7433 6.4891 52.8459 6.83077C52.9485 7.16182 52.932 7.56365 52.7952 8.03625C52.6584 8.50924 52.4673 9.00188 52.2223 9.51498C51.9774 10.0277 51.7151 10.5357 51.436 11.037C51.1568 11.5383 50.9229 11.9857 50.7349 12.3789C50.547 12.772 50.4385 13.0854 50.4098 13.3186C50.3815 13.5525 50.4979 13.6579 50.7605 13.6347C50.8631 13.6237 51.0054 13.5328 51.1879 13.3618C51.3699 13.1908 51.57 12.9714 51.7867 12.7032C52.0029 12.4355 52.2274 12.1367 52.4614 11.806C52.6949 11.4757 52.912 11.1451 53.1113 10.8148C53.3106 10.4842 53.4899 10.1708 53.6495 9.87434C53.8088 9.57828 53.9228 9.33294 53.9916 9.13871C54.0258 9.04749 54.0824 8.99088 54.1622 8.96768C54.2421 8.94527 54.316 8.94527 54.3848 8.96768C54.4532 8.99088 54.5075 9.03648 54.5476 9.1049C54.5873 9.17292 54.5845 9.24762 54.5389 9.32704C54.4473 9.52127 54.3164 9.78588 54.1457 10.1216C53.9747 10.4582 53.7718 10.8176 53.5383 11.1993C53.3047 11.5811 53.0511 11.9656 52.7775 12.3533C52.5042 12.741 52.2223 13.0941 51.9318 13.4129C51.6412 13.7322 51.3475 13.994 51.0511 14.1993C50.7546 14.4045 50.4699 14.5067 50.1963 14.5067C49.763 14.5299 49.4382 14.3534 49.2216 13.9771C49.0054 13.6012 48.9255 13.122 48.983 12.5409C48.7663 12.8943 48.5383 13.2167 48.2988 13.5073C48.0594 13.7978 47.8003 14.0282 47.5211 14.1993C47.242 14.3703 46.9451 14.4725 46.6318 14.5067C46.3184 14.5409 45.974 14.4788 45.5977 14.3192C45.1416 14.1368 44.8141 13.8686 44.6148 13.5151C44.4154 13.1621 44.2987 12.7775 44.2648 12.3612C44.2306 11.9456 44.2645 11.5127 44.3667 11.0621C44.4693 10.6119 44.5947 10.1991 44.7429 9.82323C45.0166 9.12809 45.3213 8.53204 45.6579 8.03625C45.994 7.54045 46.3499 7.13587 46.7261 6.82251C47.102 6.50915 47.4893 6.28426 47.8884 6.14743C48.287 6.01061 48.692 5.94849 49.1021 5.95949C49.2389 5.9709 49.384 5.99606 49.5381 6.03616C49.6918 6.07587 49.835 6.14153 49.9659 6.23275C50.0968 6.32397 50.2077 6.44625 50.2989 6.59998C50.3901 6.7541 50.4361 6.94518 50.4361 7.17283C50.4361 7.42368 50.3783 7.5951 50.2647 7.68632C50.1731 7.78855 50.0536 7.83966 49.9057 7.83966C49.7689 7.83966 49.6462 7.79484 49.5381 7.70323C49.4296 7.61201 49.3761 7.49209 49.3761 7.34386Z" fill="#041C36"/>
<path d="M51.5977 5.25806C51.5867 5.41769 51.5419 5.52306 51.464 5.57417C51.3862 5.62568 51.3001 5.61978 51.2053 5.55727C51.1109 5.49475 51.0327 5.37483 50.9714 5.1983C50.91 5.02176 50.8908 4.78507 50.9136 4.48862C50.9584 4.01012 51.1436 3.64526 51.4687 3.3948C51.7943 3.14435 52.2162 2.97568 52.7348 2.89036C53.2534 2.80504 53.84 2.77359 54.495 2.79639C55.1504 2.81919 55.831 2.8648 56.5379 2.93282C56.7318 2.42012 56.8741 1.99864 56.9657 1.66798C57.0569 1.33771 57.0734 1.14388 57.0164 1.08686C56.9366 1.01845 56.974 0.938637 57.1277 0.847421C57.2818 0.756204 57.4721 0.705091 57.7002 0.693689C57.9282 0.682287 58.1645 0.733793 58.4098 0.847421C58.6548 0.961441 58.829 1.18948 58.9316 1.53115C58.9882 1.69117 58.9937 1.90742 58.9485 2.18068C58.9029 2.45433 58.829 2.76218 58.7264 3.10385C59.228 3.12705 59.7286 3.12705 60.2306 3.10385C60.7319 3.08144 61.1821 3.03859 61.5812 2.97568C61.9803 2.91356 62.3019 2.8306 62.5472 2.72798C62.7922 2.62536 62.9148 2.49994 62.9148 2.35171C62.9148 2.18068 62.966 2.09261 63.0682 2.0871C63.1708 2.0812 63.2734 2.12406 63.376 2.21488C63.4783 2.30649 63.5494 2.42602 63.5895 2.57385C63.6292 2.72247 63.5813 2.85891 63.4445 2.98433C63.2962 3.13256 63.0595 3.27253 62.7352 3.40306C62.41 3.53438 62.0223 3.6484 61.5725 3.74512C61.122 3.84184 60.6238 3.92441 60.0765 3.99282C59.5292 4.06163 58.9595 4.10134 58.367 4.11274C58.1275 4.72806 57.8394 5.39489 57.5036 6.11282C57.1674 6.83076 56.8312 7.54595 56.4951 8.25838C56.1589 8.97081 55.8342 9.65455 55.5208 10.31C55.207 10.9654 54.9566 11.5406 54.7687 12.0364C54.5803 12.5322 54.4667 12.9281 54.427 13.2246C54.3869 13.521 54.4694 13.6579 54.6747 13.6347C54.7883 13.6236 54.9338 13.532 55.1107 13.3614C55.2869 13.1904 55.4834 12.971 55.7005 12.7032C55.9167 12.4355 56.1393 12.1363 56.3673 11.8056C56.595 11.4753 56.8116 11.1447 57.0164 10.814C57.2217 10.4838 57.4041 10.1704 57.5637 9.87394C57.723 9.57748 57.8374 9.33254 57.9054 9.1387C57.9396 9.04748 57.9966 8.99087 58.0764 8.96767C58.1559 8.94486 58.2306 8.94486 58.2986 8.96767C58.367 8.99087 58.4209 9.03608 58.4614 9.10449C58.5007 9.17291 58.4983 9.24722 58.4527 9.32664C58.3615 9.52087 58.231 9.78587 58.0595 10.1216C57.8885 10.4582 57.6864 10.8172 57.4529 11.1985C57.2193 11.5807 56.9653 11.9652 56.6917 12.3525C56.4184 12.7402 56.1361 13.0936 55.8456 13.4125C55.555 13.7318 55.2613 13.9936 54.9652 14.1989C54.6688 14.4041 54.3841 14.5067 54.1109 14.5067C53.8828 14.5181 53.6862 14.4725 53.5211 14.3699C53.356 14.2673 53.2215 14.1218 53.1189 13.9339C53.0163 13.7459 52.9479 13.5179 52.9137 13.2501C52.8794 12.9824 52.8794 12.6946 52.9137 12.3867C52.9593 12.0336 53.0933 11.5351 53.3155 10.8911C53.5376 10.2471 53.803 9.54053 54.1109 8.77108C54.4183 8.00203 54.7458 7.20978 55.0938 6.39512C55.4414 5.58007 55.763 4.81928 56.0598 4.11274C55.4669 4.11274 54.9023 4.121 54.3668 4.1383C53.8313 4.1552 53.3611 4.20396 52.9565 4.28338C52.5519 4.36359 52.2272 4.47997 51.9822 4.63409C51.7369 4.78782 51.6091 4.99581 51.5977 5.25806Z" fill="#041C36"/>
<path d="M66.3344 9.32649C66.2431 9.52072 66.1122 9.78533 65.9412 10.1215C65.7701 10.4577 65.5677 10.8174 65.3341 11.1988C65.1002 11.581 64.847 11.9655 64.5733 12.3528C64.3001 12.7404 64.0178 13.0939 63.7272 13.4128C63.4366 13.732 63.1433 13.9939 62.8469 14.1991C62.5504 14.4044 62.2654 14.507 61.9921 14.507C61.7641 14.5184 61.5675 14.4728 61.4024 14.3701C61.2368 14.2675 61.1032 14.1221 61.0005 13.9341C60.8979 13.7462 60.8295 13.5177 60.7953 13.25C60.7611 12.9822 60.7611 12.6948 60.7953 12.387C60.7953 12.3304 60.8012 12.2757 60.8126 12.2246C60.8236 12.1735 60.8354 12.1192 60.8468 12.0618C60.6302 12.3811 60.4049 12.6862 60.1713 12.9767C59.9374 13.2673 59.7015 13.5268 59.462 13.7548C59.2226 13.9829 58.9835 14.1649 58.7437 14.3017C58.5047 14.4386 58.2766 14.507 58.06 14.507C57.8323 14.5184 57.6357 14.4728 57.4706 14.3701C57.3055 14.2675 57.1714 14.1221 57.0688 13.9341C56.9662 13.7462 56.8978 13.5177 56.8635 13.25C56.8293 12.9822 56.8293 12.6948 56.8635 12.387C56.9092 12.0111 56.9976 11.612 57.1285 11.1905C57.2595 10.7687 57.4108 10.3468 57.5815 9.92491C57.7525 9.50342 57.9259 9.09609 58.1028 8.70292C58.2798 8.30974 58.4331 7.95353 58.5644 7.63466C58.6953 7.3154 58.787 7.04726 58.8381 6.83062C58.8892 6.61437 58.8746 6.46654 58.7952 6.38633C58.7154 6.31831 58.7528 6.23849 58.9061 6.14728C59.0602 6.05606 59.2509 6.00495 59.4789 5.99315C59.707 5.98214 59.9433 6.03365 60.1886 6.14728C60.4336 6.2613 60.6074 6.48855 60.71 6.83062C60.8126 7.16128 60.7953 7.5631 60.6585 8.0357C60.522 8.50869 60.3306 9.00173 60.0856 9.51482C59.8407 10.0275 59.5784 10.5351 59.2993 11.0364C59.0201 11.5381 58.787 11.9851 58.5986 12.3783C58.4107 12.7719 58.3022 13.0852 58.2739 13.3188C58.2456 13.5527 58.3623 13.6577 58.6246 13.6345C58.761 13.6235 58.9603 13.4812 59.2226 13.2075C59.4845 12.9339 59.7612 12.5954 60.0518 12.1904C60.3424 11.7858 60.627 11.358 60.9066 10.9078C61.1857 10.4577 61.4165 10.0558 61.5989 9.70276C61.77 9.30369 61.9379 8.9227 62.103 8.55744C62.2681 8.19297 62.4109 7.85956 62.5304 7.5572C62.6503 7.25525 62.7329 7.00165 62.7785 6.79641C62.8237 6.59117 62.8068 6.45474 62.727 6.38633C62.6472 6.31831 62.6845 6.23849 62.8382 6.14728C62.992 6.05606 63.1827 6.00495 63.4107 5.99315C63.6391 5.98214 63.875 6.03365 64.1204 6.14728C64.3653 6.2613 64.5395 6.48855 64.6417 6.83062C64.7444 7.16128 64.7274 7.5631 64.5902 8.0357C64.4538 8.50869 64.2627 9.00173 64.0178 9.51482C63.7724 10.0275 63.5106 10.5351 63.2314 11.0364C62.9519 11.5381 62.7187 11.9851 62.5304 12.3783C62.3428 12.7719 62.2339 13.0852 62.2056 13.3188C62.1773 13.5527 62.2941 13.6577 62.5563 13.6345C62.6586 13.6235 62.8013 13.5323 62.9837 13.3617C63.1658 13.1906 63.3651 12.9708 63.5821 12.7027C63.7984 12.4353 64.0205 12.1365 64.2486 11.8059C64.4762 11.4752 64.6932 11.1449 64.8985 10.8143C65.1033 10.4836 65.2858 10.1706 65.4454 9.87419C65.605 9.57773 65.719 9.33239 65.7871 9.13856C65.8213 9.04734 65.8783 8.99072 65.9581 8.96752C66.0379 8.94472 66.1122 8.94472 66.1802 8.96752C66.2486 8.99072 66.3029 9.03633 66.3426 9.10474C66.3827 9.17316 66.3796 9.24707 66.3344 9.32649Z" fill="#041C36"/>
<path d="M70.246 9.3262C70.1547 9.52043 70.0242 9.78504 69.8528 10.1212C69.6817 10.4574 69.4797 10.8167 69.2461 11.1981C69.0122 11.5803 68.759 11.9648 68.4849 12.3521C68.2117 12.7398 67.9294 13.0932 67.6392 13.4121C67.3486 13.7313 67.0549 13.9932 66.7589 14.1984C66.462 14.4037 66.1774 14.5063 65.9037 14.5063C65.6761 14.5177 65.4795 14.4721 65.314 14.3695C65.1488 14.2668 65.0148 14.1214 64.9125 13.9334C64.8099 13.7455 64.7415 13.5175 64.7073 13.2497C64.6731 12.9819 64.6731 12.6941 64.7073 12.3863C64.7529 12.0104 64.8956 11.4804 65.1347 10.7967C65.3737 10.1126 65.6588 9.36355 65.9894 8.5485C66.3201 7.73384 66.6673 6.90149 67.0321 6.05263C67.397 5.20376 67.7245 4.42291 68.0151 3.71048C68.3056 2.99844 68.5309 2.40278 68.6906 1.92389C68.8498 1.4454 68.8899 1.16624 68.8101 1.08604C68.7303 1.01802 68.7672 0.938201 68.9213 0.846985C69.0751 0.755769 69.2658 0.704655 69.4938 0.692861C69.7219 0.681852 69.9582 0.733357 70.2035 0.846985C70.4484 0.961006 70.6222 1.18905 70.7248 1.53072C70.8043 1.78156 70.7815 2.14918 70.6564 2.63357C70.531 3.11797 70.3458 3.66762 70.1009 4.28294C69.8555 4.89866 69.5677 5.56273 69.2379 6.27477C68.9068 6.9872 68.5734 7.69099 68.2376 8.38612C67.9011 9.08125 67.5822 9.75123 67.2802 10.3949C66.9779 11.0385 66.7329 11.6031 66.545 12.0871C66.3567 12.5719 66.2485 12.9564 66.2202 13.241C66.1915 13.5261 66.2741 13.6574 66.4683 13.6342C66.582 13.6232 66.7274 13.5316 66.904 13.361C67.0805 13.1899 67.2771 12.9705 67.4937 12.7024C67.7104 12.435 67.9321 12.1358 68.1606 11.8052C68.3882 11.4745 68.6048 11.1442 68.8101 10.8136C69.0153 10.4829 69.1974 10.17 69.357 9.8735C69.517 9.57705 69.631 9.3321 69.699 9.13827C69.7333 9.04705 69.7903 8.99043 69.8701 8.96723C69.9495 8.94443 70.0242 8.94443 70.0922 8.96723C70.1606 8.99043 70.2145 9.03565 70.2546 9.10406C70.2943 9.17247 70.2916 9.24678 70.246 9.3262Z" fill="#041C36"/>
<path d="M74.0246 7.34386C74.0246 7.25265 74.0501 7.16772 74.1016 7.08791C74.1527 7.00809 74.2184 6.93968 74.2982 6.88267C74.2412 6.74584 74.1496 6.67704 74.0246 6.67704C73.8649 6.66603 73.688 6.73759 73.4942 6.89132C73.3003 7.04505 73.0927 7.2672 72.8702 7.55775C72.6481 7.8487 72.4173 8.20767 72.1782 8.63505C71.9384 9.06243 71.6993 9.53857 71.4603 10.0623C71.312 10.3929 71.1894 10.7488 71.0927 11.1305C70.9959 11.5127 70.9413 11.8772 70.9299 12.2247C70.9189 12.5723 70.9531 12.8774 71.0333 13.1397C71.1127 13.4019 71.2546 13.5725 71.4603 13.652C71.6195 13.7204 71.7878 13.7035 71.9643 13.6009C72.1409 13.4982 72.3174 13.3386 72.4939 13.122C72.6709 12.9057 72.8533 12.6435 73.0416 12.3356C73.23 12.0282 73.4116 11.7065 73.5889 11.3704C73.7655 11.0342 73.9361 10.6976 74.1016 10.3611C74.2664 10.0249 74.4232 9.71471 74.5715 9.43005C74.7307 9.05378 74.8876 8.69717 75.0413 8.36101C75.1954 8.02484 75.3236 7.72328 75.4258 7.45553C75.5285 7.18777 75.5969 6.95934 75.6311 6.7714C75.6653 6.58346 75.6484 6.4549 75.58 6.38648C75.5001 6.31807 75.5379 6.23865 75.6912 6.14743C75.8454 6.05661 76.036 6.00471 76.2641 5.99331C76.4917 5.9823 76.728 6.0338 76.9734 6.14743C77.2179 6.26185 77.3917 6.4891 77.4943 6.83077C77.5973 7.16182 77.5804 7.56365 77.4436 8.03625C77.3072 8.50924 77.1157 9.00188 76.8708 9.51498C76.6258 10.0277 76.3636 10.5357 76.0844 11.037C75.8052 11.5383 75.5717 11.9857 75.3834 12.3789C75.1954 12.772 75.0873 13.0854 75.059 13.3186C75.0303 13.5525 75.1463 13.6579 75.4089 13.6347C75.5115 13.6237 75.6543 13.5328 75.8363 13.3618C76.0183 13.1908 76.2185 12.9714 76.4351 12.7032C76.6518 12.4355 76.8763 12.1367 77.1102 11.806C77.3434 11.4757 77.56 11.1451 77.7597 10.8148C77.9591 10.4842 78.1384 10.1708 78.298 9.87434C78.4572 9.57828 78.5712 9.33294 78.64 9.13871C78.6742 9.04749 78.7313 8.99088 78.8111 8.96768C78.8905 8.94527 78.9644 8.94527 79.0332 8.96768C79.1016 8.99088 79.1559 9.03648 79.196 9.1049C79.2357 9.17292 79.233 9.24762 79.1873 9.32704C79.0957 9.52127 78.9648 9.78588 78.7942 10.1216C78.6231 10.4582 78.421 10.8176 78.1875 11.1993C77.9536 11.5811 77.7 11.9656 77.4259 12.3533C77.1527 12.741 76.8704 13.0941 76.5798 13.4129C76.2896 13.7322 75.9959 13.994 75.6999 14.1993C75.403 14.4045 75.1184 14.5067 74.8447 14.5067C74.4114 14.5299 74.0867 14.3534 73.87 13.9771C73.6538 13.6012 73.574 13.122 73.6314 12.5409C73.4147 12.8943 73.1867 13.2167 72.9473 13.5073C72.7078 13.7978 72.4487 14.0282 72.1696 14.1993C71.8904 14.3703 71.5936 14.4725 71.2802 14.5067C70.9668 14.5409 70.6228 14.4788 70.2469 14.3192C69.7905 14.1368 69.4625 13.8686 69.2632 13.5151C69.0639 13.1621 68.9475 12.7775 68.9133 12.3612C68.8791 11.9456 68.9129 11.5127 69.0155 11.0621C69.1177 10.6119 69.2435 10.1991 69.3914 9.82323C69.665 9.12809 69.9697 8.53204 70.3063 8.03625C70.6425 7.54045 70.9987 7.13587 71.3746 6.82251C71.7508 6.50915 72.1377 6.28426 72.5372 6.14743C72.9355 6.01061 73.3404 5.94849 73.7509 5.95949C73.8873 5.9709 74.0324 5.99606 74.1865 6.03616C74.3407 6.07587 74.483 6.14153 74.6139 6.23275C74.7449 6.32397 74.8561 6.44625 74.9473 6.59998C75.0386 6.7541 75.0846 6.94518 75.0846 7.17283C75.0846 7.42368 75.0272 7.5951 74.9131 7.68632C74.8215 7.78855 74.7024 7.83966 74.5542 7.83966C74.4173 7.83966 74.2947 7.79484 74.1865 7.70323C74.0784 7.61201 74.0246 7.49209 74.0246 7.34386Z" fill="#041C36"/>
<path d="M76.2457 5.2583C76.2347 5.41793 76.1903 5.5233 76.1121 5.57442C76.0346 5.62592 75.9485 5.62003 75.8537 5.55751C75.7594 5.495 75.6811 5.37508 75.6198 5.19854C75.5585 5.02201 75.5392 4.78532 75.562 4.48886C75.6064 4.01037 75.7916 3.6455 76.1168 3.39505C76.4419 3.14459 76.8638 2.97592 77.3828 2.8906C77.9014 2.80528 78.488 2.77383 79.1434 2.79663C79.7985 2.81944 80.4794 2.86505 81.186 2.93307C81.3802 2.42037 81.5221 1.99888 81.6134 1.66822C81.705 1.33795 81.7219 1.14412 81.6649 1.08711C81.5851 1.0187 81.6224 0.938881 81.7757 0.847665C81.9299 0.756448 82.1206 0.705335 82.3486 0.693933C82.5766 0.682531 82.8129 0.734037 83.0583 0.847665C83.3032 0.961686 83.477 1.18973 83.5796 1.5314C83.6366 1.69142 83.6421 1.90767 83.5965 2.18092C83.5509 2.45457 83.477 2.76243 83.3744 3.1041C83.8757 3.1273 84.3774 3.1273 84.8787 3.1041C85.38 3.08169 85.8302 3.03883 86.2296 2.97592C86.6279 2.9138 86.9503 2.83084 87.1953 2.72822C87.4402 2.6256 87.5629 2.50018 87.5629 2.35195C87.5629 2.18092 87.614 2.09285 87.7166 2.08735C87.8192 2.08145 87.9219 2.1243 88.0245 2.21513C88.1271 2.30674 88.1979 2.42626 88.238 2.5741C88.2781 2.72272 88.2293 2.85915 88.0929 2.98457C87.9447 3.1328 87.708 3.27277 87.3832 3.4033C87.0584 3.53462 86.6712 3.64865 86.2206 3.74537C85.7708 3.84209 85.2719 3.92465 84.725 3.99307C84.178 4.06187 83.6079 4.10158 83.0154 4.11299C82.776 4.7283 82.4882 5.39513 82.152 6.11307C81.8159 6.83101 81.4797 7.54619 81.1435 8.25863C80.8074 8.97106 80.4822 9.65479 80.1692 10.3102C79.8555 10.9656 79.605 11.5409 79.4167 12.0366C79.2288 12.5324 79.1147 12.9284 79.075 13.2248C79.0349 13.5213 79.1179 13.6581 79.3227 13.6349C79.4367 13.6239 79.5818 13.5323 79.7592 13.3616C79.9353 13.1906 80.1319 12.9712 80.3489 12.7035C80.5648 12.4357 80.7873 12.1365 81.0153 11.8059C81.243 11.4756 81.46 11.1449 81.6649 10.8143C81.8701 10.484 82.0525 10.1706 82.2122 9.87418C82.3714 9.57773 82.4854 9.33278 82.5538 9.13894C82.588 9.04773 82.6447 8.99111 82.7249 8.96791C82.8047 8.94511 82.8786 8.94511 82.947 8.96791C83.0154 8.99111 83.0693 9.03633 83.1094 9.10474C83.1495 9.17315 83.1464 9.24746 83.1011 9.32688C83.0095 9.52111 82.8786 9.78611 82.708 10.1219C82.5369 10.4584 82.3341 10.8174 82.1009 11.1988C81.8674 11.581 81.6134 11.9655 81.3401 12.3528C81.0669 12.7404 80.7846 13.0939 80.494 13.4128C80.203 13.732 79.9097 13.9939 79.6133 14.1991C79.3172 14.4043 79.0322 14.507 78.7589 14.507C78.5309 14.5184 78.3343 14.4728 78.1692 14.3701C78.004 14.2675 77.8699 14.122 77.7673 13.9341C77.6643 13.7462 77.5963 13.5181 77.5621 13.2504C77.5279 12.9826 77.5279 12.6948 77.5621 12.387C77.6077 12.0339 77.7418 11.5353 77.9639 10.8913C78.1861 10.2473 78.4507 9.54077 78.7589 8.77133C79.0664 8.00227 79.3939 7.21003 79.7419 6.39537C80.089 5.58032 80.411 4.81952 80.7079 4.11299C80.115 4.11299 79.5508 4.12124 79.0153 4.13854C78.4798 4.15545 78.0095 4.2042 77.6049 4.28362C77.2004 4.36383 76.8756 4.48021 76.6307 4.63434C76.3853 4.78807 76.2571 4.99606 76.2457 5.2583Z" fill="#041C36"/>
<path d="M86.6594 10.122C86.4884 10.4582 86.2859 10.8175 86.0528 11.1989C85.8188 11.5811 85.5652 11.9656 85.2916 12.3529C85.0183 12.7405 84.736 13.094 84.4458 13.4129C84.1549 13.7321 83.8612 13.994 83.5651 14.1992C83.2687 14.4045 82.984 14.5075 82.7104 14.5075C82.4827 14.5189 82.2861 14.4733 82.1206 14.3706C81.9555 14.268 81.8214 14.1222 81.7188 13.9342C81.6162 13.7463 81.5481 13.5182 81.5139 13.2505C81.4797 12.9827 81.4797 12.6953 81.5139 12.3875C81.5595 12.0116 81.648 11.6125 81.7789 11.191C81.9099 10.7692 82.0604 10.3473 82.2315 9.92541C82.4021 9.50392 82.5763 9.0966 82.7532 8.70342C82.9298 8.31024 83.0831 7.95363 83.2144 7.63477C83.3453 7.31551 83.437 7.04776 83.4881 6.83112C83.5396 6.61487 83.525 6.46704 83.4456 6.38683C83.3658 6.31881 83.4027 6.239 83.5565 6.14778C83.7106 6.05656 83.9013 6.00545 84.1293 5.99366C84.357 5.98265 84.5937 6.03415 84.839 6.14778C85.084 6.2618 85.257 6.48906 85.36 6.83112C85.4626 7.16178 85.4457 7.5636 85.3089 8.0362C85.172 8.50919 84.981 9.00223 84.736 9.51493C84.4911 10.028 84.2288 10.5356 83.9497 11.0369C83.6705 11.5386 83.437 11.9853 83.249 12.3784C83.0607 12.772 82.9526 13.0854 82.9243 13.3189C82.8956 13.5528 83.0123 13.6582 83.2746 13.635C83.3882 13.624 83.5337 13.5328 83.7106 13.3622C83.8871 13.1911 84.0837 12.9713 84.3004 12.7032C84.5166 12.4358 84.7384 12.137 84.9668 11.8064C85.1944 11.4757 85.4111 11.1454 85.6159 10.8148C85.8216 10.4841 86.0036 10.1704 86.1632 9.8743C86.3229 9.57784 86.4373 9.33289 86.5057 9.13906C86.5399 9.04784 86.5965 8.99083 86.6767 8.96803C86.7561 8.94522 86.8305 8.94522 86.8989 8.96803C86.9673 8.99083 87.0211 9.03644 87.0612 9.10485C87.101 9.17326 87.0982 9.24757 87.0526 9.327C86.961 9.52122 86.8305 9.78583 86.6594 10.122ZM85.9159 4.79683C85.978 4.66001 86.0465 4.52318 86.1208 4.38675C86.1951 4.24953 86.2635 4.119 86.326 3.99357C86.3885 3.86854 86.42 3.77104 86.42 3.70262C86.42 3.41796 86.3339 3.18442 86.1632 3.00238C85.9922 2.81994 85.8019 2.68312 85.5912 2.5919C85.38 2.50069 85.1889 2.45508 85.0183 2.45508C84.8473 2.45508 84.7616 2.49479 84.7616 2.57421C84.7616 2.64262 84.7278 2.74013 84.6593 2.86516C84.5909 2.99098 84.5143 3.12741 84.4285 3.27524C84.3428 3.42347 84.2658 3.56305 84.1974 3.69397C84.1289 3.82529 84.0951 3.93066 84.0951 4.01048C84.0951 4.29553 84.1863 4.53183 84.3684 4.71977C84.5508 4.90771 84.7474 5.04492 84.9582 5.13064C85.1693 5.21595 85.3659 5.25842 85.5479 5.25842C85.7303 5.25842 85.822 5.21281 85.822 5.12159C85.822 5.04217 85.853 4.93366 85.9159 4.79683Z" fill="#041C36"/>
<path d="M91.9435 7.18969C91.9435 7.37212 91.9093 7.50344 91.8409 7.58286C91.7496 7.75389 91.6073 7.83921 91.4135 7.83921C91.277 7.83921 91.154 7.79439 91.0462 7.70317C90.9373 7.61196 90.8839 7.49243 90.8839 7.3442C90.8839 7.25299 90.9094 7.16688 90.9605 7.08707C91.012 7.00765 91.0773 6.93963 91.1571 6.88262C91.0659 6.72299 90.9605 6.64278 90.8406 6.64278C90.7215 6.64278 90.5929 6.69114 90.4565 6.78825C90.3193 6.88498 90.1801 7.0163 90.0374 7.18143C89.8946 7.34656 89.7555 7.51484 89.6186 7.68587C89.3796 7.99373 89.1488 8.34955 88.9262 8.75413C88.7041 9.15871 88.5075 9.57469 88.3365 10.0021C88.1658 10.4295 88.0286 10.8517 87.926 11.2673C87.8234 11.6837 87.7695 12.0623 87.7636 12.4044C87.7577 12.746 87.8069 13.0279 87.9091 13.2501C88.0117 13.4722 88.1827 13.6063 88.4218 13.6519C88.5932 13.6861 88.7835 13.6095 88.9947 13.4215C89.2054 13.2336 89.4161 12.991 89.6269 12.6945C89.838 12.3985 90.0429 12.0765 90.2426 11.7285C90.4419 11.3809 90.6157 11.0593 90.7639 10.7625C90.5249 10.6602 90.3594 10.4924 90.2682 10.2588C90.1769 10.0253 90.1486 9.78818 90.1824 9.54874C90.2166 9.30969 90.3083 9.09934 90.4565 8.91691C90.6043 8.73447 90.7923 8.64286 91.0203 8.64286C91.0997 8.64286 91.2023 8.64915 91.3282 8.66056C91.4536 8.67196 91.5613 8.73133 91.6529 8.83945C91.7441 8.94797 91.7952 9.12175 91.8066 9.3608C91.818 9.60024 91.7551 9.9482 91.6187 10.4035C92.0744 10.3925 92.4393 10.3296 92.7129 10.2156C92.9862 10.1019 93.2001 9.97651 93.3538 9.84008C93.5079 9.70326 93.6101 9.56918 93.6616 9.43826C93.7128 9.30733 93.7497 9.22398 93.7725 9.18977C93.8067 9.11035 93.861 9.06199 93.9349 9.04508C94.0092 9.02778 94.0808 9.03643 94.1488 9.07064C94.2172 9.10484 94.2683 9.15871 94.3025 9.23263C94.3371 9.30694 94.3371 9.3899 94.3025 9.48111C94.2117 9.69736 94.069 9.89709 93.8751 10.0791C93.6813 10.2616 93.4568 10.4153 93.2001 10.5403C92.9437 10.6661 92.6587 10.7629 92.3453 10.8317C92.0319 10.9001 91.7154 10.928 91.3962 10.9166C91.2365 11.2701 91.0344 11.6632 90.7895 12.0961C90.5442 12.5294 90.2626 12.9312 89.9434 13.3012C89.6245 13.672 89.2738 13.9767 88.892 14.2161C88.5103 14.4552 88.1025 14.5578 87.6697 14.5236C87.0999 14.467 86.6525 14.2279 86.3277 13.806C86.003 13.3846 85.8292 12.8715 85.8064 12.2672C85.795 11.8115 85.8406 11.3357 85.9428 10.8399C86.0458 10.3441 86.1996 9.85659 86.4048 9.3781C86.61 8.89921 86.8601 8.44627 87.157 8.01889C87.453 7.59151 87.7864 7.21878 88.1568 6.89952C88.5272 6.58066 88.9317 6.33532 89.3705 6.16468C89.8093 5.99365 90.2682 5.91973 90.747 5.94214C90.9633 5.95354 91.143 6.0019 91.2853 6.08722C91.4276 6.17254 91.5444 6.27516 91.636 6.39508C91.7268 6.5146 91.7952 6.64553 91.8409 6.78825C91.8861 6.93058 91.9203 7.06466 91.9435 7.18969Z" fill="#041C36"/>
<path d="M100.351 8.11292C100.328 8.50059 100.243 8.90792 100.095 9.3353C99.9465 9.76268 99.7782 10.1818 99.5903 10.5923C99.4024 11.0024 99.214 11.3928 99.0261 11.7632C98.8378 12.1339 98.6927 12.4555 98.5901 12.7292C98.4878 13.0028 98.4446 13.2218 98.4619 13.387C98.4788 13.5521 98.6015 13.6347 98.8295 13.6347C98.9321 13.6347 99.0745 13.5521 99.2569 13.387C99.4393 13.2218 99.6387 13.0056 99.8553 12.7374C100.072 12.4701 100.297 12.1677 100.53 11.8312C100.764 11.4954 100.983 11.1616 101.189 10.8313C101.394 10.5007 101.576 10.1846 101.735 9.88221C101.895 9.58025 102.01 9.33255 102.078 9.13871C102.112 9.0475 102.169 8.99049 102.249 8.96768C102.328 8.94488 102.403 8.94488 102.471 8.96768C102.539 8.99049 102.593 9.03609 102.633 9.10451C102.673 9.17292 102.67 9.24723 102.624 9.32665C102.534 9.52088 102.403 9.78549 102.231 10.1217C102.061 10.4578 101.858 10.8172 101.625 11.199C101.391 11.5811 101.137 11.9656 100.864 12.3529C100.59 12.7406 100.308 13.0937 100.018 13.4125C99.7271 13.7318 99.4334 13.9936 99.1374 14.1989C98.8405 14.4041 98.5563 14.5071 98.2822 14.5071C98.0542 14.5185 97.8607 14.4643 97.7015 14.3447C97.5415 14.2248 97.4105 14.0621 97.3083 13.8568C97.2053 13.652 97.1341 13.4212 97.0944 13.1652C97.0543 12.9085 97.0516 12.6494 97.0858 12.3871C97.1428 11.92 97.2509 11.4584 97.4105 11.0024C97.5702 10.5467 97.744 10.1106 97.9323 9.69427C98.1198 9.27829 98.3054 8.89652 98.4878 8.54895C98.6699 8.20138 98.8063 7.89982 98.8979 7.64307C98.9891 7.38672 99.0202 7.19014 98.9919 7.05331C98.9636 6.91688 98.8295 6.85397 98.5901 6.86537C98.4646 6.87678 98.2881 6.97586 98.0605 7.16419C97.8324 7.35212 97.5843 7.59196 97.3166 7.88252C97.0488 8.17307 96.7779 8.49233 96.5047 8.8399C96.231 9.18747 95.9857 9.52127 95.7698 9.84014C95.5528 10.2844 95.3279 10.7264 95.0943 11.1647C94.8604 11.6035 94.6524 12.0168 94.4704 12.404C94.2879 12.7913 94.1539 13.1334 94.0686 13.4294C93.9832 13.7259 93.9801 13.9543 94.0599 14.114C94.1051 14.2052 94.0686 14.2987 93.949 14.3955C93.8291 14.4926 93.6754 14.5433 93.4874 14.5496C93.2991 14.5551 93.1053 14.4953 92.9059 14.3699C92.707 14.2445 92.5556 14.0109 92.453 13.6689C92.3622 13.3956 92.3673 13.0367 92.4699 12.5924C92.5729 12.1477 92.7211 11.6719 92.9146 11.1647C93.1084 10.6579 93.3251 10.139 93.5641 9.60934C93.8036 9.07934 94.0198 8.59141 94.214 8.14713C94.4075 7.70284 94.5498 7.32106 94.6414 7.00181C94.7322 6.68294 94.7322 6.4777 94.6414 6.38609C94.5612 6.31807 94.5986 6.23826 94.7523 6.14704C94.906 6.05583 95.0999 6.00471 95.3334 5.99292C95.5669 5.98191 95.804 6.03302 96.0431 6.14704C96.2821 6.26106 96.4532 6.4891 96.5562 6.83117C96.6014 6.97939 96.6183 7.14178 96.6073 7.31831C96.5955 7.49524 96.5672 7.68043 96.522 7.87387C96.7382 7.62342 96.9576 7.38397 97.1801 7.15554C97.4019 6.9275 97.6268 6.72855 97.8548 6.55752C98.0829 6.38649 98.3054 6.24966 98.522 6.14704C98.7379 6.04442 98.9494 5.99292 99.1543 5.99292C99.599 5.98191 99.9292 6.17535 100.146 6.57442C100.362 6.9735 100.431 7.4862 100.351 8.11292Z" fill="#041C36"/>
<path d="M104.114 14.1481L104.097 14.165C103.846 14.2909 103.607 14.3876 103.379 14.456C103.151 14.5244 102.957 14.5582 102.798 14.5582C102.342 14.5582 101.992 14.4418 101.747 14.2079C101.502 13.9747 101.339 13.6979 101.26 13.3787C101.18 13.0598 101.168 12.7406 101.225 12.4213C101.282 12.1024 101.39 11.8571 101.55 11.6865C101.779 11.447 101.983 11.2878 102.165 11.2076C102.348 11.1282 102.502 11.0995 102.627 11.1223C102.752 11.1337 102.869 11.1848 102.977 11.276C103.085 11.3676 103.139 11.4812 103.139 11.618C103.139 11.7663 103.085 11.8917 102.977 11.9939C102.869 12.0965 102.747 12.1481 102.61 12.1481C102.507 12.1481 102.41 12.1166 102.32 12.0541C102.228 11.9916 102.165 11.9086 102.131 11.806C101.983 11.977 101.881 12.1823 101.824 12.4213C101.767 12.6608 101.755 12.8888 101.789 13.1054C101.823 13.3217 101.911 13.5073 102.054 13.661C102.196 13.8147 102.393 13.8977 102.644 13.9087C102.735 13.9087 102.866 13.8662 103.037 13.7805C103.208 13.6952 103.382 13.5529 103.558 13.3531C103.735 13.1538 103.892 12.8974 104.028 12.5837C104.165 12.2707 104.248 11.8917 104.277 11.447C104.305 11.0027 104.257 10.4841 104.132 9.89122C104.006 9.2991 103.766 8.63228 103.414 7.89114C103.3 8.10778 103.172 8.34408 103.029 8.60082C102.886 8.85717 102.758 9.09937 102.644 9.32702C102.587 9.40683 102.518 9.45283 102.439 9.46384C102.359 9.47564 102.285 9.46699 102.217 9.43829C102.149 9.40998 102.1 9.36437 102.071 9.30146C102.043 9.23895 102.052 9.16778 102.097 9.08797C102.189 8.89413 102.273 8.72035 102.353 8.56662C102.433 8.41249 102.513 8.26702 102.593 8.13058C102.673 7.99376 102.747 7.85418 102.815 7.71146C102.883 7.56952 102.957 7.41854 103.037 7.25892C102.911 7.07648 102.815 6.87675 102.746 6.6605C102.678 6.44386 102.644 6.21582 102.644 5.97638C102.644 5.87415 102.664 5.74558 102.704 5.59185C102.744 5.43812 102.812 5.28439 102.909 5.13026C103.006 4.97653 103.139 4.8456 103.31 4.73709C103.482 4.62897 103.704 4.57471 103.977 4.57471C104.262 4.57471 104.47 4.63762 104.602 4.76264C104.732 4.88846 104.804 5.0477 104.815 5.24153C104.827 5.43537 104.787 5.64886 104.696 5.88241C104.604 6.11635 104.484 6.34714 104.337 6.57479L104.285 6.67741C104.73 7.19011 105.086 7.6804 105.353 8.14749C105.621 8.61498 105.824 9.05966 105.96 9.48114C106.097 9.90302 106.174 10.2962 106.192 10.6607C106.208 11.0255 106.177 11.3676 106.098 11.6865C106.473 11.2536 106.809 10.8258 107.106 10.4043C107.402 9.98283 107.647 9.58376 107.841 9.20749C107.875 9.12768 107.926 9.07381 107.995 9.04511C108.063 9.0168 108.149 9.03096 108.251 9.08797C108.331 9.13357 108.38 9.19648 108.397 9.2759C108.414 9.35572 108.405 9.43003 108.371 9.49805C108.097 10.0568 107.781 10.5809 107.422 11.0707C107.063 11.561 106.667 12.0513 106.234 12.5412C105.927 12.8829 105.605 13.1908 105.268 13.4644C104.932 13.7381 104.553 13.9661 104.132 14.1481H104.114Z" fill="#041C36"/>
</svg>
